<svg xmlns="http://www.w3.org/2000/svg" width="710" height="178" fill="none" viewBox="20298 83 710 178"><g fill="#f7f3ea" stroke="#8c98b7" stroke-miterlimit="10" clip-path="url(#c)"><path d="M20303.1 135.734h133.3V258.14h-133.3c-1.3 0-2.3-1.153-2.3-2.581V138.315c0-1.428 1-2.581 2.3-2.581Zm326.5 0h-193.1V258.14h193.1z"/><path d="M20821.7 135.734h-193.1V258.14h193.1z"/><path d="M21002.9 85.5c1.4 0 2.4 1.484 2.3 3.233-1.4 25.211-6.3 48.635-20.7 76.316-48 92.437-155.6 93.176-164 93.09V135.734c5.9-.293 26.3-2.134 43.1-19.957 9.1-9.651 13.7-21.761 15.9-28.608.4-.998 1.2-1.652 2.2-1.669 19.5-.482 39.3.154 59.3 0 20.9-.172 41.5-.203 61.9 0Z"/></g><defs><clipPath id="a"><path fill="#fff" d="M9122 151h380v286h-380z"/></clipPath><clipPath id="b"><path fill="#fff" d="M10945 323h286v34h-286z"/></clipPath><clipPath id="c"><path fill="#fff" d="M20300 85h706v174h-706z"/></clipPath><clipPath id="d"><path fill="#fff" d="M6301.59 335.141h86.415v80.52h-86.415z"/></clipPath><clipPath id="e"><path fill="#fff" d="m6287.39 326.02 83.868 20.832L6351.865 425l-83.869-20.833z"/></clipPath><clipPath id="f"><path fill="#fff" d="M6482 177h393v575h-393z"/></clipPath><clipPath id="g"><path fill="#fff" d="M18435 218h68v293h-68z"/></clipPath></defs></svg>