<svg width="215" height="508" viewBox="19950 255 215 508" fill="none" xmlns="http://www.w3.org/2000/svg">
<path fill="#f7f3ea" stroke="#8c98b7" stroke-miterlimit="10" d="M19963.6 753.651c7.6 0 13.7-6.279 13.7-14.023s-6.1-14.023-13.7-14.023c-7.5 0-13.6 6.279-13.6 14.023s6.1 14.023 13.6 14.023ZM20138.2 754.147c7.5 0 13.6-6.278 13.6-14.023 0-7.744-6.1-14.022-13.6-14.022-7.6 0-13.7 6.278-13.7 14.022s6.1 14.023 13.7 14.023Z"/>
<path fill="#f7f3ea" stroke="#8c98b7" stroke-miterlimit="10" d="M20138.2 749.901c5.3 0 9.5-4.378 9.5-9.778s-4.2-9.779-9.5-9.779c-5.2 0-9.5 4.378-9.5 9.779s4.3 9.778 9.5 9.778Zm-174.2-.492c5.2 0 9.5-4.378 9.5-9.779s-4.3-9.778-9.5-9.778c-5.3 0-9.6 4.378-9.6 9.778s4.3 9.779 9.6 9.779Z"/>
<path fill="#f7f3ea" stroke="#8c98b7" stroke-miterlimit="10" d="M20138.6 260h-.8c-1.2 0-2.2 1.007-2.2 2.25v475.673c0 1.242 1 2.25 2.2 2.25h.8c1.2 0 2.2-1.008 2.2-2.25V262.25c0-1.243-1-2.25-2.2-2.25Zm-168.9 455.352h-10.9c-1.2 0-2.1.97-2.1 2.167s.9 2.167 2.1 2.167h10.9c1.2 0 2.1-.97 2.1-2.167s-.9-2.167-2.1-2.167Z"/>
<path fill="#f7f3ea" stroke="#8c98b7" stroke-miterlimit="10" d="M20143.6 715.953h-10.9c-1.1 0-2.1.97-2.1 2.167s1 2.168 2.1 2.168h10.9c1.2 0 2.2-.971 2.2-2.168s-1-2.167-2.2-2.167Zm-10.6-449.758h-163.4c-1.2 0-2.2 1.007-2.2 2.25v5.204c0 1.242 1 2.25 2.2 2.25h163.4c1.2 0 2.2-1.008 2.2-2.25v-5.204c0-1.243-1-2.25-2.2-2.25ZM20039.7 614h71.6c1.2 0 2.2 1.005 2.2 2.25v9.283c0 18.987-15 34.419-33.5 34.419h-8c-19 0-34.5-15.897-34.5-35.484v-8.218c0-1.245 1-2.25 2.2-2.25Z"/>
<path fill="#f7f3ea" stroke="#8c98b7" stroke-miterlimit="10" d="M20040 634.035h71.6c1.2 0 2.2 1.005 2.2 2.25v9.283c0 18.987-15 34.419-33.5 34.419h-7.9c-19.1 0-34.6-15.897-34.6-35.484v-8.218c0-1.245 1-2.25 2.2-2.25Z"/>
<rect width="146" height="7" x="19978.5" y="321.5" fill="#f7f3ea" stroke="#8c98b7" rx="1.5"/>
<rect width="151" height="5" x="19976.5" y="316.5" fill="#f7f3ea" stroke="#8c98b7" rx="1.5"/>
<rect width="169" height="10" x="19966.5" y="490.5" fill="#f7f3ea" stroke="#8c98b7" rx="1.5"/>
<rect width="169" height="10" x="19966.5" y="527.5" fill="#f7f3ea" stroke="#8c98b7" rx="1.5"/>
<rect width="169" height="10" x="19966.5" y="570.5" fill="#f7f3ea" stroke="#8c98b7" rx="1.5"/>
<rect width="169" height="10" x="19966.5" y="679.5" fill="#f7f3ea" stroke="#8c98b7" rx="1.5"/>
<rect width="169" height="10" x="19966.5" y="441.5" fill="#f7f3ea" stroke="#8c98b7" rx="1.5"/>
<rect width="169" height="10" x="19966.5" y="396.5" fill="#f7f3ea" stroke="#8c98b7" rx="1.5"/>
<rect width="169" height="10" x="19966.5" y="342.5" fill="#f7f3ea" stroke="#8c98b7" rx="1.5"/>
<path fill="#f7f3ea" stroke="#8c98b7" stroke-miterlimit="10" d="M19964.4 262.488h-.9c-1.2 0-2.1 1.007-2.1 2.25v475.673c0 1.243.9 2.25 2.1 2.25h.9c1.2 0 2.2-1.007 2.2-2.25V264.738c0-1.243-1-2.25-2.2-2.25Z"/>

</svg>
