<svg width="295" height="686" viewBox="22545 238 295 686" fill="none" xmlns="http://www.w3.org/2000/svg">
<g stroke="#2a4385" stroke-miterlimit="10" stroke-width="2" clip-path="url(#k)"><path fill="#f7f3ea" stroke-linecap="round" d="M22500.4 240.238h-234.8c-1.9 0-3.5 1.59-3.5 3.55v2.186c0 1.961 1.6 3.551 3.5 3.551h234.8c2 0 3.6-1.59 3.6-3.551v-2.186c0-1.96-1.6-3.55-3.6-3.55Zm0 600.254h-234.8c-1.9 0-3.5 1.59-3.5 3.55v2.186c0 1.961 1.6 3.551 3.5 3.551h234.8c2 0 3.6-1.59 3.6-3.551v-2.186c0-1.96-1.6-3.55-3.6-3.55Z"/><path fill="#f7f3ea" d="M22282.3 326.93h201.9v1.311c0 3.55-2.9 6.436-6.4 6.436h-189.1c-3.5 0-6.4-2.886-6.4-6.436z"/><path fill="#2a4385" d="M22484.9 325.285h-203.5c-.2 0-.4.196-.4.437 0 .242.2.438.4.438h203.5c.3 0 .5-.196.5-.438 0-.241-.2-.437-.5-.437Z"/><path fill="#f7f3ea" d="M22282.3 379.812h201.9v1.312c0 3.55-2.9 6.436-6.4 6.436h-189.1c-3.5 0-6.4-2.886-6.4-6.436z"/><path fill="#2a4385" d="M22484.9 378.188h-203.5c-.2 0-.4.195-.4.437 0 .241.2.437.4.437h203.5c.3 0 .5-.196.5-.437 0-.242-.2-.437-.5-.437Z"/><path fill="#f7f3ea" d="M22282.3 432.945h201.9v1.312c0 3.55-2.9 6.436-6.4 6.436h-189.1c-3.5 0-6.4-2.886-6.4-6.436z"/><path fill="#2a4385" d="M22484.9 431.301h-203.5c-.2 0-.4.196-.4.437s.2.437.4.437h203.5c.3 0 .5-.196.5-.437s-.2-.437-.5-.437Z"/><path fill="#f7f3ea" d="M22282.3 539.031h201.9v1.312c0 3.55-2.9 6.436-6.4 6.436h-189.1c-3.5 0-6.4-2.886-6.4-6.436z"/><path fill="#2a4385" d="M22484.9 537.387h-203.5c-.2 0-.4.195-.4.437 0 .241.2.437.4.437h203.5c.3 0 .5-.196.5-.437 0-.242-.2-.437-.5-.437Z"/><path fill="#f7f3ea" d="M22282.3 591.129h201.9v1.312c0 3.55-2.9 6.435-6.4 6.435h-189.1c-3.5 0-6.4-2.885-6.4-6.435z"/><path fill="#2a4385" d="M22484.9 589.484h-203.5c-.2 0-.4.196-.4.438 0 .241.2.437.4.437h203.5c.3 0 .5-.196.5-.437 0-.242-.2-.438-.5-.438Z"/><path fill="#f7f3ea" d="M22282.3 697.859h201.9v1.312c0 3.55-2.9 6.436-6.4 6.436h-189.1c-3.5 0-6.4-2.886-6.4-6.436z"/><path fill="#2a4385" d="M22484.9 696.215h-203.5c-.2 0-.4.196-.4.437 0 .242.2.437.4.437h203.5c.3 0 .5-.195.5-.437 0-.241-.2-.437-.5-.437Z"/><path fill="#f7f3ea" d="M22282.3 644.957h201.9v1.312c0 3.55-2.9 6.435-6.4 6.435h-189.1c-3.5 0-6.4-2.885-6.4-6.435z"/><path fill="#2a4385" d="M22484.9 643.312h-203.5c-.2 0-.4.196-.4.438 0 .241.2.437.4.437h203.5c.3 0 .5-.196.5-.437 0-.242-.2-.438-.5-.438Z"/><path fill="#2a4385" stroke-linecap="round" d="M22288.8 283.732h-18.6l-.5-2.763 19.1 2.466zm0 52.988h-18.6l-.5-2.763 19.1 2.483zm0 53.008h-18.6l-.5-2.763 19.1 2.466zm0 53.008h-18.6l-.5-2.763 19.1 2.466zm0 52.992h-18.6l-.5-2.763 19.1 2.483zm0 53.004h-18.6l-.5-2.763 19.1 2.466zm0 52.992h-18.6l-.5-2.763 19.1 2.483zm0 53.008h-18.6l-.5-2.763 19.1 2.466zm0 53.008h-18.6l-.5-2.763 19.1 2.465zm0 52.988h-18.6l-.5-2.763 19.1 2.483zm0 53.008h-18.6l-.5-2.763 19.1 2.466z"/><path fill="#f7f3ea" d="M22266.6 239.312c-3 0-5.4 3.113-5.4 6.069v620.856h10.8V245.381c0-2.956-2.4-6.069-5.4-6.069Z"/><path fill="#f7f3ea" d="M22276.7 864.594h-20.1c-1 0-1.7.791-1.7 1.766v.525c0 .975.7 1.766 1.7 1.766h20.1c.9 0 1.7-.791 1.7-1.766v-.525c0-.975-.8-1.766-1.7-1.766Zm-.5 5.019h-19.1c-3.2 0-5.8 2.589-5.8 5.771v19.15c3.8 0 6.8-2.85 6.5-6.208l-.4-4.704c-.3-4.687 3.9-8.622 9.2-8.622s9.5 3.935 9.2 8.622l-.4 4.704c-.3 3.34 2.7 6.208 6.6 6.208v-19.15c0-3.182-2.6-5.771-5.8-5.771Z"/><path fill="#2a4385" d="M22272.6 886.628c0-3.274-2.7-5.929-6-5.929-3.2 0-5.9 2.655-5.9 5.929v30.132c0 3.275 2.7 5.929 5.9 5.929 3.3 0 6-2.654 6-5.929z"/><path fill="#2a4385" stroke-linecap="round" d="M22477.3 283.732h18.5l.5-2.763-19 2.466zm0 52.988h18.5l.5-2.763-19 2.483zm0 53.008h18.5l.5-2.763-19 2.466zm0 53.008h18.5l.5-2.763-19 2.466zm0 52.992h18.5l.5-2.763-19 2.483zm0 53.004h18.5l.5-2.763-19 2.466zm0 52.992h18.5l.5-2.763-19 2.483zm0 53.008h18.5l.5-2.763-19 2.466zm0 53.008h18.5l.5-2.763-19 2.465zm0 52.988h18.5l.5-2.763-19 2.483zm0 53.008h18.5l.5-2.763-19 2.466z"/><path fill="#f7f3ea" d="M22499.4 239.312c3 0 5.4 3.113 5.4 6.069v620.856h-10.8V245.381c0-2.956 2.4-6.069 5.4-6.069Z"/><path fill="#f7f3ea" d="M22489.4 868.652h20c1 0 1.8-.79 1.8-1.766v-.525c0-.975-.8-1.766-1.8-1.766h-20c-1 0-1.8.791-1.8 1.766v.525c0 .976.8 1.766 1.8 1.766Zm.5.961h19.1c3.1 0 5.7 2.589 5.7 5.771v19.15c-3.8 0-6.8-2.85-6.5-6.208l.4-4.704c.3-4.687-3.9-8.622-9.2-8.622s-9.5 3.935-9.2 8.622l.4 4.704c.3 3.34-2.7 6.208-6.5 6.208v-19.15c0-3.182 2.6-5.771 5.8-5.771Z"/><path fill="#2a4385" d="M22493.5 916.763c0 3.274 2.6 5.928 5.9 5.928s5.9-2.654 5.9-5.928V886.63c0-3.274-2.6-5.928-5.9-5.928s-5.9 2.654-5.9 5.928z"/><path fill="#f7f3ea" stroke-linecap="round" d="M22815.9 240.238h-234.8c-2 0-3.6 1.59-3.6 3.55v2.186c0 1.961 1.6 3.551 3.6 3.551h234.8c1.9 0 3.5-1.59 3.5-3.551v-2.186c0-1.96-1.6-3.55-3.5-3.55Zm0 600.254h-234.8c-2 0-3.6 1.59-3.6 3.55v2.186c0 1.961 1.6 3.551 3.6 3.551h234.8c1.9 0 3.5-1.59 3.5-3.551v-2.186c0-1.96-1.6-3.55-3.5-3.55Z"/><path fill="#f7f3ea" d="M22597.7 326.93h202v1.311c0 3.55-2.9 6.436-6.5 6.436h-189c-3.6 0-6.5-2.886-6.5-6.436z"/><path fill="#2a4385" d="M22800.4 325.285h-203.5c-.3 0-.5.196-.5.437 0 .242.2.438.5.438h203.5c.2 0 .4-.196.4-.438 0-.241-.2-.437-.4-.437Z"/><path fill="#f7f3ea" d="M22597.7 379.812h202v1.312c0 3.55-2.9 6.436-6.5 6.436h-189c-3.6 0-6.5-2.886-6.5-6.436z"/><path fill="#2a4385" d="M22800.4 378.188h-203.5c-.3 0-.5.195-.5.437 0 .241.2.437.5.437h203.5c.2 0 .4-.196.4-.437 0-.242-.2-.437-.4-.437Z"/><path fill="#f7f3ea" d="M22597.7 432.945h202v1.312c0 3.55-2.9 6.436-6.5 6.436h-189c-3.6 0-6.5-2.886-6.5-6.436z"/><path fill="#2a4385" d="M22800.4 431.301h-203.5c-.3 0-.5.196-.5.437s.2.437.5.437h203.5c.2 0 .4-.196.4-.437s-.2-.437-.4-.437Z"/><path fill="#f7f3ea" d="M22597.7 539.027h202v1.312c0 3.55-2.9 6.436-6.5 6.436h-189c-3.6 0-6.5-2.886-6.5-6.436z"/><path fill="#2a4385" d="M22800.4 537.383h-203.5c-.3 0-.5.196-.5.437s.2.437.5.437h203.5c.2 0 .4-.196.4-.437s-.2-.437-.4-.437Z"/><path fill="#f7f3ea" d="M22597.7 591.125h202v1.312c0 3.55-2.9 6.435-6.5 6.435h-189c-3.6 0-6.5-2.885-6.5-6.435z"/><path fill="#2a4385" d="M22800.4 589.48h-203.5c-.3 0-.5.196-.5.438 0 .241.2.437.5.437h203.5c.2 0 .4-.196.4-.437 0-.242-.2-.438-.4-.438Z"/><path fill="#f7f3ea" d="M22597.7 697.859h202v1.312c0 3.55-2.9 6.436-6.5 6.436h-189c-3.6 0-6.5-2.886-6.5-6.436z"/><path fill="#2a4385" d="M22800.4 696.215h-203.5c-.3 0-.5.196-.5.437 0 .242.2.437.5.437h203.5c.2 0 .4-.195.4-.437 0-.241-.2-.437-.4-.437Z"/><path fill="#f7f3ea" d="M22597.7 644.957h202v1.312c0 3.55-2.9 6.435-6.5 6.435h-189c-3.6 0-6.5-2.885-6.5-6.435z"/><path fill="#2a4385" d="M22800.4 643.312h-203.5c-.3 0-.5.196-.5.438 0 .241.2.437.5.437h203.5c.2 0 .4-.196.4-.437 0-.242-.2-.438-.4-.438Zm14.5 279.182c13.1 0 23.8-10.64 23.8-23.766s-10.7-23.767-23.8-23.767c-13.2 0-23.8 10.641-23.8 23.767s10.6 23.766 23.8 23.766Z"/><path fill="#2a4385" stroke-linecap="round" d="M22792.7 283.994h18.6l.5-2.764-19.1 2.484zm0 53.007h18.6l.5-2.763-19.1 2.466zm0 53.008h18.6l.5-2.763-19.1 2.466zm0 52.989h18.6l.5-2.764-19.1 2.484zm0 53.007h18.6l.5-2.763-19.1 2.466zm0 52.989h18.6l.5-2.764-19.1 2.484zm0 53.007h18.6l.5-2.763-19.1 2.466zm0 53.008h18.6l.5-2.763-19.1 2.466zm0 52.992h18.6l.5-2.763-19.1 2.484zm0 53.004h18.6l.5-2.763-19.1 2.466zm0 52.993h18.6l.5-2.764-19.1 2.484z"/><path fill="#f7f3ea" d="M22814.9 239.592c3 0 5.4 3.113 5.4 6.068v620.856h-10.9V245.643c0-2.956 2.5-6.069 5.5-6.069z"/><path fill="#f7f3ea" d="M22804.8 868.91h20.1c.9 0 1.7-.791 1.7-1.766v-.525c0-.975-.8-1.766-1.7-1.766h-20.1c-1 0-1.7.791-1.7 1.766v.525c0 .975.7 1.766 1.7 1.766Zm10.1 43.984c7.8 0 14.2-6.342 14.2-14.166 0-7.823-6.4-14.166-14.2-14.166-7.9 0-14.2 6.343-14.2 14.166s6.3 14.166 14.2 14.166Z"/><path fill="#f7f3ea" d="M22817 904.1h-4.5c-3.7 0-6.8-2.589-7.6-6.174l-5-24.641c-.3-1.574.9-3.043 2.5-3.043h24.8c1.6 0 2.8 1.469 2.5 3.043l-5.1 24.641c-.7 3.603-3.9 6.174-7.6 6.174Z"/><path fill="#2a4385" d="M22582 922.494c13.1 0 23.8-10.64 23.8-23.766s-10.7-23.767-23.8-23.767c-13.2 0-23.8 10.641-23.8 23.767s10.6 23.766 23.8 23.766Z"/><path fill="#2a4385" stroke-linecap="round" d="M22604.2 283.994h-18.6l-.5-2.764 19.1 2.484zm0 53.007h-18.6l-.5-2.763 19.1 2.466zm0 53.008h-18.6l-.5-2.763 19.1 2.466zm0 52.989h-18.6l-.5-2.764 19.1 2.484zm0 53.007h-18.6l-.5-2.763 19.1 2.466zm0 52.989h-18.6l-.5-2.764 19.1 2.484zm0 53.007h-18.6l-.5-2.763 19.1 2.466zm0 53.008h-18.6l-.5-2.763 19.1 2.466zm0 52.992h-18.6l-.5-2.763 19.1 2.484zm0 53.004h-18.6l-.5-2.763 19.1 2.466zm0 52.993h-18.6l-.5-2.764 19.1 2.484z"/><path fill="#f7f3ea" d="M22582 239.592c-3 0-5.4 3.113-5.4 6.068v620.856h10.8V245.643c0-2.956-2.4-6.069-5.4-6.069z"/><path fill="#f7f3ea" d="M22592.1 864.871h-20.1c-1 0-1.8.791-1.8 1.766v.525c0 .976.8 1.766 1.8 1.766h20.1c.9 0 1.7-.79 1.7-1.766v-.525c0-.975-.8-1.766-1.7-1.766Zm-10.1 48.023c7.8 0 14.2-6.342 14.2-14.166 0-7.823-6.4-14.166-14.2-14.166s-14.2 6.343-14.2 14.166 6.4 14.166 14.2 14.166Z"/><path fill="#f7f3ea" d="M22579.8 904.1h4.5c3.7 0 6.9-2.589 7.6-6.174l5.1-24.641c.3-1.574-.9-3.043-2.5-3.043h-24.8c-1.6 0-2.8 1.469-2.5 3.043l5 24.641c.8 3.603 3.9 6.174 7.6 6.174Z"/></g>
<defs><clipPath id="a"><path fill="#fff" d="M4305.06 448.156h38.018v96.462h-38.018z"/></clipPath><clipPath id="b"><path fill="#fff" d="M4255.35 480.309h36.556v51.154h-36.556z"/></clipPath><clipPath id="c"><path fill="#fff" d="M32 535h108v114H32z"/></clipPath><clipPath id="d"><path fill="#fff" d="M122 535h108v114H122z"/></clipPath><clipPath id="e"><path fill="#fff" d="M206 535h108v114H206z"/></clipPath><clipPath id="f"><path fill="#fff" d="M290 535h108v114H290z"/></clipPath><clipPath id="g"><path fill="#fff" d="M374 535h108v114H374z"/></clipPath><clipPath id="h"><path fill="#fff" d="M458 535h108v114H458z"/></clipPath><clipPath id="i"><path fill="#fff" d="M542 535h108v114H542z"/></clipPath><clipPath id="j"><path fill="#fff" d="M626 535h108v114H626z"/></clipPath><clipPath id="k"><path fill="#fff" d="M22250 238h590v686h-590z"/></clipPath></defs>
</svg>
