<svg xmlns="http://www.w3.org/2000/svg" width="567" height="299.985" fill="none" viewBox="8383 516.223 567 299.985"><g stroke="#2a4385" stroke-linecap="round" stroke-linejoin="round" clip-path="url(#g)"><path fill="#f7f3ea" stroke-width="2" d="M8926.72 773.945h-18.55c-.9 0-1.63.731-1.63 1.633v29.38c0 .902.73 1.633 1.63 1.633h18.55c.91 0 1.64-.731 1.64-1.633v-29.38c0-.902-.73-1.633-1.64-1.633m-511.71 0h-18.55c-.91 0-1.64.731-1.64 1.633v29.38c0 .902.73 1.633 1.64 1.633h18.55c.9 0 1.63-.731 1.63-1.633v-29.38c0-.902-.73-1.633-1.63-1.633M8926 540.402h-363c-1.2 0-2.17.971-2.17 2.168v212.961c0 1.197.97 2.168 2.17 2.168h363c1.19 0 2.17-.971 2.17-2.168V542.57c0-1.197-.98-2.168-2.17-2.168m-365.23-21.172h-165.69v238.491h165.69z"/><path fill="#f7f3ea" stroke-width="2" d="M8910.65 556.141h-335.31c-1.03 0-1.86.903-1.86 2.018v184.318c0 1.114.83 2.018 1.86 2.018h335.31c1.02 0 1.86-.904 1.86-2.018V558.159c0-1.115-.84-2.018-1.86-2.018"/><path fill="#f7f3ea" stroke-width="2" d="M8560.77 533.609h-165.69v116.876h165.69z" opacity=".8"/><path fill="#f7f3ea" stroke-width="2" d="M8936.01 519.145H8388c-1.1 0-1.99.91-1.99 2.034v17.946c0 1.124.89 2.035 1.99 2.035h548.01c1.1 0 1.99-.911 1.99-2.035v-17.946c0-1.124-.89-2.034-1.99-2.034m0 238.503H8388c-1.1 0-1.99.911-1.99 2.035v17.946c0 1.124.89 2.035 1.99 2.035h548.01c1.1 0 1.99-.911 1.99-2.035v-17.946c0-1.124-.89-2.035-1.99-2.035"/><path fill="#2a4385" stroke-width="1.407" d="M8502.21 561.809h-48.59c-.96 0-1.75.783-1.75 1.75v8.995c0 .966.79 1.75 1.75 1.75h48.59c.97 0 1.76-.784 1.76-1.75v-8.995c0-.967-.79-1.75-1.76-1.75"/><path fill="#2a4385" stroke-width="2" d="M8502.21 669.852h-48.59c-.96 0-1.75.783-1.75 1.75v8.995c0 .966.79 1.75 1.75 1.75h48.59c.97 0 1.76-.784 1.76-1.75v-8.995c0-.967-.79-1.75-1.76-1.75"/><path fill="#2a4385" stroke-width="1.407" d="M8614.56 683.856v-66.598c0-.967-.78-1.75-1.75-1.75h-9.62c-.97 0-1.75.783-1.75 1.75v66.598c0 .966.78 1.75 1.75 1.75h9.62c.97 0 1.75-.784 1.75-1.75"/></g><defs><clipPath id="c"><path fill="#fff" d="M2131 722h82v125h-82z"/></clipPath><clipPath id="d"><path fill="#fff" d="M4214 733h82v125h-82z"/></clipPath><clipPath id="e"><path fill="#fff" d="M2263 725h82v125h-82z"/></clipPath><clipPath id="f"><path fill="#fff" d="M2199 695h82v125h-82z"/></clipPath><clipPath id="g"><path fill="#fff" d="M8385 518.223h563v295.985h-563z"/></clipPath><clipPath id="h"><path fill="#fff" d="m8903.95 481 95.714 7.409-7.95 102.693-95.713-7.41z"/></clipPath><clipPath id="i"><path fill="#fff" d="M4288 628h159v124h-159z"/></clipPath><clipPath id="j"><path fill="#fff" d="M4408 636h166v130h-166z"/></clipPath><clipPath id="k"><path fill="#fff" d="M22505 261h459v534h-459z"/></clipPath><clipPath id="l"><path fill="#fff" d="M13318 390h574v460h-574z"/></clipPath><clipPath id="m"><path fill="#fff" d="M19016 404h890v456h-890z"/></clipPath><clipPath id="n"><path fill="#fff" d="M838 712h82v125h-82z"/></clipPath><clipPath id="o"><path fill="#fff" d="M17347 79h87v135h-87z"/></clipPath><clipPath id="p"><path fill="#fff" d="M17855 79h87v135h-87z"/></clipPath></defs></svg>