<svg xmlns="http://www.w3.org/2000/svg" width="208" height="498" fill="none" viewBox="14420 256 208 498">
<g>
<path fill="#f7f3ea" stroke="#8c98b7" stroke-miterlimit="10" d="M14436.6 751.651c7.6 0 13.7-6.279 13.7-14.023s-6.1-14.023-13.7-14.023c-7.5 0-13.6 6.279-13.6 14.023s6.1 14.023 13.6 14.023Zm174.6.496c7.5 0 13.6-6.278 13.6-14.023 0-7.744-6.1-14.022-13.6-14.022-7.6 0-13.7 6.278-13.7 14.022s6.1 14.023 13.7 14.023Z"/>
<path fill="#f7f3ea" stroke="#8c98b7" stroke-miterlimit="10" d="M14611.2 747.901c5.3 0 9.5-4.378 9.5-9.778s-4.2-9.779-9.5-9.779c-5.2 0-9.5 4.378-9.5 9.779s4.3 9.778 9.5 9.778Zm-174.2-.492c5.2 0 9.5-4.378 9.5-9.779s-4.3-9.778-9.5-9.778c-5.3 0-9.6 4.378-9.6 9.778s4.3 9.779 9.6 9.779Z"/>
<path fill="#f7f3ea" stroke="#8c98b7" stroke-miterlimit="10" d="M14611.6 258h-.8c-1.2 0-2.2 1.007-2.2 2.25v475.673c0 1.242 1 2.25 2.2 2.25h.8c1.2 0 2.2-1.008 2.2-2.25V260.25c0-1.243-1-2.25-2.2-2.25Zm-168.9 455.352h-10.9c-1.2 0-2.1.97-2.1 2.167s.9 2.167 2.1 2.167h10.9c1.2 0 2.1-.97 2.1-2.167s-.9-2.167-2.1-2.167Z"/>
<path fill="#f7f3ea" stroke="#8c98b7" stroke-miterlimit="10" d="M14616.6 713.953h-10.9c-1.1 0-2.1.97-2.1 2.167s1 2.168 2.1 2.168h10.9c1.2 0 2.2-.971 2.2-2.168s-1-2.167-2.2-2.167Zm-10.6-449.758h-163.4c-1.2 0-2.2 1.007-2.2 2.25v5.204c0 1.242 1 2.25 2.2 2.25h163.4c1.2 0 2.2-1.008 2.2-2.25v-5.204c0-1.243-1-2.25-2.2-2.25Zm-95.4 96.957h-34.1c-1.2 0-2.1 1.008-2.1 2.25v29.455c0 1.242.9 2.25 2.1 2.25h34.1c1.3 0 2.2-1.008 2.2-2.25v-29.455c0-1.242-.9-2.25-2.2-2.25Z"/>
<path fill="#f7f3ea" stroke="#8c98b7" stroke-miterlimit="10" d="M14512.8 357h-37.6c-1.2 0-2.2 1.007-2.2 2.25 0 1.242 1 2.249 2.2 2.249h37.6c1.2 0 2.2-1.007 2.2-2.249s-1-2.25-2.2-2.25Zm66.1 20.109h-38.8c-1.2 0-2.2 1.008-2.2 2.25v13.498c0 1.242 1 2.249 2.2 2.249h38.8c1.2 0 2.2-1.007 2.2-2.249v-13.498c0-1.242-1-2.25-2.2-2.25Zm4.2-6h-46.7c-1.2 0-2.2 1.008-2.2 2.25v1.5c0 1.242 1 2.249 2.2 2.249h46.7c1.2 0 2.2-1.007 2.2-2.249v-1.5c0-1.242-1-2.25-2.2-2.25ZM14512.7 612h71.6c1.2 0 2.2 1.005 2.2 2.25v9.283c0 18.987-15 34.419-33.5 34.419h-8c-19 0-34.5-15.897-34.5-35.484v-8.218c0-1.245 1-2.25 2.2-2.25Z"/>
<path fill="#f7f3ea" stroke="#8c98b7" stroke-miterlimit="10" d="M14513 632.035h71.6c1.2 0 2.2 1.005 2.2 2.25v9.283c0 18.987-15 34.419-33.5 34.419h-7.9c-19.1 0-34.6-15.897-34.6-35.484v-8.218c0-1.245 1-2.25 2.2-2.25Z"/>
<rect width="146" height="7" x="14451.5" y="481.5" fill="#f7f3ea" stroke="#8c98b7" rx="1.5"/>
<rect width="151" height="5" x="14449.5" y="476.5" fill="#f7f3ea" stroke="#8c98b7" rx="1.5"/>
<rect width="169" height="10" x="14439.5" y="488.5" fill="#f7f3ea" stroke="#8c98b7" rx="1.5"/>
<rect width="169" height="10" x="14439.5" y="525.5" fill="#f7f3ea" stroke="#8c98b7" rx="1.5"/>
<rect width="169" height="10" x="14439.5" y="568.5" fill="#f7f3ea" stroke="#8c98b7" rx="1.5"/>
<rect width="169" height="10" x="14439.5" y="677.5" fill="#f7f3ea" stroke="#8c98b7" rx="1.5"/>
<rect width="169" height="10" x="14439.5" y="439.5" fill="#f7f3ea" stroke="#8c98b7" rx="1.5"/>
<rect width="169" height="10" x="14439.5" y="394.5" fill="#f7f3ea" stroke="#8c98b7" rx="1.5"/>
<path fill="#f7f3ea" stroke="#8c98b7" stroke-miterlimit="10" d="M14437.4 260.488h-.9c-1.2 0-2.1 1.007-2.1 2.25v475.673c0 1.243.9 2.25 2.1 2.25h.9c1.2 0 2.2-1.007 2.2-2.25V262.738c0-1.243-1-2.25-2.2-2.25Z"/>
</g>
</svg>