<svg xmlns="http://www.w3.org/2000/svg" width="640" height="310" fill="none" viewBox="8300 620 640 310"><g><path fill="#f7f3ea" stroke="#2a4385" stroke-miterlimit="10" stroke-width="2" d="M8321.3 741.035h287.15v9.888H8321.3zm588.13 182.489c-11.09 0-20.09-8.983-20.09-20.065 0-11.081 9-20.064 20.09-20.064 11.1 0 20.09 8.983 20.09 20.064 0 11.082-8.99 20.065-20.09 20.065Z"/><path fill="#2a4385" stroke="#2a4385" stroke-miterlimit="10" stroke-width="2" d="M8909.43 915.418c-6.61 0-11.97-5.354-11.97-11.959s5.36-11.959 11.97-11.959c6.62 0 11.98 5.354 11.98 11.959s-5.36 11.959-11.98 11.959Z"/><path fill="#f7f3ea" stroke="#2a4385" stroke-miterlimit="10" stroke-width="2" d="M8911.27 907.975h-3.83a6.55 6.55 0 0 1-6.41-5.212l-4.25-20.803a2.14 2.14 0 0 1 2.1-2.569h20.94a2.14 2.14 0 0 1 2.1 2.569l-4.25 20.803a6.52 6.52 0 0 1-6.4 5.212Z"/><path fill="#2a4385" stroke="#2a4385" stroke-miterlimit="10" stroke-width="2" d="M8904.36 852.344h10.14a2.4 2.4 0 0 1 2.4 2.392v25.808a2.4 2.4 0 0 1-2.4 2.392h-10.14a2.39 2.39 0 0 1-2.39-2.392v-25.808a2.39 2.39 0 0 1 2.39-2.392Z"/><path fill="#f7f3ea" stroke="#2a4385" stroke-miterlimit="10" stroke-width="2" d="M8614.58 923.524c-11.1 0-20.1-8.983-20.1-20.065 0-11.081 9-20.064 20.1-20.064 11.09 0 20.09 8.983 20.09 20.064 0 11.082-9 20.065-20.09 20.065Z"/><path fill="#2a4385" stroke="#2a4385" stroke-miterlimit="10" stroke-width="2" d="M8614.58 915.418c-6.62 0-11.98-5.354-11.98-11.959s5.36-11.959 11.98-11.959c6.61 0 11.97 5.354 11.97 11.959s-5.36 11.959-11.97 11.959Z"/><path fill="#f7f3ea" stroke="#2a4385" stroke-miterlimit="10" stroke-width="2" d="M8616.42 907.975h-3.83c-3.1 0-5.78-2.185-6.4-5.212l-4.25-20.803a2.133 2.133 0 0 1 2.09-2.569h20.95a2.14 2.14 0 0 1 2.1 2.569l-4.26 20.803a6.515 6.515 0 0 1-6.4 5.212Z"/><path fill="#2a4385" stroke="#2a4385" stroke-miterlimit="10" stroke-width="2" d="M8609.5 852.344h10.15c1.32 0 2.39 1.071 2.39 2.392v25.808a2.39 2.39 0 0 1-2.39 2.392h-10.15a2.39 2.39 0 0 1-2.39-2.392v-25.808a2.39 2.39 0 0 1 2.39-2.392Z"/><path fill="#f7f3ea" stroke="#2a4385" stroke-miterlimit="10" stroke-width="2" d="M8321.57 923.524c-11.1 0-20.09-8.983-20.09-20.065 0-11.081 8.99-20.064 20.09-20.064s20.09 8.983 20.09 20.064c0 11.082-8.99 20.065-20.09 20.065Z"/><path fill="#2a4385" stroke="#2a4385" stroke-miterlimit="10" stroke-width="2" d="M8321.57 915.418c-6.61 0-11.97-5.354-11.97-11.959s5.36-11.959 11.97-11.959 11.97 5.354 11.97 11.959-5.36 11.959-11.97 11.959Z"/><path fill="#f7f3ea" stroke="#2a4385" stroke-miterlimit="10" stroke-width="2" d="M8323.42 907.975h-3.83a6.53 6.53 0 0 1-6.4-5.212l-4.26-20.803a2.14 2.14 0 0 1 2.1-2.569h20.95c1.36 0 2.36 1.24 2.1 2.569l-4.26 20.803a6.52 6.52 0 0 1-6.4 5.212Z"/><path fill="#2a4385" stroke="#2a4385" stroke-miterlimit="10" stroke-width="2" d="M8316.5 852.344h10.14a2.4 2.4 0 0 1 2.4 2.392v25.808a2.4 2.4 0 0 1-2.4 2.392h-10.14a2.4 2.4 0 0 1-2.4-2.392v-25.808a2.4 2.4 0 0 1 2.4-2.392Z"/><path fill="#f7f3ea" stroke="#2a4385" stroke-miterlimit="10" stroke-width="2" d="M8508.12 695.859h-69.91c-2.14 0-3.88 1.753-3.88 3.914v6.008c0 19 15.3 34.428 34.13 34.428h9.39c18.83 0 34.13-15.428 34.13-34.428v-6.008c0-2.161-1.74-3.914-3.88-3.914zm50.85 85.082h-100.4c-3.07 0-5.57 2.524-5.57 5.637v8.652c0 27.366 21.97 49.586 49.02 49.586h13.48c27.05 0 49.01-22.22 49.01-49.586v-8.652c0-3.113-2.49-5.637-5.57-5.637zm-138.35-85.082h-69.91c-2.14 0-3.88 1.753-3.88 3.914v6.008c0 19 15.3 34.428 34.13 34.428h9.39c18.83 0 34.12-15.428 34.12-34.428v-6.008c0-2.161-1.73-3.914-3.88-3.914z"/><path fill="#2a4385" stroke="#2a4385" stroke-miterlimit="10" stroke-width="2" d="m8421.92 787.704-64.45-12.452c-1.97-.381-3.88.925-4.27 2.917l-1.07 5.538c-3.38 17.516 7.97 34.462 25.33 37.817l8.65 1.671c17.36 3.355 34.21-8.143 37.6-25.659l1.07-5.537c.38-1.993-.91-3.918-2.88-4.299z"/><path fill="#f7f3ea" stroke="#2a4385" stroke-miterlimit="10" stroke-width="2" d="M8581.57 704.484h-56.59a3.143 3.143 0 0 0-3.14 3.153v4.839c0 15.306 12.38 27.734 27.62 27.734h7.6c15.25 0 27.63-12.428 27.63-27.734v-4.839a3.15 3.15 0 0 0-3.14-3.153z"/><path fill="#f7f3ea" stroke="#2a4385" stroke-linecap="round" stroke-linejoin="round" stroke-width="2" d="M8314.81 634.969h600.78c.88 0 1.61.61 1.61 1.348v219.329c0 .751-.73 1.349-1.61 1.349h-600.78c-.89 0-1.61-.611-1.61-1.349V636.317c0-.75.72-1.348 1.61-1.348m310.2 209.32h274.74c1.25 0 2.27-.852 2.27-1.908V649.595c0-1.056-1.02-1.908-2.27-1.908h-274.74c-1.04 0-1.92.598-2.18 1.412v193.778c.26.814 1.14 1.412 2.18 1.412m-296.64-1.908c0 1.056 1.02 1.908 2.28 1.908h274.73c1.05 0 1.92-.598 2.19-1.412V649.099c-.27-.814-1.14-1.412-2.19-1.412h-274.73c-1.26 0-2.28.852-2.28 1.908z"/><path fill="#2a4385" stroke="#2a4385" stroke-linecap="round" stroke-linejoin="round" stroke-width="2" d="M8310.02 621.484h611.26c1.22 0 2.22.859 2.22 1.917v12.346c0 1.059-1 1.917-2.22 1.917h-611.26c-1.23 0-2.22-.858-2.22-1.917v-12.346c0-1.058.99-1.917 2.22-1.917"/><path fill="#f7f3ea" stroke="#2a4385" stroke-miterlimit="10" stroke-width="2" d="M8422.23 799.926h-69.9c-2.15 0-3.88 1.752-3.88 3.914v6.007c0 19 15.29 34.428 34.13 34.428h9.38c18.84 0 34.13-15.428 34.13-34.428v-6.007c0-2.162-1.74-3.914-3.88-3.914z"/></g></svg>