<svg xmlns="http://www.w3.org/2000/svg" width="578" height="464" fill="none" viewBox="13316 388 578 464"><g stroke="#2a4385" stroke-width="2" clip-path="url(#l)"><path fill="#f7f3ea" stroke-linecap="round" stroke-linejoin="round" d="M13887.8 489.375h-565.6c-1.2 0-2.3 1.039-2.3 2.32v36.624c0 1.281 1.1 2.32 2.3 2.32h565.6c1.3 0 2.3-1.039 2.3-2.32v-36.624c0-1.281-1-2.32-2.3-2.32"/><path fill="#f7f3ea" stroke-miterlimit="10" d="M13697 516h-125c-.5 0-1 .537-1 1.2v6.6c0 .663.5 1.2 1 1.2h125c.5 0 1-.537 1-1.2v-6.6c0-.663-.5-1.2-1-1.2Zm-126.2 4h-18.6c-.1 0-.2.298-.2.667v3.666c0 .369.1.667.2.667h18.6c.1 0 .2-.298.2-.667v-3.666c0-.369-.1-.667-.2-.667Z"/><path fill="#f7f3ea" stroke-linecap="round" stroke-linejoin="round" d="M13495.6 769.625h195.5V534.643h-195.5z"/><path fill="#f7f3ea" stroke-linecap="round" stroke-linejoin="round" d="M13691 769.625h195.5V534.643H13691zm-367.7-116.953h172.3V535.414h-172.3z"/><path stroke-linecap="round" stroke-linejoin="round" d="M13323.8 561.098h170.8m-170.8 6.394h170.8"/><path fill="#f7f3ea" stroke-linecap="round" stroke-linejoin="round" d="M13323.3 769.461h172.3V652.203h-172.3z"/><path stroke-linecap="round" stroke-linejoin="round" d="M13323.8 676.391h170.8m-170.8 6.41h170.8"/><path fill="#f7f3ea" stroke-linecap="round" stroke-linejoin="round" d="M13889.2 525.203h-568.4c-.8 0-1.4.645-1.4 1.441v7.976c0 .796.6 1.441 1.4 1.441h568.4c.8 0 1.4-.645 1.4-1.441v-7.976c0-.796-.6-1.441-1.4-1.441"/><path fill="#2a4385" stroke-linecap="round" stroke-linejoin="round" d="M13526.7 674.65V624.5c0-.828-.7-1.5-1.5-1.5h-7.7c-.8 0-1.5.672-1.5 1.5v50.15c0 .828.7 1.5 1.5 1.5h7.7c.8 0 1.5-.672 1.5-1.5m195.4 0V624.5c0-.828-.7-1.5-1.5-1.5h-7.7c-.8 0-1.5.672-1.5 1.5v50.15c0 .828.7 1.5 1.5 1.5h7.7c.8 0 1.5-.672 1.5-1.5"/><path fill="#f7f3ea" stroke-linecap="round" stroke-linejoin="round" d="M13881.4 770h-15.2c-.7 0-1.3.598-1.3 1.335v24.022c0 .737.6 1.334 1.3 1.334h15.2c.7 0 1.3-.597 1.3-1.334v-24.022c0-.737-.6-1.335-1.3-1.335m-536.9 0h-15.2c-.7 0-1.3.598-1.3 1.335v24.022c0 .737.6 1.334 1.3 1.334h15.2c.7 0 1.3-.597 1.3-1.334v-24.022c0-.737-.6-1.335-1.3-1.335"/><path fill="#f7f3ea" stroke-miterlimit="10" d="M13764.7 456.433c.1-.805 1.5-11.315 1.5-15.404 0-1.623.1-6.612.1-12.995 0-1.249.4-2.472 1.2-3.493.3-.399.5-.742.6-.989-.1-.729-.7-2.542-2.5-4.342-1.1-1.128-2.4-1.933-3.1-2.162-.3-.05-1.7-.247-2.9.596-1.6 1.027-1.8 2.758-1.8 2.992-.4 13.756-.2 22.954-.2 28.805 0 1.097.2 3.651.3 7.22l6.8-.013z"/><path stroke-miterlimit="10" d="M13757.8 452.227h7.4"/><path fill="#2a4385" stroke-miterlimit="10" d="M13761.5 447.463c.2 0 .5-.213.5-.476 0-.262-.3-.475-.5-.475-.3 0-.5.213-.5.475 0 .263.2.476.5.476Zm0-9.606c.2 0 .5-.213.5-.475 0-.263-.3-.476-.5-.476-.3 0-.5.213-.5.476 0 .262.2.475.5.475Z"/><path fill="#f7f3ea" stroke-miterlimit="10" d="M13773.6 458.693c-2 0-3.6.013-4.9-.025-3.1-.089-4.3-.469-4.2-1.94v-.126h-6.4v.266c.3 8.114-.1 14.047-.1 16.45-.1 2.098 0-.197-.1 20.101 0 5.889 2.2 13.534 9.1 18.903l.3-.704c2.3-5.394 2.9-9.984 3.7-16.621 2.4-19.721 1.9-21.591 2.6-36.234z"/><path fill="#2a4385" stroke-miterlimit="10" d="M13773.6 458.695h-1.2v.057c-.7 14.637-.2 16.514-2.6 36.234-.8 6.625-1.4 11.214-3.7 16.596q.45.369.9.729l.3-.703c2.3-5.395 2.9-9.985 3.7-16.622 2.4-19.72 1.9-21.597 2.6-36.234z"/><path fill="#f7f3ea" stroke-miterlimit="10" d="M13803.8 456.433c0-.805 1.5-11.315 1.4-15.404 0-1.623.2-6.612.2-12.995 0-1.249.4-2.472 1.1-3.493.3-.399.6-.742.7-.989-.1-.729-.7-2.542-2.5-4.342-1.2-1.128-2.4-1.933-3.1-2.162-.3-.05-1.7-.247-3 .596-1.6 1.027-1.8 2.758-1.8 2.992-.4 13.756-.2 22.954-.1 28.805 0 1.097.2 3.651.3 7.22l6.8-.013z"/><path stroke-miterlimit="10" d="M13796.8 452.227h7.4"/><path fill="#2a4385" stroke-miterlimit="10" d="M13800.5 447.463c.2 0 .5-.213.5-.476 0-.262-.3-.475-.5-.475-.3 0-.5.213-.5.475 0 .263.2.476.5.476Zm0-9.606c.2 0 .5-.213.5-.475 0-.263-.3-.476-.5-.476-.3 0-.5.213-.5.476 0 .262.2.475.5.475Z"/><path fill="#f7f3ea" stroke-miterlimit="10" d="M13812.6 458.693c-1.9 0-3.5.013-4.8-.025-3.2-.089-4.3-.469-4.2-1.94v-.126h-6.4v.266c.2 8.114-.1 14.047-.2 16.45v20.101c0 5.889 2.2 13.534 9.1 18.903l.3-.704c2.3-5.394 2.9-9.984 3.6-16.621 2.5-19.721 2-21.591 2.6-36.234z"/><path fill="#2a4385" stroke-miterlimit="10" d="M13812.6 458.695h-1.2v.057c-.6 14.637-.1 16.514-2.6 36.234-.7 6.625-1.3 11.214-3.6 16.596q.45.369.9.729l.3-.703c2.3-5.395 2.9-9.985 3.6-16.622 2.5-19.72 2-21.597 2.6-36.234z"/><path fill="#f7f3ea" stroke-miterlimit="10" d="M13840 455.242h-114c-.6 0-1 .398-1 .889v67.222c0 .491.4.889 1 .889h114c.6 0 1-.398 1-.889v-67.222c0-.491-.4-.889-1-.889Z"/><path fill="#f7f3ea" stroke-miterlimit="10" d="M13751.6 449.707c-3.2-.089-4.3-.469-4.3-1.94v-.126h-6.3v.266c0 2.909.1 5.832 0 8.234 0 3.119.1 25.414 4.2 34.409q.3-.969.6-1.965c.8-2.904 1.6-5.934 2.2-9.097a154.4 154.4 0 0 0 3.6-29.775z"/><path fill="#f7f3ea" stroke-miterlimit="10" d="M13747.5 447.417c.1-.805 1.6-11.315 1.5-15.404 0-1.622.2-6.611.2-12.995 0-1.248.4-2.472 1.1-3.493.3-.399.5-.741.6-.988-.1-.729-.6-2.542-2.5-4.343-1.1-1.128-2.4-1.933-3.1-2.161-.3-.051-1.6-.248-2.9.596-1.6 1.027-1.8 2.757-1.8 2.992-.4 13.755-.2 22.953-.2 28.804.1 1.097.2 3.652.3 7.221l6.8-.013z"/><path stroke-miterlimit="10" d="M13740.6 443.211h7.4"/><path fill="#2a4385" stroke-miterlimit="10" d="M13744.5 438.447c.2 0 .5-.213.5-.475 0-.263-.3-.476-.5-.476-.3 0-.5.213-.5.476 0 .262.2.475.5.475Zm0-9.606c.2 0 .5-.212.5-.475s-.3-.475-.5-.475c-.3 0-.5.212-.5.475s.2.475.5.475Z"/><path fill="#f7f3ea" stroke-miterlimit="10" d="M13842 518.242h-118c-.6 0-1 .418-1 .934v5.133c0 .515.4.933 1 .933h118c.6 0 1-.418 1-.933v-5.133c0-.516-.4-.934-1-.934Zm-59.8-70.801c.1-.805 1.5-11.315 1.5-15.404-.1-1.623.1-6.612.1-12.995 0-1.249.4-2.472 1.1-3.493.3-.399.6-.742.7-.989-.1-.729-.7-2.542-2.5-4.342-1.1-1.129-2.4-1.934-3.1-2.162-.3-.051-1.7-.247-3 .596-1.5 1.027-1.8 2.758-1.8 2.992-.4 13.756-.2 22.954-.1 28.805 0 1.096.2 3.651.3 7.22l6.8-.013z"/><path stroke-miterlimit="10" d="M13776.2 443.234h7.4"/><path fill="#2a4385" stroke-miterlimit="10" d="M13779.5 438.654c.2 0 .5-.213.5-.475 0-.263-.3-.476-.5-.476-.3 0-.5.213-.5.476 0 .262.2.475.5.475Zm0-9.605c.2 0 .5-.213.5-.476 0-.262-.3-.475-.5-.475-.3 0-.5.213-.5.475 0 .263.2.476.5.476Z"/><path fill="#f7f3ea" stroke-miterlimit="10" d="M13791.1 449.701c-2 0-3.6.013-4.9-.025-3.2-.089-4.3-.469-4.2-1.94v-.127h-6.4v.267c.2 8.114-.1 14.047-.1 16.449-.1 2.099 0-.196-.1 20.102 0 5.889 2.2 13.534 9.1 18.903l.3-.704c2.3-5.394 2.9-9.984 3.7-16.621 2.4-19.721 1.9-21.591 2.6-36.234zm28.8-11.26c.1-.805 1.5-11.315 1.5-15.404 0-1.623.1-6.612.1-12.995 0-1.249.4-2.472 1.2-3.493.2-.399.5-.742.6-.989-.1-.729-.7-2.542-2.5-4.342-1.1-1.129-2.4-1.934-3.1-2.162-.3-.051-1.7-.247-3 .596-1.5 1.027-1.7 2.758-1.8 2.992-.3 13.756-.1 22.954-.1 28.805 0 1.096.2 3.651.3 7.22l6.8-.013z"/><path stroke-miterlimit="10" d="M13812.9 434.234h7.5"/><path fill="#2a4385" stroke-miterlimit="10" d="M13816.5 429.47c.2 0 .5-.212.5-.475s-.3-.475-.5-.475c-.3 0-.5.212-.5.475s.2.475.5.475Zm0-9.605c.2 0 .5-.213.5-.476 0-.262-.3-.475-.5-.475-.3 0-.5.213-.5.475 0 .263.2.476.5.476Z"/><path fill="#f7f3ea" stroke-miterlimit="10" d="M13819.7 438.821c0 2.066.9 1.977 7.9 1.971-.7 14.694-1.5 31.061-5.1 50.808-1.3 6.732-3 12.868-5.6 18.548-3.3-7.201-3.7-14.656-3.8-20.545-.5-21.274 0-32.095.1-34.193 0-2.409.4-8.342.1-16.456v-.266h6.4z"/></g><defs><clipPath id="c"><path fill="#fff" d="M2131 722h82v125h-82z"/></clipPath><clipPath id="d"><path fill="#fff" d="M4214 733h82v125h-82z"/></clipPath><clipPath id="e"><path fill="#fff" d="M2263 725h82v125h-82z"/></clipPath><clipPath id="f"><path fill="#fff" d="M2199 695h82v125h-82z"/></clipPath><clipPath id="g"><path fill="#fff" d="M8385 518.223h563v295.985h-563z"/></clipPath><clipPath id="h"><path fill="#fff" d="m8903.95 481 95.714 7.409-7.95 102.693-95.713-7.41z"/></clipPath><clipPath id="i"><path fill="#fff" d="M4288 628h159v124h-159z"/></clipPath><clipPath id="j"><path fill="#fff" d="M4408 636h166v130h-166z"/></clipPath><clipPath id="k"><path fill="#fff" d="M22505 261h459v534h-459z"/></clipPath><clipPath id="l"><path fill="#fff" d="M13318 390h574v460h-574z"/></clipPath><clipPath id="m"><path fill="#fff" d="M19016 404h890v456h-890z"/></clipPath><clipPath id="n"><path fill="#fff" d="M838 712h82v125h-82z"/></clipPath><clipPath id="o"><path fill="#fff" d="M17347 79h87v135h-87z"/></clipPath><clipPath id="p"><path fill="#fff" d="M17855 79h87v135h-87z"/></clipPath></defs></svg>