<svg xmlns="http://www.w3.org/2000/svg" width="86" height="129" fill="none" viewBox="2197 693 86 129"><g clip-path="url(#f)"><path fill="#f7f3ea" stroke="#2a4385" stroke-linecap="round" stroke-linejoin="round" stroke-width="2" d="M2222.41 801.543c8.8 2.127 26.38 1.799 35.28-.422 8.33-2.096 8.11-4.739 7.46-11.95l-15.36-84.944c-.97-5.552-2.96-8.086-7.14-8.055l-7.06.063c-4.6.047-6.06 2.784-6.98 8.18l-13.84 85.194c-.52 7.226-.69 9.917 7.64 11.934"/><path fill="#f7f3ea" d="M2225.99 720.953q13.26 4.065 26.49 0z"/><path stroke="#2a4385" stroke-linecap="round" stroke-linejoin="round" stroke-width="2" d="M2225.99 720.953q13.26 4.065 26.49 0"/><path fill="#f7f3ea" d="M2221.41 751.949c12.22 4.065 24.45 4.065 36.67 0z"/><path stroke="#2a4385" stroke-linecap="round" stroke-linejoin="round" stroke-width="2" d="M2221.41 751.949c12.22 4.065 24.45 4.065 36.67 0"/><path fill="#f7f3ea" d="M2216.83 777.863c15.27 7.453 30.56 7.453 45.83 0z"/><path stroke="#2a4385" stroke-linecap="round" stroke-linejoin="round" stroke-width="2" d="M2216.83 777.863c15.27 7.453 30.56 7.453 45.83 0"/><path fill="#2a4385" stroke="#2a4385" stroke-linecap="round" stroke-linejoin="round" stroke-width="2" d="m2279.83 810.1-.05-10.088-79.59.547.05 9.682s-.03.156-.03.234c0 4.614 17.81 8.352 39.8 8.352 21.98 0 39.8-3.738 39.8-8.352 0-.125-.02-.234-.05-.359h.08z"/><path fill="#2a4385" stroke="#2a4385" stroke-linecap="round" stroke-linejoin="round" stroke-width="2" d="M2200.19 801.059c0 4.739 18.37 9.072 40.35 9.072s39.24-4.333 39.24-9.072-17.82-8.571-39.8-8.571c-21.99 0-39.79 3.832-39.79 8.571"/><path fill="#2a4385" d="M2216.06 780.658s-1.68 10.458-1.53 13.211c.1 1.596 50.68.254 50.68.254.13-5.192-2.29-16.006-2.29-16.006s-22.41 11.941-46.09 0zm9.93-59.451-5.09 30.488c11.42 4.473 26.35 4.129 37.18 0l-5.6-30.488s-12.3 3.629-26.49 0"/></g><defs><clipPath id="c"><path fill="#fff" d="M2131 722h82v125h-82z"/></clipPath><clipPath id="d"><path fill="#fff" d="M4214 733h82v125h-82z"/></clipPath><clipPath id="e"><path fill="#fff" d="M2263 725h82v125h-82z"/></clipPath><clipPath id="f"><path fill="#fff" d="M2199 695h82v125h-82z"/></clipPath><clipPath id="g"><path fill="#fff" d="M8385 518.223h563v295.985h-563z"/></clipPath><clipPath id="h"><path fill="#fff" d="m8903.95 481 95.714 7.409-7.95 102.693-95.713-7.41z"/></clipPath><clipPath id="i"><path fill="#fff" d="M4288 628h159v124h-159z"/></clipPath><clipPath id="j"><path fill="#fff" d="M4408 636h166v130h-166z"/></clipPath><clipPath id="k"><path fill="#fff" d="M22505 261h459v534h-459z"/></clipPath><clipPath id="l"><path fill="#fff" d="M13318 390h574v460h-574z"/></clipPath><clipPath id="m"><path fill="#fff" d="M19016 404h890v456h-890z"/></clipPath><clipPath id="n"><path fill="#fff" d="M838 712h82v125h-82z"/></clipPath><clipPath id="o"><path fill="#fff" d="M17347 79h87v135h-87z"/></clipPath><clipPath id="p"><path fill="#fff" d="M17855 79h87v135h-87z"/></clipPath></defs></svg>