<svg xmlns="http://www.w3.org/2000/svg" width="37" height="284" fill="none" viewBox="14277 82 37 284"><g fill="#f7f3ea" stroke="#8c98b7" stroke-miterlimit="10"><path d="M14289.9 82h-1.8c-.6 0-1.1.644-1.1 1.438v197.124c0 .794.5 1.438 1.1 1.438h1.8c.6 0 1.1-.644 1.1-1.438V83.438c0-.794-.5-1.438-1.1-1.438Zm12 0h-1.8c-.6 0-1.1.642-1.1 1.435v197.13c0 .793.5 1.435 1.1 1.435h1.8c.6 0 1.1-.642 1.1-1.435V83.435c0-.793-.5-1.435-1.1-1.435Z"/><path d="M14291.5 281.113h-4.9c-.6 0-1.2.643-1.2 1.435v1.531c0 .792.6 1.435 1.2 1.435h4.9c.6 0 1.2-.643 1.2-1.435v-1.531c0-.792-.6-1.435-1.2-1.435Zm11.4.098h-4.8c-.7 0-1.2.642-1.2 1.435v1.329c0 .793.5 1.435 1.2 1.435h4.8c.7 0 1.2-.642 1.2-1.435v-1.329c0-.793-.5-1.435-1.2-1.435Z"/><path d="M14312.2 285.41h-34c-.7 0-1.2.643-1.2 1.435v77.722c0 .792.5 1.434 1.2 1.434h34c.7 0 1.2-.642 1.2-1.434v-77.722c0-.792-.5-1.435-1.2-1.435Z"/><path d="M14306.2 295.215h-21.1c-.7 0-1.2.642-1.2 1.435v59.039c0 .793.5 1.435 1.2 1.435h21.1c.7 0 1.2-.642 1.2-1.435V296.65c0-.793-.5-1.435-1.2-1.435Z"/></g></svg>