<svg xmlns="http://www.w3.org/2000/svg" width="414" height="108" fill="none" viewBox="17887 527 414 108"><g><path fill="#f7f3ea" stroke="#2a4385" stroke-linecap="round" stroke-linejoin="round" stroke-width="2" d="M18289.8 553h-391.6c-1.8 0-3.2 1.467-3.2 3.277v6.446c0 1.81 1.4 3.277 3.2 3.277h391.6c1.8 0 3.2-1.467 3.2-3.277v-6.446c0-1.81-1.4-3.277-3.2-3.277"/><path fill="#ec5b1c" stroke="#2a4385" stroke-linecap="round" stroke-linejoin="round" stroke-width="2" d="M18289.8 546h-391.6c-1.8 0-3.2 1.383-3.2 3.088v.824c0 1.705 1.4 3.088 3.2 3.088h391.6c1.8 0 3.2-1.383 3.2-3.088v-.824c0-1.705-1.4-3.088-3.2-3.088"/><path fill="#f7f3ea" stroke="#2a4385" stroke-linecap="round" stroke-linejoin="round" stroke-width="2" d="M18287.9 566.199h-392.8v59.525h392.8z"/><path fill="#f7f3ea" stroke="#2a4385" stroke-linecap="round" stroke-linejoin="round" stroke-width="2" d="M17941.4 610.102c7.5 0 13.5-6.038 13.5-13.487s-6-13.486-13.5-13.486c-7.4 0-13.4 6.038-13.4 13.486s6 13.487 13.4 13.487"/><path fill="#f7f3ea" stroke="#2a4385" stroke-width="2" d="M17941.4 579.104c1.7 3.621 1.7 7.836 0 11.462a14.3 14.3 0 0 1 0-11.462Z"/><path fill="#ec5b1c" stroke="#2a4385" stroke-linecap="round" stroke-linejoin="round" stroke-width="2" d="M17941.4 603.709c3.9 0 7.1-3.176 7.1-7.095s-3.2-7.094-7.1-7.094-7 3.176-7 7.094 3.1 7.095 7 7.095"/><path fill="#f7f3ea" stroke="#2a4385" stroke-linecap="round" stroke-linejoin="round" stroke-width="2" d="M17993.2 610.11c7.5 0 13.5-6.038 13.5-13.487s-6-13.486-13.5-13.486c-7.4 0-13.4 6.038-13.4 13.486s6 13.487 13.4 13.487"/><path fill="#f7f3ea" stroke="#2a4385" stroke-width="2" d="M17993.2 579.111a13.52 13.52 0 0 1 0 11.463 14.3 14.3 0 0 1 0-11.463Z"/><path fill="#ec5b1c" stroke="#2a4385" stroke-linecap="round" stroke-linejoin="round" stroke-width="2" d="M17993.2 603.717c3.9 0 7.1-3.177 7.1-7.095s-3.2-7.095-7.1-7.095-7 3.177-7 7.095 3.1 7.095 7 7.095"/><path fill="#f7f3ea" stroke="#2a4385" stroke-linecap="round" stroke-linejoin="round" stroke-width="2" d="M18045 610.11c7.4 0 13.4-6.038 13.4-13.487s-6-13.486-13.4-13.486-13.4 6.038-13.4 13.486 6 13.487 13.4 13.487"/><path fill="#f7f3ea" stroke="#2a4385" stroke-width="2" d="M18045 579.111c1.6 3.622 1.6 7.836 0 11.463a13.52 13.52 0 0 1 0-11.463Z"/><path fill="#ec5b1c" stroke="#2a4385" stroke-linecap="round" stroke-linejoin="round" stroke-width="2" d="M18045 603.717c3.9 0 7.1-3.177 7.1-7.095s-3.2-7.095-7.1-7.095-7.1 3.177-7.1 7.095 3.2 7.095 7.1 7.095"/><path fill="#f7f3ea" stroke="#2a4385" stroke-linecap="round" stroke-linejoin="round" stroke-width="2" d="M18138.1 610.11c7.4 0 13.4-6.038 13.4-13.487s-6-13.486-13.4-13.486c-7.5 0-13.5 6.038-13.5 13.486s6 13.487 13.5 13.487"/><path fill="#f7f3ea" stroke="#2a4385" stroke-width="2" d="M18138.1 579.111c1.6 3.622 1.6 7.836 0 11.463a13.52 13.52 0 0 1 0-11.463Z"/><path fill="#ec5b1c" stroke="#2a4385" stroke-linecap="round" stroke-linejoin="round" stroke-width="2" d="M18138.1 603.717c3.9 0 7-3.177 7-7.095s-3.1-7.095-7-7.095-7.1 3.177-7.1 7.095 3.2 7.095 7.1 7.095"/><path fill="#f7f3ea" stroke="#2a4385" stroke-linecap="round" stroke-linejoin="round" stroke-width="2" d="M18189.8 610.11c7.4 0 13.4-6.038 13.4-13.487s-6-13.486-13.4-13.486-13.4 6.038-13.4 13.486 6 13.487 13.4 13.487"/><path fill="#f7f3ea" stroke="#2a4385" stroke-width="2" d="M18189.8 579.111c1.7 3.622 1.6 7.836 0 11.463-1.6-3.626-1.7-7.841 0-11.463Z"/><path fill="#ec5b1c" stroke="#2a4385" stroke-linecap="round" stroke-linejoin="round" stroke-width="2" d="M18189.8 603.717c3.9 0 7.1-3.177 7.1-7.095s-3.2-7.095-7.1-7.095-7.1 3.177-7.1 7.095 3.2 7.095 7.1 7.095"/><path fill="#f7f3ea" stroke="#2a4385" stroke-linecap="round" stroke-linejoin="round" stroke-width="2" d="M18241.5 610.11c7.4 0 13.5-6.038 13.5-13.487s-6.1-13.486-13.5-13.486-13.4 6.038-13.4 13.486 6 13.487 13.4 13.487"/><path fill="#f7f3ea" stroke="#2a4385" stroke-width="2" d="M18241.5 579.111a13.52 13.52 0 0 1 0 11.463 14.3 14.3 0 0 1 0-11.463Z"/><path fill="#ec5b1c" stroke="#2a4385" stroke-linecap="round" stroke-linejoin="round" stroke-width="2" d="M18241.5 603.717c3.9 0 7.1-3.177 7.1-7.095s-3.2-7.095-7.1-7.095-7 3.177-7 7.095 3.1 7.095 7 7.095"/><path fill="#ec5b1c" stroke="#2a4385" stroke-linecap="round" stroke-linejoin="round" stroke-width="2" d="M18008.7 545.694h-84.3l12.4-6.085h59.4z"/><path stroke="#2a4385" stroke-linecap="round" stroke-linejoin="round" stroke-width="2" d="M17966.6 543.981v-3.844"/><path fill="#ec5b1c" stroke="#2a4385" stroke-linecap="round" stroke-linejoin="round" stroke-width="2" d="M18092 545.694h-84.3l12.3-6.085h59.5z"/><path stroke="#2a4385" stroke-linecap="round" stroke-linejoin="round" stroke-width="2" d="M18049.8 543.981v-3.844"/><path fill="#ec5b1c" stroke="#2a4385" stroke-linecap="round" stroke-linejoin="round" stroke-width="2" d="M18175.3 545.694h-84.3l12.3-6.085h59.5z"/><path stroke="#2a4385" stroke-linecap="round" stroke-linejoin="round" stroke-width="2" d="M18133.1 543.981v-3.844"/><path fill="#ec5b1c" stroke="#2a4385" stroke-linecap="round" stroke-linejoin="round" stroke-width="2" d="M18258.6 545.694h-84.3l12.3-6.085h59.5z"/><path stroke="#2a4385" stroke-linecap="round" stroke-linejoin="round" stroke-width="2" d="M18216.4 543.981v-3.844"/><path stroke="#2a4385" stroke-linecap="round" stroke-width="2" d="M17942.9 535c.5 2.917 5.7 8.75 22.3 8.75m24.2-8.75c-.5 2.917-5.7 8.75-22.3 8.75m59.1-7.5c.6 2.49 5.8 7.471 22.3 7.471m24.2-7.471c-.5 2.49-5.7 7.471-22.3 7.471m59.1-7.471c.6 2.49 5.8 7.471 22.4 7.471m24.1-7.471c-.5 2.49-5.7 7.471-22.3 7.471m59.1-7.471c.6 2.49 5.8 7.471 22.4 7.471m24.2-7.471c-.6 2.49-5.8 7.471-22.4 7.471"/></g></svg>