<svg xmlns="http://www.w3.org/2000/svg" width="220" height="502" fill="none" viewBox="9688 258 220 502"><g><path fill="#f7f3ea" stroke="#8c98b7" stroke-miterlimit="10" d="M9705.64 754.651c7.53 0 13.63-6.279 13.63-14.023s-6.1-14.023-13.63-14.023-13.64 6.279-13.64 14.023 6.11 14.023 13.64 14.023Zm174.54.496c7.53 0 13.64-6.278 13.64-14.023 0-7.744-6.11-14.022-13.64-14.022s-13.64 6.278-13.64 14.022 6.11 14.023 13.64 14.023Z"/><path fill="#f7f3ea" stroke="#8c98b7" stroke-miterlimit="10" d="M9880.21 750.901c5.25 0 9.51-4.378 9.51-9.778s-4.26-9.779-9.51-9.779-9.51 4.378-9.51 9.779 4.26 9.778 9.51 9.778Zm-174.25-.492c5.25 0 9.51-4.378 9.51-9.779s-4.26-9.778-9.51-9.778-9.51 4.378-9.51 9.778 4.26 9.779 9.51 9.779Z"/><path fill="#f7f3ea" stroke="#8c98b7" stroke-miterlimit="10" d="M9880.63 261h-.83c-1.21 0-2.19 1.007-2.19 2.25v475.673c0 1.242.98 2.25 2.19 2.25h.83c1.21 0 2.19-1.008 2.19-2.25V263.25c0-1.243-.98-2.25-2.19-2.25ZM9711.7 716.352h-10.91c-1.17 0-2.12.97-2.12 2.167s.95 2.167 2.12 2.167h10.91c1.17 0 2.11-.97 2.11-2.167s-.94-2.167-2.11-2.167Z"/><path fill="#f7f3ea" stroke="#8c98b7" stroke-miterlimit="10" d="M9885.64 716.953h-10.91c-1.17 0-2.12.97-2.12 2.167s.95 2.168 2.12 2.168h10.91c1.16 0 2.11-.971 2.11-2.168s-.95-2.167-2.11-2.167Zm-10.67-449.758h-163.39c-1.21 0-2.19 1.007-2.19 2.25v5.204c0 1.242.98 2.25 2.19 2.25h163.39c1.2 0 2.18-1.008 2.18-2.25v-5.204c0-1.243-.98-2.25-2.18-2.25ZM9781.7 615h71.6c1.21 0 2.19 1.005 2.19 2.25v9.283c0 18.987-15 34.419-33.48 34.419h-7.99c-19.05 0-34.51-15.897-34.51-35.484v-8.218c0-1.245.98-2.25 2.19-2.25Zm-56-269h55.6c.94 0 1.7.765 1.7 1.713v7.071c0 14.462-11.64 26.216-25.99 26.216h-6.21c-14.79 0-26.8-12.108-26.8-27.027v-6.26c0-.948.76-1.713 1.7-1.713Z"/><path fill="#f7f3ea" stroke="#8c98b7" stroke-miterlimit="10" d="M9782.04 635.039h71.6c1.21 0 2.18 1.005 2.18 2.25v9.283c0 18.987-14.99 34.419-33.47 34.419h-7.99c-19.05 0-34.51-15.897-34.51-35.484v-8.218c0-1.245.97-2.25 2.19-2.25ZM9725.7 361h55.6c.94 0 1.7.787 1.7 1.762v7.273c0 14.875-11.64 26.965-25.99 26.965h-6.21c-14.79 0-26.8-12.454-26.8-27.799v-6.439c0-.975.76-1.762 1.7-1.762Z"/><rect width="146" height="7" x="9720.5" y="565.5" fill="#f7f3ea" stroke="#8c98b7" rx="1.5"/><rect width="151" height="5" x="9718.5" y="560.5" fill="#f7f3ea" stroke="#8c98b7" rx="1.5"/><rect width="169" height="10" x="9708.5" y="491.5" fill="#f7f3ea" stroke="#8c98b7" rx="1.5"/><rect width="169" height="10" x="9708.5" y="528.5" fill="#f7f3ea" stroke="#8c98b7" rx="1.5"/><rect width="169" height="10" x="9708.5" y="571.5" fill="#f7f3ea" stroke="#8c98b7" rx="1.5"/><rect width="169" height="10" x="9708.5" y="680.5" fill="#f7f3ea" stroke="#8c98b7" rx="1.5"/><rect width="169" height="10" x="9708.5" y="442.5" fill="#f7f3ea" stroke="#8c98b7" rx="1.5"/><rect width="169" height="10" x="9708.5" y="397.5" fill="#f7f3ea" stroke="#8c98b7" rx="1.5"/><path fill="#f7f3ea" stroke="#8c98b7" stroke-miterlimit="10" d="M9706.38 263.488h-.83c-1.21 0-2.19 1.007-2.19 2.25v475.673c0 1.243.98 2.25 2.19 2.25h.83c1.21 0 2.19-1.007 2.19-2.25V265.738c0-1.243-.98-2.25-2.19-2.25Zm93.16 90.662 50.42-10.821c.85-.183 1.68.377 1.86 1.253l1.33 6.537c2.71 13.37-5.64 26.503-18.65 29.296l-5.63 1.208c-13.41 2.879-26.57-5.979-29.37-19.771l-1.18-5.787c-.18-.877.37-1.732 1.22-1.915Z"/><path fill="#f7f3ea" stroke="#8c98b7" stroke-miterlimit="10" d="M9801.05 363.508h51.27c.86 0 1.56.732 1.56 1.639v6.762c0 13.831-10.73 25.073-23.96 25.073h-5.72c-13.64 0-24.71-11.581-24.71-25.849v-5.986c0-.907.7-1.639 1.56-1.639ZM9785.4 426h-70.8c-.88 0-1.6 1.086-1.6 2.426v1.067c0 1.339.72 2.425 1.6 2.425h70.8c.88 0 1.6-1.086 1.6-2.425v-1.067c0-1.34-.72-2.426-1.6-2.426Zm-66.47 5.918 4.19 10.591h55.22l2.92-10.591zM9785.4 475h-70.8c-.88 0-1.6 1.086-1.6 2.426v1.067c0 1.339.72 2.425 1.6 2.425h70.8c.88 0 1.6-1.086 1.6-2.425v-1.067c0-1.34-.72-2.426-1.6-2.426Zm-66.47 5.918 4.19 10.591h55.22l2.92-10.591zM9866.4 426h-70.8c-.88 0-1.6 1.086-1.6 2.426v1.067c0 1.339.72 2.425 1.6 2.425h70.8c.88 0 1.6-1.086 1.6-2.425v-1.067c0-1.34-.72-2.426-1.6-2.426Zm-66.47 5.918 4.19 10.591h55.22l2.92-10.591zM9866.4 475h-70.8c-.88 0-1.6 1.086-1.6 2.426v1.067c0 1.339.72 2.425 1.6 2.425h70.8c.88 0 1.6-1.086 1.6-2.425v-1.067c0-1.34-.72-2.426-1.6-2.426Zm-66.47 5.918 4.19 10.591h55.22l2.92-10.591z"/></g></svg>