<svg xmlns="http://www.w3.org/2000/svg" width="600" height="428" fill="none" viewBox="4014 500 600 428"><g><path fill="#f7f3ea" stroke="#2a4385" stroke-miterlimit="10" stroke-width="2" d="M4103.86 925.146c13.75 0 24.91-11.164 24.91-24.934s-11.16-24.935-24.91-24.935c-13.76 0-24.91 11.164-24.91 24.935s11.15 24.934 24.91 24.934Z"/><path fill="#2a4385" stroke="#2a4385" stroke-miterlimit="10" stroke-width="2" d="M4103.86 915.075c8.2 0 14.84-6.654 14.84-14.862s-6.64-14.861-14.84-14.861-14.85 6.653-14.85 14.861 6.65 14.862 14.85 14.862Z"/><path fill="#f7f3ea" stroke="#2a4385" stroke-miterlimit="10" stroke-width="2" d="M4101.58 905.845h4.75a8.11 8.11 0 0 0 7.94-6.477l5.28-25.851a2.662 2.662 0 0 0-2.61-3.193h-25.97c-1.69 0-2.93 1.541-2.6 3.193l5.28 25.851a8.08 8.08 0 0 0 7.93 6.477Z"/><path fill="#2a4385" stroke="#2a4385" stroke-miterlimit="10" stroke-width="2" d="M4110.38 842.016h-13.01a2.75 2.75 0 0 0-2.75 2.752v27.191a2.75 2.75 0 0 0 2.75 2.752h13.01a2.75 2.75 0 0 0 2.75-2.752v-27.191a2.75 2.75 0 0 0-2.75-2.752Z"/><path fill="#f7f3ea" stroke="#2a4385" stroke-miterlimit="10" stroke-width="2" d="M4490 925.146c13.75 0 24.91-11.164 24.91-24.934s-11.16-24.935-24.91-24.935c-13.76 0-24.91 11.164-24.91 24.935s11.15 24.934 24.91 24.934Z"/><path fill="#2a4385" stroke="#2a4385" stroke-miterlimit="10" stroke-width="2" d="M4490 915.075c8.2 0 14.84-6.654 14.84-14.862s-6.64-14.861-14.84-14.861-14.85 6.653-14.85 14.861 6.65 14.862 14.85 14.862Z"/><path fill="#f7f3ea" stroke="#2a4385" stroke-miterlimit="10" stroke-width="2" d="M4487.72 905.845h4.75a8.11 8.11 0 0 0 7.94-6.477l5.28-25.851a2.662 2.662 0 0 0-2.61-3.193h-25.97c-1.69 0-2.93 1.541-2.6 3.193l5.28 25.851a8.08 8.08 0 0 0 7.93 6.477Z"/><path fill="#2a4385" stroke="#2a4385" stroke-miterlimit="10" stroke-width="2" d="M4496.51 842.016h-13.02a2.75 2.75 0 0 0-2.75 2.752v27.191a2.75 2.75 0 0 0 2.75 2.752h13.02c1.51 0 2.74-1.232 2.74-2.752v-27.191c0-1.52-1.23-2.752-2.74-2.752Z"/><path fill="#2a4385" stroke="#2a4385" stroke-miterlimit="10" stroke-width="2" d="M4504.24 834.984h-427.31a2.97 2.97 0 0 0-2.97 2.973v10.072a2.97 2.97 0 0 0 2.97 2.973h427.31c1.64 0 2.97-1.331 2.97-2.973v-10.072a2.97 2.97 0 0 0-2.97-2.973Zm-60.61-159.621h-230.7a2.75 2.75 0 0 0-2.74 2.752v10.514a2.75 2.75 0 0 0 2.74 2.752h230.7c1.51 0 2.75-1.233 2.75-2.752v-10.514c0-1.52-1.24-2.752-2.75-2.752Z"/><path fill="#f7f3ea" stroke="#2a4385" stroke-miterlimit="10" stroke-width="2" d="M4236.62 854.601V558.858c0-1.52-1.24-2.753-2.75-2.753h-15.35a2.757 2.757 0 0 0-2.75 2.753v295.743c0 1.52 1.24 2.752 2.75 2.752h15.35c1.51 0 2.75-1.232 2.75-2.752Zm357.33-312.331h-122.81a2.75 2.75 0 0 0-2.75 2.752v.587a2.75 2.75 0 0 0 2.75 2.752h122.81c1.51 0 2.74-1.232 2.74-2.752v-.587c0-1.52-1.23-2.752-2.74-2.752Zm-121.75 20.312h120.68v183.567c0 20.457-16.59 37.062-37.02 37.062h-46.63c-20.44 0-37.03-16.605-37.03-37.062zm-146.92 117h-29.71a2.75 2.75 0 0 0-2.75 2.752v1.743a2.75 2.75 0 0 0 2.75 2.752h29.71a2.75 2.75 0 0 0 2.75-2.752v-1.743a2.75 2.75 0 0 0-2.75-2.752Zm-154.51 79.265a3.3 3.3 0 0 0-3.08-2.291l-1.05-.012a3.29 3.29 0 0 0 1.36-2.592l3.87-247.852a3.265 3.265 0 0 0-3.23-3.328l-1.97-.034a3.276 3.276 0 0 0-3.33 3.23l-3.85 247.849a3.24 3.24 0 0 0 1.27 2.631l-1.05-.012a3.275 3.275 0 0 0-3.15 2.176l-5.92 16.729 25.52.411z"/><path fill="#f7f3ea" stroke="#2a4385" stroke-miterlimit="10" stroke-width="2" d="M4191.45 835.188h-96.26a2.75 2.75 0 0 1-2.75-2.697l-2.79-102.214H4197l-2.8 102.214a2.755 2.755 0 0 1-2.75 2.679z"/><path stroke="#2a4385" stroke-linecap="round" stroke-linejoin="round" stroke-width="2" d="M4089.76 758h-12.9c-2.71 7.926-1.5 23.21 0 25.797 5.35 9.228 25.29 9.449 64.99 9.54h2.44c39.68-.091 59.64-.312 65-9.54 1.5-2.587 2.71-17.871 0-25.797h-12.91"/><path fill="#2a4385" stroke="#2a4385" stroke-miterlimit="10" stroke-width="2" d="M4350.06 747.832h-10.86c-1.6 0-2.9 1.292-2.9 2.886v5.462c0 1.594 1.3 2.886 2.9 2.886h10.86c1.6 0 2.9-1.292 2.9-2.886v-5.462c0-1.594-1.3-2.886-2.9-2.886Z"/><path fill="#f7f3ea" stroke="#2a4385" stroke-miterlimit="10" stroke-width="2" d="M4379.92 759.043h-45.32c-4.1 0-7.43 3.319-7.43 7.4v60.479c0 4.081 3.33 7.4 7.43 7.4h45.32c4.1 0 7.44-3.319 7.44-7.4v-60.479c0-4.081-3.34-7.4-7.44-7.4Zm-5.22 30.033a29.5 29.5 0 0 1-7.61-7.256c-2.94-4.04-4.31-8.1-4.95-11.131-.41-1.917 1.08-3.71 3.05-3.71h9.61c1.6 0 2.95 1.216 3.09 2.803l1.6 16.408c.24 2.577-2.62 4.329-4.79 2.886Z"/><path fill="#2a4385" stroke="#2a4385" stroke-miterlimit="10" stroke-width="2" d="M4420.25 747.832h-10.86c-1.6 0-2.9 1.292-2.9 2.886v5.462c0 1.594 1.3 2.886 2.9 2.886h10.86c1.6 0 2.9-1.292 2.9-2.886v-5.462c0-1.594-1.3-2.886-2.9-2.886Z"/><path fill="#f7f3ea" stroke="#2a4385" stroke-miterlimit="10" stroke-width="2" d="M4450.11 759.043h-45.32c-4.1 0-7.44 3.319-7.44 7.4v60.479c0 4.081 3.34 7.4 7.44 7.4h45.32c4.1 0 7.44-3.319 7.44-7.4v-60.479c0-4.081-3.34-7.4-7.44-7.4Zm-5.23 30.033c-2.42-1.608-5.2-3.937-7.6-7.256-2.94-4.04-4.31-8.1-4.95-11.131-.42-1.917 1.08-3.71 3.04-3.71h9.62a3.11 3.11 0 0 1 3.09 2.803l1.59 16.408c.25 2.577-2.61 4.329-4.79 2.886Z"/><path fill="#2a4385" stroke="#2a4385" stroke-miterlimit="10" stroke-width="2" d="M4606.57 548.461h-586.35c-2.02 0-3.66 1.327-3.66 2.965v10.147c0 1.637 1.64 2.965 3.66 2.965h586.35c2.02 0 3.66-1.328 3.66-2.965v-10.147c0-1.638-1.64-2.965-3.66-2.965Z"/><path fill="#f7f3ea" stroke="#2a4385" stroke-miterlimit="10" stroke-width="2" d="M4245.39 585.72v12.825c0 3.028 1.42 5.505 3.16 5.505h.47c1.74 0 3.16-2.459 3.16-5.505V580.84c0-1.633.77-2.954 1.7-2.954h.48c.93 0 1.7 1.321 1.7 2.954v25.32c0 3.027 1.41 5.504 3.15 5.504h.98c1.74 0 3.15-2.459 3.15-5.504v-26.164c0-1.633.77-2.954 1.7-2.954.94 0 1.71 1.321 1.71 2.954v32.273c0 3.028 1.41 5.505 3.15 5.505h.97c1.74 0 3.15-2.459 3.15-5.505V580.84c0-1.633.77-2.954 1.71-2.954h.48c.93 0 1.7 1.321 1.7 2.954v21.925c0 3.028 1.41 5.505 3.15 5.505s3.16-2.459 3.16-5.505v-51.299c0-1.633-.77-2.954-1.71-2.954h-35.45c-.93 0-1.7 1.321-1.7 2.954v34.254zm187.45 56.175h-72.19c-1.59 0-2.88 1.27-2.88 2.837v27.617c0 1.567 1.29 2.837 2.88 2.837h72.19c1.59 0 2.87-1.27 2.87-2.837v-27.617c0-1.567-1.28-2.837-2.87-2.837Z"/><path fill="#f7f3ea" stroke="#2a4385" stroke-miterlimit="10" stroke-width="2" d="M4434.35 635.121h-75.22c-1.59 0-2.87 1.27-2.87 2.837v1.343c0 1.567 1.28 2.838 2.87 2.838h75.22c1.59 0 2.88-1.271 2.88-2.838v-1.343c0-1.567-1.29-2.837-2.88-2.837Z"/><path fill="#f7f3ea" stroke="#2a4385" stroke-miterlimit="10" stroke-width="2" d="M4318.26 827.024a3.76 3.76 0 0 0-3.54-2.55h-1.19c.9-.679 1.5-1.762 1.5-2.972V539.188a3.735 3.735 0 0 0-3.74-3.743h-2.25c-2.07 0-3.74 1.67-3.74 3.743V821.52c0 1.229.58 2.293 1.5 2.972h-1.19a3.76 3.76 0 0 0-3.54 2.55l-6.43 19.155h29.05l-6.43-19.155z"/><path fill="#f7f3ea" stroke="#2a4385" stroke-miterlimit="10" stroke-width="2" d="M4267.82 846h83.47c3.72 0 6.74 3.027 6.74 6.752v.055a3.726 3.726 0 0 1-3.72 3.724h-89.52a3.726 3.726 0 0 1-3.72-3.724v-.055a6.75 6.75 0 0 1 6.75-6.752Z"/><path fill="#2a4385" stroke="#2a4385" stroke-miterlimit="10" stroke-width="2" d="M4313.62 530.914h-6.82a2.75 2.75 0 0 0-2.75 2.752v15.027a2.75 2.75 0 0 0 2.75 2.752h6.82a2.75 2.75 0 0 0 2.75-2.752v-15.027a2.75 2.75 0 0 0-2.75-2.752Zm-.99 136.305h-4.84a3.745 3.745 0 0 0-3.74 3.743v27.631a3.745 3.745 0 0 0 3.74 3.743h4.84c2.07 0 3.74-1.676 3.74-3.743v-27.631a3.74 3.74 0 0 0-3.74-3.743Zm47.25 228.321h-100.59l6.05-39.337h88.49z"/></g></svg>