<svg xmlns="http://www.w3.org/2000/svg" width="247" height="594" fill="none" viewBox="8238 233 247 594"><g><path fill="#2a4385" stroke="#2a4385" stroke-linecap="round" stroke-linejoin="round" stroke-width="2" d="M8260.09 798.773h-15.26c-.74 0-1.34.604-1.34 1.348v24.247c0 .744.6 1.347 1.34 1.347h15.26c.74 0 1.35-.603 1.35-1.347v-24.247c0-.744-.61-1.348-1.35-1.348m218.08 0h-15.26c-.74 0-1.35.604-1.35 1.348v24.247c0 .744.61 1.347 1.35 1.347h15.26c.74 0 1.34-.603 1.34-1.347v-24.247c0-.744-.6-1.348-1.34-1.348"/><path fill="#f7f3ea" stroke="#2a4385" stroke-linecap="round" stroke-linejoin="round" stroke-width="2" d="M8483.01 314.125H8329.2V692.02h153.81z"/><path fill="#f7f3ea" stroke="#2a4385" stroke-linecap="round" stroke-linejoin="round" stroke-width="2" d="M8360.91 314.125h-121.07V692.02h121.07z"/><path fill="#f7f3ea" stroke="#2a4385" stroke-linecap="round" stroke-linejoin="round" stroke-width="2" d="M8483.16 683.16h-243.32v111.439h243.32zm-241.64-449.32h239.81c.93 0 1.68.751 1.68 1.682v78.602h-243.17v-78.602c0-.931.75-1.682 1.68-1.682"/><path fill="#2a4385" stroke="#2a4385" stroke-linecap="round" stroke-linejoin="round" stroke-width="2" d="M8467.23 250.336h-210.57c-.93 0-1.68.753-1.68 1.682v5.047c0 .929.75 1.682 1.68 1.682h210.57c.93 0 1.68-.753 1.68-1.682v-5.047a1.68 1.68 0 0 0-1.68-1.682m0 15.242h-210.57c-.93 0-1.68.753-1.68 1.682v5.047c0 .929.75 1.682 1.68 1.682h210.57c.93 0 1.68-.753 1.68-1.682v-5.047a1.68 1.68 0 0 0-1.68-1.682m0 16.652h-210.57c-.93 0-1.68.754-1.68 1.683v5.046c0 .929.75 1.682 1.68 1.682h210.57c.93 0 1.68-.753 1.68-1.682v-5.046a1.68 1.68 0 0 0-1.68-1.683m-80.43 15.95h-49.71c-.93 0-1.68.753-1.68 1.682v5.046c0 .929.75 1.683 1.68 1.683h49.71c.93 0 1.68-.754 1.68-1.683v-5.046a1.68 1.68 0 0 0-1.68-1.682m-126.71 9.317c2.82 0 5.1-2.289 5.1-5.114a5.104 5.104 0 1 0-10.21 0 5.107 5.107 0 0 0 5.11 5.114"/><path fill="#f7f3ea" stroke="#2a4385" stroke-linecap="round" stroke-linejoin="round" stroke-width="2" d="M8275.41 307.497c2.82 0 5.11-2.289 5.11-5.114a5.113 5.113 0 0 0-5.11-5.113 5.113 5.113 0 0 0-5.11 5.113 5.113 5.113 0 0 0 5.11 5.114"/><path fill="#2a4385" stroke="#2a4385" stroke-linecap="round" stroke-linejoin="round" stroke-width="2" d="M8290.74 307.497c2.82 0 5.11-2.289 5.11-5.114a5.113 5.113 0 0 0-5.11-5.113 5.113 5.113 0 0 0-5.11 5.113 5.113 5.113 0 0 0 5.11 5.114m57.19 147.417h-7.92c-.93 0-1.68.753-1.68 1.682V607.79c0 .929.75 1.682 1.68 1.682h7.92c.93 0 1.68-.753 1.68-1.682V456.596a1.68 1.68 0 0 0-1.68-1.682m34.77 0h-7.92c-.93 0-1.68.753-1.68 1.682V607.79c0 .929.75 1.682 1.68 1.682h7.92c.93 0 1.68-.753 1.68-1.682V456.596a1.68 1.68 0 0 0-1.68-1.682"/><path fill="#f7f3ea" stroke="#2a4385" stroke-linecap="round" stroke-linejoin="round" stroke-width="2" d="M8481.32 771h-239.64c-.93 0-1.68.664-1.68 1.482v29.036c0 .818.75 1.482 1.68 1.482h239.64c.93 0 1.68-.664 1.68-1.482v-29.036c0-.818-.75-1.482-1.68-1.482"/></g><defs><clipPath id="a"><path fill="#fff" d="M0 0h23000v1117H0z"/></clipPath><clipPath id="b"><path fill="#fff" d="M7811 351h203v221h-203z"/></clipPath><clipPath id="c"><path fill="#fff" d="M9567 405h110.425v127.983H9567z"/></clipPath><clipPath id="d"><path fill="#fff" d="M-661 437h848v434h-848z"/></clipPath><clipPath id="e"><path fill="#fff" d="M15772 204h670v636h-670z"/></clipPath><clipPath id="f"><path fill="#fff" d="M16257.3 315.824h22.966v60.904h-22.966z"/></clipPath><clipPath id="g"><path fill="#fff" d="M16282.2 315.824h22.966v60.904h-22.966z"/></clipPath><clipPath id="h"><path fill="#fff" d="M16032.6 393.703h184.724v84.867H16032.6z"/></clipPath><clipPath id="i"><path fill="#fff" d="M16026.6 652.297h81.878v26.958h-81.878z"/></clipPath><clipPath id="j"><path fill="#fff" d="M16109.5 652.297h81.878v26.958h-81.878z"/></clipPath><clipPath id="k"><path fill="#fff" d="M16026.6 628.332h81.878v25.959h-81.878z"/></clipPath><clipPath id="l"><path fill="#fff" d="M16026.6 603.371h81.878v25.959h-81.878z"/></clipPath><clipPath id="m"><path fill="#fff" d="M16109.5 628.332h81.878v25.959h-81.878z"/></clipPath><clipPath id="n"><path fill="#fff" d="M16254 551h81.878v25.959H16254z"/></clipPath><clipPath id="o"><path fill="#fff" d="M16382.1 309.832h36.945v67.893h-36.945z"/></clipPath><clipPath id="p"><path fill="#fff" d="M16258.3 425.652h64.903v34.945h-64.903z"/></clipPath><clipPath id="q"><path fill="#fff" d="M16039 305h173v73h-173z"/></clipPath><clipPath id="r"><path fill="#fff" d="M16268 595h126v66h-126z"/></clipPath><clipPath id="s"><path fill="#fff" d="m19868 544 81.609 1.283-1.377 87.56-81.609-1.283z"/></clipPath></defs></svg>