<svg xmlns="http://www.w3.org/2000/svg" width="86" height="129" fill="none" viewBox="836 710 86 129"><g clip-path="url(#n)"><path fill="#f7f3ea" stroke="#2a4385" stroke-linecap="round" stroke-linejoin="round" stroke-width="2" d="M861.408 818.543c8.8 2.127 26.384 1.799 35.278-.422 8.329-2.096 8.11-4.739 7.468-11.95l-15.36-84.944c-.971-5.552-2.959-8.086-7.14-8.055l-7.062.063c-4.603.047-6.059 2.784-6.983 8.18l-13.842 85.194c-.516 7.226-.688 9.917 7.641 11.934"/><path fill="#f7f3ea" d="M864.994 737.953c8.833 2.71 17.667 2.71 26.484 0z"/><path stroke="#2a4385" stroke-linecap="round" stroke-linejoin="round" stroke-width="2" d="M864.994 737.953c8.833 2.71 17.667 2.71 26.484 0"/><path fill="#f7f3ea" d="M860.41 768.949q18.336 6.097 36.671 0z"/><path stroke="#2a4385" stroke-linecap="round" stroke-linejoin="round" stroke-width="2" d="M860.41 768.949q18.336 6.097 36.671 0"/><path fill="#f7f3ea" d="M855.826 794.863c15.274 7.453 30.564 7.453 45.839 0z"/><path stroke="#2a4385" stroke-linecap="round" stroke-linejoin="round" stroke-width="2" d="M855.826 794.863c15.274 7.453 30.564 7.453 45.839 0"/><path fill="#2a4385" stroke="#2a4385" stroke-linecap="round" stroke-linejoin="round" stroke-width="2" d="m918.826 827.1-.047-10.088-79.589.547.047 9.682s-.031.156-.031.234c0 4.614 17.818 8.352 39.802 8.352s39.802-3.738 39.802-8.352c0-.125-.016-.234-.047-.359h.078z"/><path fill="#2a4385" stroke="#2a4385" stroke-linecap="round" stroke-linejoin="round" stroke-width="2" d="M839.19 818.059c0 4.739 18.367 9.072 40.35 9.072 21.984 0 39.239-4.333 39.239-9.072s-17.819-8.571-39.802-8.571c-21.984 0-39.787 3.832-39.787 8.571"/><path fill="#2a4385" d="M855.062 797.658s-1.684 10.458-1.528 13.211c.094 1.596 50.677.254 50.677.254.125-5.192-2.292-16.006-2.292-16.006s-22.41 11.941-46.093 0zm9.932-59.451-5.093 30.488c11.414 4.473 26.345 4.129 37.18 0l-5.603-30.488s-12.298 3.629-26.484 0"/></g><defs><clipPath id="c"><path fill="#fff" d="M2131 722h82v125h-82z"/></clipPath><clipPath id="d"><path fill="#fff" d="M4214 733h82v125h-82z"/></clipPath><clipPath id="e"><path fill="#fff" d="M2263 725h82v125h-82z"/></clipPath><clipPath id="f"><path fill="#fff" d="M2199 695h82v125h-82z"/></clipPath><clipPath id="g"><path fill="#fff" d="M8385 518.223h563v295.985h-563z"/></clipPath><clipPath id="h"><path fill="#fff" d="m8903.95 481 95.714 7.409-7.95 102.693-95.713-7.41z"/></clipPath><clipPath id="i"><path fill="#fff" d="M4288 628h159v124h-159z"/></clipPath><clipPath id="j"><path fill="#fff" d="M4408 636h166v130h-166z"/></clipPath><clipPath id="k"><path fill="#fff" d="M22505 261h459v534h-459z"/></clipPath><clipPath id="l"><path fill="#fff" d="M13318 390h574v460h-574z"/></clipPath><clipPath id="m"><path fill="#fff" d="M19016 404h890v456h-890z"/></clipPath><clipPath id="n"><path fill="#fff" d="M838 712h82v125h-82z"/></clipPath><clipPath id="o"><path fill="#fff" d="M17347 79h87v135h-87z"/></clipPath><clipPath id="p"><path fill="#fff" d="M17855 79h87v135h-87z"/></clipPath></defs></svg>