<svg xmlns="http://www.w3.org/2000/svg" width="640" height="310" fill="none" viewBox="9570 620 640 310"><g><path fill="#f7f3ea" stroke="#2a4385" stroke-miterlimit="10" stroke-width="2" d="M9593.57 923.527c11.09 0 20.09-8.971 20.09-20.037s-9-20.037-20.09-20.037c-11.1 0-20.09 8.971-20.09 20.037s8.99 20.037 20.09 20.037Z"/><path fill="#2a4385" stroke="#2a4385" stroke-miterlimit="10" stroke-width="2" d="M9593.57 915.432c6.61 0 11.97-5.347 11.97-11.943s-5.36-11.942-11.97-11.942c-6.62 0-11.98 5.347-11.98 11.942 0 6.596 5.36 11.943 11.98 11.943Z"/><path fill="#f7f3ea" stroke="#2a4385" stroke-miterlimit="10" stroke-width="2" d="M9591.73 908.001h3.83c3.11 0 5.78-2.182 6.4-5.204l4.26-20.775a2.137 2.137 0 0 0-2.1-2.565h-20.95a2.142 2.142 0 0 0-2.1 2.565l4.26 20.775c.62 3.037 3.3 5.204 6.4 5.204Z"/><path fill="#2a4385" stroke="#2a4385" stroke-miterlimit="10" stroke-width="2" d="M9598.64 852.445h-10.14c-1.33 0-2.4 1.07-2.4 2.389v25.772a2.39 2.39 0 0 0 2.4 2.389h10.14a2.39 2.39 0 0 0 2.39-2.389v-25.772a2.39 2.39 0 0 0-2.39-2.389Z"/><path fill="#f7f3ea" stroke="#2a4385" stroke-miterlimit="10" stroke-width="2" d="M9888.42 923.527c11.1 0 20.09-8.971 20.09-20.037s-8.99-20.037-20.09-20.037c-11.09 0-20.09 8.971-20.09 20.037s9 20.037 20.09 20.037Z"/><path fill="#2a4385" stroke="#2a4385" stroke-miterlimit="10" stroke-width="2" d="M9888.42 915.432c6.62 0 11.98-5.347 11.98-11.943s-5.36-11.942-11.98-11.942c-6.61 0-11.97 5.347-11.97 11.942 0 6.596 5.36 11.943 11.97 11.943Z"/><path fill="#f7f3ea" stroke="#2a4385" stroke-miterlimit="10" stroke-width="2" d="M9886.57 908.001h3.83c3.11 0 5.78-2.182 6.4-5.204l4.26-20.775a2.137 2.137 0 0 0-2.1-2.565h-20.95a2.142 2.142 0 0 0-2.1 2.565l4.26 20.775c.62 3.037 3.3 5.204 6.4 5.204Z"/><path fill="#2a4385" stroke="#2a4385" stroke-miterlimit="10" stroke-width="2" d="M9893.49 852.445h-10.14a2.39 2.39 0 0 0-2.39 2.389v25.772a2.39 2.39 0 0 0 2.39 2.389h10.14c1.33 0 2.4-1.07 2.4-2.389v-25.772a2.39 2.39 0 0 0-2.4-2.389Z"/><path fill="#f7f3ea" stroke="#2a4385" stroke-miterlimit="10" stroke-width="2" d="M10181.4 923.527c11.1 0 20.1-8.971 20.1-20.037s-9-20.037-20.1-20.037-20.1 8.971-20.1 20.037 9 20.037 20.1 20.037Z"/><path fill="#2a4385" stroke="#2a4385" stroke-miterlimit="10" stroke-width="2" d="M10181.4 915.432c6.6 0 12-5.347 12-11.943s-5.4-11.942-12-11.942-11.9 5.347-11.9 11.942c0 6.596 5.3 11.943 11.9 11.943Z"/><path fill="#f7f3ea" stroke="#2a4385" stroke-miterlimit="10" stroke-width="2" d="M10179.6 908.001h3.8c3.1 0 5.8-2.182 6.4-5.204l4.3-20.775c.2-1.326-.8-2.565-2.1-2.565h-21c-1.3 0-2.3 1.239-2.1 2.565l4.3 20.775c.6 3.037 3.3 5.204 6.4 5.204Z"/><path fill="#2a4385" stroke="#2a4385" stroke-miterlimit="10" stroke-width="2" d="M10186.5 852.445h-10.1c-1.4 0-2.4 1.07-2.4 2.389v25.772c0 1.319 1 2.389 2.4 2.389h10.1c1.3 0 2.4-1.07 2.4-2.389v-25.772c0-1.319-1.1-2.389-2.4-2.389Z"/><path fill="#f7f3ea" stroke="#2a4385" stroke-linecap="round" stroke-linejoin="round" stroke-width="2" d="M10188.2 635.371h-600.79c-.88 0-1.61.61-1.61 1.346v219.024c0 .75.73 1.347 1.61 1.347h600.79c.9 0 1.6-.61 1.6-1.347V636.717c0-.749-.7-1.346-1.6-1.346M9877.99 844.4h-274.74c-1.25 0-2.27-.851-2.27-1.905V649.977c0-1.054 1.02-1.905 2.27-1.905h274.74c1.04 0 1.92.597 2.18 1.41V842.99c-.26.813-1.14 1.41-2.18 1.41m296.61-1.905c0 1.054-1 1.905-2.2 1.905h-274.78c-1.05 0-1.92-.597-2.19-1.41V649.482c.27-.813 1.14-1.41 2.19-1.41h274.78c1.2 0 2.2.851 2.2 1.905z"/><path fill="#2a4385" stroke="#2a4385" stroke-linecap="round" stroke-linejoin="round" stroke-width="2" d="M10193 621.906h-611.28c-1.22 0-2.22.857-2.22 1.915v12.328c0 1.058 1 1.915 2.22 1.915H10193c1.2 0 2.2-.857 2.2-1.915v-12.328c0-1.058-1-1.915-2.2-1.915"/><path fill="#f7f3ea" stroke="#2a4385" stroke-linecap="round" stroke-linejoin="round" stroke-width="2" d="M9852.86 727h-97.72c-3.94 0-7.14 3.164-7.14 7.067s3.2 7.068 7.14 7.068h97.72c3.94 0 7.14-3.164 7.14-7.068s-3.2-7.067-7.14-7.067"/><path fill="#f7f3ea" stroke="#2a4385" stroke-linecap="round" stroke-linejoin="round" stroke-width="2" d="M9762.74 727.562h82.55c1.6 0 2.88 1.269 2.88 2.856v39.971c0 5.852-4.8 10.61-10.69 10.61h-66.92c-5.9 0-10.7-4.758-10.7-10.61v-39.971a2.856 2.856 0 0 1 2.88-2.856m-51.07 68h-72.35c-1.11 0-2.16-.569-2.77-1.5l-5.63-8.68c-1.41-2.162.16-5.019 2.77-5.019h83.63c2.6 0 4.18 2.857 2.77 5.019l-5.64 8.68a3.32 3.32 0 0 1-2.78 1.5"/><path fill="#2a4385" stroke="#2a4385" stroke-linecap="round" stroke-linejoin="round" stroke-width="2" d="M9711.67 808.808h-72.34a3.33 3.33 0 0 1-2.78-1.5l-5.65-8.68c-1.4-2.162.16-5.019 2.78-5.019h83.62c2.6 0 4.18 2.857 2.78 5.019l-5.65 8.68c-.6.932-1.64 1.5-2.77 1.5z"/><path fill="#f7f3ea" stroke="#2a4385" stroke-linecap="round" stroke-linejoin="round" stroke-width="2" d="M9711.67 820.105h-72.34c-1.12 0-2.17-.569-2.78-1.5l-5.65-8.68c-1.4-2.162.16-5.019 2.78-5.019h83.62c2.6 0 4.18 2.857 2.78 5.019l-5.65 8.68c-.6.931-1.64 1.5-2.77 1.5z"/><path fill="#2a4385" stroke="#2a4385" stroke-linecap="round" stroke-linejoin="round" stroke-width="2" d="M9711.67 832.038h-72.34c-1.12 0-2.17-.568-2.78-1.499l-5.65-8.68c-1.4-2.163.16-5.019 2.78-5.019h83.62c2.6 0 4.18 2.856 2.78 5.019l-5.65 8.68a3.29 3.29 0 0 1-2.77 1.499z"/><path fill="#f7f3ea" stroke="#2a4385" stroke-linecap="round" stroke-linejoin="round" stroke-width="2" d="M9711.67 844.632h-72.34c-1.12 0-2.17-.568-2.78-1.499l-5.65-8.681c-1.4-2.162.16-5.018 2.78-5.018h83.62c2.6 0 4.18 2.856 2.78 5.018l-5.65 8.681a3.29 3.29 0 0 1-2.77 1.499zm448.33-83.745h-108.3v75.408c0 4.256 2.4 7.738 5.3 7.738h97.7c2.9 0 5.3-3.482 5.3-7.738z"/><path fill="#2a4385" stroke="#2a4385" stroke-linecap="round" stroke-linejoin="round" stroke-width="2" d="M10114.3 726.176h-16.9c-2.9 0-5.2 2.401-5.2 5.368v15.323h27.3v-15.323c0-2.967-2.3-5.368-5.2-5.368"/><path fill="#f7f3ea" stroke="#2a4385" stroke-linecap="round" stroke-linejoin="round" stroke-width="2" d="M10045.7 751.768c0-1.195 1.4-2.164 3-2.164 0 0 34.7-9.405 57.2-9.405 22.4 0 57.1 9.405 57.1 9.405 1.6 0 3 .969 3 2.164v6.959c0 1.195-1.4 2.164-3 2.164h-114.3c-1.6 0-3-.969-3-2.164zm-19.7 9.119h-108.33v75.408c0 4.256 2.42 7.738 5.38 7.738h97.65c2.9 0 5.3-3.482 5.3-7.738z"/><path fill="#2a4385" stroke="#2a4385" stroke-linecap="round" stroke-linejoin="round" stroke-width="2" d="M9980.3 726.176h-16.86c-2.9 0-5.25 2.401-5.25 5.368v15.323h27.33v-15.323c0-2.967-2.35-5.368-5.24-5.368z"/><path fill="#f7f3ea" stroke="#2a4385" stroke-linecap="round" stroke-linejoin="round" stroke-width="2" d="M9911.73 751.768c0-1.195 1.32-2.164 2.96-2.164 0 0 34.68-9.405 57.16-9.405 22.49 0 57.15 9.405 57.15 9.405 1.6 0 3 .969 3 2.164v6.959c0 1.195-1.4 2.164-3 2.164h-114.31c-1.64 0-2.96-.969-2.96-2.164zM9852.86 763h-97.72c-3.94 0-7.14 3.164-7.14 7.067s3.2 7.068 7.14 7.068h97.72c3.94 0 7.14-3.164 7.14-7.068s-3.2-7.067-7.14-7.067"/><path fill="#f7f3ea" stroke="#2a4385" stroke-linecap="round" stroke-linejoin="round" stroke-width="2" d="M9762.74 763.562h82.55c1.6 0 2.88 1.269 2.88 2.856v39.971c0 5.852-4.8 10.61-10.69 10.61h-66.92c-5.9 0-10.7-4.758-10.7-10.61v-39.971a2.856 2.856 0 0 1 2.88-2.856"/><path fill="#f7f3ea" stroke="#2a4385" stroke-linecap="round" stroke-linejoin="round" stroke-width="2" d="M9852.86 790h-97.72c-3.94 0-7.14 3.164-7.14 7.067s3.2 7.068 7.14 7.068h97.72c3.94 0 7.14-3.164 7.14-7.068s-3.2-7.067-7.14-7.067"/><path fill="#f7f3ea" stroke="#2a4385" stroke-linecap="round" stroke-linejoin="round" stroke-width="2" d="M9762.74 790.562h82.55c1.6 0 2.88 1.269 2.88 2.856v39.971c0 5.852-4.8 10.61-10.69 10.61h-66.92c-5.9 0-10.7-4.758-10.7-10.61v-39.971a2.856 2.856 0 0 1 2.88-2.856"/></g></svg>