<svg xmlns="http://www.w3.org/2000/svg" width="82" height="53" fill="none" viewBox="21284 575 82 53"><g><path fill="#f7f3ea" stroke="#2a4385" stroke-miterlimit="10" stroke-width="2" d="M16086.2 618.969h-10.9c-1.3 0-2.3 1.086-2.3 2.425v179.005c0 1.34 1 2.426 2.3 2.426h10.9c1.3 0 2.3-1.086 2.3-2.426V621.394c0-1.339-1-2.425-2.3-2.425Zm243.7 0h-10.9c-1.3 0-2.3 1.086-2.3 2.425v180.655c0 1.339 1 2.425 2.3 2.425h10.9c1.3 0 2.3-1.086 2.3-2.425V621.394c0-1.339-1-2.425-2.3-2.425Z"/><path fill="#f7f3ea" stroke="#2a4385" stroke-miterlimit="10" stroke-width="2" d="M16324.2 825.441c6.4 0 11.6-5.314 11.6-11.869s-5.2-11.869-11.6-11.869c-6.3 0-11.5 5.314-11.5 11.869s5.2 11.869 11.5 11.869Zm-243.5.211c6.4 0 11.6-5.314 11.6-11.869s-5.2-11.869-11.6-11.869c-6.3 0-11.5 5.314-11.5 11.869s5.2 11.869 11.5 11.869Z"/><path fill="#f7f3ea" stroke="#2a4385" stroke-miterlimit="10" stroke-width="2" d="M16324.3 820.49c3.7 0 6.7-3.098 6.7-6.921 0-3.822-3-6.921-6.7-6.921-3.8 0-6.8 3.099-6.8 6.921s3 6.921 6.8 6.921Zm-243.6.215c3.8 0 6.8-3.099 6.8-6.921s-3-6.921-6.8-6.921c-3.7 0-6.7 3.099-6.7 6.921s3 6.921 6.7 6.921Zm622.1-221.369h-294.4c-1.3 0-2.4 1.086-2.4 2.425v15.524c0 1.34 1.1 2.425 2.4 2.425h294.4c1.3 0 2.3-1.085 2.3-2.425v-15.524c0-1.339-1-2.425-2.3-2.425Zm5.2 162.832h-299.6c-1.3 0-2.4 1.086-2.4 2.426v15.523c0 1.34 1.1 2.426 2.4 2.426h299.6c1.3 0 2.4-1.086 2.4-2.426v-15.523c0-1.34-1.1-2.426-2.4-2.426Z"/></g><defs><clipPath id="c"><path fill="#fff" d="M2131 722h82v125h-82z"/></clipPath><clipPath id="d"><path fill="#fff" d="M4214 733h82v125h-82z"/></clipPath><clipPath id="e"><path fill="#fff" d="M2263 725h82v125h-82z"/></clipPath><clipPath id="f"><path fill="#fff" d="M2199 695h82v125h-82z"/></clipPath><clipPath id="g"><path fill="#fff" d="M8385 518.223h563v295.985h-563z"/></clipPath><clipPath id="h"><path fill="#fff" d="m8903.95 481 95.714 7.409-7.95 102.693-95.713-7.41z"/></clipPath><clipPath id="i"><path fill="#fff" d="M4288 628h159v124h-159z"/></clipPath><clipPath id="j"><path fill="#fff" d="M4408 636h166v130h-166z"/></clipPath><clipPath id="k"><path fill="#fff" d="M22505 261h459v534h-459z"/></clipPath><clipPath id="l"><path fill="#fff" d="M13318 390h574v460h-574z"/></clipPath><clipPath id="m"><path fill="#fff" d="M19016 404h890v456h-890z"/></clipPath><clipPath id="n"><path fill="#fff" d="M838 712h82v125h-82z"/></clipPath><clipPath id="o"><path fill="#fff" d="M17347 79h87v135h-87z"/></clipPath><clipPath id="p"><path fill="#fff" d="M17855 79h87v135h-87z"/></clipPath></defs></svg>