<svg xmlns="http://www.w3.org/2000/svg" width="936" height="458" fill="none" viewBox="-673 425 936 458"><g><g stroke="#2a4385" stroke-linejoin="round"><path fill="#f7f3ea" stroke-linecap="round" stroke-width="2" d="M184.279 539.383h-838.023v39.866h838.023zM55.918 663.715h121.967v-71.66H55.918zm-.118-76.863h-182.923v220.615H55.8z"/><path fill="#2a4385" stroke-linecap="round" stroke-width="2" d="M106.971 611.172h19.863c.741 0 1.342-.6 1.342-1.341v-1.74c0-.74-.601-1.341-1.342-1.341h-19.863c-.741 0-1.342.601-1.342 1.341v1.74c0 .741.601 1.341 1.342 1.341"/><path fill="#f7f3ea" stroke-linecap="round" stroke-width="2" d="M55.918 735.637h121.967v-71.66H55.918z"/><path fill="#2a4385" stroke-linecap="round" stroke-width="2" d="M106.971 683.059h19.863c.741 0 1.342-.601 1.342-1.341v-1.731c0-.741-.601-1.341-1.342-1.341h-19.863c-.741 0-1.342.6-1.342 1.341v1.731c0 .74.601 1.341 1.342 1.341"/><path stroke-width="9" d="M133.263 557.069v-89.11c0-14.425-13.704-26.484-31.072-26.865-.182 0-.372 0-.563-.009-1.016-.009-2.004 0-2.975.054-16.796.807-29.784 12.595-29.784 26.557v3.688"/><path fill="#f7f3ea" stroke-linecap="round" stroke-width="2" d="M72.598 467.625H64.39a2.656 2.656 0 0 0-2.658 2.655v2.89a2.656 2.656 0 0 0 2.658 2.655h8.208a2.656 2.656 0 0 0 2.657-2.655v-2.89a2.656 2.656 0 0 0-2.657-2.655m70.886 75.158v-4.521c0-1.395-1.152-2.528-2.576-2.528h-15.953c-.708 0-1.352.281-1.823.743a2.57 2.57 0 0 0-.753 1.785v30.561c0 1.396 1.152 2.528 2.576 2.528h15.953c1.424 0 2.576-1.132 2.576-2.528zm17.378-2.049h-11.437a2.656 2.656 0 0 0-2.657 2.655v8.272a2.655 2.655 0 0 0 2.657 2.655h11.437a2.656 2.656 0 0 0 2.657-2.655v-8.272a2.656 2.656 0 0 0-2.657-2.655"/><path fill="#f7f3ea" stroke-linecap="round" stroke-width="2" d="M160.572 530.923a2.076 2.076 0 0 0-4.154 0v10.609a2.076 2.076 0 0 0 4.154 0zm-13.851 13.202h-2.893v7.729h2.893z"/><path fill="#2a4385" stroke-linecap="round" stroke-width="2" d="M178.784 570.255c0-1.739-2.794-1.939-6.24-1.939h-2.73c-3.447 0-6.24.2-6.24 1.939v.961H-39.683v-.961c0-1.739-2.793-1.939-6.24-1.939h-2.73c-3.446 0-6.24.2-6.24 1.939v6.868h.01v2.456h233.648v-2.456h.028v-6.868zm-2.344 235.511h-13.745a1.21 1.21 0 0 0-1.213 1.209v21.765a1.21 1.21 0 0 0 1.213 1.209h13.745a1.21 1.21 0 0 0 1.213-1.209v-21.765a1.21 1.21 0 0 0-1.213-1.209"/><path fill="#f7f3ea" stroke-linecap="round" stroke-width="2" d="M57.278 807.566h119.246a1.36 1.36 0 0 0 1.361-1.359v-68.941a1.36 1.36 0 0 0-1.361-1.359H57.278a1.36 1.36 0 0 0-1.36 1.359v68.941a1.36 1.36 0 0 0 1.36 1.359"/><path fill="#2a4385" stroke-linecap="round" stroke-width="2" d="M106.989 753.812h19.826a1.36 1.36 0 0 0 1.361-1.359v-1.794a1.36 1.36 0 0 0-1.361-1.359h-19.826a1.36 1.36 0 0 0-1.36 1.359v1.794a1.36 1.36 0 0 0 1.36 1.359"/><path fill="#f7f3ea" stroke-linecap="round" stroke-width="2" d="M182.663 578.344h-833.882c-1.895 0-3.431 1.507-3.431 3.366v6.858c0 1.859 1.536 3.367 3.431 3.367h833.882c1.895 0 3.431-1.508 3.431-3.367v-6.858c0-1.859-1.536-3.366-3.431-3.366"/></g></g></svg>