<svg width="615" height="415" viewBox="9270 415 615 415" fill="none" xmlns="http://www.w3.org/2000/svg">
<g clip-path="url(#a)">
<path fill="#2a4385" stroke="#2a4385" stroke-linecap="round" stroke-linejoin="round" stroke-width="2" d="M9703.42 790.625h20.21c.99 0 1.79.797 1.79 1.781v32.063c0 .984-.8 1.781-1.79 1.781h-20.21c-.99 0-1.79-.797-1.79-1.781v-32.063c0-.984.8-1.781 1.79-1.781m-393.42 0h20.22c.98 0 1.78.797 1.78 1.781v32.063c0 .984-.8 1.781-1.78 1.781H9310c-.99 0-1.79-.797-1.79-1.781v-32.063c0-.984.8-1.781 1.79-1.781"/>
<path fill="#f7f3ea" stroke="#2a4385" stroke-linecap="round" stroke-linejoin="round" stroke-width="1.5" d="M9354.2 795.958h331.47c12.02 0 21.76-.974 21.76-2.18V547.121c0-1.206-9.75-2.18-21.76-2.18H9354.2c-12.03 0-21.76.974-21.76 2.18v246.657c0 1.206 9.75 2.18 21.76 2.18"/>
<path fill="#f7f3ea" stroke="#2a4385" stroke-linecap="round" stroke-linejoin="round" stroke-width="2" d="M9712.43 553.527v227.306c0 1.206-.92 2.179-2.05 2.179h-4.44c-1.13 0-2.04-.973-2.04-2.179v-113.13c0-1.206-.91-2.179-2.04-2.179h-147.89c-1.13 0-2.05.973-2.05 2.179v113.13c0 1.206-.91 2.179-2.04 2.179h-224.07c-1.13 0-2.05-.973-2.05-2.179V553.527c0-1.206.92-2.179 2.05-2.179h384.57c1.13 0 2.05.973 2.05 2.179m-158.46 98.268h147.89c1.13 0 2.04-.974 2.04-2.179V564.96c0-1.205-.91-2.179-2.04-2.179h-147.89c-1.13 0-2.05.974-2.05 2.179v84.656c0 1.205.92 2.179 2.05 2.179m-220.52 0h204.05c1.13 0 2.05-.974 2.05-2.179V564.96c0-1.205-.92-2.179-2.05-2.179h-204.05c-1.13 0-2.05.974-2.05 2.179v84.656c0 1.205.92 2.179 2.05 2.179"/>
<path fill="#f7f3ea" stroke="#2a4385" stroke-linecap="round" stroke-linejoin="round" stroke-width="2" d="M9319.82 780.703h396.57c1.13 0 2.04.976 2.04 2.179v10.896c0 1.204-.91 2.18-2.04 2.18h-396.57c-1.13 0-2.05-.976-2.05-2.18v-10.896c0-1.203.92-2.179 2.05-2.179"/>
<path fill="#f7f3ea" stroke="#2a4385" stroke-linecap="round" stroke-linejoin="round" stroke-width="2" d="M9305.29 795.959h36.96c1.13 0 2.05-.974 2.05-2.18V679.327c0-.45-.13-.871-.37-1.235l-4.88-7.511a2.33 2.33 0 0 1-.36-1.235l-.26-118.723c0-3.124-2.38-5.666-5.31-5.666h-27.85c-1.13 0-2.04.973-2.04 2.179v246.658c0 1.206.91 2.179 2.04 2.179zm391.59-.001h31.11c1.13 0 2.04-.974 2.04-2.18V547.121c0-1.206-.91-2.18-2.04-2.18h-31.11c-1.13 0-2.05.974-2.05 2.18v246.657c0 1.206.92 2.18 2.05 2.18"/>
<path fill="#f7f3ea" stroke="#2a4385" stroke-linecap="round" stroke-linejoin="round" stroke-width="2" d="M9279.07 528.09h596.87c1.13 0 2.04.976 2.04 2.179v18.901c0 1.204-.91 2.179-2.04 2.179h-596.87c-1.13 0-2.05-.975-2.05-2.179v-18.901c0-1.203.92-2.179 2.05-2.179m78.58 148.535h180.19c1.13 0 2.04.976 2.04 2.179v88.447c0 1.204-.91 2.179-2.04 2.179h-180.19c-1.13 0-2.04-.975-2.04-2.179v-88.447c0-1.203.91-2.179 2.04-2.179"/>
<path fill="#2a4385" stroke="#2a4385" stroke-linecap="round" stroke-linejoin="round" stroke-width="2" d="M9476.84 693.331v7.685c0 1.204-.91 2.179-2.04 2.179h-54.23c-1.13 0-2.04-.975-2.04-2.179v-7.685c0-1.204.91-2.179 2.04-2.179h54.23c1.13 0 2.04.975 2.04 2.179"/>
<path fill="#f7f3ea" stroke="#2a4385" stroke-miterlimit="10" stroke-width="2" d="M9845.96 518.438H9724.9c-.54 0-.98.52-.98 1.163V526c0 .643.44 1.164.98 1.164h121.06c.54 0 .98-.521.98-1.164v-6.399c0-.643-.44-1.163-.98-1.163Zm-122.19 3.878h-18.11c-.08 0-.14.29-.14.647v3.555c0 .357.06.646.14.646h18.11c.08 0 .15-.289.15-.646v-3.555c0-.357-.07-.647-.15-.647Z"/>
<g stroke="#2a4385" stroke-miterlimit="10" stroke-width="2" clip-path="url(#c)"><path fill="#2a4385" d="M9655.63 457.672c.05-.725 1.36-10.198 1.32-13.883-.02-1.463.13-5.959.14-11.712a5.4 5.4 0 0 1 1.02-3.148c.26-.36.48-.669.58-.892-.07-.657-.6-2.291-2.26-3.913-1.03-1.017-2.17-1.743-2.82-1.948-.28-.046-1.49-.223-2.66.537-1.43.925-1.63 2.485-1.63 2.696-.35 12.398-.18 20.688-.12 25.962.01.988.17 3.291.26 6.507l6.16-.011z"/><path d="M9649.32 453.879h6.73"/><path fill="#2a4385" d="M9652.52 449.587a.428.428 0 1 0 0-.857c-.24 0-.44.192-.44.429s.2.428.44.428Zm0-8.656a.428.428 0 1 0 0-.857c-.24 0-.44.192-.44.429 0 .236.2.428.44.428Z"/><path fill="#f7f3ea" d="M9655.47 458.015c-.06 1.862.8 1.782 7.14 1.776-.63 13.244-1.43 27.996-4.62 45.793-1.17 6.067-2.7 11.598-5.07 16.717-2.97-6.491-3.34-13.209-3.46-18.517-.41-19.174.01-28.927.05-30.818.05-2.171.36-7.518.15-14.832 0-.079 0-.159-.01-.239h5.82z"/><path fill="#2a4385" d="M9621.5 457.672c.04-.725 1.36-10.198 1.32-13.883-.02-1.463.13-5.959.14-11.712a5.4 5.4 0 0 1 1.01-3.148c.26-.36.49-.669.59-.892-.08-.657-.6-2.291-2.26-3.913-1.03-1.017-2.17-1.743-2.82-1.948-.28-.046-1.5-.223-2.66.537-1.43.925-1.63 2.485-1.64 2.696-.34 12.398-.17 20.688-.12 25.962.01.988.18 3.291.27 6.507l6.16-.011z"/><path d="M9616.06 453.879h6.74"/><path fill="#2a4385" d="M9619.03 449.752a.428.428 0 1 0 0-.857c-.24 0-.44.191-.44.428s.2.429.44.429Zm0-8.657a.428.428 0 1 0 0-.857c-.24 0-.44.192-.44.429 0 .236.2.428.44.428Z"/><path fill="#f7f3ea" d="M9629.51 459.71c-1.79 0-3.23.011-4.38-.023-2.87-.08-3.89-.423-3.84-1.749v-.114h-5.76v.24c.21 7.313-.1 12.661-.14 14.826-.04 1.891 0-.177-.05 18.117-.02 5.308 2.01 12.198 8.24 17.037.1-.211.19-.423.28-.634 2.08-4.862 2.62-8.998 3.3-14.98 2.19-17.774 1.73-19.46 2.35-32.658z"/><path fill="#2a4385" d="M9605.68 465.778c.04-.726 1.36-10.198 1.32-13.883-.02-1.463.13-5.959.14-11.713 0-1.125.35-2.228 1.01-3.148.26-.36.49-.668.59-.891-.08-.657-.6-2.291-2.26-3.914-1.03-1.017-2.17-1.742-2.82-1.948-.28-.046-1.5-.223-2.66.537-1.43.926-1.63 2.485-1.64 2.697-.34 12.398-.17 20.688-.12 25.961.01.989.18 3.291.27 6.508l6.16-.012z"/><path d="M9599.36 461.984h6.73"/><path fill="#2a4385" d="M9602.73 457.693c.24 0 .44-.192.44-.429 0-.236-.2-.428-.44-.428-.23 0-.43.192-.43.428 0 .237.2.429.43.429Zm0-8.656c.24 0 .44-.192.44-.429 0-.236-.2-.428-.44-.428-.23 0-.43.192-.43.428 0 .237.2.429.43.429Z"/><path fill="#f7f3ea" d="M9613.69 467.815c-1.79 0-3.23.012-4.38-.023-2.87-.08-3.89-.423-3.85-1.748v-.114h-5.75v.24c.21 7.313-.1 12.66-.14 14.826-.04 1.891 0-.177-.05 18.117-.02 5.307 2.01 12.198 8.24 17.037.1-.212.19-.423.28-.634 2.08-4.863 2.62-8.999 3.3-14.981 2.19-17.774 1.73-19.459 2.35-32.657z"/><path fill="#2a4385" d="M9613.69 467.816h-1.09v.052c-.62 13.192-.16 14.883-2.35 32.657-.68 5.971-1.22 10.107-3.29 14.958.26.222.52.439.8.657.1-.212.19-.423.28-.635 2.08-4.862 2.62-8.998 3.3-14.98 2.19-17.774 1.73-19.465 2.35-32.657zm27.34-2.038c.05-.726 1.36-10.198 1.32-13.883-.02-1.463.13-5.959.14-11.713 0-1.125.36-2.228 1.02-3.148.26-.36.48-.668.58-.891-.07-.657-.6-2.291-2.26-3.914-1.03-1.017-2.17-1.742-2.82-1.948-.28-.046-1.49-.223-2.66.537-1.43.926-1.63 2.485-1.63 2.697-.35 12.398-.18 20.688-.13 25.961.02.989.18 3.291.27 6.508l6.16-.012z"/><path d="M9634.71 461.984h6.74"/><path fill="#2a4385" d="M9638.03 457.693c.24 0 .44-.192.44-.429 0-.236-.2-.428-.44-.428a.428.428 0 1 0 0 .857Zm0-8.656c.24 0 .44-.192.44-.429 0-.236-.2-.428-.44-.428a.428.428 0 1 0 0 .857Z"/><path fill="#f7f3ea" d="M9649.04 467.815c-1.79 0-3.23.012-4.38-.023-2.87-.08-3.89-.423-3.84-1.748v-.114h-5.76v.24c.21 7.313-.09 12.66-.14 14.826-.04 1.891 0-.177-.05 18.117-.02 5.307 2.01 12.198 8.24 17.037.1-.212.2-.423.28-.634 2.09-4.863 2.62-8.999 3.3-14.981 2.19-17.774 1.73-19.459 2.35-32.657z"/><path fill="#2a4385" d="M9649.04 467.816h-1.09v.052c-.62 13.192-.16 14.883-2.35 32.657-.68 5.971-1.21 10.107-3.29 14.958.26.222.53.439.8.657.1-.212.19-.423.28-.635 2.08-4.862 2.62-8.998 3.3-14.98 2.19-17.774 1.73-19.465 2.35-32.657z"/><path fill="#f7f3ea" d="M9593.77 459.714c-2.88-.08-3.9-.423-3.85-1.748v-.114h-5.76c0 .08.01.16.01.24-.02 2.622.08 5.256.05 7.421-.03 2.811.09 22.905 3.82 31.012q.255-.873.51-1.771a138 138 0 0 0 2.02-8.199c2.12-9.804 3-18.865 3.2-26.835z"/><path fill="#2a4385" d="M9590.13 457.653c.04-.726 1.36-10.198 1.32-13.883-.02-1.463.13-5.959.13-11.713 0-1.125.36-2.228 1.02-3.148.26-.36.49-.668.59-.891-.08-.657-.6-2.291-2.26-3.914-1.03-1.017-2.18-1.742-2.82-1.948-.28-.046-1.5-.223-2.67.537-1.42.926-1.62 2.485-1.63 2.697-.34 12.398-.17 20.688-.12 25.961.01.989.17 3.291.27 6.508l6.15-.012z"/><path d="M9583.81 453.859h6.73"/><path fill="#f7f3ea" d="M9673.84 464.703h-103.26c-.48 0-.87.359-.87.801v60.587c0 .442.39.801.87.801h103.26c.48 0 .87-.359.87-.801v-60.587c0-.442-.39-.801-.87-.801Z"/><path fill="#f7f3ea" d="M9675.66 521.484h-106.89c-.48 0-.86.377-.86.842v4.626c0 .465.38.841.86.841h106.89c.47 0 .86-.376.86-.841v-4.626a.854.854 0 0 0-.86-.842Z"/></g>
</g>
<defs><clipPath id="a"><path fill="#fff" d="M0 0h23000v1117H0z"/></clipPath><clipPath id="b"><path fill="#fff" d="M7811 351h203v221h-203z"/></clipPath><clipPath id="c"><path fill="#fff" d="M9567 405h110.425v127.983H9567z"/></clipPath><clipPath id="d"><path fill="#fff" d="M-661 437h848v434h-848z"/></clipPath><clipPath id="e"><path fill="#fff" d="M15772 204h670v636h-670z"/></clipPath><clipPath id="f"><path fill="#fff" d="M16257.3 315.824h22.966v60.904h-22.966z"/></clipPath><clipPath id="g"><path fill="#fff" d="M16282.2 315.824h22.966v60.904h-22.966z"/></clipPath><clipPath id="h"><path fill="#fff" d="M16032.6 393.703h184.724v84.867H16032.6z"/></clipPath><clipPath id="i"><path fill="#fff" d="M16026.6 652.297h81.878v26.958h-81.878z"/></clipPath><clipPath id="j"><path fill="#fff" d="M16109.5 652.297h81.878v26.958h-81.878z"/></clipPath><clipPath id="k"><path fill="#fff" d="M16026.6 628.332h81.878v25.959h-81.878z"/></clipPath><clipPath id="l"><path fill="#fff" d="M16026.6 603.371h81.878v25.959h-81.878z"/></clipPath><clipPath id="m"><path fill="#fff" d="M16109.5 628.332h81.878v25.959h-81.878z"/></clipPath><clipPath id="n"><path fill="#fff" d="M16254 551h81.878v25.959H16254z"/></clipPath><clipPath id="o"><path fill="#fff" d="M16382.1 309.832h36.945v67.893h-36.945z"/></clipPath><clipPath id="p"><path fill="#fff" d="M16258.3 425.652h64.903v34.945h-64.903z"/></clipPath><clipPath id="q"><path fill="#fff" d="M16039 305h173v73h-173z"/></clipPath><clipPath id="r"><path fill="#fff" d="M16268 595h126v66h-126z"/></clipPath><clipPath id="s"><path fill="#fff" d="m19868 544 81.609 1.283-1.377 87.56-81.609-1.283z"/></clipPath></defs>
</svg>
