<svg xmlns="http://www.w3.org/2000/svg" width="894" height="460" fill="none" viewBox="19014 402 894 460"><g stroke="#2a4385" clip-path="url(#m)"><path fill="#f7f3ea" stroke-linecap="round" stroke-linejoin="round" stroke-width="2" d="M19903.1 511.574h-879.5v41.887h879.5z"/><path fill="#f7f3ea" stroke-linecap="round" stroke-linejoin="round" stroke-width="2" d="M19448.8 492.676h11.1c5.4 0 9.7 4.331 9.7 9.672v47.199h-30.5v-47.199a9.66 9.66 0 0 1 9.7-9.672m12.6-6.551h-14.1v5.978h14.1z"/><path fill="#2a4385" stroke-linecap="round" stroke-linejoin="round" stroke-width="2" d="M19455.9 477.719h-3.6v6.749h3.6z"/><path stroke-linecap="round" stroke-linejoin="round" stroke-width="2" d="M19472.1 475.273c-4 4.475-9.4 5.531-14.1 2.742l-.8-.466c-3.7-2.199-7.9-2.028-11.5.476l-.6.447"/><path fill="#f7f3ea" stroke-linecap="round" stroke-linejoin="round" stroke-width="2" d="M19483 512.453h7.3c3.5 0 6.3 2.825 6.3 6.309v30.786h-19.9v-30.786c0-3.484 2.8-6.309 6.3-6.309m8.3-4.273h-9.2v3.899h9.2z"/><path fill="#2a4385" stroke-linecap="round" stroke-linejoin="round" stroke-width="2" d="M19487.7 502.695h-2.3v4.403h2.3z"/><path stroke-linecap="round" stroke-linejoin="round" stroke-width="2" d="M19498.2 501.102c-2.6 2.918-6.1 3.607-9.2 1.788l-.5-.304c-2.4-1.435-5.1-1.323-7.5.31l-.4.292"/><path fill="#f7f3ea" stroke-linecap="round" stroke-linejoin="round" stroke-width="2" d="M19768.4 642.207h128v-75.292h-128zm-.1-80.758h-192v231.799h192z"/><path fill="#f7f3ea" stroke-linecap="round" stroke-linejoin="round" stroke-width="2" d="M19576.9 561.449h-192v231.799h192z"/><path fill="#2a4385" stroke-linecap="round" stroke-linejoin="round" stroke-width="2" d="M19822 587h20.9c.7 0 1.4-.631 1.4-1.409v-1.828c0-.778-.7-1.409-1.4-1.409h-20.9c-.8 0-1.4.631-1.4 1.409v1.828c0 .778.6 1.409 1.4 1.409"/><path fill="#f7f3ea" stroke-linecap="round" stroke-linejoin="round" stroke-width="2" d="M19768.4 717.773h128v-75.292h-128z"/><path fill="#2a4385" stroke-linecap="round" stroke-linejoin="round" stroke-width="2" d="M19822 662.531h20.9c.7 0 1.4-.631 1.4-1.409v-1.818c0-.778-.7-1.409-1.4-1.409h-20.9c-.8 0-1.4.631-1.4 1.409v1.818c0 .778.6 1.409 1.4 1.409"/><path stroke-linejoin="round" stroke-width="9" d="M19849.6 530.156v-93.628c0-15.155-14.4-27.826-32.6-28.226-.2 0-.4 0-.6-.01-1.1-.009-2.1 0-3.1.057-17.6.848-31.3 13.233-31.3 27.903v3.875"/><path fill="#f7f3ea" stroke-linecap="round" stroke-linejoin="round" stroke-width="2" d="M19785.9 436.18h-8.6c-1.5 0-2.8 1.249-2.8 2.789v3.037c0 1.54 1.3 2.789 2.8 2.789h8.6c1.6 0 2.8-1.249 2.8-2.789v-3.037c0-1.54-1.2-2.789-2.8-2.789m74.4 78.965v-4.751c0-1.466-1.2-2.656-2.7-2.656h-16.7c-.8 0-1.4.295-1.9.781-.8.761-.8 1.704-.8 1.875v32.111c0 1.466 1.2 2.656 2.7 2.656h16.7c1.5 0 2.7-1.19 2.7-2.656zm18.3-2.153h-12c-1.6 0-2.8 1.249-2.8 2.789v8.692a2.76 2.76 0 0 0 2.8 2.789h12c1.5 0 2.8-1.248 2.8-2.789v-8.692c0-1.54-1.3-2.789-2.8-2.789"/><path fill="#f7f3ea" stroke-linecap="round" stroke-linejoin="round" stroke-width="2" d="M19878.3 502.68c0-1.204-1-2.18-2.2-2.18s-2.2.976-2.2 2.18v11.148c0 1.204 1 2.18 2.2 2.18s2.2-.976 2.2-2.18zm-14.6 13.875h-3v8.12h3zm33.7 27.455c0-1.828-3-2.037-6.6-2.037h-2.8c-3.7 0-6.6.209-6.6 2.037v1.009h-213.3v-1.009c0-1.828-2.9-2.037-6.6-2.037h-2.8c-3.6 0-6.6.209-6.6 2.037v7.216h0v2.58h245.3v-2.58h0z"/><path fill="#f7f3ea" stroke-linecap="round" stroke-linejoin="round" stroke-width="2" d="M19667.9 544.01c0-1.828-3-2.037-6.6-2.037h-2.8c-3.7 0-6.6.209-6.6 2.037v1.009h-213.3v-1.009c0-1.828-2.9-2.037-6.6-2.037h-2.8c-3.6 0-6.6.209-6.6 2.037v7.216h0v2.58h245.3v-2.58h0z"/><path fill="#2a4385" stroke-linecap="round" stroke-linejoin="round" stroke-width="2" d="M19554.2 686.502V638.76c0-.789-.7-1.428-1.4-1.428h-7.3c-.8 0-1.5.639-1.5 1.428v47.742c0 .789.7 1.428 1.5 1.428h7.3c.7 0 1.4-.639 1.4-1.428m53.4 0V638.76c0-.789-.6-1.428-1.4-1.428h-7.3c-.8 0-1.4.639-1.4 1.428v47.742c0 .789.6 1.428 1.4 1.428h7.3c.8 0 1.4-.639 1.4-1.428"/><path fill="#f7f3ea" stroke-linecap="round" stroke-linejoin="round" stroke-width="2" d="M19268.1 545.619c13.5 0 24.3-10.895 24.3-24.333 0-13.439-10.8-24.333-24.3-24.333-13.4 0-24.3 10.894-24.3 24.333s10.9 24.333 24.3 24.333"/><path fill="#f7f3ea" stroke-linecap="round" stroke-linejoin="round" stroke-width="2" d="M19256.4 545.958c13.4 0 24.3-10.894 24.3-24.332s-10.9-24.333-24.3-24.333-24.3 10.894-24.3 24.333 10.9 24.332 24.3 24.332m79.4-.339c13.4 0 24.3-10.895 24.3-24.333 0-13.439-10.9-24.333-24.3-24.333-13.5 0-24.4 10.894-24.4 24.333s10.9 24.333 24.4 24.333"/><path fill="#f7f3ea" stroke-linecap="round" stroke-linejoin="round" stroke-width="2" d="M19325.9 545.958c13.4 0 24.3-10.894 24.3-24.332s-10.9-24.333-24.3-24.333-24.3 10.894-24.3 24.333 10.9 24.332 24.3 24.332"/><path fill="#f7f3ea" stroke-linecap="round" stroke-linejoin="round" stroke-width="2" d="M19325.8 531.565c5.6 0 10-4.689 10-10.472 0-5.784-4.4-10.472-10-10.472-5.5 0-10 4.688-10 10.472s4.5 10.472 10 10.472m-69.5 0c5.6 0 10-4.689 10-10.472 0-5.784-4.4-10.472-10-10.472-5.5 0-9.9 4.688-9.9 10.472s4.4 10.472 9.9 10.472"/><path fill="#f7f3ea" stroke-linecap="round" stroke-linejoin="round" stroke-width="2" d="M19362.1 519.135v25.884c0 .791-.6 1.428-1.4 1.428h-122.2c-.8 0-1.4-.637-1.4-1.428v-25.884c0-.79-.6-1.428-1.4-1.428h-1.9c-.8 0-1.5.638-1.5 1.428v31.711c0 .79.7 1.428 1.5 1.428h131.7c.8 0 1.4-.638 1.4-1.428v-31.711c0-.79-.6-1.428-1.4-1.428h-1.9c-.8 0-1.5.638-1.5 1.428"/><path fill="#f7f3ea" stroke-linecap="round" stroke-linejoin="round" stroke-width="2" d="M19304.1 545.619c13.4 0 24.3-10.895 24.3-24.333 0-13.439-10.9-24.333-24.3-24.333s-24.3 10.894-24.3 24.333 10.9 24.333 24.3 24.333"/><path fill="#f7f3ea" stroke-linecap="round" stroke-linejoin="round" stroke-width="2" d="M19295.4 545.958c13.5 0 24.4-10.894 24.4-24.332s-10.9-24.333-24.4-24.333c-13.4 0-24.3 10.894-24.3 24.333s10.9 24.332 24.3 24.332"/><path fill="#f7f3ea" stroke-linecap="round" stroke-linejoin="round" stroke-width="2" d="M19295.4 531.565c5.5 0 10-4.689 10-10.472 0-5.784-4.5-10.472-10-10.472s-10 4.688-10 10.472 4.5 10.472 10 10.472m-33.1 200.439h-56.6c-.9 0-1.7-.448-2.2-1.182l-4.4-6.845c-1.1-1.705.2-3.957 2.2-3.957h65.4c2 0 3.2 2.252 2.1 3.957l-4.4 6.845c-.5.734-1.3 1.182-2.1 1.182"/><path fill="#2a4385" stroke-linecap="round" stroke-linejoin="round" stroke-width="2" d="M19262.3 742.45h-56.6c-.9 0-1.7-.448-2.2-1.183l-4.4-6.845c-1.1-1.705.1-3.957 2.2-3.957h65.4c2 0 3.2 2.252 2.1 3.957l-4.4 6.845c-.5.735-1.3 1.183-2.2 1.183z"/><path fill="#f7f3ea" stroke-linecap="round" stroke-linejoin="round" stroke-width="2" d="M19262.3 751.36h-56.6c-.9 0-1.7-.448-2.2-1.182l-4.4-6.845c-1.1-1.705.1-3.958 2.2-3.958h65.4c2 0 3.2 2.253 2.1 3.958l-4.4 6.845c-.5.734-1.3 1.182-2.2 1.182z"/><path fill="#2a4385" stroke-linecap="round" stroke-linejoin="round" stroke-width="2" d="M19262.3 760.77h-56.6c-.9 0-1.7-.448-2.2-1.182l-4.4-6.845c-1.1-1.705.1-3.958 2.2-3.958h65.4c2 0 3.2 2.253 2.1 3.958l-4.4 6.845c-.5.734-1.3 1.182-2.2 1.182z"/><path fill="#f7f3ea" stroke-linecap="round" stroke-linejoin="round" stroke-width="2" d="M19262.3 770.7h-56.6c-.9 0-1.7-.448-2.2-1.183l-4.4-6.845c-1.1-1.705.1-3.957 2.2-3.957h65.4c2 0 3.2 2.252 2.1 3.957l-4.4 6.845c-.5.735-1.3 1.183-2.2 1.183zm84.7-38.696h-56.6c-.8 0-1.7-.448-2.1-1.182l-4.4-6.845c-1.1-1.705.1-3.957 2.1-3.957h65.4c2 0 3.2 2.252 2.2 3.957l-4.5 6.845c-.4.734-1.2 1.182-2.1 1.182"/><path fill="#2a4385" stroke-linecap="round" stroke-linejoin="round" stroke-width="2" d="M19347 742.45h-56.6c-.8 0-1.7-.448-2.1-1.183l-4.5-6.845c-1.1-1.705.2-3.957 2.2-3.957h65.4c2 0 3.2 2.252 2.1 3.957l-4.4 6.845c-.4.735-1.3 1.183-2.1 1.183"/><path fill="#f7f3ea" stroke-linecap="round" stroke-linejoin="round" stroke-width="2" d="M19347 751.36h-56.6c-.8 0-1.7-.448-2.1-1.182l-4.5-6.845c-1.1-1.705.2-3.958 2.2-3.958h65.4c2 0 3.2 2.253 2.1 3.958l-4.4 6.845c-.4.734-1.3 1.182-2.1 1.182"/><path fill="#2a4385" stroke-linecap="round" stroke-linejoin="round" stroke-width="2" d="M19347 760.77h-56.6c-.8 0-1.7-.448-2.1-1.182l-4.5-6.845c-1.1-1.705.2-3.958 2.2-3.958h65.4c2 0 3.2 2.253 2.1 3.958l-4.4 6.845c-.4.734-1.3 1.182-2.1 1.182"/><path fill="#f7f3ea" stroke-linecap="round" stroke-linejoin="round" stroke-width="2" d="M19347 770.7h-56.6c-.8 0-1.7-.448-2.1-1.183l-4.5-6.845c-1.1-1.705.2-3.957 2.2-3.957h65.4c2 0 3.2 2.252 2.1 3.957l-4.4 6.845c-.4.735-1.3 1.183-2.1 1.183m-305 20.757h-14.4c-.7 0-1.3.569-1.3 1.271v22.868c0 .702.6 1.271 1.3 1.271h14.4c.7 0 1.3-.569 1.3-1.271v-22.868c0-.702-.6-1.271-1.3-1.271m852.9 0h-14.4c-.7 0-1.3.569-1.3 1.271v22.868c0 .702.6 1.271 1.3 1.271h14.4c.7 0 1.3-.569 1.3-1.271v-22.868c0-.702-.6-1.271-1.3-1.271m-511 0h-14.4c-.7 0-1.3.569-1.3 1.271v22.868c0 .702.6 1.271 1.3 1.271h14.4c.7 0 1.3-.569 1.3-1.271v-22.868c0-.702-.6-1.271-1.3-1.271m-199.1-272.322v25.884c0 .791-.6 1.428-1.4 1.428h-122.2c-.8 0-1.4-.637-1.4-1.428v-25.884c0-.79-.7-1.428-1.4-1.428h-1.9c-.8 0-1.5.638-1.5 1.428v31.711c0 .79.7 1.428 1.5 1.428h131.7c.7 0 1.4-.638 1.4-1.428v-31.711c0-.79-.7-1.428-1.4-1.428h-1.9c-.8 0-1.5.638-1.5 1.428"/><path fill="#f7f3ea" stroke-miterlimit="10" stroke-width="2" d="M19088.5 514.755h-16c-.3 0-.5.188-.5.439l-3.1 30.743c0 .285.2.536.5.536h22.2c.2 0 .5-.251.4-.536l-3-30.743c-.1-.251-.3-.439-.5-.439Zm27.6 0h-16c-.3 0-.5.188-.5.439l-3.1 30.743c0 .285.2.536.5.536h22.2c.2 0 .5-.251.4-.536l-3-30.743c-.1-.251-.3-.439-.5-.439Zm26.6 0h-16c-.2 0-.4.188-.5.439l-3.1 30.743c0 .285.2.536.5.536h22.2c.3 0 .5-.251.5-.536l-3.1-30.743c0-.251-.2-.439-.5-.439Zm26.7 0h-16c-.3 0-.5.188-.5.439l-3.1 30.743c0 .285.2.536.5.536h22.2c.2 0 .5-.251.4-.536l-3-30.743c-.1-.251-.3-.439-.5-.439Zm-84.9 255.435h-16.1c-.2 0-.4-.188-.4-.438l-3.1-30.743c-.1-.286.2-.536.5-.536h22.1c.3 0 .5.25.5.536l-3.1 30.743c0 .25-.2.438-.4.438Zm28.5 0h-16c-.3 0-.5-.188-.5-.438l-3.1-30.743c0-.286.2-.536.5-.536h22.2c.3 0 .5.25.5.536l-3.1 30.743c0 .25-.2.438-.5.438Zm28.6 0h-16.1c-.2 0-.4-.188-.4-.438l-3.1-30.743c0-.286.2-.536.5-.536h22.1c.3 0 .6.25.5.536l-3.1 30.743c0 .25-.2.438-.4.438Zm29.5 0h-16c-.3 0-.5-.188-.5-.438l-3.1-30.743c0-.286.2-.536.5-.536h22.2c.2 0 .5.25.4.536l-3 30.743c-.1.25-.3.438-.5.438Z"/><path fill="#f7f3ea" stroke-linecap="round" stroke-linejoin="round" stroke-width="2" d="M19200.2 636.229v25.884c0 .79-.6 1.428-1.4 1.428h-122.2c-.8 0-1.4-.638-1.4-1.428v-25.884c0-.79-.7-1.428-1.5-1.428h-1.9c-.8 0-1.4.638-1.4 1.428v31.71c0 .79.6 1.428 1.4 1.428h131.7c.8 0 1.5-.638 1.5-1.428v-31.71c0-.79-.7-1.428-1.5-1.428h-1.9c-.8 0-1.4.638-1.4 1.428"/><path fill="#f7f3ea" stroke-linecap="round" stroke-linejoin="round" stroke-width="2" d="M19205.1 649.681v-2.447h-134.8v2.447z"/><path fill="#f7f3ea" stroke-linecap="round" stroke-linejoin="round" stroke-width="2" d="M19384.4 566.789h-192.3v105.67h192.3z"/><path fill="#2a4385" stroke-linecap="round" stroke-linejoin="round" stroke-width="2" d="M19205.4 640.346v-23.354c0-.386-.3-.699-.6-.699h-3.5c-.3 0-.6.313-.6.699v23.354c0 .386.3.699.6.699h3.5c.3 0 .6-.313.6-.699"/><path fill="#f7f3ea" stroke-linecap="round" stroke-linejoin="round" stroke-width="2" d="M19189.9 531.158v-2.447h-134.8v2.447zm193.9 34.678H19028c-.9 0-1.5.631-1.5 1.406v224.712c0 .775.6 1.406 1.5 1.406h355.8c.9 0 1.5-.631 1.5-1.406V567.242c0-.775-.6-1.406-1.5-1.406m-13.1 203.185c0 .765-.7 1.377-1.5 1.377h-326.6c-.8 0-1.5-.622-1.5-1.377V588.559c0-.765.7-1.377 1.5-1.377h326.6c.8 0 1.5.621 1.5 1.377z"/><path fill="#f7f3ea" stroke-linecap="round" stroke-linejoin="round" stroke-width="2" d="M19369.2 668.172h-327.5v9.52h327.5zm-2.3-135.585v-2.446h-134.8v2.446zm403 260.765h125.1c.8 0 1.4-.64 1.4-1.428v-72.437c0-.788-.6-1.428-1.4-1.428h-125.1c-.8 0-1.5.64-1.5 1.428v72.437c0 .788.7 1.428 1.5 1.428"/><path fill="#2a4385" stroke-linecap="round" stroke-linejoin="round" stroke-width="2" d="M19822 736.871h20.8c.8 0 1.5-.639 1.5-1.428v-1.885c0-.788-.7-1.428-1.5-1.428h-20.8c-.8 0-1.4.64-1.4 1.428v1.885c0 .789.6 1.428 1.4 1.428"/><path fill="#f7f3ea" stroke-linecap="round" stroke-linejoin="round" stroke-width="2" d="M19901.4 552.508h-875.1c-2 0-3.6 1.583-3.6 3.537v7.205c0 1.954 1.6 3.538 3.6 3.538h875.1c2 0 3.6-1.584 3.6-3.538v-7.205c0-1.954-1.6-3.537-3.6-3.537"/></g><defs><clipPath id="c"><path fill="#fff" d="M2131 722h82v125h-82z"/></clipPath><clipPath id="d"><path fill="#fff" d="M4214 733h82v125h-82z"/></clipPath><clipPath id="e"><path fill="#fff" d="M2263 725h82v125h-82z"/></clipPath><clipPath id="f"><path fill="#fff" d="M2199 695h82v125h-82z"/></clipPath><clipPath id="g"><path fill="#fff" d="M8385 518.223h563v295.985h-563z"/></clipPath><clipPath id="h"><path fill="#fff" d="m8903.95 481 95.714 7.409-7.95 102.693-95.713-7.41z"/></clipPath><clipPath id="i"><path fill="#fff" d="M4288 628h159v124h-159z"/></clipPath><clipPath id="j"><path fill="#fff" d="M4408 636h166v130h-166z"/></clipPath><clipPath id="k"><path fill="#fff" d="M22505 261h459v534h-459z"/></clipPath><clipPath id="l"><path fill="#fff" d="M13318 390h574v460h-574z"/></clipPath><clipPath id="m"><path fill="#fff" d="M19016 404h890v456h-890z"/></clipPath><clipPath id="n"><path fill="#fff" d="M838 712h82v125h-82z"/></clipPath><clipPath id="o"><path fill="#fff" d="M17347 79h87v135h-87z"/></clipPath><clipPath id="p"><path fill="#fff" d="M17855 79h87v135h-87z"/></clipPath></defs></svg>