<svg xmlns="http://www.w3.org/2000/svg" width="397" height="579" fill="none" viewBox="6480 175 397 579"><g stroke="#8c98b7" stroke-miterlimit="10" stroke-width="2" clip-path="url(#f)"><path fill="#f7f3ea" d="M6506.13 226.887h-19.95a2.505 2.505 0 0 0-2.51 2.505v518.432a2.505 2.505 0 0 0 2.51 2.505h19.95c1.39 0 2.51-1.122 2.51-2.505V229.392a2.505 2.505 0 0 0-2.51-2.505Zm294.43 0h-19.95a2.505 2.505 0 0 0-2.51 2.505v518.432a2.505 2.505 0 0 0 2.51 2.505h19.95c1.39 0 2.51-1.122 2.51-2.505V229.392a2.505 2.505 0 0 0-2.51-2.505Z"/><path fill="#f7f3ea" d="M6643.78 229.543h-135.14v520.269h135.14zm135.74 0h-135.14v520.269h135.14zm91.71 200.969h-43.36c-1.16 0-2.1.942-2.1 2.104v56.685c0 1.162.94 2.104 2.1 2.104h43.36c1.16 0 2.1-.942 2.1-2.104v-56.685c0-1.162-.94-2.104-2.1-2.104Z"/><path fill="#f7f3ea" d="M6849.55 480.936a6.9 6.9 0 0 0 6.9-6.898 6.9 6.9 0 0 0-6.9-6.897 6.9 6.9 0 0 0-6.9 6.897 6.9 6.9 0 0 0 6.9 6.898Zm0-25.055a6.9 6.9 0 0 0 6.9-6.897 6.9 6.9 0 0 0-6.9-6.898 6.9 6.9 0 0 0-6.9 6.898 6.9 6.9 0 0 0 6.9 6.897Zm-157.59-277.209h-99.33c-1.13 0-2.04.912-2.04 2.037v30.998c0 1.126.91 2.038 2.04 2.038h99.33c1.13 0 2.04-.912 2.04-2.038v-30.998c0-1.125-.91-2.037-2.04-2.037Z"/><path fill="#8c98b7" d="m6642.41 205.244-9.07-17.554a.774.774 0 0 1 .69-1.135h18.13c.59 0 .96.618.69 1.135l-9.07 17.554c-.28.551-1.09.551-1.37 0Z"/></g><defs><clipPath id="a"><path fill="#fff" d="M9122 151h380v286h-380z"/></clipPath><clipPath id="b"><path fill="#fff" d="M10945 323h286v34h-286z"/></clipPath><clipPath id="c"><path fill="#fff" d="M20300 85h706v174h-706z"/></clipPath><clipPath id="d"><path fill="#fff" d="M6301.59 335.141h86.415v80.52h-86.415z"/></clipPath><clipPath id="e"><path fill="#fff" d="m6287.39 326.02 83.868 20.832L6351.865 425l-83.869-20.833z"/></clipPath><clipPath id="f"><path fill="#fff" d="M6482 177h393v575h-393z"/></clipPath><clipPath id="g"><path fill="#fff" d="M18435 218h68v293h-68z"/></clipPath></defs></svg>