<svg xmlns="http://www.w3.org/2000/svg" width="107.262" height="102.98" fill="none" viewBox="6265.996 324.02 107.262 102.98"><g clip-path="url(#e)"><path fill="#8c98b7" stroke="#8c98b7" stroke-miterlimit="10" d="M6282 392.51c.21.353 1.17 2.128.6 4.378-.01.024-.02.043-.02.067-.57 2.139-2.8 3.378-4.94 2.847-1.07-.265-2.76-.601-3.86-.691-1.57-.133-2.91.451-3.71 1.168-.52.465-1.08 1.42-1.45 2.934 14.08 3.497 42.11 11.189 60.16 15.668 8.41 2.091 14.64 3.517 16.25 3.739l.37-1.559 1.54.382.25-1.029 1.03.254.25-1.03 1.09.271.32-1.257 1.18.294.38-1.546 1.64.407c-.16-.958-.67-2.692-1.17-3.974-.53-1.354-.92-1.889-1.46-2.726l-4.88-.786c.12.145.4 1.081-.18 3.101q-.045.171-.12.33c-.56 1.465-2.09 2.571-3.65 2.486-1.73-.098-3.7-.53-5.92-1.116-1.85-.491-3.66-.986-5.06-1.596-1.24-.54-1.94-2.13-1.68-3.46 0-.014 0-.029.01-.043.32-1.566 1.64-2.458 1.82-2.558l-10.14-2.772c.12.206.7 1.832.27 3.331l-.01.038c-.43 1.445-1.99 2.447-3.47 2.211-3.91-.629-8.11-1.803-12.46-2.904-4.49-1.141-8.71-2.033-12.54-3.295-2.01-.667-3.18-3.073-2.8-5.153.03-.115.05-.235.08-.358.61-2.342 2.61-3.297 2.87-3.418l-10.58-2.629z"/><path fill="#f7f3ea" stroke="#8c98b7" stroke-miterlimit="10" d="M6348.98 411.745c.05.001.11.006.18.004 1.35-.027 2.8-1.304 3.05-2.624.1-.572.2-1.146.31-1.719l.42-7.032-69.52-29.936-1.37 7.999-3.28 13.203a.87.87 0 0 0 .63 1.048l15.35 3.814a.867.867 0 0 0 1.05-.633l1.59-6.438c.89.562 2.22 1.427 3.8 2.554 4.14 2.964 6.1 5.001 8.46 6.898 3.33 2.669 7.57 4.5 11.37 6.222 5.03 2.284 12.21 4.455 27.32 6.616.27.037.49.016.64.018z"/><path fill="#f7f3ea" d="m6341.08 393.158.35-1.419a52 52 0 0 1-5.84-4.901 52.8 52.8 0 0 1-8.37-10.576 15 15 0 0 1-1.18-2.454c-1.28-3.417-2.03-6.101-2.57-8.401-1.26-5.328-1.75-5.419-.87-13.2.08-1.623 1.04-5.701.62-8.953-.13-.933-.27-1.784-.44-2.52a3.3 3.3 0 0 0-1.87-2.305c-1.54-.688-3.36-1.449-5.87-1.819-2.73-.406-4.83-.419-6.58-.3-3.6.245-7.89.734-10.84 1.336-1.85 7.196-3.03 11.502-5.05 14.798-3.46 5.633-6.49 7.838-8.57 13.55-1.71 4.702-2.95 12.176-2.33 12.406 8.01 2.961 14.15 5.948 17.93 8.55 6.13 4.217 8.06 7.032 14.59 11.189 5.91 3.759 11.46 5.657 15.25 6.679 3.83 1.046 8.02 2.016 12.53 2.826 2.96.526 5.8.935 8.5 1.255 1.36.159 2.7-.41 3.51-1.511a6.4 6.4 0 0 0 1.24-2.961c.11-.73.07-1.403-.03-1.993-.22-1.284-.94-2.433-1.95-3.24q-3.975-3.147-7.95-6.29a66.4 66.4 0 0 1-11.85-13.636 45.2 45.2 0 0 1-4.11-8.878c-1.27-3.788-1.75-6.836-1.89-7.991-.71-5.485-.53-8.407.09-11.677.25-1.61 2.08-7.431 1.12-11.256-.18-.72-.48-1.313-.8-1.836a3.95 3.95 0 0 0-2.75-1.841c-1.14-.182-2.48-.435-3.95-.17-1.35.243-3.63 1.013-4.54 1.3"/><path stroke="#8c98b7" stroke-miterlimit="10" d="m6341.08 393.158.35-1.419a52 52 0 0 1-5.84-4.901 52.8 52.8 0 0 1-8.37-10.576 15 15 0 0 1-1.18-2.454c-1.28-3.417-2.03-6.101-2.57-8.401-1.26-5.328-1.75-5.419-.87-13.2.08-1.623 1.04-5.701.62-8.953-.13-.933-.27-1.784-.44-2.52a3.3 3.3 0 0 0-1.87-2.305c-1.54-.688-3.36-1.449-5.87-1.819-2.73-.406-4.83-.419-6.58-.3-3.6.245-7.89.734-10.84 1.336-1.85 7.196-3.03 11.502-5.05 14.798-3.46 5.633-6.49 7.838-8.57 13.55-1.71 4.702-2.95 12.176-2.33 12.406 8.01 2.961 14.15 5.948 17.93 8.55 6.13 4.217 8.06 7.032 14.59 11.189 5.91 3.759 11.46 5.657 15.25 6.679 3.83 1.046 8.02 2.016 12.53 2.826 2.96.526 5.8.935 8.5 1.255 1.36.159 2.7-.41 3.51-1.511a6.4 6.4 0 0 0 1.24-2.961c.11-.73.07-1.403-.03-1.993-.22-1.284-.94-2.433-1.95-3.24q-3.975-3.147-7.95-6.29a66.4 66.4 0 0 1-11.85-13.636 45.2 45.2 0 0 1-4.11-8.878c-1.27-3.788-1.75-6.836-1.89-7.991-.71-5.485-.53-8.407.09-11.677.25-1.61 2.08-7.431 1.12-11.256-.18-.72-.48-1.313-.8-1.836a3.95 3.95 0 0 0-2.75-1.841c-1.14-.182-2.48-.435-3.95-.17-1.35.243-3.63 1.013-4.54 1.3"/><path fill="#8c98b7" stroke="#8c98b7" stroke-miterlimit="10" d="m6328.5 348.122-8.74-.565c-.36-.038-.62-.339-.59-.678l.04-.335c.03-.339.35-.583.71-.549l8.74.564c.35.038.61.34.58.679l-.03.334a.64.64 0 0 1-.71.55Zm-1.02 6.381-8.28.13c-.34-.009-.61-.322-.59-.692l.01-.37c.01-.375.29-.668.63-.658l8.28-.129c.34.008.61.321.6.691l-.01.37c-.02.375-.3.668-.64.658Zm-.06 6.247-7.59.803c-.31.019-.58-.265-.61-.634l-.02-.362c-.02-.368.22-.682.53-.701l7.59-.803c.31-.018.58.265.61.634l.02.362c.02.368-.22.683-.53.701Zm.8 6.14-7.55 1.168c-.3.034-.59-.218-.62-.559l-.04-.342c-.03-.341.19-.648.5-.683l7.54-1.167c.31-.034.59.217.63.559l.04.341c.03.341-.19.649-.5.683Zm2.03 5.868-7.33 2.154c-.3.075-.61-.143-.7-.487l-.08-.337c-.09-.344.09-.682.4-.758l7.33-2.153c.3-.075.61.143.7.486l.08.338c.08.344-.09.682-.4.757Zm2.5 5.237-6.03 2.697c-.25.099-.56-.082-.68-.41l-.13-.324c-.12-.323-.02-.665.23-.764l6.04-2.697c.25-.099.55.083.68.411l.12.323c.13.323.02.665-.23.764Zm3.3 4.601-4.99 3.156c-.21.119-.52-.038-.69-.342l-.17-.304c-.17-.309-.13-.653.08-.772l4.99-3.156c.21-.119.52.038.69.342l.17.304c.17.309.13.653-.08.772Zm4.05 5.18-4.93 3.123c-.21.114-.52-.043-.69-.352l-.17-.309c-.17-.309-.14-.654.07-.768l4.93-3.122c.21-.115.52.042.69.351l.17.309c.16.309.13.654-.07.768Zm3.77 3.738-3.87 3.467c-.16.136-.45.049-.64-.19l-.19-.238c-.19-.239-.21-.54-.04-.671l3.86-3.466c.17-.136.46-.049.65.19l.18.238c.19.238.21.539.05.67Z"/></g><defs><clipPath id="a"><path fill="#fff" d="M9122 151h380v286h-380z"/></clipPath><clipPath id="b"><path fill="#fff" d="M10945 323h286v34h-286z"/></clipPath><clipPath id="c"><path fill="#fff" d="M20300 85h706v174h-706z"/></clipPath><clipPath id="d"><path fill="#fff" d="M6301.59 335.141h86.415v80.52h-86.415z"/></clipPath><clipPath id="e"><path fill="#fff" d="m6287.39 326.02 83.868 20.832L6351.865 425l-83.869-20.833z"/></clipPath><clipPath id="f"><path fill="#fff" d="M6482 177h393v575h-393z"/></clipPath><clipPath id="g"><path fill="#fff" d="M18435 218h68v293h-68z"/></clipPath></defs></svg>