<svg xmlns="http://www.w3.org/2000/svg" width="90.415" height="84.52" fill="none" viewBox="6299.59 333.141 90.415 84.52"><g clip-path="url(#d)"><path fill="#8c98b7" stroke="#8c98b7" stroke-miterlimit="10" d="M6312.37 400.969c.28.293 1.64 1.784 1.63 4.106v.068c-.04 2.215-1.91 3.955-4.11 3.955-1.1 0-2.83.083-3.91.259-1.56.249-2.72 1.139-3.32 2.029-.4.577-.7 1.637-.7 3.197 14.5 0 43.56.709 62.16.704 8.67 0 15.06-.118 16.67-.289l-.02-1.603h1.59v-1.061h1.05v-1.061h1.13v-1.295h1.22v-1.594h1.69c-.39-.889-1.31-2.449-2.1-3.573-.84-1.188-1.34-1.613-2.08-2.293l-4.91.411c.15.112.64.953.56 3.055q0 .177-.03.347c-.2 1.56-1.41 3.002-2.95 3.295-1.7.323-3.71.376-6.01.342-1.91-.029-3.79-.073-5.3-.327-1.33-.225-2.4-1.599-2.46-2.953v-.044c-.07-1.598 1-2.781 1.15-2.923l-10.51-.245c.16.172 1.12 1.609 1.06 3.168v.039c-.06 1.506-1.34 2.855-2.83 2.982-3.95.332-8.3.205-12.79.186-4.64-.025-8.95.127-12.96-.176-2.12-.161-3.84-2.215-3.96-4.326-.01-.118-.01-.24-.01-.367.03-2.42 1.73-3.827 1.96-4.008h-10.91z"/><path fill="#f7f3ea" stroke="#8c98b7" stroke-miterlimit="10" d="M6382.01 403.492c.04-.01.1-.019.17-.039 1.31-.352 2.41-1.941 2.32-3.28-.03-.582-.07-1.163-.1-1.745l-1.29-6.927-74.68-12.294.59 8.095v13.604c0 .479.39.866.86.866h15.82a.86.86 0 0 0 .86-.866v-6.633c1 .332 2.5.85 4.3 1.564 4.74 1.877 7.12 3.383 9.88 4.654 3.87 1.789 8.43 2.542 12.53 3.299 5.43 1.003 12.92 1.379 28.11-.166.27-.029.48-.102.62-.137z"/><path fill="#f7f3ea" d="M6369.86 387.356v-1.462c-2.12-.85-4.44-1.94-6.85-3.348a52.5 52.5 0 0 1-10.67-8.247c-.64-.64-1.22-1.349-1.74-2.097-2.07-3.006-3.44-5.431-4.52-7.533-2.5-4.869-2.99-4.839-4.02-12.602-.32-1.594-.37-5.783-1.56-8.838a31 31 0 0 0-1.02-2.342 3.34 3.34 0 0 0-2.38-1.784c-1.65-.298-3.61-.596-6.13-.352-2.75.264-4.79.758-6.46 1.296-3.43 1.104-7.48 2.615-10.2 3.91-.07 7.431-.17 11.894-1.34 15.579-2 6.301-4.41 9.171-5.05 15.218-.53 4.976.07 12.529.72 12.602 8.49.943 15.17 2.361 19.47 3.974 6.97 2.615 9.51 4.884 16.85 7.342 6.64 2.225 12.49 2.728 16.41 2.806 3.97.093 8.27.025 12.85-.278 2.99-.201 5.84-.489 8.55-.831a3.81 3.81 0 0 0 3.04-2.313c.36-.85.61-1.93.49-3.172a6.3 6.3 0 0 0-.51-1.926 5.35 5.35 0 0 0-2.68-2.674 7510 7510 0 0 0-9.22-4.189 67 67 0 0 1-8.81-5.436 66 66 0 0 1-5.98-4.942 45.3 45.3 0 0 1-6.13-7.626c-2.15-3.368-3.34-6.213-3.76-7.298-2.01-5.153-2.54-8.032-2.72-11.356-.15-1.623.23-7.714-1.62-11.194-.35-.655-.79-1.159-1.23-1.589a3.95 3.95 0 0 0-3.11-1.124c-1.15.098-2.51.176-3.87.787-1.25.562-3.28 1.857-4.09 2.356"/><path stroke="#8c98b7" stroke-miterlimit="10" d="M6369.86 387.356v-1.462c-2.12-.85-4.44-1.94-6.85-3.348a52.5 52.5 0 0 1-10.67-8.247c-.64-.64-1.22-1.349-1.74-2.097-2.07-3.006-3.44-5.431-4.52-7.533-2.5-4.869-2.99-4.839-4.02-12.602-.32-1.594-.37-5.783-1.56-8.838a31 31 0 0 0-1.02-2.342 3.34 3.34 0 0 0-2.38-1.784c-1.65-.298-3.61-.596-6.13-.352-2.75.264-4.79.758-6.46 1.296-3.43 1.104-7.48 2.615-10.2 3.91-.07 7.431-.17 11.894-1.34 15.579-2 6.301-4.41 9.171-5.05 15.218-.53 4.976.07 12.529.72 12.602 8.49.943 15.17 2.361 19.47 3.974 6.97 2.615 9.51 4.884 16.85 7.342 6.64 2.225 12.49 2.728 16.41 2.806 3.97.093 8.27.025 12.85-.278 2.99-.201 5.84-.489 8.55-.831a3.81 3.81 0 0 0 3.04-2.313c.36-.85.61-1.93.49-3.172a6.3 6.3 0 0 0-.51-1.926 5.35 5.35 0 0 0-2.68-2.674 7510 7510 0 0 0-9.22-4.189 67 67 0 0 1-8.81-5.436 66 66 0 0 1-5.98-4.942 45.3 45.3 0 0 1-6.13-7.626c-2.15-3.368-3.34-6.213-3.76-7.298-2.01-5.153-2.54-8.032-2.72-11.356-.15-1.623.23-7.714-1.62-11.194-.35-.655-.79-1.159-1.23-1.589a3.95 3.95 0 0 0-3.11-1.124c-1.15.098-2.51.176-3.87.787-1.25.562-3.28 1.857-4.09 2.356"/><path fill="#8c98b7" stroke="#8c98b7" stroke-miterlimit="10" d="m6346.8 346.678-8.62 1.56c-.35.048-.68-.181-.73-.519l-.04-.332c-.05-.337.19-.65.55-.704l8.62-1.559c.35-.049.68.181.73.518l.05.332c.04.338-.2.65-.56.704Zm.55 6.439-8 2.121c-.33.074-.67-.166-.75-.528l-.08-.361c-.07-.367.13-.719.46-.792l8.01-2.122c.33-.073.66.166.74.528l.08.362c.08.366-.12.718-.46.792Zm1.45 6.079-7.18 2.61c-.29.093-.63-.117-.74-.469l-.1-.347c-.11-.352.04-.714.34-.807l7.17-2.61c.3-.093.63.117.74.469l.11.347c.11.352-.04.714-.34.807Zm2.25 5.765-7.04 2.953c-.29.107-.63-.069-.74-.391l-.12-.323c-.12-.323.02-.675.32-.782l7.04-2.953c.29-.107.63.069.74.391l.12.323c.12.323-.03.674-.32.782Zm3.39 5.208-6.6 3.857c-.28.146-.63.01-.8-.303l-.16-.308c-.16-.313-.07-.685.21-.831l6.59-3.857c.28-.147.63-.01.8.303l.16.308c.17.313.07.684-.2.831Zm3.68 4.477-5.2 4.072c-.22.156-.56.054-.76-.235l-.2-.283c-.2-.284-.18-.641.04-.797l5.2-4.072c.22-.157.56-.054.76.234l.2.284c.2.283.18.64-.04.797Zm4.32 3.672-4.09 4.268c-.18.166-.51.088-.75-.166l-.24-.254c-.24-.259-.29-.602-.11-.768l4.09-4.267c.17-.167.51-.088.75.166l.24.254c.23.259.28.601.11.767Zm5.17 4.053-4.03 4.219c-.18.161-.51.083-.75-.176l-.24-.259c-.24-.259-.29-.601-.12-.763l4.03-4.218c.18-.162.51-.083.75.176l.24.259c.24.259.29.601.12.762Zm4.56 2.717-2.92 4.297c-.13.171-.43.157-.67-.029l-.24-.186c-.24-.186-.33-.474-.2-.64l2.92-4.297c.12-.171.42-.156.67.029l.23.186c.25.186.34.474.21.64Z"/></g><defs><clipPath id="a"><path fill="#fff" d="M9122 151h380v286h-380z"/></clipPath><clipPath id="b"><path fill="#fff" d="M10945 323h286v34h-286z"/></clipPath><clipPath id="c"><path fill="#fff" d="M20300 85h706v174h-706z"/></clipPath><clipPath id="d"><path fill="#fff" d="M6301.59 335.141h86.415v80.52h-86.415z"/></clipPath><clipPath id="e"><path fill="#fff" d="m6287.39 326.02 83.868 20.832L6351.865 425l-83.869-20.833z"/></clipPath><clipPath id="f"><path fill="#fff" d="M6482 177h393v575h-393z"/></clipPath><clipPath id="g"><path fill="#fff" d="M18435 218h68v293h-68z"/></clipPath></defs></svg>