<svg width="380" height="336" viewBox="16600 596 380 336" fill="none" xmlns="http://www.w3.org/2000/svg">
<path fill="#f7f3ea" stroke="#2a4385" stroke-miterlimit="10" stroke-width="2" d="M16912.6 629.773H16800c-1.4 0-2.6 1.172-2.6 2.617v1.152c0 1.445 1.2 2.617 2.6 2.617h112.6c1.4 0 2.5-1.172 2.5-2.617v-1.152c0-1.445-1.1-2.617-2.5-2.617Zm-105.7 6.387 6.6 11.445h87.8l4.7-11.445z"/>
<path fill="#f7f3ea" stroke="#2a4385" stroke-miterlimit="10" stroke-width="2" d="M16912.6 640.238H16800c-1.4 0-2.6 1.172-2.6 2.617v1.152c0 1.445 1.2 2.617 2.6 2.617h112.6c1.4 0 2.5-1.172 2.5-2.617v-1.152c0-1.445-1.1-2.617-2.5-2.617Zm-105.7 6.391 6.6 11.445h87.8l4.7-11.445z"/>
<path fill="#f7f3ea" stroke="#2a4385" stroke-miterlimit="10" stroke-width="2" d="M16910.9 654.207h-112.6c-1.4 0-2.6 1.172-2.6 2.617v1.151c0 1.446 1.2 2.617 2.6 2.617h112.6c1.4 0 2.5-1.171 2.5-2.617v-1.151c0-1.445-1.1-2.617-2.5-2.617Zm-105.7 6.387 6.6 11.445h87.8l4.7-11.445z"/>
<path fill="#f7f3ea" stroke="#2a4385" stroke-miterlimit="10" stroke-width="2" d="M16911.1 665.996h-112.6c-1.4 0-2.5 1.172-2.5 2.617v1.152c0 1.445 1.1 2.617 2.5 2.617h112.6c1.4 0 2.6-1.172 2.6-2.617v-1.152c0-1.445-1.2-2.617-2.6-2.617Zm-105.7 6.387 6.7 11.445h87.8l4.6-11.445z"/>
<path fill="#2a4385" stroke="#2a4385" stroke-miterlimit="10" stroke-width="2" d="M16925.1 683.43h-317.7c-1.5 0-2.6 1.171-2.6 2.617v16.748c0 1.446 1.1 2.617 2.6 2.617h317.7c1.4 0 2.6-1.171 2.6-2.617v-16.748c0-1.446-1.2-2.617-2.6-2.617Z"/>
<path fill="#f7f3ea" stroke="#2a4385" stroke-miterlimit="10" stroke-width="2" d="M16776.3 644.031h-112.6c-1.4 0-2.6 1.172-2.6 2.617v1.152c0 1.445 1.2 2.617 2.6 2.617h112.6c1.4 0 2.5-1.172 2.5-2.617v-1.152c0-1.445-1.1-2.617-2.5-2.617Zm-105.7 6.387 6.6 11.445h87.9l4.6-11.445z"/>
<path fill="#f7f3ea" stroke="#2a4385" stroke-miterlimit="10" stroke-width="2" d="M16776.3 654.504h-112.6c-1.4 0-2.6 1.172-2.6 2.617v1.151c0 1.446 1.2 2.617 2.6 2.617h112.6c1.4 0 2.5-1.171 2.5-2.617v-1.151c0-1.445-1.1-2.617-2.5-2.617Zm-105.7 6.387 6.6 11.444h87.9l4.6-11.444z"/>
<path fill="#f7f3ea" stroke="#2a4385" stroke-miterlimit="10" stroke-width="2" d="M16776.6 665.617h-112.5c-1.4 0-2.6 1.172-2.6 2.617v1.152c0 1.445 1.2 2.617 2.6 2.617h112.5c1.5 0 2.6-1.172 2.6-2.617v-1.152c0-1.445-1.1-2.617-2.6-2.617Zm-105.6 6.387 6.6 11.427h87.8l4.7-11.427zm449.6-5.848h-112.5c-1.4 0-2.6 1.172-2.6 2.617v1.152c0 1.445 1.2 2.617 2.6 2.617h112.5c1.5 0 2.6-1.172 2.6-2.617v-1.152c0-1.445-1.1-2.617-2.6-2.617Zm-105.6 6.387 6.6 11.427h87.8l4.7-11.427zm226.7-6.387h-112.6c-1.4 0-2.6 1.172-2.6 2.617v1.152c0 1.445 1.2 2.617 2.6 2.617h112.6c1.4 0 2.5-1.172 2.5-2.617v-1.152c0-1.445-1.1-2.617-2.5-2.617Zm-105.7 6.387 6.6 11.427h87.9l4.6-11.427zm-4.5 169.676h-112.6c-1.4 0-2.5 1.171-2.5 2.617v1.151c0 1.446 1.1 2.617 2.5 2.617h112.6c1.4 0 2.5-1.171 2.5-2.617v-1.151c0-1.446-1.1-2.617-2.5-2.617Zm-105.7 6.39 6.6 11.428h87.9l4.6-11.428zm226.7-6.39h-112.6c-1.4 0-2.5 1.171-2.5 2.617v1.151c0 1.446 1.1 2.617 2.5 2.617h112.6c1.4 0 2.6-1.171 2.6-2.617v-1.151c0-1.446-1.2-2.617-2.6-2.617Zm-105.7 6.39 6.7 11.428h87.8l4.6-11.428zm-249.3-251.07h-84.5c-1.3 0-2.3 1.082-2.3 2.416 0 1.335 1 2.417 2.3 2.417h84.5c1.3 0 2.4-1.082 2.4-2.417s-1.1-2.416-2.4-2.416Zm-79.7 4.836 5.1 8.671h66.6l3.5-8.671z"/>
<path fill="#f7f3ea" stroke="#2a4385" stroke-miterlimit="10" stroke-width="2" d="M16897.5 605.477h-84.5c-1.3 0-2.3 1.081-2.3 2.416s1 2.416 2.3 2.416h84.5c1.3 0 2.4-1.082 2.4-2.416 0-1.335-1.1-2.416-2.4-2.416Zm-79.7 4.835 5.1 8.671h66.6l3.5-8.671z"/>
<path fill="#f7f3ea" stroke="#2a4385" stroke-miterlimit="10" stroke-width="2" d="M16896.3 616.047h-84.5c-1.3 0-2.4 1.082-2.4 2.416 0 1.335 1.1 2.417 2.4 2.417h84.5c1.3 0 2.3-1.082 2.3-2.417s-1-2.416-2.3-2.416Zm-79.7 4.851 5 8.654h66.6l3.5-8.654z"/>
<path fill="#2a4385" stroke="#2a4385" stroke-miterlimit="10" stroke-width="2" d="m16798.9 812.061 54.4-11.675c.9-.197 1.8.407 2 1.352l1.4 7.053c3 14.426-6.1 28.595-20.1 31.609l-6.1 1.303c-14.5 3.106-28.7-6.451-31.7-21.332l-1.3-6.244c-.1-.946.4-1.868 1.4-2.066Z"/>
<path fill="#f7f3ea" stroke="#2a4385" stroke-miterlimit="10" stroke-width="2" d="M16800.5 822.156h55.3c1 0 1.7.79 1.7 1.768v7.297c0 14.922-11.6 27.051-25.9 27.051h-6.1c-14.7 0-26.7-12.494-26.7-27.888v-6.46c0-.978.8-1.768 1.7-1.768Zm-20.7-3.269h-112.5c-1.5 0-2.6 1.171-2.6 2.617v1.151c0 1.446 1.1 2.617 2.6 2.617h112.5c1.4 0 2.6-1.171 2.6-2.617v-1.151c0-1.446-1.2-2.617-2.6-2.617Zm-105.7 6.386 6.7 11.445h87.8l4.7-11.445z"/>
<path fill="#f7f3ea" stroke="#2a4385" stroke-miterlimit="10" stroke-width="2" d="M16779.8 829.355h-112.5c-1.5 0-2.6 1.172-2.6 2.617v1.152c0 1.445 1.1 2.617 2.6 2.617h112.5c1.4 0 2.6-1.172 2.6-2.617v-1.152c0-1.445-1.2-2.617-2.6-2.617Zm-105.7 6.391 6.7 11.445h87.8l4.7-11.445z"/>
<path fill="#f7f3ea" stroke="#2a4385" stroke-miterlimit="10" stroke-width="2" d="M16780.2 840.469h-112.6c-1.4 0-2.5 1.171-2.5 2.617v1.151c0 1.446 1.1 2.617 2.5 2.617h112.6c1.4 0 2.6-1.171 2.6-2.617v-1.151c0-1.446-1.2-2.617-2.6-2.617Zm-105.7 6.386 6.7 11.428h87.8l4.6-11.428zm256.3 12.258h-323.4c-1.5 0-2.6 1.172-2.6 2.617v16.749c0 1.445 1.1 2.617 2.6 2.617h323.4c1.4 0 2.5-1.172 2.5-2.617V861.73c0-1.445-1.1-2.617-2.5-2.617Z"/>
<path fill="#f7f3ea" stroke="#2a4385" stroke-miterlimit="10" stroke-width="2" d="M16639.5 705.395h-11.7c-1.4 0-2.5 1.171-2.5 2.617v193.132c0 1.445 1.1 2.617 2.5 2.617h11.7c1.4 0 2.6-1.172 2.6-2.617V708.012c0-1.446-1.2-2.617-2.6-2.617Zm263.1 0h-11.7c-1.4 0-2.6 1.171-2.6 2.616v194.912c0 1.446 1.2 2.617 2.6 2.617h11.7c1.4 0 2.5-1.171 2.5-2.617V708.011c0-1.445-1.1-2.616-2.5-2.616Z"/>
<path fill="#f7f3ea" stroke="#2a4385" stroke-miterlimit="10" stroke-width="2" d="M16896.5 928.162c6.9 0 12.5-5.733 12.5-12.806s-5.6-12.805-12.5-12.805-12.5 5.733-12.5 12.805c0 7.073 5.6 12.806 12.5 12.806Zm-262.8.227c6.9 0 12.4-5.734 12.4-12.806s-5.5-12.806-12.4-12.806-12.5 5.734-12.5 12.806 5.6 12.806 12.5 12.806Z"/>
<path fill="#2a4385" stroke="#2a4385" stroke-miterlimit="10" stroke-width="2" d="M16896.5 922.817c4 0 7.3-3.343 7.3-7.467s-3.3-7.467-7.3-7.467-7.3 3.343-7.3 7.467 3.3 7.467 7.3 7.467Zm-262.8.234c4 0 7.2-3.343 7.2-7.467s-3.2-7.467-7.2-7.467-7.3 3.343-7.3 7.467 3.3 7.467 7.3 7.467Zm671.4-238.84h-317.8c-1.4 0-2.6 1.172-2.6 2.617v16.749c0 1.445 1.2 2.616 2.6 2.616h317.8c1.4 0 2.5-1.171 2.5-2.616v-16.749c0-1.445-1.1-2.617-2.5-2.617Z"/>
<path fill="#f7f3ea" stroke="#2a4385" stroke-miterlimit="10" stroke-width="2" d="M17310.7 859.895h-323.4c-1.4 0-2.6 1.171-2.6 2.617v16.748c0 1.445 1.2 2.617 2.6 2.617h323.4c1.4 0 2.6-1.172 2.6-2.617v-16.748c0-1.446-1.2-2.617-2.6-2.617Z"/>
<path fill="#f7f3ea" stroke="#2a4385" stroke-miterlimit="10" stroke-width="2" d="M17019.5 706.176h-11.7c-1.4 0-2.6 1.171-2.6 2.617v193.132c0 1.445 1.2 2.617 2.6 2.617h11.7c1.4 0 2.5-1.172 2.5-2.617V708.793c0-1.446-1.1-2.617-2.5-2.617Zm263 0h-11.7c-1.4 0-2.5 1.171-2.5 2.617v194.912c0 1.445 1.1 2.617 2.5 2.617h11.7c1.4 0 2.6-1.172 2.6-2.617V708.793c0-1.446-1.2-2.617-2.6-2.617Z"/>
<path fill="#f7f3ea" stroke="#2a4385" stroke-miterlimit="10" stroke-width="2" d="M17276.4 928.94c6.9 0 12.5-5.734 12.5-12.806 0-7.073-5.6-12.806-12.5-12.806-6.8 0-12.4 5.733-12.4 12.806s5.6 12.806 12.4 12.806Zm-262.8-1.918c6.9 0 12.5-5.734 12.5-12.806s-5.6-12.806-12.5-12.806-12.4 5.734-12.4 12.806 5.5 12.806 12.4 12.806Z"/>
<path fill="#2a4385" stroke="#2a4385" stroke-miterlimit="10" stroke-width="2" d="M17276.4 923.602c4 0 7.3-3.343 7.3-7.467s-3.3-7.467-7.3-7.467-7.2 3.343-7.2 7.467 3.2 7.467 7.2 7.467Zm-262.8-1.918c4 0 7.3-3.343 7.3-7.467s-3.3-7.467-7.3-7.467-7.3 3.343-7.3 7.467 3.3 7.467 7.3 7.467Z"/>
<defs><clipPath id="a"><path fill="#fff" d="M4305.06 448.156h38.018v96.462h-38.018z"/></clipPath><clipPath id="b"><path fill="#fff" d="M4255.35 480.309h36.556v51.154h-36.556z"/></clipPath><clipPath id="c"><path fill="#fff" d="M32 535h108v114H32z"/></clipPath><clipPath id="d"><path fill="#fff" d="M122 535h108v114H122z"/></clipPath><clipPath id="e"><path fill="#fff" d="M206 535h108v114H206z"/></clipPath><clipPath id="f"><path fill="#fff" d="M290 535h108v114H290z"/></clipPath><clipPath id="g"><path fill="#fff" d="M374 535h108v114H374z"/></clipPath><clipPath id="h"><path fill="#fff" d="M458 535h108v114H458z"/></clipPath><clipPath id="i"><path fill="#fff" d="M542 535h108v114H542z"/></clipPath><clipPath id="j"><path fill="#fff" d="M626 535h108v114H626z"/></clipPath><clipPath id="k"><path fill="#fff" d="M22250 238h590v686h-590z"/></clipPath></defs>
</svg>
