<svg xmlns="http://www.w3.org/2000/svg" width="463" height="538" fill="none" viewBox="22503 259 463 538"><g stroke="#2a4385" stroke-miterlimit="10" stroke-width="2" clip-path="url(#k)"><path fill="#f7f3ea" stroke-linecap="round" d="M22699.8 262.742h-182.6c-1.6 0-2.8 1.237-2.8 2.764v1.701c0 1.527 1.2 2.764 2.8 2.764h182.6c1.6 0 2.8-1.237 2.8-2.764v-1.701c0-1.527-1.2-2.764-2.8-2.764Zm0 467.254h-182.6c-1.6 0-2.8 1.237-2.8 2.764v1.701c0 1.527 1.2 2.764 2.8 2.764h182.6c1.6 0 2.8-1.237 2.8-2.764v-1.701c0-1.527-1.2-2.764-2.8-2.764Z"/><path fill="#f7f3ea" d="M22530.1 330.223h157.1v1.021c0 2.763-2.2 5.009-5 5.009h-147.1c-2.7 0-5-2.246-5-5.009z"/><path fill="#2a4385" d="M22687.8 328.941h-158.4c-.1 0-.3.153-.3.341s.2.34.3.34h158.4c.2 0 .3-.152.3-.34s-.1-.341-.3-.341Z"/><path fill="#f7f3ea" d="M22530.1 371.391h157.1v1.021c0 2.763-2.2 5.009-5 5.009h-147.1c-2.7 0-5-2.246-5-5.009z"/><path fill="#2a4385" d="M22687.8 370.125h-158.4c-.1 0-.3.152-.3.34s.2.341.3.341h158.4c.2 0 .3-.153.3-.341s-.1-.34-.3-.34Z"/><path fill="#f7f3ea" d="M22530.1 412.75h157.1v1.021c0 2.764-2.2 5.01-5 5.01h-147.1c-2.7 0-5-2.246-5-5.01z"/><path fill="#2a4385" d="M22687.8 411.469h-158.4c-.1 0-.3.152-.3.34s.2.34.3.34h158.4c.2 0 .3-.152.3-.34s-.1-.34-.3-.34Z"/><path fill="#f7f3ea" d="M22530.1 495.328h157.1v1.021c0 2.764-2.2 5.01-5 5.01h-147.1c-2.7 0-5-2.246-5-5.01z"/><path fill="#2a4385" d="M22687.8 494.047h-158.4c-.1 0-.3.152-.3.34s.2.341.3.341h158.4c.2 0 .3-.153.3-.341s-.1-.34-.3-.34Z"/><path fill="#f7f3ea" d="M22530.1 535.883h157.1v1.021c0 2.763-2.2 5.01-5 5.01h-147.1c-2.7 0-5-2.247-5-5.01z"/><path fill="#2a4385" d="M22687.8 534.602h-158.4c-.1 0-.3.152-.3.34s.2.34.3.34h158.4c.2 0 .3-.152.3-.34s-.1-.34-.3-.34Z"/><path fill="#f7f3ea" d="M22530.1 618.965h157.1v1.021c0 2.763-2.2 5.01-5 5.01h-147.1c-2.7 0-5-2.247-5-5.01z"/><path fill="#2a4385" d="M22687.8 617.684h-158.4c-.1 0-.3.152-.3.34s.2.34.3.34h158.4c.2 0 .3-.152.3-.34s-.1-.34-.3-.34Z"/><path fill="#f7f3ea" d="M22530.1 577.785h157.1v1.021c0 2.764-2.2 5.01-5 5.01h-147.1c-2.7 0-5-2.246-5-5.01z"/><path fill="#2a4385" d="M22687.8 576.504h-158.4c-.1 0-.3.152-.3.34s.2.341.3.341h158.4c.2 0 .3-.153.3-.341s-.1-.34-.3-.34Z"/><path fill="#2a4385" stroke-linecap="round" d="M22535.2 296.596h-14.5l-.4-2.151 14.9 1.92zm0 41.25h-14.5l-.4-2.151 14.9 1.933zm0 41.262h-14.5l-.4-2.151 14.9 1.92zm0 41.262h-14.5l-.4-2.151 14.9 1.919zm0 41.25h-14.5l-.4-2.151 14.9 1.933zm0 41.261h-14.5l-.4-2.151 14.9 1.92zm0 41.246h-14.5l-.4-2.15 14.9 1.933zm0 41.266h-14.5l-.4-2.151 14.9 1.92zm0 41.262h-14.5l-.4-2.151 14.9 1.919zm0 41.246h-14.5l-.4-2.151 14.9 1.933zm0 41.262h-14.5l-.4-2.151 14.9 1.919z"/><path fill="#f7f3ea" d="M22517.9 262.02c-2.3 0-4.2 2.423-4.2 4.723v483.29h8.5v-483.29c0-2.3-1.9-4.723-4.3-4.723Z"/><path fill="#f7f3ea" d="M22525.7 748.754h-15.6c-.7 0-1.3.615-1.3 1.375v.408c0 .76.6 1.375 1.3 1.375h15.6c.8 0 1.4-.615 1.4-1.375v-.408c0-.76-.6-1.375-1.4-1.375Zm-.3 3.906h-14.9a4.49 4.49 0 0 0-4.5 4.493v14.906c3 0 5.3-2.219 5.1-4.833l-.3-3.661c-.2-3.649 3-6.712 7.1-6.712 4.2 0 7.4 3.063 7.2 6.712l-.3 3.661c-.3 2.601 2.1 4.833 5.1 4.833v-14.906c0-2.478-2.1-4.493-4.5-4.493Z"/><path fill="#2a4385" d="M22522.6 765.908c0-2.549-2.1-4.615-4.7-4.615-2.5 0-4.6 2.066-4.6 4.615v23.456c0 2.549 2.1 4.615 4.6 4.615 2.6 0 4.7-2.066 4.7-4.615z"/><path fill="#2a4385" stroke-linecap="round" d="M22681.8 296.596h14.4l.4-2.151-14.8 1.92zm0 41.25h14.4l.4-2.151-14.8 1.933zm0 41.262h14.4l.4-2.151-14.8 1.92zm0 41.262h14.4l.4-2.151-14.8 1.919zm0 41.25h14.4l.4-2.151-14.8 1.933zm0 41.261h14.4l.4-2.151-14.8 1.92zm0 41.246h14.4l.4-2.15-14.8 1.933zm0 41.266h14.4l.4-2.151-14.8 1.92zm0 41.262h14.4l.4-2.151-14.8 1.919zm0 41.246h14.4l.4-2.151-14.8 1.933zm0 41.262h14.4l.4-2.151-14.8 1.919z"/><path fill="#f7f3ea" d="M22699 262.02c2.4 0 4.3 2.423 4.3 4.723v483.29h-8.5v-483.29c0-2.3 1.9-4.723 4.3-4.723z"/><path fill="#f7f3ea" d="M22691.2 751.91h15.6c.8 0 1.4-.615 1.4-1.375v-.408c0-.76-.6-1.375-1.4-1.375h-15.6c-.7 0-1.3.615-1.3 1.375v.408c0 .76.6 1.375 1.3 1.375Zm.4.75h14.9c2.4 0 4.5 2.015 4.5 4.493v14.906c-3 0-5.4-2.219-5.1-4.833l.3-3.661c.2-3.649-3-6.712-7.2-6.712-4.1 0-7.3 3.063-7.1 6.712l.3 3.661c.2 2.601-2.1 4.833-5.1 4.833v-14.906c0-2.478 2-4.493 4.5-4.493Z"/><path fill="#2a4385" d="M22694.4 789.362c0 2.548 2.1 4.615 4.6 4.615 2.6 0 4.6-2.067 4.6-4.615v-23.456c0-2.549-2-4.615-4.6-4.615-2.5 0-4.6 2.066-4.6 4.615z"/><path fill="#f7f3ea" stroke-linecap="round" d="M22945.2 262.742h-182.6c-1.5 0-2.8 1.237-2.8 2.764v1.701c0 1.527 1.3 2.764 2.8 2.764h182.6c1.6 0 2.8-1.237 2.8-2.764v-1.701c0-1.527-1.2-2.764-2.8-2.764Zm0 467.254h-182.6c-1.5 0-2.8 1.237-2.8 2.764v1.701c0 1.527 1.3 2.764 2.8 2.764h182.6c1.6 0 2.8-1.237 2.8-2.764v-1.701c0-1.527-1.2-2.764-2.8-2.764Z"/><path fill="#f7f3ea" d="M22775.5 330.227h157.1v1.021c0 2.763-2.2 5.009-5 5.009h-147.1c-2.7 0-5-2.246-5-5.009z"/><path fill="#2a4385" d="M22933.2 328.945h-158.3c-.2 0-.4.153-.4.341s.2.34.4.34h158.3c.2 0 .3-.152.3-.34s-.1-.341-.3-.341Z"/><path fill="#f7f3ea" d="M22775.5 371.391h157.1v1.021c0 2.763-2.2 5.009-5 5.009h-147.1c-2.7 0-5-2.246-5-5.009z"/><path fill="#2a4385" d="M22933.2 370.125h-158.3c-.2 0-.4.152-.4.34s.2.341.4.341h158.3c.2 0 .3-.153.3-.341s-.1-.34-.3-.34Z"/><path fill="#f7f3ea" d="M22775.5 412.75h157.1v1.021c0 2.764-2.2 5.01-5 5.01h-147.1c-2.7 0-5-2.246-5-5.01z"/><path fill="#2a4385" d="M22933.2 411.469h-158.3c-.2 0-.4.152-.4.34s.2.34.4.34h158.3c.2 0 .3-.152.3-.34s-.1-.34-.3-.34Z"/><path fill="#f7f3ea" d="M22775.5 495.328h157.1v1.021c0 2.764-2.2 5.01-5 5.01h-147.1c-2.7 0-5-2.246-5-5.01z"/><path fill="#2a4385" d="M22933.2 494.047h-158.3c-.2 0-.4.152-.4.34s.2.341.4.341h158.3c.2 0 .3-.153.3-.341s-.1-.34-.3-.34Z"/><path fill="#f7f3ea" d="M22775.5 535.883h157.1v1.021c0 2.763-2.2 5.01-5 5.01h-147.1c-2.7 0-5-2.247-5-5.01z"/><path fill="#2a4385" d="M22933.2 534.602h-158.3c-.2 0-.4.152-.4.34s.2.34.4.34h158.3c.2 0 .3-.152.3-.34s-.1-.34-.3-.34Z"/><path fill="#f7f3ea" d="M22775.5 618.965h157.1v1.021c0 2.763-2.2 5.01-5 5.01h-147.1c-2.7 0-5-2.247-5-5.01z"/><path fill="#2a4385" d="M22933.2 617.684h-158.3c-.2 0-.4.152-.4.34s.2.34.4.34h158.3c.2 0 .3-.152.3-.34s-.1-.34-.3-.34Z"/><path fill="#f7f3ea" d="M22775.5 577.785h157.1v1.021c0 2.764-2.2 5.01-5 5.01h-147.1c-2.7 0-5-2.246-5-5.01z"/><path fill="#2a4385" d="M22933.2 576.504h-158.3c-.2 0-.4.152-.4.34s.2.341.4.341h158.3c.2 0 .3-.153.3-.341s-.1-.34-.3-.34Zm11.2 217.325c10.3 0 18.6-8.283 18.6-18.5s-8.3-18.501-18.6-18.501c-10.2 0-18.5 8.283-18.5 18.501 0 10.217 8.3 18.5 18.5 18.5Z"/><path fill="#2a4385" stroke-linecap="round" d="M22927.2 296.803h14.4l.4-2.151-14.8 1.933zm0 41.262h14.4l.4-2.151-14.8 1.92zm0 41.262h14.4l.4-2.151-14.8 1.919zm0 41.25h14.4l.4-2.151-14.8 1.933zm0 41.261h14.4l.4-2.15-14.8 1.919zm0 41.25h14.4l.4-2.15-14.8 1.933zm0 41.262h14.4l.4-2.151-14.8 1.92zm0 41.262h14.4l.4-2.151-14.8 1.919zm0 41.25h14.4l.4-2.151-14.8 1.933zm0 41.262h14.4l.4-2.151-14.8 1.919zm0 41.246h14.4l.4-2.151-14.8 1.933z"/><path fill="#f7f3ea" d="M22944.4 262.24c2.4 0 4.3 2.423 4.3 4.724v483.29h-8.5V266.95c0-2.3 1.9-4.723 4.2-4.723z"/><path fill="#f7f3ea" d="M22936.6 752.117h15.6c.8 0 1.4-.615 1.4-1.375v-.408c0-.76-.6-1.375-1.4-1.375h-15.6c-.7 0-1.3.615-1.3 1.375v.408c0 .76.6 1.375 1.3 1.375Zm7.8 34.241c6.1 0 11.1-4.936 11.1-11.026s-5-11.027-11.1-11.027c-6 0-11 4.937-11 11.027s5 11.026 11 11.026Z"/><path fill="#f7f3ea" d="M22946.1 779.508h-3.5c-2.9 0-5.3-2.015-5.9-4.806l-3.9-19.181c-.3-1.225.7-2.369 1.9-2.369h19.3c1.3 0 2.2 1.144 2 2.369l-4 19.181c-.5 2.805-3 4.806-5.9 4.806Z"/><path fill="#2a4385" d="M22763.3 793.829c10.2 0 18.5-8.283 18.5-18.5s-8.3-18.501-18.5-18.501c-10.3 0-18.5 8.283-18.5 18.501 0 10.217 8.2 18.5 18.5 18.5Z"/><path fill="#2a4385" stroke-linecap="round" d="M22780.5 296.803h-14.4l-.4-2.151 14.8 1.933zm0 41.262h-14.4l-.4-2.151 14.8 1.92zm0 41.262h-14.4l-.4-2.151 14.8 1.919zm0 41.25h-14.4l-.4-2.151 14.8 1.933zm0 41.261h-14.4l-.4-2.15 14.8 1.919zm0 41.25h-14.4l-.4-2.15 14.8 1.933zm0 41.262h-14.4l-.4-2.151 14.8 1.92zm0 41.262h-14.4l-.4-2.151 14.8 1.919zm0 41.25h-14.4l-.4-2.151 14.8 1.933zm0 41.262h-14.4l-.4-2.151 14.8 1.919zm0 41.246h-14.4l-.4-2.151 14.8 1.933z"/><path fill="#f7f3ea" d="M22763.3 262.24c-2.3 0-4.2 2.423-4.2 4.724v483.29h8.4V266.95c0-2.3-1.9-4.723-4.2-4.723z"/><path fill="#f7f3ea" d="M22771.1 748.973h-15.6c-.8 0-1.4.615-1.4 1.375v.408c0 .759.6 1.375 1.4 1.375h15.6c.8 0 1.4-.616 1.4-1.375v-.408c0-.76-.6-1.375-1.4-1.375Zm-7.8 37.385c6.1 0 11-4.936 11-11.026s-4.9-11.027-11-11.027-11.1 4.937-11.1 11.027 5 11.026 11.1 11.026Z"/><path fill="#f7f3ea" d="M22761.6 779.508h3.5c2.9 0 5.3-2.015 5.9-4.806l3.9-19.181c.3-1.225-.6-2.369-1.9-2.369h-19.3c-1.3 0-2.2 1.144-1.9 2.369l3.9 19.181c.6 2.805 3 4.806 5.9 4.806Z"/></g><defs><clipPath id="c"><path fill="#fff" d="M2131 722h82v125h-82z"/></clipPath><clipPath id="d"><path fill="#fff" d="M4214 733h82v125h-82z"/></clipPath><clipPath id="e"><path fill="#fff" d="M2263 725h82v125h-82z"/></clipPath><clipPath id="f"><path fill="#fff" d="M2199 695h82v125h-82z"/></clipPath><clipPath id="g"><path fill="#fff" d="M8385 518.223h563v295.985h-563z"/></clipPath><clipPath id="h"><path fill="#fff" d="m8903.95 481 95.714 7.409-7.95 102.693-95.713-7.41z"/></clipPath><clipPath id="i"><path fill="#fff" d="M4288 628h159v124h-159z"/></clipPath><clipPath id="j"><path fill="#fff" d="M4408 636h166v130h-166z"/></clipPath><clipPath id="k"><path fill="#fff" d="M22505 261h459v534h-459z"/></clipPath><clipPath id="l"><path fill="#fff" d="M13318 390h574v460h-574z"/></clipPath><clipPath id="m"><path fill="#fff" d="M19016 404h890v456h-890z"/></clipPath><clipPath id="n"><path fill="#fff" d="M838 712h82v125h-82z"/></clipPath><clipPath id="o"><path fill="#fff" d="M17347 79h87v135h-87z"/></clipPath><clipPath id="p"><path fill="#fff" d="M17855 79h87v135h-87z"/></clipPath></defs></svg>