<svg xmlns="http://www.w3.org/2000/svg" width="194" height="148" fill="none" viewBox="2288 500 194 148"><g><path fill="#f7f3ea" stroke="#2a4385" stroke-miterlimit="10" stroke-width="2" d="M2473.21 619.828h-177.6a2.13 2.13 0 0 0-2.13 2.135v1.293a2.13 2.13 0 0 0 2.13 2.134h177.6a2.13 2.13 0 0 0 2.13-2.134v-1.293a2.13 2.13 0 0 0-2.13-2.135Z"/><path fill="#ec5b1c" stroke="#2a4385" stroke-miterlimit="10" stroke-width="2" d="M2472.51 625.391h-176.2c-1.56 0-2.83 1.27-2.83 2.837v11.099a2.836 2.836 0 0 0 2.83 2.838h176.2c1.56 0 2.83-1.271 2.83-2.838v-11.099a2.835 2.835 0 0 0-2.83-2.837Z"/><path fill="#2a4385" stroke="#2a4385" stroke-miterlimit="10" stroke-width="2" d="M2316.34 643.23h-12.55v3.767h12.55zm153.01.543h-13.72v2.348h13.72z"/><path fill="#f7f3ea" stroke="#2a4385" stroke-miterlimit="10" stroke-width="2" d="m2293.75 556.109-2.71.198a1.03 1.03 0 0 0-.96 1.115l4.44 61.046c.04.574.54 1.006 1.11.964l2.72-.198c.57-.042 1-.541.96-1.115l-4.44-61.047a1.047 1.047 0 0 0-1.12-.963Zm183.62.432-2.71-.188c-.58-.04-1.07.394-1.11.968l-4.23 61.137a1.04 1.04 0 0 0 .96 1.112l2.72.188c.57.04 1.07-.393 1.11-.968l4.23-61.137c.04-.574-.4-1.072-.97-1.112Z"/><path fill="#f7f3ea" stroke="#2a4385" stroke-miterlimit="10" stroke-width="2" d="M2472.82 534.777H2295.9a5.585 5.585 0 0 0-5.58 5.588v15.757c0 3.086 2.5 5.587 5.58 5.587h176.92c3.08 0 5.58-2.501 5.58-5.587v-15.757c0-3.086-2.5-5.588-5.58-5.588Z"/><path fill="#f7f3ea" stroke="#2a4385" stroke-miterlimit="10" stroke-width="2" d="M2301.76 557.966a3.905 3.905 0 0 0 0-7.81c-2.16 0-3.9 1.748-3.9 3.905a3.9 3.9 0 0 0 3.9 3.905Z"/><path fill="#ec5b1c" stroke="#2a4385" stroke-miterlimit="10" stroke-width="2" d="M2317.76 557.755a3.905 3.905 0 0 0 0-7.81c-2.16 0-3.9 1.749-3.9 3.905a3.9 3.9 0 0 0 3.9 3.905Zm130.85 0a3.905 3.905 0 0 0 0-7.81c-2.16 0-3.9 1.749-3.9 3.905a3.9 3.9 0 0 0 3.9 3.905Z"/><path fill="#f7f3ea" stroke="#2a4385" stroke-miterlimit="10" stroke-width="2" d="M2465.37 557.755c2.16 0 3.9-1.748 3.9-3.905a3.899 3.899 0 1 0-7.8 0 3.905 3.905 0 0 0 3.9 3.905Z"/><path fill="#2a4385" stroke="#2a4385" stroke-miterlimit="10" stroke-width="2" d="M2393.97 568.652h-54.28v13.41h54.28z"/><path fill="#f7f3ea" stroke="#2a4385" stroke-miterlimit="10" stroke-width="2" d="M2393.97 572.922h-15.69v10.898h15.69z"/><path fill="#ec5b1c" d="M2319.19 567.398a2.75 2.75 0 1 1 0-5.5h126.66c1.51 0 2.74 1.231 2.74 2.75s-1.23 2.75-2.74 2.75z"/><path fill="#2a4385" d="M2445.85 563.14c.82 0 1.49.665 1.49 1.494s-.67 1.494-1.49 1.494h-126.66a1.494 1.494 0 1 1 0-2.988zm0-2.511h-126.66c-2.21 0-4 1.795-4 4.005s1.79 4.005 4 4.005h126.66c2.2 0 4-1.795 4-4.005a4.01 4.01 0 0 0-4-4.005"/><path fill="#f7f3ea" stroke="#2a4385" stroke-miterlimit="10" stroke-width="2" d="M2361.46 575.633h-22.41c-2.3 0-4.16 1.866-4.16 4.168v.804a4.16 4.16 0 0 0 4.16 4.168h22.41c2.3 0 4.16-1.866 4.16-4.168v-.804a4.16 4.16 0 0 0-4.16-4.168Zm33.15-6.981h-24.18v6.04h24.18z"/><path fill="#2a4385" stroke="#2a4385" stroke-miterlimit="10" stroke-width="2" d="M2389.64 583.82h-7.12v3.955h7.12zm18.74-15.168h-12.97v6.04h12.97z"/><path fill="#f7f3ea" stroke="#2a4385" stroke-miterlimit="10" stroke-width="2" d="m2443.49 588.114 3.1 12.481c.24.979 1.09 1.657 2.05 1.657h1.14c1.47 0 2.5-1.519 2.01-2.95l-4.24-12.481c-.32-.954-1.21-1.557-2.18-1.469-1.32.113-2.21 1.432-1.88 2.762Z"/><path fill="#2a4385" d="M2434.15 567.949v11.062l4.96 3.051h8.97l-8.97-5.449v-7.961"/><path stroke="#2a4385" stroke-miterlimit="10" stroke-width="2" d="M2434.15 567.949v11.062l4.96 3.051h8.97l-8.97-5.449v-7.961"/><path fill="#2a4385" stroke="#2a4385" stroke-miterlimit="10" stroke-width="2" d="M2451.62 582.953h-11.55v5.223h11.55z"/><path stroke="#2a4385" stroke-miterlimit="10" stroke-width="2" d="M2305.64 526.113v8.651"/><path fill="#2a4385" d="M2472.73 526.113h-175.35v1.231"/><path stroke="#2a4385" stroke-miterlimit="10" stroke-width="2" d="M2472.73 526.113h-175.35v1.231m164.09-.828v8.261"/><path fill="#ec5b1c" stroke="#2a4385" stroke-miterlimit="10" stroke-width="2" d="M2350.48 505.492c-9.06 0-18.47.179-27.61.179-.71 4.809-1.11 13.083 3.94 18.268.25.264.53.515.8.766h18.89a13.2 13.2 0 0 0 2.62-3.026c.8-1.268 2.88-5.863 2.13-12.304-.11-1.03-.24-2.138-.77-3.883Z"/><path stroke="#2a4385" stroke-miterlimit="10" stroke-width="2" d="M2351.28 509.376s8.27-.389 7.15 5.537c-1.13 5.927-9.3 6.768-9.3 6.768"/><path fill="#ec5b1c" stroke="#2a4385" stroke-miterlimit="10" stroke-width="2" d="M2399.55 505.121c-9.07 0-18.48.179-27.61.179-.72 4.809-1.12 13.083 3.93 18.268.25.264.53.515.81.766h18.88a13.2 13.2 0 0 0 2.62-3.026c.81-1.268 2.89-5.863 2.13-12.304-.11-1.03-.24-2.138-.76-3.883Z"/><path stroke="#2a4385" stroke-miterlimit="10" stroke-width="2" d="M2400.34 509.005s8.28-.389 7.15 5.537-9.29 6.768-9.29 6.768"/><path fill="#ec5b1c" stroke="#2a4385" stroke-miterlimit="10" stroke-width="2" d="M2450.96 505.121c-9.06 0-18.47.179-27.61.179-.71 4.809-1.11 13.083 3.94 18.268.25.264.53.515.8.766h18.89a13.2 13.2 0 0 0 2.62-3.026c.8-1.268 2.89-5.863 2.13-12.304-.11-1.03-.24-2.138-.77-3.883Z"/><path stroke="#2a4385" stroke-miterlimit="10" stroke-width="2" d="M2451.76 509.005s8.27-.389 7.14 5.537c-1.12 5.927-9.29 6.768-9.29 6.768"/></g><defs><clipPath id="a"><path fill="#fff" d="M4305.06 448.156h38.018v96.462h-38.018z"/></clipPath><clipPath id="b"><path fill="#fff" d="M4255.35 480.309h36.556v51.154h-36.556z"/></clipPath><clipPath id="c"><path fill="#fff" d="M32 535h108v114H32z"/></clipPath><clipPath id="d"><path fill="#fff" d="M122 535h108v114H122z"/></clipPath><clipPath id="e"><path fill="#fff" d="M206 535h108v114H206z"/></clipPath><clipPath id="f"><path fill="#fff" d="M290 535h108v114H290z"/></clipPath><clipPath id="g"><path fill="#fff" d="M374 535h108v114H374z"/></clipPath><clipPath id="h"><path fill="#fff" d="M458 535h108v114H458z"/></clipPath><clipPath id="i"><path fill="#fff" d="M542 535h108v114H542z"/></clipPath><clipPath id="j"><path fill="#fff" d="M626 535h108v114H626z"/></clipPath><clipPath id="k"><path fill="#fff" d="M22250 238h590v686h-590z"/></clipPath></defs></svg>
