<svg xmlns="http://www.w3.org/2000/svg" width="290" height="38" fill="none" viewBox="10943 321 290 38"><g stroke="#8c98b7" stroke-miterlimit="10" clip-path="url(#b)"><path d="M10965.3 331.855h-1.2c-1.2 0-2.1.95-2.1 2.122v19.489c0 1.172.9 2.122 2.1 2.122h1.2c1.2 0 2.1-.95 2.1-2.122v-19.489c0-1.172-.9-2.122-2.1-2.122Zm249.4 0h-1.1c-1.2 0-2.2.95-2.2 2.122v19.489c0 1.172 1 2.122 2.2 2.122h1.1c1.2 0 2.2-.95 2.2-2.122v-19.489c0-1.172-1-2.122-2.2-2.122Z"/><path fill="#f7f3ea" d="M11227.4 324.414h-278.8c-1.2 0-2.2.95-2.2 2.122v5.317c0 1.172 1 2.122 2.2 2.122h278.8c1.2 0 2.2-.95 2.2-2.122v-5.317c0-1.172-1-2.122-2.2-2.122Z"/></g><defs><clipPath id="a"><path fill="#fff" d="M9122 151h380v286h-380z"/></clipPath><clipPath id="b"><path fill="#fff" d="M10945 323h286v34h-286z"/></clipPath><clipPath id="c"><path fill="#fff" d="M20300 85h706v174h-706z"/></clipPath><clipPath id="d"><path fill="#fff" d="M6301.59 335.141h86.415v80.52h-86.415z"/></clipPath><clipPath id="e"><path fill="#fff" d="m6287.39 326.02 83.868 20.832L6351.865 425l-83.869-20.833z"/></clipPath><clipPath id="f"><path fill="#fff" d="M6482 177h393v575h-393z"/></clipPath><clipPath id="g"><path fill="#fff" d="M18435 218h68v293h-68z"/></clipPath></defs></svg>