<svg xmlns="http://www.w3.org/2000/svg" width="744" height="400" fill="none" viewBox="5958 560 744 400"><g><path fill="#2a4385" stroke="#2a4385" stroke-linecap="round" stroke-linejoin="round" stroke-width="2" d="M6686.24 922.523h-19.59c-.95 0-1.73.773-1.73 1.727v31.072c0 .953.78 1.726 1.73 1.726h19.59c.96 0 1.73-.773 1.73-1.726V924.25c0-.954-.77-1.727-1.73-1.727m-693.99 0h-19.59c-.96 0-1.73.773-1.73 1.727v31.072c0 .953.77 1.726 1.73 1.726h19.59c.95 0 1.73-.773 1.73-1.726V924.25c0-.954-.78-1.727-1.73-1.727"/><path fill="#f7f3ea" stroke="#2a4385" stroke-linecap="round" stroke-linejoin="round" stroke-width="2" d="M6694.54 563.902h-731.06c-1.65 0-3 1.344-3 3.001v47.373c0 1.657 1.35 3 3 3h731.06c1.65 0 3-1.343 3-3v-47.373a3.005 3.005 0 0 0-3-3.001m-284.13 362.039h282.92V623.105h-282.92zM5964.8 775.129h222.79v-151.67H5964.8z"/><path fill="#f7f3ea" stroke="#2a4385" stroke-linecap="round" stroke-linejoin="round" stroke-width="2" d="M6187.87 775.133h222.8V623.462h-222.8zM5964.8 926.195h222.79v-151.67H5964.8z"/><path fill="#f7f3ea" stroke="#2a4385" stroke-linecap="round" stroke-linejoin="round" stroke-width="2" d="M6187.87 926.195h222.8v-151.67h-222.8z"/><path fill="#2a4385" stroke="#2a4385" stroke-linecap="round" stroke-linejoin="round" stroke-width="2" d="M6449.55 803.558V738.69c0-1.071-.86-1.94-1.93-1.94h-9.92c-1.07 0-1.94.869-1.94 1.94v64.868c0 1.072.87 1.94 1.94 1.94h9.92c1.07 0 1.93-.868 1.93-1.94m246.81-193.312h-734.73c-1.02 0-1.86.835-1.86 1.864v10.317c0 1.029.84 1.864 1.86 1.864h734.73a1.86 1.86 0 0 0 1.86-1.864V612.11a1.86 1.86 0 0 0-1.86-1.864"/><path fill="#2a4385" stroke="#2a4385" stroke-width="2" d="M5965.46 810.18h220.341v9.641H5965.46zm223.08 0h220.341v9.641H6188.54zm-223.08-151.332h220.341v9.641H5965.46zm223.08 0h220.341v9.641H6188.54z"/></g></svg>