<svg xmlns="http://www.w3.org/2000/svg" width="120" height="136" fill="none" viewBox="6000 478 120 136"><g><path fill="#f7f3ea" d="M6064.17 600.816c22.78 0 41.24-18.495 41.24-41.309s-18.46-41.308-41.24-41.308-41.25 18.495-41.25 41.308c0 22.814 18.47 41.309 41.25 41.309"/><path fill="#2a4385" stroke="#2a4385" stroke-miterlimit="10" stroke-width="2" d="M6031.25 612.98h-1.67a1.37 1.37 0 0 1-1.26-1.915l7.25-16.752c.21-.499.71-.821 1.25-.821h4.19c1.05 0 1.71 1.143 1.18 2.059l-9.76 16.752a1.36 1.36 0 0 1-1.18.677Zm72.4 0h1.67a1.37 1.37 0 0 0 1.26-1.915l-7.25-16.752a1.37 1.37 0 0 0-1.25-.821h-4.19c-1.05 0-1.71 1.143-1.18 2.059l9.76 16.752c.24.417.69.677 1.18.677Zm-40.16-107.995-3.04.781 2.93 11.43 3.04-.781z"/><path fill="#2a4385" stroke="#2a4385" stroke-miterlimit="10" stroke-width="2" d="m6067.54 503.313-.3-1.139c-.14-.549-.69-.88-1.24-.74l-9.43 2.419c-.55.141-.88.7-.74 1.249l.29 1.14c.14.549.7.88 1.25.739l9.43-2.419c.55-.141.88-.7.74-1.249Z"/><path fill="#ec5b1c" stroke="#2a4385" stroke-linecap="round" stroke-linejoin="round" stroke-width="2" d="M6093.97 488.234c-8.89-7.777-19.74-9.139-26.48-9.104-6.73-.035-17.58 1.327-26.47 9.104-9.61 8.407-10.88 19.016-11.12 21.841l1.68.287c.23-2.736 1.46-12.743 10.49-20.699 8.48-7.469 18.89-8.926 25.42-8.981 6.53.055 16.94 1.512 25.42 8.981 9.03 7.956 10.25 17.963 10.49 20.699l1.67-.287c-.24-2.825-1.51-13.434-11.11-21.841z"/><path fill="#ec5b1c" stroke="#2a4385" stroke-miterlimit="10" stroke-width="3" d="m6039.68 519.088-3.38 1.924 2.85 5.039 3.39-1.923z"/><path fill="#ec5b1c" stroke="#2a4385" stroke-miterlimit="10" stroke-width="2" d="m6025.86 501.676 1.25-.712a2.313 2.313 0 0 1 3.15.87l2.11 3.731-5.27 2.993-2.11-3.731a2.31 2.31 0 0 1 .87-3.151Z"/><path fill="#ec5b1c" stroke="#2a4385" stroke-miterlimit="10" stroke-width="2" d="M6052.43 508.342c.24.41.16.93-.18 1.252a78.7 78.7 0 0 1-12.46 9.515 78.5 78.5 0 0 1-19.39 8.577c-.46.13-.94-.068-1.17-.485-.77-1.348-1.53-2.702-2.3-4.05-2.63-4.644-.99-10.548 3.64-13.181l16.41-9.323c4.64-2.634 10.53-1.006 13.17 3.639l2.29 4.049z"/><path fill="#ec5b1c" stroke="#2a4385" stroke-miterlimit="10" stroke-width="3" d="m6092.4 524.127 3.39 1.924 2.85-5.04-3.39-1.923z"/><path fill="#ec5b1c" stroke="#2a4385" stroke-miterlimit="10" stroke-width="2" d="m6107.84 508.562-5.27-2.993 2.11-3.73a2.31 2.31 0 0 1 3.15-.871l1.25.712c1.11.631 1.5 2.045.87 3.152z"/><path fill="#ec5b1c" stroke="#2a4385" stroke-miterlimit="10" stroke-width="2" d="M6082.5 508.342c-.23.41-.15.93.19 1.252a78.7 78.7 0 0 0 12.46 9.515 78.5 78.5 0 0 0 19.39 8.577c.46.13.94-.068 1.17-.485.77-1.348 1.53-2.702 2.29-4.05 2.63-4.644 1-10.548-3.64-13.181l-16.4-9.323c-4.64-2.634-10.53-1.006-13.17 3.639l-2.29 4.049zm-15.05 5.353c-12.63 0-24.08 5.13-32.36 13.428-8.27 8.297-13.4 19.754-13.4 32.409s5.12 24.118 13.4 32.409c8.29 8.29 19.73 13.427 32.36 13.427 12.64 0 24.08-5.13 32.36-13.427s13.41-19.755 13.41-32.409-5.13-24.119-13.41-32.409c-8.28-8.291-19.72-13.428-32.36-13.428Zm0 83.472c-10.36 0-19.76-4.221-26.56-11.034-6.8-6.812-11.01-16.218-11.01-26.594s4.21-19.782 11.01-26.595 16.2-11.034 26.56-11.034 19.75 4.221 26.55 11.034 11.01 16.218 11.01 26.595-4.21 19.782-11.01 26.594-16.19 11.034-26.55 11.034Z"/><path fill="#2a4385" stroke="#2a4385" stroke-miterlimit="10" d="M6067.47 525.328c-.27 0-.49.218-.49.486v8.256c0 .268.22.486.49.486s.49-.218.49-.486v-8.256a.49.49 0 0 0-.49-.486Zm-34.18 34.187v.007c0 .268.22.486.49.486h8.24c.27 0 .49-.218.49-.486v-.007a.49.49 0 0 0-.49-.485h-8.24c-.27 0-.49.217-.49.485Zm34.14 34.231c.27 0 .49-.217.49-.486v-8.256a.49.49 0 0 0-.49-.485c-.27 0-.49.217-.49.485v8.256c0 .269.22.486.49.486Zm34.18-34.187v-.007a.49.49 0 0 0-.49-.486h-8.24c-.27 0-.49.218-.49.486v.007c0 .268.22.486.49.486h8.24c.27 0 .49-.218.49-.486Zm-51.14-29.706-.15.086a.4.4 0 0 0-.15.551l2.68 4.65c.11.193.36.259.55.148l.15-.085a.41.41 0 0 0 .15-.552l-2.68-4.65a.405.405 0 0 0-.55-.148Zm-12.55 12.485-.09.148a.41.41 0 0 0 .15.552l4.64 2.685a.4.4 0 0 0 .55-.148l.09-.148a.41.41 0 0 0-.15-.552l-4.64-2.684a.4.4 0 0 0-.55.147Zm-.11 34.211.09.148c.11.193.36.26.55.148l4.64-2.685a.4.4 0 0 0 .15-.551l-.08-.148a.405.405 0 0 0-.55-.148l-4.65 2.685a.41.41 0 0 0-.15.551Zm12.47 12.558.15.086a.4.4 0 0 0 .55-.148l2.68-4.65a.405.405 0 0 0-.14-.551l-.15-.086a.403.403 0 0 0-.55.148l-2.68 4.65c-.11.193-.05.44.14.551Zm34.16.114.15-.086a.396.396 0 0 0 .14-.551l-2.68-4.65a.4.4 0 0 0-.55-.148l-.14.086a.4.4 0 0 0-.15.551l2.68 4.65c.11.193.36.259.55.148Zm12.54-12.485.08-.148a.4.4 0 0 0-.15-.552l-4.64-2.684a.4.4 0 0 0-.55.147l-.08.149a.396.396 0 0 0 .14.551l4.65 2.685c.19.111.44.045.55-.148Zm.11-34.215-.09-.148a.403.403 0 0 0-.55-.148l-4.64 2.685a.4.4 0 0 0-.15.551l.08.148c.12.193.36.26.56.148l4.64-2.685a.41.41 0 0 0 .15-.551Zm-12.47-12.562-.15-.085a.4.4 0 0 0-.55.147l-2.68 4.651a.41.41 0 0 0 .15.551l.15.085c.19.112.44.046.55-.147l2.68-4.651a.41.41 0 0 0-.15-.551Zm-23.65 5.689-.56 1.245c-.09.212-.11.452-.05.678l5.58 21.492c.14.533.68.861 1.22.738l.31-.068c.54-.123.88-.65.78-1.197l-4.29-21.793a1 1 0 0 0-.35-.588l-1.04-.876a1.023 1.023 0 0 0-1.59.363z"/><path fill="#2a4385" stroke="#2a4385" stroke-miterlimit="10" d="M6081.52 572.55v-1.327a.92.92 0 0 0-.29-.663l-12.16-11.245a.895.895 0 0 0-1.25.027l-.4.397a.906.906 0 0 0-.03 1.252l11.23 12.182c.17.185.41.294.66.294h1.33c.5 0 .9-.403.9-.903z"/><path fill="#2a4385" stroke="#2a4385" stroke-miterlimit="10" d="M6067.87 560.583a.457.457 0 0 0-.09-.652.464.464 0 0 0-.65.087l-10.79 14.126a.475.475 0 0 0 .09.652c.2.156.5.118.65-.086z"/><path fill="#2a4385" stroke="#2a4385" stroke-miterlimit="10" stroke-width="2" d="M6067.47 562.797c1.76 0 3.18-1.427 3.18-3.188a3.181 3.181 0 1 0-6.36 0 3.18 3.18 0 0 0 3.18 3.188Z"/></g></svg>