<svg xmlns="http://www.w3.org/2000/svg" width="500" height="680" fill="none" viewBox="2990 80 500 680"><g><path fill="#f7f3ea" stroke="#8c98b7" stroke-miterlimit="10" d="M3021.47 84h-6.95c-1.95 0-3.52 1.708-3.52 3.816v21.368c0 2.108 1.57 3.816 3.52 3.816h6.95c1.95 0 3.53-1.708 3.53-3.816V87.816c0-2.108-1.58-3.816-3.53-3.816Zm445 1h-6.95c-1.95 0-3.52 1.708-3.52 3.816v21.368c0 2.108 1.57 3.816 3.52 3.816h6.95c1.95 0 3.53-1.708 3.53-3.816V88.816c0-2.108-1.58-3.816-3.53-3.816Zm-447.84 28h-1.27c-1.86 0-3.36 1.59-3.36 3.552v576.896c0 1.962 1.5 3.552 3.36 3.552h1.27c1.86 0 3.37-1.59 3.37-3.552V116.552c0-1.962-1.51-3.552-3.37-3.552Zm445.16 1.012h-1.36c-1.96 0-3.55 1.59-3.55 3.553v577.014a3.55 3.55 0 0 0 3.55 3.553h1.36c1.96 0 3.55-1.591 3.55-3.553V117.565a3.55 3.55 0 0 0-3.55-3.553Z"/><path fill="#f7f3ea" stroke="#8c98b7" stroke-miterlimit="10" d="M3474.59 168.812h-466.11a3.554 3.554 0 0 0-3.56 3.554v2.581a3.554 3.554 0 0 0 3.56 3.553h466.11c1.97 0 3.56-1.59 3.56-3.553v-2.581a3.554 3.554 0 0 0-3.56-3.554Zm0 156.641h-466.11a3.554 3.554 0 0 0-3.56 3.553v2.582a3.554 3.554 0 0 0 3.56 3.553h466.11c1.97 0 3.56-1.591 3.56-3.553v-2.582a3.554 3.554 0 0 0-3.56-3.553Zm0 310.844h-466.11a3.554 3.554 0 0 0-3.56 3.553v2.582a3.554 3.554 0 0 0 3.56 3.553h466.11c1.97 0 3.56-1.591 3.56-3.553v-2.582a3.554 3.554 0 0 0-3.56-3.553Z"/><path fill="#f7f3ea" stroke="#8c98b7" stroke-miterlimit="10" d="M3018.43 182.528c4.74 0 8.58-3.839 8.58-8.574 0-4.736-3.84-8.575-8.58-8.575s-8.58 3.839-8.58 8.575 3.84 8.574 8.58 8.574Zm444.29.496c4.74 0 8.58-3.839 8.58-8.574 0-4.736-3.84-8.575-8.58-8.575s-8.58 3.839-8.58 8.575 3.84 8.574 8.58 8.574Zm-444.29 156.075c4.74 0 8.58-3.839 8.58-8.575s-3.84-8.575-8.58-8.575-8.58 3.839-8.58 8.575 3.84 8.575 8.58 8.575Zm444.29.519c4.74 0 8.58-3.839 8.58-8.575s-3.84-8.574-8.58-8.574-8.58 3.839-8.58 8.574c0 4.736 3.84 8.575 8.58 8.575Zm-444.29 150.391c4.74 0 8.58-3.839 8.58-8.575s-3.84-8.575-8.58-8.575-8.58 3.839-8.58 8.575 3.84 8.575 8.58 8.575Zm444.29.496c4.74 0 8.58-3.839 8.58-8.575s-3.84-8.575-8.58-8.575-8.58 3.839-8.58 8.575 3.84 8.575 8.58 8.575Zm-444.29 157.543c4.74 0 8.58-3.839 8.58-8.575s-3.84-8.575-8.58-8.575-8.58 3.839-8.58 8.575 3.84 8.575 8.58 8.575Zm444.29.496c4.74 0 8.58-3.839 8.58-8.575s-3.84-8.574-8.58-8.574-8.58 3.839-8.58 8.574c0 4.736 3.84 8.575 8.58 8.575ZM3025.57 697h-15.14c-1.9 0-3.43 1.975-3.43 4.412v1.176c0 2.437 1.53 4.412 3.43 4.412h15.14c1.89 0 3.43-1.975 3.43-4.412v-1.176c0-2.437-1.54-4.412-3.43-4.412Zm438.45 53.493c11.29 0 20.43-9.142 20.43-20.419 0-11.276-9.14-20.418-20.43-20.418-11.28 0-20.43 9.142-20.43 20.418s9.15 20.419 20.43 20.419Zm-445.59-.094c11.28 0 20.43-9.142 20.43-20.418s-9.15-20.419-20.43-20.419-20.43 9.142-20.43 20.419c0 11.276 9.15 20.418 20.43 20.418Z"/><path fill="#f7f3ea" stroke="#8c98b7" stroke-miterlimit="10" d="M3019.83 706.855h-3.39a3.56 3.56 0 0 0-3.56 3.554v17.078a3.56 3.56 0 0 0 3.56 3.553h3.39c1.96 0 3.55-1.591 3.55-3.553v-17.078a3.55 3.55 0 0 0-3.55-3.554ZM3471.41 697h-15.83c-1.98 0-3.58 2.173-3.58 4.853v1.294c0 2.68 1.6 4.853 3.58 4.853h15.83c1.98 0 3.59-2.173 3.59-4.853v-1.294c0-2.68-1.61-4.853-3.59-4.853Z"/><path fill="#f7f3ea" stroke="#8c98b7" stroke-miterlimit="10" d="M3465.42 707.977h-3.39c-1.96 0-3.55 1.59-3.55 3.553v17.078a3.55 3.55 0 0 0 3.55 3.553h3.39a3.56 3.56 0 0 0 3.56-3.553V711.53a3.56 3.56 0 0 0-3.56-3.553ZM3022.37 368.59l436.51 222.965v8.859l-436.51-223.771z"/><path fill="#f7f3ea" d="m3459 368-437 222.755V600l436.71-223v-9"/><path stroke="#8c98b7" stroke-miterlimit="10" d="m3459 368-437 222.755V600l436.71-223v-9"/><path fill="#f7f3ea" stroke="#8c98b7" stroke-miterlimit="10" d="M3240.23 495.337c5.98 0 10.83-4.846 10.83-10.825s-4.85-10.824-10.83-10.824-10.83 4.846-10.83 10.824c0 5.979 4.85 10.825 10.83 10.825ZM3110.89 264h-55.79c-1.16 0-2.1 1.336-2.1 2.983v.034c0 1.647.94 2.983 2.1 2.983h55.79c1.16 0 2.11-1.336 2.11-2.983v-.034c0-1.647-.95-2.983-2.11-2.983Zm-6.19 6h-44.41c-1.82 0-3.29 1.359-3.29 3.036v48.928c0 1.677 1.47 3.036 3.29 3.036h44.41c1.82 0 3.3-1.359 3.3-3.036v-48.928c0-1.677-1.48-3.036-3.3-3.036Z"/><path stroke="#8c98b7" stroke-miterlimit="10" d="M3290 268.431h54.3s10.76-1.374 11.24 11.938c.47 13.312 0 15.728 0 15.728m59.15-27.431s-25.62-2.961-25.29 10.399m8.75-70.065s-8.75 24.184 0 24.184m-69.28 19.781h107.44m-15.69-19.781s-5.62 19.754 0 19.754"/></g></svg>