<svg xmlns="http://www.w3.org/2000/svg" width="170" height="125" fill="none" viewBox="4200 432 170 125"><g><path fill="#2a4385" stroke="#2a4385" stroke-miterlimit="10" stroke-width="2" d="M4239.78 454.168h-5.49a2.58 2.58 0 0 0-2.59 2.573v5.491a2.58 2.58 0 0 0 2.59 2.573h5.49c1.43 0 2.6-1.152 2.6-2.573v-5.491c0-1.421-1.17-2.573-2.6-2.573Z"/><path stroke="#2a4385" stroke-linecap="round" stroke-linejoin="round" stroke-width="2" d="M4211.29 453.194c3.86-1.5 7.58-6.444 6.82-8.429-.57-1.5-2.47-2.087-3.06-2.249"/><path fill="#ec5b1c" d="M4229.57 453.075c.39.162 17.3.263 17.3.263 2.74 0 4.1-3.282 2.16-5.187l-9.68-9.584a3.05 3.05 0 0 0-2.16-.891h-21.89v4.295l14.66 11.286"/><path stroke="#2a4385" stroke-miterlimit="10" stroke-width="2" d="M4229.57 453.075c.39.162 17.3.263 17.3.263 2.74 0 4.1-3.282 2.16-5.187l-9.68-9.584a3.05 3.05 0 0 0-2.16-.891h-21.89v4.295l14.66 11.286"/><path fill="#f7f3ea" stroke="#2a4385" stroke-miterlimit="10" stroke-width="2" d="M4250.38 539.347v.061c-.02.608-.41 1.742-3.06 2.978-15.22.284-26.37.264-28.59 0-1.45-.162-2.09-.79-2.29-1.013-.74-.83-.76-1.925-.76-2.37 0-34.546.78-38.457.78-38.457 1.9-9.624 4.55-21.113 8.33-34.019.02-.223.17-1.175 1-1.925.55-.486 1.27-.77 2.04-.77h17.2c1.7 0 3.06 1.358 3.06 3.019l2.29 72.476z"/><path fill="#2a4385" stroke="#2a4385" stroke-miterlimit="10" stroke-width="2" d="M4214.33 437.027h-2.3c-.79 0-1.43.635-1.43 1.419v2.532c0 .784.64 1.419 1.43 1.419h2.3c.79 0 1.43-.635 1.43-1.419v-2.532c0-.784-.64-1.419-1.43-1.419Z"/><g clip-path="url(#a)"><path fill="#2a4385" stroke="#2a4385" stroke-miterlimit="10" stroke-width="2" d="M4332.12 465.023h-4.76c-1.24 0-2.24 1.014-2.24 2.265v4.832c0 1.25 1 2.264 2.24 2.264h4.76c1.25 0 2.25-1.014 2.25-2.264v-4.832c0-1.251-1-2.265-2.25-2.265Z"/><path stroke="#2a4385" stroke-linecap="round" stroke-linejoin="round" stroke-width="2" d="M4307.43 464.166c3.35-1.319 6.57-5.67 5.92-7.417-.5-1.32-2.15-1.837-2.66-1.979"/><path fill="#ec5b1c" d="M4323.28 464.059c.33.142 14.99.232 14.99.232 2.37 0 3.55-2.889 1.87-4.565l-8.39-8.434a2.62 2.62 0 0 0-1.87-.784h-18.98v3.78l12.71 9.931"/><path stroke="#2a4385" stroke-miterlimit="10" stroke-width="2" d="M4323.28 464.059c.33.142 14.99.232 14.99.232 2.37 0 3.55-2.889 1.87-4.565l-8.39-8.434a2.62 2.62 0 0 0-1.87-.784h-18.98v3.78l12.71 9.931"/><path fill="#f7f3ea" stroke="#2a4385" stroke-miterlimit="10" stroke-width="2" d="M4341.31 539.981v.053c-.02.535-.35 1.534-2.65 2.621-13.19.25-22.85.232-24.78 0-1.26-.142-1.81-.695-1.98-.891-.64-.731-.66-1.694-.66-2.086 0-30.401.67-33.842.67-33.842a350 350 0 0 1 7.22-29.937c.02-.196.15-1.034.87-1.694.48-.428 1.1-.678 1.77-.678h14.9c1.47 0 2.66 1.195 2.66 2.657l1.98 63.779z"/><path fill="#2a4385" stroke="#2a4385" stroke-miterlimit="10" stroke-width="2" d="M4310.07 449.941h-2c-.68 0-1.24.559-1.24 1.249v2.228c0 .69.56 1.248 1.24 1.248h2c.69 0 1.24-.558 1.24-1.248v-2.228c0-.69-.55-1.249-1.24-1.249Z"/></g><g stroke="#2a4385" stroke-miterlimit="10" stroke-width="2" clip-path="url(#b)"><path fill="#f7f3ea" d="M4290.06 486.222v39.311c0 2.256-1.86 4.093-4.15 4.093h-7.11c.11-.382.16-.8.16-1.2 0-2.893-2.38-5.276-5.34-5.276a5.283 5.283 0 0 0-5.31 5.276c0 .418.05.818.14 1.2h-7.09c-2.29 0-4.15-1.837-4.15-4.093v-39.311c0-2.256 1.86-4.093 4.15-4.093h5.6c.72 0 1.38.455 1.6 1.146a5.31 5.31 0 0 0 5.06 3.675c2.37 0 4.38-1.528 5.07-3.657.22-.691.86-1.146 1.6-1.146h5.62c2.29 0 4.15 1.837 4.15 4.093z"/><path fill="#2a4385" d="m4289 484.5-5.01-1.5v44.295h4.72z"/></g><path fill="#ec5b1c" stroke="#2a4385" stroke-miterlimit="10" stroke-width="2" d="M4356.94 511.387h-146.39a2.55 2.55 0 0 0-2.55 2.55v31.87a2.55 2.55 0 0 0 2.55 2.55h146.39a2.55 2.55 0 0 0 2.55-2.55v-31.87a2.55 2.55 0 0 0-2.55-2.55Z"/></g><defs><clipPath id="a"><path fill="#fff" d="M4305.06 448.156h38.018v96.462h-38.018z"/></clipPath><clipPath id="b"><path fill="#fff" d="M4255.35 480.309h36.556v51.154h-36.556z"/></clipPath><clipPath id="c"><path fill="#fff" d="M32 535h108v114H32z"/></clipPath><clipPath id="d"><path fill="#fff" d="M122 535h108v114H122z"/></clipPath><clipPath id="e"><path fill="#fff" d="M206 535h108v114H206z"/></clipPath><clipPath id="f"><path fill="#fff" d="M290 535h108v114H290z"/></clipPath><clipPath id="g"><path fill="#fff" d="M374 535h108v114H374z"/></clipPath><clipPath id="h"><path fill="#fff" d="M458 535h108v114H458z"/></clipPath><clipPath id="i"><path fill="#fff" d="M542 535h108v114H542z"/></clipPath><clipPath id="j"><path fill="#fff" d="M626 535h108v114H626z"/></clipPath><clipPath id="k"><path fill="#fff" d="M22250 238h590v686h-590z"/></clipPath></defs></svg>
