<svg xmlns="http://www.w3.org/2000/svg" width="107.663" height="114.102" fill="none" viewBox="8894.001 479 107.663 114.102"><g clip-path="url(#h)"><path fill="#f7f3ea" d="m8940.05 525.411-3.67 32.798 13.37 7.43 27.06-25.914z"/><path fill="#f7f3ea" stroke="#2a4385" stroke-miterlimit="10" stroke-width="2" d="M8945.74 567.568c-1.45-.423-2.63-.964-3.51-1.559-1.99-.535-5.47-1.939-7.96-4.543-1.99-2.089-3.59-4.42-3.4-7.237l1.68-24.803 9.93 1.387-.53 6.87-5.39-.791-1.38 20.048c-.15 2.281.99 4.151 2.42 5.822 1.79 2.091 4.31 3.205 5.75 3.617.6.456 1.41.864 2.39 1.189Z"/><path fill="#2a4385" d="M8967.69 547.729s-11.5 10.555-15.8 13.558c-1.15.797-2.72 1.328-4.09 1.113l-.04-.002c-1.26-.2-2.59-.7-3.16-1.034 0-.011-.01.011 0 0-.65-.362-1.59-.997-2.33-1.735 0-.006-.01-.012-.02-.024-.98-.995-1.44-2.438-1.33-3.826l1.31-16.774-7.19-1.056-1.38 20.049c-.16 2.28.99 4.151 2.42 5.822 1.79 2.091 4.31 3.199 5.75 3.617 1.23.924 3.3 1.668 5.93 1.889 2.2.182 4.1-.119 5.96-1.377 5.55-3.764 13.46-11.215 18.63-15.491l-4.65-4.735z"/><path stroke="#2a4385" stroke-miterlimit="10" stroke-width="2" d="M8944.6 561.364c.57.334 1.9.834 3.16 1.034l.04.002c1.37.215 2.94-.316 4.09-1.113 4.3-3.003 15.8-13.558 15.8-13.558l.01-.006 4.65 4.735c-5.17 4.276-13.08 11.727-18.63 15.491-1.86 1.257-3.76 1.559-5.96 1.377-2.63-.221-4.7-.965-5.93-1.889-1.44-.418-3.96-1.526-5.75-3.617-1.43-1.671-2.58-3.542-2.42-5.822l1.38-20.049 7.19 1.056-1.31 16.774c-.11 1.388.35 2.831 1.33 3.826.01.012.02.018.02.024.74.738 1.68 1.373 2.33 1.735Zm0 0c0-.011-.01.011 0 0Z"/><path fill="#2a4385" stroke="#2a4385" stroke-miterlimit="10" stroke-width="2" d="M8986.56 549.047c-.16.351-.31.674-.46.974-.2.41-.49.763-.85 1.03a20.2 20.2 0 0 1-6.49 3.242c-2.39.701-4.54.852-6.23.801a2.79 2.79 0 0 1-2.55-1.877c-.76-2.193-2.18-5.163-3.88-8.342-.07-.118-.14-.237-.22-.346-2.98-4.1-4.48-6.486-8.5-7.313-9.23-1.89-16.92 3.956-21.81 1.58-4.45-2.161-2.58-6.085-8.53-10.495-3.35-2.472-6.76-3.491-13.72-4.92-4.55-.931-8.28-1.498-11.06-1.923-.62-.094-1.03-.716-.89-1.352.19-.87.42-1.765.7-2.68.16.149.37.25.61.285 2.88.433 6.76 1.011 11.49 1.956 7.23 1.451 10.78 2.481 14.26 4.963 6.19 4.429 4.26 8.348 8.9 10.523 5.09 2.391 13.05-3.433 22.65-1.515 4.18.839 5.75 3.23 8.85 7.341.09.108.16.228.23.346 1.77 3.185 3.26 6.16 4.06 8.355.4 1.104 1.46 1.85 2.65 1.885 1.75.056 3.98-.089 6.47-.782a21.4 21.4 0 0 0 4.33-1.735z"/><path fill="#f7f3ea" stroke="#2a4385" stroke-miterlimit="10" stroke-width="2" d="M8902.56 518.621a1.106 1.106 0 0 1-.92-1.354c1.49-6.637 5.53-14.847 12.54-21.073 20.91-18.554 61.11-12.81 73.82 7.405 5.02 7.969 5.56 17.844 5.67 19.89.6 11.123-2.93 19.679-5.04 23.868-.21.409-.5.761-.87 1.028a21.3 21.3 0 0 1-6.66 3.23c-2.45.695-4.66.836-6.38.788-1.18-.035-2.23-.78-2.62-1.888-.79-2.195-2.26-5.168-4.01-8.351a2 2 0 0 0-.22-.341c-3.07-4.107-4.61-6.496-8.73-7.332-9.48-1.913-17.35 3.918-22.37 1.537-4.58-2.17-2.67-6.091-8.78-10.513-3.43-2.484-6.94-3.505-14.08-4.949-4.67-.946-8.51-1.515-11.35-1.945Z"/><path fill="#f7f3ea" stroke="#2a4385" stroke-miterlimit="10" stroke-width="2" d="m8976.02 515.134 7.71-.249a.86.86 0 0 0 .8-1.062l-.37-1.419a.85.85 0 0 0-.86-.634l-7.62.324a.847.847 0 0 0-.8 1.022l.28 1.344c.09.404.45.687.86.674Zm1.35 6.168 7.71-.249a.86.86 0 0 0 .8-1.062l-.37-1.419a.846.846 0 0 0-.86-.634l-7.63.324a.846.846 0 0 0-.79 1.022l.28 1.344c.08.404.45.687.86.674Z"/></g><defs><clipPath id="c"><path fill="#fff" d="M2131 722h82v125h-82z"/></clipPath><clipPath id="d"><path fill="#fff" d="M4214 733h82v125h-82z"/></clipPath><clipPath id="e"><path fill="#fff" d="M2263 725h82v125h-82z"/></clipPath><clipPath id="f"><path fill="#fff" d="M2199 695h82v125h-82z"/></clipPath><clipPath id="g"><path fill="#fff" d="M8385 518.223h563v295.985h-563z"/></clipPath><clipPath id="h"><path fill="#fff" d="m8903.95 481 95.714 7.409-7.95 102.693-95.713-7.41z"/></clipPath><clipPath id="i"><path fill="#fff" d="M4288 628h159v124h-159z"/></clipPath><clipPath id="j"><path fill="#fff" d="M4408 636h166v130h-166z"/></clipPath><clipPath id="k"><path fill="#fff" d="M22505 261h459v534h-459z"/></clipPath><clipPath id="l"><path fill="#fff" d="M13318 390h574v460h-574z"/></clipPath><clipPath id="m"><path fill="#fff" d="M19016 404h890v456h-890z"/></clipPath><clipPath id="n"><path fill="#fff" d="M838 712h82v125h-82z"/></clipPath><clipPath id="o"><path fill="#fff" d="M17347 79h87v135h-87z"/></clipPath><clipPath id="p"><path fill="#fff" d="M17855 79h87v135h-87z"/></clipPath></defs></svg>