<svg xmlns="http://www.w3.org/2000/svg" width="91" height="139" fill="none" viewBox="17345 77 91 139"><g stroke="#2a4385" stroke-linecap="round" stroke-width="2" clip-path="url(#o)"><path stroke-linejoin="round" d="M17390.5-15.21v173.309"/><path fill="#2a4385" stroke-linejoin="round" d="M17383.8 158.098h10.7c1.5 0 2.7 1.194 2.7 2.667v13.417h-16.1v-13.417c0-1.473 1.2-2.667 2.7-2.667"/><path fill="#f7f3ea" stroke-linejoin="round" d="M17386.5 196.926h5.3c3 0 5.4 2.407 5.4 5.371v2.666c0 4.436-3.6 8.038-8 8.038-4.5 0-8.1-3.602-8.1-8.038v-2.666c0-2.964 2.4-5.371 5.4-5.371"/><path fill="#f7f3ea" stroke-linejoin="round" d="M17382.6 171.422h15.4c19 0 34.4 15.446 34.4 34.475h-84.2c0-19.029 15.4-34.475 34.4-34.475"/><path fill="#2a4385" d="m17432.8 206.102-3.2-13.427s-11.6-8.221-30.1-7.408c-6.3.278-19.9 7.871-27.7 7.871-7.1 0-18.1-5.093-18.1-5.093l-3.7 8.957-1.3 9.1z"/></g><defs><clipPath id="c"><path fill="#fff" d="M2131 722h82v125h-82z"/></clipPath><clipPath id="d"><path fill="#fff" d="M4214 733h82v125h-82z"/></clipPath><clipPath id="e"><path fill="#fff" d="M2263 725h82v125h-82z"/></clipPath><clipPath id="f"><path fill="#fff" d="M2199 695h82v125h-82z"/></clipPath><clipPath id="g"><path fill="#fff" d="M8385 518.223h563v295.985h-563z"/></clipPath><clipPath id="h"><path fill="#fff" d="m8903.95 481 95.714 7.409-7.95 102.693-95.713-7.41z"/></clipPath><clipPath id="i"><path fill="#fff" d="M4288 628h159v124h-159z"/></clipPath><clipPath id="j"><path fill="#fff" d="M4408 636h166v130h-166z"/></clipPath><clipPath id="k"><path fill="#fff" d="M22505 261h459v534h-459z"/></clipPath><clipPath id="l"><path fill="#fff" d="M13318 390h574v460h-574z"/></clipPath><clipPath id="m"><path fill="#fff" d="M19016 404h890v456h-890z"/></clipPath><clipPath id="n"><path fill="#fff" d="M838 712h82v125h-82z"/></clipPath><clipPath id="o"><path fill="#fff" d="M17347 79h87v135h-87z"/></clipPath><clipPath id="p"><path fill="#fff" d="M17855 79h87v135h-87z"/></clipPath></defs></svg>