<svg xmlns="http://www.w3.org/2000/svg" width="672" height="626" fill="none" viewBox="16018 202 672 626"><g><path fill="#8c98b7" stroke="#8c98b7" stroke-linecap="round" stroke-linejoin="round" d="M16520 287.654c22.5 0 40.7-18.202 40.7-40.655s-18.2-40.655-40.7-40.655-40.7 18.202-40.7 40.655 18.2 40.655 40.7 40.655"/><path fill="#f7f3ea" stroke="#8c98b7" stroke-linecap="round" stroke-linejoin="round" d="M16520 285.571c21.3 0 38.6-17.269 38.6-38.571s-17.3-38.57-38.6-38.57-38.6 17.268-38.6 38.57 17.3 38.571 38.6 38.571"/><path stroke="#8c98b7" stroke-linecap="round" stroke-linejoin="round" d="M16520.2 214.066v6.321m-16.4-1.938 2 3.174m-13.9 8.795 3.2 1.775m-3.2 30.922 3.1-1.924m8.8 13.892 1.8-3.255m30.9 3.256-1.9-3.174m13.9-8.797-3.2-1.789m3.2-30.906-3.2 1.923m-8.8-13.892-1.7 3.255m-47.3 25.058h6.3m26.4 32.707v-6.321m32.7-26.386h-6.3"/><path fill="#8c98b7" stroke="#8c98b7" stroke-miterlimit="10" d="m16521.1 217.146-1.9 34.752.6.033 1.9-34.753z"/><path fill="#8c98b7" stroke="#8c98b7" stroke-miterlimit="10" d="m16520.6 216.681-.4 6.58c0 .471.3.873.8.899s.9-.335.9-.806l.4-6.579c0-.471-.4-.874-.8-.9-.5-.026-.9.335-.9.806Zm-.5 29.398-15.3 8.561c-.6.327-.8 1.065-.5 1.648.4.583 1.1.791 1.7.464l15.2-8.562c.6-.327.8-1.064.5-1.647s-1.1-.791-1.6-.464Z"/><path fill="#8c98b7" stroke="#8c98b7" stroke-linecap="round" stroke-linejoin="round" d="M16313.7 295.422h-287.4c-1.4 0-2.5 1.109-2.5 2.477v1.388c0 1.368 1.1 2.477 2.5 2.477h287.4c1.4 0 2.5-1.109 2.5-2.477v-1.388c0-1.368-1.1-2.477-2.5-2.477"/><path fill="#f7f3ea" stroke="#8c98b7" stroke-linecap="round" stroke-linejoin="round" d="M16036.1 305.695v-15.393c0-1.369-1.1-2.478-2.4-2.478h-1.4c-1.4 0-2.5 1.109-2.5 2.478v15.393c0 1.368 1.1 2.478 2.5 2.478h1.4c1.3 0 2.4-1.11 2.4-2.478m268-15.39v15.393c0 1.369 1.1 2.478 2.5 2.478h1.3c1.4 0 2.5-1.109 2.5-2.478v-15.393c0-1.368-1.1-2.478-2.5-2.478h-1.3c-1.4 0-2.5 1.11-2.5 2.478m-243.5 44.91h-4.4c-.6 0-1.1.426-1.1.956l-.7 5.623h7.9l-.6-5.623c0-.53-.5-.956-1.1-.956m-2.2 43.508c10.1 0 18.4-8.235 18.4-18.393s-8.3-18.392-18.4-18.392c-10.2 0-18.4 8.234-18.4 18.392s8.2 18.393 18.4 18.393m1.5-73.649h-3c-.4 0-.7.301-.7.672v28.72c0 .371.3.672.7.672h3c.3 0 .7-.301.7-.672v-28.72c0-.371-.4-.672-.7-.672m-.2-3.762h-2.7c-.1 0-.2.087-.2.194v3.167c0 .107.1.194.2.194h2.7c.1 0 .2-.087.2-.194v-3.167c0-.107-.1-.194-.2-.194"/><path fill="#f7f3ea" stroke="#8c98b7" stroke-linecap="round" stroke-linejoin="round" d="M16059.2 295h-1.4c-1 0-1.8.938-1.8 2.094v3.812c0 1.156.8 2.094 1.8 2.094h1.4c1 0 1.8-.938 1.8-2.094v-3.812c0-1.156-.8-2.094-1.8-2.094m145.5 60.832v-31.511c.7-.156 1.3-.737 1.3-1.474v-15.446c0-.853-.7-1.538-1.6-1.538h-1.3c-.8 0-1.5.685-1.5 1.538v15.446c0 .711.5 1.28 1.1 1.461v31.524c-6.3.427-7.7 4.796-7.7 10.147 0 5.622 3.9 11.439 8.7 11.439s8.7-5.817 8.7-11.439c0-5.623-1.5-9.72-7.7-10.147m-2.1-59.832h2.3c.6 0 1 .465 1 1.021v8.776h-4.3v-8.776c0-.569.4-1.021 1-1.021m-68.3 25.277h-2.1c-.3 0-.6.261-.6.582v28.655c0 .322.3.582.6.582h2.1c.4 0 .6-.26.6-.582v-28.655c0-.321-.2-.582-.6-.582"/><path fill="#f7f3ea" stroke="#8c98b7" stroke-linecap="round" stroke-linejoin="round" d="M16134.2 295h-1.8c-1.1 0-1.9.851-1.9 1.9v22.568c0 1.049.8 1.9 1.9 1.9h1.8c1 0 1.9-.851 1.9-1.9V296.9c0-1.049-.9-1.9-1.9-1.9m1.5 56.172v-7.419c0-.194-.2-.362-.4-.362h-4.1c-.2 0-.3.155-.3.362v7.419h0c-7.3 1.15-12.9 7.458-12.9 15.096 0 8.453 6.8 13.559 15.3 13.559 8.4 0 15.3-5.106 15.3-13.559 0-7.651-5.6-13.972-13-15.109zm121.9 23.025 9.1 2.424c2.1.404 4.2.49 6.4.234 3.4-.404 8-1.914 8-2.552v-70.988c0-4.593-2.5-8.315-5.5-8.315h-25.1c-3 0-5.5 3.722-5.5 8.315v70.988c0 .617 3.4.192 6.2-.212 2.1-.319 4.3-.277 6.4.106"/><path fill="#f7f3ea" stroke="#2a4385" stroke-miterlimit="10" stroke-width="2" d="M16350.8 598.613h-294.4c-1.3 0-2.4 1.086-2.4 2.426v15.523c0 1.34 1.1 2.426 2.4 2.426h294.4c1.3 0 2.3-1.086 2.3-2.426v-15.523c0-1.34-1-2.426-2.3-2.426Zm-138-36.515h-104.3c-1.3 0-2.3 1.086-2.3 2.425v1.067c0 1.34 1 2.426 2.3 2.426h104.3c1.4 0 2.4-1.086 2.4-2.426v-1.067c0-1.339-1-2.425-2.4-2.425Zm-97.9 5.918 6.2 10.607h81.4l4.2-10.607z"/><path fill="#f7f3ea" stroke="#2a4385" stroke-miterlimit="10" stroke-width="2" d="M16212.8 571.801h-104.3c-1.3 0-2.3 1.086-2.3 2.425v1.068c0 1.339 1 2.425 2.3 2.425h104.3c1.4 0 2.4-1.086 2.4-2.425v-1.068c0-1.339-1-2.425-2.4-2.425Zm-97.9 5.918 6.2 10.607h81.4l4.2-10.607z"/><path fill="#f7f3ea" stroke="#2a4385" stroke-miterlimit="10" stroke-width="2" d="M16213.2 582.102h-104.3c-1.3 0-2.4 1.086-2.4 2.425v1.067c0 1.34 1.1 2.426 2.4 2.426h104.3c1.3 0 2.4-1.086 2.4-2.426v-1.067c0-1.339-1.1-2.425-2.4-2.425Zm-97.9 5.918 6.1 10.591h81.4l4.3-10.591zm416.6-5.418h-104.3c-1.3 0-2.4 1.086-2.4 2.425v1.067c0 1.34 1.1 2.426 2.4 2.426h104.3c1.3 0 2.4-1.086 2.4-2.426v-1.067c0-1.339-1.1-2.425-2.4-2.425Zm-97.9 5.918 6.2 10.591h81.3l4.3-10.591zm210.1-5.918h-104.4c-1.3 0-2.3 1.086-2.3 2.425v1.067c0 1.34 1 2.426 2.3 2.426h104.4c1.3 0 2.3-1.086 2.3-2.426v-1.067c0-1.339-1-2.425-2.3-2.425Zm-98 5.918 6.2 10.591h81.4l4.2-10.591zm-4.1 157.265h-104.4c-1.3 0-2.3 1.086-2.3 2.426v1.067c0 1.34 1 2.425 2.3 2.425h104.4c1.3 0 2.3-1.085 2.3-2.425v-1.067c0-1.34-1-2.426-2.3-2.426Zm-98 5.922 6.2 10.592h81.4l4.3-10.592zm210.1-5.922h-104.3c-1.3 0-2.4 1.086-2.4 2.426v1.067c0 1.34 1.1 2.425 2.4 2.425h104.3c1.3 0 2.4-1.085 2.4-2.425v-1.067c0-1.34-1.1-2.426-2.4-2.426Zm-97.9 5.922 6.1 10.592h81.4l4.3-10.592zm-217.1-202.82h-104.3c-1.3 0-2.3 1.086-2.3 2.425v1.068c0 1.339 1 2.425 2.3 2.425h104.3c1.3 0 2.4-1.086 2.4-2.425v-1.068c0-1.339-1.1-2.425-2.4-2.425Zm-97.9 5.918 6.2 10.607h81.3l4.3-10.607z"/><path fill="#f7f3ea" stroke="#2a4385" stroke-miterlimit="10" stroke-width="2" d="M16339.1 558.586h-104.3c-1.3 0-2.3 1.086-2.3 2.425v1.068c0 1.339 1 2.425 2.3 2.425h104.3c1.3 0 2.4-1.086 2.4-2.425v-1.068c0-1.339-1.1-2.425-2.4-2.425Zm-97.9 5.922 6.2 10.608h81.3l4.3-10.608z"/><path fill="#f7f3ea" stroke="#2a4385" stroke-miterlimit="10" stroke-width="2" d="M16337.6 571.527h-104.4c-1.3 0-2.3 1.086-2.3 2.426v1.067c0 1.34 1 2.426 2.3 2.426h104.4c1.3 0 2.3-1.086 2.3-2.426v-1.067c0-1.34-1-2.426-2.3-2.426Z"/><path fill="#f7f3ea" stroke="#2a4385" stroke-miterlimit="10" stroke-width="2" d="m16239.6 577.445 6.2 10.608h81.4l4.3-10.608z"/><path fill="#f7f3ea" stroke="#2a4385" stroke-miterlimit="10" stroke-width="2" d="M16337.6 581.227h-104.4c-1.3 0-2.3 1.086-2.3 2.425v1.067c0 1.34 1 2.426 2.3 2.426h104.4c1.3 0 2.3-1.086 2.3-2.426v-1.067c0-1.339-1-2.425-2.3-2.425Zm-98 5.918 6.2 10.607h81.4l4.3-10.607zm85.6-68.145h-78.3c-1.2 0-2.2 1.003-2.2 2.24 0 1.236 1 2.239 2.2 2.239h78.3c1.2 0 2.2-1.003 2.2-2.239 0-1.237-1-2.24-2.2-2.24Zm-73.8 4.48 4.6 8.037h61.7l3.3-8.037z"/><path fill="#f7f3ea" stroke="#2a4385" stroke-miterlimit="10" stroke-width="2" d="M16325.2 526.359h-78.3c-1.2 0-2.2 1.003-2.2 2.24s1 2.24 2.2 2.24h78.3c1.2 0 2.2-1.003 2.2-2.24s-1-2.24-2.2-2.24Zm-73.8 4.481 4.6 8.036h61.7l3.3-8.036z"/><path fill="#f7f3ea" stroke="#2a4385" stroke-miterlimit="10" stroke-width="2" d="M16324 536.156h-78.3c-1.2 0-2.2 1.003-2.2 2.24s1 2.239 2.2 2.239h78.3c1.2 0 2.2-1.002 2.2-2.239s-1-2.24-2.2-2.24Zm-73.8 4.496 4.6 8.021h61.7l3.3-8.021zm-16.4 177.181 50.4-10.821c.9-.183 1.7.377 1.9 1.254l1.3 6.537c2.7 13.37-5.6 26.503-18.7 29.296l-5.6 1.208c-13.4 2.879-26.6-5.979-29.4-19.772l-1.1-5.787c-.2-.876.3-1.732 1.2-1.915Z"/><path fill="#f7f3ea" stroke="#2a4385" stroke-miterlimit="10" stroke-width="2" d="M16235.3 727.191h51.3c.8 0 1.5.732 1.5 1.639v6.763c0 13.831-10.7 25.072-23.9 25.072h-5.8c-13.6 0-24.7-11.58-24.7-25.848v-5.987c0-.907.7-1.639 1.6-1.639Zm-19.1-3.031h-104.3c-1.3 0-2.4 1.086-2.4 2.426v1.067c0 1.34 1.1 2.426 2.4 2.426h104.3c1.3 0 2.3-1.086 2.3-2.426v-1.067c0-1.34-1-2.426-2.3-2.426Z"/><path fill="#f7f3ea" stroke="#2a4385" stroke-miterlimit="10" stroke-width="2" d="m16118.2 730.078 6.2 10.608h81.4l4.3-10.608z"/><path fill="#f7f3ea" stroke="#2a4385" stroke-miterlimit="10" stroke-width="2" d="M16216.2 733.863h-104.3c-1.3 0-2.4 1.086-2.4 2.426v1.067c0 1.34 1.1 2.426 2.4 2.426h104.3c1.3 0 2.3-1.086 2.3-2.426v-1.067c0-1.34-1-2.426-2.3-2.426Zm-98 5.922 6.2 10.608h81.4l4.3-10.608z"/><path fill="#f7f3ea" stroke="#2a4385" stroke-miterlimit="10" stroke-width="2" d="M16216.5 744.164h-104.3c-1.3 0-2.3 1.086-2.3 2.426v1.067c0 1.339 1 2.425 2.3 2.425h104.3c1.3 0 2.4-1.086 2.4-2.425v-1.067c0-1.34-1.1-2.426-2.4-2.426Zm-97.9 5.918 6.2 10.592h81.3l4.3-10.592zm237.4 11.363h-299.6c-1.3 0-2.4 1.086-2.4 2.426v15.523c0 1.34 1.1 2.426 2.4 2.426h299.6c1.3 0 2.4-1.086 2.4-2.426v-15.523c0-1.34-1.1-2.426-2.4-2.426Z"/><path fill="#f7f3ea" stroke="#2a4385" stroke-miterlimit="10" stroke-width="2" d="M16438.2 619.695h-10.9c-1.3 0-2.3 1.086-2.3 2.426v179.005c0 1.339 1 2.425 2.3 2.425h10.9c1.3 0 2.3-1.086 2.3-2.425V622.121c0-1.34-1-2.426-2.3-2.426Zm243.7 0h-10.9c-1.3 0-2.3 1.086-2.3 2.426v180.654c0 1.34 1 2.426 2.3 2.426h10.9c1.3 0 2.3-1.086 2.3-2.426V622.121c0-1.34-1-2.426-2.3-2.426Z"/><path fill="#f7f3ea" stroke="#2a4385" stroke-miterlimit="10" stroke-width="2" d="M16676.2 826.164c6.4 0 11.6-5.314 11.6-11.869s-5.2-11.869-11.6-11.869c-6.3 0-11.5 5.314-11.5 11.869s5.2 11.869 11.5 11.869Zm-243.5-1.778c6.4 0 11.6-5.313 11.6-11.869 0-6.555-5.2-11.869-11.6-11.869-6.3 0-11.5 5.314-11.5 11.869 0 6.556 5.2 11.869 11.5 11.869Z"/><path fill="#f7f3ea" stroke="#2a4385" stroke-miterlimit="10" stroke-width="2" d="M16676.2 821.217c3.8 0 6.8-3.099 6.8-6.921s-3-6.921-6.8-6.921c-3.7 0-6.7 3.099-6.7 6.921s3 6.921 6.7 6.921Zm-243.4-1.778c3.7 0 6.7-3.098 6.7-6.92s-3-6.921-6.7-6.921c-3.8 0-6.8 3.098-6.8 6.921 0 3.822 3 6.92 6.8 6.92Z"/></g></svg>