<svg xmlns="http://www.w3.org/2000/svg" width="72" height="297" fill="none" viewBox="18433 216 72 297"><g fill="#f7f3ea" stroke="#8c98b7" stroke-miterlimit="10" clip-path="url(#g)"><path d="M18469 510.543c-9.3 0-18.2-3.657-24.5-10.035-6-6.024-9.2-13.885-9-22.128l2.5-86.8c.5-17.961.5-36.176 0-54.145l-2.5-86.764c-.2-8.289 3-16.15 9-22.173 6.3-6.387 15.2-10.045 24.5-10.045s18.2 3.658 24.5 10.036c6 6.023 9.2 13.884 9 22.127l-2.5 86.81c-.5 17.96-.5 36.175 0 54.145l2.5 86.754c.2 8.289-3 16.15-9 22.173-6.3 6.379-15.2 10.036-24.5 10.036z" opacity=".8"/><path d="M18497 478.482c.3 14.612-12.3 26.604-28 26.604s-28.3-11.992-28-26.604l2.5-86.755a989 989 0 0 0 0-54.454l-2.5-86.755c-.3-14.612 12.3-26.604 28-26.604s28.3 11.992 28 26.604l-2.5 86.755a989 989 0 0 0 0 54.454z" opacity=".8"/><path d="M18458.5 315.336h19v19.908h-19c-5.2 0-9.3-4.131-9.3-9.217v-1.474c0-5.086 4.1-9.217 9.3-9.217Z"/><path d="M18452 324.944v.701c0 3.794 3.2 6.869 7 6.869h18.7v2.73h-19.1c-5.1 0-9.3-4.122-9.3-9.217v-1.474c0-5.086 4.2-9.217 9.3-9.217h19.1v2.729h-18.7c-3.8 0-7 3.085-7 6.879Zm25.2-15.569h1.9c1.6 0 2.9 1.274 2.9 2.839v1.237c0 .655-.6 1.183-1.2 1.183h-5.3c-.7 0-1.2-.528-1.2-1.183v-1.237c0-1.565 1.3-2.839 2.9-2.839Zm-1.7 26.141h5.3c.6 0 1.2.527 1.2 1.182v1.238c0 1.565-1.3 2.839-2.9 2.839h-1.9c-1.6 0-2.9-1.274-2.9-2.839v-1.238c0-.655.5-1.182 1.2-1.182Z"/><path d="M18488.9 328.62c0 4.868-3.9 8.816-8.9 8.816h-6.4c-1 0-1.7-1.11-1.2-2.01 1.2-2.202 2.7-5.751 2.7-10.264 0-4.394-1.5-7.843-2.7-9.999-.5-.91.2-2.011 1.2-2.011h6.4c5 0 8.9 3.949 8.9 8.817v6.66z"/><path d="M18476.4 336.315c-.2.364-.3.764-.1 1.119h-2.7c-1.1 0-1.7-1.11-1.2-2.011 1.2-2.202 2.7-5.75 2.7-10.263-.1-4.395-1.5-7.843-2.7-10.009-.5-.9.1-2.01 1.2-2.01h2.6c0 .218.1.436.2.646 1.3 2.411 2.9 6.241 3 11.127 0 5.013-1.6 8.953-3 11.401Zm-17.9 52.275h19v19.907h-19c-5.2 0-9.3-4.13-9.3-9.216v-1.474c0-5.086 4.1-9.217 9.3-9.217Z"/><path d="M18452 398.186v.701c0 3.794 3.2 6.869 7 6.869h18.7v2.73h-19.1c-5.1 0-9.3-4.122-9.3-9.217v-1.474c0-5.086 4.2-9.217 9.3-9.217h19.1v2.73h-18.7c-3.8 0-7 3.084-7 6.878Zm25.2-15.557h1.9c1.6 0 2.9 1.274 2.9 2.839v1.237c0 .655-.6 1.183-1.2 1.183h-5.3c-.7 0-1.2-.528-1.2-1.183v-1.237c0-1.565 1.3-2.839 2.9-2.839Zm-1.7 26.141h5.3c.6 0 1.2.527 1.2 1.182v1.238c0 1.565-1.3 2.838-2.9 2.838h-1.9c-1.6 0-2.9-1.273-2.9-2.838v-1.238c0-.655.5-1.182 1.2-1.182Z"/><path d="M18488.9 401.874c0 4.867-3.9 8.816-8.9 8.816h-6.4c-1 0-1.7-1.11-1.2-2.011 1.2-2.201 2.7-5.75 2.7-10.263 0-4.394-1.5-7.843-2.7-9.999-.5-.91.2-2.011 1.2-2.011h6.4c5 0 8.9 3.949 8.9 8.817v6.66z"/><path d="M18476.4 409.568c-.2.364-.3.765-.1 1.12h-2.7c-1.1 0-1.7-1.11-1.2-2.011 1.2-2.202 2.7-5.75 2.7-10.263-.1-4.395-1.5-7.843-2.7-10.009-.5-.9.1-2.01 1.2-2.01h2.6c0 .218.1.436.2.646 1.3 2.411 2.9 6.241 3 11.127 0 5.013-1.6 8.953-3 11.4Z"/></g><defs><clipPath id="a"><path fill="#fff" d="M9122 151h380v286h-380z"/></clipPath><clipPath id="b"><path fill="#fff" d="M10945 323h286v34h-286z"/></clipPath><clipPath id="c"><path fill="#fff" d="M20300 85h706v174h-706z"/></clipPath><clipPath id="d"><path fill="#fff" d="M6301.59 335.141h86.415v80.52h-86.415z"/></clipPath><clipPath id="e"><path fill="#fff" d="m6287.39 326.02 83.868 20.832L6351.865 425l-83.869-20.833z"/></clipPath><clipPath id="f"><path fill="#fff" d="M6482 177h393v575h-393z"/></clipPath><clipPath id="g"><path fill="#fff" d="M18435 218h68v293h-68z"/></clipPath></defs></svg>