<svg xmlns="http://www.w3.org/2000/svg" width="736" height="392" fill="none" viewBox="13108 538 736 392"><g><path fill="#2a4385" stroke="#2a4385" stroke-linecap="round" stroke-linejoin="round" stroke-width="2" d="M13160.5 883.492h-23.9c-1.2 0-2.1.948-2.1 2.117v38.1c0 1.169.9 2.117 2.1 2.117h23.9c1.2 0 2.1-.948 2.1-2.117v-38.1c0-1.169-.9-2.117-2.1-2.117m652.1 0h-23.9c-1.2 0-2.1.948-2.1 2.117v38.1c0 1.169.9 2.117 2.1 2.117h23.9c1.2 0 2.1-.948 2.1-2.117v-38.1c0-1.169-.9-2.117-2.1-2.117M13836.9 542h-721.8c-1.7 0-3.1 1.389-3.1 3.102v19.152c0 1.713 1.4 3.102 3.1 3.102h721.8c1.7 0 3.1-1.389 3.1-3.102v-19.152c0-1.713-1.4-3.102-3.1-3.102"/><path fill="#f7f3ea" stroke="#2a4385" stroke-linecap="round" stroke-linejoin="round" stroke-width="2" d="M13333 567.34h-205.3c-1.7 0-3.1 1.389-3.1 3.102v101.527c0 1.713 1.4 3.102 3.1 3.102h205.3c1.7 0 3.1-1.389 3.1-3.102V570.442c0-1.713-1.4-3.102-3.1-3.102m0 107.734h-205.3c-1.7 0-3.1 1.389-3.1 3.102v101.527a3.11 3.11 0 0 0 3.1 3.103h205.3c1.7 0 3.1-1.389 3.1-3.103V678.176c0-1.713-1.4-3.102-3.1-3.102"/><path fill="#f7f3ea" stroke="#2a4385" stroke-linecap="round" stroke-linejoin="round" stroke-width="2" d="M13333 782.805h-205.3c-1.7 0-3.1 1.389-3.1 3.102v101.527c0 1.713 1.4 3.102 3.1 3.102h205.3c1.7 0 3.1-1.389 3.1-3.102V785.907c0-1.713-1.4-3.102-3.1-3.102"/><path fill="#f7f3ea" stroke="#2a4385" stroke-linecap="round" stroke-linejoin="round" stroke-width="2" d="M13821.4 567.402h-482.8c-1.7 0-3.1 1.389-3.1 3.102v316.941c0 1.713 1.4 3.102 3.1 3.102h482.8c1.7 0 3.1-1.389 3.1-3.102V570.504c0-1.713-1.4-3.102-3.1-3.102"/><path fill="#f7f3ea" stroke="#2a4385" stroke-linecap="round" stroke-linejoin="round" stroke-width="2" d="M13568 567.344h-214.8c-1.7 0-3.1 1.389-3.1 3.102v295.481c0 1.713 1.4 3.102 3.1 3.102h214.8c1.7 0 3.1-1.389 3.1-3.102V570.446c0-1.713-1.4-3.102-3.1-3.102"/><path fill="#2a4385" stroke="#2a4385" stroke-linecap="round" stroke-linejoin="round" stroke-width="2" d="M13389.5 756.795v-86.361c0-1.254-1-2.27-2.3-2.27h-12.4c-1.2 0-2.2 1.016-2.2 2.27v86.361c0 1.253 1 2.27 2.2 2.27h12.4c1.3 0 2.3-1.017 2.3-2.27"/><path fill="#f7f3ea" stroke="#2a4385" stroke-linecap="round" stroke-linejoin="round" stroke-width="2" d="M13807.1 567.344h-214.7c-1.7 0-3.1 1.389-3.1 3.102v295.481c0 1.713 1.4 3.102 3.1 3.102h214.7c1.7 0 3.1-1.389 3.1-3.102V570.446c0-1.713-1.4-3.102-3.1-3.102"/><path fill="#2a4385" stroke="#2a4385" stroke-linecap="round" stroke-linejoin="round" stroke-width="2" d="M13629.3 756.225v-86.361c0-1.254-1-2.27-2.3-2.27h-12.4c-1.2 0-2.2 1.016-2.2 2.27v86.361c0 1.253 1 2.269 2.2 2.269h12.4c1.3 0 2.3-1.016 2.3-2.269M13257 582.93h-62.6c-1.3 0-2.3 1.016-2.3 2.27v11.663c0 1.254 1 2.27 2.3 2.27h62.6c1.2 0 2.2-1.016 2.2-2.27V585.2c0-1.254-1-2.27-2.2-2.27m0 108.656h-62.6c-1.3 0-2.3 1.016-2.3 2.27v11.664c0 1.253 1 2.27 2.3 2.27h62.6c1.2 0 2.2-1.017 2.2-2.27v-11.664c0-1.254-1-2.27-2.2-2.27m0 107.242h-62.6c-1.3 0-2.3 1.016-2.3 2.27v11.664c0 1.253 1 2.27 2.3 2.27h62.6c1.2 0 2.2-1.017 2.2-2.27v-11.664c0-1.254-1-2.27-2.2-2.27"/></g></svg>