<svg xmlns="http://www.w3.org/2000/svg" width="298.16" height="487.099" fill="none" viewBox="5300.49 312 298.16 487.099"><rect width="44" height="76" x="5357.5" y="323.5" fill="#f7f3ea" stroke="#8c98b7" rx="1.5"/><rect width="68" height="60" x="5370.5" y="567.5" fill="#f7f3ea" stroke="#8c98b7" rx="1.5"/><rect width="33" height="60" x="5367.5" y="682.5" fill="#f7f3ea" stroke="#8c98b7" rx="1.5"/><path fill="#f7f3ea" stroke="#8c98b7" d="M5345.5 399.5h231v7h-231z"/><rect width="44" height="62" x="5412.5" y="337.5" fill="#f7f3ea" stroke="#8c98b7" rx="1.5"/><path fill="#f7f3ea" stroke="#8c98b7" stroke-miterlimit="10" d="M5554.44 656h-24c-1.06 0-1.93.882-1.93 1.969v12.734c0 1.088.87 1.97 1.93 1.97h24c1.06 0 1.93-.882 1.93-1.97v-12.734c0-1.087-.87-1.969-1.93-1.969Z"/><path fill="#f7f3ea" stroke="#8c98b7" stroke-miterlimit="10" d="M5549.36 660.988h-13.35c-1.06 0-1.93.882-1.93 1.97v3.649c0 1.088.87 1.97 1.93 1.97h13.35c1.07 0 1.93-.882 1.93-1.97v-3.649c0-1.088-.86-1.97-1.93-1.97Zm-19.52-292.008 41.68-7.947c1.26-.238 2.4.833 2.27 2.142-.51 5.131-3.02 15.974-19.93 19.491 0 0-17.82 5.62-25.41-10.856-.55-1.19.12-2.592 1.38-2.83z"/><path fill="#f7f3ea" stroke="#8c98b7" stroke-miterlimit="10" d="M5529.98 374.031h42.4c1.28 0 2.21 1.27 1.85 2.539-1.41 4.945-5.81 15.14-23.04 15.431 0 0-18.54 2.182-23.06-15.431-.32-1.269.58-2.526 1.85-2.526z"/><path fill="#f7f3ea" stroke="#8c98b7" stroke-miterlimit="10" d="M5529.84 381.422h42.4c1.28 0 2.21 1.269 1.85 2.539-1.42 4.945-5.81 15.14-23.05 15.431 0 0-18.53 2.182-23.05-15.431-.32-1.27.58-2.526 1.85-2.526zM5404.79 315h-50.86c-1.07 0-1.93.888-1.93 1.983v5.607c0 1.095.86 1.983 1.93 1.983h50.86c1.06 0 1.93-.888 1.93-1.983v-5.607c0-1.095-.87-1.983-1.93-1.983Zm52.76 16.719h-47.03c-1.06 0-1.93.888-1.93 1.983v3.293c0 1.095.87 1.983 1.93 1.983h47.03c1.07 0 1.93-.888 1.93-1.983v-3.293c0-1.095-.86-1.983-1.93-1.983Zm-11.15 25.879h-24.05c-1.06 0-1.93.888-1.93 1.983v33.11c0 1.096.87 1.984 1.93 1.984h24.05c1.07 0 1.93-.888 1.93-1.984v-33.11c0-1.095-.86-1.983-1.93-1.983ZM5563.31 438h-52.54c-1.07 0-1.93.888-1.93 1.983v70.677c0 1.095.86 1.983 1.93 1.983h52.54c1.07 0 1.93-.888 1.93-1.983v-70.677c0-1.095-.86-1.983-1.93-1.983Z"/><path fill="#f7f3ea" stroke="#8c98b7" stroke-miterlimit="10" d="M5558.82 459.949h-42.79c-1.07 0-1.93.888-1.93 1.984v44.006c0 1.095.86 1.983 1.93 1.983h42.79c1.07 0 1.93-.888 1.93-1.983v-44.006c0-1.096-.86-1.984-1.93-1.984Zm-3.82-16.543h-36.35c-1.07 0-1.93.888-1.93 1.984v3.795c0 1.095.86 1.983 1.93 1.983H5555c1.07 0 1.93-.888 1.93-1.983v-3.795c0-1.096-.86-1.984-1.93-1.984Z"/><path fill="#f7f3ea" stroke="#8c98b7" stroke-miterlimit="10" d="m5543.96 473.057-42.87 11.716c-1.03.278-.86-.45-1.36 2.42l-.42 2.988c-.27 3.015-.68 2.856.35 2.579l46.08-12.853c1.03-.278 1.64-1.375 1.36-2.42l-.78-3.015c-.27-1.058-1.34-1.692-2.36-1.401zm-194.54-41.406-1.17.056c-1.06.052-1.89.981-1.84 2.075l3.35 76.631c.04 1.094.95 1.939 2.01 1.888l1.17-.057c1.06-.051 1.89-.98 1.84-2.074l-3.34-76.631c-.05-1.094-.95-1.94-2.02-1.888Zm6.67.071-1.17.104c-1.06.094-1.85 1.055-1.75 2.146l6.41 76.436c.09 1.091 1.02 1.9 2.09 1.805l1.16-.103c1.06-.094 1.85-1.055 1.76-2.147l-6.41-76.435c-.1-1.091-1.03-1.9-2.09-1.806Zm5.6.323-1.15.196c-1.06.177-1.77 1.198-1.59 2.279l12.1 75.702c.18 1.081 1.17 1.813 2.22 1.635l1.16-.195c1.05-.178 1.76-1.198 1.59-2.279l-12.11-75.702c-.18-1.081-1.17-1.813-2.22-1.636Zm8.01 143.025-12.02-7.737a.866.866 0 0 0-1.21.285l-.02.045a.91.91 0 0 0 .27 1.239l12.03 7.738c.41.263.95.135 1.2-.286l.03-.044a.91.91 0 0 0-.28-1.24Zm70.98 1.953 11.48-8.565a.92.92 0 0 0 .2-1.256l-.03-.043a.86.86 0 0 0-1.22-.2l-11.49 8.565a.92.92 0 0 0-.19 1.256l.03.043c.28.402.83.491 1.22.2Zm-1-15.644h-69.5c-1.07 0-1.93.888-1.93 1.983v4.218c0 1.096.86 1.984 1.93 1.984h69.5c1.07 0 1.93-.888 1.93-1.984v-4.218c0-1.095-.86-1.983-1.93-1.983ZM5410.4 554h-12.41c-1.06 0-1.93.888-1.93 1.984v3.411c0 1.096.87 1.984 1.93 1.984h12.41c1.07 0 1.93-.888 1.93-1.984v-3.411c0-1.096-.86-1.984-1.93-1.984Zm60.49 54h67.58c1.07 0 1.93.886 1.93 1.983 0 9.666-7.63 17.508-17.03 17.508H5486c-9.4 0-17.03-7.842-17.03-17.508 0-1.097.87-1.983 1.93-1.983z"/><path fill="#f7f3ea" stroke="#8c98b7" stroke-miterlimit="10" d="m5593.07 596.734-51.17 10.484c-1.04.214-1.72 1.258-1.51 2.333l.11.57c.21 1.075 1.22 1.772 2.27 1.558l51.16-10.484c1.05-.214 1.72-1.259 1.52-2.333l-.11-.571c-.21-1.074-1.23-1.771-2.27-1.557Zm-158.44 108.775 55.77-9.659c1.05-.182 2.04.545 2.22 1.627l1.57 9.571c1.63 9.988-4.93 19.451-14.63 21.131l-24.38 4.223c-9.72 1.682-18.92-5.064-20.56-15.039l-1.56-9.571c-.18-1.082.53-2.103 1.58-2.285zm98.81-26.593-39.53 15.465c-1 .389-1.5 1.535-1.12 2.559l.54 1.458c.38 1.024 1.49 1.538 2.49 1.149l39.53-15.465c1-.39 1.5-1.536 1.12-2.56l-.54-1.458c-.38-1.024-1.49-1.538-2.49-1.148Z"/><path fill="#f7f3ea" stroke="#8c98b7" stroke-miterlimit="10" d="m5537.27 703.411-41.48 8.543c-1.04.215-1.72 1.265-1.51 2.345l.29 1.538c.21 1.08 1.23 1.781 2.27 1.565l41.48-8.542c1.05-.216 1.72-1.265 1.52-2.345l-.3-1.538c-.21-1.08-1.23-1.781-2.27-1.566Z"/><path stroke="#8c98b7" d="M5334.96 512.676h249.29c.07 0 .14.059.14.161v6.096c0 .102-.07.161-.14.161h-249.29c-.06 0-.14-.059-.14-.161v-6.096c0-.102.08-.161.14-.161Zm-.32 114.824h246.72c.06 0 .14.054.14.161v6.098c0 .107-.08.161-.14.161h-246.72c-.06 0-.14-.054-.14-.161v-6.098c0-.08.04-.131.09-.151zm0 115h246.72c.06 0 .14.054.14.161v6.098c0 .107-.08.161-.14.161h-246.72c-.06 0-.14-.054-.14-.161v-6.098c0-.08.04-.131.09-.151z"/><path stroke="#8c98b7" d="M5338.28 390.824h4.68c.07 0 .15.059.15.161v404.953c0 .101-.08.16-.15.161h-4.68c-.06-.001-.14-.06-.14-.161V390.985c0-.102.08-.161.14-.161Z"/><path fill="#f7f3ea" stroke="#8c98b7" d="M5576.8 390.641h4.68c.07 0 .15.059.15.161v404.965c0 .102-.08.161-.15.161h-4.68c-.06-.001-.14-.059-.14-.161V390.802c0-.102.08-.161.14-.161Z"/><path fill="#f7f3ea" stroke="#8c98b7" stroke-miterlimit="10" d="M5344.13 397.188h-7.71c-1.07 0-1.93.888-1.93 1.983v7.934c0 1.096.86 1.984 1.93 1.984h7.71c1.07 0 1.93-.888 1.93-1.984v-7.934c0-1.095-.86-1.983-1.93-1.983Zm.28 113.097h-7.97c-1.06 0-1.92.888-1.92 1.984v8.185c0 1.096.86 1.984 1.92 1.984h7.97c1.06 0 1.92-.888 1.92-1.984v-8.185c0-1.096-.86-1.984-1.92-1.984Zm-.17 115.461h-7.8c-1.06 0-1.92.888-1.92 1.984v8.013c0 1.096.86 1.984 1.92 1.984h7.8c1.06 0 1.93-.888 1.93-1.984v-8.013c0-1.096-.87-1.984-1.93-1.984Zm-.16 114.617h-7.64c-1.06 0-1.92.888-1.92 1.984v7.855c0 1.095.86 1.983 1.92 1.983h7.64c1.07 0 1.93-.888 1.93-1.983v-7.855c0-1.096-.86-1.984-1.93-1.984Zm237.33-.648h-6.73c-1.06 0-1.93.888-1.93 1.983v6.916c0 1.096.87 1.984 1.93 1.984h6.73c1.06 0 1.93-.888 1.93-1.984v-6.916c0-1.095-.87-1.983-1.93-1.983Zm.74-114.961h-6.98c-1.06 0-1.93.888-1.93 1.983v7.181c0 1.095.87 1.983 1.93 1.983h6.98c1.07 0 1.93-.888 1.93-1.983v-7.181c0-1.095-.86-1.983-1.93-1.983Zm.58-114.469h-8.05c-1.06 0-1.93.888-1.93 1.984v8.278c0 1.095.87 1.983 1.93 1.983h8.05c1.07 0 1.93-.888 1.93-1.983v-8.278c0-1.096-.86-1.984-1.93-1.984Zm.54-113.269h-7.3c-1.07 0-1.93.888-1.93 1.983v7.511c0 1.096.86 1.984 1.93 1.984h7.3c1.07 0 1.93-.888 1.93-1.984v-7.511c0-1.095-.86-1.983-1.93-1.983Zm-181.18 285.226h-36.18c-1.06 0-1.91.789-1.91 1.762v3.476c0 .973.85 1.762 1.91 1.762h36.18c1.06 0 1.91-.789 1.91-1.762v-3.476c0-.973-.85-1.762-1.91-1.762Z"/><rect width="52" height="33" x="5448.5" y="479.5" fill="#f7f3ea" stroke="#8c98b7" rx="1.5"/><rect width="58" height="7" x="5445.5" y="472.5" fill="#f7f3ea" stroke="#8c98b7" rx="1.5"/><rect width="13" height="12" x="5468.5" y="460.5" fill="#f7f3ea" stroke="#8c98b7" rx="1.5"/><path fill="#f7f3ea" stroke="#8c98b7" d="M5437 713.5h55c.83 0 1.5.672 1.5 1.5v10c0 9.665-7.84 17.5-17.5 17.5h-23c-9.66 0-17.5-7.835-17.5-17.5v-10a1.5 1.5 0 0 1 1.35-1.492z"/><defs><clipPath id="a"><path fill="#fff" d="M0 0h23000v1117H0z"/></clipPath><clipPath id="c"><path fill="#fff" d="M6762 254h374v224h-374z"/></clipPath><clipPath id="d"><path fill="#fff" d="M15323 352.543h89.991v83.74H15323z"/></clipPath><clipPath id="e"><path fill="#fff" d="m15308.2 343.062 87.339 21.665-20.196 81.272-87.34-21.665z"/></clipPath><clipPath id="f"><path fill="#fff" d="M16249 344h286v34h-286z"/></clipPath><clipPath id="g"><path fill="#fff" d="M16765 132h706v174h-706z"/></clipPath></defs></svg>