<svg xmlns="http://www.w3.org/2000/svg" width="252" height="436" fill="none" viewBox="15675 316 252 436">
<g>
<rect width="13" height="12" x="15809.5" y="415.5" fill="#f7f3ea" stroke="#8c98b7" rx="1.5"/>
<rect width="58" height="7" x="15786.5" y="427.5" fill="#f7f3ea" stroke="#8c98b7" rx="1.5"/>
<rect width="52" height="33" x="15789.5" y="434.5" fill="#f7f3ea" stroke="#8c98b7" rx="1.5"/>
<path fill="#f7f3ea" stroke="#8c98b7" stroke-miterlimit="10" d="m15715.9 323.98 41.7-7.947c1.3-.238 2.4.833 2.3 2.142-.5 5.131-3.1 15.974-20 19.491 0 0-17.8 5.62-25.4-10.856-.5-1.19.1-2.592 1.4-2.83Z"/>
<path fill="#f7f3ea" stroke="#8c98b7" stroke-miterlimit="10" d="M15716.1 329.031h42.4c1.2 0 2.2 1.27 1.8 2.539-1.4 4.945-5.8 15.14-23 15.431 0 0-18.6 2.182-23.1-15.431-.3-1.269.6-2.526 1.9-2.526z"/>
<path fill="#f7f3ea" stroke="#8c98b7" stroke-miterlimit="10" d="M15715.9 336.422h42.4c1.3 0 2.2 1.269 1.9 2.539-1.4 4.945-5.8 15.14-23.1 15.431 0 0-18.5 2.182-23-15.431-.4-1.27.5-2.526 1.8-2.526zM15904.3 393h-52.5c-1.1 0-2 .888-2 1.983v70.677c0 1.095.9 1.983 2 1.983h52.5c1.1 0 1.9-.888 1.9-1.983v-70.677c0-1.095-.8-1.983-1.9-1.983Z"/>
<path fill="#f7f3ea" stroke="#8c98b7" stroke-miterlimit="10" d="M15899.8 414.949h-42.8c-1 0-1.9.888-1.9 1.984v44.006c0 1.095.9 1.983 1.9 1.983h42.8c1.1 0 2-.888 2-1.983v-44.006c0-1.096-.9-1.984-2-1.984Zm-3.8-16.543h-36.4c-1 0-1.9.888-1.9 1.984v3.795c0 1.095.9 1.983 1.9 1.983h36.4c1.1 0 1.9-.888 1.9-1.983v-3.795c0-1.096-.8-1.984-1.9-1.984Z"/>
<path fill="#f7f3ea" stroke="#8c98b7" stroke-miterlimit="10" d="m15885 428.057-42.9 11.716c-1 .278-.9-.45-1.4 2.42l-.4 2.988c-.3 3.015-.7 2.856.4 2.579l46-12.853a1.93 1.93 0 0 0 1.4-2.42l-.8-3.015c-.3-1.058-1.3-1.692-2.3-1.401zm-194.6-41.406-1.1.056c-1.1.052-1.9.981-1.9 2.075l3.4 76.631c0 1.094.9 1.939 2 1.888l1.1-.057c1.1-.051 1.9-.98 1.9-2.074l-3.4-76.631c0-1.094-.9-1.94-2-1.888Zm6.7.071-1.2.104c-1 .094-1.8 1.055-1.7 2.146l6.4 76.436c.1 1.091 1 1.9 2.1 1.805l1.1-.103a1.97 1.97 0 0 0 1.8-2.147l-6.4-76.435c-.1-1.091-1.1-1.9-2.1-1.806Zm5.6.323-1.2.196c-1 .177-1.7 1.198-1.6 2.279l12.2 75.702c.1 1.081 1.1 1.813 2.2 1.635l1.1-.195a1.93 1.93 0 0 0 1.6-2.279l-12.1-75.702c-.2-1.081-1.2-1.813-2.2-1.636Zm10.2 175.607h67.6c1.1 0 1.9.886 1.9 1.984 0 9.666-7.6 17.507-17 17.507h-37.4c-9.4 0-17-7.841-17-17.507 0-1.098.9-1.984 1.9-1.984Z"/>
<path fill="#f7f3ea" stroke="#8c98b7" stroke-miterlimit="10" d="m15835.1 551.39-51.2 10.484c-1 .214-1.7 1.259-1.5 2.333l.1.571a1.93 1.93 0 0 0 2.3 1.557l51.2-10.484c1-.214 1.7-1.259 1.5-2.333l-.1-.57c-.2-1.075-1.3-1.772-2.3-1.558Zm-59.5 109.119 55.8-9.659c1-.182 2 .545 2.2 1.627l1.6 9.571c1.6 9.988-4.9 19.451-14.6 21.131l-24.4 4.223c-9.7 1.682-18.9-5.064-20.6-15.039l-1.5-9.571c-.2-1.082.5-2.103 1.5-2.285zm98.8-26.593-39.5 15.465c-1 .389-1.5 1.535-1.1 2.559l.5 1.458c.4 1.024 1.5 1.538 2.5 1.149l39.6-15.465c.9-.39 1.4-1.536 1.1-2.56l-.6-1.458c-.3-1.024-1.5-1.538-2.5-1.148Z"/>
<path fill="#f7f3ea" stroke="#8c98b7" stroke-miterlimit="10" d="m15878.3 658.411-41.5 8.543c-1.1.215-1.7 1.265-1.5 2.345l.3 1.538c.2 1.08 1.2 1.781 2.2 1.565l41.5-8.542c1.1-.216 1.7-1.265 1.5-2.345l-.3-1.538c-.2-1.08-1.2-1.781-2.2-1.566Z"/>
<path stroke="#8c98b7" d="M15676 467.676h249.2c.1 0 .2.059.2.161v6.096c0 .102-.1.161-.2.161H15676c-.1 0-.2-.059-.2-.161v-6.096c0-.102.1-.161.2-.161Zm-.4 114.824h246.8s.1.054.1.161v6.098c0 .107-.1.161-.1.161h-246.8s-.1-.054-.1-.161v-6.098c0-.08 0-.131.1-.151zm0 115h246.8s.1.054.1.161v6.098c0 .107-.1.161-.1.161h-246.8s-.1-.054-.1-.161v-6.098c0-.08 0-.131.1-.151z"/>
<path stroke="#8c98b7" d="M15679.3 345.824h4.7s.1.059.1.161v404.953c0 .101-.1.16-.1.161h-4.7c-.1-.001-.2-.06-.2-.161V345.985c0-.102.1-.161.2-.161Z"/>
<path fill="#f7f3ea" stroke="#8c98b7" d="M15917.8 345.641h4.7c.1 0 .1.059.1.161v404.965c0 .102 0 .161-.1.161h-4.7c-.1-.001-.1-.059-.1-.161V345.802c0-.102 0-.161.1-.161Z"/>
<path fill="#f7f3ea" stroke="#8c98b7" stroke-miterlimit="10" d="M15685.1 352.188h-7.7c-1 0-1.9.888-1.9 1.983v7.934c0 1.096.9 1.984 1.9 1.984h7.7c1.1 0 2-.888 2-1.984v-7.934c0-1.095-.9-1.983-2-1.983Zm.3 113.097h-8c-1 0-1.9.888-1.9 1.984v8.185c0 1.096.9 1.984 1.9 1.984h8c1.1 0 1.9-.888 1.9-1.984v-8.185c0-1.096-.8-1.984-1.9-1.984Zm-.2 115.461h-7.8c-1 0-1.9.888-1.9 1.984v8.013c0 1.096.9 1.984 1.9 1.984h7.8c1.1 0 2-.888 2-1.984v-8.013c0-1.096-.9-1.984-2-1.984Zm-.1 114.617h-7.7c-1 0-1.9.888-1.9 1.984v7.855c0 1.095.9 1.983 1.9 1.983h7.7c1 0 1.9-.888 1.9-1.983v-7.855c0-1.096-.9-1.984-1.9-1.984Zm237.3-.648h-6.7c-1.1 0-1.9.888-1.9 1.983v6.916c0 1.096.8 1.984 1.9 1.984h6.7c1.1 0 1.9-.888 1.9-1.984v-6.916c0-1.095-.8-1.983-1.9-1.983Zm.8-114.961h-7c-1.1 0-2 .888-2 1.983v7.181c0 1.095.9 1.983 2 1.983h7c1 0 1.9-.888 1.9-1.983v-7.181c0-1.095-.9-1.983-1.9-1.983Zm.5-114.469h-8c-1.1 0-1.9.888-1.9 1.984v8.278c0 1.095.8 1.983 1.9 1.983h8c1.1 0 2-.888 2-1.983v-8.278c0-1.096-.9-1.984-2-1.984Zm.6-113.269h-7.3c-1.1 0-2 .888-2 1.983v7.511c0 1.096.9 1.984 2 1.984h7.3c1 0 1.9-.888 1.9-1.984v-7.511c0-1.095-.9-1.983-1.9-1.983Z"/>
<path fill="#f7f3ea" stroke="#8c98b7" d="M15686.5 354.5h231v7h-231zm91.5 314h55c.8 0 1.5.672 1.5 1.5v10c0 9.665-7.8 17.5-17.5 17.5h-23c-9.7 0-17.5-7.835-17.5-17.5v-10c0-.828.7-1.5 1.5-1.5Z"/>
</g>
</svg>