<svg xmlns="http://www.w3.org/2000/svg" width="556" height="476" fill="none" viewBox="7508 351 556 476"><g><path fill="#2a4385" stroke="#2a4385" stroke-linecap="round" stroke-linejoin="round" stroke-width="2" d="M8053.69 800.434h-14.68c-.71 0-1.29.579-1.29 1.294v23.29c0 .715.58 1.294 1.29 1.294h14.68c.72 0 1.3-.579 1.3-1.294v-23.29c0-.715-.58-1.294-1.3-1.294m-520.03 0h-14.68c-.71 0-1.29.579-1.29 1.294v23.29c0 .715.58 1.294 1.29 1.294h14.68c.72 0 1.3-.579 1.3-1.294v-23.29c0-.715-.58-1.294-1.3-1.294"/><path fill="#f7f3ea" stroke="#2a4385" stroke-linecap="round" stroke-linejoin="round" stroke-width="2" d="M7518 690h537V576h-537zm0 114h537V690h-537z"/><path fill="#2a4385" stroke="#2a4385" stroke-linecap="round" stroke-linejoin="round" stroke-width="2" d="M8061.27 566.359h-550.55c-.77 0-1.39.626-1.39 1.398v7.733c0 .771.62 1.397 1.39 1.397h550.55c.78 0 1.4-.626 1.4-1.397v-7.733c0-.772-.62-1.398-1.4-1.398"/><path fill="#2a4385" stroke="#2a4385" stroke-width="2" d="M7519 603h535v7h-535zm0 114h535v7h-535z"/><g clip-path="url(#b)"><path fill="#2a4385" d="M8000.06 554.008h-171.45a4.67 4.67 0 0 0-4.68 4.671v8.654c0 2.579 2.09 4.67 4.68 4.67h171.45c2.58 0 4.68-2.091 4.68-4.67v-8.654c0-2.58-2.1-4.671-4.68-4.671"/><path fill="#f7f3ea" stroke="#2a4385" stroke-linecap="round" stroke-linejoin="round" stroke-width="2" d="M7874.55 367.965h-61.52v190.064h61.52z"/><path fill="#f7f3ea" stroke="#2a4385" stroke-linecap="round" stroke-linejoin="round" stroke-width="2" d="M8011.99 367.965h-137.91v190.064h137.91z"/><path fill="#2a4385" stroke="#2a4385" stroke-miterlimit="10" stroke-width="1.5" d="M7986.11 400.609h-85.57c-2.11 0-3.83 1.802-3.83 4.025v125.754c0 2.222 1.72 4.024 3.83 4.024h85.57c2.12 0 3.83-1.802 3.83-4.024V404.634c0-2.223-1.71-4.025-3.83-4.025Z"/><path fill="#f7f3ea" stroke="#2a4385" stroke-miterlimit="10" stroke-width="2" d="M7983.35 403.617h-80.05c-1.98 0-3.58 1.721-3.58 3.843v120.103c0 2.123 1.6 3.843 3.58 3.843h80.05c1.98 0 3.58-1.72 3.58-3.843V407.46c0-2.122-1.6-3.843-3.58-3.843Z"/><path fill="#2a4385" stroke="#2a4385" stroke-linecap="round" stroke-linejoin="round" stroke-width="2" d="M7912.48 383.11c0 1.9-.97 3.538-3.42 3.538-2.46 0-4.44-1.537-4.44-3.437 0-1.901 1.98-3.438 4.44-3.438 2.45 0 3.42 1.436 3.42 3.337m59.74 0c0 1.9.97 3.538 3.42 3.538 2.46 0 4.44-1.537 4.44-3.437 0-1.901-1.98-3.438-4.44-3.438-2.45 0-3.42 1.436-3.42 3.337"/><path fill="#f7f3ea" stroke="#2a4385" stroke-linecap="round" stroke-linejoin="round" stroke-width="2" d="M7972.28 379.816h-59.03a1.88 1.88 0 0 0-1.88 1.881v3.376a1.88 1.88 0 0 0 1.88 1.881h59.03c1.04 0 1.89-.842 1.89-1.881v-3.376c0-1.039-.85-1.881-1.89-1.881"/><path fill="#2a4385" d="M7860.89 391.355h-33.56c-1.6 0-2.9 1.295-2.9 2.892v22.322c0 1.597 1.3 2.892 2.9 2.892h33.56c1.6 0 2.9-1.295 2.9-2.892v-22.322c0-1.597-1.3-2.892-2.9-2.892"/><path stroke="#2a4385" stroke-miterlimit="10" stroke-width="2" d="M7830.92 435.521c2.74 0 4.96-2.218 4.96-4.954a4.957 4.957 0 0 0-4.96-4.954 4.957 4.957 0 0 0-4.96 4.954 4.957 4.957 0 0 0 4.96 4.954Zm13.21 0c2.74 0 4.97-2.218 4.97-4.954s-2.23-4.954-4.97-4.954a4.957 4.957 0 0 0-4.96 4.954 4.957 4.957 0 0 0 4.96 4.954Zm13.23 0c2.74 0 4.97-2.218 4.97-4.954s-2.23-4.954-4.97-4.954a4.957 4.957 0 0 0-4.96 4.954 4.957 4.957 0 0 0 4.96 4.954Z"/><path stroke="#2a4385" stroke-linecap="round" stroke-miterlimit="10" stroke-width="2" d="M7825.06 442.191h38.14m-38.14 12.274h38.14"/><path fill="#f7f3ea" stroke="#2a4385" stroke-linecap="round" stroke-miterlimit="10" stroke-width="2" d="M7974.26 367.699h-123.67c-8.12 0-24.54-6.571-24.54-14.679h173.8c0 8.108-17.46 14.679-25.59 14.679Z"/><path stroke="#2a4385" stroke-miterlimit="10" stroke-width="2" d="M7836.53 454.551h14.43v6.329c0 .829-.67 1.496-1.5 1.496h-11.43c-.83 0-1.5-.667-1.5-1.496zm3.93 4.078h6.57"/><path fill="#f7f3ea" d="M7860.81 394.004h-19.29c-.55 0-.99.443-.99.991v.424c0 .547.44.991.99.991h19.29c.55 0 .99-.444.99-.991v-.424a.99.99 0 0 0-.99-.991"/></g></g><defs><clipPath id="a"><path fill="#fff" d="M0 0h23000v1117H0z"/></clipPath><clipPath id="b"><path fill="#fff" d="M7811 351h203v221h-203z"/></clipPath><clipPath id="c"><path fill="#fff" d="M9567 405h110.425v127.983H9567z"/></clipPath><clipPath id="d"><path fill="#fff" d="M-661 437h848v434h-848z"/></clipPath><clipPath id="e"><path fill="#fff" d="M15772 204h670v636h-670z"/></clipPath><clipPath id="f"><path fill="#fff" d="M16257.3 315.824h22.966v60.904h-22.966z"/></clipPath><clipPath id="g"><path fill="#fff" d="M16282.2 315.824h22.966v60.904h-22.966z"/></clipPath><clipPath id="h"><path fill="#fff" d="M16032.6 393.703h184.724v84.867H16032.6z"/></clipPath><clipPath id="i"><path fill="#fff" d="M16026.6 652.297h81.878v26.958h-81.878z"/></clipPath><clipPath id="j"><path fill="#fff" d="M16109.5 652.297h81.878v26.958h-81.878z"/></clipPath><clipPath id="k"><path fill="#fff" d="M16026.6 628.332h81.878v25.959h-81.878z"/></clipPath><clipPath id="l"><path fill="#fff" d="M16026.6 603.371h81.878v25.959h-81.878z"/></clipPath><clipPath id="m"><path fill="#fff" d="M16109.5 628.332h81.878v25.959h-81.878z"/></clipPath><clipPath id="n"><path fill="#fff" d="M16254 551h81.878v25.959H16254z"/></clipPath><clipPath id="o"><path fill="#fff" d="M16382.1 309.832h36.945v67.893h-36.945z"/></clipPath><clipPath id="p"><path fill="#fff" d="M16258.3 425.652h64.903v34.945h-64.903z"/></clipPath><clipPath id="q"><path fill="#fff" d="M16039 305h173v73h-173z"/></clipPath><clipPath id="r"><path fill="#fff" d="M16268 595h126v66h-126z"/></clipPath><clipPath id="s"><path fill="#fff" d="m19868 544 81.609 1.283-1.377 87.56-81.609-1.283z"/></clipPath></defs></svg>