<svg xmlns="http://www.w3.org/2000/svg" width="384" height="290" fill="none" viewBox="9120 149 384 290"><g stroke="#8c98b7" stroke-miterlimit="10" stroke-width="2" clip-path="url(#a)"><path d="M9128.08 330.309h373.28"/><path fill="#f7f3ea" d="M9351.7 151.996h374.56c11.47 0 20.79 9.319 20.79 20.788v214.688h-416.13V172.784c0-11.469 9.31-20.788 20.78-20.788Zm-164.89 153.003v80.185a2.32 2.32 0 0 0 2.33 2.309h141.56v-176a2.32 2.32 0 0 0-2.33-2.309h-71.86c-8.82 0-17.03 4.52-21.68 11.967-14.73 23.495-29.45 46.991-44.18 70.467a25.4 25.4 0 0 0-3.84 13.381Z"/><path fill="#f7f3ea" d="M9217.98 289.345h81.2c.7 0 1.28-.558 1.28-1.255v-63.339c0-1.394-1.14-2.509-2.53-2.509h-37.78c-3.91 0-7.59 1.633-10.2 4.421-.59.637-1.13 1.334-1.59 2.07l-33.84 54.439c-1.67 2.688.28 6.173 3.46 6.173Zm-35.81 83.553 70.07.14c-6.37 7.666-10.41 17.184-11.08 27.578l-55.2-.12c-1.24 0-2.25-.976-2.31-2.19a66.6 66.6 0 0 1-2.93-11.29c-.74-4.44-.94-8.403-.86-11.688 0-.16-.04-.996.64-1.713a2.32 2.32 0 0 1 1.69-.697zm569.28 13.459a118 118 0 0 1-.8 15.511l-407.13-1.016c-.58-10.394-4.16-19.931-9.88-27.637l417.01.976c.44 3.663.74 7.745.8 12.186z"/><path fill="#8c98b7" d="m9344.91 400.833-11.61-.04-80.5-.16-11.66-.039c.67-10.394 4.71-19.912 11.08-27.578 9.54-11.469 24.25-18.817 40.79-18.817 16.55 0 31.4 7.427 40.93 18.996 6.35 7.706 10.33 17.244 10.97 27.638Z"/><path fill="#f7f3ea" d="M9293.03 451.51c23.75 0 43-19.113 43-42.69 0-23.578-19.25-42.691-43-42.691-23.74 0-42.99 19.113-42.99 42.691 0 23.577 19.25 42.69 42.99 42.69Z"/><path fill="#f7f3ea" d="M9293.27 429.983c11.65 0 21.08-9.369 21.08-20.927s-9.43-20.927-21.08-20.927c-11.64 0-21.08 9.369-21.08 20.927s9.44 20.927 21.08 20.927Zm-106.3-101.944h10.05c3.41 0 6.17 2.768 6.17 6.173V350.5a6.17 6.17 0 0 1-6.17 6.172h-10.05z"/><path fill="#f7f3ea" d="M9122.85 151.852v284.296h189.48V151.852zm180.58 275.387h-171.68V160.752h171.68z"/><path fill="#f7f3ea" d="M9311.67 151.852v284.296h189.48V151.852zm180.57 275.387h-171.67V160.752h171.67z"/></g><defs><clipPath id="a"><path fill="#fff" d="M9122 151h380v286h-380z"/></clipPath><clipPath id="b"><path fill="#fff" d="M10945 323h286v34h-286z"/></clipPath><clipPath id="c"><path fill="#fff" d="M20300 85h706v174h-706z"/></clipPath><clipPath id="d"><path fill="#fff" d="M6301.59 335.141h86.415v80.52h-86.415z"/></clipPath><clipPath id="e"><path fill="#fff" d="m6287.39 326.02 83.868 20.832L6351.865 425l-83.869-20.833z"/></clipPath><clipPath id="f"><path fill="#fff" d="M6482 177h393v575h-393z"/></clipPath><clipPath id="g"><path fill="#fff" d="M18435 218h68v293h-68z"/></clipPath></defs></svg>