<svg xmlns="http://www.w3.org/2000/svg" width="24268" height="875" fill="none" viewBox="0 0 24268 875">
<path fill="#f7f3ea" stroke="#8c98b7" stroke-linecap="round" stroke-linejoin="round" stroke-width="2" d="M17037.8 165H16776c-1.7 0-3 1.173-3 2.62v581.653c0 1.447 1.3 2.62 3 2.62h261.8c1.7 0 3-1.173 3-2.62V167.62c0-1.447-1.3-2.62-3-2.62"/>
<path fill="#f7f3ea" stroke="#8c98b7" stroke-linecap="round" stroke-linejoin="round" stroke-width="2" d="M17049.2 226.594h-17.5c-1.4 0-2.6 1.172-2.6 2.617v19.492c0 1.446 1.2 2.618 2.6 2.618h17.5c1.4 0 2.6-1.172 2.6-2.618v-19.492c0-1.445-1.2-2.617-2.6-2.617m0 471.187h-17.4c-1.5 0-2.7 1.172-2.7 2.618v19.492c0 1.445 1.2 2.617 2.7 2.617h17.4c1.4 0 2.6-1.172 2.6-2.617v-19.492c0-1.446-1.2-2.618-2.6-2.618m-240.3-279.836h-4.1c-1.7 0-3.1 1.166-3.1 2.605v83.303c0 1.438 1.4 2.604 3.1 2.604h4.1c1.7 0 3-1.166 3-2.604V420.55c0-1.439-1.3-2.605-3-2.605m98.9-81.886c26.8 0 48.6-21.805 48.6-48.703s-21.8-48.704-48.6-48.704c-26.9 0-48.6 21.806-48.6 48.704s21.7 48.703 48.6 48.703"/>
<path fill="#f7f3ea" stroke="#8c98b7" stroke-linecap="round" stroke-linejoin="round" stroke-width="2" d="M16907.5 321.423c18.7 0 33.9-15.227 33.9-34.01 0-18.784-15.2-34.011-33.9-34.011-18.8 0-33.9 15.227-33.9 34.011 0 18.783 15.1 34.01 33.9 34.01"/>
<rect width="4" height="23" x="8590.5" y="293.93" fill="#f7f3ea" stroke="#8c98b7" rx="1.5"/>
<path fill="#f7f3ea" stroke="#8c98b7" stroke-miterlimit="10" d="M8674.62 258H8574.6c-.88 0-1.6.738-1.6 1.648v6.525c0 .91.72 1.648 1.6 1.648h100.02c.89 0 1.61-.738 1.61-1.648v-6.525c0-.91-.72-1.648-1.61-1.648Z"/>
<path fill="#f7f3ea" stroke="#8c98b7" stroke-miterlimit="10" d="M8578.96 265.526c1.41 0 2.54-1.171 2.54-2.615s-1.13-2.614-2.54-2.614c-1.4 0-2.54 1.17-2.54 2.614s1.14 2.615 2.54 2.615Zm91.15 0c1.41 0 2.55-1.171 2.55-2.615s-1.14-2.614-2.55-2.614c-1.4 0-2.54 1.17-2.54 2.614s1.14 2.615 2.54 2.615Zm-70.81 74.467h-13.9c-.83 0-3.4-.944-3.4-1.845l1.9-20.07c0-.901.67-1.648 1.5-1.648h13.9c.82 0 1.49.747 1.49 1.648l1.27 20.202c0 .912-1.94 1.702-2.75 1.702zm26.36-76.106h-3.61c-.89 0-1.6.737-1.6 1.648v25.497c0 .91.71 1.648 1.6 1.648h3.61c.88 0 1.6-.738 1.6-1.648v-25.497c0-.911-.72-1.648-1.6-1.648Z"/>
<path fill="#f7f3ea" stroke="#8c98b7" stroke-miterlimit="10" d="M8624.06 292.68h-.44c-.89 0-1.6.737-1.6 1.648v13.764c0 .91.71 1.648 1.6 1.648h.44c.88 0 1.6-.738 1.6-1.648v-13.764c0-.911-.72-1.648-1.6-1.648Z"/>
<path fill="#f7f3ea" stroke="#8c98b7" stroke-miterlimit="10" d="M8624.06 334.504c6.75 0 12.23-5.631 12.23-12.578s-5.48-12.578-12.23-12.578c-6.76 0-12.24 5.631-12.24 12.578s5.48 12.578 12.24 12.578Z"/>
<path stroke="#8c98b7" stroke-miterlimit="10" d="M8656.47 297.074s-18.28 46.04-.92 46.04l1.43-44.789s13.92 33.749 5.05 43.097c-1.07 1.132-2.59 1.692-4.13 1.692h-2.25"/>
<path stroke="#8c98b7" stroke-miterlimit="10" d="M8656.13 296.906s-6.54 41.174-1.5 46.05m2.64-46.05s9.1 45.198-1.71 46.05"/>
<path fill="#f7f3ea" stroke="#8c98b7" stroke-miterlimit="10" d="M8657.39 265.172h-1.84c-.88 0-1.6.738-1.6 1.648v28.254c0 .91.72 1.648 1.6 1.648h1.84c.89 0 1.6-.738 1.6-1.648V266.82c0-.91-.71-1.648-1.6-1.648Z"/>
<rect width="6" height="30" x="8589.5" y="263.93" fill="#f7f3ea" stroke="#8c98b7" rx="1.5"/>
<path fill="#f7f3ea" stroke="#8c98b7" stroke-miterlimit="10" d="M11764.9 278h-107.8c-1.2 0-2.1.973-2.1 2.173v10.446c0 1.2.9 2.173 2.1 2.173h107.8c1.2 0 2.1-.973 2.1-2.173v-10.446c0-1.2-.9-2.173-2.1-2.173Z"/>
<path fill="#f7f3ea" stroke="#8c98b7" stroke-miterlimit="10" d="M11701.8 286.246h-26.7c-1.2 0-2.1.973-2.1 2.173v40.783c0 1.201.9 2.174 2.1 2.174h26.7c1.2 0 2.1-.973 2.1-2.174v-40.783c0-1.2-.9-2.173-2.1-2.173Zm45.8 0h-26.8c-1.1 0-2.1.973-2.1 2.173v40.783c0 1.201 1 2.174 2.1 2.174h26.8c1.1 0 2.1-.973 2.1-2.174v-40.783c0-1.2-1-2.173-2.1-2.173Zm11.3 2.4c1.8 0 3.3-1.544 3.3-3.448s-1.5-3.448-3.3-3.448c-1.9 0-3.4 1.544-3.4 3.448s1.5 3.448 3.4 3.448Zm-95.3 0c1.9 0 3.4-1.544 3.4-3.448s-1.5-3.448-3.4-3.448-3.4 1.544-3.4 3.448 1.5 3.448 3.4 3.448ZM11764.9 370h-107.8c-1.2 0-2.1.973-2.1 2.173v10.446c0 1.2.9 2.173 2.1 2.173h107.8c1.2 0 2.1-.973 2.1-2.173v-10.446c0-1.2-.9-2.173-2.1-2.173Z"/>
<path fill="#f7f3ea" stroke="#8c98b7" stroke-miterlimit="10" d="M11701.8 378.246h-26.7c-1.2 0-2.1.973-2.1 2.173v40.783c0 1.201.9 2.174 2.1 2.174h26.7c1.2 0 2.1-.973 2.1-2.174v-40.783c0-1.2-.9-2.173-2.1-2.173Zm45.8 0h-26.8c-1.1 0-2.1.973-2.1 2.173v40.783c0 1.201 1 2.174 2.1 2.174h26.8c1.1 0 2.1-.973 2.1-2.174v-40.783c0-1.2-1-2.173-2.1-2.173Zm11.3 2.4c1.8 0 3.3-1.544 3.3-3.448s-1.5-3.448-3.3-3.448c-1.9 0-3.4 1.544-3.4 3.448s1.5 3.448 3.4 3.448Zm-95.3 0c1.9 0 3.4-1.544 3.4-3.448s-1.5-3.448-3.4-3.448-3.4 1.544-3.4 3.448 1.5 3.448 3.4 3.448Z"/>
<g opacity=".85"><path fill="#f7f3ea" stroke="#8c98b7" stroke-miterlimit="10" d="M13281.3 258.246h-105.6c-.4 0-.7.305-.7.682v13.815c0 .377.3.682.7.682h105.6c.4 0 .7-.305.7-.682v-13.815c0-.377-.3-.682-.7-.682Z"/><path fill="#8c98b7" d="M13242.2 255.953c2.6-3.428 5.5-6.333 9.1-9.129-2.6 3.282-5.6 6.26-9.1 9.129"/><path fill="#f7f3ea" stroke="#8c98b7" stroke-miterlimit="10" d="m13207.2 537.986-3.2.014c-2.2.009-4.4-.727-6.1-2.214-3.7-3.2-2.9-7.301-2.9-11.842l-.5-314.522c.2-6.81 5.1-12.984 10.2-13.334l.7-.05c1.2-.081 2.4-.04 3.5.2 3.5.741 6.4 2.928 8 8.697.5 2.077.8 4.246.8 6.41l-.8 311.885v2.559c.4 5.424-.3 9.92-6.1 11.674-1.2.355-2.4.51-3.6.528z"/><path fill="#000" d="M13251.4 509.929c-2.7-1.836-4.8-4.036-6.8-6.632 2.7 1.836 4.8 4.037 6.8 6.632"/><path fill="#f7f3ea" stroke="#8c98b7" stroke-miterlimit="10" d="m13251 537.986-3.2.014c-2.1.009-4.3-.727-6-2.214-3.7-3.2-2.9-7.301-2.9-11.842l-.5-314.522c.2-6.81 5-12.984 10.2-13.334l.7-.05c1.2-.081 2.3-.04 3.5.2 3.5.741 6.4 2.928 7.9 8.697.6 2.077.8 4.246.8 6.41l-.8 311.885c0 .855.1 1.709.1 2.559.4 5.424-.4 9.92-6.2 11.674-1.1.355-2.3.51-3.6.528zm-39.2-274.201h1.7c.6 0 1.1.487 1.1 1.091v14.088c0 1.091-.9 1.978-1.9 1.978-1.1 0-2-.887-2-1.978v-14.088c0-.6.5-1.091 1.1-1.091Zm-13 0h1.5c.7 0 1.2.55 1.2 1.232v13.947c0 1.091-.9 1.978-2 1.978-1 0-1.9-.887-1.9-1.978v-13.947c0-.682.5-1.232 1.2-1.232Z"/><path stroke="#8c98b7" stroke-miterlimit="10" d="M13197.6 266.398s1.6 2.451 3.9 0m9.2-.148s1.6 2.45 3.9 0"/><path fill="#f7f3ea" stroke="#8c98b7" stroke-miterlimit="10" d="M13242.9 263.785h1.5c.6 0 1.2.55 1.2 1.232v13.947c0 1.091-.9 1.978-2 1.978s-2-.887-2-1.978v-13.947c0-.682.6-1.232 1.3-1.232Z"/><path stroke="#8c98b7" stroke-miterlimit="10" d="M13241.6 266.398s1.7 2.451 4 0"/><path fill="#f7f3ea" stroke="#8c98b7" stroke-miterlimit="10" d="M13256 263.785h1.5c.7 0 1.2.55 1.2 1.232v13.947c0 1.091-.9 1.978-1.9 1.978-1.1 0-2-.887-2-1.978v-13.947c0-.682.5-1.232 1.2-1.232Z"/><path stroke="#8c98b7" stroke-miterlimit="10" d="M13254.8 266.398s1.6 2.451 3.9 0m-58.2 77.71c-1.1-1.15-1.6-2.677-1.5-4.223.3-4.36 1.7-16.115 6.9-16.115 5.3 0 6.8 7.673 6.8 18.183 0 .96-.5 1.869-1.3 2.387q-.45.238-.9.673c-.8.659-1.9 1-2.9.891-2.1-.223-4.8.177-5.8-.587 0 0-.7-.468-1.3-1.213z"/><path stroke="#8c98b7" stroke-miterlimit="10" d="M13199.9 343.293s-4.1 4.691-2.9 8.565c0 0 .9 3.345 4.8-.41 0 0 3.2-3.409 7.6-1.05.7.382 1.3.919 1.9 1.519.1.136.3.291.4.445 1.4 1.191 3.6.077 3.5-1.764-.1-1.563-.7-3.959-3.4-6.428"/><path stroke="#8c98b7" stroke-miterlimit="10" d="M13200 353.029s-.3 1.155-.4 2.692c-.1 1.536 0 3.604 1.1 5.159 1 1.419 2.7 2.46 5.7 2.46 7.2 0 6-10.574 6-10.574"/><path stroke="#8c98b7" stroke-miterlimit="10" d="M13200 359.469s1.2 4.328 2.1 7.76c.8 3.432 1 3.386 3.7 3.705 0 0 2.1.327 3.4-1.314.6-.718.8-1.846 1.1-2.869.4-2.018.9-5.337 1.3-7.023m32.8-14.596c-1-1.15-1.5-2.678-1.4-4.224.3-4.359 1.6-16.115 6.9-16.115 5.2 0 6.8 7.674 6.7 18.184 0 .959-.5 1.868-1.3 2.386q-.3.238-.9.673c-.8.659-1.8 1-2.8.891-2.1-.222-4.8.178-5.9-.586 0 0-.6-.468-1.3-1.214z"/><path stroke="#8c98b7" stroke-miterlimit="10" d="M13243.8 344.316s-4.1 4.692-2.8 8.565c0 0 .9 3.346 4.7-.409 0 0 3.3-3.41 7.7-1.05.7.382 1.3.918 1.8 1.518.2.136.3.291.5.446 1.4 1.191 3.6.077 3.5-1.764-.1-1.564-.7-3.96-3.4-6.428"/><path stroke="#8c98b7" stroke-miterlimit="10" d="M13244 354.053s-.4 1.154-.5 2.691.1 3.605 1.2 5.16c.9 1.418 2.7 2.459 5.7 2.459 7.1 0 6-10.574 6-10.574"/><path stroke="#8c98b7" stroke-miterlimit="10" d="M13244 360.488s1.2 4.328 2 7.76c.9 3.432 1.1 3.387 3.8 3.705 0 0 2.1.328 3.4-1.314.6-.718.8-1.845 1-2.868.5-2.018.9-5.337 1.4-7.024m-43 46.365q-.15-1.119-.3-2.259c-.2-3.491-1.2-12.274-6.4-12.251-6 .027-6.5 12.356-6.5 13.519v.191c-.1 1.291-1 14.406-.2 18.061.2.823.3 1.664.3 2.505.1 3.537.6 10.938 1.1 12.543 0 0 1.1 5.027 5.4 5.123 0 0 1.7.323 3.6-2.141 1-1.296 1.6-2.842 1.8-4.451.4-3.182 1.3-10.092 1.1-12.992v-2.205c.3-3.319.9-11.851.1-15.643Z"/><path fill="#8c98b7" stroke="#8c98b7" stroke-miterlimit="10" d="M13199.1 406.42s-4.3-1.163-5 8.288c0 .482-.2.95-.4 1.377-.5.855-1.2 2.605-1.3 5.033-.1.8.5 1.545 1.3 1.668.1.023.3.027.4.018.9-.073 1.6-.791 1.8-1.668.3-1.155.6-3.137.3-4.164-.2-.605-.2-1.228-.2-1.855.3-2.66 1.2-8.351 3-7.31l.1-1.382zm13.9-.168s3.8-1.163 4.4 8.288c0 .482.2.95.4 1.377.4.855 1.1 2.605 1.1 5.033.1.8-.4 1.545-1.1 1.668-.2.023-.3.027-.4.018-.8-.073-1.5-.791-1.6-1.668-.3-1.155-.6-3.137-.3-4.164.2-.605.2-1.228.2-1.855-.3-2.659-1.1-8.351-2.7-7.31z"/><path stroke="#8c98b7" stroke-miterlimit="10" d="M13256.9 406.374q-.15-1.119-.3-2.259c-.2-3.492-1.2-12.274-6.4-12.252-6 .028-6.5 12.356-6.5 13.52v.191c-.1 1.291-1 14.406-.2 18.061.2.823.3 1.664.3 2.505.1 3.537.6 10.938 1.1 12.542 0 0 1.1 5.028 5.4 5.124 0 0 1.7.322 3.6-2.142 1-1.295 1.6-2.841 1.8-4.45.4-3.182 1.3-10.092 1.1-12.992v-2.205c.3-3.319.9-11.852.1-15.643Z"/><path fill="#8c98b7" stroke="#8c98b7" stroke-miterlimit="10" d="M13243.4 405.686s-4.3-1.164-5 8.287c0 .482-.2.95-.4 1.378-.5.854-1.2 2.605-1.3 5.032-.1.8.5 1.546 1.3 1.669.1.022.3.027.4.018.9-.073 1.6-.791 1.8-1.669.3-1.154.6-3.136.3-4.164-.2-.604-.2-1.227-.2-1.854.3-2.66 1.2-8.351 3-7.31l.1-1.382zm13.9-.168s3.8-1.164 4.4 8.287c0 .482.2.951.4 1.378.4.854 1.1 2.605 1.1 5.032.1.8-.4 1.546-1.1 1.669-.2.022-.3.027-.4.018-.8-.073-1.5-.791-1.6-1.669-.2-1.154-.6-3.136-.3-4.164.2-.604.2-1.227.2-1.854-.3-2.66-1.1-8.351-2.7-7.31z"/></g>
<path fill="#f7f3ea" stroke="#8c98b7" stroke-miterlimit="10" d="M11403.8 165h-129c-1.5 0-2.8 1.298-2.8 2.898v65.582c0 1.601 1.3 2.899 2.8 2.899h129a2.9 2.9 0 0 0 2.9-2.899v-65.582a2.9 2.9 0 0 0-2.9-2.898Z"/>
<path stroke="#8c98b7" stroke-miterlimit="10" d="m11394.5 175.473 4.2 8.753-116.4-.116 4.6-8.386z"/>
<path stroke="#8c98b7" stroke-miterlimit="10" d="m11394.1 183.918 4.2 8.753-116.3-.116 4.5-8.386m107.3 8.675 4.2 8.753-116.4-.116 4.6-8.386"/>
<path stroke="#8c98b7" stroke-miterlimit="10" d="m11394.1 201.559 4.2 8.753-116.3-.135 4.5-8.387"/>
<path stroke="#8c98b7" stroke-miterlimit="10" d="m11393.8 209.984 4.2 8.773-116.4-.135 4.6-8.386m107.3 8.674 4.2 8.753-116.4-.115 4.6-8.387"/>
<path fill="#f7f3ea" stroke="#8c98b7" stroke-miterlimit="10" d="M18729.8 727.766h-6.8c-.5 0-.9.398-.9.89v20.061c0 .492.4.89.9.89h6.8c.5 0 .9-.398.9-.89v-20.061c0-.492-.4-.89-.9-.89ZM18796.5 727.766h-6.8c-.5 0-.9.398-.9.89v20.061c0 .492.4.89.9.89h6.8c.5 0 .9-.398.9-.89v-20.061c0-.492-.4-.89-.9-.89Z"/>
<path fill="#f7f3ea" stroke="#8c98b7" stroke-miterlimit="10" d="M18795.6 728.799h-71.6c-2 0-3.6-1.543-3.7-3.507l-5.8-118.576c-.1-1.596 1.1-2.931 2.7-2.931h85.1c1.6 0 2.9 1.335 2.8 2.931l-5.9 118.576c-.1 1.964-1.7 3.507-3.6 3.507Z"/>
<path fill="#f7f3ea" stroke="#8c98b7" stroke-miterlimit="10" d="M18787.1 747.109h-54.6c-.8 0-1.4-.623-1.4-1.406l-1-43.261c0-2.154 1.7-3.922 3.8-3.922h51.8c2.1 0 3.8 1.768 3.8 3.922l-1 43.261c0 .783-.7 1.406-1.4 1.406Zm20.6-156.078h-95.8c-.5 0-.9.399-.9.89v11.025c0 .491.4.89.9.89h95.8c.5 0 .9-.399.9-.89v-11.025c0-.491-.4-.89-.9-.89Z"/>
<path fill="#f7f3ea" stroke="#8c98b7" stroke-miterlimit="10" d="M18718 585.285h83.5c2.2 0 3.9 1.721 3.9 3.845v1.383c0 .32-.3.581-.6.581h-90c-.4 0-.6-.261-.6-.581v-1.383c0-2.124 1.7-3.845 3.8-3.845Zm64.4-.18h-45.3c-.1 0-.3-.154-.3-.344 0-2.076 1.7-3.762 3.8-3.762h38.4c2.1 0 3.8 1.686 3.8 3.762 0 .19-.2.344-.4.344Z"/>
<path fill="#8c98b7" stroke="#8c98b7" d="M18767.3 644.266c.6 0 1.1.334 1.4.858v.001l2.6 4.302.2.355.4-.14c.5-.184.9-.425 1.3-.676l-3.5 6.217-7.2-.073 1.8-.996-.3-.433-4.7-8.141v-.001l-.1-.196c-.3-.435-.6-.786-.9-1.088zm-12.9.359c1.3.047 2.4.669 3.2 1.816l1.5 2.606-4.6 7.973-7.2-4.223 3.9-6.693c.8-1.063 1.9-1.532 3.2-1.479Zm-1.8 19.955c-.5-.332-1.1-.671-1.4-.809l-.4-.176-.3.384-4.6 8.029c-.3.577-.5 1.129-.6 1.721l-4.5-7.75c-.3-.588-.3-1.259.1-1.866l2.4-4.338.2-.431-.4-.247-1.2-.728 7.1-.138zm5.7 5.928.1 8.408-7.6-.027c-1.2 0-2.3-.799-2.9-1.656-.8-1.165-.9-2.273-.6-3.4.4-1.092 1-2.175 1.7-3.325zm7.4-.437v.476l.5.002 8.8.029c.8 0 1.5-.122 2.2-.375l-4.5 7.834c-.3.433-.7.74-1.1.816l-.2.017-5.2.083-.5.008v2.065l-3.8-6.345 3.7-6.096zm13.3-7.051c.6 1.106.4 2.443-.3 3.598v.001c-.7 1.211-1.6 1.667-2.6 1.846-.5.093-1.1.112-1.8.107-.5-.003-1.1-.023-1.8-.021l-4.5-7.971 7.2-4.126z"/>
<path fill="#f7f3ea" stroke="#8c98b7" stroke-miterlimit="10" d="M18611.8 727.77h-6.8c-.5 0-.9.398-.9.89v20.061c0 .491.4.89.9.89h6.8c.5 0 .9-.399.9-.89V728.66c0-.492-.4-.89-.9-.89Zm66.7 0h-6.8c-.5 0-.9.398-.9.89v20.061c0 .491.4.89.9.89h6.8c.5 0 .9-.399.9-.89V728.66c0-.492-.4-.89-.9-.89Z"/>
<path fill="#f7f3ea" stroke="#8c98b7" stroke-miterlimit="10" d="M18677.6 728.803h-71.6c-2 0-3.6-1.543-3.7-3.507l-5.8-118.576c-.1-1.596 1.1-2.931 2.7-2.931h85.1c1.6 0 2.9 1.335 2.8 2.931l-5.9 118.576c-.1 1.964-1.7 3.507-3.6 3.507Z"/>
<path fill="#f7f3ea" stroke="#8c98b7" stroke-miterlimit="10" d="M18669.1 747.113h-54.6c-.8 0-1.4-.623-1.4-1.406l-1-43.261c0-2.154 1.7-3.923 3.8-3.923h51.8c2.1 0 3.8 1.769 3.8 3.923l-1 43.261c0 .783-.7 1.406-1.4 1.406Zm20.6-156.078h-95.8c-.5 0-.9.399-.9.89v11.025c0 .491.4.89.9.89h95.8c.5 0 .9-.399.9-.89v-11.025c0-.491-.4-.89-.9-.89Z"/>
<path fill="#f7f3ea" stroke="#8c98b7" stroke-miterlimit="10" d="M18600 585.285h83.5c2.2 0 3.9 1.721 3.9 3.845v1.383c0 .32-.3.581-.6.581h-90c-.4 0-.6-.261-.6-.581v-1.383c0-2.124 1.7-3.845 3.8-3.845Zm64.4-.18h-45.3c-.1 0-.3-.154-.3-.344 0-2.076 1.7-3.762 3.8-3.762h38.4c2.1 0 3.8 1.686 3.8 3.762 0 .19-.2.344-.4.344Z"/>
<path fill="#8c98b7" stroke="#8c98b7" d="M18649.3 644.266c.6 0 1.1.334 1.4.858v.001l2.6 4.302.2.355.4-.14c.5-.184.9-.425 1.3-.676l-3.5 6.217-7.2-.073 1.8-.996-.3-.433-4.7-8.141v-.001l-.1-.196c-.3-.435-.6-.786-.9-1.088zm-12.9.359c1.3.047 2.4.669 3.2 1.816l1.5 2.606-4.6 7.973-7.2-4.223 3.9-6.693c.8-1.063 1.9-1.532 3.2-1.479Zm-1.8 19.955c-.5-.332-1.1-.671-1.4-.809l-.4-.176-.3.384-4.6 8.029c-.3.577-.5 1.129-.6 1.721l-4.5-7.75c-.3-.588-.3-1.259.1-1.866l2.4-4.338.2-.431-.4-.247-1.2-.728 7.1-.138zm5.7 5.928.1 8.408-7.6-.027c-1.2 0-2.3-.799-2.9-1.656-.8-1.165-.9-2.273-.6-3.4.4-1.092 1-2.175 1.7-3.325zm7.4-.437v.476l.5.002 8.8.029c.8 0 1.5-.122 2.2-.375l-4.5 7.834c-.3.433-.7.74-1.1.816l-.2.017-5.2.083-.5.008v2.065l-3.8-6.345 3.7-6.096zm13.3-7.051c.6 1.106.4 2.443-.3 3.598v.001c-.7 1.211-1.6 1.667-2.6 1.846-.5.093-1.1.112-1.8.107-.5-.003-1.1-.023-1.8-.021l-4.5-7.971 7.2-4.126z"/>
<path fill="#f7f3ea" stroke="#8c98b7" stroke-miterlimit="10" d="M18854.8 727.77h-6.8c-.5 0-.9.398-.9.89v20.061c0 .491.4.89.9.89h6.8c.5 0 .9-.399.9-.89V728.66c0-.492-.4-.89-.9-.89Zm66.7 0h-6.8c-.5 0-.9.398-.9.89v20.061c0 .491.4.89.9.89h6.8c.5 0 .9-.399.9-.89V728.66c0-.492-.4-.89-.9-.89Z"/>
<path fill="#f7f3ea" stroke="#8c98b7" stroke-miterlimit="10" d="M18920.6 728.803h-71.6c-2 0-3.6-1.543-3.7-3.507l-5.8-118.576c-.1-1.596 1.1-2.931 2.7-2.931h85.1c1.6 0 2.9 1.335 2.8 2.931l-5.9 118.576c-.1 1.964-1.7 3.507-3.6 3.507Z"/>
<path fill="#f7f3ea" stroke="#8c98b7" stroke-miterlimit="10" d="M18912.1 747.113h-54.6c-.8 0-1.4-.623-1.4-1.406l-1-43.261c0-2.154 1.7-3.923 3.8-3.923h51.8c2.1 0 3.8 1.769 3.8 3.923l-1 43.261c0 .783-.7 1.406-1.4 1.406Zm20.6-156.078h-95.8c-.5 0-.9.399-.9.89v11.025c0 .491.4.89.9.89h95.8c.5 0 .9-.399.9-.89v-11.025c0-.491-.4-.89-.9-.89Z"/>
<path fill="#f7f3ea" stroke="#8c98b7" stroke-miterlimit="10" d="M18843 585.285h83.5c2.2 0 3.9 1.721 3.9 3.845v1.383c0 .32-.3.581-.6.581h-90c-.4 0-.6-.261-.6-.581v-1.383c0-2.124 1.7-3.845 3.8-3.845Zm64.4-.18h-45.3c-.1 0-.3-.154-.3-.344 0-2.076 1.7-3.762 3.8-3.762h38.4c2.1 0 3.8 1.686 3.8 3.762 0 .19-.2.344-.4.344Z"/>
<path fill="#8c98b7" stroke="#8c98b7" d="M18892.3 644.266c.6 0 1.1.334 1.4.858v.001l2.6 4.302.2.355.4-.14c.5-.184.9-.425 1.3-.676l-3.5 6.217-7.2-.073 1.8-.996-.3-.433-4.7-8.141v-.001l-.1-.196c-.3-.435-.6-.786-.9-1.088zm-12.9.359c1.3.047 2.4.669 3.2 1.816l1.5 2.606-4.6 7.973-7.2-4.223 3.9-6.693c.8-1.063 1.9-1.532 3.2-1.479Zm-1.8 19.955c-.5-.332-1.1-.671-1.4-.809l-.4-.176-.3.384-4.6 8.029c-.3.577-.5 1.129-.6 1.721l-4.5-7.75c-.3-.588-.3-1.259.1-1.866l2.4-4.338.2-.431-.4-.247-1.2-.728 7.1-.138zm5.7 5.928.1 8.408-7.6-.027c-1.2 0-2.3-.799-2.9-1.656-.8-1.165-.9-2.273-.6-3.4.4-1.092 1-2.175 1.7-3.325zm7.4-.437v.476l.5.002 8.8.029c.8 0 1.5-.122 2.2-.375l-4.5 7.834c-.3.433-.7.74-1.1.816l-.2.017-5.2.083-.5.008v2.065l-3.8-6.345 3.7-6.096zm13.3-7.051c.6 1.106.4 2.443-.3 3.598v.001c-.7 1.211-1.6 1.667-2.6 1.846-.5.093-1.1.112-1.8.107-.5-.003-1.1-.023-1.8-.021l-4.5-7.971 7.2-4.126z"/>
<path fill="#f7f3ea" stroke="#8c98b7" stroke-miterlimit="10" d="m11006.7 277.222-4.1-5.656h-33.3l-4.2 5.914c-.1.148-.1.345-.1.493v39.23c0 3.77 3.1 6.838 6.9 6.838h27.9c3.8 0 6.9-3.056 6.9-6.838v-39.427c.1-.16.1-.382 0-.554Z"/>
<path fill="#f7f3ea" stroke="#8c98b7" stroke-miterlimit="10" d="M11002 266h-32.2v5.643h32.2z"/>
<path fill="#f7f3ea" stroke="#8c98b7" d="M10970 259.5h31.7c1.1 0 2 .897 2 1.989v2.538c0 1.092-.9 1.989-2 1.989h-31.7c-1.1-.001-2-.897-2-1.989v-2.538c0-1.092.9-1.989 2-1.989Z"/>
<path stroke="#8c98b7" stroke-linecap="round" stroke-miterlimit="10" d="M10965.3 280.426h21.6"/>
<path fill="#f7f3ea" stroke="#8c98b7" stroke-miterlimit="10" d="m11047.3 290.95-2.4-4.016h-19.4l-2.4 4.201c-.1.099-.1.246-.1.345v27.882c0 2.686 1.8 4.854 4.1 4.854h16.2c2.2 0 4-2.18 4-4.854v-28.424z"/>
<path fill="#f7f3ea" stroke="#8c98b7" stroke-miterlimit="10" d="M11044.5 283h-18.7v4.017h18.7z"/>
<path fill="#f7f3ea" stroke="#8c98b7" d="M11026.1 278.5h18.1c.6 0 1.1.499 1.1 1.102v2.143c0 .602-.5 1.103-1.1 1.103h-18.1c-.6 0-1.1-.501-1.1-1.103v-2.143c0-.603.5-1.102 1.1-1.102Z"/>
<path stroke="#8c98b7" stroke-linecap="round" stroke-miterlimit="10" d="M11023.2 293.242h6.6"/>
<path fill="#f7f3ea" stroke="#8c98b7" stroke-miterlimit="10" d="m11092.1 293.879-2.7-3.684h-21.6l-2.7 3.857c-.1.098-.1.222-.1.32v25.566c0 2.464 2 4.46 4.5 4.46h18.1c2.5 0 4.5-1.996 4.5-4.46z"/>
<path fill="#f7f3ea" stroke="#8c98b7" stroke-miterlimit="10" d="M11089 287h-20.9v3.684h20.9z"/>
<path fill="#f7f3ea" stroke="#8c98b7" d="M11068.3 283.5h20.5c.7 0 1.2.51 1.2 1.126v1.651c0 .616-.5 1.126-1.2 1.126h-20.5c-.7 0-1.2-.51-1.2-1.126v-1.651c0-.616.5-1.126 1.2-1.126Z"/>
<path stroke="#8c98b7" stroke-linecap="round" stroke-miterlimit="10" d="M11078.7 295.973h12.9"/>
<path fill="#f7f3ea" stroke="#8c98b7" stroke-miterlimit="10" d="M18253.2 283.945h-2.4c-1 0-1.8.835-1.8 1.865v25.434c0 1.029.8 1.864 1.8 1.864h2.4c1 0 1.8-.835 1.8-1.864V285.81c0-1.03-.8-1.865-1.8-1.865Zm-153.2-.183h-2.2c-1 0-1.8.835-1.8 1.864v25.434c0 1.03.8 1.865 1.8 1.865h2.2c1 0 1.8-.835 1.8-1.865v-25.434c0-1.029-.8-1.864-1.8-1.864Zm146.5 22.593h-141.1c-1.3 0-2.4 1.129-2.4 2.52v1.529c0 1.392 1.1 2.52 2.4 2.52h141.1c1.4 0 2.5-1.128 2.5-2.52v-1.529c0-1.391-1.1-2.52-2.5-2.52Zm-44.6-29.191h7.4c3.3 0 5.9 2.703 5.9 6.04v20.685c0 1.283-1 2.318-2.2 2.318h-14.7c-1.3 0-2.3-1.035-2.3-2.318v-20.685c0-3.337 2.7-6.04 5.9-6.04Z"/>
<path fill="#f7f3ea" stroke="#8c98b7" stroke-miterlimit="10" d="M18213 271.25h-14.7c-1.2 0-2.3 1.037-2.3 2.317v1.406c0 1.28 1.1 2.317 2.3 2.317h14.7c1.2 0 2.2-1.037 2.2-2.317v-1.406c0-1.28-1-2.317-2.2-2.317Zm-36.4 5.914h7.5c3.2 0 5.8 2.703 5.8 6.04v20.685c0 1.283-1 2.318-2.2 2.318h-14.7c-1.2 0-2.3-1.035-2.3-2.318v-20.685c0-3.337 2.7-6.04 5.9-6.04Z"/>
<path fill="#f7f3ea" stroke="#8c98b7" stroke-miterlimit="10" d="M18187.7 271.25h-14.7c-1.2 0-2.2 1.037-2.2 2.317v1.406c0 1.28 1 2.317 2.2 2.317h14.7c1.2 0 2.2-1.037 2.2-2.317v-1.406c0-1.28-1-2.317-2.2-2.317Zm-65.6-41.301h7.4c3.4 0 6.5 7.158 6.5 17.857v50.97c0 4.112-1 7.431-2.3 7.431h-15.4c-1.3 0-2.3-3.319-2.3-7.431v-50.97c0-7.532 2.8-17.857 6.1-17.857Zm25.4 15.028h6.6c3.1 0 5.9 5.747 5.9 14.338v40.928c0 3.301-.9 5.966-2.1 5.966h-13.8c-1.2 0-2.1-2.665-2.1-5.966v-40.928c0-6.048 2.5-14.338 5.5-14.338ZM18129.3 225h-6c-1.3 0-2.3 1.037-2.3 2.317v.294c0 1.28 1 2.317 2.3 2.317h6c1.2 0 2.2-1.037 2.2-2.317v-.294c0-1.28-1-2.317-2.2-2.317Z"/>
<path fill="#f7f3ea" stroke="#8c98b7" stroke-miterlimit="10" d="M18153.9 241h-5.8c-1.1 0-2.1.842-2.1 1.881v.238c0 1.039 1 1.881 2.1 1.881h5.8c1.1 0 2.1-.842 2.1-1.881v-.238c0-1.039-1-1.881-2.1-1.881Zm-24.5 15h-6.8c-1.5 0-2.6 1.055-2.6 2.356v23.288c0 1.301 1.1 2.356 2.6 2.356h6.8c1.5 0 2.6-1.055 2.6-2.356v-23.288c0-1.301-1.1-2.356-2.6-2.356Zm24.5 7h-5.8c-1.1 0-2.1.829-2.1 1.851v18.298c0 1.022 1 1.851 2.1 1.851h5.8c1.1 0 2.1-.829 2.1-1.851v-18.298c0-1.022-1-1.851-2.1-1.851Zm71.9 14.164h7.4c3.3 0 5.9 2.703 5.9 6.04v20.685c0 1.283-1 2.318-2.2 2.318h-14.7c-1.3 0-2.3-1.035-2.3-2.318v-20.685c0-3.337 2.7-6.04 5.9-6.04Z"/>
<path fill="#f7f3ea" stroke="#8c98b7" stroke-miterlimit="10" d="M18246.1 291.203H18105c-1.3 0-2.4 1.128-2.4 2.52v1.529c0 1.391 1.1 2.519 2.4 2.519h141.1c1.4 0 2.5-1.128 2.5-2.519v-1.529c0-1.392-1.1-2.52-2.5-2.52Zm-9.2-19.801h-14.7c-1.3 0-2.3 1.038-2.3 2.318v1.405c0 1.28 1 2.318 2.3 2.318h14.7c1.2 0 2.2-1.038 2.2-2.318v-1.405c0-1.28-1-2.318-2.2-2.318Z"/>
<path fill="#f7f3ea" stroke="#8c98b7" stroke-miterlimit="10" d="M21767.2 376.803V236.695h-189.5v140.108z"/>
<path fill="#f7f3ea" stroke="#8c98b7" stroke-miterlimit="10" d="M21956.6 376.803V236.695h-189.5v140.108z"/>
<path stroke="#8c98b7" stroke-linecap="round" d="M21759.2 237.195v139.511"/>
<path fill="#f7f3ea" stroke="#8c98b7" stroke-miterlimit="10" d="M21345.2 376.803V236.695h-189.5v140.108z"/>
<path fill="#f7f3ea" stroke="#8c98b7" stroke-miterlimit="10" d="M21534.6 376.803V236.695h-189.5v140.108z"/>
<path stroke="#8c98b7" stroke-linecap="round" d="M21337.2 237.195v139.511"/>
<path fill="#f7f3ea" stroke="#8c98b7" stroke-miterlimit="10" d="M22189.2 376.803V236.695h-189.5v140.108z"/>
<path fill="#f7f3ea" stroke="#8c98b7" stroke-miterlimit="10" d="M22378.6 376.803V236.695h-189.5v140.108z"/>
<path stroke="#8c98b7" stroke-linecap="round" d="M22181.2 237.195v139.511"/>
<path fill="#f7f3ea" stroke="#8c98b7" stroke-miterlimit="10" d="M5726.7 82h-.14c-1.97 0-3.56 1.59-3.56 3.553v281.164a3.554 3.554 0 0 0 3.56 3.553h.14c1.96 0 3.55-1.591 3.55-3.553V85.553A3.55 3.55 0 0 0 5726.7 82Zm33.89.852h-.14c-1.97 0-3.56 1.59-3.56 3.553v281.164a3.554 3.554 0 0 0 3.56 3.553h.14a3.56 3.56 0 0 0 3.56-3.553V86.405a3.56 3.56 0 0 0-3.56-3.553Zm2682.69 192.493-25.06 28.963c-.67.779-.61 1.973.15 2.666l28.17 25.769c.76.693 1.92.624 2.59-.156l25.06-28.963c.68-.779.61-1.973-.15-2.666l-28.17-25.769a1.8 1.8 0 0 0-2.59.156Z"/>
<path stroke="#8c98b7" stroke-miterlimit="10" d="M8491.05 257h-1.1c-1.08 0-1.95.844-1.95 1.885v13.23c0 1.041.87 1.885 1.95 1.885h1.1c1.08 0 1.95-.844 1.95-1.885v-13.23c0-1.041-.87-1.885-1.95-1.885Zm-46 1h-1.1c-1.08 0-1.95.844-1.95 1.885v13.23c0 1.041.87 1.885 1.95 1.885h1.1c1.08 0 1.95-.844 1.95-1.885v-13.23c0-1.041-.87-1.885-1.95-1.885Z"/>
<path fill="#f7f3ea" stroke="#8c98b7" stroke-miterlimit="10" d="m8443.57 281.243-19.96 23.065c-.68.779-.61 1.973.15 2.666l22.43 20.521c.76.694 1.92.624 2.59-.155l19.96-23.065a1.92 1.92 0 0 0-.15-2.667l-22.43-20.521a1.8 1.8 0 0 0-2.59.156Z"/>
<path fill="#f7f3ea" stroke="#8c98b7" stroke-miterlimit="10" d="m8489.42 274.509-25.07 28.963c-.67.779-.6 1.973.16 2.666l28.16 25.769a1.81 1.81 0 0 0 2.6-.156l25.06-28.963c.67-.779.6-1.973-.15-2.666l-28.17-25.769a1.8 1.8 0 0 0-2.59.156Z"/>
<path fill="#f7f3ea" stroke="#8c98b7" stroke-miterlimit="10" d="m8489.71 280.415-19.96 23.065c-.67.779-.61 1.973.15 2.666l22.43 20.521a1.81 1.81 0 0 0 2.6-.155l19.95-23.065a1.92 1.92 0 0 0-.15-2.667l-22.43-20.521a1.797 1.797 0 0 0-2.59.156Zm436.31 59.968h-2.08c-.87 0-1.58.728-1.58 1.625v22.171c0 .897.71 1.625 1.58 1.625h2.08c.87 0 1.58-.728 1.58-1.625v-22.171c0-.897-.71-1.625-1.58-1.625Zm-133.52-.16h-1.92c-.87 0-1.58.727-1.58 1.625v22.171c0 .897.71 1.625 1.58 1.625h1.92c.88 0 1.58-.728 1.58-1.625v-22.171c0-.898-.7-1.625-1.58-1.625Zm127.72 19.695h-122.99c-1.17 0-2.13.983-2.13 2.197v1.332c0 1.213.96 2.197 2.13 2.197h122.99c1.18 0 2.14-.984 2.14-2.197v-1.332c0-1.214-.96-2.197-2.14-2.197Zm-38.89-25.445h6.47c2.83 0 5.12 2.356 5.12 5.265v18.031c0 1.118-.88 2.02-1.96 2.02h-12.8c-1.09 0-1.96-.902-1.96-2.02v-18.031c0-2.909 2.29-5.265 5.12-5.265z"/>
<path fill="#f7f3ea" stroke="#8c98b7" stroke-miterlimit="10" d="M8890.97 329.316h-12.8c-1.08 0-1.96.905-1.96 2.02v1.226c0 1.115.88 2.02 1.96 2.02h12.8c1.08 0 1.96-.905 1.96-2.02v-1.226c0-1.115-.88-2.02-1.96-2.02Zm-31.68 5.157h6.47c2.83 0 5.12 2.356 5.12 5.265v18.031c0 1.118-.88 2.02-1.96 2.02h-12.8c-1.09 0-1.96-.902-1.96-2.02v-18.031c0-2.909 2.29-5.265 5.12-5.265z"/>
<path fill="#f7f3ea" stroke="#8c98b7" stroke-miterlimit="10" d="M8868.93 329.316h-12.8c-1.08 0-1.96.905-1.96 2.02v1.226c0 1.115.88 2.02 1.96 2.02h12.8c1.08 0 1.96-.905 1.96-2.02v-1.226c0-1.115-.88-2.02-1.96-2.02Zm-33.07 9.329h6.47c2.83 0 5.12 2.356 5.12 5.265v13.856c0 1.118-.88 2.02-1.96 2.02h-12.8c-1.09 0-1.96-.902-1.96-2.02V343.91c0-2.909 2.29-5.265 5.12-5.265z"/>
<path fill="#f7f3ea" stroke="#8c98b7" stroke-miterlimit="10" d="M8845.89 335.312h-13.78c-1.16 0-2.11.822-2.11 1.835v.331c0 1.013.95 1.834 2.11 1.834h13.78c1.16 0 2.11-.821 2.11-1.834v-.331c0-1.013-.95-1.835-2.11-1.835Zm-34.03-42h6.14c2.83 0 5.45 6.24 5.45 15.566v44.431c0 3.584-.88 6.477-1.96 6.477h-12.8c-1.09 0-1.96-2.893-1.96-6.477v-44.431c0-6.566 2.3-15.566 5.13-15.566Zm6.15-4.312h-5.26c-1.09 0-1.97.904-1.97 2.02v.256c0 1.115.88 2.02 1.97 2.02h5.26c1.09 0 1.97-.905 1.97-2.02v-.256c0-1.116-.88-2.02-1.97-2.02Z"/>
<path fill="#f7f3ea" stroke="#8c98b7" stroke-miterlimit="10" d="M8818.01 322.5h-5.26c-1.09 0-1.97.904-1.97 2.02v19.97c0 1.116.88 2.02 1.97 2.02h5.26c1.09 0 1.97-.904 1.97-2.02v-19.97c0-1.116-.88-2.02-1.97-2.02Zm84.15 11.969h6.47c2.83 0 5.12 2.356 5.12 5.265v18.031c0 1.118-.88 2.02-1.97 2.02h-12.79c-1.09 0-1.96-.902-1.96-2.02v-18.031c0-2.909 2.29-5.265 5.12-5.265z"/>
<path fill="#f7f3ea" stroke="#8c98b7" stroke-miterlimit="10" d="M8919.84 346.711h-122.99c-1.18 0-2.13.983-2.13 2.196v1.333c0 1.213.95 2.197 2.13 2.197h122.99c1.18 0 2.14-.984 2.14-2.197v-1.333c0-1.213-.96-2.196-2.14-2.196Zm-8.06-17.262h-12.79c-1.09 0-1.96.905-1.96 2.02v1.226c0 1.115.87 2.019 1.96 2.019h12.79c1.09 0 1.97-.904 1.97-2.019v-1.226c0-1.115-.88-2.02-1.97-2.02ZM14289.9 82h-1.8c-.6 0-1.1.644-1.1 1.438v197.124c0 .794.5 1.438 1.1 1.438h1.8c.6 0 1.1-.644 1.1-1.438V83.438c0-.794-.5-1.438-1.1-1.438Zm12 0h-1.8c-.6 0-1.1.642-1.1 1.435v197.13c0 .793.5 1.435 1.1 1.435h1.8c.6 0 1.1-.642 1.1-1.435V83.435c0-.793-.5-1.435-1.1-1.435Z"/>
<path fill="#f7f3ea" stroke="#8c98b7" stroke-miterlimit="10" d="M14291.5 281.113h-4.9c-.6 0-1.2.643-1.2 1.435v1.531c0 .792.6 1.435 1.2 1.435h4.9c.6 0 1.2-.643 1.2-1.435v-1.531c0-.792-.6-1.435-1.2-1.435Zm11.4.098h-4.8c-.7 0-1.2.642-1.2 1.435v1.329c0 .793.5 1.435 1.2 1.435h4.8c.7 0 1.2-.642 1.2-1.435v-1.329c0-.793-.5-1.435-1.2-1.435Z"/>
<path fill="#f7f3ea" stroke="#8c98b7" stroke-miterlimit="10" d="M14312.2 285.41h-34c-.7 0-1.2.643-1.2 1.435v77.722c0 .792.5 1.434 1.2 1.434h34c.7 0 1.2-.642 1.2-1.434v-77.722c0-.792-.5-1.435-1.2-1.435Z"/>
<path fill="#f7f3ea" stroke="#8c98b7" stroke-miterlimit="10" d="M14306.2 295.215h-21.1c-.7 0-1.2.642-1.2 1.435v59.039c0 .793.5 1.435 1.2 1.435h21.1c.7 0 1.2-.642 1.2-1.435V296.65c0-.793-.5-1.435-1.2-1.435Zm-821.3-29.024h-.8c-1.1 0-2.1.961-2.1 2.145v29.255c0 1.185 1 2.145 2.1 2.145h.8c1.2 0 2.1-.96 2.1-2.145v-29.255c0-1.184-.9-2.145-2.1-2.145Zm-112.3 8.68h1.5c3.1 0 5.6 2.563 5.6 5.726v9.708c0 1.216-.9 2.197-2.1 2.197h-8.5c-1.1 0-2.1-.981-2.1-2.197v-9.708c0-3.163 2.5-5.726 5.6-5.726Zm19 0h1.5c3.1 0 5.6 2.563 5.6 5.726v9.708c0 1.216-.9 2.197-2.1 2.197h-8.5c-1.1 0-2.1-.981-2.1-2.197v-9.708c0-3.163 2.5-5.726 5.6-5.726Zm19 0h1.5c3.1 0 5.6 2.563 5.6 5.726v9.708c0 1.216-.9 2.197-2.1 2.197h-8.5c-1.1 0-2.1-.981-2.1-2.197v-9.708c0-3.163 2.5-5.726 5.6-5.726Zm18 0h1.5c3.1 0 5.6 2.563 5.6 5.726v9.708c0 1.216-.9 2.197-2.1 2.197h-8.5c-1.1 0-2.1-.981-2.1-2.197v-9.708c0-3.163 2.5-5.726 5.6-5.726Zm19 0h1.5c3.1 0 5.6 2.563 5.6 5.726v9.708c0 1.216-.9 2.197-2.1 2.197h-8.5c-1.1 0-2.1-.981-2.1-2.197v-9.708c0-3.163 2.5-5.726 5.6-5.726Zm19 0h1.5c3.1 0 5.6 2.563 5.6 5.726v9.708c0 1.216-.9 2.197-2.1 2.197h-8.5c-1.1 0-2.1-.981-2.1-2.197v-9.708c0-3.163 2.5-5.726 5.6-5.726ZM13359.7 266h-.6c-1.2 0-2.1.96-2.1 2.145V297.4c0 1.184.9 2.145 2.1 2.145h.6c1.2 0 2.1-.961 2.1-2.145v-29.255c0-1.185-.9-2.145-2.1-2.145Z"/>
<path fill="#f7f3ea" stroke="#8c98b7" stroke-miterlimit="10" d="M13479.2 291.969h-114.6c-1.5 0-2.8 1.297-2.8 2.898v1.759c0 1.6 1.3 2.898 2.8 2.898h114.6c1.6 0 2.8-1.298 2.8-2.898v-1.759c0-1.601-1.2-2.898-2.8-2.898Zm.1-17.43h-114.6a2.9 2.9 0 0 0-2.9 2.898v1.759a2.9 2.9 0 0 0 2.9 2.898h114.6c1.5 0 2.8-1.297 2.8-2.898v-1.759c0-1.6-1.3-2.898-2.8-2.898Z"/>
<rect width="14" height="4" x="13366.5" y="270.5" fill="#f7f3ea" stroke="#8c98b7" rx="2"/>
<rect width="14" height="4" x="13385.5" y="270.5" fill="#f7f3ea" stroke="#8c98b7" rx="2"/>
<rect width="14" height="4" x="13404.5" y="270.5" fill="#f7f3ea" stroke="#8c98b7" rx="2"/>
<rect width="14" height="4" x="13422.5" y="270.5" fill="#f7f3ea" stroke="#8c98b7" rx="2"/>
<rect width="14" height="4" x="13441.5" y="270.5" fill="#f7f3ea" stroke="#8c98b7" rx="2"/>
<rect width="14" height="4" x="13460.5" y="270.5" fill="#f7f3ea" stroke="#8c98b7" rx="2"/>
<path fill="#f7f3ea" stroke="#8c98b7" stroke-miterlimit="10" d="M13672.9 270.191h-.8c-1.1 0-2.1.961-2.1 2.145v29.255c0 1.185 1 2.145 2.1 2.145h.8c1.2 0 2.1-.96 2.1-2.145v-29.255c0-1.184-.9-2.145-2.1-2.145Zm-112.3 8.68h1.5c3.1 0 5.6 2.563 5.6 5.726v9.708c0 1.216-.9 2.197-2.1 2.197h-8.5c-1.1 0-2.1-.981-2.1-2.197v-9.708c0-3.163 2.5-5.726 5.6-5.726Zm19 0h1.5c3.1 0 5.6 2.563 5.6 5.726v9.708c0 1.216-.9 2.197-2.1 2.197h-8.5c-1.1 0-2.1-.981-2.1-2.197v-9.708c0-3.163 2.5-5.726 5.6-5.726Zm5.5-3.871h-9.5c-.9 0-1.6.747-1.6 1.669v.337c0 .922.7 1.67 1.6 1.67h9.5c.9 0 1.6-.748 1.6-1.67v-.337c0-.922-.7-1.669-1.6-1.669Zm19 0h-9.5c-.9 0-1.6.747-1.6 1.669v.337c0 .922.7 1.67 1.6 1.67h9.5c.9 0 1.6-.748 1.6-1.67v-.337c0-.922-.7-1.669-1.6-1.669Zm18 0h-9.5c-.9 0-1.6.747-1.6 1.669v.337c0 .922.7 1.67 1.6 1.67h9.5c.9 0 1.6-.748 1.6-1.67v-.337c0-.922-.7-1.669-1.6-1.669Zm19 0h-9.5c-.9 0-1.6.747-1.6 1.669v.337c0 .922.7 1.67 1.6 1.67h9.5c.9 0 1.6-.748 1.6-1.67v-.337c0-.922-.7-1.669-1.6-1.669Zm17 0h-9.5c-.9 0-1.6.747-1.6 1.669v.337c0 .922.7 1.67 1.6 1.67h9.5c.9 0 1.6-.748 1.6-1.67v-.337c0-.922-.7-1.669-1.6-1.669Zm-92 0h-9.5c-.9 0-1.6.747-1.6 1.669v.337c0 .922.7 1.67 1.6 1.67h9.5c.9 0 1.6-.748 1.6-1.67v-.337c0-.922-.7-1.669-1.6-1.669Zm32.5 3.871h1.5c3.1 0 5.6 2.563 5.6 5.726v9.708c0 1.216-.9 2.197-2.1 2.197h-8.5c-1.1 0-2.1-.981-2.1-2.197v-9.708c0-3.163 2.5-5.726 5.6-5.726Zm18 0h1.5c3.1 0 5.6 2.563 5.6 5.726v9.708c0 1.216-.9 2.197-2.1 2.197h-8.5c-1.1 0-2.1-.981-2.1-2.197v-9.708c0-3.163 2.5-5.726 5.6-5.726Zm19 0h1.5c3.1 0 5.6 2.563 5.6 5.726v9.708c0 1.216-.9 2.197-2.1 2.197h-8.5c-1.1 0-2.1-.981-2.1-2.197v-9.708c0-3.163 2.5-5.726 5.6-5.726Zm17 0h1.5c3.1 0 5.6 2.563 5.6 5.726v9.708c0 1.216-.9 2.197-2.1 2.197h-8.5c-1.1 0-2.1-.981-2.1-2.197v-9.708c0-3.163 2.5-5.726 5.6-5.726ZM13547.7 270h-.6c-1.2 0-2.1.96-2.1 2.145V301.4c0 1.184.9 2.145 2.1 2.145h.6c1.2 0 2.1-.961 2.1-2.145v-29.255c0-1.185-.9-2.145-2.1-2.145Z"/>
<path fill="#f7f3ea" stroke="#8c98b7" stroke-miterlimit="10" d="M13667.2 295.969h-114.6c-1.5 0-2.8 1.297-2.8 2.898v1.759c0 1.6 1.3 2.898 2.8 2.898h114.6c1.6 0 2.8-1.298 2.8-2.898v-1.759c0-1.601-1.2-2.898-2.8-2.898Zm.1-17.43h-114.6a2.9 2.9 0 0 0-2.9 2.898v1.759a2.9 2.9 0 0 0 2.9 2.898h114.6c1.5 0 2.8-1.297 2.8-2.898v-1.759c0-1.6-1.3-2.898-2.8-2.898Z"/>
<path stroke="#8c98b7" stroke-linecap="round" d="M6323.17 281.848c4.8 17.279-5.44 28.653-3.04 41.613 1.8 9.73-6.07 26.078 3.04 23.678"/>
<path stroke="#8c98b7" stroke-linecap="round" d="M6325.92 276.055c-4.8 17.279.29 18.118-2.11 31.078-1.8 9.73 12.8 40.007 4.16 40.487"/>
<path stroke="#8c98b7" stroke-linecap="round" d="M6322.76 282.375c-.96 21.12 8.57 24.925 6.17 37.885-1.8 9.73 24.47 22.559 16.31 24.959"/>
<path stroke="#8c98b7" stroke-linecap="round" d="M6322.23 275c-.96 24.48 12.94 15.98 2.86 45.739-3.17 9.373 3.84 29.28 13.92 25.92"/>
<path stroke="#8c98b7" stroke-linecap="round" d="M6328.93 280.342c-3.08.334-6.17 3.178-6.17 3.178 2.52.407 8.29.874 11.2-.511 2.92-1.385-1.95-3-5.03-2.667Zm-13.06-.081c3.12.329 7.03 3.119 7.03 3.119-2.35.396-7.86.85-11.15-.51s.99-2.939 4.12-2.609Z"/>
<path stroke="#8c98b7" stroke-miterlimit="10" d="M6211 214.699h57.33M6243.96 203s-2.73 11.689 0 11.689m-13.24-10.13s.96 10.132-1.78 10.132m22.03.008s-1.75 9.548 0 9.548"/>
<path fill="#f7f3ea" stroke="#8c98b7" stroke-miterlimit="10" d="M6127.59 594.241h-59.29a3.547 3.547 0 0 1-3.54-3.534v-8.174c0-1.931 1.6-3.533 3.54-3.533h59.29c1.95 0 3.53 1.602 3.53 3.533v8.174a3.54 3.54 0 0 1-1.6 2.945 3.5 3.5 0 0 1-1.93.589Zm-74.82 151.702c-.52-10.294-.12-10.906-.63-21.648-.31-6.077 0-83.435 0-87.511 0-.094 0-4.098-.03-4.216-.23-2.097 10.86-27.184 14.4-36.677a2.5 2.5 0 0 1 2.35-1.649h56.02c1.39 0 2.66.825 3.22 2.097l14.99 33.756c.21.447.3.942.3 1.436v107.487c0 3.745-1.39 7.396-4.07 9.988-1.2 1.154-2.59 2.025-4.03 2.025h-77.22c-3.46-.188-5.02.519-5.3-5.064z"/>
<path stroke="#8c98b7" stroke-miterlimit="10" d="M4528 412.431h35.1s6.97-1.374 7.25 11.938c.29 13.312 0 15.728 0 15.728m111.64-27.667h-118.91m45.51.236s-16.57-2.961-16.33 10.399m-62.55-45.858h118.6M4597.9 353s-5.64 24.184 0 24.184m-27.4-20.961s1.99 20.963-3.68 20.963m-13.72 19.779h69.45m-10.15-19.758s-3.62 19.755 0 19.755"/>
<path fill="#f7f3ea" stroke="#8c98b7" stroke-width="1.174" d="M7244.59 693.978h234.826v7.045H7244.59z"/>
<path fill="#f7f3ea" stroke="#8c98b7" stroke-miterlimit="10" d="M7391.98 407.247c-3.47 0-6.31-2.917-6.31-6.481v-26.284c0-3.565 2.84-6.482 6.31-6.482s6.31 2.917 6.31 6.482v26.284c0 3.564-2.84 6.481-6.31 6.481Z"/>
<path fill="#f7f3ea" d="M7394.74 391.668h-5.6c-1.67 0-3.02.501-3.02 1.12v4.592c0 .619 1.35 1.12 3.02 1.12h5.6c1.67 0 3.02-.501 3.02-1.12v-4.592c0-.619-1.35-1.12-3.02-1.12"/>
<path fill="#f7f3ea" stroke="#8c98b7" stroke-miterlimit="10" d="m7459.37 293.341-1.2.213c-1.05.186-1.74 1.21-1.54 2.287l3.9 21.297c.2 1.077 1.21 1.8 2.26 1.614l1.2-.213c1.05-.186 1.74-1.21 1.55-2.287l-3.91-21.298c-.2-1.077-1.21-1.799-2.26-1.613Z"/>
<path fill="#f7f3ea" stroke="#8c98b7" stroke-miterlimit="10" d="m7464.09 293.292-10.38 1.613c-.16.018-.3.033-.45.022a1.995 1.995 0 0 1-1.78-1.68l-3.03-18.613c-.17-1.08.53-2.088 1.58-2.26l10.39-1.612c1.05-.159 2.05.582 2.23 1.658l3.03 18.613c.17 1.08-.54 2.088-1.59 2.259Zm13.39 9.585c.17-1.072-.54-2.104-1.6-2.305-1.05-.202-2.05.504-2.23 1.575l-2.2 13.449c-.17 1.072.44 2.993 1.5 3.194 1.05.202 2.15-1.393 2.33-2.464z"/>
<path fill="#f7f3ea" stroke="#8c98b7" stroke-miterlimit="10" d="M7484.01 291.355c.82-6.234-1.72-11.788-5.66-12.404-3.94-.617-7.8 3.937-8.61 10.171s1.72 11.788 5.67 12.405c3.94.616 7.79-3.938 8.6-10.172Zm-28.21 24.281-4.75-10.301c-1.21-2.631-2.92-5.064-5.27-6.678-.45-.304-.49.053-3.24-1.494-4.35-2.472-6.28-10.155-6.28-10.155s-4.23-8.079 5.52-11.226c7.77-2.513 9.46 1.097 10.25 3.517.58 1.812.34 1.217.58 1.812.96 2.512 2.19 8.713.99 13.58-.25 1.018-.31 2.089-.27 3.107.09 2.327.73 4.588 1.74 6.664l5.43 11.174z"/>
<path stroke="#8c98b7" stroke-linecap="round" stroke-miterlimit="10" d="m7439.9 281.18 4.51 12.02m.53-14.216 4.72 11.597"/>
<path fill="#f7f3ea" stroke="#8c98b7" stroke-miterlimit="10" d="m7470.62 290.768-1.22-.136c-1.05-.118-2.01.669-2.12 1.758l-2.28 21.532c-.11 1.089.65 2.068 1.71 2.186l1.22.136c1.06.118 2.01-.669 2.12-1.758l2.28-21.532c.11-1.089-.65-2.068-1.71-2.186Zm14.38 12.56c.62-.896.41-2.133-.46-2.764a1.897 1.897 0 0 0-2.69.48l-7.7 11.244c-.61.896-.87 2.897 0 3.528.87.63 2.54-.348 3.15-1.244z"/>
<path fill="#f7f3ea" stroke="#8c98b7" stroke-miterlimit="10" d="M7479.36 315.031h-26.23c-1.07 0-1.94.931-1.94 2.078v33.482c0 1.147.87 2.077 1.94 2.077h26.23c1.07 0 1.94-.93 1.94-2.077v-33.482c0-1.147-.87-2.078-1.94-2.078Zm-4.2-22.977-10.42-1.388a2.4 2.4 0 0 1-.43-.106c-.81-.317-1.35-1.177-1.24-2.116l2.36-18.71c.14-1.084 1.1-1.851 2.16-1.719l10.41 1.388c1.06.146 1.8 1.137 1.68 2.222l-2.36 18.71c-.14 1.084-1.1 1.851-2.16 1.719Zm20.65 3.611c3.38-5.301 3.44-11.406.13-13.637s-8.73.258-12.11 5.558c-3.38 5.301-3.44 11.406-.13 13.637s8.73-.258 12.11-5.558Z"/>
<path fill="#f7f3ea" stroke="#8c98b7" stroke-miterlimit="10" d="M7470.63 272.575c.04-.414-.25-.786-.64-.83-.4-.045-.76.255-.81.668l-1.49 14.159c-.05.414.24.785.64.83s.76-.255.8-.669z"/>
<path fill="#f7f3ea" d="M7486.5 288.822s2.4-5.739 7.98-4.84z"/>
<path stroke="#8c98b7" stroke-linecap="round" stroke-miterlimit="10" d="M7486.5 288.822s2.4-5.739 7.98-4.84"/>
<path fill="#f7f3ea" stroke="#8c98b7" stroke-miterlimit="10" d="m7307.84 322.34 41.68-7.947c1.26-.238 2.4.833 2.27 2.142-.51 5.13-3.02 15.973-19.93 19.49 0 0-17.82 5.62-25.41-10.856-.55-1.19.12-2.591 1.38-2.829z"/>
<path fill="#f7f3ea" stroke="#8c98b7" stroke-miterlimit="10" d="M7307.98 327.391h42.4c1.29 0 2.21 1.269 1.85 2.538-1.41 4.946-5.81 15.141-23.04 15.432 0 0-18.53 2.181-23.06-15.432-.32-1.269.58-2.525 1.85-2.525z"/>
<path fill="#f7f3ea" stroke="#8c98b7" stroke-miterlimit="10" d="M7307.84 334.781h42.4c1.28 0 2.21 1.27 1.85 2.539-1.42 4.945-5.81 15.14-23.05 15.431 0 0-18.53 2.182-23.05-15.431-.32-1.269.58-2.526 1.85-2.526zM7478.31 391h-52.54c-1.07 0-1.93.888-1.93 1.983v70.677c0 1.095.86 1.983 1.93 1.983h52.54c1.07 0 1.93-.888 1.93-1.983v-70.677c0-1.095-.86-1.983-1.93-1.983Z"/>
<path fill="#f7f3ea" stroke="#8c98b7" stroke-miterlimit="10" d="M7473.82 412.949h-42.79c-1.07 0-1.93.888-1.93 1.984v44.006c0 1.095.86 1.983 1.93 1.983h42.79c1.07 0 1.93-.888 1.93-1.983v-44.006c0-1.096-.86-1.984-1.93-1.984Zm-3.82-16.543h-36.35c-1.06 0-1.93.888-1.93 1.984v3.795c0 1.095.87 1.983 1.93 1.983H7470c1.07 0 1.93-.888 1.93-1.983v-3.795c0-1.096-.86-1.984-1.93-1.984Zm-217.58-11.755-1.17.056c-1.06.052-1.88.981-1.84 2.075l3.35 76.631c.04 1.094.95 1.939 2.01 1.888l1.17-.057c1.06-.051 1.89-.98 1.84-2.074l-3.34-76.631c-.05-1.094-.95-1.94-2.02-1.888Zm6.67.071-1.17.104c-1.06.094-1.85 1.055-1.75 2.146l6.41 76.436c.09 1.091 1.02 1.9 2.09 1.805l1.16-.103c1.06-.094 1.85-1.055 1.76-2.147l-6.41-76.435c-.1-1.091-1.03-1.9-2.09-1.806Zm5.6.323-1.15.196c-1.05.177-1.77 1.198-1.59 2.279l12.11 75.702c.17 1.081 1.16 1.813 2.21 1.635l1.16-.195c1.05-.178 1.76-1.198 1.59-2.279l-12.11-75.702c-.18-1.081-1.17-1.813-2.22-1.636ZM7474.31 506h-52.54c-1.07 0-1.93.888-1.93 1.983v70.677c0 1.095.86 1.983 1.93 1.983h52.54c1.07 0 1.93-.888 1.93-1.983v-70.677c0-1.095-.86-1.983-1.93-1.983Z"/>
<path fill="#f7f3ea" stroke="#8c98b7" stroke-miterlimit="10" d="M7469.81 525.883h-42.8c-1.06 0-1.92.888-1.92 1.983v44.006c0 1.096.86 1.984 1.92 1.984h42.8c1.07 0 1.93-.888 1.93-1.984v-44.006c0-1.095-.86-1.983-1.93-1.983Zm-3.81-16.539h-36.35c-1.06 0-1.93.888-1.93 1.983v3.795c0 1.096.87 1.984 1.93 1.984H7466c1.07 0 1.93-.888 1.93-1.984v-3.795c0-1.095-.86-1.983-1.93-1.983Zm-93.5 69.376c17.68-5.445 27.78-23.562 22.58-40.466-5.21-16.903-23.76-26.192-41.44-20.746-17.67 5.445-27.78 23.562-22.57 40.465s23.76 26.192 41.43 20.747Zm-23.19-76.023c3.4-1.049 7.04.942 8.12 4.443l2.2 7.14c.22.695-.15 1.418-.83 1.626l-9.9 3.052c-.68.208-1.39-.181-1.61-.876l-2.2-7.14c-1.07-3.501.81-7.196 4.22-8.245ZM7461.6 606h-24c-1.06 0-1.92.882-1.92 1.969v12.734c0 1.088.86 1.97 1.92 1.97h24c1.07 0 1.93-.882 1.93-1.97v-12.734c0-1.087-.86-1.969-1.93-1.969Z"/>
<path fill="#f7f3ea" stroke="#8c98b7" stroke-miterlimit="10" d="M7456.52 610.988h-13.35c-1.06 0-1.93.882-1.93 1.97v3.649c0 1.088.87 1.97 1.93 1.97h13.35c1.07 0 1.93-.882 1.93-1.97v-3.649c0-1.088-.86-1.97-1.93-1.97Z"/>
<rect width="50" height="71" x="7424.5" y="622.5" fill="#f7f3ea" stroke="#8c98b7" rx="1.5"/>
<path fill="#f7f3ea" stroke="#8c98b7" stroke-miterlimit="10" d="m7452.65 655.388-41.48 8.543c-1.05.215-1.72 1.265-1.52 2.344l.3 1.538c.21 1.08 1.22 1.781 2.27 1.566l41.48-8.543c1.04-.215 1.72-1.265 1.51-2.345l-.29-1.538c-.21-1.079-1.23-1.78-2.27-1.565Z"/>
<path stroke="#8c98b7" d="M7237.64 352.746h249.29c.06 0 .14.059.14.161v6.096c0 .102-.08.161-.14.161h-249.29c-.06 0-.14-.059-.14-.161v-6.096c0-.102.08-.161.14-.161Zm.32 112.926h249.29c.06 0 .14.059.14.161v6.096c0 .102-.08.161-.14.161h-249.29c-.06 0-.14-.059-.14-.161v-6.096c0-.102.08-.161.14-.161Zm0 115.039h249.29c.06 0 .14.059.14.161v6.096c0 .102-.08.161-.14.161h-249.29c-.06 0-.14-.059-.14-.161v-6.096c0-.102.08-.161.14-.161Z"/>
<path stroke="#8c98b7" d="M7241.28 343.82h4.68c.07 0 .15.059.15.161v404.953c0 .101-.08.161-.15.161h-4.68c-.06-.001-.14-.06-.14-.161V343.981c0-.102.08-.16.14-.161Z"/>
<path fill="#f7f3ea" stroke="#8c98b7" d="M7479.8 343.637h4.68c.07 0 .15.059.15.161v404.965c0 .102-.08.161-.15.161h-4.68c-.06 0-.14-.059-.14-.161V343.798c0-.102.08-.161.14-.161Z"/>
<path fill="#f7f3ea" stroke="#8c98b7" stroke-miterlimit="10" d="M7247.13 350.184h-7.71c-1.07 0-1.93.888-1.93 1.983v7.934c0 1.096.86 1.984 1.93 1.984h7.71c1.07 0 1.93-.888 1.93-1.984v-7.934c0-1.095-.86-1.983-1.93-1.983Zm.27 113.097h-7.96c-1.06 0-1.93.888-1.93 1.984v8.185c0 1.096.87 1.984 1.93 1.984h7.96c1.07 0 1.93-.888 1.93-1.984v-8.185c0-1.096-.86-1.984-1.93-1.984Zm-.16 115.461h-7.8c-1.06 0-1.93.888-1.93 1.984v8.013c0 1.096.87 1.984 1.93 1.984h7.8c1.06 0 1.93-.888 1.93-1.984v-8.013c0-1.096-.87-1.984-1.93-1.984Zm-.16 114.617h-7.64c-1.06 0-1.93.888-1.93 1.984v7.855c0 1.095.87 1.983 1.93 1.983h7.64c1.07 0 1.93-.888 1.93-1.983v-7.855c0-1.096-.86-1.984-1.93-1.984Zm237.33-.648h-6.73c-1.06 0-1.93.888-1.93 1.983v6.916c0 1.096.87 1.984 1.93 1.984h6.73c1.06 0 1.93-.888 1.93-1.984v-6.916c0-1.095-.87-1.983-1.93-1.983Zm.74-114.961h-6.98c-1.07 0-1.93.888-1.93 1.984v7.18c0 1.095.86 1.983 1.93 1.983h6.98c1.07 0 1.93-.888 1.93-1.983v-7.18c0-1.096-.86-1.984-1.93-1.984Zm.58-114.469h-8.05c-1.06 0-1.93.888-1.93 1.984v8.278c0 1.095.87 1.983 1.93 1.983h8.05c1.07 0 1.93-.888 1.93-1.983v-8.278c0-1.096-.86-1.984-1.93-1.984Zm.54-113.269h-7.3c-1.07 0-1.93.888-1.93 1.983v7.511c0 1.096.86 1.984 1.93 1.984h7.3c1.07 0 1.93-.888 1.93-1.984v-7.511c0-1.095-.86-1.983-1.93-1.983Z"/>
<rect width="75.884" height="66.957" x="7266.56" y="626.558" fill="#f7f3ea" stroke="#8c98b7" stroke-width="1.116" rx="1.674"/>
<rect width="47" height="68" x="7368.5" y="397.5" fill="#f7f3ea" stroke="#8c98b7" rx="1.5"/>
<path fill="#f7f3ea" stroke="#8c98b7" d="M7350 663.5h58c.83 0 1.5.672 1.5 1.5v11c0 9.665-7.84 17.5-17.5 17.5h-26c-9.66 0-17.5-7.835-17.5-17.5v-11c0-.828.67-1.5 1.5-1.5Z"/>
<rect width="44" height="75" x="7261.5" y="277.5" fill="#f7f3ea" stroke="#8c98b7" rx="1.5"/>
<rect width="54" height="9" x="7256.5" y="268.5" fill="#f7f3ea" stroke="#8c98b7" rx="1.5"/>
<path fill="#f7f3ea" stroke="#8c98b7" stroke-miterlimit="10" d="m7266.84 638.037-13.11-8.413a.855.855 0 0 0-1.2.285l-.1.168c-.26.42-.14.973.27 1.236l13.11 8.412c.41.263.95.136 1.2-.284l.1-.168a.904.904 0 0 0-.27-1.236Zm76.6 2.118 12.51-9.312a.92.92 0 0 0 .2-1.253l-.12-.16a.86.86 0 0 0-1.22-.199l-12.51 9.311a.906.906 0 0 0-.19 1.253l.11.161c.28.401.83.49 1.22.199Zm-1.1-16.155h-75.41c-1.07 0-1.93.886-1.93 1.979v4.868c0 1.092.86 1.978 1.93 1.978h75.41c1.06 0 1.93-.886 1.93-1.978v-4.868c0-1.093-.87-1.979-1.93-1.979Zm-31.69-8h-13.72c-1.07 0-1.93.886-1.93 1.979v3.997c0 1.093.86 1.979 1.93 1.979h13.72c1.07 0 1.93-.886 1.93-1.979v-3.997c0-1.093-.86-1.979-1.93-1.979Z"/>
<path stroke="#8c98b7" stroke-miterlimit="10" d="M2539.26 79v256.475"/>
<path fill="#f7f3ea" stroke="#8c98b7" stroke-miterlimit="10" d="M2550.85 335.32h-23.29c-1.97 0-3.56 1.576-3.56 3.519v41.329c0 1.943 1.59 3.519 3.56 3.519h23.29c1.97 0 3.56-1.576 3.56-3.519v-41.329c0-1.943-1.59-3.519-3.56-3.519Z"/>
<path fill="#f7f3ea" stroke="#8c98b7" stroke-miterlimit="10" d="M2539.45 356.713c3.55 0 6.43-2.846 6.43-6.356 0-3.511-2.88-6.357-6.43-6.357-3.54 0-6.42 2.846-6.42 6.357 0 3.51 2.88 6.356 6.42 6.356Zm0 19.258c3.55 0 6.43-2.846 6.43-6.357 0-3.51-2.88-6.356-6.43-6.356-3.54 0-6.42 2.846-6.42 6.356 0 3.511 2.88 6.357 6.42 6.357Z"/>
<path stroke="#8c98b7" stroke-miterlimit="10" d="M721 516.431h35.102s6.968-1.374 7.253 11.938c.284 13.312 0 15.728 0 15.728M874.99 516.43H756.078m45.508.236s-16.568-2.961-16.331 10.399m-62.549-45.858H841.31M790.896 457s-5.641 24.184 0 24.184m-27.399-20.961s1.991 20.963-3.674 20.963M746.1 500.965h69.446m-10.144-19.758s-3.627 19.755 0 19.755M2225 242.431h35.1s6.97-1.374 7.25 11.938c.29 13.312 0 15.728 0 15.728m111.64-27.667h-118.91m45.51.236s-16.57-2.961-16.33 10.399m-62.55-45.858h118.6M2294.9 183s-5.64 24.184 0 24.184m-27.4-20.961s1.99 20.963-3.68 20.963m-13.72 19.779h69.45m-10.15-19.758s-3.62 19.755 0 19.755M2743 484.699h57.33M2775.96 473s-2.73 11.689 0 11.689m-13.24-10.13s.96 10.132-1.78 10.132m22.03.008s-1.75 9.548 0 9.548"/>
<path fill="#f7f3ea" stroke="#8c98b7" stroke-miterlimit="10" d="M4135.38 42h-.15c-2.09 0-3.79.585-3.79 1.307v160.655c0 .722 1.7 1.307 3.79 1.307h.15c2.09 0 3.79-.585 3.79-1.307V43.307c0-.722-1.7-1.307-3.79-1.307Zm.06 354.703h-.15a3.925 3.925 0 0 0-3.93 3.92v310.171c0 2.165 1.76 3.92 3.93 3.92h.15c2.17 0 3.93-1.755 3.93-3.92V400.623c0-2.165-1.76-3.92-3.93-3.92ZM4172.89 42h-.15c-2.09 0-3.79.585-3.79 1.307v160.655c0 .722 1.7 1.307 3.79 1.307h.15c2.09 0 3.78-.585 3.78-1.307V43.307c0-.722-1.69-1.307-3.78-1.307Zm-.06 355.645h-.15a3.924 3.924 0 0 0-3.93 3.919v310.171c0 2.165 1.76 3.92 3.93 3.92h.15c2.17 0 3.93-1.755 3.93-3.92V401.564a3.924 3.924 0 0 0-3.93-3.919Z"/>
<path fill="#f7f3ea" stroke="#8c98b7" stroke-miterlimit="10" d="M4204.89 205.27h-102.97a3.92 3.92 0 0 0-3.92 3.919v188.455a3.923 3.923 0 0 0 3.92 3.919h102.97c2.16 0 3.92-1.755 3.92-3.919V209.189a3.92 3.92 0 0 0-3.92-3.919Z"/>
<path fill="#8c98b7" stroke="#8c98b7" stroke-miterlimit="10" d="M4150.45 298.191h10.75l-15.82 21.009 7.16-17.403h-9.12l12.1-17.926z"/>
<path fill="#f7f3ea" stroke="#8c98b7" stroke-miterlimit="10" d="M2204.18 751.962c-2.28-1.029-2.9-3.958-1.25-5.838 6.61-7.52 20.77-19.454 31.69-23.709 9.49-3.701 19.77-17.099 22.37-22.324.6-1.207 1.27-2.335 2.05-3.443 3.33-4.691 12.54-16.169 24.16-18.406a14.92 14.92 0 0 0 9.41-6.056c3.67-5.244 9.41-12.487 14.43-14.486 1.25-.495 2.44-1.128 3.38-2.098 4.78-4.809 19.71-18.643 30.63-16.347 13.18 2.771 16.48 7.323 16.48 7.323s3.61.593 8.32 6.768c1.25 1.623 2.78 3.008 4.58 3.978 4.03 2.197 11.52 6.867 16.18 13.556 2.64 3.78 6.79 6.215 11.32 7.244 3.02.692 6.45 2.078 9.53 4.829 6.15 5.521 14.65 17.356 17.65 21.65a19 19 0 0 0 2.86 3.226c3.11 2.771 9.9 8.431 16.99 11.776 4.17 1.959 7.29 3.265 9.49 4.116a31.3 31.3 0 0 1 9.05 5.383c4.31 3.661 10.37 9.222 13.15 13.735 8.69 14.15-27.38 10.865-27.38 10.865s-9.71 3.483-19.77-.891c-3.04-1.326-6.4-1.741-9.63-.91-7.69 1.979-22.4 5.205-35.5 4.849-18.76-.515-33.97.019-33.97.019h-28.65s-18.24-7.362-34.98-1.543c-16.74 5.818-33.45-4.552-33.45-4.552s-2.78-2.771-20.27 3.285c-11.93 4.136-23.05.633-28.91-2.019zM5247.63 271h-.83c-1.21 0-2.19 1.007-2.19 2.25v475.673c0 1.242.98 2.25 2.19 2.25h.83c1.21 0 2.19-1.008 2.19-2.25V273.25c0-1.243-.98-2.25-2.19-2.25Zm-173.61 0h-.83c-1.21 0-2.19 1.007-2.19 2.25v475.673c0 1.242.98 2.25 2.19 2.25h.83c1.21 0 2.19-1.008 2.19-2.25V273.25c0-1.243-.98-2.25-2.19-2.25Z"/>
<path fill="#f7f3ea" stroke="#8c98b7" stroke-miterlimit="10" d="M5079.03 726.352h-10.92c-1.16 0-2.11.97-2.11 2.167s.95 2.167 2.11 2.167h10.92c1.16 0 2.11-.97 2.11-2.167s-.95-2.167-2.11-2.167Zm173 .601h-10.92c-1.16 0-2.11.97-2.11 2.167s.95 2.168 2.11 2.168h10.92c1.16 0 2.11-.971 2.11-2.168s-.95-2.167-2.11-2.167Zm-10.22-36.086h-163.39c-1.21 0-2.19 1.007-2.19 2.25v5.204c0 1.242.98 2.25 2.19 2.25h163.39c1.21 0 2.18-1.008 2.18-2.25v-5.204c0-1.243-.97-2.25-2.18-2.25Zm.16-160.867h-163.39c-1.21 0-2.19 1.007-2.19 2.25v5.204c0 1.242.98 2.249 2.19 2.249h163.39c1.2 0 2.18-1.007 2.18-2.249v-5.204c0-1.243-.98-2.25-2.18-2.25Zm0-75.387h-163.39c-1.21 0-2.19 1.007-2.19 2.25v5.204c0 1.242.98 2.25 2.19 2.25h163.39c1.2 0 2.18-1.008 2.18-2.25v-5.204c0-1.243-.98-2.25-2.18-2.25Zm0-45.758h-163.39c-1.21 0-2.19 1.008-2.19 2.25v5.204c0 1.243.98 2.25 2.19 2.25h163.39c1.2 0 2.18-1.007 2.18-2.25v-5.204c0-1.242-.98-2.25-2.18-2.25Zm0-131.66h-163.39c-1.21 0-2.19 1.007-2.19 2.25v5.204c0 1.242.98 2.25 2.19 2.25h163.39c1.2 0 2.18-1.008 2.18-2.25v-5.204c0-1.243-.98-2.25-2.18-2.25ZM6015.63 273h-.83c-1.21 0-2.19 1.007-2.19 2.25v475.673c0 1.242.98 2.25 2.19 2.25h.83c1.21 0 2.19-1.008 2.19-2.25V275.25c0-1.243-.98-2.25-2.19-2.25Zm-173.61 0h-.83c-1.21 0-2.19 1.007-2.19 2.25v475.673c0 1.242.98 2.25 2.19 2.25h.83c1.21 0 2.19-1.008 2.19-2.25V275.25c0-1.243-.98-2.25-2.19-2.25Z"/>
<path fill="#f7f3ea" stroke="#8c98b7" stroke-miterlimit="10" d="M5847.03 728.352h-10.92c-1.16 0-2.11.97-2.11 2.167s.95 2.167 2.11 2.167h10.92c1.16 0 2.11-.97 2.11-2.167s-.95-2.167-2.11-2.167Zm173 .601h-10.92c-1.16 0-2.11.97-2.11 2.167s.95 2.168 2.11 2.168h10.92c1.16 0 2.11-.971 2.11-2.168s-.95-2.167-2.11-2.167Zm-10.22-36.086h-163.39c-1.21 0-2.19 1.007-2.19 2.25v5.204c0 1.242.98 2.25 2.19 2.25h163.39c1.21 0 2.18-1.008 2.18-2.25v-5.204c0-1.243-.97-2.25-2.18-2.25Zm.16-160.867h-163.39c-1.21 0-2.19 1.007-2.19 2.25v5.204c0 1.242.98 2.249 2.19 2.249h163.39c1.2 0 2.18-1.007 2.18-2.249v-5.204c0-1.243-.98-2.25-2.18-2.25Zm0-75.387h-163.39c-1.21 0-2.19 1.007-2.19 2.25v5.204c0 1.242.98 2.25 2.19 2.25h163.39c1.2 0 2.18-1.008 2.18-2.25v-5.204c0-1.243-.98-2.25-2.18-2.25Zm0-45.758h-163.39c-1.21 0-2.19 1.008-2.19 2.25v5.204c0 1.243.98 2.25 2.19 2.25h163.39c1.2 0 2.18-1.007 2.18-2.25v-5.204c0-1.242-.98-2.25-2.18-2.25Zm0-131.66h-163.39c-1.21 0-2.19 1.007-2.19 2.25v5.204c0 1.242.98 2.25 2.19 2.25h163.39c1.2 0 2.18-1.008 2.18-2.25v-5.204c0-1.243-.98-2.25-2.18-2.25Z"/>
<path stroke="#8c98b7" stroke-miterlimit="10" d="M966.394 73v381.414"/>
<path fill="#f7f3ea" stroke="#8c98b7" stroke-miterlimit="10" d="M977.792 455.328h-23.245c-1.959 0-3.547 1.618-3.547 3.614v42.455c0 1.996 1.588 3.614 3.547 3.614h23.245c1.959 0 3.547-1.618 3.547-3.614v-42.455c0-1.996-1.588-3.614-3.547-3.614Z"/>
<path fill="#f7f3ea" stroke="#8c98b7" stroke-miterlimit="10" d="M966.394 477.329c3.539 0 6.409-2.924 6.409-6.53s-2.87-6.529-6.409-6.529-6.408 2.923-6.408 6.529 2.869 6.53 6.408 6.53Zm0 19.757c3.539 0 6.409-2.923 6.409-6.529s-2.87-6.53-6.409-6.53-6.408 2.924-6.408 6.53 2.869 6.529 6.408 6.529Z"/>
<path fill="#f7f3ea" stroke="#8c98b7" stroke-miterlimit="10" d="M2002.94 147.898h-306.77a3.55 3.55 0 0 0-3.55 3.553v595.727a3.55 3.55 0 0 0 3.55 3.553h306.77c1.97 0 3.56-1.591 3.56-3.553V151.451a3.554 3.554 0 0 0-3.56-3.553Z"/>
<path fill="#f7f3ea" stroke="#8c98b7" stroke-miterlimit="10" d="M2030.37 110h-360.81a3.554 3.554 0 0 0-3.56 3.553v30.793a3.554 3.554 0 0 0 3.56 3.553h360.81c1.96 0 3.55-1.591 3.55-3.553v-30.793a3.55 3.55 0 0 0-3.55-3.553Z"/>
<defs><clipPath id="a"><path fill="#fff" d="M9122 151h380v286h-380z"/></clipPath><clipPath id="b"><path fill="#fff" d="M10945 323h286v34h-286z"/></clipPath><clipPath id="c"><path fill="#fff" d="M20300 85h706v174h-706z"/></clipPath><clipPath id="d"><path fill="#fff" d="M6301.59 335.141h86.415v80.52h-86.415z"/></clipPath><clipPath id="e"><path fill="#fff" d="m6287.39 326.02 83.868 20.832L6351.865 425l-83.869-20.833z"/></clipPath><clipPath id="f"><path fill="#fff" d="M6482 177h393v575h-393z"/></clipPath><clipPath id="g"><path fill="#fff" d="M18435 218h68v293h-68z"/></clipPath></defs>
</svg>