<svg xmlns="http://www.w3.org/2000/svg" width="24268" height="875" fill="none" viewBox="0 0 24268 875"><g clip-path="url(#a)"><path fill="#f7f3ea" stroke="#2a4385" stroke-miterlimit="10" stroke-width="2" d="M4110.61 701.594h-60.34a3.305 3.305 0 0 0-3.31 3.302v4.908a3.305 3.305 0 0 0 3.31 3.302h60.34c1.83 0 3.31-1.478 3.31-3.302v-4.908a3.305 3.305 0 0 0-3.31-3.302Zm-3.91 11.773h-52.52a3.305 3.305 0 0 0-3.31 3.302v46.6a3.305 3.305 0 0 0 3.31 3.302h52.52c1.83 0 3.31-1.478 3.31-3.302v-46.6a3.305 3.305 0 0 0-3.31-3.302Z"/><path stroke="#2a4385" stroke-miterlimit="10" stroke-width="2" d="M4110.26 735.382c-43.55 5.302-55.94-22.562-55.94-22.562"/><path stroke="#2a4385" stroke-miterlimit="10" stroke-width="2" d="M4084.46 734.324s25.53-.33 25.53-9.84m-58.94 10.175c-.46 0-11.04 1.12-3.11-22.768"/><path fill="#2a4385" stroke="#2a4385" stroke-miterlimit="10" stroke-width="2" d="M1582.72 600.789h-9.23v7.686h9.23z"/><path fill="#f7f3ea" stroke="#2a4385" stroke-miterlimit="10" stroke-width="2" d="M1572.26 608.219h11.15c.49 0 .9.613.9 1.376v221.451h-12.94V609.595c0-.752.4-1.376.9-1.376zm324.57 0h11.15c.49 0 .9.613.9 1.376v221.451h-12.94V609.595c0-.752.4-1.376.9-1.376z"/><path fill="#f7f3ea" stroke="#2a4385" stroke-miterlimit="10" stroke-width="2" d="M1557.35 824.445h41.51c5.45 0 9.86 4.414 9.86 9.839v3.897h-61.23v-3.897c0-5.436 4.42-9.839 9.86-9.839Zm15.62-217.746h10.29c3.68 0 6.67 2.982 6.67 6.653v8.644h-23.62v-8.644c0-3.671 2.99-6.653 6.66-6.653Zm5.14-3.464c7.03 0 12.73-5.692 12.73-12.713 0-7.022-5.7-12.713-12.73-12.713-7.04 0-12.74 5.691-12.74 12.713s5.7 12.713 12.74 12.713Z"/><path fill="#2a4385" stroke="#2a4385" stroke-miterlimit="10" stroke-width="2" d="M1906.97 600.789h-9.23v7.686h9.23z"/><path fill="#f7f3ea" stroke="#2a4385" stroke-miterlimit="10" stroke-width="2" d="M1881.6 824.445h41.51c5.45 0 9.86 4.414 9.86 9.839v3.897h-61.24v-3.897c0-5.436 4.42-9.839 9.86-9.839zm15.61-217.746h10.29c3.68 0 6.66 2.982 6.66 6.653v8.644h-23.61v-8.644a6.66 6.66 0 0 1 6.66-6.653Zm5.14-3.464c7.04 0 12.74-5.692 12.74-12.713 0-7.022-5.7-12.713-12.74-12.713-7.03 0-12.73 5.691-12.73 12.713s5.7 12.713 12.73 12.713Z"/><mask id="a" width="375" height="55" x="1551" y="638" maskUnits="userSpaceOnUse" style="mask-type:luminance"><path fill="#fff" d="M1916.56 638.953h-356.13c-4.7 0-8.52 3.808-8.52 8.504v36.202c0 4.696 3.82 8.504 8.52 8.504h356.13c4.7 0 8.51-3.808 8.51-8.504v-36.202c0-4.696-3.81-8.504-8.51-8.504"/></mask><g stroke="#2a4385" stroke-miterlimit="10" stroke-width="2" mask="url(#a)"><path fill="#f7f3ea" d="M1577.69 692.098h-32.29l-19.25-53.059h32.29z"/><path fill="#2a4385" d="M1609.7 692.098h-32.28l-19.25-53.059h32.28z"/><path fill="#f7f3ea" d="M1641.72 692.098h-32.29l-19.25-53.059h32.29z"/><path fill="#2a4385" d="M1673.73 692.098h-32.28l-19.25-53.059h32.28z"/><path fill="#f7f3ea" d="M1705.75 692.098h-32.29l-19.25-53.059h32.29z"/><path fill="#2a4385" d="M1737.76 692.098h-32.28l-19.25-53.059h32.28zm.83 0h32.29l19.24-53.059h-32.29z"/><path fill="#f7f3ea" d="M1770.42 692.098h32.29l19.25-53.059h-32.29z"/><path fill="#2a4385" d="M1802.64 692.098h32.29l19.25-53.059h-32.29z"/><path fill="#f7f3ea" d="M1834.87 692.098h32.29l19.25-53.059h-32.29z"/><path fill="#2a4385" d="M1867.09 692.098h32.29l19.25-53.059h-32.29z"/><path fill="#f7f3ea" d="M1899.31 692.098h32.29l19.25-53.059h-32.29z"/></g><path stroke="#2a4385" stroke-miterlimit="10" stroke-width="2" d="M1916.57 638.672h-356.71c-4.7 0-8.52 3.807-8.52 8.504v36.201c0 4.697 3.82 8.504 8.52 8.504h356.71c4.7 0 8.52-3.807 8.52-8.504v-36.201c0-4.697-3.82-8.504-8.52-8.504Z"/><path fill="#f7f3ea" d="m1719.52 639.5 18.61 51.293 18.69-51.293z"/><mask id="b" width="375" height="54" x="1551" y="712" maskUnits="userSpaceOnUse" style="mask-type:luminance"><path fill="#fff" d="M1916.56 712.473h-356.13c-4.7 0-8.52 3.807-8.52 8.504v36.201c0 4.697 3.82 8.504 8.52 8.504h356.13c4.7 0 8.51-3.807 8.51-8.504v-36.201c0-4.697-3.81-8.504-8.51-8.504"/></mask><g stroke="#2a4385" stroke-miterlimit="10" stroke-width="2" mask="url(#b)"><path fill="#f7f3ea" d="M1577.69 765.616h-32.29l-19.25-53.069h32.29z"/><path fill="#2a4385" d="M1609.7 765.616h-32.28l-19.25-53.069h32.28z"/><path fill="#f7f3ea" d="M1641.72 765.616h-32.29l-19.25-53.069h32.29z"/><path fill="#2a4385" d="M1673.73 765.616h-32.28l-19.25-53.069h32.28z"/><path fill="#f7f3ea" d="M1705.75 765.616h-32.29l-19.25-53.069h32.29z"/><path fill="#2a4385" d="M1737.76 765.616h-32.28l-19.25-53.069h32.28zm.83 0h32.29l19.24-53.069h-32.29z"/><path fill="#f7f3ea" d="M1770.42 765.616h32.29l19.25-53.069h-32.29z"/><path fill="#2a4385" d="M1802.64 765.616h32.29l19.25-53.069h-32.29z"/><path fill="#f7f3ea" d="M1834.87 765.616h32.29l19.25-53.069h-32.29z"/><path fill="#2a4385" d="M1867.09 765.616h32.29l19.25-53.069h-32.29z"/><path fill="#f7f3ea" d="M1899.31 765.616h32.29l19.25-53.069h-32.29z"/></g><path stroke="#2a4385" stroke-miterlimit="10" stroke-width="2" d="M1916.57 712.191h-356.71c-4.7 0-8.52 3.808-8.52 8.504v36.202c0 4.697 3.82 8.504 8.52 8.504h356.71c4.7 0 8.52-3.807 8.52-8.504v-36.202c0-4.696-3.82-8.504-8.52-8.504Z"/><path fill="#f7f3ea" d="m1719.52 713.02 18.61 51.293 18.69-51.293z"/><path fill="#f7f3ea" stroke="#2a4385" stroke-miterlimit="10" stroke-width="2" d="M1354.95 614.666h-56.44c-1.86 0-3.36-1.52-3.36-3.352v-7.755c0-1.832 1.52-3.352 3.36-3.352h56.44c1.86 0 3.37 1.52 3.37 3.352v7.755c0 1.162-.61 2.19-1.53 2.793-.54.358-1.16.559-1.84.559Z"/><path fill="#f7f3ea" stroke="#2a4385" stroke-miterlimit="10" stroke-width="2" d="M1283.49 752.011c-.36-11.268-.36-10.215-.36-13.967-.29-5.766 0-79.155 0-83.021 0-.089 0-3.888-.02-4-.23-1.989 10.33-25.789 13.7-34.795.36-.938 1.23-1.564 2.24-1.564h53.32c1.33 0 2.54.782 3.08 1.989l14.26 32.024c.2.424.29.894.29 1.363v101.971c0 3.553-1.32 7.017-3.88 9.475-1.14 1.095-2.47 1.922-3.83 1.922h-69.25c-7.93 0-9.29-6.101-9.55-11.397Z"/><path fill="#f7f3ea" stroke="#2a4385" stroke-miterlimit="10" stroke-width="2" d="M8196.13 562.684H8040.1c-2.26 0-4.1 1.882-4.1 4.204v155.118c0 2.322 1.84 4.204 4.1 4.204h156.03c2.26 0 4.1-1.882 4.1-4.204V566.888c0-2.322-1.84-4.204-4.1-4.204Z"/><path stroke="#2a4385" stroke-miterlimit="10" stroke-width="2" d="M8036 589.508h164.23M8036 616.699h164.23M8036 644.445h164.23M8036 672.535h164.23M8036 696.863h164.23"/><path fill="#f7f3ea" stroke="#2a4385" stroke-miterlimit="10" stroke-width="2" d="M8140.16 562.684h-47.68c-2.26 0-4.1 1.882-4.1 4.204v3.055c0 2.322 1.84 4.205 4.1 4.205h47.68c2.27 0 4.1-1.883 4.1-4.205v-3.055c0-2.322-1.83-4.204-4.1-4.204Zm.88 27.222h-47.68c-2.26 0-4.1 1.883-4.1 4.205v3.055c0 2.322 1.84 4.205 4.1 4.205h47.68c2.26 0 4.1-1.883 4.1-4.205v-3.055c0-2.322-1.84-4.205-4.1-4.205Zm0 26.68h-47.68c-2.26 0-4.1 1.882-4.1 4.204v3.056c0 2.322 1.84 4.204 4.1 4.204h47.68c2.26 0 4.1-1.882 4.1-4.204v-3.056c0-2.322-1.84-4.204-4.1-4.204Zm0 28.027h-47.68c-2.26 0-4.1 1.883-4.1 4.205v3.055c0 2.322 1.84 4.205 4.1 4.205h47.68c2.26 0 4.1-1.883 4.1-4.205v-3.055c0-2.322-1.84-4.205-4.1-4.205Zm0 28.032h-47.68c-2.26 0-4.1 1.882-4.1 4.204v3.055c0 2.322 1.84 4.205 4.1 4.205h47.68c2.26 0 4.1-1.883 4.1-4.205v-3.055c0-2.322-1.84-4.204-4.1-4.204Zm0 24.703h-47.68c-2.26 0-4.1 1.882-4.1 4.204v3.055c0 2.323 1.84 4.205 4.1 4.205h47.68c2.26 0 4.1-1.882 4.1-4.205v-3.055c0-2.322-1.84-4.204-4.1-4.204Zm55.09 27.91h-154.28c-2.26 0-4.1 1.882-4.1 4.204v105.141c0 2.322 1.84 4.204 4.1 4.204h154.28c2.26 0 4.1-1.882 4.1-4.204V729.462c0-2.322-1.84-4.204-4.1-4.204Z"/><path fill="#f7f3ea" stroke="#2a4385" stroke-miterlimit="10" stroke-width="2" d="M8141.04 725.902h-47.68c-2.26 0-4.1 1.883-4.1 4.205v3.055c0 2.322 1.84 4.205 4.1 4.205h47.68c2.26 0 4.1-1.883 4.1-4.205v-3.055c0-2.322-1.84-4.205-4.1-4.205Zm-108.98-174.793h-162.78c-2.36 0-4.28 1.964-4.28 4.387v161.836c0 2.422 1.92 4.386 4.28 4.386h162.78c2.37 0 4.28-1.964 4.28-4.386V555.496c0-2.423-1.91-4.387-4.28-4.387Z"/><path stroke="#2a4385" stroke-miterlimit="10" stroke-width="2" d="M7865 579.094h171.34M7865 607.465h171.34M7865 636.414h171.34M7865 665.715h171.34M7865 691.098h171.34"/><path fill="#f7f3ea" stroke="#2a4385" stroke-miterlimit="10" stroke-width="2" d="M7973.67 551.109h-49.74c-2.36 0-4.28 1.964-4.28 4.387v3.187c0 2.423 1.92 4.387 4.28 4.387h49.74c2.37 0 4.28-1.964 4.28-4.387v-3.187c0-2.423-1.91-4.387-4.28-4.387Zm.92 28.403h-49.75c-2.36 0-4.28 1.964-4.28 4.386v3.188c0 2.423 1.92 4.387 4.28 4.387h49.75c2.36 0 4.28-1.964 4.28-4.387v-3.188c0-2.422-1.92-4.386-4.28-4.386Zm0 27.836h-49.75c-2.36 0-4.28 1.964-4.28 4.386v3.188c0 2.423 1.92 4.386 4.28 4.386h49.75c2.36 0 4.28-1.963 4.28-4.386v-3.188c0-2.422-1.92-4.386-4.28-4.386Zm0 29.242h-49.75c-2.36 0-4.28 1.964-4.28 4.386v3.188c0 2.423 1.92 4.387 4.28 4.387h49.75c2.36 0 4.28-1.964 4.28-4.387v-3.188c0-2.422-1.92-4.386-4.28-4.386Zm0 29.242h-49.75c-2.36 0-4.28 1.964-4.28 4.387v3.187c0 2.423 1.92 4.387 4.28 4.387h49.75c2.36 0 4.28-1.964 4.28-4.387v-3.187c0-2.423-1.92-4.387-4.28-4.387Zm0 25.793h-49.75c-2.36 0-4.28 1.964-4.28 4.387v3.187c0 2.423 1.92 4.387 4.28 4.387h49.75c2.36 0 4.28-1.964 4.28-4.387v-3.187c0-2.423-1.92-4.387-4.28-4.387Zm57.47 29.098h-160.95c-2.37 0-4.28 1.964-4.28 4.386v109.694c0 2.423 1.91 4.387 4.28 4.387h160.95c2.37 0 4.28-1.964 4.28-4.387V725.109c0-2.422-1.91-4.386-4.28-4.386Z"/><path fill="#f7f3ea" stroke="#2a4385" stroke-miterlimit="10" stroke-width="2" d="M7974.59 721.398h-49.75c-2.36 0-4.28 1.964-4.28 4.387v3.188c0 2.422 1.92 4.386 4.28 4.386h49.75c2.36 0 4.28-1.964 4.28-4.386v-3.188c0-2.423-1.92-4.387-4.28-4.387Z"/><path fill="#2a4385" d="M4834.15 858.461c-.01.007-.03.013-.05.023-.88.357-1.46-.912-.61-1.328.23-.114.47-.226.71-.336l24.96-11.492a.74.74 0 0 1 .95.304l.54.953c.22.378.05.857-.35 1.028l-11.97 5.033-8.88 3.664-5.29 2.149z"/><path fill="#f7f3ea" stroke="#2a4385" stroke-miterlimit="10" stroke-width="2" d="M4861.83 848.505c-2.18-2.092-2.98-6.224-1.72-6.968 1.58-.937 4.73 3.136 4.16 6.339-.1.514-.38 1.151-.92 1.262-.5.105-1.12-.248-1.52-.636z"/><path stroke="#2a4385" stroke-miterlimit="10" stroke-width="1.5" d="m4859.15 845.337.69-.298"/><path fill="#2a4385" d="M4739.21 858.233q.015.011.03.025c.63.403 1.27-.491.67-.935-.16-.122-.33-.242-.5-.362l-17.59-12.47a.585.585 0 0 0-.78.097l-.55.657c-.22.26-.17.653.12.843l8.51 5.612 6.31 4.108 3.77 2.423z"/><path fill="#f7f3ea" stroke="#2a4385" stroke-miterlimit="10" stroke-width="2" d="M4719.3 846.547c1.98-1.299 3.21-4.371 2.35-5.127-1.09-.952-4.12 1.736-4.14 4.29-.01.41.12.943.52 1.106.37.153.9-.03 1.27-.271z"/><path stroke="#2a4385" stroke-miterlimit="10" stroke-width="1.5" d="m4721.83 844.494-.49-.33"/><path fill="#2a4385" d="M4815.4 858.14c.04.681-.96.808-1.09.136-.16-.858-.28-1.728-.4-2.62l-1.59-11.977-.83-6.556a.56.56 0 0 1 .51-.617l.94-.066c.3-.021.52-.036.58.492l1.69 18.264.19 2.915v.033z"/><path fill="#f7f3ea" stroke="#2a4385" stroke-miterlimit="10" stroke-width="2" d="M4814.9 835.656c-2.65 1.333-6.29.516-5.99-.838.1-.438.6-.877 1.04-1.07 1.36-.582 2.82-.726 4.24-.354.57.151 1.19.542 1.39 1.097.15.432-.26.952-.68 1.165Z"/><path fill="#2a4385" d="M4828.51 847.603c-.49.478-1.25-.193-.82-.729a45 45 0 0 1 1.72-2.023l8.01-9.062 4.42-4.93a.554.554 0 0 1 .8-.023l.67.664c.21.209.36.366 0 .759l-12.7 13.269-2.08 2.053-.03.024z"/><path fill="#f7f3ea" stroke="#2a4385" stroke-miterlimit="10" stroke-width="2" d="M4845.18 832.452c-2.74-1.112-4.51-4.383-3.29-5.046.39-.214 1.05-.128 1.49.078 1.33.634 2.4 1.638 3.05 2.949.26.529.37 1.252.08 1.766-.22.401-.89.431-1.33.253ZM3712.19 717.453h-89.68c-.83 0-1.51.678-1.51 1.514v37.52c0 .837.68 1.514 1.51 1.514h89.68c.84 0 1.52-.677 1.52-1.514v-37.52c0-.836-.68-1.514-1.52-1.514Zm92.71 0h-89.68c-.84 0-1.51.678-1.51 1.514v37.52c0 .837.67 1.514 1.51 1.514h89.68c.84 0 1.51-.677 1.51-1.514v-37.52c0-.836-.67-1.514-1.51-1.514Zm92.72 0h-89.68c-.84 0-1.52.678-1.52 1.514v37.52c0 .837.68 1.514 1.52 1.514h89.68c.83 0 1.51-.677 1.51-1.514v-37.52c0-.836-.68-1.514-1.51-1.514Zm-135.56-41.156h-89.68c-.83 0-1.51.678-1.51 1.514v37.52c0 .836.68 1.514 1.51 1.514h89.68c.84 0 1.52-.678 1.52-1.514v-37.52c0-.836-.68-1.514-1.52-1.514Zm92.72 0h-89.68c-.84 0-1.51.678-1.51 1.514v37.52c0 .836.67 1.514 1.51 1.514h89.68c.84 0 1.51-.678 1.51-1.514v-37.52c0-.836-.67-1.514-1.51-1.514Zm92.71 0h-89.68c-.84 0-1.52.678-1.52 1.514v37.52c0 .836.68 1.514 1.52 1.514h89.68c.83 0 1.51-.678 1.51-1.514v-37.52c0-.836-.68-1.514-1.51-1.514Zm-231.78-41.152h-89.68c-.83 0-1.51.677-1.51 1.514v37.52c0 .836.68 1.514 1.51 1.514h89.68c.84 0 1.52-.678 1.52-1.514v-37.52c0-.837-.68-1.514-1.52-1.514Zm92.71 0h-89.68c-.84 0-1.51.677-1.51 1.514v37.52c0 .836.67 1.514 1.51 1.514h89.68c.84 0 1.51-.678 1.51-1.514v-37.52c0-.837-.67-1.514-1.51-1.514Zm92.72 0h-89.68c-.84 0-1.52.677-1.52 1.514v37.52c0 .836.68 1.514 1.52 1.514h89.68c.83 0 1.51-.678 1.51-1.514v-37.52c0-.837-.68-1.514-1.51-1.514ZM3851.17 594h-89.68c-.84 0-1.52.678-1.52 1.514v37.52c0 .836.68 1.514 1.52 1.514h89.68c.83 0 1.51-.678 1.51-1.514v-37.52c0-.836-.68-1.514-1.51-1.514Zm92.72 0h-89.69c-.83 0-1.51.678-1.51 1.514v37.52c0 .836.68 1.514 1.51 1.514h89.69c.83 0 1.51-.678 1.51-1.514v-37.52c0-.836-.68-1.514-1.51-1.514Z"/><path fill="#f7f3ea" stroke="#2a4385" stroke-miterlimit="10" stroke-width="2" d="M3777.58 594.293s14.76 40.72 46.18 12.022c0 0 21.98 10.993 27.81-12.022zm36.74 122.553s13.35 21.763 43.26 8.277a4.27 4.27 0 0 1 3.66.081c4.57 2.332 19.49 4.795 25.69-3.513 1.04-1.393 1.56-3.109 1.56-4.855h-74.17zm24.95-65.6-14.34 15.504c-.04.041-.04.103 0 .139s.1.032.14-.009l14.34-15.504c.04-.041.04-.103 0-.139s-.1-.032-.14.009Zm87.46 25.053s3.34 21.763 10.82 8.277c.29-.525.63-.494.92.081 1.15 2.332 4.88 4.795 6.42-3.513.27-1.393.4-3.109.4-4.855h-18.56zm-297.15-41.154s9.9 16.029 30.94 4.734c0 0 14.72 4.33 18.63-4.734zM4631.36 769.14h170.44c2.42 0 4.36 1.811 4.36 4.054v51.18c0 2.243-1.97 4.08-4.39 4.053l-170.44-1.324c-2.38 0-4.33-1.837-4.33-4.053v-49.883c0-2.243 1.95-4.054 4.36-4.054z"/><path fill="#f7f3ea" d="M4806.18 773.159c-.08-10.538-.83-18.238-1.76-23.804-1.28-7.727-7.96-13.347-15.71-13.347h-143.92c-15.57 0-17.66 20.075-17.79 28.964-.03 2.269 1.76 4.134 4.01 4.134h175.17"/><path stroke="#2a4385" stroke-miterlimit="10" stroke-width="2" d="M4806.18 773.159c-.08-10.538-.83-18.238-1.76-23.804-1.28-7.727-7.96-13.347-15.71-13.347h-143.92c-15.57 0-17.66 20.075-17.79 28.964-.03 2.269 1.76 4.134 4.01 4.134h175.17"/><path fill="#2a4385" stroke="#2a4385" stroke-miterlimit="10" stroke-width="2" d="M4753.41 735.509h-2.64c0-3.959 1.31-18.613-9.36-18.952-8.95-.285-35.13 0-44.99 0-1.94 0-7.58-.469-10.6 2.999-2.66 3.058-4.43 7.742-3.05 15.993h-2.64s-4.79-22.99 14.4-22.99h46.03c4.1 0 7.57 1.601 9.55 4.003 3.3 4.004 3.33 8.823 3.3 18.947Z"/><path fill="#f7f3ea" stroke="#2a4385" stroke-miterlimit="10" stroke-width="2" d="M4667.48 759.918h-6.76c-2.21 0-4 1.814-4 4.053v9.132c0 2.238 1.79 4.053 4 4.053h6.76c2.21 0 4.01-1.815 4.01-4.053v-9.132c0-2.239-1.8-4.053-4.01-4.053Zm105.82 0h-6.75c-2.21 0-4.01 1.814-4.01 4.053v10.051c0 2.238 1.8 4.053 4.01 4.053h6.75c2.22 0 4.01-1.815 4.01-4.053v-10.051c0-2.239-1.79-4.053-4.01-4.053Zm-49.02 26.424h-15.17c-2.22 0-4.01-1.81-4.01-4.053v-18.346c0-2.242 1.79-4.052 4.01-4.052h15.17c2.21 0 4 1.81 4 4.052v18.346c0 2.243-1.79 4.053-4 4.053Z"/><path stroke="#2a4385" stroke-miterlimit="10" stroke-width="2" d="M4728.46 771.801h-23.66"/><path fill="#f7f3ea" stroke="#2a4385" stroke-miterlimit="10" stroke-width="2" d="M4849.55 819.379c-.43.565-.6 1.15-.38 1.723l1.64 4.298c.25.679 1.12.877 1.65.379 3.31-3.103 7.82-5.079 12.09-6.229 1.37-.368 2.7-.542 4.06-.602.7-.029 1.17-.732.91-1.381-.08-.216-.16-.428-.25-.644-.08-.216-.17-.426-.26-.641a35 35 0 0 0-1.46-3.144 1.01 1.01 0 0 0-.78-.53c-1.03-.119-2.06-.222-2.99-.81-2.61-1.665-3.71-4.832-2.99-7.784l.48-1.941c.04-.178.04-.367-.02-.544a56 56 0 0 0-2.44-6.58l-2.18-4.906-1.85-3.968c-1-2.127-2.12-4-3.76-5.754-3.45-3.707-7.1-7.126-11.12-10.203-.93-.713-2.14.442-1.46 1.398l1.64 2.326c.37.529 1.1 1.578.82 1.955-.07.104-.47.013-.58-.09a48 48 0 0 0-4.52-3.697c-.99-.71-2.18.588-1.38 1.502 1.56 1.775 2.82 3.75 3.87 5.847s1.63 4.48 1.52 6.904c-.22 5.044-3.68 5.522-3 7.906 1.32 4.664 3.09 9.204 5.37 13.486 1.54 2.892 3.85 1.358 6.65 4.104 2.09 2.039 2.53 5.188.72 7.622zm-81.44 2.976c.38 3.287 1.68 6.353 3.61 8.962 1.39 1.877 2.66 1.782 4.57 1.023 9.14-4.028 18.32-7.74 27.59-11.517l7.42-3.017c.76-.306 1.06-1.2.67-1.91-1.43-2.574-2.48-5.273-3-8.214-.14-.814-.89-1.307-1.69-1.088l-2.2.602-8.25 2.509-16.24 4.9-6 1.85c-2.94.905-6.93 1.973-6.48 5.897z"/><path fill="#f7f3ea" stroke="#2a4385" stroke-miterlimit="10" stroke-width="2" d="M4809.32 807.507c.5 3.054 1.6 5.932 3.2 8.598.39.637 1.18.905 1.88.647l21.61-8.029 3.96-1.372c.79-.246 1.53-.975.91-2.103-1.11-2.441-2.07-4.899-3.01-7.548-.37-1.05-1.19-1.237-2-.94l-11.73 4.33-13.79 4.71c-.71.243-1.15.963-1.03 1.701zm43.84 20.921c1.21.062 2.05.05 3.08-.178 3.95-.873 7.68-2.462 11.09-4.66.94-.604 3.31-2.419 3.01-3.535-.24-.908-2.17-.821-3-.7-4.71.697-9.18 2.492-13.02 5.309-.9.662-1.69 1.444-2.17 2.414-.29.573-.12 1.292 1.01 1.35Zm7.01-30.821c.86-.2 1.18-1.277 1.09-2.142-.22-2.242-1.26-4.396-2.85-6.011-.6-.616-1.29-1.142-2.24-.914l3.99 9.07z"/><path fill="#f7f3ea" d="M4852.07 827.878s-.73-.737-1.48-3.072z"/><path stroke="#2a4385" stroke-miterlimit="10" stroke-width="2" d="M4852.07 827.878s-.73-.737-1.48-3.072"/><path stroke="#2a4385" stroke-miterlimit="10" stroke-width="2" d="m4851.32 826.288.76.123-.54.452m-14.11-30.629-1.23.435-1.24.435m4.63 10.387 1.99-.63-.46-.538"/><path fill="#f7f3ea" d="m4814.25 816.793-1.48.538-2.24.805"/><path stroke="#2a4385" stroke-miterlimit="10" stroke-width="2" d="m4814.25 816.793-1.48.538-2.24.805m1.84-1.844.39 1.194m-2.59-11.611-3.45.883m2.2.322.11-.266-.09-.56"/><path fill="#f7f3ea" stroke="#2a4385" stroke-linecap="round" stroke-linejoin="round" stroke-width="2" d="M10198 795.672h-18.1c-.9 0-1.6.714-1.6 1.594v28.7c0 .881.7 1.595 1.6 1.595h18.1c.8 0 1.6-.714 1.6-1.595v-28.7c0-.88-.8-1.594-1.6-1.594m258.1 0h-18.1c-.8 0-1.6.714-1.6 1.594v28.7c0 .881.8 1.595 1.6 1.595h18.1c.9 0 1.6-.714 1.6-1.595v-28.7c0-.88-.7-1.594-1.6-1.594"/><path fill="#f7f3ea" stroke="#2a4385" stroke-linecap="round" stroke-linejoin="round" stroke-width="2" d="M10459.9 758.223H10176c-1.1 0-2 .891-2 1.991v38.999c0 1.099.9 1.991 2 1.991h283.9c1.1 0 2-.892 2-1.991v-38.999c0-1.1-.9-1.991-2-1.991m1.9-536.2h-182v447.292h182z"/><path fill="#f7f3ea" stroke="#2a4385" stroke-linecap="round" stroke-linejoin="round" stroke-width="2" d="M10317.3 222.023H10174v447.292h143.3z"/><path fill="#f7f3ea" stroke="#2a4385" stroke-linecap="round" stroke-linejoin="round" stroke-width="2" d="M10462 658.828h-288v131.903h288zm-286-531.832h283.8c1.1 0 2 .889 2 1.991v93.037H10174v-93.037c0-1.102.9-1.991 2-1.991"/><path fill="#f7f3ea" stroke="#2a4385" stroke-linecap="round" stroke-linejoin="round" stroke-width="2" d="M10443.1 146.52h-249.2c-1.1 0-2 .891-2 1.991v5.973c0 1.1.9 1.991 2 1.991h249.2c1.1 0 2-.891 2-1.991v-5.973c0-1.1-.9-1.991-2-1.991m0 18.042h-249.2c-1.1 0-2 .892-2 1.992v5.973c0 1.1.9 1.991 2 1.991h249.2c1.1 0 2-.891 2-1.991v-5.973c0-1.1-.9-1.992-2-1.992m0 19.711h-249.2c-1.1 0-2 .892-2 1.992v5.973c0 1.099.9 1.991 2 1.991h249.2c1.1 0 2-.892 2-1.991v-5.973c0-1.1-.9-1.992-2-1.992"/><path fill="#2a4385" stroke="#2a4385" stroke-linecap="round" stroke-linejoin="round" stroke-width="2" d="M10347.9 203.148h-58.8c-1.1 0-2 .892-2 1.992v5.973c0 1.099.9 1.991 2 1.991h58.8c1.1 0 2-.892 2-1.991v-5.973c0-1.1-.9-1.992-2-1.992M10198 214.18c3.3 0 6-2.71 6-6.053s-2.7-6.053-6-6.053c-3.4 0-6.1 2.71-6.1 6.053s2.7 6.053 6.1 6.053"/><path fill="#f7f3ea" stroke="#2a4385" stroke-linecap="round" stroke-linejoin="round" stroke-width="2" d="M10216.1 214.18c3.3 0 6-2.71 6-6.053s-2.7-6.053-6-6.053-6 2.71-6 6.053 2.7 6.053 6 6.053"/><path fill="#2a4385" stroke="#2a4385" stroke-linecap="round" stroke-linejoin="round" stroke-width="2" d="M10234.2 214.18c3.4 0 6.1-2.71 6.1-6.053s-2.7-6.053-6.1-6.053c-3.3 0-6 2.71-6 6.053s2.7 6.053 6 6.053m67.7 174.484h-9.3c-1.1 0-2 .892-2 1.991v178.959c0 1.1.9 1.991 2 1.991h9.3c1.1 0 2-.891 2-1.991V390.655c0-1.099-.9-1.991-2-1.991m41.2 0h-9.4c-1.1 0-2 .892-2 1.991v178.959c0 1.1.9 1.991 2 1.991h9.4c1.1 0 2-.891 2-1.991V390.655c0-1.099-.9-1.991-2-1.991"/><path fill="#f7f3ea" stroke="#2a4385" stroke-miterlimit="10" stroke-width="2" d="m14862.6 400.158 3.1 16.223c.6 3.036 3.3 5.23 6.4 5.23h291.9c3 0 5.7-2.071 6.4-5.004l3.9-17.392z"/><path stroke="#2a4385" stroke-linecap="round" stroke-miterlimit="10" stroke-width="2" d="M14879.3 409.215h102.4m6.7 4.935v-6.002h25.6v6.399m-140.3-14.266v21.33m289.5-21.33v21.33m-140.3-1.215 10-19.197m6.7 19.197 8.9-19.197"/><path fill="#f7f3ea" stroke="#2a4385" stroke-width="2" d="M15151.5 407.68c1.6 0 2.9 1.263 2.9 2.732s-1.3 2.733-2.9 2.734-2.9-1.265-2.9-2.734 1.3-2.732 2.9-2.732Zm-11.1 0c1.6 0 2.9 1.263 2.9 2.732s-1.3 2.733-2.9 2.734c-1.7 0-2.9-1.265-2.9-2.734s1.2-2.732 2.9-2.732Zm-11.2 0c1.7 0 2.9 1.263 2.9 2.732s-1.2 2.733-2.9 2.734c-1.6 0-2.9-1.265-2.9-2.734s1.3-2.732 2.9-2.732Z"/><path fill="#f7f3ea" stroke="#2a4385" stroke-miterlimit="10" stroke-width="2" d="M14971.7 121.418h88.1c1.8 0 3.2.869 3.2 1.946v142.458h-94.5V123.364c0-1.077 1.5-1.946 3.2-1.946Z"/><path fill="#2a4385" stroke="#2a4385" stroke-miterlimit="10" stroke-width="1.5" d="m14841.4 388.418 12.4 11.792c.7.725 1.7 1.127 2.8 1.127h322.7c1.1 0 2.1-.402 2.8-1.127l14.5-13.804z"/><path fill="#f7f3ea" stroke="#2a4385" stroke-miterlimit="10" stroke-width="2" d="m14969.1 265.895-129.9 119.504c-.9.736-.3 2.075.9 2.075h357c1.2 0 1.8-1.245 1-2l-135.7-119.579zm271.5 134.263 3.1 16.223c.6 3.036 3.3 5.23 6.4 5.23h291.9c3 0 5.7-2.071 6.4-5.004l3.9-17.392z"/><path stroke="#2a4385" stroke-linecap="round" stroke-miterlimit="10" stroke-width="2" d="M15257.3 409.215h102.4m6.7 4.935v-6.002h25.6v6.399m-140.3-14.266v21.33m289.5-21.33v21.33m-140.3-1.215 10-19.197m6.7 19.197 8.9-19.197"/><path fill="#f7f3ea" stroke="#2a4385" stroke-width="2" d="M15529.5 407.68c1.6 0 2.9 1.263 2.9 2.732s-1.3 2.733-2.9 2.734-2.9-1.265-2.9-2.734 1.3-2.732 2.9-2.732Zm-11.1 0c1.6 0 2.9 1.263 2.9 2.732s-1.3 2.733-2.9 2.734c-1.7 0-2.9-1.265-2.9-2.734s1.2-2.732 2.9-2.732Zm-11.2 0c1.7 0 2.9 1.263 2.9 2.732s-1.2 2.733-2.9 2.734c-1.6 0-2.9-1.265-2.9-2.734s1.3-2.732 2.9-2.732Z"/><path fill="#f7f3ea" stroke="#2a4385" stroke-miterlimit="10" stroke-width="2" d="M15349.7 121.418h88.1c1.8 0 3.2.869 3.2 1.946v142.458h-94.5V123.364c0-1.077 1.5-1.946 3.2-1.946Z"/><path fill="#2a4385" stroke="#2a4385" stroke-miterlimit="10" stroke-width="1.5" d="m15219.4 388.418 12.4 11.792c.7.725 1.7 1.127 2.8 1.127h322.7c1.1 0 2.1-.402 2.8-1.127l14.5-13.804z"/><path fill="#f7f3ea" stroke="#2a4385" stroke-miterlimit="10" stroke-width="2" d="m15347.1 265.895-129.9 119.504c-.9.736-.3 2.075.9 2.075h357c1.2 0 1.8-1.245 1-2l-135.7-119.579z"/><path fill="#f7f3ea" stroke="#2a4385" stroke-linecap="round" stroke-linejoin="round" stroke-width="2" d="M14840.8 799.996h-19.1c-.9 0-1.7.756-1.7 1.688v30.39c0 .932.8 1.688 1.7 1.688h19.1c.9 0 1.6-.756 1.6-1.688v-30.39c0-.932-.7-1.688-1.6-1.688m377.9 0h-19c-.9 0-1.7.756-1.7 1.688v30.39c0 .932.8 1.688 1.7 1.688h19c.9 0 1.7-.756 1.7-1.688v-30.39c0-.932-.8-1.688-1.7-1.688m-5-233.906h-396.8c-1.8 0-3.3 1.475-3.3 3.295v6.479c0 1.82 1.5 3.295 3.3 3.295h396.8c1.8 0 3.3-1.475 3.3-3.295v-6.479c0-1.82-1.5-3.295-3.3-3.295m0-8.106h-396.8c-1.8 0-3.3 1.475-3.3 3.295v.879c0 1.819 1.5 3.294 3.3 3.294h396.8c1.8 0 3.3-1.475 3.3-3.294v-.879c0-1.82-1.5-3.295-3.3-3.295m-200 80.696h-190c-2.2 0-4 1.473-4 3.29v145.42c0 1.817 1.8 3.29 4 3.29h190c2.2 0 4-1.473 4-3.29V641.97c0-1.817-1.8-3.29-4-3.29"/><path fill="#f7f3ea" stroke="#2a4385" stroke-linecap="round" stroke-linejoin="round" stroke-width="2" d="M15211.9 579.199h-392.8v59.525h392.8z"/><path fill="#f7f3ea" stroke="#2a4385" stroke-linecap="round" stroke-linejoin="round" stroke-width="2" d="M14865.5 623.11c7.4 0 13.5-6.038 13.5-13.487s-6.1-13.486-13.5-13.486-13.4 6.038-13.4 13.486 6 13.487 13.4 13.487"/><path fill="#f7f3ea" stroke="#2a4385" stroke-width="2" d="M14865.5 592.111a13.52 13.52 0 0 1 0 11.463 14.3 14.3 0 0 1 0-11.463Z"/><path fill="#f7f3ea" stroke="#2a4385" stroke-linecap="round" stroke-linejoin="round" stroke-width="2" d="M14865.5 616.717c3.9 0 7.1-3.177 7.1-7.095s-3.2-7.095-7.1-7.095-7 3.177-7 7.095 3.1 7.095 7 7.095m51.7 6.393c7.5 0 13.5-6.038 13.5-13.487s-6-13.486-13.5-13.486c-7.4 0-13.4 6.038-13.4 13.486s6 13.487 13.4 13.487"/><path fill="#f7f3ea" stroke="#2a4385" stroke-width="2" d="M14917.2 592.111a13.52 13.52 0 0 1 0 11.463 14.3 14.3 0 0 1 0-11.463Z"/><path fill="#f7f3ea" stroke="#2a4385" stroke-linecap="round" stroke-linejoin="round" stroke-width="2" d="M14917.2 616.717c3.9 0 7.1-3.177 7.1-7.095s-3.2-7.095-7.1-7.095-7 3.177-7 7.095 3.1 7.095 7 7.095m51.8 6.393c7.4 0 13.4-6.038 13.4-13.487s-6-13.486-13.4-13.486-13.4 6.038-13.4 13.486 6 13.487 13.4 13.487"/><path fill="#f7f3ea" stroke="#2a4385" stroke-width="2" d="M14969 592.111c1.6 3.622 1.6 7.836 0 11.463a13.52 13.52 0 0 1 0-11.463Z"/><path fill="#f7f3ea" stroke="#2a4385" stroke-linecap="round" stroke-linejoin="round" stroke-width="2" d="M14969 616.717c3.9 0 7.1-3.177 7.1-7.095s-3.2-7.095-7.1-7.095-7.1 3.177-7.1 7.095 3.2 7.095 7.1 7.095m93.1 6.393c7.4 0 13.4-6.038 13.4-13.487s-6-13.486-13.4-13.486c-7.5 0-13.5 6.038-13.5 13.486s6 13.487 13.5 13.487"/><path fill="#f7f3ea" stroke="#2a4385" stroke-width="2" d="M15062.1 592.111c1.6 3.622 1.6 7.836 0 11.463a13.52 13.52 0 0 1 0-11.463Z"/><path fill="#f7f3ea" stroke="#2a4385" stroke-linecap="round" stroke-linejoin="round" stroke-width="2" d="M15062.1 616.717c3.9 0 7-3.177 7-7.095s-3.1-7.095-7-7.095-7.1 3.177-7.1 7.095 3.2 7.095 7.1 7.095m51.7 6.393c7.4 0 13.4-6.038 13.4-13.487s-6-13.486-13.4-13.486-13.4 6.038-13.4 13.486 6 13.487 13.4 13.487"/><path fill="#f7f3ea" stroke="#2a4385" stroke-width="2" d="M15113.8 592.111c1.7 3.622 1.6 7.836 0 11.463-1.6-3.626-1.7-7.841 0-11.463Z"/><path fill="#f7f3ea" stroke="#2a4385" stroke-linecap="round" stroke-linejoin="round" stroke-width="2" d="M15113.8 616.717c3.9 0 7.1-3.177 7.1-7.095s-3.2-7.095-7.1-7.095-7.1 3.177-7.1 7.095 3.2 7.095 7.1 7.095m51.7 6.393c7.4 0 13.5-6.038 13.5-13.487s-6.1-13.486-13.5-13.486-13.4 6.038-13.4 13.486 6 13.487 13.4 13.487"/><path fill="#f7f3ea" stroke="#2a4385" stroke-width="2" d="M15165.5 592.111a13.52 13.52 0 0 1 0 11.463 14.3 14.3 0 0 1 0-11.463Z"/><path fill="#f7f3ea" stroke="#2a4385" stroke-linecap="round" stroke-linejoin="round" stroke-width="2" d="M15165.5 616.717c3.9 0 7.1-3.177 7.1-7.095s-3.2-7.095-7.1-7.095-7 3.177-7 7.095 3.1 7.095 7 7.095m-198.9 142.076H14866zm-96.9-80.545c0 4.13-1.8 7.688-6.4 7.688s-8.3-3.338-8.3-7.468c0-4.129 3.7-7.468 8.3-7.468s6.4 3.119 6.4 7.248m94 0c0 4.13 1.9 7.688 6.5 7.688 4.7 0 8.4-3.338 8.4-7.468 0-4.129-3.7-7.468-8.4-7.468-4.6 0-6.5 3.119-6.5 7.248"/><path fill="#2a4385" stroke="#2a4385" stroke-linecap="round" stroke-linejoin="round" stroke-width="2" d="M14963.6 673.594h-94.6c-1.7 0-3 1.357-3 3.031v3.668c0 1.674 1.3 3.031 3 3.031h94.6c1.7 0 3-1.357 3-3.031v-3.668c0-1.674-1.3-3.031-3-3.031"/><path fill="#f7f3ea" stroke="#2a4385" stroke-linecap="round" stroke-linejoin="round" stroke-width="2" d="M15207.7 638.68h-187c-2.2 0-4 1.473-4 3.29v145.42c0 1.817 1.8 3.29 4 3.29h187c2.2 0 4-1.473 4-3.29V641.97c0-1.817-1.8-3.29-4-3.29"/><path fill="#f7f3ea" stroke="#2a4385" stroke-linecap="round" stroke-linejoin="round" stroke-width="2" d="M15066.7 678.248c0 4.13-1.8 7.688-6.4 7.688s-8.3-3.338-8.3-7.468c0-4.129 3.7-7.468 8.3-7.468s6.4 3.119 6.4 7.248m94 0c0 4.13 1.9 7.688 6.5 7.688 4.7 0 8.4-3.338 8.4-7.468 0-4.129-3.7-7.468-8.4-7.468-4.6 0-6.5 3.119-6.5 7.248"/><path fill="#2a4385" stroke="#2a4385" stroke-linecap="round" stroke-linejoin="round" stroke-width="2" d="M15160.6 673.613h-94.6c-1.7 0-3 1.357-3 3.031v3.669c0 1.674 1.3 3.031 3 3.031h94.6c1.7 0 3-1.357 3-3.031v-3.669c0-1.674-1.3-3.031-3-3.031"/><path fill="#f7f3ea" stroke="#2a4385" stroke-linecap="round" stroke-linejoin="round" stroke-width="2" d="M15205.9 791h-399.8c-1.7 0-3.1 1.418-3.1 3.166v9.668c0 1.748 1.4 3.166 3.1 3.166h399.8c1.7 0 3.1-1.418 3.1-3.166v-9.668c0-1.748-1.4-3.166-3.1-3.166m-273.2-233.455h-84.3l12.4-6.084h59.4z"/><path stroke="#2a4385" stroke-linecap="round" stroke-linejoin="round" stroke-width="2" d="M14890.6 555.832v-3.844"/><path fill="#f7f3ea" stroke="#2a4385" stroke-linecap="round" stroke-linejoin="round" stroke-width="2" d="M15016 557.545h-84.3l12.3-6.084h59.5z"/><path stroke="#2a4385" stroke-linecap="round" stroke-linejoin="round" stroke-width="2" d="M14973.8 555.832v-3.844"/><path fill="#f7f3ea" stroke="#2a4385" stroke-linecap="round" stroke-linejoin="round" stroke-width="2" d="M15099.3 557.545h-84.3l12.3-6.084h59.5z"/><path stroke="#2a4385" stroke-linecap="round" stroke-linejoin="round" stroke-width="2" d="M15057.1 555.832v-3.844"/><path fill="#f7f3ea" stroke="#2a4385" stroke-linecap="round" stroke-linejoin="round" stroke-width="2" d="M15182.6 557.545h-84.3l12.3-6.084h59.5z"/><path stroke="#2a4385" stroke-linecap="round" stroke-linejoin="round" stroke-width="2" d="M15140.4 555.832v-3.844"/><path stroke="#2a4385" stroke-linecap="round" stroke-width="2" d="M14866.9 546.852c.5 2.916 5.7 8.75 22.3 8.75m24.2-8.75c-.5 2.916-5.7 8.75-22.3 8.75m59.1-7.5c.5 2.49 5.8 7.471 22.3 7.471m24.2-7.471c-.5 2.49-5.7 7.471-22.3 7.471m59.1-7.471c.6 2.49 5.8 7.471 22.4 7.471m24.1-7.471c-.5 2.49-5.7 7.471-22.3 7.471m59.1-7.471c.6 2.49 5.8 7.471 22.4 7.471m24.2-7.471c-.6 2.49-5.8 7.471-22.4 7.471"/><path fill="#f7f3ea" stroke="#2a4385" stroke-linecap="round" stroke-linejoin="round" stroke-width="2" d="M15250.6 500.887h58.6v37.421c0 2.112-1.3 3.84-2.9 3.84h-52.8c-1.6 0-2.9-1.728-2.9-3.84z"/><path fill="#2a4385" stroke="#2a4385" stroke-linecap="round" stroke-linejoin="round" stroke-width="2" d="M15275.3 480.867h9.1c1.6 0 2.9 1.192 2.9 2.664v7.604h-14.8v-7.604c0-1.472 1.3-2.664 2.8-2.664"/><path fill="#f7f3ea" stroke="#2a4385" stroke-linecap="round" stroke-linejoin="round" stroke-width="2" d="M15312.4 496.874c0-.593-.7-1.074-1.6-1.074 0 0-18.8-4.667-30.9-4.667-12.2 0-30.9 4.667-30.9 4.667-.9 0-1.6.481-1.6 1.074v3.453c0 .593.7 1.074 1.6 1.074h61.8c.9 0 1.6-.481 1.6-1.074z"/><path stroke="#2a4385" stroke-width="2" d="M15250.5 502.793h-7c-3.5 0-3.5 6.236 7 6.236m58.8-6.236h7c3.5 0 3.5 6.236-7 6.236"/><path fill="#f7f3ea" stroke="#2a4385" stroke-linecap="round" stroke-linejoin="round" stroke-width="2" d="M15421.8 503.219h48.2v36.909c0 2.083-1.1 3.787-2.4 3.787h-43.4c-1.3 0-2.4-1.704-2.4-3.787z"/><path fill="#2a4385" stroke="#2a4385" stroke-linecap="round" stroke-linejoin="round" stroke-width="2" d="M15442.7 487.555h6c1 0 1.9.628 1.9 1.405v4.01h-9.7v-4.01c0-.777.8-1.405 1.8-1.405"/><path fill="#f7f3ea" stroke="#2a4385" stroke-linecap="round" stroke-linejoin="round" stroke-width="2" d="M15472.6 499.264c0-.585-.6-1.059-1.3-1.059 0 0-15.4-4.603-25.4-4.603s-25.4 4.603-25.4 4.603c-.8 0-1.3.474-1.3 1.059v3.406c0 .585.5 1.059 1.3 1.059h50.8c.7 0 1.3-.474 1.3-1.059z"/><path stroke="#2a4385" stroke-width="2" d="M15421.7 505.098h-5.8c-2.8 0-2.8 6.15 5.8 6.15m48.4-6.15h5.8c2.8 0 2.8 6.15-5.8 6.15"/><path stroke="#f7f3ea" stroke-miterlimit="10" stroke-width="1.5" d="M21257.3 524.727h16.3m-16.4 228.722h16.3"/><path fill="#f7f3ea" stroke="#2a4385" stroke-linecap="round" stroke-linejoin="round" stroke-width="2" d="M21073.1 759.324h-18.9c-.9 0-1.7.747-1.7 1.669v30.039c0 .922.8 1.669 1.7 1.669h18.9c.9 0 1.7-.747 1.7-1.669v-30.039c0-.922-.8-1.669-1.7-1.669m406.7 0h-19c-.9 0-1.6.747-1.6 1.669v30.039c0 .922.7 1.669 1.6 1.669h19c.9 0 1.7-.747 1.7-1.669v-30.039c0-.922-.8-1.669-1.7-1.669"/><path fill="#f7f3ea" d="M21477.4 530.023h-413.7v227.903h413.7z"/><path fill="#f7f3ea" stroke="#2a4385" stroke-miterlimit="10" stroke-width="2" d="M21050.8 529.914h433.4c1.7 0 3.1 1.389 3.1 3.111v4.645c0 2.136-1.7 3.878-3.9 3.878h-432.6c-2.1 0-3.9-1.742-3.9-3.878v-3.878c0-2.136 1.8-3.878 3.9-3.878Zm0 95.184h432.3c1.8 0 3.1 1.476 3.1 3.305v8.196c0 1.829-1.3 3.305-3.1 3.305h-432.3c-2.1 0-3.9-1.851-3.9-4.12v-6.566c0-2.27 1.8-4.12 3.9-4.12Z"/><path fill="#f7f3ea" stroke="#2a4385" stroke-miterlimit="10" stroke-width="2" d="M21487.2 761.249V531.013c0-1.742-1.4-3.154-3.1-3.154h-22c-1.7 0-3.2 1.412-3.2 3.154v230.236c0 1.742 1.5 3.154 3.2 3.154h22c1.7 0 3.1-1.412 3.1-3.154Zm-440.1.02V531.033c0-1.745 1.4-3.154 3.1-3.154h22c1.7 0 3.1 1.409 3.1 3.154v229.458c0 .252 0 1.661-1.1 2.775a3.9 3.9 0 0 1-2.8 1.156h-21.1c-1.8 0-3.2-1.408-3.2-3.153Zm224.2-5.551V516.252c0-2.206-1.8-3.994-4-3.994h-3.8c-2.2 0-4 1.788-4 3.994v239.466c0 2.206 1.8 3.995 4 3.995h3.8c2.2 0 4-1.789 4-3.995Z"/><path fill="#2a4385" stroke="#2a4385" stroke-linecap="round" stroke-linejoin="round" stroke-width="2" d="M21235.1 656.926h-135.4c-1.8 0-3.2 1.412-3.2 3.153v3.301c0 1.742 1.4 3.154 3.2 3.154h135.4c1.8 0 3.2-1.412 3.2-3.154v-3.301c0-1.741-1.4-3.153-3.2-3.153"/><path fill="#f7f3ea" stroke="#2a4385" stroke-miterlimit="10" stroke-width="2" d="M21511.3 510.578h-478.6c-1.7 0-3.1 1.412-3.1 3.154v13.014c0 1.741 1.4 3.153 3.1 3.153h478.6c1.7 0 3.1-1.412 3.1-3.153v-13.014c0-1.742-1.4-3.154-3.1-3.154Zm-26.4 239.695h-434.7c-1.7 0-3.1 1.412-3.1 3.154v7.821c0 1.742 1.4 3.154 3.1 3.154h434.7c1.8 0 3.2-1.412 3.2-3.154v-7.821c0-1.742-1.4-3.154-3.2-3.154Z"/><path fill="#2a4385" stroke="#2a4385" stroke-linecap="round" stroke-linejoin="round" stroke-width="2" d="M21432.7 656.926h-135.4c-1.8 0-3.2 1.412-3.2 3.153v3.301c0 1.742 1.4 3.154 3.2 3.154h135.4c1.8 0 3.2-1.412 3.2-3.154v-3.301c0-1.741-1.4-3.153-3.2-3.153"/><path stroke="#f7f3ea" stroke-miterlimit="10" stroke-width="1.5" d="M21759.3 524.727h16.3m-16.4 228.722h16.3"/><path fill="#f7f3ea" stroke="#2a4385" stroke-linecap="round" stroke-linejoin="round" stroke-width="2" d="M21575.1 759.324h-18.9c-.9 0-1.7.747-1.7 1.669v30.039c0 .922.8 1.669 1.7 1.669h18.9c.9 0 1.7-.747 1.7-1.669v-30.039c0-.922-.8-1.669-1.7-1.669m406.7 0h-19c-.9 0-1.6.747-1.6 1.669v30.039c0 .922.7 1.669 1.6 1.669h19c.9 0 1.7-.747 1.7-1.669v-30.039c0-.922-.8-1.669-1.7-1.669"/><path fill="#f7f3ea" d="M21979.4 530.023h-413.7v227.903h413.7z"/><path fill="#f7f3ea" stroke="#2a4385" stroke-miterlimit="10" stroke-width="2" d="M21552.8 529.914h433.4c1.7 0 3.1 1.389 3.1 3.111v4.645c0 2.136-1.7 3.878-3.9 3.878h-432.6c-2.1 0-3.9-1.742-3.9-3.878v-3.878c0-2.136 1.8-3.878 3.9-3.878Zm0 95.184h432.3c1.8 0 3.1 1.476 3.1 3.305v8.196c0 1.829-1.3 3.305-3.1 3.305h-432.3c-2.1 0-3.9-1.851-3.9-4.12v-6.566c0-2.27 1.8-4.12 3.9-4.12Z"/><path fill="#f7f3ea" stroke="#2a4385" stroke-miterlimit="10" stroke-width="2" d="M21989.2 761.249V531.013c0-1.742-1.4-3.154-3.1-3.154h-22c-1.7 0-3.2 1.412-3.2 3.154v230.236c0 1.742 1.5 3.154 3.2 3.154h22c1.7 0 3.1-1.412 3.1-3.154Zm-440.1.02V531.033c0-1.745 1.4-3.154 3.1-3.154h22c1.7 0 3.1 1.409 3.1 3.154v229.458c0 .252 0 1.661-1.1 2.775a3.9 3.9 0 0 1-2.8 1.156h-21.1c-1.8 0-3.2-1.408-3.2-3.153Zm224.2-5.551V516.252c0-2.206-1.8-3.994-4-3.994h-3.8c-2.2 0-4 1.788-4 3.994v239.466c0 2.206 1.8 3.995 4 3.995h3.8c2.2 0 4-1.789 4-3.995Z"/><path fill="#2a4385" stroke="#2a4385" stroke-linecap="round" stroke-linejoin="round" stroke-width="2" d="M21737.1 656.926h-135.4c-1.8 0-3.2 1.412-3.2 3.153v3.301c0 1.742 1.4 3.154 3.2 3.154h135.4c1.8 0 3.2-1.412 3.2-3.154v-3.301c0-1.741-1.4-3.153-3.2-3.153"/><path fill="#f7f3ea" stroke="#2a4385" stroke-miterlimit="10" stroke-width="2" d="M22013.3 510.578h-478.6c-1.7 0-3.1 1.412-3.1 3.154v13.014c0 1.741 1.4 3.153 3.1 3.153h478.6c1.7 0 3.1-1.412 3.1-3.153v-13.014c0-1.742-1.4-3.154-3.1-3.154Zm-26.4 239.695h-434.7c-1.7 0-3.1 1.412-3.1 3.154v7.821c0 1.742 1.4 3.154 3.1 3.154h434.7c1.8 0 3.2-1.412 3.2-3.154v-7.821c0-1.742-1.4-3.154-3.2-3.154Z"/><path fill="#2a4385" stroke="#2a4385" stroke-linecap="round" stroke-linejoin="round" stroke-width="2" d="M21934.7 656.926h-135.4c-1.8 0-3.2 1.412-3.2 3.153v3.301c0 1.742 1.4 3.154 3.2 3.154h135.4c1.8 0 3.2-1.412 3.2-3.154v-3.301c0-1.741-1.4-3.153-3.2-3.153"/><path fill="#f7f3ea" stroke="#2a4385" stroke-linecap="round" stroke-linejoin="round" stroke-width="2" d="M15600.4 799.996h-19c-1 0-1.7.756-1.7 1.688v30.39c0 .932.7 1.688 1.7 1.688h19c.9 0 1.7-.756 1.7-1.688v-30.39c0-.932-.8-1.688-1.7-1.688m3.4-233.996h-391.6c-1.8 0-3.2 1.467-3.2 3.277v6.446c0 1.81 1.4 3.277 3.2 3.277h391.6c1.8 0 3.2-1.467 3.2-3.277v-6.446c0-1.81-1.4-3.277-3.2-3.277m0-8h-391.6c-1.8 0-3.2 1.383-3.2 3.088v.824c0 1.705 1.4 3.088 3.2 3.088h391.6c1.8 0 3.2-1.383 3.2-3.088v-.824c0-1.705-1.4-3.088-3.2-3.088"/><path fill="#f7f3ea" stroke="#2a4385" stroke-linecap="round" stroke-linejoin="round" stroke-width="2" d="M15614.8 791h-402.6c-1.8 0-3.2 1.418-3.2 3.166v9.668c0 1.748 1.4 3.166 3.2 3.166h402.6c1.8 0 3.2-1.418 3.2-3.166v-9.668c0-1.748-1.4-3.166-3.2-3.166m-245.2-152.426H15213c-1.8 0-3.3 1.475-3.3 3.295v145.628c0 1.82 1.5 3.295 3.3 3.295h156.6c1.8 0 3.2-1.475 3.2-3.295V641.869c0-1.82-1.4-3.295-3.2-3.295m68.6 0h-61.9c-1.8 0-3.3 1.475-3.3 3.295v145.628c0 1.82 1.5 3.295 3.3 3.295h61.9c1.8 0 3.2-1.475 3.2-3.295V641.869c0-1.82-1.4-3.295-3.2-3.295"/><path fill="#f7f3ea" stroke="#2a4385" stroke-linecap="round" stroke-linejoin="round" stroke-width="2" d="M15601.9 579.199h-392.8v59.525h392.8z"/><path fill="#f7f3ea" stroke="#2a4385" stroke-linecap="round" stroke-linejoin="round" stroke-width="2" d="M15255.4 623.102c7.5 0 13.5-6.038 13.5-13.487s-6-13.486-13.5-13.486c-7.4 0-13.4 6.038-13.4 13.486s6 13.487 13.4 13.487"/><path fill="#f7f3ea" stroke="#2a4385" stroke-width="2" d="M15255.4 592.104c1.7 3.621 1.7 7.836 0 11.462a14.3 14.3 0 0 1 0-11.462Z"/><path fill="#f7f3ea" stroke="#2a4385" stroke-linecap="round" stroke-linejoin="round" stroke-width="2" d="M15255.4 616.709c3.9 0 7.1-3.176 7.1-7.095s-3.2-7.094-7.1-7.094-7 3.176-7 7.094 3.1 7.095 7 7.095m51.8 6.401c7.5 0 13.5-6.038 13.5-13.487s-6-13.486-13.5-13.486c-7.4 0-13.4 6.038-13.4 13.486s6 13.487 13.4 13.487"/><path fill="#f7f3ea" stroke="#2a4385" stroke-width="2" d="M15307.2 592.111a13.52 13.52 0 0 1 0 11.463 14.3 14.3 0 0 1 0-11.463Z"/><path fill="#f7f3ea" stroke="#2a4385" stroke-linecap="round" stroke-linejoin="round" stroke-width="2" d="M15307.2 616.717c3.9 0 7.1-3.177 7.1-7.095s-3.2-7.095-7.1-7.095-7 3.177-7 7.095 3.1 7.095 7 7.095m51.8 6.393c7.4 0 13.4-6.038 13.4-13.487s-6-13.486-13.4-13.486-13.4 6.038-13.4 13.486 6 13.487 13.4 13.487"/><path fill="#f7f3ea" stroke="#2a4385" stroke-width="2" d="M15359 592.111c1.6 3.622 1.6 7.836 0 11.463a13.52 13.52 0 0 1 0-11.463Z"/><path fill="#f7f3ea" stroke="#2a4385" stroke-linecap="round" stroke-linejoin="round" stroke-width="2" d="M15359 616.717c3.9 0 7.1-3.177 7.1-7.095s-3.2-7.095-7.1-7.095-7.1 3.177-7.1 7.095 3.2 7.095 7.1 7.095m93.1 6.393c7.4 0 13.4-6.038 13.4-13.487s-6-13.486-13.4-13.486c-7.5 0-13.5 6.038-13.5 13.486s6 13.487 13.5 13.487"/><path fill="#f7f3ea" stroke="#2a4385" stroke-width="2" d="M15452.1 592.111c1.6 3.622 1.6 7.836 0 11.463a13.52 13.52 0 0 1 0-11.463Z"/><path fill="#f7f3ea" stroke="#2a4385" stroke-linecap="round" stroke-linejoin="round" stroke-width="2" d="M15452.1 616.717c3.9 0 7-3.177 7-7.095s-3.1-7.095-7-7.095-7.1 3.177-7.1 7.095 3.2 7.095 7.1 7.095m51.7 6.393c7.4 0 13.4-6.038 13.4-13.487s-6-13.486-13.4-13.486-13.4 6.038-13.4 13.486 6 13.487 13.4 13.487"/><path fill="#f7f3ea" stroke="#2a4385" stroke-width="2" d="M15503.8 592.111c1.7 3.622 1.6 7.836 0 11.463-1.6-3.626-1.7-7.841 0-11.463Z"/><path fill="#f7f3ea" stroke="#2a4385" stroke-linecap="round" stroke-linejoin="round" stroke-width="2" d="M15503.8 616.717c3.9 0 7.1-3.177 7.1-7.095s-3.2-7.095-7.1-7.095-7.1 3.177-7.1 7.095 3.2 7.095 7.1 7.095m51.7 6.393c7.4 0 13.5-6.038 13.5-13.487s-6.1-13.486-13.5-13.486-13.4 6.038-13.4 13.486 6 13.487 13.4 13.487"/><path fill="#f7f3ea" stroke="#2a4385" stroke-width="2" d="M15555.5 592.111a13.52 13.52 0 0 1 0 11.463 14.3 14.3 0 0 1 0-11.463Z"/><path fill="#f7f3ea" stroke="#2a4385" stroke-linecap="round" stroke-linejoin="round" stroke-width="2" d="M15555.5 616.717c3.9 0 7.1-3.177 7.1-7.095s-3.2-7.095-7.1-7.095-7 3.177-7 7.095 3.1 7.095 7 7.095m-214.3 143.607h-100.7zm-96.9-80.544c0 4.129-1.8 7.687-6.4 7.687s-8.4-3.338-8.4-7.468c0-4.129 3.8-7.468 8.4-7.468s6.4 3.119 6.4 7.249m94 0c0 4.129 1.8 7.687 6.5 7.687 4.6 0 8.4-3.338 8.4-7.468 0-4.129-3.8-7.468-8.4-7.468-4.7 0-6.5 3.119-6.5 7.249"/><path fill="#2a4385" stroke="#2a4385" stroke-linecap="round" stroke-linejoin="round" stroke-width="2" d="M15338.2 675.125h-94.7c-1.6 0-3 1.357-3 3.031v3.668c0 1.674 1.4 3.032 3 3.032h94.7c1.6 0 3-1.358 3-3.032v-3.668c0-1.674-1.4-3.031-3-3.031"/><path fill="#f7f3ea" stroke="#2a4385" stroke-linecap="round" stroke-linejoin="round" stroke-width="2" d="M15598.9 638.574h-154.1c-1.8 0-3.3 1.475-3.3 3.295v145.628c0 1.82 1.5 3.295 3.3 3.295h154.1c1.8 0 3.3-1.475 3.3-3.295V641.869c0-1.82-1.5-3.295-3.3-3.295"/><path fill="#f7f3ea" stroke="#2a4385" stroke-linecap="round" stroke-linejoin="round" stroke-width="2" d="M15474.7 679.561c0 4.129-1.8 7.688-6.4 7.688s-8.3-3.339-8.3-7.468c0-4.13 3.7-7.469 8.3-7.469s6.4 3.12 6.4 7.249m94 0c0 4.129 1.9 7.688 6.5 7.688 4.7 0 8.5-3.339 8.5-7.468 0-4.13-3.8-7.469-8.5-7.469-4.6 0-6.5 3.12-6.5 7.249"/><path fill="#2a4385" stroke="#2a4385" stroke-linecap="round" stroke-linejoin="round" stroke-width="2" d="M15568.6 674.926h-94.6c-1.7 0-3 1.357-3 3.031v3.668c0 1.674 1.3 3.031 3 3.031h94.6c1.7 0 3.1-1.357 3.1-3.031v-3.668c0-1.674-1.4-3.031-3.1-3.031"/><path fill="#f7f3ea" stroke="#2a4385" stroke-linecap="round" stroke-linejoin="round" stroke-width="2" d="m15529.9 755.778-14 2.504c-3.3.418-6.7.505-10 .242-5.3-.417-12.4-1.977-12.4-2.636v-73.319c0-4.745 3.8-8.589 8.6-8.589h38.8c4.7 0 8.5 3.844 8.5 8.589v73.319c0 .637-5.3.198-9.5-.22-3.3-.329-6.7-.285-10 .11"/><path fill="#f7f3ea" d="M15549.5 731.596c0 .637-5.3.198-9.6-.22-3.3-.329-6.7-.285-10 .11l-14 2.504c-3.3.417-6.6.505-10 .242-5.3-.418-12.4-1.977-12.4-2.636"/><path stroke="#2a4385" stroke-linecap="round" stroke-linejoin="round" stroke-width="2" d="M15549.5 731.596c0 .637-5.3.198-9.6-.22-3.3-.329-6.7-.285-10 .11l-14 2.504c-3.3.417-6.6.505-10 .242-5.3-.418-12.4-1.977-12.4-2.636"/><path fill="#f7f3ea" stroke="#2a4385" stroke-linecap="round" stroke-linejoin="round" stroke-width="2" d="M15393.4 687.623c3 0 5.5-2.458 5.5-5.491s-2.5-5.491-5.5-5.491-5.5 2.458-5.5 5.491 2.5 5.491 5.5 5.491m-70.7-130.078h-84.3l12.4-6.084h59.4z"/><path stroke="#2a4385" stroke-linecap="round" stroke-linejoin="round" stroke-width="2" d="M15280.6 555.832v-3.844"/><path fill="#f7f3ea" stroke="#2a4385" stroke-linecap="round" stroke-linejoin="round" stroke-width="2" d="M15406 557.545h-84.3l12.3-6.084h59.5z"/><path stroke="#2a4385" stroke-linecap="round" stroke-linejoin="round" stroke-width="2" d="M15363.8 555.832v-3.844"/><path fill="#f7f3ea" stroke="#2a4385" stroke-linecap="round" stroke-linejoin="round" stroke-width="2" d="M15489.3 557.545h-84.3l12.3-6.084h59.5z"/><path stroke="#2a4385" stroke-linecap="round" stroke-linejoin="round" stroke-width="2" d="M15447.1 555.832v-3.844"/><path fill="#f7f3ea" stroke="#2a4385" stroke-linecap="round" stroke-linejoin="round" stroke-width="2" d="M15572.6 557.545h-84.3l12.3-6.084h59.5z"/><path stroke="#2a4385" stroke-linecap="round" stroke-linejoin="round" stroke-width="2" d="M15530.4 555.832v-3.844"/><path stroke="#2a4385" stroke-linecap="round" stroke-width="2" d="M15256.9 546.852c.5 2.916 5.7 8.75 22.3 8.75m24.2-8.75c-.5 2.916-5.7 8.75-22.3 8.75m59.1-7.5c.5 2.49 5.8 7.471 22.3 7.471m24.2-7.471c-.5 2.49-5.7 7.471-22.3 7.471m59.1-7.471c.6 2.49 5.8 7.471 22.4 7.471m24.1-7.471c-.5 2.49-5.7 7.471-22.3 7.471m59.1-7.471c.6 2.49 5.8 7.471 22.4 7.471m24.2-7.471c-.6 2.49-5.8 7.471-22.4 7.471"/></g><defs><clipPath id="c"><path fill="#fff" d="M2131 722h82v125h-82z"/></clipPath><clipPath id="d"><path fill="#fff" d="M4214 733h82v125h-82z"/></clipPath><clipPath id="e"><path fill="#fff" d="M2263 725h82v125h-82z"/></clipPath><clipPath id="f"><path fill="#fff" d="M2199 695h82v125h-82z"/></clipPath><clipPath id="g"><path fill="#fff" d="M8385 518.223h563v295.985h-563z"/></clipPath><clipPath id="h"><path fill="#fff" d="m8903.95 481 95.714 7.409-7.95 102.693-95.713-7.41z"/></clipPath><clipPath id="i"><path fill="#fff" d="M4288 628h159v124h-159z"/></clipPath><clipPath id="j"><path fill="#fff" d="M4408 636h166v130h-166z"/></clipPath><clipPath id="k"><path fill="#fff" d="M22505 261h459v534h-459z"/></clipPath><clipPath id="l"><path fill="#fff" d="M13318 390h574v460h-574z"/></clipPath><clipPath id="m"><path fill="#fff" d="M19016 404h890v456h-890z"/></clipPath><clipPath id="n"><path fill="#fff" d="M838 712h82v125h-82z"/></clipPath><clipPath id="o"><path fill="#fff" d="M17347 79h87v135h-87z"/></clipPath><clipPath id="p"><path fill="#fff" d="M17855 79h87v135h-87z"/></clipPath></defs></svg>