<svg xmlns="http://www.w3.org/2000/svg" width="23000" height="1117" fill="none" viewBox="0 0 23000 1117"><g clip-path="url(#a)"><path fill="#f7f3ea" stroke="#8c98b7" stroke-linecap="round" stroke-linejoin="round" d="M414.497 595.111v16.525a.91.91 0 0 1-.912.912h-78.056a.91.91 0 0 1-.912-.912v-16.525a.91.91 0 0 0-.912-.912h-1.217a.91.91 0 0 0-.912.912v20.245a.91.91 0 0 0 .912.911h84.138a.91.91 0 0 0 .912-.911v-20.245a.91.91 0 0 0-.912-.912h-1.216a.91.91 0 0 0-.913.912"/><path fill="#f7f3ea" stroke="#8c98b7" stroke-linecap="round" stroke-linejoin="round" d="M417.629 603.699v-1.562h-86.138v1.562zm-139.774-8.588v16.525a.91.91 0 0 1-.912.912h-78.057a.91.91 0 0 1-.912-.912v-16.525a.91.91 0 0 0-.912-.912h-1.216a.91.91 0 0 0-.912.912v20.245a.91.91 0 0 0 .912.911h84.137a.91.91 0 0 0 .912-.911v-20.245a.91.91 0 0 0-.912-.912h-1.216a.91.91 0 0 0-.912.912"/><path fill="#f7f3ea" stroke="#8c98b7" stroke-linecap="round" stroke-linejoin="round" d="M280.986 603.699v-1.562h-86.138v1.562zm-87.152 178.762h-10.192c-.497 0-.9.402-.9.897v16.156c0 .495.403.897.9.897h10.192a.9.9 0 0 0 .899-.897v-16.156a.9.9 0 0 0-.899-.897m238.082 0h-10.192c-.497 0-.9.402-.9.897v16.156c0 .495.403.897.9.897h10.192a.9.9 0 0 0 .899-.897v-16.156a.9.9 0 0 0-.899-.897m-182.792-43.705h-39.95a1.83 1.83 0 0 1-1.533-.836l-3.11-4.835c-.775-1.205.088-2.796 1.533-2.796h46.179c1.436 0 2.308 1.591 1.533 2.796l-3.119 4.835a1.82 1.82 0 0 1-1.533.836"/><path fill="#f7f3ea" stroke="#8c98b7" stroke-linecap="round" stroke-linejoin="round" d="M249.125 746.135h-39.95a1.83 1.83 0 0 1-1.533-.836l-3.119-4.835c-.775-1.205.088-2.796 1.533-2.796h46.179c1.436 0 2.308 1.591 1.533 2.796l-3.119 4.835a1.82 1.82 0 0 1-1.532.836z"/><path fill="#f7f3ea" stroke="#8c98b7" stroke-linecap="round" stroke-linejoin="round" d="M249.125 752.427h-39.95a1.83 1.83 0 0 1-1.533-.835l-3.119-4.835c-.775-1.205.088-2.796 1.533-2.796h46.179c1.436 0 2.308 1.591 1.533 2.796l-3.119 4.835a1.82 1.82 0 0 1-1.532.835z"/><path fill="#f7f3ea" stroke="#8c98b7" stroke-linecap="round" stroke-linejoin="round" d="M249.125 759.076h-39.95a1.83 1.83 0 0 1-1.533-.835l-3.119-4.836c-.775-1.204.088-2.796 1.533-2.796h46.179c1.436 0 2.308 1.592 1.533 2.796l-3.119 4.836a1.82 1.82 0 0 1-1.532.835z"/><path fill="#f7f3ea" stroke="#8c98b7" stroke-linecap="round" stroke-linejoin="round" d="M249.125 766.092h-39.95a1.83 1.83 0 0 1-1.533-.836l-3.119-4.835c-.775-1.205.088-2.796 1.533-2.796h46.179c1.436 0 2.308 1.591 1.533 2.796l-3.119 4.835a1.82 1.82 0 0 1-1.532.836zm57.91-27.336h-39.951a1.83 1.83 0 0 1-1.533-.836l-3.11-4.835c-.775-1.205.088-2.796 1.533-2.796h46.179c1.436 0 2.308 1.591 1.533 2.796l-3.119 4.835a1.82 1.82 0 0 1-1.532.836"/><path fill="#f7f3ea" stroke="#8c98b7" stroke-linecap="round" stroke-linejoin="round" d="M307.036 746.135h-39.951a1.83 1.83 0 0 1-1.533-.836l-3.118-4.835c-.776-1.205.088-2.796 1.532-2.796h46.179c1.436 0 2.308 1.591 1.533 2.796l-3.118 4.835a1.82 1.82 0 0 1-1.533.836z"/><path fill="#f7f3ea" stroke="#8c98b7" stroke-linecap="round" stroke-linejoin="round" d="M307.036 752.427h-39.951a1.83 1.83 0 0 1-1.533-.835l-3.118-4.835c-.776-1.205.088-2.796 1.532-2.796h46.179c1.436 0 2.308 1.591 1.533 2.796l-3.118 4.835a1.82 1.82 0 0 1-1.533.835z"/><path fill="#f7f3ea" stroke="#8c98b7" stroke-linecap="round" stroke-linejoin="round" d="M307.036 759.076h-39.951a1.83 1.83 0 0 1-1.533-.835l-3.118-4.836c-.776-1.204.088-2.796 1.532-2.796h46.179c1.436 0 2.308 1.592 1.533 2.796l-3.118 4.836a1.82 1.82 0 0 1-1.533.835z"/><path fill="#f7f3ea" stroke="#8c98b7" stroke-linecap="round" stroke-linejoin="round" d="M307.036 766.092h-39.951a1.83 1.83 0 0 1-1.533-.836l-3.118-4.835c-.776-1.205.088-2.796 1.532-2.796h46.179c1.436 0 2.308 1.591 1.533 2.796l-3.118 4.835a1.82 1.82 0 0 1-1.533.836zm119.84-131.584H325.322v137.865h101.554z"/><path fill="#f7f3ea" stroke="#8c98b7" stroke-linecap="round" stroke-linejoin="round" d="M434.686 620.367H180.318c-.593 0-1.07.45-1.07 1.002v160.089c0 .552.477 1.002 1.07 1.002h254.368c.594 0 1.071-.45 1.071-1.002V621.369c0-.552-.477-1.002-1.071-1.002m-9.407 144.76c0 .545-.47.981-1.05.981h-233.46c-.58 0-1.05-.443-1.05-.981V636.555c0-.545.47-.981 1.05-.981h233.46c.58 0 1.05.443 1.05.981z"/><path fill="#f7f3ea" stroke="#8c98b7" stroke-linecap="round" stroke-linejoin="round" d="M439.296 616.375H175.704c-.565 0-1.022.458-1.022 1.022v3.284c0 .564.457 1.022 1.022 1.022h263.592c.564 0 1.022-.458 1.022-1.022v-3.284c0-.564-.458-1.022-1.022-1.022M14311.1 782h-10.2c-.5 0-.9.402-.9.898v16.155c0 .495.4.897.9.897h10.2c.5 0 .9-.402.9-.897v-16.155c0-.496-.4-.898-.9-.898m351 0h-10.2c-.5 0-.9.402-.9.898v16.155c0 .495.4.897.9.897h10.2c.5 0 .9-.402.9-.897v-16.155c0-.496-.4-.898-.9-.898"/><path fill="#f7f3ea" stroke="#8c98b7" stroke-linecap="round" stroke-linejoin="round" d="M14299.5 783.129h219.3v-98.565h-219.3zm-.1-98.567h220.9v-98.564h-220.9z"/><path stroke="#8c98b7" stroke-linecap="round" stroke-linejoin="round" d="M14300.2 706.055h218.6m-218.6-98.567h218.6m-218.6 103.754h218.6m-218.6-98.566h218.6"/><path fill="#f7f3ea" stroke="#8c98b7" stroke-linecap="round" stroke-linejoin="round" d="M14518.8 684.801h145.1v-98.8h-145.1z"/><path fill="#f7f3ea" stroke="#8c98b7" stroke-linecap="round" stroke-linejoin="round" d="M14518.8 783.363h145.1v-98.799h-145.1z"/><path stroke="#8c98b7" stroke-linecap="round" stroke-linejoin="round" d="M14518.8 607.492h143.8m-143.8 98.563h143.8m-143-93.375h143.8m-143.8 98.562h143.8"/><path fill="#f7f3ea" stroke="#8c98b7" stroke-linecap="round" stroke-linejoin="round" d="M14718.1 782h-10.2c-.5 0-.9.402-.9.898v16.155c0 .495.4.897.9.897h10.2c.5 0 .9-.402.9-.897v-16.155c0-.496-.4-.898-.9-.898m351 0h-10.2c-.5 0-.9.402-.9.898v16.155c0 .495.4.897.9.897h10.2c.5 0 .9-.402.9-.897v-16.155c0-.496-.4-.898-.9-.898"/><path fill="#f7f3ea" stroke="#8c98b7" stroke-linecap="round" stroke-linejoin="round" d="M14706.4 783.129h219.4v-98.565h-219.4zm0-98.567h220.9v-98.564h-220.9z"/><path stroke="#8c98b7" stroke-linecap="round" stroke-linejoin="round" d="M14707.2 706.055h218.6m-218.6-98.567h218.6m-218.6 103.754h218.6m-218.6-98.566h218.6"/><path fill="#f7f3ea" stroke="#8c98b7" stroke-linecap="round" stroke-linejoin="round" d="M14925.8 684.801h145.1v-98.8h-145.1z"/><path fill="#f7f3ea" stroke="#8c98b7" stroke-linecap="round" stroke-linejoin="round" d="M14925.8 783.363h145.1v-98.799h-145.1z"/><path stroke="#8c98b7" stroke-linecap="round" stroke-linejoin="round" d="M14925.8 607.492h143.8m-143.8 98.563h143.8m-143-93.375h143.8m-143.8 98.562h143.8"/><path fill="#f7f3ea" stroke="#8c98b7" stroke-miterlimit="10" d="M9.787 779.766h-6.79a.89.89 0 0 0-.89.89v20.061c0 .492.398.89.89.89h6.79a.89.89 0 0 0 .889-.89v-20.061a.89.89 0 0 0-.889-.89Zm66.723 0h-6.791a.89.89 0 0 0-.889.89v20.061c0 .492.398.89.889.89h6.79a.89.89 0 0 0 .89-.89v-20.061a.89.89 0 0 0-.89-.89Z"/><path fill="#f7f3ea" stroke="#8c98b7" stroke-miterlimit="10" d="M75.582 780.799H3.99a3.675 3.675 0 0 1-3.662-3.507L-5.54 658.716a2.786 2.786 0 0 1 2.774-2.931h85.104a2.78 2.78 0 0 1 2.773 2.931l-5.867 118.576a3.675 3.675 0 0 1-3.662 3.507Z"/><path fill="#f7f3ea" stroke="#8c98b7" stroke-miterlimit="10" d="M67.068 799.109H12.504a1.434 1.434 0 0 1-1.434-1.406l-.971-43.261a3.834 3.834 0 0 1 3.828-3.922h51.725a3.83 3.83 0 0 1 3.827 3.922l-.971 43.261a1.44 1.44 0 0 1-1.434 1.406zm20.615-156.078H-8.111a.89.89 0 0 0-.889.89v11.025c0 .491.398.89.889.89h95.794a.89.89 0 0 0 .888-.89v-11.025a.89.89 0 0 0-.888-.89Z"/><path fill="#f7f3ea" stroke="#8c98b7" stroke-miterlimit="10" d="M-1.973 637.285h83.516a3.84 3.84 0 0 1 3.84 3.845v1.383c0 .32-.26.581-.58.581H-5.233a.58.58 0 0 1-.58-.581v-1.383a3.84 3.84 0 0 1 3.84-3.845Zm64.395-.18H17.144a.344.344 0 0 1-.344-.344 3.76 3.76 0 0 1 3.757-3.762h38.458a3.76 3.76 0 0 1 3.757 3.762c0 .19-.155.344-.344.344z"/><path fill="#8c98b7" stroke="#8c98b7" d="M47.268 696.262c.592 0 1.116.334 1.431.858v.001l2.56 4.302.212.355.388-.14a7.4 7.4 0 0 0 1.348-.676l-3.486 6.217-7.172-.073 1.734-.996-.249-.433-4.687-8.141v-.001l-.12-.196a4.7 4.7 0 0 0-.971-1.088zm-12.843.359c1.231.047 2.414.669 3.172 1.817l1.537 2.605-4.609 7.973-7.253-4.223 3.89-6.692c.807-1.064 1.952-1.533 3.263-1.48ZM32.6 716.576c-.534-.332-1.1-.671-1.42-.809l-.409-.176-.222.385-4.646 8.028a5.1 5.1 0 0 0-.614 1.721l-4.47-7.749c-.336-.589-.298-1.26.044-1.867h.001l2.442-4.338.242-.431-.429-.247-1.264-.728 7.195-.137zm5.694 5.928.063 8.408-7.517-.027h-.002c-1.262 0-2.37-.799-2.968-1.656-.812-1.165-.855-2.273-.524-3.4.32-1.092.985-2.175 1.687-3.325zm7.411-.437.022.476.476.002 8.812.029a6.5 6.5 0 0 0 2.23-.375l-4.562 7.834c-.255.433-.663.74-1.09.816l-.182.017-5.22.083-.478.008-.014.479-.046 1.586-3.72-6.345 3.704-6.096zm13.263-7.051c.64 1.106.464 2.443-.227 3.598l.001.001c-.726 1.211-1.596 1.667-2.629 1.846-.536.093-1.122.112-1.773.107-.548-.003-1.164-.023-1.791-.021l-4.583-7.971 7.21-4.126z"/><path fill="#f7f3ea" stroke="#8c98b7" stroke-miterlimit="10" d="m17752.3 350.345-25.1 28.963c-.7.779-.6 1.973.2 2.666l28.1 25.769c.8.693 2 .624 2.6-.156l25.1-28.963c.7-.779.6-1.973-.2-2.666l-28.1-25.769c-.8-.693-1.9-.623-2.6.156Z"/><path stroke="#8c98b7" stroke-miterlimit="10" d="M17800 332h-1c-1.1 0-2 .844-2 1.885v13.23c0 1.041.9 1.885 2 1.885h1c1.1 0 2-.844 2-1.885v-13.23c0-1.041-.9-1.885-2-1.885Zm-46 1h-1c-1.1 0-2 .844-2 1.885v13.23c0 1.041.9 1.885 2 1.885h1c1.1 0 2-.844 2-1.885v-13.23c0-1.041-.9-1.885-2-1.885Z"/><path fill="#f7f3ea" stroke="#8c98b7" stroke-miterlimit="10" d="m17752.6 356.243-20 23.065c-.7.779-.6 1.973.2 2.666l22.4 20.521c.7.694 1.9.624 2.6-.155l19.9-23.065c.7-.779.6-1.973-.1-2.667l-22.4-20.521c-.8-.693-2-.623-2.6.156Z"/><path fill="#f7f3ea" stroke="#8c98b7" stroke-miterlimit="10" d="m17798.4 349.509-25 28.963c-.7.779-.7 1.973.1 2.666l28.2 25.769c.7.693 1.9.624 2.6-.156l25-28.963c.7-.779.6-1.973-.1-2.666l-28.2-25.769c-.8-.693-1.9-.623-2.6.156Z"/><path fill="#f7f3ea" stroke="#8c98b7" stroke-miterlimit="10" d="m17798.7 355.415-19.9 23.065c-.7.779-.7 1.973.1 2.666l22.4 20.521c.8.694 2 .624 2.6-.155l20-23.065c.7-.78.6-1.973-.2-2.667l-22.4-20.521c-.8-.693-1.9-.624-2.6.156Z"/><path fill="#f7f3ea" d="M16173 239h-604.4v251.448h604.4z"/><path fill="#8c98b7" d="M15592.9 409.469c-.3-.044-.5-.35-.5-.678l1.6-12.357c.1-.329.4-.558.7-.515s.6.351.5.679l-1.6 12.357c-.1.328-.3.558-.7.514"/><path fill="#8c98b7" d="M15588.2 405.409c-.1-.296 0-.657.3-.81l9.7-4.87c.3-.154.6-.022.8.273.1.296 0 .657-.3.81l-9.7 4.871c-.2.153-.6.021-.8-.274"/><path fill="#8c98b7" d="M15588.8 401.775c.1-.328.4-.536.7-.481l8.3 1.62c.4.065.6.383.5.7-.1.329-.4.536-.7.482l-8.3-1.62c-.3-.066-.5-.383-.5-.701"/><path fill="#8c98b7" d="M15596.6 398.36c.3.186.3.558.2.832l-4.8 7.147c-.1.273-.5.35-.8.164s-.3-.558-.1-.832l4.7-7.147c.2-.274.5-.35.8-.164"/><path fill="#8c98b7" d="M15598 406.57c-.2.241-.6.262-.8.044l-7.4-6.764c-.2-.219-.2-.602 0-.854.2-.241.6-.263.8-.044l7.4 6.764c.2.219.2.602 0 .854"/><mask id="b" width="613" height="262" x="15567" y="234" maskUnits="userSpaceOnUse" style="mask-type:luminance"><path fill="#fff" d="M16177.5 234.406h-607.1c-1.3 0-2.4 1.068-2.4 2.386v255.881c0 1.317 1.1 2.386 2.4 2.386h607.1c1.3 0 2.4-1.069 2.4-2.386V236.792c0-1.318-1.1-2.386-2.4-2.386"/></mask><g mask="url(#b)"><path fill="#f7f3ea" stroke="#8c98b7" stroke-miterlimit="10" d="M15485.1 265.083c0-3.327.7-6.523 2.1-9.489v.11c4.9-11.624 18.9-20.029 35.4-20.029 4.6 0 9 .656 13.1 1.838-.2-1.368-.3-2.747-.3-4.148 0-24.09 28.6-43.615 64-43.615 5.1 0 10.1.427 14.9 1.204 9.7-19.515 33.9-33.36 62.3-33.36 36.5 0 66.1 22.776 66.8 51.09 1.4-.054 2.8-.087 4.1-.087 36.9 0 66.8 17.807 66.8 39.774 0 0 2 32.09-18 52.349-11.9 12.182-31.5 20.226-64.2 14.743-5-.843-10.6-1.697-16.6-2.539-.5.952-1 1.882-1.7 2.769-4.8 6.402-14.1 10.758-24.7 10.758-10.7 0-19.4-4.093-24.3-10.178-11.7 10.988-33.8 19.679-50 19.679-19 0-35.1-9.369-40-22.142-5.6 2.331-12.8 3.732-20.6 3.732-18.1 0-32.8-7.53-32.8-16.822 0-2.309 1-4.52 2.6-6.523-.3-.022-.5-.044-.8-.055-.3 0-.5.022-.9.022-2.7 0-5.4-.241-8-.69-.1 0-.2-.01-.2-.01h.1c-16.7-2.923-29.1-14.513-29.1-28.381Zm751.5 30.21c0-3.524-.8-6.895-2.2-10.036 0 .032-.1.076-.1.109-5.1-12.291-19.9-21.167-37.4-21.167-4.9 0-9.5.689-13.8 1.937.2-1.445.3-2.911.3-4.389 0-25.469-30.3-46.111-67.7-46.111-5.4 0-10.7.449-15.8 1.27-10.2-20.62-35.8-35.254-65.8-35.254-38.5 0-69.8 24.079-70.6 54.013-1.5-.054-2.9-.087-4.4-.087-39 0-70.6 18.825-70.6 42.05 0 0-2.1 33.918 19.1 55.337 12.5 12.882 33.3 21.387 67.8 15.586 5.3-.898 11.2-1.795 17.5-2.682.5 1.007 1.2 1.992 1.9 2.923 5 6.775 14.8 11.371 26.1 11.371s20.5-4.334 25.6-10.758c12.4 11.612 35.8 20.806 52.8 20.806 20.2 0 37.2-9.905 42.4-23.4 5.9 2.462 13.5 3.951 21.7 3.951 19.2 0 34.7-7.968 34.7-17.786 0-2.44-1-4.772-2.7-6.895.3-.022.5-.044.8-.066.3 0 .6.022.9.022 3 0 5.8-.252 8.6-.722l.1-.011c17.6-3.097 30.8-15.345 30.8-30z"/><path fill="#f7f3ea" stroke="#8c98b7" stroke-miterlimit="10" d="M15684.2 294.142c0-3.798.8-7.432 2.2-10.824 0 .043 0 .076.1.12 5.1-13.254 19.9-22.831 37.4-22.831 4.9 0 9.5.744 13.8 2.09-.2-1.554-.3-3.141-.3-4.739 0-27.46 30.3-49.733 67.7-49.733 5.4 0 10.7.481 15.8 1.368 10.2-22.24 35.8-38.023 65.8-38.023 38.5 0 69.8 25.973 70.6 58.26 1.4-.055 2.9-.099 4.4-.099 39 0 70.6 20.303 70.6 45.356 0 0 2.1 36.589-19.1 59.682-12.5 13.89-33.3 23.072-67.8 16.812-5.3-.963-11.2-1.927-17.5-2.89-.6 1.095-1.2 2.146-1.9 3.152-5 7.301-14.8 12.27-26.1 12.27-10.9 0-20.5-4.674-25.6-11.602-12.4 12.532-35.8 22.437-52.9 22.437-20.1 0-37.1-10.682-42.3-25.239-6 2.66-13.5 4.258-21.7 4.258-19.2 0-34.7-8.592-34.7-19.187 0-2.637.9-5.144 2.7-7.431-.3-.022-.6-.044-.8-.066-.3 0-.6.022-1 .022-2.9 0-5.7-.274-8.5-.777-.1 0-.1-.011-.1-.011-17.6-3.338-30.8-16.549-30.8-32.364z"/><path fill="#8c98b7" d="M15655.3 387.671c0-.275-.1-.529-.4-.565-.3-.037-.6.156-.6.432l-2.8 21.307c-.1.276.1.529.4.566s.5-.157.6-.433z"/><path fill="#8c98b7" d="M15657.6 392.701c.1-.227.1-.541-.1-.701-.3-.16-.6-.105-.7.123l-8 11.387c-.2.227-.1.541.1.701s.5.105.7-.123z"/><path fill="#8c98b7" d="M15660.1 399.972c.3.048.6-.136.6-.41.1-.274-.1-.534-.4-.582l-13.7-2.387c-.3-.048-.5.136-.6.41 0 .274.2.534.4.582z"/><path fill="#8c98b7" d="M15661.6 394.766c.3-.12.4-.421.2-.672-.1-.25-.4-.356-.6-.235l-16.5 7.92c-.2.12-.3.421-.2.672.1.25.4.356.7.235z"/><path fill="#8c98b7" d="M15659.6 404.879c.2.194.5.189.7-.01.2-.2.2-.518 0-.712l-12.6-12.174a.49.49 0 0 0-.7.01c-.2.2-.2.519 0 .712zm64.5 1.404c0-.264-.1-.506-.4-.54s-.5.15-.5.414l-2.7 20.287c-.1.264.1.506.4.54.2.035.5-.15.5-.414z"/><path fill="#8c98b7" d="M15726.3 411.07c.1-.218.1-.517-.1-.668-.3-.151-.6-.097-.7.121l-7.6 10.84c-.2.218-.1.517.1.668s.5.097.7-.121z"/><path fill="#8c98b7" d="M15728.7 417.996c.3.046.5-.127.6-.386 0-.259-.2-.506-.4-.552l-13-2.272c-.3-.046-.6.127-.6.386s.1.506.4.552z"/><path fill="#8c98b7" d="M15730.1 413.036c.2-.116.3-.401.2-.638s-.4-.336-.6-.22l-15.6 7.54c-.3.115-.4.401-.3.637.1.237.4.336.7.221z"/><path fill="#8c98b7" d="M15728.2 422.664c.2.185.5.182.6-.006.2-.189.2-.492 0-.677l-11.9-11.587a.51.51 0 0 0-.7.006c-.1.189-.1.492.1.677zm60.2 3.31c0-.263-.1-.505-.4-.54s-.5.151-.5.414l-2.7 20.288c-.1.263.1.505.4.54.2.035.5-.151.5-.414z"/><path fill="#8c98b7" d="M15790.6 430.765c.1-.217.1-.516-.1-.667s-.5-.097-.7.12l-7.6 10.841c-.1.217-.1.516.1.667s.5.097.7-.12z"/><path fill="#8c98b7" d="M15793 437.684c.3.045.5-.128.6-.387 0-.259-.1-.506-.4-.552l-13-2.272c-.3-.045-.5.127-.6.387 0 .259.1.506.4.551z"/><path fill="#8c98b7" d="M15794.4 432.727c.3-.115.4-.401.2-.638-.1-.237-.4-.335-.6-.22l-15.6 7.54c-.3.115-.4.401-.3.638.2.237.4.335.7.22z"/><path fill="#8c98b7" d="M15792.5 442.367c.2.185.5.183.6-.006.2-.189.2-.492 0-.677l-11.9-11.586a.507.507 0 0 0-.7.005c-.1.189-.1.492.1.677zm-40.6 3.478v-.002c-.3-.04-.6.174-.6.48l-3.2 23.954c-.1.305.1.586.4.627l.1.001c.3.041.5-.174.6-.479l3.2-23.954c0-.306-.2-.586-.5-.627"/><path fill="#8c98b7" d="M15754.8 451.354v-.006c-.2-.177-.6-.116-.8.136l-8.9 12.803c-.2.252-.2.6.1.777v.006c.3.177.6.116.8-.136l9-12.802c.1-.253.1-.601-.2-.778"/><path fill="#8c98b7" d="M15758.5 459.846v-.011c0-.304-.2-.593-.5-.646l-15.4-2.683c-.3-.053-.6.15-.6.454v.011c-.1.303.1.592.4.645l15.4 2.684c.3.053.6-.15.7-.454"/><path fill="#8c98b7" d="M15759.7 453.696v-.009c-.1-.278-.4-.395-.7-.261l-18.5 8.902c-.3.134-.4.468-.2.745v.01c.1.278.4.395.7.261l18.5-8.903c.3-.133.4-.467.2-.745"/><path fill="#8c98b7" d="m15757.9 465.807.1-.008c.2-.221.2-.575-.1-.79l-14-13.684c-.2-.214-.6-.209-.8.012v.008c-.2.221-.2.574 0 .789l14.1 13.684c.2.215.5.21.7-.011m-53.3-16.502c-.2-.03-.4.126-.4.347l-2.3 17.402c-.1.221.1.425.3.455v.001c.2.03.4-.126.5-.348l2.3-17.401c0-.222-.1-.425-.4-.455"/><path fill="#8c98b7" d="M15706.8 453.301v-.006c-.2-.128-.5-.084-.6.099l-6.5 9.299c-.2.183-.1.436.1.564v.007c.2.128.4.084.5-.099l6.6-9.299c.1-.184 0-.436-.1-.565"/><path fill="#8c98b7" d="M15709.4 459.476v-.011c0-.22-.1-.43-.3-.468l-11.2-1.949c-.2-.039-.4.109-.5.329v.011c0 .22.1.43.4.468l11.1 1.95c.3.038.5-.11.5-.33"/><path fill="#8c98b7" d="M15710.3 455.011v-.009c-.1-.202-.3-.287-.5-.19l-13.4 6.467c-.2.097-.3.339-.2.541v.01c.1.201.3.286.5.189l13.4-6.467c.2-.097.3-.339.2-.541"/><path fill="#8c98b7" d="M15709 463.806v-.008c.2-.16.2-.417 0-.572l-10.2-9.939c-.1-.156-.4-.152-.6.008v.008c-.1.16-.1.417.1.572l10.2 9.939c.1.156.4.152.5-.008m-51.7-23.383c.1-.269-.1-.517-.4-.553s-.5.153-.5.423l-2.8 21.003c-.1.27.1.517.4.553s.5-.153.5-.423z"/><path fill="#8c98b7" d="M15659.6 445.383c.2-.223.1-.53-.1-.686s-.6-.102-.7.12l-7.9 11.226c-.1.222-.1.53.1.686.3.156.6.102.7-.12z"/><path fill="#8c98b7" d="M15662.1 452.546c.3.047.5-.133.6-.401 0-.268-.1-.523-.4-.569l-13.5-2.353c-.3-.047-.5.132-.6.4 0 .268.2.523.4.57z"/><path fill="#8c98b7" d="M15663.6 447.418c.2-.118.3-.413.2-.658s-.4-.348-.7-.23l-16.2 7.806c-.2.118-.3.412-.2.657s.4.348.7.23z"/><path fill="#8c98b7" d="M15661.5 457.379c.2.189.5.185.7-.01a.48.48 0 0 0 0-.697l-12.3-11.998a.497.497 0 0 0-.7.01.48.48 0 0 0 0 .697zm-52.3 1.451c0-.191-.1-.367-.3-.393s-.3.109-.4.301l-1.9 14.819c-.1.192.1.368.3.394.1.025.3-.109.3-.301z"/><path fill="#8c98b7" d="M15610.8 462.345c.1-.158.1-.376-.1-.488-.1-.111-.4-.072-.5.086l-5.5 7.92c-.1.158-.1.376.1.487.1.112.3.073.5-.085z"/><path fill="#8c98b7" d="M15612.6 467.403c.2.034.4-.094.4-.285s-.1-.371-.3-.405l-9.5-1.66c-.2-.033-.4.095-.4.285 0 .191.1.372.3.405z"/><path fill="#8c98b7" d="M15613.6 463.775c.2-.084.3-.293.2-.467a.385.385 0 0 0-.5-.164l-11.4 5.508c-.2.084-.3.293-.2.467s.3.248.5.164z"/><path fill="#8c98b7" d="M15612.2 470.805c.1.135.3.132.5-.007.1-.139.1-.36-.1-.495l-8.7-8.467a.246.246 0 0 0-.4.007c-.2.139-.2.361 0 .495zm9.1-52.442a.51.51 0 0 0-.4-.479c-.2-.031-.4.134-.5.367l-2.4 17.987c0 .234.2.448.4.479s.4-.133.5-.367z"/><path fill="#8c98b7" d="M15623.2 422.611c.1-.193.1-.458-.1-.592s-.5-.085-.6.108l-6.7 9.613c-.2.193-.1.457.1.591s.4.086.6-.107z"/><path fill="#8c98b7" d="M15625.4 428.734c.2.04.4-.113.4-.342.1-.23-.1-.448-.3-.489l-11.6-2.015c-.2-.04-.4.113-.4.342-.1.229.1.448.3.489z"/><path fill="#8c98b7" d="M15626.6 424.343c.2-.102.3-.355.2-.565s-.4-.297-.6-.194l-13.8 6.685c-.2.102-.3.355-.2.565s.3.296.5.194z"/><path fill="#8c98b7" d="M15624.9 432.885c.1.164.4.162.6-.005a.47.47 0 0 0-.1-.599l-10.5-10.275q-.3-.246-.6.005c-.2.167-.2.435 0 .6zm154.8-69.734c.1-.18-.1-.345-.2-.369-.2-.024-.4.102-.4.282l-1.9 13.94c0 .18.1.345.3.369s.4-.102.4-.282z"/><path fill="#8c98b7" d="M15781.2 366.447c.1-.149.1-.353 0-.458-.2-.104-.4-.068-.5.081l-5.2 7.453c-.1.149-.1.354.1.458.1.104.3.068.4-.08z"/><path fill="#8c98b7" d="M15782.9 371.208c.2.031.4-.089.4-.267s-.1-.349-.3-.38l-8.9-1.563c-.2-.031-.4.089-.4.268 0 .178.1.348.3.379z"/><path fill="#8c98b7" d="M15783.9 367.789c.1-.079.2-.275.1-.438 0-.164-.2-.233-.4-.154l-10.8 5.18c-.1.079-.2.275-.1.439s.3.232.4.153z"/><path fill="#8c98b7" d="M15782.5 374.422c.2.126.4.123.5-.007s.1-.338 0-.464l-8.2-7.963c-.1-.127-.3-.124-.5.006-.1.13-.1.338.1.465zm20.7 23.23-.1-.001c-.2-.027-.3.116-.4.319l-2.1 15.991c0 .204.1.391.3.419v.001c.2.027.4-.116.4-.32l2.2-15.991c0-.203-.1-.391-.3-.418"/><path fill="#8c98b7" d="M15805.1 401.326v-.007c-.2-.118-.4-.077-.5.091l-6 8.547c-.1.168-.1.4.1.518v.007c.2.118.4.077.5-.091l6-8.547c.1-.168.1-.4-.1-.518"/><path fill="#8c98b7" d="M15807.5 407.014v-.011c.1-.202-.1-.395-.3-.43l-10.2-1.792c-.2-.035-.4.101-.5.303v.011c0 .202.1.395.3.43l10.3 1.792c.2.035.4-.1.4-.303"/><path fill="#8c98b7" d="M15808.4 402.892v-.01a.375.375 0 0 0-.5-.174l-12.3 5.945c-.2.089-.3.311-.2.497v.009c.1.186.3.263.5.174l12.3-5.944c.2-.089.3-.312.2-.497"/><path fill="#8c98b7" d="M15807.2 410.997v-.007a.5.5 0 0 0 0-.527l-9.4-9.138c-.1-.143-.4-.139-.5.008v.008c-.2.147-.2.383 0 .526l9.4 9.138c.1.143.3.14.5-.008m-46.7-6.526c.1-.18-.1-.345-.2-.369-.2-.024-.4.102-.4.282l-1.9 13.941c0 .179.1.345.3.369s.4-.103.4-.282z"/><path fill="#8c98b7" d="M15762 407.755c.1-.148.1-.353 0-.457-.2-.104-.4-.068-.5.08l-5.2 7.454c-.1.148-.1.353.1.457.1.105.3.069.4-.08z"/><path fill="#8c98b7" d="M15763.7 412.524c.2.031.4-.088.4-.267s-.1-.349-.3-.38l-8.9-1.562c-.2-.031-.4.088-.4.267s.1.349.3.38z"/><path fill="#8c98b7" d="M15764.7 409.109c.1-.079.2-.275.1-.438 0-.164-.2-.232-.4-.154l-10.7 5.181c-.2.078-.3.274-.2.438s.3.232.4.153z"/><path fill="#8c98b7" d="M15763.3 415.742c.2.126.4.124.5-.007.1-.13.1-.337 0-.464l-8.2-7.963c-.1-.126-.3-.123-.5.007-.1.13-.1.337 0 .464zm83.6 30.928c0-.18-.1-.345-.3-.369-.1-.024-.3.103-.3.282l-1.9 13.941c0 .18.1.345.3.369s.3-.103.4-.282z"/><path fill="#8c98b7" d="M15848.4 449.966c.1-.148.1-.353-.1-.457-.1-.104-.3-.068-.4.08l-5.2 7.454c-.1.148-.1.353 0 .457.2.104.4.069.5-.08z"/><path fill="#8c98b7" d="M15850.1 454.731c.2.031.3-.088.4-.267 0-.179-.1-.349-.3-.38l-9-1.562c-.1-.031-.3.088-.3.267-.1.179.1.349.2.38z"/><path fill="#8c98b7" d="M15851.1 451.324c.1-.079.2-.275.1-.438-.1-.164-.3-.232-.4-.154l-10.8 5.18c-.1.079-.2.275-.1.439s.2.232.4.153z"/><path fill="#8c98b7" d="M15849.7 457.949c.1.127.3.124.5-.006.1-.131.1-.338 0-.465l-8.2-7.963c-.2-.126-.4-.123-.5.007s-.1.338 0 .464zm-110.7-92.802c.1-.204-.1-.391-.3-.418s-.4.116-.4.32l-2.1 15.915c0 .203.1.391.3.418s.4-.116.4-.32z"/><path fill="#8c98b7" d="M15740.8 368.892c.1-.168 0-.4-.1-.518-.2-.118-.4-.077-.6.091l-5.9 8.502c-.1.168-.1.4.1.518.1.118.4.078.5-.091z"/><path fill="#8c98b7" d="M15742.7 374.337c.2.036.4-.1.4-.302 0-.203-.1-.396-.3-.431l-10.2-1.782c-.2-.035-.4.1-.4.303-.1.202.1.395.3.43z"/><path fill="#8c98b7" d="M15743.8 370.445c.1-.089.2-.311.1-.496a.374.374 0 0 0-.5-.174l-12.2 5.911c-.2.089-.3.312-.2.497s.3.263.5.174z"/><path fill="#8c98b7" d="M15742.2 378.005q.3.214.6-.008c.1-.147.1-.383 0-.526l-9.4-9.092c-.1-.143-.4-.14-.5.008-.2.147-.2.382 0 .526zm-77.3-31.556c.1-.276-.1-.529-.4-.566s-.5.157-.6.432l-2.8 21.405c-.1.276.1.529.4.566s.5-.157.6-.433z"/><path fill="#8c98b7" d="M15667.2 351.506c.2-.227.1-.541-.1-.701s-.5-.105-.7.123l-8 11.44c-.2.228-.1.542.1.702s.5.104.7-.123z"/><path fill="#8c98b7" d="M15669.8 358.8c.3.048.5-.136.6-.409 0-.274-.2-.535-.4-.583l-13.8-2.398c-.3-.048-.5.136-.6.41 0 .273.2.534.4.582z"/><path fill="#8c98b7" d="M15671.3 353.559c.2-.12.3-.421.2-.672-.1-.25-.4-.356-.7-.235l-16.5 7.953c-.2.121-.3.422-.2.672s.4.356.7.235z"/><path fill="#8c98b7" d="M15669.2 363.727c.2.193.5.189.7-.01.2-.2.2-.519 0-.712l-12.6-12.228a.49.49 0 0 0-.7.011c-.2.199-.2.518 0 .712zm31.7 10.432c.1-.216-.1-.414-.3-.443s-.4.123-.5.339l-2.2 16.761c0 .216.1.414.3.443.3.028.5-.123.5-.339z"/><path fill="#8c98b7" d="M15702.7 378.119c.2-.178.1-.424-.1-.549-.1-.125-.4-.082-.5.096l-6.3 8.959c-.1.178-.1.424.1.549s.4.082.6-.096z"/><path fill="#8c98b7" d="M15704.8 383.845c.2.038.4-.106.4-.32s-.1-.419-.3-.456l-10.8-1.878a.333.333 0 0 0-.4.321c-.1.214.1.418.3.455z"/><path fill="#8c98b7" d="M15705.9 379.748c.2-.094.3-.33.2-.526s-.4-.278-.5-.184l-13 6.23c-.2.094-.2.329-.2.526.1.196.4.278.6.184z"/><path fill="#8c98b7" d="M15704.3 387.705c.1.151.4.148.5-.008.2-.156.2-.406 0-.558l-9.8-9.58q-.3-.227-.6.008c-.1.156-.1.406 0 .557zm141.4-3.32c0-.215-.2-.413-.4-.442a.348.348 0 0 0-.4.338l-2.3 16.761c0 .216.2.414.4.443s.4-.123.4-.338z"/><path fill="#8c98b7" d="M15847.5 388.342c.1-.179.1-.424-.1-.549s-.5-.082-.6.096l-6.3 8.959c-.1.178 0 .424.1.549.2.125.5.082.6-.096z"/><path fill="#8c98b7" d="M15849.5 394.06c.2.038.4-.106.4-.32.1-.215-.1-.419-.3-.456l-10.7-1.878c-.3-.037-.5.106-.5.321 0 .214.1.418.3.455z"/><path fill="#8c98b7" d="M15850.6 389.963c.2-.094.3-.33.2-.526s-.3-.278-.5-.184l-12.9 6.229c-.2.095-.3.33-.2.526s.3.279.5.184z"/><path fill="#8c98b7" d="M15849 397.931q.3.227.6-.008c.1-.156.1-.405 0-.557l-9.9-9.58c-.1-.152-.4-.148-.5.008-.2.156-.2.405 0 .557zm65.6-8.379c0-.281-.2-.54-.4-.578-.3-.037-.6.161-.6.442l-2.9 21.795c-.1.282.1.541.4.578.3.038.6-.16.6-.442z"/><path fill="#8c98b7" d="M15916.9 394.7c.2-.233.2-.554-.1-.717-.2-.163-.5-.107-.7.126l-8.2 11.646c-.1.233-.1.554.2.717.2.163.5.107.7-.126z"/><path fill="#8c98b7" d="M15919.6 402.136c.3.049.5-.138.6-.418 0-.28-.2-.547-.5-.595l-13.9-2.442c-.3-.048-.6.139-.6.419-.1.28.1.546.4.595z"/><path fill="#8c98b7" d="M15921.1 396.806c.2-.123.3-.43.2-.686s-.4-.364-.7-.241l-16.8 8.101c-.2.123-.4.43-.2.686.1.256.4.364.7.241z"/><path fill="#8c98b7" d="M15919 407.161c.2.198.5.193.7-.011s.2-.529 0-.727l-12.8-12.449a.48.48 0 0 0-.7.011c-.2.204-.2.529 0 .727zm171.7-29.636c.1-.282-.1-.54-.4-.578s-.5.16-.6.442l-2.9 21.795c0 .282.2.54.5.578.2.037.5-.16.5-.442z"/><path fill="#8c98b7" d="M16093.1 382.66c.2-.232.1-.553-.1-.716-.3-.163-.6-.107-.8.126l-8.1 11.646c-.2.233-.1.554.1.717s.6.107.7-.126z"/><path fill="#8c98b7" d="M16095.7 390.109c.3.049.6-.139.6-.419.1-.279-.1-.546-.4-.595l-14-2.441c-.3-.049-.6.139-.6.419s.1.546.4.595z"/><path fill="#8c98b7" d="M16097.2 384.779c.3-.123.4-.431.2-.687-.1-.256-.4-.363-.6-.24l-16.8 8.1c-.3.124-.4.431-.3.687s.5.363.7.24z"/><path fill="#8c98b7" d="M16095.1 395.145c.2.198.5.193.7-.01s.2-.53 0-.728l-12.8-12.448a.48.48 0 0 0-.7.01c-.2.204-.2.53 0 .728zm-63.8 49.044c.1-.282-.1-.54-.4-.578s-.6.16-.6.442l-2.9 21.795c0 .282.2.54.4.578.3.037.6-.16.6-.442z"/><path fill="#8c98b7" d="M16033.7 449.317c.1-.233.1-.554-.2-.717-.2-.163-.5-.107-.7.126l-8.1 11.646c-.2.233-.1.554.1.717s.5.107.7-.126z"/><path fill="#8c98b7" d="M16036.3 456.777c.3.049.5-.139.6-.419 0-.28-.1-.546-.4-.595l-14-2.441c-.3-.049-.6.139-.6.418-.1.28.1.547.4.595z"/><path fill="#8c98b7" d="M16037.8 451.435c.2-.123.4-.43.2-.686-.1-.256-.4-.364-.7-.241l-16.8 8.101c-.2.123-.3.43-.2.686s.4.364.7.24z"/><path fill="#8c98b7" d="M16035.7 461.801c.2.198.5.194.7-.01s.2-.53 0-.728l-12.8-12.448a.483.483 0 0 0-.7.01c-.2.204-.2.53 0 .728zm73.5 2.753c0-.257-.1-.494-.4-.528-.2-.034-.5.148-.5.405l-2.6 19.788c-.1.258.1.494.4.528.2.034.4-.147.5-.405z"/><path fill="#8c98b7" d="M16111.3 469.213c.2-.213.1-.505-.1-.653-.2-.147-.5-.095-.6.118l-7.4 10.572c-.2.213-.1.505.1.652s.5.095.6-.118z"/><path fill="#8c98b7" d="M16113.7 475.984c.3.045.5-.124.6-.377 0-.253-.1-.495-.4-.539l-12.7-2.216c-.3-.045-.5.124-.5.377-.1.253.1.495.3.539z"/><path fill="#8c98b7" d="M16115.1 471.144c.2-.113.3-.392.2-.623-.1-.232-.4-.328-.6-.215l-15.3 7.35c-.2.112-.3.392-.2.623.1.232.4.328.6.215z"/><path fill="#8c98b7" d="M16113.2 480.562c.2.181.5.178.6-.006a.44.44 0 0 0 0-.661l-11.6-11.305c-.2-.181-.5-.178-.6.006a.44.44 0 0 0 0 .662zm-154.3-119.578c0-.222-.2-.425-.4-.455a.353.353 0 0 0-.4.349l-2.3 17.054c0 .222.1.425.3.454.3.03.5-.126.5-.348z"/><path fill="#8c98b7" d="M15960.7 365.009c.1-.183.1-.434-.1-.561s-.4-.081-.5.102l-6.4 9.111c-.2.184-.1.435.1.561.1.127.4.081.5-.102z"/><path fill="#8c98b7" d="M15962.8 370.831c.2.038.4-.107.4-.324.1-.218-.1-.425-.3-.463l-10.9-1.91c-.3-.038-.5.107-.5.324s.1.425.3.463z"/><path fill="#8c98b7" d="M15963.9 366.657c.2-.097.3-.337.2-.535-.1-.199-.3-.282-.5-.185l-13.1 6.334c-.2.097-.3.337-.2.536s.3.281.5.184z"/><path fill="#8c98b7" d="M15962.3 374.767c.1.156.4.154.6-.004a.43.43 0 0 0-.1-.569l-10-9.74c-.1-.156-.4-.154-.5.004-.2.158-.2.413 0 .569zm176.6-15.686c0-.221-.1-.425-.3-.454-.3-.029-.5.127-.5.349l-2.3 17.054c0 .222.2.425.4.454s.4-.127.4-.349z"/><path fill="#8c98b7" d="M16140.7 363.103c.2-.183.1-.434 0-.561-.2-.127-.5-.081-.6.102l-6.4 9.111c-.1.183-.1.434.1.561s.4.081.6-.102z"/><path fill="#8c98b7" d="M16142.8 368.925c.2.038.4-.107.5-.324 0-.218-.1-.425-.3-.463l-11-1.91c-.2-.039-.4.106-.5.324 0 .217.1.424.4.463z"/><path fill="#8c98b7" d="M16144 364.759c.2-.097.3-.337.2-.536s-.4-.281-.6-.184l-13.1 6.334c-.2.097-.3.337-.2.535.1.199.3.282.5.185z"/><path fill="#8c98b7" d="M16142.3 372.865c.2.156.5.154.6-.004.2-.159.2-.413 0-.569l-10-9.741q-.3-.232-.6.005c-.1.158-.1.413 0 .568zm-3.6 22.735c0-.192-.1-.368-.3-.394-.2-.025-.4.11-.4.301l-2 14.841c0 .192.1.368.3.394.2.025.4-.109.4-.301z"/><path fill="#8c98b7" d="M16140.3 399.088c.1-.159.1-.377-.1-.488-.1-.111-.4-.073-.5.085l-5.5 7.929c-.1.158-.1.377.1.488.1.111.3.073.4-.086z"/><path fill="#8c98b7" d="M16142.1 404.177c.2.033.4-.095.4-.285 0-.191-.1-.372-.3-.405l-9.5-1.662c-.2-.033-.4.094-.4.285-.1.19.1.372.3.405z"/><path fill="#8c98b7" d="M16143.1 400.533c.2-.084.2-.293.2-.467a.385.385 0 0 0-.5-.164l-11.4 5.512c-.2.084-.3.294-.2.468s.3.247.5.164z"/><path fill="#8c98b7" d="M16141.7 407.61c.1.135.3.131.5-.007.1-.139.1-.361 0-.496l-8.8-8.474a.247.247 0 0 0-.4.007c-.2.139-.2.361 0 .496zm-231.2 37.024c0-.192-.2-.368-.3-.393-.2-.025-.4.11-.4.301l-2 14.69c0 .191.1.367.3.392s.4-.109.4-.301z"/><path fill="#8c98b7" d="M15912 448.093c.2-.158.1-.375 0-.485-.2-.109-.4-.069-.5.089l-5.5 7.848c-.1.158-.1.375.1.485.1.109.3.069.4-.089z"/><path fill="#8c98b7" d="M15913.8 453.111c.2.034.4-.092.4-.279.1-.188-.1-.367-.3-.4l-9.4-1.645c-.2-.033-.4.092-.4.28 0 .187.1.366.3.399z"/><path fill="#8c98b7" d="M15914.8 449.527c.2-.084.3-.291.2-.462a.386.386 0 0 0-.5-.159l-11.3 5.455c-.2.084-.2.291-.2.463.1.172.3.243.5.159z"/><path fill="#8c98b7" d="M15913.4 456.512c.1.135.4.134.5-.003a.44.44 0 0 0 0-.491l-8.6-8.391c-.2-.135-.4-.133-.5.003-.2.137-.2.357 0 .492zm57.1-61.163c0-.192-.1-.368-.3-.393s-.4.11-.4.301l-2 14.69c0 .191.1.367.3.392s.4-.11.4-.301z"/><path fill="#8c98b7" d="M15972.1 398.808c.1-.159 0-.376-.1-.485-.2-.109-.4-.07-.5.089l-5.5 7.848c-.1.158-.1.375.1.484.1.11.3.07.5-.088z"/><path fill="#8c98b7" d="M15973.8 403.842c.2.033.4-.092.4-.28.1-.187-.1-.366-.3-.399l-9.4-1.646c-.2-.033-.4.092-.4.28s.1.367.3.4z"/><path fill="#8c98b7" d="M15974.8 400.226c.2-.084.3-.291.2-.462a.386.386 0 0 0-.5-.159l-11.3 5.456c-.1.084-.2.291-.1.462 0 .172.3.243.4.159z"/><path fill="#8c98b7" d="M15973.4 407.231c.2.135.4.133.5-.003.2-.137.1-.357 0-.492l-8.6-8.39c-.2-.135-.4-.133-.5.003a.44.44 0 0 0 0 .491zm64.6 5.242c0-.191-.1-.367-.3-.392s-.4.11-.4.301l-2 14.69c0 .191.2.367.3.392.2.025.4-.11.4-.301z"/><path fill="#8c98b7" d="M16039.6 415.929c.1-.158.1-.375-.1-.485s-.4-.07-.5.089l-5.5 7.848c-.1.158-.1.375.1.485s.4.069.5-.089z"/><path fill="#8c98b7" d="M16041.4 420.951c.2.033.3-.092.4-.279 0-.188-.1-.367-.3-.4l-9.5-1.645c-.1-.033-.3.092-.4.279 0 .188.1.367.3.4z"/><path fill="#8c98b7" d="M16042.4 417.359c.1-.084.2-.291.1-.462s-.3-.243-.4-.159l-11.4 5.455c-.1.084-.2.291-.1.463s.3.243.4.159z"/><path fill="#8c98b7" d="M16040.9 424.364c.2.135.4.133.5-.003.2-.137.2-.357 0-.492l-8.6-8.39c-.1-.135-.4-.134-.5.003a.44.44 0 0 0 0 .491zm-129.5-66.941c.1-.192-.1-.368-.3-.393s-.3.11-.4.302l-1.9 14.689c0 .191.1.367.3.392s.3-.109.4-.301z"/><path fill="#8c98b7" d="M15913 360.886c.1-.158.1-.375-.1-.485-.1-.109-.3-.07-.5.089l-5.5 7.848c-.1.158 0 .375.1.485.2.109.4.069.5-.089z"/><path fill="#8c98b7" d="M15914.8 365.916c.2.033.4-.092.4-.279s-.1-.367-.3-.4l-9.4-1.645c-.2-.034-.4.092-.4.279-.1.188.1.367.3.4z"/><path fill="#8c98b7" d="M15915.8 362.308c.2-.084.2-.291.2-.462a.386.386 0 0 0-.5-.159l-11.3 5.456c-.2.084-.3.291-.2.462s.3.243.5.159z"/><path fill="#8c98b7" d="M15914.4 369.297c.1.135.3.134.5-.003a.44.44 0 0 0 0-.491l-8.7-8.391c-.1-.134-.3-.133-.5.004-.1.136-.1.356.1.491zm232.7 63.692c0-.192-.1-.367-.3-.393-.2-.025-.4.11-.4.302l-1.9 14.689c-.1.192.1.368.2.393.2.025.4-.11.4-.302z"/><path fill="#8c98b7" d="M16148.7 436.441c.1-.159.1-.376-.1-.485-.1-.11-.4-.07-.5.088l-5.5 7.849c-.1.158 0 .375.1.484.2.11.4.07.5-.088z"/><path fill="#8c98b7" d="M16150.5 441.471c.2.033.3-.092.4-.28 0-.187-.1-.366-.3-.4l-9.4-1.645c-.2-.033-.4.092-.4.28-.1.187.1.366.2.4z"/><path fill="#8c98b7" d="M16151.5 437.867c.1-.084.2-.291.1-.463 0-.171-.2-.242-.4-.158l-11.3 5.455c-.2.084-.3.291-.2.463.1.171.3.242.5.158z"/><path fill="#8c98b7" d="M16150.1 444.879c.1.135.3.134.4-.003.2-.136.2-.356 0-.491l-8.6-8.391c-.1-.134-.3-.133-.5.004a.44.44 0 0 0 0 .491zm-77.5 3.491c0-.221-.2-.425-.4-.454a.353.353 0 0 0-.4.349l-2.3 17.065c0 .221.1.425.3.454s.5-.127.5-.349z"/><path fill="#8c98b7" d="M16074.4 452.392c.1-.183.1-.434-.1-.561s-.4-.081-.6.102l-6.4 9.12c-.1.183 0 .434.1.561.2.127.5.081.6-.102z"/><path fill="#8c98b7" d="M16076.5 458.233c.2.039.4-.106.4-.324.1-.217-.1-.424-.3-.463l-11-1.912a.333.333 0 0 0-.4.324c-.1.218.1.425.3.463z"/><path fill="#8c98b7" d="M16077.6 454.048c.2-.097.3-.337.2-.536s-.3-.281-.5-.184l-13.2 6.343c-.2.097-.3.337-.2.536s.4.281.6.184z"/><path fill="#8c98b7" d="M16076 462.174c.1.155.4.154.6-.005.1-.158.1-.413-.1-.568l-10-9.749c-.1-.155-.4-.153-.5.005-.2.158-.2.413 0 .568zm34.7-52.537c-.2-.032-.4.136-.5.376l-2.5 18.844c0 .24.2.46.4.492v.002c.2.032.5-.137.5-.376l2.5-18.845c0-.239-.1-.46-.4-.492"/><path fill="#8c98b7" d="M16113 413.953v-.006c-.2-.139-.5-.091-.6.107l-7 10.07c-.2.197-.1.47.1.609v.007c.2.139.4.091.6-.107l7-10.07c.2-.198.1-.471-.1-.61"/><path fill="#8c98b7" d="M16115.9 420.653v-.011c.1-.238-.1-.465-.3-.506l-12.1-2.111c-.3-.042-.5.118-.6.356v.011c0 .238.2.465.4.506l12.1 2.111c.2.042.5-.118.5-.356"/><path fill="#8c98b7" d="M16116.9 415.807v-.01a.46.46 0 0 0-.6-.205l-14.5 6.999c-.2.105-.3.366-.2.584v.01c.1.218.4.31.6.205l14.5-6.999c.2-.105.3-.366.2-.584"/><path fill="#8c98b7" d="M16115.5 425.361v-.008c.2-.173.2-.451 0-.619l-11.1-10.763c-.1-.168-.4-.164-.6.009v.008c-.2.173-.2.451 0 .619l11.1 10.763q.3.251.6-.009m-62.9-49.844c0-.216-.1-.414-.3-.442s-.4.123-.5.339l-2.2 16.523c0 .215.2.413.4.442.2.028.4-.124.4-.34z"/><path fill="#8c98b7" d="M16054.4 379.398c.1-.178.1-.423-.1-.546s-.4-.079-.5.099l-6.2 8.825c-.2.178-.1.422.1.546.1.123.4.079.5-.1z"/><path fill="#8c98b7" d="M16056.4 385.053c.2.038.4-.103.5-.315 0-.211-.2-.413-.4-.45l-10.6-1.85c-.2-.037-.4.104-.4.315-.1.212.1.413.3.451z"/><path fill="#8c98b7" d="M16057.5 381.012c.2-.095.3-.328.2-.521-.1-.194-.3-.274-.5-.179l-12.8 6.139c-.1.094-.2.327-.1.521.1.193.3.273.5.179z"/><path fill="#8c98b7" d="M16055.9 388.884q.3.227.6-.004c.1-.154.1-.401 0-.553l-9.7-9.435q-.3-.227-.6.004c-.1.153-.1.401 0 .553zm14.7 26.554c.1-.132 0-.253-.2-.27-.1-.017-.2.076-.2.207l-1.4 10.09c0 .132.1.252.2.27.2.017.3-.076.3-.208z"/><path fill="#8c98b7" d="M16071.7 417.807c.1-.109.1-.257 0-.332s-.3-.047-.3.062l-3.8 5.393c-.1.109-.1.258 0 .333.1.074.3.046.4-.062z"/><path fill="#8c98b7" d="M16073 421.274c.1.023.2-.063.2-.191.1-.128 0-.25-.1-.273l-6.5-1.13c-.2-.023-.3.062-.3.19s.1.251.2.273z"/><path fill="#8c98b7" d="M16073.7 418.794c.1-.058.1-.199.1-.316-.1-.117-.2-.166-.4-.108l-7.7 3.751c-.2.058-.2.199-.1.317 0 .117.2.165.3.107z"/><path fill="#8c98b7" d="M16072.7 423.607q.15.139.3-.001c.1-.093.1-.244 0-.336l-5.9-5.767c-.1-.092-.3-.092-.4.001s0 .244 0 .337zm32.9 17.077c0-.132-.1-.253-.2-.27s-.3.076-.3.207l-1.3 10.09c0 .132 0 .252.2.27.1.017.2-.076.2-.208z"/><path fill="#8c98b7" d="M16106.7 443.038c.1-.109 0-.258-.1-.332s-.2-.047-.3.061l-3.8 5.394c-.1.109 0 .257.1.332s.2.047.3-.062z"/><path fill="#8c98b7" d="M16107.9 446.524c.1.023.3-.063.3-.191s-.1-.25-.2-.273l-6.5-1.13c-.1-.023-.2.062-.3.19 0 .128.1.251.2.273z"/><path fill="#8c98b7" d="M16108.6 444.032c.1-.057.2-.199.1-.316 0-.117-.2-.165-.3-.108l-7.8 3.751c-.1.058-.2.2-.1.317s.2.165.3.107z"/><path fill="#8c98b7" d="M16107.6 448.845c.1.093.3.093.4 0 0-.094 0-.244-.1-.337l-5.9-5.767q-.15-.138-.3.001c-.1.094-.1.244 0 .337zm35.8 10.35c0-.131-.1-.252-.2-.269s-.3.075-.3.207l-1.3 10.09c0 .131 0 .252.2.269.1.018.2-.075.2-.207z"/><path fill="#8c98b7" d="M16144.5 461.565c.1-.109.1-.258 0-.332-.2-.075-.3-.047-.4.062l-3.8 5.393c0 .109 0 .258.1.332s.2.047.3-.062z"/><path fill="#8c98b7" d="M16145.7 465.032c.2.023.3-.063.3-.191s-.1-.25-.2-.273l-6.5-1.13c-.1-.023-.2.062-.3.19 0 .128.1.25.2.273z"/><path fill="#8c98b7" d="M16146.4 462.548c.1-.058.2-.199.1-.316 0-.118-.2-.166-.3-.108l-7.8 3.751c-.1.058-.2.199-.1.316.1.118.2.166.3.108z"/><path fill="#8c98b7" d="M16145.4 467.377c.1.092.3.092.4-.001s.1-.244 0-.337l-6-5.766q-.15-.14-.3.001c-.1.093-.1.244 0 .336zm-137.2-74.958c0-.192-.1-.368-.3-.393s-.4.11-.4.302l-2 14.689c0 .192.1.367.3.393.2.025.4-.11.4-.302z"/><path fill="#8c98b7" d="M16009.7 395.874c.2-.158.1-.375 0-.485-.2-.109-.4-.069-.5.089l-5.5 7.848c-.1.158-.1.375.1.485.1.109.3.07.4-.089z"/><path fill="#8c98b7" d="M16011.5 400.9c.2.034.4-.092.4-.279.1-.188-.1-.367-.2-.4l-9.5-1.645c-.2-.033-.4.092-.4.28 0 .187.1.366.3.399z"/><path fill="#8c98b7" d="M16012.5 397.304c.2-.083.3-.291.2-.462a.386.386 0 0 0-.5-.159l-11.3 5.456c-.2.084-.2.291-.2.462.1.172.3.243.5.159z"/><path fill="#8c98b7" d="M16011.1 404.286c.2.134.4.133.5-.004a.44.44 0 0 0 0-.491l-8.6-8.39c-.2-.135-.4-.134-.5.003a.44.44 0 0 0 0 .491zm-58 55.945c0-.191-.1-.367-.3-.392s-.4.109-.4.301l-2 14.689c0 .192.1.368.3.393s.4-.11.4-.301z"/><path fill="#8c98b7" d="M15954.6 463.691c.2-.159.1-.376 0-.485-.2-.11-.4-.07-.5.088l-5.5 7.849c-.1.158-.1.375.1.484.1.11.3.07.4-.088z"/><path fill="#8c98b7" d="M15956.4 468.713c.2.033.4-.092.4-.28.1-.187-.1-.366-.3-.399l-9.4-1.645c-.2-.034-.4.092-.4.279s.1.367.3.4z"/><path fill="#8c98b7" d="M15957.4 465.117c.2-.084.3-.291.2-.463a.386.386 0 0 0-.5-.158l-11.3 5.455c-.2.084-.2.291-.1.463 0 .171.2.242.4.159z"/><path fill="#8c98b7" d="M15956 472.106c.1.135.4.133.5-.003a.44.44 0 0 0 0-.492l-8.6-8.39c-.2-.135-.4-.133-.5.003-.2.137-.2.357 0 .491zm-13.2-54.016c0-.282-.2-.54-.5-.577-.2-.038-.5.161-.5.442l-2.9 21.698c-.1.281.1.54.4.577s.5-.161.6-.443z"/><path fill="#8c98b7" d="M15945.1 423.205c.2-.233.1-.552-.1-.713-.2-.162-.6-.104-.7.128l-8.1 11.593c-.2.233-.2.552.1.714.2.161.5.103.7-.129z"/><path fill="#8c98b7" d="M15947.7 430.602c.3.049.6-.136.6-.413.1-.277-.1-.541-.4-.59l-13.9-2.43c-.3-.049-.6.136-.6.413-.1.277.1.541.4.59z"/><path fill="#8c98b7" d="M15949.2 425.293c.3-.124.4-.429.2-.682-.1-.253-.4-.359-.6-.235l-16.8 8.062c-.2.123-.3.428-.2.681s.4.359.7.236z"/><path fill="#8c98b7" d="M15947.1 435.61c.2.198.5.195.7-.007a.51.51 0 0 0 0-.723l-12.7-12.395a.484.484 0 0 0-.7.006c-.2.202-.2.526 0 .724zm59.3-85.133c0-.282-.2-.54-.4-.578-.3-.037-.6.161-.6.443l-2.9 21.697c0 .282.2.54.4.578.3.037.6-.161.6-.443z"/><path fill="#8c98b7" d="M16008.7 355.58c.2-.233.1-.552-.1-.713-.2-.162-.5-.104-.7.128l-8.1 11.593c-.2.233-.1.552.1.714s.5.103.7-.129z"/><path fill="#8c98b7" d="M16011.3 362.993c.3.048.6-.137.6-.413.1-.277-.1-.541-.4-.59l-13.9-2.43c-.3-.049-.6.136-.6.413-.1.277.1.541.4.59z"/><path fill="#8c98b7" d="M16012.8 357.687a.52.52 0 0 0 .3-.682c-.1-.253-.5-.358-.7-.235l-16.7 8.062a.52.52 0 0 0-.3.682c.1.253.5.359.7.235z"/><path fill="#8c98b7" d="M16010.8 368.004c.2.198.5.195.7-.006.2-.202.2-.526 0-.724l-12.8-12.395a.483.483 0 0 0-.7.007.51.51 0 0 0 0 .723zm-24.8 63.812c.1-.264-.1-.506-.4-.541s-.5.15-.5.413l-2.8 20.58c0 .264.2.506.4.541.3.036.5-.15.6-.413z"/><path fill="#8c98b7" d="M15988.2 436.666c.2-.217.1-.518-.1-.671-.2-.152-.5-.1-.6.118l-7.8 11.002c-.1.217-.1.518.2.67.2.153.5.101.6-.117z"/><path fill="#8c98b7" d="M15990.7 443.69c.3.046.5-.129.6-.391 0-.262-.2-.512-.4-.557l-13.2-2.307c-.3-.045-.6.13-.6.392s.1.512.4.557z"/><path fill="#8c98b7" d="M15992.1 438.655c.3-.116.4-.403.3-.643-.2-.24-.4-.34-.7-.225l-15.9 7.649c-.2.116-.3.403-.2.643s.4.34.7.225z"/><path fill="#8c98b7" d="M15990.1 448.437c.2.185.5.181.7-.01.2-.19.2-.495 0-.681l-12.1-11.754c-.1-.185-.5-.181-.6.01-.2.191-.2.496 0 .681zm-164.7-31.075c.1-.216-.1-.414-.3-.443a.35.35 0 0 0-.4.339l-2.3 16.761c0 .216.2.414.4.443.2.028.4-.123.4-.339z"/><path fill="#8c98b7" d="M15827.3 421.318c.1-.178 0-.424-.1-.549-.2-.125-.5-.082-.6.096l-6.3 8.959c-.1.179 0 .424.1.549.2.125.5.082.6-.096z"/><path fill="#8c98b7" d="M15829.3 427.041c.2.037.4-.106.4-.321.1-.214-.1-.418-.3-.456l-10.7-1.878c-.3-.037-.5.107-.5.321s.1.418.3.456z"/><path fill="#8c98b7" d="M15830.4 422.943c.2-.094.3-.329.2-.525-.1-.197-.3-.279-.5-.185l-12.9 6.23c-.2.094-.3.33-.2.526s.3.278.5.184z"/><path fill="#8c98b7" d="M15828.8 430.912q.3.226.6-.008c.1-.156.1-.406 0-.558l-9.9-9.58c-.1-.151-.4-.148-.5.008-.2.156-.2.406 0 .557zm-136.7-13.793c0-.156-.1-.299-.3-.32-.1-.02-.3.089-.3.245l-1.6 12.129c0 .155.1.299.2.319.2.021.3-.088.3-.244z"/><path fill="#8c98b7" d="M15693.3 419.986c.1-.129.1-.306 0-.397-.1-.09-.3-.059-.4.07l-4.6 6.486c-.1.129 0 .306.1.396s.3.06.4-.069z"/><path fill="#8c98b7" d="M15694.8 424.133c.2.027.3-.077.3-.232.1-.154 0-.302-.2-.329l-7.8-1.359c-.2-.027-.3.076-.3.231-.1.155.1.302.2.329z"/><path fill="#8c98b7" d="M15695.6 421.16c.2-.069.2-.239.2-.38-.1-.142-.3-.201-.4-.133l-9.4 4.506c-.1.068-.2.238-.1.38.1.141.3.201.4.133z"/><path fill="#8c98b7" d="M15694.5 426.925c.1.109.3.107.4-.006s.1-.293 0-.402l-7.2-6.926c-.1-.11-.2-.107-.4.005-.1.113-.1.293 0 .403zm116.1 28.917c.1-.156 0-.299-.2-.32s-.3.089-.3.244l-1.6 12.129c-.1.156.1.299.2.32.2.021.3-.089.3-.244z"/><path fill="#8c98b7" d="M15812 458.697c.1-.129 0-.307-.1-.397s-.3-.059-.4.07l-4.5 6.486c-.1.129-.1.306 0 .396.2.091.3.059.4-.069z"/><path fill="#8c98b7" d="M15813.4 462.844c.2.027.3-.077.4-.232 0-.154-.1-.302-.3-.329l-7.8-1.359c-.1-.027-.3.076-.3.231s.1.302.2.329z"/><path fill="#8c98b7" d="M15814.3 459.875c.1-.069.2-.239.1-.38s-.3-.201-.4-.133l-9.3 4.506c-.2.068-.2.238-.2.38.1.141.3.201.4.132z"/><path fill="#8c98b7" d="M15813.1 465.655c.1.11.3.107.4-.006.1-.112.1-.292 0-.402l-7.1-6.926c-.2-.109-.3-.107-.4.006-.2.113-.1.293 0 .402zm-108.2-126.317c0-.191-.1-.368-.3-.393s-.4.109-.4.301l-2 14.982c0 .191.1.368.3.393s.4-.109.4-.301z"/><path fill="#8c98b7" d="M15706.5 342.877c.1-.159.1-.377-.1-.488-.1-.111-.4-.073-.5.085l-5.6 8.001c-.1.158 0 .376.1.487.2.112.4.073.5-.085z"/><path fill="#8c98b7" d="M15708.3 347.993c.2.033.4-.094.4-.285.1-.19-.1-.372-.3-.405l-9.6-1.677c-.2-.033-.3.095-.4.285 0 .191.1.372.3.405z"/><path fill="#8c98b7" d="M15709.3 344.326c.2-.084.3-.293.2-.467a.385.385 0 0 0-.5-.164l-11.5 5.565c-.2.084-.3.293-.2.467s.3.248.5.164z"/><path fill="#8c98b7" d="M15707.9 351.45c.1.134.3.131.5-.007.1-.139.1-.361 0-.496l-8.8-8.558c-.2-.135-.4-.132-.5.007s-.1.361 0 .495zm-91.5 6.942c.1-.251-.1-.482-.3-.516-.3-.033-.5.144-.6.396l-2.5 19.419c-.1.252.1.483.3.516.3.033.5-.144.6-.396z"/><path fill="#8c98b7" d="M15618.5 362.968c.2-.207.1-.493-.1-.637s-.5-.092-.6.116l-7.3 10.374c-.1.208-.1.493.1.637s.5.093.7-.115z"/><path fill="#8c98b7" d="M15620.9 369.586c.2.043.4-.122.5-.369 0-.247-.1-.483-.4-.526l-12.5-2.175c-.2-.044-.4.121-.5.369 0 .247.1.482.4.526z"/><path fill="#8c98b7" d="M15622.2 364.846c.2-.11.3-.383.2-.609a.45.45 0 0 0-.6-.209l-15 7.217c-.2.11-.3.382-.2.608s.4.32.6.21z"/><path fill="#8c98b7" d="M15620.3 374.062c.2.177.5.174.7-.006s.1-.469 0-.646l-11.4-11.09a.524.524 0 0 0-.7.005c-.1.18-.1.469 0 .646z"/><path fill="#f7f3ea" stroke="#8c98b7" stroke-miterlimit="10" d="M15873.9 234.965h-303.7c-.9 0-1.6.733-1.6 1.642v256.132c0 .908.7 1.641 1.6 1.641h303.7zm-13.1 246.293h-279.1V248.099h279.1zm316.9-246.293h-303.8V494.38h303.8c.9 0 1.6-.733 1.6-1.641V236.607c0-.909-.7-1.642-1.6-1.642Zm-11.5 246.293H15887V248.099h279.2z"/></g><g clip-path="url(#c)"><path fill="#f7f3ea" stroke="#8c98b7" stroke-miterlimit="10" d="M7131.69 255.027h-365.38a3.285 3.285 0 0 0-3.28 3.288v215.369a3.285 3.285 0 0 0 3.28 3.288h365.38c1.81 0 3.28-1.472 3.28-3.288V258.315a3.285 3.285 0 0 0-3.28-3.288Z"/><path fill="#f7f3ea" stroke="#8c98b7" stroke-miterlimit="10" d="M7123.41 462.134V269.905a3.293 3.293 0 0 0-3.29-3.288h-342.24a3.285 3.285 0 0 0-3.28 3.288v192.229a3.285 3.285 0 0 0 3.28 3.288h342.24c1.81 0 3.29-1.472 3.29-3.288Z"/><path fill="#f7f3ea" stroke="#8c98b7" stroke-miterlimit="10" d="M6881.43 314.824h-71.93c-1.7 0-3.08 1.38-3.08 3.083v101.149a3.08 3.08 0 0 0 3.08 3.083h71.93c1.71 0 3.09-1.38 3.09-3.083V317.907a3.084 3.084 0 0 0-3.09-3.083Z"/><path fill="#8c98b7" stroke="#8c98b7" stroke-miterlimit="10" d="M6845.73 322.18c3.91 0 7.08-3.174 7.08-7.09s-3.17-7.09-7.08-7.09a7.087 7.087 0 0 0-7.09 7.09c0 3.916 3.17 7.09 7.09 7.09Z"/><path fill="#f7f3ea" stroke="#8c98b7" stroke-miterlimit="10" d="M6988.62 337.84h-71.93c-1.7 0-3.08 1.38-3.08 3.082v101.15a3.08 3.08 0 0 0 3.08 3.082h71.93c1.71 0 3.08-1.38 3.08-3.082v-101.15a3.075 3.075 0 0 0-3.08-3.082Z"/><path fill="#8c98b7" stroke="#8c98b7" stroke-miterlimit="10" d="M6952.91 345.195c3.92 0 7.09-3.174 7.09-7.089s-3.17-7.09-7.09-7.09c-3.91 0-7.08 3.174-7.08 7.09s3.17 7.089 7.08 7.089Z"/><path fill="#f7f3ea" stroke="#8c98b7" stroke-miterlimit="10" d="M7095.81 314.824h-71.93c-1.7 0-3.08 1.38-3.08 3.083v101.149a3.08 3.08 0 0 0 3.08 3.083h71.93c1.7 0 3.08-1.38 3.08-3.083V317.907a3.08 3.08 0 0 0-3.08-3.083Z"/><path fill="#8c98b7" stroke="#8c98b7" stroke-miterlimit="10" d="M7060.12 322.18c3.92 0 7.09-3.174 7.09-7.09s-3.17-7.09-7.09-7.09c-3.91 0-7.08 3.174-7.08 7.09s3.17 7.09 7.08 7.09Z"/><path fill="#8c98b7" d="M6868.48 333.758c.17 0 .3.047.41.143.1.095.2.255.28.481q.195.52.3 1.43a19.6 19.6 0 0 1 .03 3.835c-.04.546-.11 1.044-.18 1.495-.08.45-.17.806-.28 1.066q-.135.363-.3.533a.52.52 0 0 1-.4.156c-.16 0-.3-.065-.4-.195-.1-.139-.17-.351-.24-.637-.06-.304-.1-.663-.14-1.079-.02-.425-.04-.871-.04-1.339 0-.442.03-.906.08-1.391.05-.486.13-.962.22-1.43q.15-.702.33-1.287l.07.013c-.26.312-.56.554-.89.728s-.64.26-.94.26a.5.5 0 0 1-.35-.117.43.43 0 0 1-.12-.325c0-.269.08-.538.22-.806.16-.278.36-.529.62-.754.25-.234.52-.421.83-.559.3-.148.6-.221.89-.221m-9.67 9.033c-.69 0-1.3-.152-1.82-.455a3.2 3.2 0 0 1-1.2-1.326c-.27-.572-.41-1.253-.41-2.041 0-.824.14-1.543.43-2.158.28-.616.69-1.097 1.21-1.443q.795-.52 1.83-.52c.75 0 1.39.169 1.94.507.54.329.97.793 1.27 1.391s.46 1.295.46 2.093c0 .814-.16 1.516-.46 2.106q-.45.883-1.29 1.365c-.55.32-1.21.481-1.96.481m.18-1.755c.54 0 .96-.213 1.28-.637q.48-.651.48-1.716 0-1.08-.48-1.716a1.51 1.51 0 0 0-1.28-.637c-.55 0-.99.212-1.31.637q-.48.636-.48 1.716 0 1.065.48 1.716c.32.424.76.637 1.31.637m-10.29-6.369c.28 0 .46.112.56.338.1.225.16.559.16 1.001q0 .155-.03.338c-.01.112-.03.216-.05.312l-.03-.26q.315-.846.96-1.313.66-.481 1.38-.481c.54 0 .99.151 1.34.455.37.303.63.728.81 1.274q.27.818.27 1.937 0 .688-.06 1.365c-.04.442-.09.849-.16 1.222q-.09.546-.21.897c-.1.294-.24.515-.4.663a.9.9 0 0 1-.59.208c-.22 0-.4-.083-.52-.247q-.18-.248-.18-.663c0-.295.02-.65.07-1.066.04-.425.08-.854.11-1.287.05-.442.07-.841.07-1.196q0-1.82-1.2-1.82c-.42 0-.78.19-1.06.572-.29.372-.48.905-.58 1.599q-.03.35-.03.871v1.04q0 .507-.03.858-.06.78-.3 1.118a.75.75 0 0 1-.65.338c-.32 0-.56-.148-.73-.442q-.24-.456-.24-1.521c0-.364 0-.772.02-1.222.02-.451.04-.902.07-1.352.03-.46.07-.876.11-1.248.09-.702.22-1.257.38-1.664.16-.416.41-.624.74-.624m-7.51 2.221q0-1.248.24-1.794.225-.56.66-.559c.23 0 .4.095.53.286.13.182.23.412.29.689q.09.404.09.819l-.06-.026c.14-.468.37-.871.67-1.209.31-.338.69-.507 1.12-.507.51 0 .89.212 1.13.637q.36.624.36 1.56c0 .832-.09 1.413-.28 1.742s-.45.494-.77.494a.56.56 0 0 1-.52-.286c-.1-.191-.14-.529-.1-1.014q.045-.767-.09-1.066c-.1-.199-.25-.299-.46-.299-.25 0-.46.16-.62.481q-.24.468-.24 1.157c0 .182.03.412.07.689s.09.581.14.91c.05.321.1.641.14.962.05.321.07.615.07.884 0 .477-.07.819-.22 1.027a.73.73 0 0 1-.63.312c-.3 0-.53-.095-.7-.286-.16-.199-.29-.52-.37-.962a32 32 0 0 1-.21-1.417c-.07-.546-.13-1.105-.17-1.677s-.07-1.088-.07-1.547m-5.01 5.903c-.7 0-1.3-.152-1.82-.455-.52-.312-.91-.754-1.2-1.326q-.42-.859-.42-2.041c0-.824.15-1.543.43-2.158.29-.616.69-1.097 1.21-1.443.53-.347 1.14-.52 1.84-.52.74 0 1.39.169 1.93.507.55.329.97.793 1.28 1.391q.45.897.45 2.093 0 1.221-.45 2.106a3.35 3.35 0 0 1-1.29 1.365c-.56.32-1.21.481-1.96.481m.18-1.755c.54 0 .96-.213 1.27-.637q.48-.651.48-1.716 0-1.08-.48-1.716c-.31-.425-.73-.637-1.27-.637-.56 0-.99.212-1.31.637-.33.424-.49.996-.49 1.716 0 .71.16 1.282.49 1.716.32.424.75.637 1.31.637m-5.91-8.255q.525 0 .75.286c.15.191.23.412.23.663 0 .312-.1.555-.29.728q-.27.247-.78.247c-.33 0-.57-.091-.74-.273a1 1 0 0 1-.24-.663c0-.329.1-.576.29-.741q.3-.246.78-.247m.08 2.899c.28 0 .5.26.65.78.17.52.25 1.348.25 2.483q0 2.094-.3 3.016c-.2.616-.5.923-.91.923q-.465 0-.69-.676c-.15-.459-.22-1.256-.22-2.392 0-1.395.11-2.431.34-3.107.23-.684.53-1.027.88-1.027m-4.26 3.458c-.26.034-.51.056-.73.065q-.33.012-.63.013-.87 0-1.17-.13a.495.495 0 0 1-.3-.481q0-.222.15-.403a1.2 1.2 0 0 1 .44-.312c.23-.096.55-.182.99-.26.44-.087.9-.13 1.36-.13q.915 0 1.41.156c.33.095.5.281.5.559 0 .216-.08.403-.26.559-.17.147-.46.242-.85.286zm.96-.26q.33.429.48.871c.09.294.14.559.14.793 0 .39-.11.767-.35 1.131-.22.355-.58.65-1.06.884q-.735.338-1.92.338c-1.01 0-1.85-.187-2.53-.559a3.6 3.6 0 0 1-1.5-1.599c-.33-.694-.49-1.5-.49-2.418 0-.988.21-1.864.62-2.626a4.47 4.47 0 0 1 1.77-1.781c.76-.434 1.66-.65 2.68-.65q1.275 0 1.95.455.69.441.69 1.04c0 .242-.08.433-.25.572q-.225.195-.69.195-.27 0-.57-.091a7 7 0 0 0-.65-.169q-.345-.091-.81-.091-.825 0-1.53.312c-.47.199-.84.533-1.13 1.001q-.42.689-.42 1.859c0 .667.13 1.213.38 1.638q.39.623 1.08.923c.46.19.98.286 1.57.286.4 0 .71-.044.94-.13s.4-.217.49-.39c.11-.174.16-.395.16-.663 0-.148-.02-.33-.07-.546a4 4 0 0 0-.16-.65zm148.64 16.942q1.665 0 2.49.715.81.702.81 1.846a3.13 3.13 0 0 1-.49 1.69q-.48.78-1.53 1.547c-.7.503-1.6 1.032-2.72 1.586l.19-.286q2.28-.064 3.24.221c.65.191.98.49.98.897a.76.76 0 0 1-.34.65q-.33.234-1.02.234c-.32 0-.68-.017-1.07-.052-.4-.026-.81-.065-1.21-.117-.41-.06-.79-.13-1.15-.208-.38-.086-.66-.199-.83-.338-.17-.147-.26-.355-.26-.624q0-.285.21-.585.21-.298.69-.715c.32-.286.76-.645 1.31-1.079q.78-.61 1.2-1.014c.28-.268.48-.507.59-.715.12-.216.17-.433.17-.65 0-.329-.11-.585-.35-.767q-.33-.273-1.05-.273c-.23 0-.45.031-.68.091q-.315.092-.66.182a2.5 2.5 0 0 1-.66.091c-.24 0-.41-.052-.54-.156q-.18-.156-.18-.442c0-.286.12-.559.35-.819.25-.268.58-.485 1-.65.44-.173.94-.26 1.51-.26m-10.06 8.971c-.69 0-1.3-.152-1.82-.455a3.2 3.2 0 0 1-1.2-1.326c-.27-.572-.41-1.253-.41-2.041 0-.824.14-1.543.43-2.158.28-.616.69-1.097 1.21-1.443q.795-.52 1.83-.52c.75 0 1.39.169 1.94.507.54.329.97.793 1.27 1.391s.46 1.295.46 2.093c0 .814-.16 1.516-.46 2.106q-.45.883-1.29 1.365c-.55.32-1.21.481-1.96.481m.18-1.755c.54 0 .96-.213 1.28-.637q.48-.651.48-1.716 0-1.08-.48-1.716a1.51 1.51 0 0 0-1.28-.637c-.55 0-.99.212-1.31.637q-.48.636-.48 1.716 0 1.065.48 1.716c.32.424.76.637 1.31.637m-10.29-6.369c.28 0 .46.112.56.338.1.225.16.559.16 1.001q0 .155-.03.338c-.01.112-.03.216-.05.312l-.03-.26q.315-.845.96-1.313.66-.481 1.38-.481c.54 0 .99.151 1.34.455.37.303.63.728.81 1.274q.27.818.27 1.937 0 .688-.06 1.365c-.04.442-.09.849-.16 1.222q-.09.546-.21.897c-.1.294-.24.515-.4.663a.9.9 0 0 1-.59.208c-.22 0-.4-.083-.52-.247q-.18-.248-.18-.663c0-.295.02-.65.07-1.066.04-.425.08-.854.11-1.287.05-.442.07-.841.07-1.196q0-1.82-1.2-1.82c-.42 0-.78.19-1.06.572-.29.372-.48.905-.58 1.599q-.03.35-.03.871v1.04q0 .507-.03.858-.06.78-.3 1.118a.75.75 0 0 1-.65.338c-.32 0-.56-.148-.73-.442q-.24-.456-.24-1.521c0-.364 0-.772.02-1.222.02-.451.04-.902.07-1.352.03-.46.07-.876.11-1.248.09-.702.22-1.257.38-1.664.16-.416.41-.624.74-.624m-7.51 2.221q0-1.248.24-1.794.225-.56.66-.559c.22 0 .4.095.53.286.13.182.23.412.29.689q.09.404.09.819l-.07-.026c.15-.468.38-.871.68-1.209.31-.338.68-.507 1.12-.507.51 0 .89.212 1.13.637q.36.624.36 1.56c0 .832-.09 1.413-.28 1.742s-.45.494-.77.494a.56.56 0 0 1-.52-.286c-.1-.191-.14-.529-.1-1.014.03-.511 0-.867-.1-1.066q-.135-.299-.45-.299c-.25 0-.46.16-.62.481q-.24.468-.24 1.157c0 .182.02.412.07.689.04.277.09.581.14.91.05.321.1.641.14.962.05.321.07.615.07.884 0 .477-.08.819-.22 1.027a.73.73 0 0 1-.63.312c-.3 0-.53-.095-.7-.286-.16-.199-.29-.52-.38-.962-.07-.399-.14-.871-.2-1.417-.07-.546-.13-1.105-.17-1.677a18 18 0 0 1-.07-1.547m-5.02 5.903c-.69 0-1.3-.152-1.82-.455a3.13 3.13 0 0 1-1.19-1.326q-.42-.859-.42-2.041c0-.824.15-1.543.43-2.158.29-.616.69-1.097 1.21-1.443q.795-.52 1.83-.52c.75 0 1.39.169 1.94.507a3.3 3.3 0 0 1 1.27 1.391c.31.598.46 1.295.46 2.093 0 .814-.15 1.516-.46 2.106a3.26 3.26 0 0 1-1.28 1.365c-.56.32-1.21.481-1.97.481m.19-1.755c.53 0 .96-.213 1.27-.637q.48-.651.48-1.716 0-1.08-.48-1.716c-.31-.425-.74-.637-1.27-.637q-.84 0-1.32.637-.48.636-.48 1.716 0 1.065.48 1.716.48.636 1.32.637m-5.91-8.255c.35 0 .6.096.74.286q.24.286.24.663c0 .312-.1.555-.29.728q-.27.247-.78.247c-.33 0-.57-.091-.74-.273-.16-.19-.25-.411-.25-.663q0-.494.3-.741.3-.246.78-.247m.08 2.899c.28 0 .49.26.65.78.17.52.25 1.348.25 2.483q0 2.094-.3 3.016c-.2.616-.5.923-.91.923q-.465 0-.69-.676c-.15-.459-.22-1.256-.22-2.392 0-1.395.11-2.431.34-3.107.23-.684.53-1.027.88-1.027m-4.26 3.458c-.26.034-.51.056-.73.065q-.33.012-.63.013-.87 0-1.17-.13a.495.495 0 0 1-.3-.481q0-.222.15-.403a1.2 1.2 0 0 1 .44-.312c.23-.096.55-.182.99-.26.44-.087.9-.13 1.36-.13q.915 0 1.41.156c.33.095.5.281.5.559 0 .216-.08.403-.26.559-.17.147-.46.242-.85.286zm.96-.26q.33.429.48.871c.09.294.14.559.14.793 0 .39-.11.767-.35 1.131-.22.355-.58.65-1.06.884q-.735.338-1.92.338c-1.01 0-1.85-.187-2.53-.559a3.6 3.6 0 0 1-1.5-1.599c-.33-.694-.49-1.5-.49-2.418 0-.988.21-1.864.62-2.626a4.47 4.47 0 0 1 1.77-1.781c.76-.434 1.66-.65 2.68-.65q1.275 0 1.95.455.69.441.69 1.04c0 .242-.08.433-.25.572q-.225.195-.69.195-.27 0-.57-.091a7 7 0 0 0-.65-.169q-.345-.091-.81-.091-.825 0-1.53.312c-.47.199-.84.533-1.13 1.001q-.42.689-.42 1.859c0 .667.13 1.213.38 1.638q.39.624 1.08.923c.46.19.98.286 1.57.286.4 0 .71-.044.94-.13s.4-.217.49-.39c.11-.174.16-.395.16-.663 0-.148-.02-.33-.07-.546a4 4 0 0 0-.16-.65zm148.9-27.187q.84 0 1.47.247c.43.165.76.412 1 .741.25.33.38.746.38 1.248 0 .572-.21 1.084-.62 1.534-.41.442-1.05.763-1.91.962l-.07-.156c.9.078 1.57.312 2 .702.44.39.65.897.65 1.521 0 .451-.12.858-.37 1.222q-.375.546-1.11.871c-.49.208-1.1.312-1.85.312-.66 0-1.19-.052-1.58-.156q-.57-.156-.81-.416a.93.93 0 0 1-.23-.598q0-.324.18-.533c.13-.147.32-.221.56-.221.28 0 .56.039.86.117.29.078.61.117.95.117.43 0 .76-.078 1-.234.23-.164.35-.368.35-.611 0-.173-.05-.32-.13-.442q-.135-.194-.48-.338c-.24-.104-.58-.203-1.03-.299-.4-.078-.7-.169-.91-.273a.55.55 0 0 1-.3-.507c0-.251.11-.45.34-.598.22-.147.54-.29.95-.429.56-.199.96-.39 1.21-.572s.37-.403.37-.663-.1-.455-.32-.585c-.21-.13-.51-.195-.91-.195-.32 0-.63.039-.94.117-.3.078-.63.117-.97.117-.24 0-.41-.052-.53-.156-.13-.104-.19-.251-.19-.442 0-.251.13-.481.38-.689q.375-.325 1.05-.52t1.56-.195m-10.32 9.1c-.69 0-1.3-.152-1.82-.455a3.2 3.2 0 0 1-1.2-1.326c-.27-.572-.41-1.253-.41-2.041 0-.824.14-1.543.43-2.158.28-.616.69-1.097 1.21-1.443q.795-.52 1.83-.52c.75 0 1.39.169 1.94.507.54.329.97.793 1.27 1.391s.46 1.295.46 2.093c0 .814-.16 1.516-.46 2.106q-.45.883-1.29 1.365c-.55.32-1.21.481-1.96.481m.18-1.755c.54 0 .96-.213 1.28-.637q.48-.651.48-1.716 0-1.08-.48-1.716a1.51 1.51 0 0 0-1.28-.637c-.55 0-.99.212-1.31.637q-.48.636-.48 1.716 0 1.065.48 1.716c.32.424.76.637 1.31.637m-10.29-6.369c.28 0 .46.112.56.338.1.225.16.559.16 1.001q0 .155-.03.338c-.01.112-.03.216-.05.312l-.03-.26q.315-.846.96-1.313.66-.481 1.38-.481c.54 0 .99.151 1.34.455.37.303.63.728.81 1.274q.27.818.27 1.937 0 .688-.06 1.365c-.04.442-.09.849-.16 1.222q-.09.546-.21.897c-.1.294-.24.515-.4.663a.9.9 0 0 1-.59.208c-.22 0-.4-.083-.52-.247q-.18-.248-.18-.663c0-.295.02-.65.07-1.066.04-.425.08-.854.11-1.287.05-.442.07-.841.07-1.196q0-1.82-1.2-1.82c-.42 0-.78.19-1.06.572-.29.372-.48.905-.58 1.599q-.03.35-.03.871v1.04q0 .507-.03.858-.06.78-.3 1.118a.75.75 0 0 1-.65.338c-.32 0-.56-.148-.73-.442q-.24-.456-.24-1.521c0-.364 0-.772.02-1.222.02-.451.04-.902.07-1.352.03-.46.07-.876.11-1.248.09-.702.22-1.257.38-1.664.16-.416.41-.624.74-.624m-7.51 2.221q0-1.248.24-1.794.225-.56.66-.559c.22 0 .4.095.53.286.13.182.23.412.29.689q.09.404.09.819l-.07-.026c.15-.468.38-.871.68-1.209.31-.338.68-.507 1.12-.507.51 0 .89.212 1.13.637q.36.624.36 1.56c0 .832-.09 1.413-.28 1.742s-.45.494-.77.494a.56.56 0 0 1-.52-.286c-.1-.191-.14-.529-.1-1.014.03-.511 0-.867-.1-1.066q-.135-.299-.45-.299c-.25 0-.46.16-.62.481q-.24.468-.24 1.157c0 .182.02.412.07.689.04.277.09.581.14.91.05.321.1.641.14.962.05.321.07.615.07.884 0 .477-.08.819-.22 1.027a.73.73 0 0 1-.63.312c-.3 0-.53-.095-.7-.286-.16-.199-.29-.52-.38-.962-.07-.399-.14-.871-.2-1.417-.07-.546-.13-1.105-.17-1.677a18 18 0 0 1-.07-1.547m-5.02 5.903c-.69 0-1.3-.152-1.82-.455a3.13 3.13 0 0 1-1.19-1.326q-.42-.859-.42-2.041c0-.824.15-1.543.43-2.158.29-.616.69-1.097 1.21-1.443q.795-.52 1.83-.52c.75 0 1.39.169 1.94.507a3.3 3.3 0 0 1 1.27 1.391c.31.598.46 1.295.46 2.093 0 .814-.15 1.516-.46 2.106a3.26 3.26 0 0 1-1.28 1.365c-.56.32-1.21.481-1.97.481m.19-1.755c.53 0 .96-.213 1.27-.637q.48-.651.48-1.716 0-1.08-.48-1.716c-.31-.425-.74-.637-1.27-.637q-.84 0-1.32.637-.48.636-.48 1.716 0 1.065.48 1.716.48.636 1.32.637m-5.91-8.255c.35 0 .6.096.74.286q.24.286.24.663c0 .312-.1.555-.29.728q-.27.247-.78.247c-.33 0-.57-.091-.74-.273-.16-.19-.25-.411-.25-.663q0-.494.3-.741.3-.246.78-.247m.08 2.899c.28 0 .49.26.65.78.17.52.25 1.348.25 2.483q0 2.094-.3 3.016c-.2.616-.5.923-.91.923q-.465 0-.69-.676c-.15-.459-.22-1.256-.22-2.392 0-1.395.11-2.431.34-3.107.23-.684.53-1.027.88-1.027m-4.26 3.458c-.26.034-.51.056-.73.065q-.33.012-.63.013-.87 0-1.17-.13a.495.495 0 0 1-.3-.481q0-.222.15-.403a1.2 1.2 0 0 1 .44-.312c.23-.096.55-.182.99-.26.44-.087.9-.13 1.36-.13q.915 0 1.41.156c.33.095.5.281.5.559 0 .216-.08.403-.26.559-.17.147-.46.242-.85.286zm.96-.26q.33.429.48.871c.09.294.14.559.14.793 0 .39-.11.767-.35 1.131-.22.355-.58.65-1.06.884q-.735.338-1.92.338c-1.01 0-1.85-.187-2.53-.559a3.6 3.6 0 0 1-1.5-1.599c-.33-.694-.49-1.5-.49-2.418 0-.988.21-1.864.62-2.626a4.47 4.47 0 0 1 1.77-1.781c.76-.434 1.66-.65 2.68-.65q1.275 0 1.95.455.69.441.69 1.04c0 .242-.08.433-.25.572q-.225.195-.69.195-.27 0-.57-.091a7 7 0 0 0-.65-.169q-.345-.091-.81-.091-.825 0-1.53.312c-.47.199-.84.533-1.13 1.001q-.42.689-.42 1.859c0 .667.13 1.213.38 1.638q.39.623 1.08.923c.46.19.98.286 1.57.286.4 0 .71-.044.94-.13s.4-.217.49-.39c.11-.174.16-.395.16-.663 0-.148-.02-.33-.07-.546a4 4 0 0 0-.16-.65zm-68.3-41.211c-1.93 0-3.32-.543-4.18-1.63-.85-1.086-1.27-2.882-1.27-5.387 0-.845.02-1.705.07-2.581.06-.89.13-1.743.22-2.558q.165-1.244.36-2.15c.14-.634.35-1.132.64-1.494.3-.377.75-.566 1.33-.566.46 0 .8.136 1.05.407.25.272.38.687.38 1.245 0 .348-.05.808-.16 1.381q-.15.86-.36 1.879c-.12.679-.23 1.366-.34 2.06a12 12 0 0 0-.16 1.902c0 1.509.24 2.565.7 3.169.49.588 1.18.882 2.09.882.87 0 1.52-.324 1.94-.973q.66-.974.66-3.078 0-.656-.09-1.676c-.06-.679-.13-1.388-.2-2.127q-.12-1.11-.21-2.038-.09-.95-.09-1.426 0-1.97 1.38-1.969c.53 0 .94.166 1.22.498.29.317.49.8.59 1.449q.165.86.27 2.082c.08.8.13 1.637.16 2.513.05.875.07 1.698.07 2.467q0 2.739-.63 4.437-.615 1.698-1.95 2.49c-.89.528-2.05.792-3.49.792m2.22-17.498c0 .136-.04.257-.13.362-.08.091-.2.136-.37.136-.27 0-.61-.03-1.04-.09a23 23 0 0 1-1.33-.295q-.705-.18-1.38-.407c-.56-.196-.98-.393-1.27-.589-.27-.196-.41-.437-.41-.724q0-.317.21-.679.195-.363.54-.611c.24-.181.5-.272.79-.272q.525 0 1.2.407.705.385 1.47.929c.53.377.95.716 1.25 1.018.31.302.47.574.47.815m-20.44.319c.47 0 .95.279 1.43.838q.75.837 1.56 2.513c.55 1.101 1.13 2.467 1.77 4.097q.975 2.445 2.13 5.682h.09c-.08-.755-.15-1.585-.23-2.49-.06-.906-.11-1.811-.16-2.717-.04-.92-.08-1.781-.11-2.58-.03-.815-.05-1.502-.05-2.06q0-1.63.3-2.309.285-.68.93-.679c.43 0 .81.332 1.13.996.31.664.56 1.614.72 2.852q.27 1.833.27 4.414 0 2.49-.18 4.233c-.1 1.162-.31 2.045-.61 2.648-.28.589-.72.883-1.29.883q-.63 0-1.29-.543c-.44-.362-.88-.905-1.33-1.63-.44-.724-.9-1.63-1.39-2.716a88 88 0 0 1-1.49-3.781c-.51-1.448-1.06-3.071-1.63-4.866h-.09c.08.618.14 1.328.2 2.127.08.8.14 1.638.19 2.513q.06 1.29.09 2.581c.03.86.04 1.652.04 2.377 0 1.403-.14 2.399-.43 2.988q-.405.882-1.29.882c-.65 0-1.12-.543-1.4-1.629-.27-1.102-.41-2.792-.41-5.071 0-1.539.04-2.898.14-4.075.09-1.192.23-2.195.43-3.01.19-.815.45-1.426.77-1.834.33-.422.73-.634 1.19-.634m-8 1.246c1.21 0 2.04.144 2.51.43s.7.702.7 1.245q0 .861-.84 1.313-.81.43-2.55.431c-.62 0-1.32-.008-2.11-.023q-1.155-.046-2.4-.136l.36-.272q.21.974.12 2.128a7.6 7.6 0 0 1-.5 2.173l-.11-.158q.645-.249 1.56-.453c.6-.136 1.23-.249 1.88-.339s1.24-.136 1.79-.136c.98 0 1.67.128 2.08.385.41.256.61.566.61.928 0 .407-.23.754-.7 1.041s-1.26.43-2.38.43c-.87 0-1.74-.023-2.6-.068s-1.69-.098-2.47-.158l.27-.159q.255.68.36 1.608c.09.618.14 1.237.14 1.856q0 .905-.18 1.607l-.25-.136c.5-.226 1.07-.422 1.72-.588a14.8 14.8 0 0 1 3.87-.544c.85 0 1.47.091 1.88.272q.63.271.63.928c0 .407-.2.785-.61 1.132s-.94.626-1.6.837c-.65.212-1.36.317-2.11.317-1.43 0-2.62-.203-3.55-.611-.94-.407-1.63-1.019-2.06-1.833-.19-.348-.34-.74-.48-1.178a10 10 0 0 1-.32-1.516 18 18 0 0 1-.09-1.856q0-2.264.39-3.758.405-1.517 1.08-2.422c.68-.921 1.54-1.6 2.59-2.038a8.5 8.5 0 0 1 3.37-.679m-12.1 15.934c-.31 0-.6-.083-.86-.249-.24-.166-.43-.453-.56-.86q-.21-.635-.21-1.743c0-1.071.03-2.218.07-3.441q.075-1.856.18-3.735c.09-1.267.18-2.49.25-3.667h-.09c-.53 2.188-1.09 3.848-1.7 4.98q-.9 1.675-2.01 1.675c-.45 0-.88-.204-1.27-.611q-.57-.634-1.11-2.105c-.35-.996-.73-2.347-1.15-4.052h-.09c.04.8.09 1.652.13 2.558.05.905.08 1.818.11 2.739.05.92.08 1.796.1 2.626.03.83.04 1.569.04 2.218 0 .558-.05 1.072-.16 1.539-.09.468-.26.838-.52 1.11q-.36.407-1.02.407c-.59 0-1.02-.234-1.31-.702-.29-.483-.43-1.275-.43-2.377 0-.649.02-1.403.05-2.263q.06-1.313.15-2.694c.06-.936.14-1.834.23-2.694.09-.875.19-1.637.29-2.286.19-1.026.43-1.751.75-2.173.32-.438.74-.657 1.27-.657q.66 0 1.29.589c.42.377.86 1.026 1.31 1.947.45.905.93 2.158 1.43 3.757h.09q.72-2.445 1.38-3.916c.44-.996.86-1.713 1.27-2.15.4-.438.79-.657 1.15-.657.58 0 1.01.227 1.31.679q.465.657.75 1.879c.23.936.41 2.03.55 3.283.13 1.252.23 2.535.29 3.848.07 1.298.11 2.512.11 3.644 0 1.298-.19 2.219-.56 2.762q-.57.792-1.5.792"/></g><g clip-path="url(#d)"><path fill="#8c98b7" stroke="#8c98b7" stroke-miterlimit="10" d="M15334.2 421.008c.3.305 1.7 1.855 1.7 4.27v.071c0 2.303-2 4.113-4.3 4.113-1.1 0-2.9.087-4.1.27-1.6.259-2.8 1.184-3.4 2.109-.4.6-.7 1.703-.7 3.325 15.1 0 45.3.737 64.7.732 9 0 15.7-.122 17.4-.3l-.1-1.667h1.7v-1.103h1.1v-1.104h1.2v-1.347h1.2v-1.657h1.8c-.4-.925-1.4-2.547-2.2-3.716-.9-1.236-1.4-1.678-2.2-2.385l-5.1.427c.2.117.7.992.6 3.178v.361c-.2 1.621-1.5 3.121-3.1 3.426-1.8.336-3.9.392-6.3.356-1.9-.03-3.9-.076-5.5-.341-1.4-.233-2.5-1.662-2.5-3.07v-.046c-.1-1.662 1-2.893 1.2-3.04l-11-.254c.2.178 1.2 1.672 1.1 3.294v.041c0 1.566-1.4 2.969-2.9 3.101-4.1.346-8.7.213-13.4.193-4.8-.025-9.3.132-13.4-.183-2.3-.168-4-2.303-4.2-4.499v-.381c0-2.517 1.8-3.981 2.1-4.169h-11.4z"/><path fill="#f7f3ea" stroke="#8c98b7" stroke-miterlimit="10" d="M15406.7 423.631c.1-.01.1-.02.2-.041 1.4-.366 2.5-2.018 2.4-3.411 0-.605-.1-1.21-.1-1.815l-1.3-7.203-77.8-12.786.6 8.419v14.148c0 .498.4.9.9.9h16.5c.5 0 .9-.402.9-.9v-6.899c1 .346 2.6.885 4.5 1.627 4.9 1.952 7.4 3.518 10.2 4.84 4.1 1.86 8.8 2.643 13.1 3.431 5.7 1.042 13.5 1.434 29.3-.173.2-.03.5-.106.6-.142z"/><path fill="#f7f3ea" d="M15394.1 406.846v-1.52c-2.2-.884-4.6-2.018-7.2-3.482-4.7-2.74-8.3-5.826-11.1-8.576-.6-.666-1.2-1.403-1.8-2.181-2.1-3.127-3.6-5.648-4.7-7.834-2.6-5.064-3.1-5.033-4.2-13.106-.3-1.658-.4-6.014-1.6-9.192-.4-.91-.7-1.733-1.1-2.435-.5-.976-1.4-1.662-2.4-1.855-1.8-.311-3.8-.621-6.4-.366-2.9.274-5 .788-6.8 1.347-3.5 1.149-7.7 2.72-10.6 4.067 0 7.727-.2 12.369-1.4 16.202-2.1 6.553-4.6 9.537-5.2 15.825-.6 5.176 0 13.03.7 13.106 8.9.982 15.8 2.456 20.3 4.134 7.2 2.719 9.9 5.078 17.5 7.635 7 2.313 13 2.837 17.1 2.918 4.2.097 8.6.026 13.4-.289 3.1-.209 6.1-.509 8.9-.865 1.4-.178 2.6-1.088 3.2-2.404.4-.885.6-2.008.5-3.3-.1-.762-.3-1.433-.5-2.003a5.9 5.9 0 0 0-2.8-2.78q-4.8-2.182-9.6-4.357c-2.8-1.434-5.9-3.279-9.2-5.653-2.4-1.734-4.4-3.483-6.2-5.14-2.9-2.903-5-5.719-6.4-7.931-2.3-3.502-3.5-6.461-3.9-7.59-2.1-5.358-2.7-8.352-2.9-11.809-.1-1.688.3-8.023-1.7-11.642-.3-.681-.8-1.205-1.2-1.652a4.3 4.3 0 0 0-3.3-1.17c-1.2.102-2.6.183-4 .819-1.3.584-3.4 1.932-4.3 2.45"/><path stroke="#8c98b7" stroke-miterlimit="10" d="M15394.1 406.846v-1.52c-2.2-.884-4.6-2.018-7.2-3.482-4.7-2.74-8.3-5.826-11.1-8.576-.6-.666-1.2-1.403-1.8-2.181-2.1-3.127-3.6-5.648-4.7-7.834-2.6-5.064-3.1-5.033-4.2-13.106-.3-1.658-.4-6.014-1.6-9.192-.4-.91-.7-1.733-1.1-2.435-.5-.976-1.4-1.662-2.4-1.855-1.8-.311-3.8-.621-6.4-.366-2.9.274-5 .788-6.8 1.347-3.5 1.149-7.7 2.72-10.6 4.067 0 7.727-.2 12.369-1.4 16.202-2.1 6.553-4.6 9.537-5.2 15.825-.6 5.176 0 13.03.7 13.106 8.9.982 15.8 2.456 20.3 4.134 7.2 2.719 9.9 5.078 17.5 7.635 7 2.313 13 2.837 17.1 2.918 4.2.097 8.6.026 13.4-.289 3.1-.209 6.1-.509 8.9-.865 1.4-.178 2.6-1.088 3.2-2.404.4-.885.6-2.008.5-3.3-.1-.762-.3-1.433-.5-2.003a5.9 5.9 0 0 0-2.8-2.78q-4.8-2.182-9.6-4.357c-2.8-1.434-5.9-3.279-9.2-5.653-2.4-1.734-4.4-3.483-6.2-5.14-2.9-2.903-5-5.719-6.4-7.931-2.3-3.502-3.5-6.461-3.9-7.59-2.1-5.358-2.7-8.352-2.9-11.809-.1-1.688.3-8.023-1.7-11.642-.3-.681-.8-1.205-1.2-1.652a4.3 4.3 0 0 0-3.3-1.17c-1.2.102-2.6.183-4 .819-1.3.584-3.4 1.932-4.3 2.45"/><path fill="#8c98b7" stroke="#8c98b7" stroke-miterlimit="10" d="m15370.1 364.545-9 1.622c-.4.051-.7-.188-.8-.539v-.346c-.1-.35.2-.676.6-.732l8.9-1.621c.4-.051.7.188.8.539v.345c.1.351-.2.676-.5.732Zm.5 6.694-8.3 2.206c-.3.077-.7-.172-.8-.549l-.1-.376c0-.381.2-.747.5-.823l8.4-2.207c.3-.076.6.173.7.549l.1.377c.1.381-.1.747-.5.823Zm1.5 6.319-7.4 2.715c-.3.097-.7-.122-.8-.488l-.1-.361c-.1-.366 0-.742.3-.839l7.5-2.714c.3-.097.7.122.8.488l.1.36c.1.367 0 .743-.4.839Zm2.4 5.999-7.3 3.071c-.3.112-.7-.071-.8-.407l-.1-.335c-.2-.336 0-.702.3-.814l7.3-3.07c.3-.112.7.071.8.406l.1.336c.1.335 0 .701-.3.813Zm3.5 5.414-6.9 4.011c-.2.153-.6.01-.8-.315l-.2-.32c-.1-.326 0-.712.3-.864l6.8-4.012c.3-.152.7-.01.9.316l.1.32c.2.325.1.712-.2.864Zm3.8 4.656-5.4 4.235c-.2.162-.6.056-.8-.244l-.2-.295c-.2-.295-.2-.666.1-.829l5.4-4.234c.2-.163.6-.056.8.244l.2.294c.2.295.2.666-.1.829Zm4.5 3.821-4.2 4.438c-.2.173-.5.091-.8-.173l-.2-.264c-.3-.27-.3-.626-.2-.799l4.3-4.438c.2-.173.5-.091.8.173l.2.264c.3.27.3.626.1.799Zm5.4 4.213-4.2 4.387c-.2.168-.5.087-.7-.183l-.3-.269c-.2-.27-.3-.626-.1-.793l4.2-4.388c.2-.167.5-.086.8.183l.2.27c.3.269.3.625.1.793Zm4.8 2.826-3.1 4.468c-.1.178-.4.163-.7-.03l-.2-.193c-.3-.193-.4-.493-.2-.666l3-4.469c.1-.178.5-.163.7.031l.3.193c.2.193.3.493.2.666Z"/></g><g clip-path="url(#e)"><path fill="#8c98b7" stroke="#8c98b7" stroke-miterlimit="10" d="M15302.6 412.212c.2.367 1.2 2.213.6 4.553v.069c-.6 2.226-2.9 3.514-5.2 2.961-1.1-.275-2.8-.624-4-.718-1.6-.139-3 .469-3.9 1.214-.5.484-1.1 1.478-1.5 3.052 14.7 3.637 43.9 11.637 62.7 16.294 8.8 2.175 15.2 3.658 16.9 3.889l.4-1.622 1.6.398.3-1.071 1 .265.3-1.071 1.1.282.4-1.308 1.2.306.4-1.608 1.7.423c-.2-.996-.7-2.799-1.2-4.132-.6-1.409-1-1.965-1.5-2.835l-5.1-.818c.1.151.4 1.124-.2 3.225 0 .118-.1.233-.1.343-.6 1.524-2.2 2.674-3.8 2.585-1.8-.101-3.9-.55-6.2-1.16-1.9-.51-3.8-1.025-5.3-1.66-1.3-.561-2-2.215-1.7-3.598v-.045c.3-1.629 1.7-2.556 1.9-2.66l-10.6-2.883c.1.214.8 1.905.3 3.464v.04c-.5 1.502-2.1 2.545-3.6 2.299-4.1-.654-8.5-1.875-13-3.02-4.7-1.186-9.1-2.114-13-3.427-2.1-.693-3.4-3.196-3-5.359.1-.12.1-.244.1-.372.7-2.435 2.7-3.428 3-3.555l-11-2.734z"/><path fill="#f7f3ea" stroke="#8c98b7" stroke-miterlimit="10" d="M15372.3 432.217c.1.001.1.006.2.004 1.4-.028 2.9-1.356 3.2-2.729l.3-1.788.5-7.313-72.4-31.133-1.5 8.319-3.4 13.731c-.1.484.2.97.7 1.09l16 3.966c.4.12.9-.174 1-.657l1.7-6.696c.9.584 2.3 1.484 4 2.656 4.3 3.082 6.3 5.2 8.8 7.173 3.4 2.777 7.9 4.68 11.8 6.472 5.3 2.374 12.7 4.632 28.5 6.88.2.038.5.017.6.019z"/><path fill="#f7f3ea" d="m15364.1 412.885.4-1.475c-2-1.389-4-3.071-6.1-5.097a54.3 54.3 0 0 1-8.7-10.998c-.5-.808-.9-1.668-1.3-2.552-1.3-3.554-2.1-6.345-2.6-8.738-1.3-5.541-1.9-5.635-.9-13.728 0-1.688 1-5.928.6-9.311-.1-.969-.3-1.855-.5-2.62a3.27 3.27 0 0 0-1.9-2.397c-1.6-.716-3.5-1.507-6.1-1.892-2.9-.422-5-.436-6.9-.312-3.7.254-8.2.763-11.3 1.389-1.9 7.484-3.1 11.962-5.2 15.389-3.6 5.859-6.8 8.152-8.9 14.093-1.8 4.89-3.1 12.663-2.5 12.901 8.4 3.08 14.8 6.187 18.7 8.893 6.4 4.386 8.4 7.313 15.2 11.636a57.4 57.4 0 0 0 15.9 6.946c4 1.087 8.3 2.096 13 2.939 3.1.547 6.1.972 8.9 1.305 1.4.166 2.8-.426 3.6-1.571.6-.768 1.1-1.795 1.3-3.08.1-.759.1-1.459 0-2.072-.2-1.336-1-2.531-2-3.37-2.8-2.181-5.6-4.363-8.3-6.541-2.4-2.063-5-4.607-7.5-7.694-1.9-2.254-3.5-4.45-4.9-6.488a45 45 0 0 1-4.2-9.233c-1.4-3.939-1.9-7.109-2-8.31-.7-5.704-.6-8.743.1-12.143.3-1.675 2.2-7.729 1.2-11.707-.2-.748-.5-1.365-.9-1.909-.6-1.025-1.7-1.726-2.8-1.915-1.2-.189-2.6-.452-4.2-.177-1.4.253-3.7 1.054-4.7 1.352"/><path stroke="#8c98b7" stroke-miterlimit="10" d="m15364.1 412.885.4-1.475c-2-1.389-4-3.071-6.1-5.097a54.3 54.3 0 0 1-8.7-10.998c-.5-.808-.9-1.668-1.3-2.552-1.3-3.554-2.1-6.345-2.6-8.738-1.3-5.541-1.9-5.635-.9-13.728 0-1.688 1-5.928.6-9.311-.1-.969-.3-1.855-.5-2.62a3.27 3.27 0 0 0-1.9-2.397c-1.6-.716-3.5-1.507-6.1-1.892-2.9-.422-5-.436-6.9-.312-3.7.254-8.2.763-11.3 1.389-1.9 7.484-3.1 11.962-5.2 15.389-3.6 5.859-6.8 8.152-8.9 14.093-1.8 4.89-3.1 12.663-2.5 12.901 8.4 3.08 14.8 6.187 18.7 8.893 6.4 4.386 8.4 7.313 15.2 11.636a57.4 57.4 0 0 0 15.9 6.946c4 1.087 8.3 2.096 13 2.939 3.1.547 6.1.972 8.9 1.305 1.4.166 2.8-.426 3.6-1.571.6-.768 1.1-1.795 1.3-3.08.1-.759.1-1.459 0-2.072-.2-1.336-1-2.531-2-3.37-2.8-2.181-5.6-4.363-8.3-6.541-2.4-2.063-5-4.607-7.5-7.694-1.9-2.254-3.5-4.45-4.9-6.488a45 45 0 0 1-4.2-9.233c-1.4-3.939-1.9-7.109-2-8.31-.7-5.704-.6-8.743.1-12.143.3-1.675 2.2-7.729 1.2-11.707-.2-.748-.5-1.365-.9-1.909-.6-1.025-1.7-1.726-2.8-1.915-1.2-.189-2.6-.452-4.2-.177-1.4.253-3.7 1.054-4.7 1.352"/><path fill="#8c98b7" stroke="#8c98b7" stroke-miterlimit="10" d="m15351 366.05-9.1-.587c-.4-.039-.6-.353-.6-.706v-.347c.1-.353.4-.606.8-.572l9.1.587c.3.04.6.353.6.706l-.1.348c0 .352-.3.606-.7.571Zm-1.1 6.636-8.6.134c-.3-.009-.6-.335-.6-.719v-.385c0-.39.3-.695.7-.685l8.6-.134c.3.009.6.335.6.719v.385c0 .39-.3.695-.7.685Zm0 6.495-7.9.835c-.4.019-.6-.276-.7-.659v-.377c0-.382.2-.71.6-.729l7.9-.835c.3-.019.6.276.6.659v.377c0 .382-.2.709-.5.729Zm.8 6.388-7.8 1.214c-.4.035-.7-.226-.7-.581v-.355c-.1-.355.2-.675.5-.71l7.8-1.215c.4-.035.7.227.7.581v.355c.1.355-.2.675-.5.711Zm2.1 6.102-7.6 2.24c-.3.078-.6-.149-.7-.506l-.1-.351c-.1-.357.1-.709.4-.788l7.6-2.239c.3-.079.7.149.8.506v.351c.1.357-.1.709-.4.787Zm2.6 5.442-6.3 2.806c-.2.103-.5-.086-.7-.427l-.1-.337c-.1-.336 0-.691.2-.794l6.3-2.805c.3-.103.6.086.7.427l.2.336c.1.336 0 .691-.3.794Zm3.5 4.787-5.2 3.282c-.3.124-.6-.039-.8-.356l-.1-.316c-.2-.321-.2-.679 0-.803l5.3-3.282c.2-.123.5.04.7.356l.1.316c.2.321.2.679 0 .803Zm4.2 5.387-5.2 3.247c-.2.119-.5-.044-.7-.366l-.1-.321c-.2-.321-.2-.68 0-.799l5.2-3.247c.2-.119.5.044.7.365l.1.322c.2.321.2.68 0 .799Zm3.9 3.887-4 3.605c-.2.141-.5.051-.7-.198l-.2-.247c-.2-.249-.2-.562 0-.698l4-3.605c.2-.141.5-.051.7.198l.2.247c.2.248.2.562 0 .698Z"/></g><path stroke="#8c98b7" stroke-linecap="round" d="M15345.5 297.121c5 17.971-5.7 29.8-3.2 43.277 1.9 10.119-6.3 27.12 3.2 24.625"/><path stroke="#8c98b7" stroke-linecap="round" d="M15348.3 291.098c-5 17.97.3 18.843-2.2 32.321-1.9 10.118 13.3 41.606 4.4 42.105"/><path stroke="#8c98b7" stroke-linecap="round" d="M15345 297.668c-1 21.964 8.9 25.922 6.4 39.399-1.8 10.119 25.5 23.462 17 25.958"/><path stroke="#8c98b7" stroke-linecap="round" d="M15344.5 290c-1 25.458 13.4 16.619 3 47.568-3.3 9.747 4 30.45 14.4 26.956"/><path stroke="#8c98b7" stroke-linecap="round" d="M15351.4 295.555c-3.2.347-6.4 3.305-6.4 3.305 2.6.423 8.7.909 11.7-.531 3-1.441-2-3.12-5.3-2.774Z"/><path stroke="#8c98b7" stroke-linecap="round" d="M15337.8 295.469c3.3.342 7.4 3.244 7.4 3.244-2.5.412-8.2.884-11.6-.53-3.5-1.414 1-3.056 4.2-2.714Z"/><rect width="4" height="23" x="17911.5" y="362.93" fill="#f7f3ea" stroke="#8c98b7" rx="1.5"/><path fill="#f7f3ea" stroke="#8c98b7" stroke-miterlimit="10" d="M17995.6 327h-100c-.9 0-1.6.738-1.6 1.648v6.525c0 .91.7 1.648 1.6 1.648h100c.9 0 1.6-.738 1.6-1.648v-6.525c0-.91-.7-1.648-1.6-1.648Z"/><path fill="#f7f3ea" stroke="#8c98b7" stroke-miterlimit="10" d="M17900 334.526c1.4 0 2.5-1.171 2.5-2.615s-1.1-2.614-2.5-2.614-2.6 1.17-2.6 2.614 1.2 2.615 2.6 2.615Zm91.1 0c1.4 0 2.6-1.171 2.6-2.615s-1.2-2.614-2.6-2.614-2.5 1.17-2.5 2.614 1.1 2.615 2.5 2.615Zm-70.8 74.467h-13.9c-.8 0-3.4-.944-3.4-1.845l1.9-20.07c0-.901.7-1.648 1.5-1.648h13.9c.8 0 1.5.747 1.5 1.648l1.3 20.202c0 .912-2 1.702-2.8 1.702zm26.4-76.106h-3.7c-.8 0-1.6.737-1.6 1.648v25.497c0 .91.8 1.648 1.6 1.648h3.7c.8 0 1.6-.738 1.6-1.648v-25.497c0-.911-.8-1.648-1.6-1.648Z"/><path fill="#f7f3ea" stroke="#8c98b7" stroke-miterlimit="10" d="M17945.1 361.68h-.5c-.9 0-1.6.737-1.6 1.648v13.764c0 .91.7 1.648 1.6 1.648h.5c.8 0 1.6-.738 1.6-1.648v-13.764c0-.911-.8-1.648-1.6-1.648Z"/><path fill="#f7f3ea" stroke="#8c98b7" stroke-miterlimit="10" d="M17945.1 403.504c6.7 0 12.2-5.631 12.2-12.578s-5.5-12.578-12.2-12.578c-6.8 0-12.3 5.631-12.3 12.578s5.5 12.578 12.3 12.578Z"/><path stroke="#8c98b7" stroke-miterlimit="10" d="M17977.5 366.074s-18.3 46.04-.9 46.04l1.4-44.789s13.9 33.749 5 43.097c-1 1.132-2.6 1.692-4.1 1.692h-2.2"/><path stroke="#8c98b7" stroke-miterlimit="10" d="M17977.1 365.906s-6.5 41.174-1.5 46.05m2.7-46.05s9.1 45.198-1.7 46.05"/><path fill="#f7f3ea" stroke="#8c98b7" stroke-miterlimit="10" d="M17978.4 334.172h-1.8c-.9 0-1.7.738-1.7 1.648v28.254c0 .91.8 1.648 1.7 1.648h1.8c.9 0 1.6-.738 1.6-1.648V335.82c0-.91-.7-1.648-1.6-1.648Z"/><rect width="6" height="30" x="17910.5" y="332.93" fill="#f7f3ea" stroke="#8c98b7" rx="1.5"/><path fill="#f7f3ea" stroke="#8c98b7" stroke-linecap="round" stroke-linejoin="round" d="M5865.64 361.945h-128.41c-1.19 0-2.15.972-2.15 2.17v.81c0 1.198.96 2.169 2.15 2.169h128.41c1.19 0 2.15-.971 2.15-2.169v-.81c0-1.198-.96-2.17-2.15-2.17"/><path fill="#f7f3ea" stroke="#8c98b7" stroke-linecap="round" stroke-linejoin="round" d="M5740.03 359.329v11.123c0 1.198.97 2.169 2.16 2.169h1.2c1.19 0 2.16-.971 2.16-2.169v-11.123c0-1.198-.97-2.17-2.16-2.17h-1.2c-1.19 0-2.16.972-2.16 2.17m117.36 0v11.123c0 1.198.97 2.169 2.15 2.169h1.21c1.19 0 2.15-.971 2.15-2.169v-11.123c0-1.198-.96-2.17-2.15-2.17h-1.21c-1.18 0-2.15.972-2.15 2.17m-57.51 29.612h-2.03c-.48 0-.87.385-.87.86v54.232c0 .475.39.859.87.859h2.03c.48 0 .87-.384.87-.859v-54.232c0-.475-.39-.86-.87-.86"/><path fill="#f7f3ea" stroke="#8c98b7" stroke-linecap="round" stroke-linejoin="round" d="M5799.89 359.32h-2.04c-1.2 0-2.16.959-2.16 2.142v25.44c0 1.183.96 2.142 2.16 2.142h2.04c1.2 0 2.17-.959 2.17-2.142v-25.44c0-1.183-.97-2.142-2.17-2.142m1.49 83.84h-5.09v5.231h5.09z"/><path fill="#f7f3ea" stroke="#8c98b7" stroke-linecap="round" stroke-linejoin="round" d="M5798.87 479.5c8.77 0 15.89-7.046 15.89-15.736s-7.12-15.737-15.89-15.737c-8.78 0-15.9 7.046-15.9 15.737s7.12 15.736 15.9 15.736"/><path fill="#8c98b7" stroke="#8c98b7" d="M5808.97 457.727c.53 0 .94.419.94.926s-.41.926-.94.926a.935.935 0 0 1-.94-.926c0-.507.42-.926.94-.926Zm-.01 11.296c.53 0 .94.42.94.927s-.41.926-.94.926a.935.935 0 0 1-.94-.926c0-.507.42-.926.94-.927Zm-21.78-5.878c.52 0 .94.419.94.926s-.42.926-.94.926a.93.93 0 0 1-.94-.926c0-.507.41-.926.94-.926Zm2.38-5.418c.52 0 .94.419.94.926s-.42.926-.94.926a.93.93 0 0 1-.94-.926c0-.507.41-.926.94-.926Zm.02 11.296c.53 0 .94.42.94.927s-.41.926-.94.926a.935.935 0 0 1-.94-.926c0-.507.42-.926.94-.927Zm9.53 5.864c.52 0 .94.419.94.926s-.42.926-.94.926a.93.93 0 0 1-.94-.926.93.93 0 0 1 .94-.926Zm0-4.91c.52 0 .94.419.94.926s-.42.926-.94.926a.93.93 0 0 1-.94-.926c0-.507.41-.926.94-.926Zm0-4.903c.52 0 .94.42.94.927s-.42.926-.94.926a.93.93 0 0 1-.94-.926.93.93 0 0 1 .94-.927Zm0-4.91c.52 0 .94.42.94.927s-.42.926-.94.926a.93.93 0 0 1-.94-.926.93.93 0 0 1 .94-.927Zm0-4.918c.52 0 .94.42.94.927s-.42.926-.94.926a.93.93 0 0 1-.94-.926.93.93 0 0 1 .94-.927Zm0-4.91c.52 0 .94.42.94.927s-.42.925-.94.925a.93.93 0 0 1-.94-.925.93.93 0 0 1 .94-.927Zm-6.11 22.836c.52 0 .94.42.94.927s-.42.925-.94.925a.935.935 0 0 1-.94-.925.93.93 0 0 1 .94-.927Zm1.05-5.176c.52 0 .94.42.94.927s-.42.926-.94.926a.935.935 0 0 1-.94-.926c0-.507.42-.927.94-.927Zm-1.08-4.91c.52 0 .94.42.94.927s-.42.925-.94.925a.935.935 0 0 1-.94-.925c0-.507.42-.927.94-.927Zm12.13.059c.52 0 .94.419.94.926s-.42.926-.94.926a.935.935 0 0 1-.94-.926c0-.507.42-.926.94-.926Zm5.81-.059c.52 0 .94.42.94.927s-.42.925-.94.925a.937.937 0 0 1-.95-.925c0-.507.42-.927.95-.927Zm-16.86-4.918c.52 0 .94.42.94.927s-.42.926-.94.926a.936.936 0 0 1-.94-.926c0-.507.42-.927.94-.927Zm-1.02-5.332c.52 0 .94.42.94.927s-.42.925-.94.925a.93.93 0 0 1-.94-.925.93.93 0 0 1 .94-.927Zm12.17 20.383c.53 0 .94.419.94.927 0 .506-.41.925-.94.925a.935.935 0 0 1-.94-.925c0-.507.42-.927.94-.927Zm-.94-5.223c.53 0 .95.42.95.927a.944.944 0 0 1-.95.926.935.935 0 0 1-.94-.926c0-.507.42-.927.94-.927Zm0-9.828c.53 0 .95.42.95.927a.944.944 0 0 1-.95.926.936.936 0 0 1-.94-.926c0-.507.42-.927.94-.927Zm1.17-5.434c.53 0 .94.42.94.927s-.41.926-.94.926a.935.935 0 0 1-.94-.926c0-.507.42-.926.94-.927Z"/><path fill="#f7f3ea" stroke="#8c98b7" stroke-linecap="round" stroke-linejoin="round" d="M5763.77 428.959v-36.116c.88-.176 1.56-.849 1.56-1.699v-17.697c0-.978-.9-1.763-1.99-1.763h-1.66c-1.1 0-1.99.785-1.99 1.763v17.697c0 .802.62 1.459 1.46 1.667v36.132c-8.06.481-9.93 5.498-9.93 11.621 0 6.445 5.03 13.113 11.25 13.113 6.23 0 11.26-6.652 11.26-13.113s-1.93-11.14-9.93-11.621z"/><path fill="#f7f3ea" stroke="#8c98b7" stroke-linecap="round" stroke-linejoin="round" d="M5761.49 360.398h2.04c1 0 1.8.882 1.8 1.956v22.105c0 .802-.6 1.459-1.34 1.459h-2.97c-.74 0-1.34-.657-1.34-1.459v-22.105c0-1.09.81-1.956 1.79-1.956zm83.99-.777h-.56c-.95 0-1.71.735-1.71 1.642v26.63c0 .907.76 1.642 1.71 1.642h.56c.94 0 1.71-.735 1.71-1.642v-26.63c0-.907-.77-1.642-1.71-1.642"/><path fill="#f7f3ea" stroke="#8c98b7" stroke-linecap="round" stroke-linejoin="round" d="M5851.96 400.797c-3.18-2.25-1.28-6.042-1.28-6.042.66-1.544 1.59-3.251 1.59-5.304 0-4.629-3.18-8.373-7.1-8.373-3.91 0-7.09 3.744-7.09 8.373 0 2.036.87 3.58 1.63 5.304 0 0 1.98 3.743-1.2 5.992h-.43c-8.15 0-14.76 6.354-14.76 14.186v35.48c0 2.348 1.98 4.252 4.42 4.252h33.57c2.44 0 4.42-1.904 4.42-4.252v-35.48c0-7.52-6.1-13.66-13.81-14.136zm-6.8-6.502c-1.28 0-2.33-2.217-2.33-4.958s1.05-4.959 2.33-4.959 2.32 2.217 2.32 4.959-1.04 4.958-2.32 4.958"/><g stroke="#8c98b7" stroke-miterlimit="10" clip-path="url(#f)"><path d="M16269.3 352.855h-1.2c-1.2 0-2.1.95-2.1 2.122v19.489c0 1.172.9 2.122 2.1 2.122h1.2c1.2 0 2.1-.95 2.1-2.122v-19.489c0-1.172-.9-2.122-2.1-2.122Zm249.4 0h-1.1c-1.2 0-2.2.95-2.2 2.122v19.489c0 1.172 1 2.122 2.2 2.122h1.1c1.2 0 2.2-.95 2.2-2.122v-19.489c0-1.172-1-2.122-2.2-2.122Z"/><path fill="#f7f3ea" d="M16531.4 345.414h-278.8c-1.2 0-2.2.95-2.2 2.122v5.317c0 1.172 1 2.122 2.2 2.122h278.8c1.2 0 2.2-.95 2.2-2.122v-5.317c0-1.172-1-2.122-2.2-2.122Z"/></g><path fill="#f7f3ea" stroke="#8c98b7" stroke-miterlimit="10" d="m16310.7 298.222-4.1-5.656h-33.3l-4.2 5.914c-.1.148-.1.345-.1.493v39.23c0 3.77 3.1 6.838 6.9 6.838h27.9c3.8 0 6.9-3.056 6.9-6.838v-39.427c.1-.16.1-.382 0-.554Z"/><path fill="#f7f3ea" stroke="#8c98b7" stroke-miterlimit="10" d="M16306 287h-32.2v5.643h32.2z"/><path fill="#f7f3ea" stroke="#8c98b7" d="M16274 280.5h31.7c1.1 0 2 .897 2 1.989v2.538c0 1.092-.9 1.989-2 1.989h-31.7c-1.1-.001-2-.897-2-1.989v-2.538c0-1.092.9-1.989 2-1.989Z"/><path stroke="#8c98b7" stroke-linecap="round" stroke-miterlimit="10" d="M16269.3 301.426h21.6"/><path fill="#f7f3ea" stroke="#8c98b7" stroke-miterlimit="10" d="m16345.3 311.95-2.4-4.016h-19.4l-2.4 4.201c-.1.099-.1.246-.1.345v27.882c0 2.686 1.8 4.854 4.1 4.854h16.2c2.2 0 4-2.18 4-4.854v-28.424z"/><path fill="#f7f3ea" stroke="#8c98b7" stroke-miterlimit="10" d="M16342.5 304h-18.7v4.017h18.7z"/><path fill="#f7f3ea" stroke="#8c98b7" d="M16324.1 299.5h18.1c.6 0 1.1.499 1.1 1.102v2.143c0 .602-.5 1.103-1.1 1.103h-18.1c-.6 0-1.1-.501-1.1-1.103v-2.143c0-.603.5-1.102 1.1-1.102Z"/><path stroke="#8c98b7" stroke-linecap="round" stroke-miterlimit="10" d="M16321.2 314.242h6.6"/><path fill="#f7f3ea" stroke="#8c98b7" stroke-miterlimit="10" d="m16431.3 311.95-2.4-4.016h-19.4l-2.4 4.201c-.1.099-.1.246-.1.345v27.882c0 2.686 1.8 4.854 4.1 4.854h16.2c2.2 0 4-2.18 4-4.854v-28.424z"/><path fill="#f7f3ea" stroke="#8c98b7" stroke-miterlimit="10" d="M16428.5 304h-18.7v4.017h18.7z"/><path fill="#f7f3ea" stroke="#8c98b7" d="M16410.1 299.5h18.1c.6 0 1.1.499 1.1 1.102v2.143c0 .602-.5 1.103-1.1 1.103h-18.1c-.6 0-1.1-.501-1.1-1.103v-2.143c0-.603.5-1.102 1.1-1.102Z"/><path stroke="#8c98b7" stroke-linecap="round" stroke-miterlimit="10" d="M16407.2 314.242h6.6"/><path fill="#f7f3ea" stroke="#8c98b7" stroke-miterlimit="10" d="m16462.3 311.95-2.4-4.016h-19.4l-2.4 4.201c-.1.099-.1.246-.1.345v27.882c0 2.686 1.8 4.854 4.1 4.854h16.2c2.2 0 4-2.18 4-4.854v-28.424z"/><path fill="#f7f3ea" stroke="#8c98b7" stroke-miterlimit="10" d="M16459.5 304h-18.7v4.017h18.7z"/><path fill="#f7f3ea" stroke="#8c98b7" d="M16441.1 299.5h18.1c.6 0 1.1.499 1.1 1.102v2.143c0 .602-.5 1.103-1.1 1.103h-18.1c-.6 0-1.1-.501-1.1-1.103v-2.143c0-.603.5-1.102 1.1-1.102Z"/><path stroke="#8c98b7" stroke-linecap="round" stroke-miterlimit="10" d="M16438.2 314.242h6.6"/><path fill="#f7f3ea" stroke="#8c98b7" stroke-miterlimit="10" d="m16382.1 314.879-2.7-3.684h-21.6l-2.7 3.857c-.1.098-.1.222-.1.32v25.566c0 2.464 2 4.46 4.5 4.46h18.1c2.5 0 4.5-1.996 4.5-4.46z"/><path fill="#f7f3ea" stroke="#8c98b7" stroke-miterlimit="10" d="M16379 308h-20.9v3.684h20.9z"/><path fill="#f7f3ea" stroke="#8c98b7" d="M16358.3 304.5h20.5c.7 0 1.2.51 1.2 1.126v1.651c0 .616-.5 1.126-1.2 1.126h-20.5c-.7 0-1.2-.51-1.2-1.126v-1.651c0-.616.5-1.126 1.2-1.126Z"/><path stroke="#8c98b7" stroke-linecap="round" stroke-miterlimit="10" d="M16368.7 316.973h12.9"/><path fill="#f7f3ea" stroke="#8c98b7" stroke-miterlimit="10" d="M16458.8 439.289h-1.2c-1.7 0-3.2 1.463-3.2 3.267v44.557c0 1.804 1.5 3.267 3.2 3.267h1.2c1.8 0 3.2-1.463 3.2-3.267v-44.557c0-1.804-1.4-3.267-3.2-3.267Zm-171.1 13.223h2.4c4.7 0 8.5 3.903 8.5 8.72v14.787c0 1.851-1.5 3.346-3.3 3.346h-12.8c-1.8 0-3.3-1.495-3.3-3.346v-14.787c0-4.817 3.8-8.72 8.5-8.72Zm29-.004h2.4c4.6 0 8.4 3.903 8.4 8.72v14.787c0 1.851-1.4 3.346-3.2 3.346h-12.9c-1.8 0-3.2-1.495-3.2-3.346v-14.787c0-4.817 3.8-8.72 8.4-8.72zm8.4-5.895h-14.4c-1.4 0-2.5 1.139-2.5 2.543v.513c0 1.404 1.1 2.542 2.5 2.542h14.4c1.4 0 2.5-1.138 2.5-2.542v-.513c0-1.404-1.1-2.543-2.5-2.543Zm28.9 0h-14.4c-1.4 0-2.5 1.139-2.5 2.543v.513c0 1.404 1.1 2.542 2.5 2.542h14.4c1.4 0 2.5-1.138 2.5-2.542v-.513c0-1.404-1.1-2.543-2.5-2.543Zm27.4 0h-14.4c-1.4 0-2.5 1.139-2.5 2.543v.513c0 1.404 1.1 2.542 2.5 2.542h14.4c1.4 0 2.5-1.138 2.5-2.542v-.513c0-1.404-1.1-2.543-2.5-2.543Zm29 0h-14.5c-1.3 0-2.4 1.139-2.4 2.543v.513c0 1.404 1.1 2.542 2.4 2.542h14.5c1.3 0 2.4-1.138 2.4-2.542v-.513c0-1.404-1.1-2.543-2.4-2.543Zm25.8 0h-14.4c-1.3 0-2.4 1.139-2.4 2.543v.513c0 1.404 1.1 2.542 2.4 2.542h14.4c1.4 0 2.5-1.138 2.5-2.542v-.513c0-1.404-1.1-2.543-2.5-2.543Zm-140.1 0h-14.4c-1.4 0-2.5 1.139-2.5 2.543v.513c0 1.404 1.1 2.542 2.5 2.542h14.4c1.4 0 2.5-1.138 2.5-2.542v-.513c0-1.404-1.1-2.543-2.5-2.543Zm49.5 5.899h2.4c4.7 0 8.5 3.903 8.5 8.72v14.787c0 1.851-1.5 3.346-3.3 3.346h-12.8c-1.8 0-3.3-1.495-3.3-3.346v-14.787c0-4.817 3.8-8.72 8.5-8.72Zm27.4 0h2.4c4.7 0 8.5 3.903 8.5 8.72v14.787c0 1.851-1.5 3.346-3.3 3.346h-12.8c-1.8 0-3.3-1.495-3.3-3.346v-14.787c0-4.817 3.8-8.72 8.5-8.72Zm29 0h2.3c4.7 0 8.5 3.903 8.5 8.72v14.787c0 1.851-1.4 3.346-3.2 3.346h-12.9c-1.8 0-3.2-1.495-3.2-3.346v-14.787c0-4.817 3.8-8.72 8.4-8.72zm25.9 0h2.3c4.7 0 8.5 3.903 8.5 8.72v14.787c0 1.851-1.4 3.346-3.2 3.346h-12.9c-1.8 0-3.2-1.495-3.2-3.346v-14.787c0-4.817 3.7-8.72 8.4-8.72zM16268.2 439h-1c-1.8 0-3.2 1.463-3.2 3.267v44.557c0 1.804 1.4 3.266 3.2 3.266h1c1.7 0 3.1-1.462 3.1-3.266v-44.557c0-1.804-1.4-3.267-3.1-3.267Z"/><path fill="#f7f3ea" stroke="#8c98b7" stroke-miterlimit="10" d="M16450.2 478.551h-174.6c-2.3 0-4.3 1.976-4.3 4.414v2.678c0 2.438 2 4.415 4.3 4.415h174.6c2.3 0 4.2-1.977 4.2-4.415v-2.678c0-2.438-1.9-4.414-4.2-4.414Zm0-26.547h-174.5c-2.4 0-4.3 1.976-4.3 4.414v2.679c0 2.438 1.9 4.414 4.3 4.414h174.5c2.4 0 4.3-1.976 4.3-4.414v-2.679c0-2.438-1.9-4.414-4.3-4.414Z"/><g fill="#f7f3ea" stroke="#8c98b7" stroke-miterlimit="10" clip-path="url(#g)"><path d="M16768.1 182.734h133.3V305.14h-133.3c-1.3 0-2.3-1.153-2.3-2.581V185.315c0-1.428 1-2.581 2.3-2.581Zm326.5 0h-193.1V305.14h193.1z"/><path d="M17286.7 182.734h-193.1V305.14h193.1z"/><path d="M17467.9 132.5c1.4 0 2.4 1.484 2.3 3.233-1.4 25.211-6.3 48.635-20.7 76.316-48 92.437-155.6 93.176-164 93.09V182.734c5.9-.293 26.3-2.134 43.1-19.957 9.1-9.651 13.7-21.761 15.9-28.608.4-.998 1.2-1.652 2.2-1.669 19.5-.482 39.3.154 59.3-.001 20.9-.172 41.5-.202 61.9.001Z"/></g><path fill="#f7f3ea" stroke="#8c98b7" stroke-miterlimit="10" d="M8901.22 404.803V264.695H8711.7v140.108z"/><path fill="#f7f3ea" stroke="#8c98b7" stroke-miterlimit="10" d="M9090.58 404.803V264.695h-189.52v140.108z"/><path stroke="#8c98b7" stroke-linecap="round" d="M8893.19 265.195v139.511"/><path fill="#f7f3ea" stroke="#8c98b7" stroke-miterlimit="10" d="M8492.22 404.803V264.695H8302.7v140.108z"/><path fill="#f7f3ea" stroke="#8c98b7" stroke-miterlimit="10" d="M8681.58 404.803V264.695h-189.52v140.108z"/><path stroke="#8c98b7" stroke-linecap="round" d="M8484.19 265.195v139.511"/><path fill="#f7f3ea" stroke="#8c98b7" stroke-miterlimit="10" d="M9310.22 404.803V264.695H9120.7v140.108z"/><path fill="#f7f3ea" stroke="#8c98b7" stroke-miterlimit="10" d="M9499.58 404.803V264.695h-189.53v140.108z"/><path stroke="#8c98b7" stroke-linecap="round" d="M9302.19 265.195v139.511"/><path fill="#f7f3ea" stroke="#8c98b7" stroke-miterlimit="10" d="M18430.9 247h-233.8c-2.8 0-5.1 2.081-5.1 4.647v105.156c0 2.566 2.3 4.647 5.1 4.647h233.8c2.8 0 5.1-2.081 5.1-4.647V251.647c0-2.566-2.3-4.647-5.1-4.647Z"/><path stroke="#8c98b7" stroke-miterlimit="10" d="m18413.9 263.793 7.6 14.035-210.8-.186 8.2-13.446z"/><path stroke="#8c98b7" stroke-miterlimit="10" d="m18413.3 277.332 7.5 14.035-210.8-.186 8.3-13.446m194.4 13.906 7.6 14.035-210.8-.186 8.2-13.447"/><path stroke="#8c98b7" stroke-miterlimit="10" d="m18413.3 305.621 7.6 14.035-210.8-.217 8.2-13.446"/><path stroke="#8c98b7" stroke-miterlimit="10" d="m18412.6 319.129 7.6 14.066-210.8-.217 8.3-13.446m194.4 13.909 7.6 14.036-210.8-.186 8.2-13.447"/></g><defs><clipPath id="a"><path fill="#fff" d="M0 0h23000v1117H0z"/></clipPath><clipPath id="c"><path fill="#fff" d="M6762 254h374v224h-374z"/></clipPath><clipPath id="d"><path fill="#fff" d="M15323 352.543h89.991v83.74H15323z"/></clipPath><clipPath id="e"><path fill="#fff" d="m15308.2 343.062 87.339 21.665-20.196 81.272-87.34-21.665z"/></clipPath><clipPath id="f"><path fill="#fff" d="M16249 344h286v34h-286z"/></clipPath><clipPath id="g"><path fill="#fff" d="M16765 132h706v174h-706z"/></clipPath></defs></svg>