<svg xmlns="http://www.w3.org/2000/svg" width="574" height="1394" fill="none" viewBox="0 0 574 1394"><g data-layer="fausto"><g data-layer="fausto-fill"><path fill="#f7f3e9" d="M347.053 468.558c7.905-.062 15.561 0 22.346.124 4.419.063 8.464.25 11.888.374 6.41.436 10.893 1.058 12.262 1.99l11.639-8.96s1.557-5.664-3.174-6.784c5.29-2.862 7.47-6.222 8.34-8.09a3.82 3.82 0 0 0 0-3.299c-.685-1.43-1.93-3.297-3.236-5.04-2.18-2.925-4.545-5.601-4.545-5.601-2.55-2.8-7.281 1.494-7.281 1.494 1.307-5.601-4.17-4.418-4.17-4.418a37.3 37.3 0 0 0-7.222 1.866c-3.796-3.672 13.943-64.97 13.943-64.97-9.087 10.64-22.034 68.891-22.034 68.891-17.49 10.58-28.756 31.116-28.756 31.116zm-65.107 1.556-53.405-6.099c-4.046 0-7.78.312-11.203.747l9.211-108.534c.312-3.485 2.74-6.347 6.1-7.095l39.275-9.148 5.852-3.92c.312.746 1.182 1.244 2.054 1.057l18.486-3.671a2.52 2.52 0 0 0 1.992-2.365c.25-4.98 1.556-18.048 8.589-20.786 0 0 30.188-16.492 43.695-27.507 2.49-2.053 4.42-3.92 5.478-5.414v-.187h.062s4.419 22.777 11.702 23.026l83.966 28.317s.373.186.56.248c2.863 1.556 26.205 16.119 20.229 72.75l-4.855 61.237s-.062.374-.124.56c-.996 4.046-13.134 52.65-23.902 69.825 0 0-6.785 16.12-19.793 23.96-3.485 2.054-7.345 3.547-11.577 4.046 0 0-37.284 1.493-69.028-4.98l-15.187-3.92-23.528-6.098-10.271-2.676c-.124-.747-.311-1.122-.311-1.122-17.74-36.779-14.19-72.25-14.19-72.25zm65.666-118.243c0-3.67-2.986-6.596-6.659-6.596a6.56 6.56 0 0 0-6.598 6.596c0 3.672 2.926 6.66 6.598 6.66a6.666 6.666 0 0 0 6.66-6.66m-12.261 69.141c0-3.547-2.925-6.41-6.412-6.41-3.485 0-6.41 2.863-6.41 6.41s2.863 6.348 6.41 6.348c3.549 0 6.412-2.863 6.412-6.348m-85.709-55.138c0-3.486-2.8-6.286-6.287-6.286-3.485 0-6.224 2.8-6.224 6.286s2.8 6.223 6.224 6.223c3.423 0 6.287-2.8 6.287-6.223m-8.154 62.606c0-3.547-2.926-6.41-6.473-6.41-3.548 0-6.411 2.925-6.411 6.41s2.925 6.41 6.41 6.41 6.474-2.925 6.474-6.41"/><path fill="#294485" d="m417.823 611.882 45.065 382.172c-5.042 2.116-10.27 4.107-15.561 5.85-33.923 11.45-72.327 15.87-109.424 16.492l-36.226-.499c-41.827-1.866-79.173-7.468-102.515-11.699-15.872-2.925-25.333-5.166-25.333-5.166l7.158-387.088s166.625 16.928 236.774 0z"/><path fill="#294485" d="m447.389 999.963 9.648 175.185c0 17.24-7.158 30.495-7.158 30.495-20.54-8.837-72.203 0-72.203 0l-10.083-21.658c-2.366-5.165-3.486-10.828-3.174-16.49l1.866-34.29c.188-2.926 0-5.788-.559-8.652l-21.038-108.098h-6.723c37.097-.684 75.5-5.103 109.424-16.554z"/><path fill="#243c6b" d="M454.547 1256.239c0 6.41-3.61 12.26-9.398 15.061-30.873 14.749-56.269 4.854-67.41-1.245-3.611-1.992-5.54-6.907-6.1-9.895-1.992-9.583 6.1-54.516 6.1-54.516s51.661-8.775 72.202 0c3.797 16.43 4.481 38.086 4.606 50.533z"/><path fill="#294485" d="M345.372 556.245c31.744 6.472 69.028 4.978 69.028 4.978 4.295-.498 8.154-1.992 11.577-4.046v28.317c-.124 1.866-1.431 3.485-3.361 3.609-16.867 1.618-77.804-17.55-87.14-20.537-.748-.249-1.619-.622-2.427-.933-6.723-2.551-6.723-2.924-9.525-4.854-.747-.499-1.555-1.058-2.364-1.556-2.055-1.182-13.259-5.477-14.628-6.535-1.867-1.493 0-8.587 0-8.587l23.529 6.099c4.792 1.555 9.958 2.862 15.186 3.92z"/><path fill="#f7f3e9" d="M289.228 551.205c1.619-.497 2.988-.933 4.046-1.244 2.054-.622 3.487-2.614 3.361-4.73 0-.622-.186-1.245-.25-1.68l10.272 2.676s-1.868 7.095 0 8.588c1.307 1.058 12.573 5.352 14.627 6.534.747.437 1.619.996 2.365 1.556 2.801 1.992 2.801 2.303 9.524 4.854.808.311 1.68.685 2.427.934 9.336 2.987 70.273 22.155 87.141 20.536 1.867-.186 3.236-1.742 3.298-3.609v7.78c0 15.433-8.154 18.544-8.154 18.544-70.147 16.928-236.773 0-236.773 0-3.984-3.05-3.735-8.276-3.361-10.641 0-.311.124-.56.186-.747 0-.125 0-.249.063-.373 1.12-5.414 5.041-24.583 5.041-24.583 2.552-.932 6.972-1.991 8.59.685 2.179 3.61 11.453 11.824 16.245 10.767h9.648c.934.062 1.867-.188 2.677-.623l48.487-29a2290 2290 0 0 0 20.603-6.224z"/><path fill="#f7f3ea" d="m403.196 441.3 3.922-2.427c1.307 1.743 2.551 3.61 3.236 5.04.499 1.058.437 2.241 0 3.299-.87 1.868-3.05 5.227-8.34 8.09 0 0-15.872 4.357-20.665 13.132v.621c-3.485-.186-7.531-.31-11.95-.373v-3.423S397.78 441.3 403.196 441.3"/><path fill="#f7f3ea" d="m407.118 438.813-3.922 2.427c-5.415 0-33.673 23.96-33.673 23.96v3.422c-6.847-.187-14.503-.187-22.408-.125v-1.307s11.266-20.536 28.757-31.116c2.551-1.556 5.29-2.925 8.09-3.92a36.3 36.3 0 0 1 7.222-1.867s5.477-1.183 4.17 4.418c0 0 4.73-4.294 7.281-1.494 0 0 2.366 2.676 4.545 5.602zM402.014 455.304c4.73 1.181 3.174 6.783 3.174 6.783l-11.64 8.961c-1.306-.934-5.788-1.556-12.26-1.992v-.622c4.854-8.712 20.663-13.13 20.663-13.13z"/><path fill="#294485" d="M375.809 436.072s12.946-58.25 22.034-68.892c0 0-17.801 61.3-13.943 64.972-2.8 1.058-5.539 2.365-8.091 3.92"/><path fill="#f7f3ea" d="M362.55 188.202s12.326-.312 10.209 19.54l-7.033-.746c.248-4.792-5.415-6.908-8.28-3.485l-6.908-.187c.188-.311.312-.684.374-1.058.872-4.605 3.237-13.255 9.523-14.002q.933-.187 2.054 0z"/><path fill="#f7f3ea" d="m288.42 239.855-6.536.995s-.498.062-.872.124c-1.742.25-4.17.498-6.162.747-2.988.311-5.976.187-8.838-.747-5.353-1.618-6.598-4.294-6.598-4.294-1.68-2.738 3.174-23.959 4.482-29.747h-2.8s-3.425-4.045-10.085-4.045v-5.477h10.457c2.677 0 4.917-2.24 4.917-4.916 0-3.112-2.551-5.725-5.726-5.725h-20.54c-3.112 0-6.162 1.618-7.719 4.356-1.805 3.236-2.054 6.285-1.93 8.152l-6.348.187v-.809l1.556-45.305s0-.374.062-.56c.498-2.24 4.233-16.928 19.856-15.434 0 0 19.67 5.165 27.45 4.17.186 0 .373-.063.622-.125l30.81-9.273h.125c1.431-.373 24.4-5.663 27.512 9.957l1.992 26.76c0 .747.31 1.432.87 1.992 2.116 2.365 8.03 9.21 8.154 13.442l1.37 17.674c.187 1.68 1.556 3.05 3.299 3.05 1.182 0 2.24-.622 2.8-1.618l6.909.186s-.31.312-.373.498c-2.925 4.481-1.12 8.09-.747 8.713 0 .062 0 .186.062.25.56 4.355-1.68 10.205-2.24 11.698-.125.188-.062.499.062.685 4.232 5.726 9.399-8.961 10.208-12.757.808-2.614 1.183-4.232 1.307-5.602l7.034.747c-.311 3.36-1.121 7.344-2.429 12.012 0 0-2.862 10.579-8.028 15.993-1.619 1.68-3.922 2.551-6.287 2.551h-1.681c-.747 0-1.37.187-1.867.437a3.04 3.04 0 0 0-1.556 2.115c-1.244 5.477-4.358 18.297-7.78 22.404 0 0-17.74 27.32-41.828 37.588 5.914-3.112 9.648-9.832 9.648-9.832 5.04-10.704 3.92-20.661 2.925-25.453-.186-.748-1.244-.748-1.431 0l.497-10.517h.187c4.793-.188 2.677-3.424 2.677-3.424-3.984-5.351-23.964-11.45-25.831-12.01h-.311l-1.246.187zm35.291-50.41c0-.995-.373-4.73-3.61-8.339-1.992-2.115-5.042-2.925-7.843-2.24l-24.212 5.352c-2.8.685-4.543 3.547-3.859 6.348.498 2.053 2.366 3.423 4.356 3.423.375 0 .748 0 1.06-.125l25.27-5.6a8.9 8.9 0 0 1 4.046 0l4.73 1.12zm-15.872 14.252a5.286 5.286 0 0 0-5.29-5.29 5.286 5.286 0 0 0-5.291 5.29 5.286 5.286 0 0 0 5.291 5.29 5.286 5.286 0 0 0 5.29-5.29"/><path fill="#294485" d="M357.51 203.509c2.8-3.36 8.465-1.307 8.278 3.485-.062 1.369-.497 2.987-1.307 5.6-.747 3.796-5.975 18.546-10.208 12.759a.57.57 0 0 1-.062-.685c.623-1.494 2.8-7.344 2.24-11.7 0-.062 0-.186-.062-.248-.373-.623-2.178-4.295.747-8.713.125-.187.249-.374.374-.498M360.87 134.182c1.68.996 2.427 2.988 1.868 4.855l-2.241 7.219v42.007c-6.348.746-8.713 9.397-9.523 14.002a3 3 0 0 1-.374 1.058c-.56.996-1.68 1.618-2.8 1.618-1.743 0-3.112-1.307-3.3-3.05l-1.369-17.673c-.186-4.232-6.038-11.14-8.154-13.443-.497-.498-.808-1.182-.87-1.991l-1.992-26.76c-3.114-15.683-26.08-10.33-27.512-9.957h-.125l-30.811 9.272s-.373.125-.621.125c-7.78 1.058-27.45-4.17-27.45-4.17-15.685-1.556-19.42 13.193-19.856 15.434 0 .187-.062.373-.062.56l-1.556 45.305v1.867s-11.453-31.303-6.91-50.097c0 0-10.394-9.77 0-14.065 0 0-2.925-13.878-.87-20.1.622-1.743 2.738-2.552 4.357-1.681a27.2 27.2 0 0 1 4.232 2.8s6.785-19.292 7.78-20.66c0 0 1.993-3.922 8.404 6.222l4.792-.249s2.801-10.33 7.344-14.126c1.308-1.058 3.238-.747 4.358.56 1.742 2.116 4.544 5.29 6.037 5.414h2.74s7.656-8.65 19.73-7.344c0 0 12.823 3.61 18.798 9.21 1.182 1.059 2.552 1.681 4.17 1.806l7.22.622s4.73-2.365 7.47-1.743c0 0 5.726 1.058 7.033 10.58 0 0 3.05 2.552 10.457 0 2.24-.81 4.731 0 5.913 2.054 1.058 1.804 1.805 4.356 1.12 7.717h6.537c1.866 0 3.36 1.555 3.36 3.36v11.762l2.74 1.556z"/><path fill="#f7f3e9" d="M358.07 277.132v.374c-1.058 1.556-2.988 3.36-5.478 5.414l-.124-.311v-10.394c2.054-.062 4.917 3.86 5.602 4.855z"/><path fill="#f7f3ea" d="M301.18 300.904h.062c24.088-10.268 41.827-37.59 41.827-37.59 3.423-4.106 6.535-16.927 7.78-22.403.187-.872.747-1.68 1.556-2.115v43.811l.125.312c-13.507 11.014-43.695 27.506-43.695 27.506-7.096 2.677-8.403 15.807-8.59 20.786-.061 1.12-.871 2.116-1.991 2.365l-18.486 3.672c-.872.186-1.744-.312-2.055-1.058a1.7 1.7 0 0 1-.186-.747c0-5.166-2.054-9.77-2.054-9.77-.747-4.233-19.483-16.12-19.483-16.12v-16.242a48.8 48.8 0 0 0 7.034 5.54c14.379 9.396 26.142 5.476 26.142 5.476 4.108-.623 8.154-1.743 11.95-3.423z"/><path fill="#f7f3e9" d="m330.185 552.324 15.187 3.92c-5.29-1.058-10.457-2.365-15.187-3.92"/><path fill="#294485" d="M340.953 345.275c3.673 0 6.66 2.925 6.66 6.596a6.666 6.666 0 0 1-6.66 6.66c-3.672 0-6.598-2.988-6.598-6.66a6.56 6.56 0 0 1 6.598-6.596M328.94 414.664c3.486 0 6.41 2.862 6.41 6.41s-2.924 6.347-6.41 6.347-6.412-2.862-6.412-6.347 2.864-6.41 6.411-6.41M320.039 181.106c3.237 3.61 3.672 7.343 3.61 8.339l-4.73-1.12a8.9 8.9 0 0 0-4.046 0l-25.27 5.6c-.374.063-.748.125-1.058.125-1.992 0-3.798-1.369-4.358-3.423-.684-2.8 1.058-5.663 3.859-6.347l24.212-5.352c2.802-.685 5.852.124 7.843 2.24zM315.807 251.677s2.116 3.236-2.677 3.422h-.187l-27.636-1.307s-.187 0-.31-.062c-.935-.435-6.288-3.36-7.72-6.534-.185-.499-.87-.623-1.181-.062l-4.172-3.797c1.433 0 3.238-.373 5.042-1.68l.25-.125 3.796-.622c.311 0 .623-.062.872-.124.435 0 3.485 0 6.535-.996l1.246-.187h.311c1.867.56 21.847 6.66 25.83 12.012zM313.877 265.62c.996 4.729 2.116 14.748-2.926 25.452 0 0-3.735 6.722-9.647 9.833h-.062c-3.797 1.68-7.843 2.8-11.95 3.423 0 0-11.765 3.92-26.143-5.476-4.171-3.05-11.204-26.637-6.536-17.177 0 0 2.801 4.668 6.91 5.663 0 0 3.547-7.903 7.78 0h2.054s2.739-10.828 6.1-10.828 6.908 5.04 8.278 10.144h2.054s.81-3.299 3.984-4.045c0 0 2.427-.996 4.232 4.045 0 0 8.091 3.484 14.503-21.035.187-.746 1.307-.746 1.43 0z"/><path fill="#f7f3ea" d="M251.011 202.948c6.66 0 10.084 4.045 10.084 4.045h2.8c-1.307 5.726-6.161 27.01-4.48 29.748 0 0 1.244 2.676 6.597 4.294 2.864.87 5.85 1.058 8.838.747 1.992-.188 4.358-.499 6.162-.747l-3.796.623-.25.124c-1.804 1.245-3.61 1.68-5.04 1.68-1.868 0-3.238-.622-3.611-.81-.124 0-.187-.062-.311-.062h-5.85s-.312 0-.437.188l-11.951 9.46c-1.867 1.554-2.925 3.795-2.925 6.098 0 .56 0 1.058.186 1.617l5.603-.31c6.224-.499 15.685-3.797 16.619-4.108.062 0 .124 0 .186-.063 2.615-1.68 5.415-5.973 6.785-8.214.31-.497.996-.373 1.183.062 1.431 3.175 6.784 6.099 7.717 6.534.063 0 .187.063.311.063l27.637 1.307-.498 10.518c-6.412 24.581-14.502 21.033-14.502 21.033-1.744-4.977-4.233-4.044-4.233-4.044-3.174.747-3.984 4.044-3.984 4.044h-2.054c-1.308-5.103-4.917-10.143-8.278-10.143s-6.1 10.828-6.1 10.828h-2.054c-4.233-7.903-7.78 0-7.78 0-4.108-.995-6.91-5.662-6.91-5.662-4.668-9.46 2.366 14.126 6.536 17.175-2.303-1.493-4.606-3.297-7.034-5.538-6.659-6.285-13.63-15.745-19.918-29.934 0-.062-.062-.187-.124-.311-.311-.934-2.178-6.41-4.357-14.563-3.237-12.01-7.033-29.934-7.531-48.043v-1.059l6.348-.186c0 .747.187 1.245.25 1.556l4.73-2.427c1.307-.685 2.801-.996 4.295-.996h11.327v5.476zm6.162 5.415a5.286 5.286 0 0 0-5.291-5.29 5.286 5.286 0 0 0-5.29 5.29 5.286 5.286 0 0 0 5.29 5.29 5.286 5.286 0 0 0 5.291-5.29"/><path fill="#243c6b" d="m304.976 1193.883 3.236 40.887-32.178 10.89-12.885-3.671c-5.602 0-30.561 13.69-30.561 13.69-58.26 20.04-81.166-2.053-81.166-2.053-5.664-13.505-2.801-23.4 1.431-29.996 3.61-5.663 9.275-9.583 15.686-11.7l17.988-5.974c2.552-.871 5.042-2.24 7.096-3.983l17.74-14.686s57.948 9.645 93.613 6.658z"/><path fill="#294485" d="M304.976 1146.585c12.698 23.897 0 47.296 0 47.296-35.603 3.05-93.614-6.659-93.614-6.659l-2.925-18.295c-.374-13.754 8.03-22.404 9.087-24.894s-6.1-17.301-6.1-17.301L199.1 1005.565l103.138 38.024h.186zM302.55 198.405a5.286 5.286 0 0 1 5.29 5.29 5.286 5.286 0 0 1-5.29 5.29 5.286 5.286 0 0 1-5.292-5.29 5.286 5.286 0 0 1 5.291-5.29"/><path fill="#243c6b" d="m301.74 1015.897.684 27.756h-.186L199.1 1005.63l.125-1.43c23.341 4.294 60.687 9.832 102.514 11.698"/><path fill="#294485" d="M296.635 545.229c.126 2.115-1.307 4.107-3.361 4.73-1.058.31-2.427.746-4.046 1.243l-50.478-37.774 57.636 30.059c.063.435.187 1.057.25 1.68z"/><path fill="#f7f3ea" d="M195.054 472.418a40 40 0 0 1 6.1-3.173c.498.497.872.87 1.307 1.058l14.752-5.041v-.436c3.486-.436 7.22-.747 11.204-.747l53.405 6.098s-3.548 35.474 14.19 72.253c0 0 .188.373.312 1.12l-57.636-30.058s.248-.124.373-.124c0 0-23.529-16.554-60.19-22.28 0 0 3.175-10.766 16.121-18.608z"/><path fill="#f7f3ea" d="m238.75 513.428 50.478 37.774c-5.04 1.557-12.448 3.734-20.602 6.163-21.473 6.41-47.99 14.126-50.417 13.814-2.552-.31-3.61-.497-4.046-.622 7.407-20.786 20.042-54.64 24.587-57.13"/><path fill="#f7f3e9" d="M238.75 513.43c-4.482 2.427-17.18 36.28-24.587 57.13-3.361 9.397-5.664 16.18-5.664 16.18-.25.124-.498.186-.747.31-4.73 1.06-14.067-7.218-16.245-10.765-1.619-2.676-6.038-1.618-8.59-.747-1.12.374-1.867.747-1.867.747l-53.53-7.905c-26.266-7.53-18.424-64.72-18.424-64.72l44.442-129.57c2.801-13.629 19.482-24.208 19.482-24.208l73.572-32.299c.56-.31 2.365-1.057 2.677-1.494.248-.311 2.303-2.054 3.298-2.862l3.361-3.548s18.736 11.886 19.483 16.119c0 0 2.116 4.604 2.054 9.77 0 .249 0 .498.186.747l-5.85 3.92-39.277 9.148a7.82 7.82 0 0 0-6.099 7.095l-9.212 108.534c-6.349.934-11.702 2.427-16.12 4.419-8.777-10.33-19.483-81.96-19.483-81.96-3.86 14.064 10.643 74.119 13.382 85.197-12.947 7.903-16.12 18.606-16.12 18.606 36.66 5.726 60.189 22.28 60.189 22.28-.125 0-.25.062-.373.124z"/><path fill="#294485" d="m271.924 243.337 4.172 3.797c-1.37 2.24-4.172 6.534-6.785 8.214 0 0-.062.062-.187.062-.996.312-10.457 3.61-16.62 4.108l-5.6.311a6.8 6.8 0 0 1-.188-1.618 7.79 7.79 0 0 1 2.926-6.1l11.95-9.459s.312-.186.436-.186h5.852s.186 0 .31.062c.374.187 1.744.809 3.61.809zM268.626 557.365l-48.488 29a5.1 5.1 0 0 1-2.676.747h-9.648l.747-.374s2.303-6.784 5.664-16.18c.374.124 1.494.373 4.046.623 2.428.31 28.944-7.468 50.417-13.816zM266.385 192.556c0 2.676-2.24 4.916-4.917 4.916h-21.722c-1.495 0-2.988.312-4.296.996l-4.73 2.427c-.062-.311-.187-.871-.25-1.556-.124-1.867.125-4.854 1.93-8.152 1.557-2.738 4.544-4.357 7.719-4.357h20.54c3.111 0 5.726 2.552 5.726 5.726M251.882 203.072a5.286 5.286 0 0 1 5.291 5.29 5.286 5.286 0 0 1-5.291 5.29 5.286 5.286 0 0 1-5.29-5.29 5.286 5.286 0 0 1 5.29-5.29M243.355 359.59c3.486 0 6.287 2.8 6.287 6.286 0 3.484-2.8 6.223-6.287 6.223a6.2 6.2 0 0 1-6.224-6.223c0-3.423 2.8-6.286 6.224-6.286M235.015 422.072c3.61 0 6.473 2.926 6.473 6.41s-2.926 6.41-6.473 6.41c-3.548 0-6.412-2.925-6.412-6.41 0-3.484 2.926-6.41 6.412-6.41"/><path fill="#f7f3ea" d="M224.122 200.52c.498 18.173 4.295 36.033 7.532 48.045-12.698-4.107-14.316-35.846-14.316-35.846-.996-11.016 6.784-12.26 6.784-12.26z"/><path fill="#294485" d="M201.216 469.244c-2.24.995-4.294 1.991-6.1 3.174-2.738-11.078-17.24-71.132-13.382-85.196 0 0 10.706 71.692 19.482 81.96z"/></g><g stroke="#294485" stroke-miterlimit="10" stroke-width="2.007" data-layer="fausto-outline"><path d="M156.653 173.491c-3.061 1.355-6.323 2.258-9.635 2.76 0 0-9.485 3.162-21.077-4.416-1.857-1.205-3.714-2.66-5.671-4.466-5.37-5.069-10.99-12.697-16.059-24.139 0-.05-.05-.15-.1-.251-.251-.752-1.756-5.168-3.513-11.742-2.61-9.686-5.67-24.139-6.072-38.742V90.99l1.255-36.534s0-.301.05-.452c.401-1.806 3.412-13.65 16.008-12.445 0 0 15.858 4.165 22.131 3.362.151 0 .301-.05.502-.1l24.841-7.477h.1c1.154-.302 19.672-4.567 22.181 8.029l1.606 21.579c0 .602.251 1.154.703 1.606 1.706 1.906 6.473 7.427 6.574 10.84l1.104 14.251c.15 1.355 1.254 2.46 2.659 2.46a2.574 2.574 0 0 0 2.56-2.159c.702-3.713 2.609-10.689 7.678-11.29q.753-.151 1.656 0s9.936-.252 8.23 15.757c-.251 2.71-.903 5.921-1.957 9.685 0 0-2.309 8.531-6.474 12.897-1.305 1.355-3.162 2.058-5.069 2.058h-1.354c-.603 0-1.105.15-1.506.351a2.45 2.45 0 0 0-1.255 1.706c-1.003 4.416-3.512 14.754-6.272 18.066 0 0-14.303 22.031-33.724 30.311" transform="matrix(1.24056 0 0 1.24006 106.75 85.808)"/><path d="M100.548 131.288c-10.237-3.312-11.542-28.906-11.542-28.906-.803-8.882 5.47-9.886 5.47-9.886s-9.234-25.242-5.57-40.398c0 0-8.381-7.878 0-11.341 0 0-2.36-11.19-.703-16.21.502-1.404 2.208-2.057 3.513-1.354a22 22 0 0 1 3.412 2.258s5.47-15.557 6.273-16.66c0 0 1.606-3.162 6.775 5.018l3.864-.201s2.258-8.33 5.922-11.392c1.054-.853 2.609-.602 3.512.452 1.406 1.706 3.664 4.265 4.868 4.366h2.208s6.173-6.976 15.908-5.922c0 0 10.338 2.91 15.156 7.427.953.853 2.057 1.355 3.362 1.456l5.821.502s3.814-1.908 6.022-1.406c0 0 4.617.853 5.671 8.532 0 0 2.459 2.057 8.431 0 1.806-.653 3.814 0 4.767 1.656.853 1.455 1.456 3.512.904 6.222h5.269c1.505 0 2.71 1.255 2.71 2.71v9.485l2.208 1.254c1.355.803 1.957 2.41 1.505 3.915l-1.806 5.821V82.56M120.27 180.516s15.105 9.585 15.707 12.997c0 0 1.707 3.714 1.656 7.879 0 .201 0 .402.151.602a1.48 1.48 0 0 0 1.656.853l14.905-2.96a2.035 2.035 0 0 0 1.605-1.907c.201-4.015 1.255-14.553 6.926-16.762 0 0 24.339-13.298 35.228-22.181 2.008-1.656 3.563-3.161 4.417-4.366v-.301c-.552-.803-2.861-3.964-4.517-3.914M120.27 167.419v9.234M198.004 123.409v35.379M120.27 176.653v3.813l-2.71 2.861c-.803.652-2.459 2.057-2.66 2.308-.301.352-1.706.954-2.157 1.205l-59.317 26.045s-13.45 8.581-15.708 19.521L1.889 336.888s-6.324 46.118 14.854 52.191l43.158 6.373s.602-.301 1.505-.602c2.057-.703 5.62-1.556 6.925.602 1.757 2.91 9.234 9.535 13.098 8.682.2-.051.402-.151.602-.251 0 0 1.857-5.47 4.567-13.048m0 0c5.972-16.761 16.159-44.061 19.822-46.068.101 0 .201-.101.302-.101 0 0-18.97-13.348-48.528-17.965 0 0 2.56-8.682 12.998-15.005a32 32 0 0 1 4.918-2.559c3.613-1.606 7.929-2.811 12.997-3.564 2.76-.351 5.771-.602 9.033-.602l43.057 4.918s-2.86 28.605 11.442 58.263c0 0 .151.301.251.903.05.352.151.854.201 1.355.1 1.707-1.054 3.312-2.71 3.814-.853.251-1.957.602-3.262 1.004-4.065 1.255-10.037 3.011-16.611 4.968-17.313 5.169-38.69 11.392-40.648 11.141-2.058-.251-2.91-.402-3.262-.502Zm0 0c-.25-.05-.25-.1-.25-.1" transform="matrix(1.24056 0 0 1.24006 106.75 85.808)"/><path d="M141.146 309.939s27.752-1.154 52.492-1.305c6.373-.05 12.546 0 18.016.1 3.563.051 6.825.201 9.585.301 5.169.352 8.782.854 9.886 1.606l9.384-7.226s1.255-4.567-2.559-5.47c0 0-12.797 3.513-16.661 10.589" transform="matrix(1.24056 0 0 1.24006 106.75 85.808)"/><path d="M211.754 306.026s22.834-19.321 27.149-19.321h.151M205.883 300.053s16.259-14.603 21.98-15.607" transform="matrix(1.24056 0 0 1.24006 106.75 85.808)"/><path d="M193.638 307.582s9.083-16.56 23.185-25.091c2.057-1.255 4.265-2.359 6.524-3.162a29 29 0 0 1 5.821-1.505s4.416-.954 3.362 3.563c0 0 3.814-3.463 5.872-1.205 0 0 1.907 2.158 3.663 4.517 1.054 1.405 2.058 2.91 2.61 4.064.401.854.351 1.807 0 2.66-.703 1.506-2.459 4.216-6.725 6.524M71.442 313.201s-.15-.502-.352-1.405c-2.208-8.933-13.9-57.36-10.789-68.701 0 0 8.632 57.811 15.707 66.091.402.402.703.703 1.054.853l11.894-4.065v-.351l7.477-87.52c.25-2.81 2.208-5.118 4.918-5.72l31.666-7.377" transform="matrix(1.24056 0 0 1.24006 106.75 85.808)"/><path d="M115.101 225.884c0 2.81-2.258 5.018-5.068 5.018a5 5 0 0 1-5.019-5.018c0-2.761 2.259-5.069 5.019-5.069s5.068 2.258 5.068 5.069ZM194.09 214.591a5.376 5.376 0 0 1-5.37 5.37c-2.961 0-5.319-2.409-5.319-5.37a5.29 5.29 0 0 1 5.319-5.319c2.961 0 5.37 2.358 5.37 5.319ZM184.204 270.346c0 2.81-2.359 5.118-5.169 5.118-2.811 0-5.169-2.308-5.169-5.118s2.308-5.169 5.169-5.169a5.16 5.16 0 0 1 5.169 5.169ZM108.527 276.369c0 2.86-2.358 5.169-5.219 5.169-2.86 0-5.169-2.359-5.169-5.169 0-2.811 2.359-5.169 5.169-5.169s5.219 2.358 5.219 5.169ZM216.823 282.489s10.438-46.972 17.765-55.553c0 0-14.353 49.431-11.241 52.391M161.069 371.314s-1.505 5.721 0 6.925c1.054.853 10.137 4.316 11.793 5.269.602.352 1.305.803 1.907 1.255 2.258 1.606 2.258 1.857 7.678 3.914.653.251 1.355.552 1.957.753 7.528 2.409 56.657 17.865 70.257 16.56 1.506-.15 2.61-1.405 2.66-2.91" transform="matrix(1.24056 0 0 1.24006 106.75 85.808)"/><path d="M202.621 154.472s3.563 18.367 9.434 18.568l67.698 22.833s.301.151.451.201c2.309 1.254 21.128 12.997 16.31 58.664l-3.914 49.381s-.051.301-.101.451c-.803 3.262-10.588 42.455-19.27 56.306 0 0-5.47 12.997-15.958 19.32-2.811 1.657-5.922 2.861-9.335 3.262 0 0-30.059 1.205-55.653-4.014-4.265-.853-8.431-1.907-12.245-3.162" transform="matrix(1.24056 0 0 1.24006 106.75 85.808)"/><path d="m106.319 344.867 46.47 24.238 8.28 2.209 18.969 4.917 12.245 3.162 1.355.402M147.419 375.629l-.401-.301-40.699-30.461h-.05M81.378 404.235h7.778c.753.051 1.506-.15 2.158-.501l39.093-23.386M57.09 415.726v.151M61.355 394.95s-3.162 15.406-4.065 19.822c0 .151-.05.251-.05.301" transform="matrix(1.24056 0 0 1.24006 106.75 85.808)"/><path d="M57.29 414.774s0 .15-.05.301c0 .15-.1.351-.15.602-.252 1.907-.503 6.122 2.71 8.581 0 0 134.34 13.65 190.897 0 0 0 6.574-2.459 6.574-14.954v-29.157" transform="matrix(1.24056 0 0 1.24006 106.75 85.808)"/><path d="m59.8 424.257-5.772 312.141s7.578 1.806 20.425 4.165c18.818 3.462 48.928 7.929 82.652 9.434 9.484.402 19.27.602 29.206.402 29.91-.502 60.873-4.065 88.223-13.299 4.265-1.405 8.43-3.011 12.545-4.717l-36.332-308.176" transform="matrix(1.24056 0 0 1.24006 106.75 85.808)"/><path d="m274.534 737.201 7.778 141.266c0 13.901-5.771 24.59-5.771 24.59 3.061 13.248 3.613 30.712 3.714 40.749 0 5.169-2.911 9.886-7.578 12.144-24.891 11.894-45.366 3.915-54.349-1.003-2.91-1.606-4.466-5.571-4.918-7.979-1.606-7.729 4.918-43.961 4.918-43.961l-8.129-17.464c-1.907-4.165-2.811-8.732-2.56-13.298l1.506-27.651c.15-2.359 0-4.667-.452-6.976l-16.962-87.168h-5.42l-29.206-.502.552 22.382 2.057 83.053c10.238 19.27 0 38.139 0 38.139-28.705 2.459-75.475-5.369-75.475-5.369l-2.36-14.754c-.3-11.091 6.474-18.066 7.328-20.074.853-2.007-4.918-13.951-4.918-13.951l-9.937-97.706 83.154 30.662" transform="matrix(1.24056 0 0 1.24006 106.75 85.808)"/><path d="m84.238 888.254-14.302 11.843a18.5 18.5 0 0 1-5.72 3.212l-14.504 4.817c-5.118 1.706-9.685 4.918-12.646 9.435-3.412 5.319-5.67 13.348-1.154 24.188 0 0 18.417 17.815 65.439 1.656 0 0 20.123-11.04 24.64-11.04l10.388 2.96 25.945-8.782-2.61-32.97M218.328 903.057s41.652-7.076 58.213 0M125.941 171.886c-3.363-2.459-9.033-21.479-5.269-13.851 0 0 2.258 3.764 5.57 4.567 0 0 2.86-6.373 6.273 0h1.656s2.208-8.732 4.918-8.732 5.57 4.065 6.674 8.18h1.656s.653-2.66 3.212-3.262c0 0 1.957-.803 3.412 3.262 0 0 6.524 2.81 11.693-16.962.151-.602 1.054-.602 1.154 0 .803 3.814 1.707 11.893-2.358 20.525 0 0-3.011 5.42-7.779 7.929h-.05c-.702.351-1.405.652-2.158.853M124.385 140.119l33.372-2.459M141.096 125.065l5.269-.803 1.004-.15h.251c1.505.451 17.614 5.369 20.826 9.685 0 0 1.706 2.61-2.158 2.76h-.15l-22.282-1.054s-.15 0-.251-.05c-.752-.351-5.068-2.71-6.222-5.269a.515.515 0 0 0-.954-.05c-1.104 1.806-3.362 5.269-5.47 6.624 0 0-.05.05-.15.05-.803.251-8.431 2.911-13.399 3.312l-4.517.251c-.1-.401-.15-.853-.15-1.305 0-1.907.853-3.713 2.358-4.918l9.635-7.627s.251-.151.352-.151h4.717s.15 0 .251.05c.301.151 1.405.653 2.91.653 1.155 0 2.61-.302 4.065-1.355l.201-.101 3.061-.502M114.148 132.19s2.76-9.183 7.076-11.492M152.789 114.977s11.241 8.782 12.245 14.252" transform="matrix(1.24056 0 0 1.24006 106.75 85.808)"/><path d="M126.894 96.56s-.1.401-.301 1.154c-1.054 4.617-4.968 21.78-3.613 23.988 0 0 1.004 2.158 5.319 3.462 2.309.703 4.718.853 7.126.603 1.606-.151 3.513-.402 4.968-.603.251 0 .502-.05.703-.1.351 0 2.81 0 5.269-.803.201-.05.352-.151.552-.201 2.359-1.003 3.814-3.462 3.814-6.072v-.652s-.803-4.166-2.057-4.617M124.385 97.714s-2.76-3.261-8.13-3.261c-2.258 0-4.867.551-7.979 2.057M167.593 93.6s-5.47-6.423-16.159-1.153M208.693 97.765c-.05 1.103-.401 2.408-1.054 4.516-.602 3.061-4.817 14.955-8.23 10.288a.46.46 0 0 1-.05-.552c.502-1.205 2.258-5.922 1.807-9.435 0-.05 0-.15-.051-.201-.301-.501-1.756-3.462.603-7.025.1-.15.2-.301.301-.402 2.258-2.71 6.825-1.054 6.674 2.81Z" transform="matrix(1.24056 0 0 1.24006 106.75 85.808)"/></g></g></svg>