<svg preserveAspectRatio="none" width="100%" height="100%" overflow="visible" style="display: block;" viewBox="0 0 233.427 232.847" fill="none" xmlns="http://www.w3.org/2000/svg">
<g id="raviolo">
<path id="Vector" d="M155.765 40.1491C170.864 33.1794 187.393 46.5635 183.719 62.7854C200.344 62.5605 210.009 81.5077 200.051 94.8344C215.334 101.393 216.444 122.635 201.93 130.745C213.225 142.954 205.607 162.809 189.041 164.323C194.399 180.066 179.354 195.104 163.611 189.758C162.103 206.322 142.244 213.941 130.031 202.646C121.918 217.16 100.673 216.044 94.114 200.765C80.7918 210.727 61.8471 201.064 62.0687 184.435C45.8541 188.114 32.4657 171.585 39.4317 156.484C23.1223 153.252 17.6123 132.706 30.1265 121.742C16.5366 112.147 19.8663 91.1435 35.7526 86.2173C27.2411 71.9274 38.8231 54.0872 55.3357 56.0581C53.3721 39.5473 71.2091 27.959 85.5037 36.4687C90.4235 20.5806 111.44 17.2568 121.031 30.842C131.992 18.3327 152.537 23.8378 155.765 40.1491Z" fill="var(--fill-0, #F8F3E9)" stroke="var(--stroke-0, #2A4484)" stroke-width="4" stroke-linecap="round" stroke-linejoin="round"/>
<path id="Vector_2" d="M99.2805 174.104C82.4975 169.317 66.6464 164.801 58.1635 150.249C49.275 135.01 53.8328 118 58.4442 100.828C63.0435 83.6637 67.5935 66.6827 82.9118 57.8877C97.6177 49.4462 113.708 53.4573 130.564 57.6632C147.828 61.9682 166.128 66.5404 175.264 82.6333C183.604 97.3327 179.593 113.382 175.378 130.235C171.016 147.67 166.486 165.774 150.518 174.986C134.609 184.171 116.759 179.077 99.2831 174.095L99.2805 174.104Z" fill="var(--fill-0, #F8F3E9)" stroke="var(--stroke-0, #2A4484)" stroke-width="4" stroke-linecap="round" stroke-linejoin="round"/>
<g id="Vector_3">
<path d="M115.119 68.7848C119.889 69.452 124.78 70.6695 129.759 71.9103C143.025 75.2166 157.096 78.728 164.114 91.0958C169.428 100.471 168.218 110.551 165.795 121.103" fill="var(--fill-0, #F8F3E9)"/>
<path d="M115.119 68.7848C119.889 69.452 124.78 70.6695 129.759 71.9103C143.025 75.2166 157.096 78.728 164.114 91.0958C169.428 100.471 168.218 110.551 165.795 121.103" stroke="var(--stroke-0, #2A4484)" stroke-width="4" stroke-linecap="round" stroke-linejoin="round"/>
</g>
<g id="Vector_4">
<path d="M161.543 137.626C159.672 143.875 157.299 149.833 153.486 154.713Z" fill="var(--fill-0, #F8F3E9)"/>
<path d="M161.543 137.626C159.672 143.875 157.299 149.833 153.486 154.713" stroke="var(--stroke-0, #2A4484)" stroke-width="4" stroke-linecap="round" stroke-linejoin="round"/>
</g>
<g id="Vector_5">
<path d="M118.58 164.709C114.301 163.832 109.992 162.605 105.711 161.385C102.614 160.504 99.5651 159.635 96.6173 158.659" fill="var(--fill-0, #F8F3E9)"/>
<path d="M118.58 164.709C114.301 163.832 109.992 162.605 105.711 161.385C102.614 160.504 99.5651 159.635 96.6173 158.659" stroke="var(--stroke-0, #2A4484)" stroke-width="4" stroke-linecap="round" stroke-linejoin="round"/>
</g>
<g id="Vector_6">
<path d="M88.4622 155.48C82.5902 152.705 77.5593 148.955 74.1221 143.044C68.9093 134.1 69.7159 124.368 71.9676 114.38" fill="var(--fill-0, #F8F3E9)"/>
<path d="M88.4622 155.48C82.5902 152.705 77.5593 148.955 74.1221 143.044C68.9093 134.1 69.7159 124.368 71.9676 114.38" stroke="var(--stroke-0, #2A4484)" stroke-width="4" stroke-linecap="round" stroke-linejoin="round"/>
</g>
</g>
</svg>
