<svg xmlns="http://www.w3.org/2000/svg" width="283" height="519" fill="none" viewBox="0 0 293.817 538.837"><g data-layer="paganini-fill"><path fill="#f7f3e9" d="m159.052 181.815 1.907-11.643s12.044-1.355 22.733-7.377c3.262-1.857 6.474-4.115 9.084-6.925a31.8 31.8 0 0 0 8.33-2.409s79.892 35.931 81.648 48.176c0 0 24.891 50.635 0 159.382 0 0 .151 6.223-2.007 10.739 0 0 2.158 6.574-1.606 11.392l-6.574 6.875-3.262 3.914s-6.323 9.134-12.194 7.98c0 0 0-2.76-.703-6.825-2.007-11.041-9.836-31.867-39.795-35.179a65 65 0 0 0-5.571-.401v1.756c-1.154-7.126 5.47-14.503 5.47-14.503l1.054-1.957c2.007-2.71 3.914-6.474 8.029-7.026 27.451-3.713 41.402 13.801 42.205 14.804-11.844-23.937-42.506-18.869-42.506-18.869-6.222-72.464 28.806-122.848 30.813-125.659-2.459 2.56-37.638 41.452-38.29 122.799 0 0-18.066 9.033-13.299 32.117l-23.837 26.547c-17.313 13.098-35.831 25.042-42.655 22.081 0 0-17.213-9.986-27.099-7.026l-.201.301c-5.169-3.261-10.689-5.871-11.994-6.022-1.104-.15-5.27.302-9.434 1.155v-.151c-8.983-67.396 18.467-218.097 18.467-218.097h51.137zm31.566 19.822c0-2.208-1.807-4.015-4.065-4.015a3.995 3.995 0 0 0-4.015 4.015c0 2.208 1.807 4.065 4.015 4.065s4.065-1.807 4.065-4.065m-8.08 43.961a4.047 4.047 0 0 0-4.065-4.065 4.05 4.05 0 0 0-4.065 4.065 4.05 4.05 0 0 0 4.065 4.064 4.047 4.047 0 0 0 4.065-4.064m-6.875 51.688c0-2.509-2.057-4.566-4.567-4.566a4.58 4.58 0 0 0-4.566 4.566c0 2.51 2.057 4.567 4.566 4.567a4.583 4.583 0 0 0 4.567-4.567m-7.076 51.639a3.994 3.994 0 0 0-4.014-4.015 4.026 4.026 0 0 0-4.015 4.015 4.026 4.026 0 0 0 4.015 4.015 4.026 4.026 0 0 0 4.014-4.015m-45.466-149.446a4.155 4.155 0 0 0-4.165-4.165 4.155 4.155 0 0 0-4.165 4.165c0 2.309 1.907 4.165 4.165 4.165s4.165-1.907 4.165-4.165m-6.925 43.961c0-2.71-2.208-4.868-4.918-4.868s-4.918 2.158-4.918 4.868a4.926 4.926 0 0 0 4.918 4.918 4.894 4.894 0 0 0 4.918-4.918m-5.069 51.99c0-2.459-1.957-4.467-4.416-4.467a4.444 4.444 0 0 0-4.466 4.467c0 2.509 1.957 4.466 4.466 4.466s4.416-2.007 4.416-4.466m-4.817 50.635c0-2.259-1.807-4.065-4.015-4.065s-4.015 1.806-4.015 4.065a3.994 3.994 0 0 0 4.015 4.014 4.026 4.026 0 0 0 4.015-4.014"/><path fill="#294485" d="M256.458 395.093c.753 4.065.703 6.825.703 6.825l-.151.151-5.62-3.714c3.211-2.057 5.118-3.262 5.118-3.262zM239.245 426.759c8.281 67.848 23.687 283.185 23.687 283.185-6.474 1.907-12.998 3.613-19.722 5.018-27.651 6.022-56.808 8.18-84.358 8.18-39.595 0-75.827-4.467-99.263-8.18-17.062-2.71-27.35-5.018-27.35-5.018-.803-53.145 3.413-110.504 8.531-159.433 9.585 6.926 61.575 5.922 61.575 5.922-1.857-2.66 2.509-69.303 2.509-69.303-9.334 2.358-56.004-3.363-56.004-3.363 4.265-30.762 7.778-51.287 8.33-54.398l-1.957 14.051s23.687 36.684 62.729 30.913c0 0 29.207-13.198 32.67-14.001 0 0 87.871-31.214 88.573-33.523z"/><path fill="#f7f3ea" d="M256.458 395.095s-1.907 1.254-5.119 3.262a498 498 0 0 1-15.205 9.334c-14.553 8.631-33.773 19.32-47.022 23.586 0 0-24.941 8.431-34.024 11.442-2.058.652-3.864 1.706-5.47 3.111-3.513 3.061-10.79 8.581-17.614 8.431 2.81-2.81-.854-5.922-.854-5.922-10.538-.602-18.869-3.713-25.091-7.126 11.743 5.47 24.84 5.57 24.84 5.57 6.324-2.559 1.556-6.774 1.556-6.774-23.586-6.675-37.487-29.458-37.487-29.458-.953-1.907 16.009 9.585 16.009 9.585 3.362 1.957 11.341-.903 9.434-6.474-.853-2.609-5.119-5.921-9.635-8.782l.201-.301c9.886-2.96 27.099 7.026 27.099 7.026 6.825 2.911 25.292-8.983 42.656-22.081 18.618-14.101 35.931-29.608 35.931-29.608 29.959 3.312 37.788 24.138 39.795 35.179"/><path fill="#294485" d="M250.035 52.642c-.904.452-4.065 1.907-8.682 2.359-4.316.502-9.886.15-16.209-2.459l-14.855-5.972a16.8 16.8 0 0 1-3.261-1.706c-7.478-5.018-40.549-27.049-45.667-24.289l-7.126 28.003a6.14 6.14 0 0 1-2.208 3.362l-10.99 8.682-6.926 24.84-6.223-2.158 3.814-15.757s-5.921-6.976-7.527-6.825 2.911-49.13 30.16-47.072c0 0-.15-8.08 5.671-9.635 0 0-2.66 2.509-.502 4.968 0 0 3.463-7.93 14.704-8.983 0 0-3.262 2.81-3.011 4.015 0 0 40.899-9.886 67.797 12.345 0 0-6.323.05-6.373 1.054 0 0 18.417 7.979 17.213 13.399 0 0-3.262.502-3.111 1.003 0 0 18.818 10.74 3.512 20.626l-.301.15zM236.586 882.925c-23.185-4.265-48.728 1.907-48.728 1.907l-4.015-1.505v-12.496c-7.829-5.57 0-22.432 0-22.432l-13.55-107.442c5.571-1.205 47.574-9.887 75.024-3.513 2.861 53.094-6.172 115.07-6.172 115.07 4.918 11.392-1.255 16.31-1.255 16.31v14.302c-.451-.1-.903-.151-1.355-.251zM245.016 934.363l.452 8.381c-5.37 18.066-31.666 17.463-31.666 17.463-23.937 2.108-31.214-11.241-31.214-11.241v-11.693s4.216 18.368 31.766 14.102c0 0 19.02-1.004 30.612-16.962z"/><path fill="#243c6b" d="m236.586 882.925 8.43 51.438c-11.592 15.958-30.611 16.962-30.611 16.962-27.551 4.266-31.767-14.102-31.767-14.102l5.22-52.441s25.493-6.123 48.728-1.907zM243.26 714.963a279 279 0 0 1 2.058 22.482c-27.451-6.373-69.454 2.309-75.025 3.513l-2.258-17.815h-9.133c27.5 0 56.707-2.158 84.358-8.18"/><path fill="#294485" d="M241.303 55.002c4.617-.502 7.778-1.907 8.681-2.359-.853 8.23-4.215 25.242-17.514 39.846 4.818-16.009 9.335-32.67 8.833-37.437z"/><path fill="#f7f3ea" d="M219.774 88.824c-.401-.2-.903-.3-1.405-.3a3.577 3.577 0 0 0-3.563 3.562 3.577 3.577 0 0 0 3.563 3.563 3.577 3.577 0 0 0 3.563-3.563c0-1.505-.903-2.76-2.158-3.262m21.529-33.773c.502 4.717-4.015 21.378-8.832 37.437-.251.702-.452 1.455-.653 2.208-5.018 16.41-10.087 31.565-10.087 31.565-4.165 15.808-12.395 23.586-20.625 27.199-2.81 1.255-5.671 1.958-8.33 2.409-8.732 1.405-15.858-.602-15.858-.602-23.587-4.868-37.839-17.614-45.868-27.902 0-.05-.05-.1-.05-.1-2.258-3.011-4.065-5.721-5.37-8.03-2.258-3.864-3.211-8.28-2.91-12.746l.401-6.123c-25.543-2.107-18.267-27.25-18.267-27.25 4.266-15.054 19.421-12.344 19.421-12.344 1.606-.15 7.528 6.825 7.528 6.825l-3.814 15.757 6.223 2.158 6.925-24.84 10.99-8.682c1.104-.853 1.857-2.058 2.208-3.363l7.126-28.002c5.119-2.76 38.19 19.27 45.667 24.289a17 17 0 0 0 3.262 1.706l14.854 5.972c6.273 2.61 11.894 2.91 16.209 2.459zm-6.976 24.49c.753-1.908-.2-4.065-2.107-4.818l-18.016-7.126c-1.907-.753-4.065.2-4.868 2.107l-.201.552c-.752 1.907.201 4.065 2.108 4.818l18.016 7.126c1.907.753 4.065-.2 4.817-2.108zm-41.853-15.307c.302-2.208-1.154-4.265-3.362-4.566l-22.934-3.513h-.602c-1.957 0-3.713 1.405-4.014 3.412a4.03 4.03 0 0 0 3.362 4.617l22.934 3.513h.602c1.957 0 3.663-1.405 4.014-3.412zm-13.047 15.608c0-2.058-1.706-3.764-3.764-3.764s-3.764 1.706-3.764 3.763 1.707 3.764 3.764 3.764c2.058 0 3.764-1.706 3.764-3.764m-54.7 1.605c1.004-6.774-4.165-11.993-4.165-11.993-7.126-4.467-7.779 2.358-7.779 2.358 3.664-2.91 6.073 5.019 6.073 5.019-1.054 0-2.108 1.254-2.911 2.66-1.355 2.358-1.606 5.268-.351 7.677 1.355 2.51 3.262 2.56 3.262 2.56-3.463-8.933 5.921-8.33 5.921-8.33z"/><path fill="#f7f3ea" d="M231.818 94.697s13.901 3.362 6.925 18.317c0 0-5.52 11.994-17.062 13.298 0 0 5.119-15.155 10.087-31.565zm2.71 12.847c1.255-6.725-4.567-4.316-4.567-4.316l-3.814 11.994c4.517 2.91 8.381-7.678 8.381-7.678"/><path fill="#243c6b" d="M239.245 426.708c-.702 2.359-88.573 33.573-88.573 33.573-3.463.803-32.67 14.001-32.67 14.001-39.042 5.771-62.729-30.913-62.729-30.913l1.957-14.051v-.401h.05c1.305 1.304 2.36 2.358 3.162 3.111.853.903 1.455 2.057 1.757 3.262 5.62 22.482 31.916 30.762 35.63 31.816.25.05.552.151.853.151 22.482 3.412 18.166-3.614 18.166-3.614-11.542.502-18.869-2.057-23.385-4.918 9.133 4.768 23.586 4.266 23.586 4.266 11.341.703 8.983-5.169 8.983-5.169-5.521-.502-10.338-1.355-14.503-2.459 9.233 1.706 16.911.903 16.911.903 1.707-.602 2.811-1.304 3.513-2.057 6.825.15 14.102-5.37 17.615-8.431a15.6 15.6 0 0 1 5.47-3.111c9.133-3.061 34.024-11.442 34.024-11.442 13.248-4.266 32.469-14.955 47.022-23.586.853 2.559 1.907 9.284 3.061 19.019z"/><path fill="#294485" d="M217.867 330.81c.703-81.347 35.881-120.24 38.29-122.799-2.007 2.81-36.985 53.245-30.813 125.659 0 0 30.662-5.068 42.506 18.869-.803-1.004-14.754-18.518-42.204-14.804-4.166.552-6.022 4.266-8.03 7.026l-1.054 1.957s-6.674 7.377-5.47 14.503v2.107l-30.361 26.146 23.838-26.547c-4.818-23.084 13.298-32.117 13.298-32.117M230.012 103.227s5.771-2.409 4.566 4.316c0 0-3.864 10.538-8.38 7.678zM232.22 74.722c1.907.753 2.86 2.911 2.107 4.818l-.251.552c-.752 1.907-2.91 2.86-4.817 2.108l-18.016-7.126c-1.907-.753-2.86-2.91-2.108-4.818l.201-.552c.803-1.907 2.961-2.86 4.868-2.108zM219.774 88.825c1.255.502 2.158 1.807 2.158 3.262a3.577 3.577 0 0 1-3.563 3.563 3.577 3.577 0 0 1-3.563-3.563 3.577 3.577 0 0 1 3.563-3.563c.502 0 .954.1 1.405.301"/><path fill="#294485" d="m211.092 363.327.452-.402a11 11 0 0 1-.452-1.706v-1.756c1.958.05 3.814.251 5.571.401 0 0-17.313 15.507-35.932 29.608zM189.112 59.67c2.208.3 3.714 2.358 3.363 4.566-.302 2.007-2.058 3.412-4.015 3.412h-.602l-22.934-3.513a4.03 4.03 0 0 1-3.362-4.617c.301-2.007 2.057-3.412 4.014-3.412h.602l22.934 3.513zM176.868 155.218s7.126 2.057 15.857.602c-2.609 2.81-5.821 5.119-9.083 6.925-33.422-1.856-51.538-33.472-52.642-35.429 8.029 10.288 22.281 23.034 45.868 27.902M186.553 197.621c2.258 0 4.065 1.807 4.065 4.015s-1.807 4.065-4.065 4.065-4.015-1.807-4.015-4.065a3.995 3.995 0 0 1 4.015-4.015M178.423 241.532a4.05 4.05 0 0 1 4.065 4.065 4.05 4.05 0 0 1-4.065 4.064 4.05 4.05 0 0 1-4.065-4.064 4.05 4.05 0 0 1 4.065-4.065M175.663 83.606a3.764 3.764 0 1 0 0-7.527 3.764 3.764 0 0 0 0 7.527"/><path fill="#f7f3ea" d="M183.692 162.794c-10.689 6.022-22.733 7.376-22.733 7.376l-1.907 11.643H144.8l-1.254-12.195c-14.001-4.616-19.522-13.248-19.522-13.248l.402-10.187 1.154-26.949a80 80 0 0 0 5.37 8.03l.05.1c1.104 1.957 19.22 33.573 52.642 35.43z"/><path fill="#294485" d="M171.096 301.853a4.567 4.567 0 1 0 .001-9.133 4.567 4.567 0 0 0-.001 9.133M164.573 352.939a4.014 4.014 0 1 0 0-8.028 4.014 4.014 0 0 0 0 8.028"/><path fill="#243c6b" d="M158.902 723.142h-23.938c1.506 4.917 2.459 11.441 3.011 18.969-28.052-11.241-76.128-7.227-76.128-7.227l-2.158-19.872c23.436 3.713 59.668 8.13 99.263 8.13z"/><path fill="#f7f3e9" d="M144.8 181.813h-36.884S80.466 332.514 89.398 399.91v.151c-1.405.301-2.86.602-4.165 1.003a6.694 6.694 0 0 1-7.88-3.512L65.11 372.259c-.301-3.161-14.804-160.988-14.804-149.998l1.255 105.184c-13.048-9.133-31.616 1.155-31.616 1.155-6.574 3.513-11.14 7.176-14.202 10.689l33.673-135.144s5.721-16.159 27.25-27.25l51.588-20.424v-6.725c0 3.413 5.822 6.725 5.822 6.725s5.52 8.581 19.521 13.248l1.254 12.195z"/><path fill="#294485" d="M137.975 742.06c2.911 39.745-5.47 106.79-5.47 106.79 5.47 8.13 0 14.553 0 14.553v12.546l-1.354.502c-20.174 7.026-49.28-.301-57.862-2.76a62 62 0 0 1-2.509-.753c-1.154-2.358 2.71-16.309 2.71-16.309-6.072-7.026 0-15.457 0-15.457L61.847 734.834s48.026-4.015 76.128 7.226M135.617 903.902v15.507l-27.551 8.682v-9.184c-.502 0-1.104.201-1.806.452l-1.657-4.868 28.956-9.886v.151l2.058-.803z"/><path fill="#243c6b" d="M131.151 876.452c4.165 7.428 2.609 26.347 2.458 28.153l-28.955 9.886-1.355.452c-6.323 1.957-20.224 11.592-20.224 11.592-5.67 5.922-19.622 9.234-19.622 9.234s-42.304 9.435-52.491-3.764c-.252-17.463 15.406-19.772 15.406-19.772 2.61.251 20.876-9.585 20.876-9.585 8.08-2.358 26.045-28.956 26.045-28.956 8.582 2.459 37.688 9.786 57.862 2.76"/><path fill="#f7f3ea" d="M89.247 444.173c6.123 6.674 14.754 9.785 22.282 11.241-13.198-3.413-19.873-8.883-22.282-11.241m3.764-13.199c3.362 4.617 8.13 7.929 13.098 10.188 6.223 3.462 14.553 6.523 25.092 7.126 0 0 3.663 3.111.853 5.921-.703.753-1.807 1.405-3.513 2.058 0 0-7.678.803-16.912-.904 4.165 1.105 8.983 1.958 14.503 2.459 0 0 2.359 5.922-8.983 5.169 0 0-14.402.502-23.586-4.265-4.215-2.66-6.022-5.571-6.524-6.474 1.154 2.861 3.563 4.968 6.524 6.474 4.517 2.86 11.843 5.42 23.385 4.918 0 0 4.316 7.025-18.166 3.613-.301 0-.602-.1-.853-.151-3.714-1.053-30.01-9.334-35.63-31.816-.301-1.204-.853-2.358-1.757-3.262-.803-.803-1.856-1.806-3.161-3.161-12.195-12.245-44.613-46.018-43.158-54.65 7.126-28.002 39.294-21.629 39.294-21.629l3.362 2.007c2.058 1.205 3.262 3.413 3.262 5.721 0 1.054.25 2.008.703 2.961l4.265 8.832 12.245 25.343c1.405 2.961 4.717 4.466 7.879 3.513 1.355-.402 2.76-.703 4.215-1.004 4.165-.853 8.33-1.305 9.435-1.154 1.304.15 6.824 2.76 11.993 6.022 4.517 2.86 8.782 6.223 9.636 8.782 1.906 5.57-6.123 8.481-9.435 6.474 0 0-16.962-11.442-16.008-9.585 0 0 13.9 22.783 37.487 29.457 0 0 4.767 4.165-1.556 6.775 0 0-13.098-.1-24.841-5.57-7.879-4.366-12.245-9.234-13.098-10.188z"/><path fill="#294485" d="M120.562 69.505s5.169 5.169 4.165 11.994c0 0-9.384-.603-5.922 8.33 0 0-1.907-.05-3.262-2.56-1.254-2.408-1.003-5.369.352-7.677.803-1.406 1.806-2.66 2.91-2.66 0 0-2.408-7.93-6.072-5.019 0 0 .653-6.824 7.779-2.358zM124.426 146.183l-.402 10.188s-5.821-3.313-5.821-6.725v-.301s3.413-3.162 6.273-3.162zM119.006 195.313a4.155 4.155 0 0 1 4.165 4.165 4.154 4.154 0 0 1-4.165 4.165c-2.308 0-4.165-1.907-4.165-4.165s1.907-4.165 4.165-4.165M111.278 238.572c2.71 0 4.918 2.158 4.918 4.868a4.926 4.926 0 0 1-4.918 4.917 4.893 4.893 0 0 1-4.918-4.917c0-2.761 2.208-4.868 4.918-4.868M106.711 290.963c2.459 0 4.416 1.957 4.416 4.466s-1.957 4.467-4.416 4.467a4.476 4.476 0 0 1-4.466-4.467 4.444 4.444 0 0 1 4.466-4.466M104.654 914.491l1.656 4.867c-4.868 1.907-14.152 9.134-14.152 9.134-12.445 10.689-18.869 12.395-18.869 12.395-46.72 15.406-64.736 0-64.736 0v-7.929l2.458-.953c10.188 13.198 52.492 3.763 52.492 3.763s13.901-3.312 19.622-9.233c0 0 13.9-9.585 20.224-11.593l1.355-.451zM102.295 342.05c2.208 0 4.015 1.807 4.015 4.065a3.995 3.995 0 0 1-4.015 4.015 4.027 4.027 0 0 1-4.015-4.015c0-2.208 1.807-4.065 4.015-4.065"/><path fill="#243c6b" d="M104.955 487.129s-4.366 66.643-2.509 69.303c0 0-51.99 1.054-61.575-5.922 2.61-25.041 5.52-47.824 8.13-66.743 0 0 46.67 5.72 56.004 3.362z"/><path fill="#294485" d="m65.059 372.161-4.266-8.833c-.451-.953-.702-1.907-.702-2.961 0-2.358-1.255-4.566-3.262-5.72l-3.362-2.008c3.613-5.118 1.154-9.986-.603-12.345-.853-1.154-1.304-2.459-1.304-3.914v-8.983l-1.255-105.184c0-10.99 14.503 146.836 14.804 149.998z"/><path fill="#f7f3e9" d="M52.865 340.244c1.756 2.408 4.265 7.226.602 12.345 0 0-32.168-6.323-39.294 21.629-.401 1.706-.803 3.563-1.004 5.57-.15 1.255-1.505 1.857-2.509 1.104-3.06-2.409-8.029-7.578-7.477-15.557a5.67 5.67 0 0 0-.703-3.262c-1.957-3.412-5.72-12.646 3.212-22.833 3.061-3.513 7.628-7.126 14.202-10.689 0 0 18.568-10.288 31.616-1.154v8.982c0 1.406.451 2.761 1.304 3.915z"/></g><g stroke="#294485" stroke-miterlimit="10" stroke-width="2.007" data-layer="paganini-outline"><path d="M132.054 127.367c8.029 10.288 22.281 23.034 45.867 27.902 0 0 7.126 2.057 15.858.602a31.8 31.8 0 0 0 8.331-2.409c8.23-3.613 16.46-11.391 20.625-27.2 0 0 5.119-15.154 10.087-31.565.201-.752.401-1.505.652-2.208 4.818-16.008 9.334-32.669 8.832-37.436M125.229 60.773s-15.206-2.71-19.421 12.345c0 0-7.277 25.142 18.267 27.25l-.402 6.122a22.57 22.57 0 0 0 2.911 12.747 80 80 0 0 0 5.369 8.029"/><path d="M251.289 47.674s0 1.857-.301 4.968c-.853 8.23-4.215 25.243-17.514 39.846M232.822 94.697s13.901 3.362 6.925 18.317c0 0-5.52 11.994-17.062 13.299M188.861 67.597l-22.933-3.513a4.03 4.03 0 0 1-3.363-4.617c.301-2.007 2.058-3.412 4.015-3.412h.602l22.934 3.513c2.208.3 3.713 2.358 3.362 4.566-.301 2.008-2.057 3.413-4.015 3.413h-.602zM230.262 82.2l-18.015-7.126c-1.907-.753-2.861-2.91-2.108-4.818l.201-.552c.803-1.907 2.961-2.86 4.867-2.107l18.016 7.126c1.907.752 2.861 2.91 2.108 4.817l-.251.552c-.753 1.907-2.911 2.86-4.818 2.108ZM161.963 74.07s19.371.552 21.88 5.57M207.58 86.015s7.728.703 13.198 2.81c2.409.954 4.366 2.108 5.169 3.614"/><path d="M222.986 92.136a3.577 3.577 0 0 1-3.563 3.563 3.577 3.577 0 0 1-3.563-3.563 3.577 3.577 0 0 1 3.563-3.563c.502 0 .953.1 1.405.301 1.255.502 2.158 1.807 2.158 3.262ZM176.667 83.606a3.764 3.764 0 1 0-.001-7.527 3.764 3.764 0 0 0 .001 7.527ZM126.584 119.235l-1.154 26.948-.402 10.187s5.52 8.582 19.521 13.249l1.255 12.194h14.252l1.907-11.642s12.044-1.355 22.733-7.377c3.262-1.857 6.474-4.115 9.083-6.925M167.471 115.217s14 15 30 12.5"/><path d="M119.157 149.345s3.412-3.161 6.273-3.161M6.696 339.189l33.673-135.144s5.72-16.159 27.25-27.249l51.588-20.425v-6.725"/><path d="M124.978 156.37s-5.821-3.312-5.821-6.724v-.301M15.177 374.267c-.402 1.706-.803 3.563-1.004 5.57-.15 1.255-1.505 1.857-2.51 1.104-3.06-2.409-8.028-7.578-7.476-15.557a5.67 5.67 0 0 0-.703-3.262c-1.957-3.412-5.72-12.646 3.212-22.833 3.061-3.513 7.628-7.126 14.202-10.689 0 0 18.568-10.288 31.615-1.154v8.982c0 1.406.452 2.761 1.305 3.915 1.756 2.409 4.266 7.226.602 12.345 0 0-32.167-6.323-39.293 21.629z"/><path d="m52.563 330.809-.05-3.463-1.255-105.184"/><path d="M66.063 372.16c-.302-3.162-14.805-160.938-14.805-149.998M87.892 452.002v.15c0 .051 0 .151.05.151.502.903 2.309 3.814 6.524 6.474 4.517 2.86 11.844 5.419 23.386 4.918 0 0 4.316 7.025-18.166 3.613-.302 0-.603-.101-.854-.151-3.713-1.054-30.01-9.334-35.63-31.816-.3-1.204-.853-2.359-1.756-3.262-.803-.803-1.857-1.806-3.162-3.161-12.194-12.245-44.613-46.018-43.157-54.65"/><path d="M112.583 455.413c4.165 1.104 8.982 1.958 14.503 2.459 0 0 2.358 5.922-8.983 5.169 0 0-14.403.502-23.586-4.265-2.961-1.506-5.37-3.613-6.524-6.474"/><path d="M89.197 443.018c.301.401.653.803 1.054 1.154 2.409 2.359 9.083 7.829 22.281 11.241"/><path d="M112.583 455.413c-7.578-1.405-16.16-4.567-22.282-11.241M93.814 430.773s.05.1.15.151c.854.953 5.22 5.821 13.098 10.187 6.223 3.463 14.554 6.524 25.092 7.126 0 0 3.663 3.111.853 5.922-.702.752-1.806 1.405-3.513 2.057 0 0-7.678.803-16.911-.903"/><path d="m54.47 352.587 3.363 2.008c2.057 1.204 3.261 3.412 3.261 5.721 0 1.053.251 2.007.703 2.96l4.266 8.833 12.244 25.342c1.406 2.961 4.718 4.467 7.88 3.513 1.354-.401 2.76-.702 4.215-1.004 4.165-.853 8.33-1.304 9.434-1.154 1.305.151 6.825 2.76 11.994 6.022 4.516 2.861 8.782 6.223 9.635 8.782 1.907 5.571-6.122 8.481-9.434 6.474 0 0-16.962-11.442-16.009-9.585 0 0 13.901 22.783 37.487 29.457 0 0 4.767 4.166-1.556 6.775 0 0-13.097-.1-24.84-5.57-4.969-2.258-9.686-5.57-13.098-10.187"/><path d="M90.402 399.862c-8.933-67.396 18.517-218.097 18.517-218.097h36.885s-21.127-5.018-23.737-11.391M160.056 181.814s26.045 1.707 35.68-11.391"/><path d="M124.125 199.478a4.155 4.155 0 0 1-4.165 4.166c-2.309 0-4.166-1.907-4.166-4.166 0-2.258 1.907-4.165 4.166-4.165 2.258 0 4.165 1.857 4.165 4.165ZM191.621 201.636a4.05 4.05 0 0 1-4.065 4.065c-2.258 0-4.014-1.807-4.014-4.065a3.993 3.993 0 0 1 4.014-4.014c2.209 0 4.065 1.806 4.065 4.014ZM183.542 245.597a4.05 4.05 0 0 1-4.065 4.065 4.05 4.05 0 0 1-4.065-4.065 4.05 4.05 0 0 1 4.065-4.065 4.05 4.05 0 0 1 4.065 4.065ZM117.2 243.44a4.927 4.927 0 0 1-4.918 4.918 4.894 4.894 0 0 1-4.918-4.918c0-2.76 2.208-4.868 4.918-4.868s4.918 2.158 4.918 4.868ZM112.131 295.43c0 2.459-1.957 4.466-4.416 4.466a4.476 4.476 0 0 1-4.466-4.466 4.445 4.445 0 0 1 4.466-4.467c2.509 0 4.416 1.957 4.416 4.467ZM172.1 301.854a4.567 4.567 0 1 0 0-9.135 4.567 4.567 0 0 0 0 9.135ZM107.313 346.064a4.026 4.026 0 0 1-4.014 4.015 4.027 4.027 0 0 1-4.015-4.015c0-2.208 1.807-4.065 4.015-4.065s4.014 1.807 4.014 4.065ZM165.576 352.939a4.015 4.015 0 1 0 0-8.03 4.015 4.015 0 0 0 0 8.03ZM181.735 389.523l30.361-26.146.452-.401a10.7 10.7 0 0 1-.452-1.706c-1.154-7.126 5.47-14.503 5.47-14.503l1.054-1.958c2.007-2.709 3.914-6.473 8.029-7.025 27.45-3.714 41.401 13.8 42.204 14.804"/><path d="m257.261 207.911-.1.1c-2.459 2.559-37.638 41.451-38.29 122.799 0 0-18.066 9.033-13.299 32.117l-23.837 26.547"/><path d="M268.904 352.588c-11.844-23.937-42.506-18.869-42.506-18.869-6.222-72.465 28.806-122.849 30.813-125.659"/><path d="M202.11 153.461s79.891 35.932 81.648 48.176c0 0 24.891 50.635 0 159.382 0 0 .15 6.223-2.008 10.74 0 0 2.158 6.574-1.605 11.391l-6.574 6.875-3.262 3.915s-6.323 9.133-12.195 7.979c0 0 0-2.76-.702-6.825-2.008-11.04-9.836-31.866-39.796-35.179a65 65 0 0 0-5.57-.401v5.169M252.393 398.355l5.621 3.764"/><path d="M217.666 359.916s-17.313 15.507-35.931 29.609c-17.313 13.097-35.831 25.041-42.656 22.08 0 0-17.213-9.986-27.099-7.025M257.462 395.094s-1.907 1.254-5.119 3.262a499 499 0 0 1-15.205 9.334c-14.554 8.631-33.774 19.32-47.022 23.586 0 0-24.941 8.431-34.024 11.442-2.058.652-3.865 1.706-5.47 3.111-3.513 3.061-10.79 8.581-17.615 8.431M50.004 483.718s46.67 5.721 56.005 3.362c0 0-4.366 66.644-2.51 69.304 0 0-51.99 1.053-61.574-5.922"/><path d="m58.334 428.917-.05.402-1.957 14.051s23.687 36.684 62.729 30.913c0 0 29.207-13.198 32.67-14.001 0 0 87.871-31.214 88.573-33.523"/><path d="M240.249 426.759c8.28 67.848 23.686 283.185 23.686 283.185-6.473 1.907-12.997 3.613-19.722 5.018-27.651 6.022-56.807 8.18-84.358 8.18-39.594 0-75.827-4.466-99.262-8.18-17.063-2.71-27.35-5.018-27.35-5.018-.803-53.144 3.412-110.504 8.531-159.432 2.61-25.042 5.52-47.825 8.13-66.744 4.265-30.763 7.778-51.288 8.33-54.399 0-.201 0-.301.05-.401M240.249 426.758v-.05M237.188 407.691c.853 2.559 1.907 9.284 3.061 19.019"/><path d="m60.643 714.963 2.158 19.873 11.642 106.339s-6.072 8.43 0 15.456c0 0-3.864 13.951-2.71 16.31 0 0 .853.301 2.51.752 8.58 2.459 37.687 9.786 57.861 2.76l1.355-.501v-12.546s5.47-6.374 0-14.553c0 0 8.381-67.045 5.47-106.791-.602-7.477-1.506-14.001-3.011-18.969h33.121l2.258 17.815 13.55 107.443s-7.829 16.861 0 22.432v12.495l4.014 1.506s25.493-6.123 48.728-1.907c.452.05.904.15 1.355.251v-14.302s6.173-4.918 1.255-16.31c0 0 9.033-61.976 6.172-115.07a281 281 0 0 0-2.057-22.483"/><path d="M74.293 873.641s-17.966 26.597-26.045 28.956c0 0-18.267 9.886-20.877 9.585 0 0-15.657 2.308-15.406 19.772l-2.459.954v7.929s18.016 15.406 64.737 0c0 0 6.423-1.707 18.869-12.396 0 0 9.283-7.226 14.151-9.133.703-.251 1.305-.452 1.807-.452v9.184l27.55-8.682v-15.507l-2.057.803v-.15c.15-1.807 1.706-20.726-2.459-28.153"/><path d="M11.965 932.005c10.187 13.199 52.492 3.764 52.492 3.764s13.9-3.312 19.622-9.234c0 0 13.9-9.585 20.223-11.592l1.355-.452 28.956-9.886 2.058-.702M188.861 884.782l-5.219 52.442s4.216 18.367 31.766 14.101c0 0 19.02-1.003 30.612-16.962l-8.431-51.438"/><path d="M183.642 937.225v11.693s7.227 13.349 31.214 11.241c0 0 26.246.602 31.666-17.464l-.452-8.381M62.851 734.834s48.025-4.015 76.128 7.226M170.695 741.107s.251 0 .602-.15c5.57-1.205 47.574-9.886 75.024-3.513.251 0 .502.1.753.151M200.654 81.347s12.998 24.59 8.833 27.049c0 0-4.617 7.226-15.206 3.061 0 0-6.273-4.366-8.732-2.81M131.953 127.265l.051.1c1.104 1.957 19.22 33.573 52.642 35.43"/></g></svg>