<svg preserveAspectRatio="none" width="100%" height="100%" overflow="visible" style="display: block;" viewBox="0 0 134.155 1067.81" fill="none" xmlns="http://www.w3.org/2000/svg">
<g id="Group 77">
<path id="Vector" d="M39.604 904.352L40.674 869.455L41.604 841.081L42.6139 808.706L43.604 775.308L44.6439 742.923L45.6839 710.538L46.6439 682.194L47.6639 649.809L48.6539 618.396L48.7539 575.912L47.2139 558.144C46.5139 550.08 39.664 544.762 32.544 541.906C26.914 539.647 21.0139 538.056 16.4339 533.822C11.8539 529.588 8.97393 522.811 8.52393 516.247L1.77393 419.101L0.61393 382.431C-1.24607 323.263 0.953945 264.823 9.50395 206.222C14.6839 170.697 21.8939 136.64 33.5939 102.948C46.8439 64.7888 71.2139 15.0207 109.624 0.605895C112.114 -0.326054 115.774 -0.174105 118.154 1.00096C120.124 1.97343 122.704 4.982 122.704 8.4768L122.734 558.417L123.214 596.151L124.174 633.591L125.144 672.044L126.164 712.533L127.164 752.009L128.104 788.457L129.154 829.948L130.124 867.399L131.104 902.833L132.164 939.25L133.134 971.645L134.124 1008.11C134.534 1023.34 130.944 1038.18 121.254 1049.96C111.384 1061.95 97.174 1068.87 81.794 1067.68C67.464 1066.56 54.2739 1058.27 45.9639 1045.45C36.8939 1031.46 35.9039 1015.55 36.5039 998.925L37.6339 967.603L38.6339 936.231L39.604 904.332V904.352ZM39.1339 1015.79C40.0539 1029.23 44.734 1040.96 53.074 1050.38C68.864 1068.23 94.9539 1070.25 112.994 1054.71C123.894 1045.32 130.014 1032.22 131.364 1017.82L131.444 999.117L130.544 964.605L129.524 929.181L128.564 890.738L127.564 855.304L126.564 819.859L125.544 782.409L124.544 745.962L123.504 706.496L122.524 664.001L121.504 625.507L120.684 578.981L120.104 561.446L120.084 8.32486C120.084 4.07031 115.954 1.63914 112.464 2.63187C94.8339 7.62589 78.4139 23.9755 67.7239 39.3324C17.1239 111.984 5.11393 236.601 2.27393 324.752V360.328L3.24394 394.85C4.38394 435.623 7.44396 475.423 11.174 515.953C11.734 522.071 14.464 528.858 18.794 532.424C23.124 535.99 28.634 537.621 33.764 539.616C43.494 543.405 50.5639 551.347 50.5339 562.469L50.3139 641.604L49.1439 677.129L48.2139 707.519L47.204 739.874L46.1139 776.513L39.354 991.662L39.1439 1015.78L39.1339 1015.79Z" fill="var(--fill-0, #F8F3E9)"/>
<path id="Vector_2" d="M39.1344 1015.79L39.3444 991.672L46.1044 776.524L47.1944 739.884L48.2044 707.529L49.1344 677.14L50.3044 641.614L50.5244 562.48C50.5544 551.357 43.4844 543.415 33.7544 539.627C28.6244 537.631 23.1444 536.03 18.7844 532.434C14.4244 528.838 11.7244 522.071 11.1644 515.963C7.44443 475.434 4.37444 435.633 3.23444 394.861L2.27441 360.338V324.762C5.10441 236.612 17.1144 111.984 67.7144 39.3426C78.4144 23.9857 94.8344 7.63613 112.454 2.64211C115.944 1.64938 120.074 4.09068 120.074 8.33509L120.094 561.456L120.674 578.991L121.494 625.518L122.514 664.011L123.494 706.506L124.534 745.972L125.534 782.419L126.554 819.869L127.554 855.314L128.554 890.748L129.514 929.191L130.534 964.615L131.434 999.128L131.354 1017.83C129.994 1032.24 123.874 1045.34 112.984 1054.72C94.9544 1070.26 68.8544 1068.24 53.0644 1050.39C44.7244 1040.97 40.0444 1029.24 39.1244 1015.8L39.1344 1015.79Z" fill="var(--fill-0, #2A4385)"/>
</g>
</svg>
