<svg preserveAspectRatio="none" width="100%" height="100%" overflow="visible" style="display: block;" viewBox="0 0 173.347 890.428" fill="none" xmlns="http://www.w3.org/2000/svg">
<g id="Group 76">
<path id="Vector" d="M151.7 7.24717C151.814 2.41272 156.343 -0.118776 159.887 0.00428292C163.928 0.144921 167.562 2.66762 167.667 7.6515L168.075 26.6113L168.8 63.8805L169.582 99.005L170.405 133.259L171.228 169.263L172.05 205.284L172.751 243.915L173.297 261.636C174.144 289.166 164.23 316.924 144.034 334.232C135.993 341.123 128.644 347.223 123.585 357.2C118.526 367.176 114.876 379.236 114.925 391.48L115.023 418.72L115.78 452.087L116.628 484.565L117.467 518.811L118.298 552.186L119.104 584.682L119.919 618.058L120.75 652.321L121.556 685.705L122.363 718.201L123.17 749.827L123.992 782.315L124.791 813.941L125.117 846.34C124.22 860.641 117.874 873.87 107.422 882.229C90.0038 896.144 66.7202 891.775 53.8075 873.457C46.508 863.111 43.3877 850.779 43.7788 837.638L44.6179 809.44L48.5284 689.353L49.4978 659.309L51.7952 585.658L52.7647 553.839L57.3432 413.727C57.6772 403.619 57.9542 394.346 57.1233 384.519C55.331 363.449 45.1067 346.986 29.6359 334.785C14.1651 322.585 5.48871 303.361 1.49677 283.496C-0.890247 271.63 0.209574 260.335 0.55174 248.293L1.38272 218.46L2.21369 189.471L3.02023 162.24L3.8512 134.138L4.65774 106.028L5.45613 77.039L6.31154 45.4393L7.13437 18.1994L7.35434 7.71303C7.4521 2.861 11.2241 0.136134 15.0775 0.0306549C18.5562 -0.066034 23.151 2.31603 23.2488 7.09774L23.8761 37.5284L24.6419 68.2667L25.4321 96.3768L26.2713 125.357L27.0615 151.718L27.9414 180.681L28.7642 207.947L29.4485 237.771C29.4892 239.67 30.1736 244.46 31.7948 244.531L44.1372 245.032C46.1576 245.111 48.1618 242.957 48.2514 240.232L55.8279 10.5522C56.0153 4.953 57.2536 1.05028 62.3454 0.197662C66.0603 -0.426421 71.2987 1.60405 71.4291 6.96589L71.869 24.3611L72.6837 53.359L73.531 86.7167L74.3212 116.585L75.1359 145.574L75.9587 174.563L76.6919 204.422L77.5392 237.042C77.3355 238.888 78.1421 244.337 79.9262 244.416L92.1627 244.97C94.1587 245.058 96.2443 242.896 96.3339 240.276L102.322 58.8175L103.096 34.0124L103.805 7.10653C103.951 1.53373 109.784 -0.514321 113.442 0.180082C119.487 1.32277 119.691 6.40333 119.837 12.1256L120.742 48.0499L121.565 80.555L122.322 112.199L123.096 142.058L123.927 173.675L124.685 202.664L125.589 237.042C125.451 238.852 126.135 244.364 127.919 244.443L140.164 244.944C142.217 245.032 144.131 242.729 144.205 240.593L144.636 228.102L145.492 203.535L146.298 180.69L147.089 157.853L147.944 132.38L148.718 108.665L149.533 82.313L150.331 56.8486L151.138 31.3667L151.708 7.24717H151.7ZM153.859 8.11736L153.207 29.6087L152.303 58.7824L146.355 238.545C146.201 243.151 144.995 247.352 139.789 247.379L130.314 247.431C126.013 247.458 123.756 243.74 123.691 239.591L123.479 225.474L122.713 199.14L121.874 167.531L121.1 138.542L120.277 107.804L119.43 74.4372L118.607 43.6989L117.809 10.3236C117.719 6.4297 116.522 3.25655 113.369 2.52699C110.534 1.87653 106.167 2.98406 106.004 6.92194L105.157 27.8771L104.375 54.238L103.552 80.5813L102.721 106.054L101.939 129.77L101.132 154.364L100.35 178.088L99.5438 202.664L98.6721 226.397L98.3625 240.373C98.2647 244.777 95.0304 247.458 91.1933 247.458H82.2318C77.751 247.449 75.6654 244.091 75.6003 239.573L75.3884 224.604L74.5819 197.408L73.808 171.073L72.9933 142.093L72.146 110.485L71.3639 81.4955L70.5818 51.6186L69.9545 20.8979L69.1398 5.76167C69.0176 3.44113 64.9442 2.24571 63.1764 2.35119C61.604 2.44788 58.1905 4.17949 58.109 6.12206L57.2047 28.8088L56.3575 56.8838L55.6242 79.7111L54.6874 108.779L51.5753 199.957L50.6384 227.285L50.3451 240.399C50.2473 244.706 47.0375 247.598 43.1352 247.502L32.8457 247.229C27.42 247.088 27.6562 241.05 27.534 236.989L26.5482 204.449L25.7336 177.218L24.9189 149.986L24.1286 121.894L23.3384 92.9048L22.5726 64.7771L21.7009 31.4194L21.0491 7.72182C20.9269 3.34445 16.992 1.62163 13.5215 2.47425C10.4909 3.22139 9.20366 6.41212 9.1059 10.3412L8.26678 45.4305L7.46839 73.5582L6.63741 102.547L5.82273 130.64L5.05693 157.001L4.28298 185.999L3.43571 215.858L2.66177 243.063L2.14852 262.594C1.44789 289.087 10.8493 316.256 30.6461 332.781C42.6464 342.793 52.447 353.983 56.5367 370.261C58.7852 379.227 59.8117 388.175 59.5592 397.66L58.7689 427.51L57.9624 450.355L57.1721 475.828L56.3249 503.929L55.5754 528.532L54.7607 554.885L53.9216 582.098L53.115 608.45L52.2841 634.794L51.4694 659.388L50.6465 684.852L49.8726 709.455L49.0335 734.919L48.1943 760.384L47.3878 784.987L46.565 809.572L45.6607 835.88C45.2045 849.162 48.284 862.013 55.6324 872.35C66.9157 888.224 86.9243 893.138 102.876 882.73C116.538 873.826 123.715 857.644 123.357 840.249L122.632 804.307L121.85 771.784L121.051 741.046L120.245 711.187L119.389 676.062L118.624 647.952L117.736 612.836L116.945 580.331L116.139 546.077L115.357 513.572L114.477 477.586L113.605 442.418L112.97 395.884C112.579 367.554 122.062 349.104 142.437 332.465C160.84 317.443 171.146 292.374 170.918 267.841L170.641 237.78L169.875 199.131L169.044 161.369L168.262 127.098L167.423 90.2239L166.608 54.1765L165.891 10.3412C165.818 6.07811 164.197 2.72036 160.678 2.35998C157.541 2.04354 153.981 3.59056 153.842 8.10858L153.859 8.11736Z" fill="var(--fill-0, #F8F3E9)"/>
<path id="Vector_2" d="M153.858 8.1185C153.997 3.60049 157.557 2.05347 160.693 2.36991C164.204 2.73029 165.834 6.07924 165.907 10.3511L166.624 54.1864L167.439 90.2338L168.278 127.107L169.06 161.379L169.891 199.141L170.657 237.79L170.934 267.851C171.162 292.384 160.856 317.444 142.452 332.475C122.077 349.105 112.594 367.555 112.985 395.894L113.621 442.428L114.493 477.596L115.372 513.582L116.155 546.087L116.961 580.341L117.751 612.846L118.639 647.962L119.405 676.072L120.261 711.197L121.067 741.056L121.865 771.794L122.648 804.317L123.373 840.259C123.723 857.654 116.546 873.827 102.892 882.74C86.94 893.148 66.9314 888.234 55.6481 872.359C48.2997 862.023 45.2202 849.172 45.6764 835.89L46.5807 809.582L47.4035 784.997L48.2101 760.394L49.0492 734.929L49.8883 709.465L50.6622 684.862L51.4851 659.398L52.2998 634.804L53.1307 608.46L53.9373 582.108L54.7764 554.894L55.5911 528.542L56.3406 503.939L57.1879 475.838L57.9781 450.365L58.7846 427.52L59.5749 397.669C59.8274 388.185 58.8009 379.237 56.5524 370.271C52.4708 353.992 42.6621 342.803 30.6618 332.791C10.865 316.231 1.4636 289.061 2.16423 262.569L2.67748 243.037L3.45142 215.833L4.29869 185.973L5.07264 156.976L5.83844 130.615L6.65312 102.522L7.4841 73.533L8.28249 45.4053L9.12161 10.316C9.21937 6.38689 10.4984 3.18737 13.5372 2.44902C17.0077 1.59639 20.9426 3.31921 21.0648 7.69659L21.7166 31.3942L22.5883 64.7519L23.3541 92.8795L24.1443 121.869L24.9346 149.961L25.7493 177.192L26.564 204.423L27.5497 236.964C27.6719 241.025 27.4357 247.054 32.8614 247.204L43.1509 247.476C47.0614 247.582 50.2631 244.681 50.3608 240.374L50.6541 227.26L51.591 199.932L54.7031 108.754L55.64 79.6859L56.3732 56.8585L57.2204 28.7836L58.1247 6.09682C58.1981 4.15425 61.6197 2.42264 63.1921 2.32595C64.9681 2.22047 69.0333 3.4159 69.1555 5.73644L69.9702 20.8727L70.5975 51.5934L71.3796 81.4702L72.1617 110.459L73.009 142.068L73.8237 171.048L74.5976 197.383L75.4041 224.579L75.616 239.548C75.6811 244.075 77.7667 247.424 82.2475 247.424H91.209C95.0461 247.432 98.2804 244.752 98.3782 240.348L98.6878 226.372L99.5595 202.639L100.366 178.063L101.148 154.339L101.955 129.744L102.737 106.029L103.568 80.5561L104.391 54.2128L105.173 27.8518L106.02 6.8967C106.183 2.95883 110.55 1.8513 113.385 2.50175C116.537 3.23131 117.735 6.40447 117.825 10.2984L118.623 43.6737L119.446 74.412L120.293 107.778L121.116 138.517L121.89 167.506L122.729 199.114L123.495 225.449L123.707 239.565C123.772 243.714 126.02 247.424 130.33 247.406L139.805 247.353C145.011 247.327 146.216 243.125 146.371 238.519L152.318 58.7571L153.223 29.5834L153.874 8.09213L153.858 8.1185Z" fill="var(--fill-0, #2A4385)"/>
</g>
</svg>
