<svg width="24268" height="875" viewBox="0 0 24268 875" fill="none" xmlns="http://www.w3.org/2000/svg">
<g clip-path="url(#clip0_3610_3670)">
<g clip-path="url(#clip3_3610_3670)">
<path d="M11061.5 566.383H11148.2C11148.8 566.383 11149.3 566.898 11149.3 567.53V573.085C11149.3 573.718 11148.8 574.233 11148.2 574.233H11061.5C11060.9 574.233 11060.4 573.718 11060.4 573.085V567.53C11060.4 566.898 11060.9 566.383 11061.5 566.383Z" fill="#F7F3EA" stroke="#2A4385" stroke-width="2" stroke-linecap="round" stroke-linejoin="round"/>
<path d="M11124.5 545.852H11078.8C11073.1 545.852 11068.4 550.446 11068.4 556.113V556.122C11068.4 561.79 11073.1 566.384 11078.8 566.384H11124.5C11130.3 566.384 11134.9 561.79 11134.9 556.122V556.113C11134.9 550.446 11130.3 545.852 11124.5 545.852Z" fill="#F7F3EA" stroke="#2A4385" stroke-width="2" stroke-linecap="round" stroke-linejoin="round"/>
<path d="M11085.9 546.402L11087.1 553.792L11090.9 546.402" fill="#FF611D"/>
<path d="M11085.9 546.402L11087.1 553.792L11090.9 546.402H11085.9Z" stroke="#2A4385" stroke-width="2" stroke-linecap="round" stroke-linejoin="round"/>
<path d="M11099.9 546.402L11101 553.792L11104.8 546.402" fill="#FF611D"/>
<path d="M11099.9 546.402L11101 553.792L11104.8 546.402H11099.9Z" stroke="#2A4385" stroke-width="2" stroke-linecap="round" stroke-linejoin="round"/>
<path d="M11113.8 546.402L11115 553.792L11118.8 546.402" fill="#FF611D"/>
<path d="M11113.8 546.402L11115 553.792L11118.8 546.402H11113.8Z" stroke="#2A4385" stroke-width="2" stroke-linecap="round" stroke-linejoin="round"/>
</g>
<g clip-path="url(#clip4_3610_3670)">
<path d="M11274.3 545.828C11278.1 545.828 11281.2 542.705 11281.2 538.853C11281.2 535.002 11278.1 531.879 11274.3 531.879C11270.5 531.879 11267.5 535.002 11267.5 538.853C11267.5 542.705 11270.5 545.828 11274.3 545.828Z" fill="#F7F3EA" stroke="#2A4385" stroke-width="2" stroke-linecap="round" stroke-linejoin="round"/>
<path d="M11299 550.283C11303.2 550.283 11306.6 546.861 11306.6 542.639C11306.6 538.418 11303.2 534.996 11299 534.996C11294.9 534.996 11291.5 538.418 11291.5 542.639C11291.5 546.861 11294.9 550.283 11299 550.283Z" fill="#F7F3EA" stroke="#2A4385" stroke-width="2" stroke-linecap="round" stroke-linejoin="round"/>
<path d="M11286.2 544.306C11291.3 544.306 11295.5 540.106 11295.5 534.925C11295.5 529.743 11291.3 525.543 11286.2 525.543C11281.1 525.543 11276.9 529.743 11276.9 534.925C11276.9 540.106 11281.1 544.306 11286.2 544.306Z" fill="#F7F3EA" stroke="#2A4385" stroke-width="2" stroke-linecap="round" stroke-linejoin="round"/>
<path d="M11312.4 548.093C11317.4 548.093 11321.5 543.957 11321.5 538.855C11321.5 533.753 11317.4 529.617 11312.4 529.617C11307.4 529.617 11303.3 533.753 11303.3 538.855C11303.3 543.957 11307.4 548.093 11312.4 548.093Z" fill="#F7F3EA" stroke="#2A4385" stroke-width="2" stroke-linecap="round" stroke-linejoin="round"/>
<path d="M11259.5 542.641H11331.4C11331.4 559.655 11317.8 573.471 11301 573.471H11290C11273.2 573.481 11259.5 559.666 11259.5 542.641Z" fill="#F7F3EA" stroke="#2A4385" stroke-width="2" stroke-linecap="round" stroke-linejoin="round"/>
<path d="M11329.4 551.309L11324.3 562.064H11267L11262.7 551.309H11329.4Z" fill="#2A4385" stroke="#2A4385" stroke-width="2"/>
<circle cx="11284.3" cy="531.973" r="1" fill="#2A4385" stroke="#2A4385" stroke-width="1.18897"/>
<circle cx="11299.9" cy="538.751" r="1" fill="#2A4385" stroke="#2A4385" stroke-width="0.391727"/>
<circle cx="11289.5" cy="536.356" r="1" fill="#2A4385" stroke="#2A4385" stroke-width="1.98621"/>
<circle cx="11272.4" cy="536.755" r="1" fill="#2A4385" stroke="#2A4385" stroke-width="1.18897"/>
<circle cx="11309.8" cy="534.364" r="1" fill="#2A4385" stroke="#2A4385" stroke-width="1.18897"/>
</g>
<path d="M11382 490.594H11375.5V505.679H11382V490.594Z" fill="#F7F3EA" stroke="#2A4385" stroke-width="2" stroke-linecap="round" stroke-linejoin="round"/>
<path d="M11384.6 505.68H11372.9V522.359H11384.6V505.68Z" fill="#F7F3EA" stroke="#2A4385" stroke-width="2" stroke-linecap="round" stroke-linejoin="round"/>
<path d="M11391.7 529.884H11365.8L11373.2 522.359H11384.3L11391.7 529.884Z" fill="#F7F3EA" stroke="#2A4385" stroke-width="2" stroke-linecap="round" stroke-linejoin="round"/>
<path d="M11365.8 529.883H11391.7V572.043C11391.7 573.11 11390.9 573.977 11389.8 573.977H11367.7C11366.6 573.977 11365.8 573.11 11365.8 572.043V529.883Z" fill="#F7F3EA" stroke="#2A4385" stroke-width="2" stroke-linecap="round" stroke-linejoin="round"/>
<rect x="11371.4" y="541.023" width="14.7421" height="22.7145" rx="1.39173" fill="#F7F3EA" stroke="#2A4385" stroke-width="2"/>
<g clip-path="url(#clip5_3610_3670)">
<rect x="10914" y="825" width="91" height="10" fill="#F7F3EA" stroke="#2A4385" stroke-width="2"/>
<path d="M10963.5 699.268C10963.5 696.257 10961 693.816 10958 693.816C10955 693.816 10952.5 696.257 10952.5 699.268V867.719C10952.5 870.729 10955 873.17 10958 873.17C10961 873.17 10963.5 870.729 10963.5 867.719V699.268Z" fill="#F7F3EA" stroke="#2A4385" stroke-width="2" stroke-linecap="round" stroke-linejoin="round"/>
<path d="M10929.6 700.064C10929.9 697.065 10927.6 694.421 10924.6 694.159C10921.6 693.896 10918.9 696.115 10918.7 699.114L10903.9 866.924C10903.6 869.923 10905.8 872.567 10908.9 872.83C10911.9 873.092 10914.5 870.874 10914.8 867.875L10929.6 700.064Z" fill="#F7F3EA" stroke="#2A4385" stroke-width="2" stroke-linecap="round" stroke-linejoin="round"/>
<path d="M10991.4 694.154C10994.4 693.891 10997.1 696.108 10997.3 699.109L11012.1 866.919C11012.4 869.92 11010.2 872.562 11007.1 872.825C11004.1 873.088 11001.5 870.87 11001.2 867.87L10986.4 700.059C10986.1 697.059 10988.4 694.416 10991.4 694.154Z" fill="#F7F3EA" stroke="#2A4385" stroke-width="2" stroke-linecap="round" stroke-linejoin="round"/>
<path d="M11001.2 684.828H10914.7C10912 684.828 10909.8 687.039 10909.8 689.767V694.572C10909.8 697.3 10912 699.511 10914.7 699.511H11001.2C11004 699.511 11006.2 697.3 11006.2 694.572V689.767C11006.2 687.039 11004 684.828 11001.2 684.828Z" fill="#2A4385" stroke="#2A4385" stroke-width="2" stroke-linecap="round" stroke-linejoin="round"/>
</g>
<path d="M11180.6 833.535H11160.3C11159.4 833.535 11158.6 834.333 11158.6 835.316V867.379C11158.6 868.363 11159.4 869.16 11160.3 869.16H11180.6C11181.5 869.16 11182.3 868.363 11182.3 867.379V835.316C11182.3 834.333 11181.5 833.535 11180.6 833.535Z" fill="#F7F3EA" stroke="#2A4385" stroke-width="2" stroke-linecap="round" stroke-linejoin="round"/>
<path d="M11568.3 833.535H11548.1C11547.1 833.535 11546.3 834.333 11546.3 835.316V867.379C11546.3 868.363 11547.1 869.16 11548.1 869.16H11568.3C11569.3 869.16 11570.1 868.363 11570.1 867.379V835.316C11570.1 834.333 11569.3 833.535 11568.3 833.535Z" fill="#F7F3EA" stroke="#2A4385" stroke-width="2" stroke-linecap="round" stroke-linejoin="round"/>
<path d="M11529.8 838.868H11198.3C11186.3 838.868 11176.5 837.894 11176.5 836.688V590.031C11176.5 588.825 11186.3 587.852 11198.3 587.852H11529.8C11541.8 587.852 11551.5 588.825 11551.5 590.031V836.688C11551.5 837.894 11541.8 838.868 11529.8 838.868Z" fill="#F7F3EA" stroke="#2A4385" stroke-width="1.5" stroke-linecap="round" stroke-linejoin="round"/>
<path d="M11171.6 596.437V823.743C11171.6 824.949 11172.5 825.923 11173.6 825.923H11178C11179.2 825.923 11180.1 824.949 11180.1 823.743V710.613C11180.1 709.407 11181 708.434 11182.1 708.434H11330C11331.1 708.434 11332.1 709.407 11332.1 710.613V823.743C11332.1 824.949 11333 825.923 11334.1 825.923H11558.2C11559.3 825.923 11560.2 824.949 11560.2 823.743V596.437C11560.2 595.231 11559.3 594.258 11558.2 594.258H11173.6C11172.5 594.258 11171.6 595.231 11171.6 596.437ZM11330 694.705H11182.1C11181 694.705 11180.1 693.732 11180.1 692.526V607.871C11180.1 606.665 11181 605.691 11182.1 605.691H11330C11331.1 605.691 11332.1 606.665 11332.1 607.871V692.526C11332.1 693.732 11331.1 694.705 11330 694.705ZM11550.5 694.705H11346.5C11345.3 694.705 11344.4 693.732 11344.4 692.526V607.871C11344.4 606.665 11345.3 605.691 11346.5 605.691H11550.5C11551.7 605.691 11552.6 606.665 11552.6 607.871V692.526C11552.6 693.732 11551.7 694.705 11550.5 694.705Z" fill="#F7F3EA" stroke="#2A4385" stroke-width="2" stroke-linecap="round" stroke-linejoin="round"/>
<path d="M11564.2 823.613H11167.6C11166.5 823.613 11165.5 824.589 11165.5 825.792V836.689C11165.5 837.892 11166.5 838.868 11167.6 838.868H11564.2C11565.3 838.868 11566.2 837.892 11566.2 836.689V825.792C11566.2 824.589 11565.3 823.613 11564.2 823.613Z" fill="#F7F3EA" stroke="#2A4385" stroke-width="2" stroke-linecap="round" stroke-linejoin="round"/>
<path d="M11578.7 838.869H11541.7C11540.6 838.869 11539.7 837.895 11539.7 836.69V722.237C11539.7 721.787 11539.8 721.366 11540 721.002L11544.9 713.491C11545.2 713.128 11545.3 712.692 11545.3 712.257L11545.6 593.533C11545.6 590.41 11547.9 587.867 11550.9 587.867H11578.7C11579.8 587.867 11580.7 588.841 11580.7 590.046V836.704C11580.7 837.91 11579.8 838.883 11578.7 838.883L11578.7 838.869Z" fill="#F7F3EA" stroke="#2A4385" stroke-width="2" stroke-linecap="round" stroke-linejoin="round"/>
<path d="M11187.1 838.868H11156C11154.9 838.868 11153.9 837.894 11153.9 836.688V590.031C11153.9 588.825 11154.9 587.852 11156 587.852H11187.1C11188.2 587.852 11189.1 588.825 11189.1 590.031V836.688C11189.1 837.894 11188.2 838.868 11187.1 838.868Z" fill="#F7F3EA" stroke="#2A4385" stroke-width="2" stroke-linecap="round" stroke-linejoin="round"/>
<path d="M11604.9 571H11008C11006.9 571 11006 571.976 11006 573.179V592.08C11006 593.284 11006.9 594.259 11008 594.259H11604.9C11606 594.259 11607 593.284 11607 592.08V573.179C11607 571.976 11606 571 11604.9 571Z" fill="#F7F3EA" stroke="#2A4385" stroke-width="2" stroke-linecap="round" stroke-linejoin="round"/>
<path d="M11526.3 719.535H11346.1C11345 719.535 11344.1 720.511 11344.1 721.714V810.161C11344.1 811.365 11345 812.341 11346.1 812.341H11526.3C11527.5 812.341 11528.4 811.365 11528.4 810.161V721.714C11528.4 720.511 11527.5 719.535 11526.3 719.535Z" fill="#F7F3EA" stroke="#2A4385" stroke-width="1.5" stroke-linecap="round" stroke-linejoin="round"/>
<path d="M11407.1 736.245V743.93C11407.1 745.134 11408 746.109 11409.2 746.109H11463.4C11464.5 746.109 11465.4 745.134 11465.4 743.93V736.245C11465.4 735.041 11464.5 734.066 11463.4 734.066H11409.2C11408 734.066 11407.1 735.041 11407.1 736.245Z" fill="#2A4385" stroke="#2A4385" stroke-width="2" stroke-linecap="round" stroke-linejoin="round"/>
<path d="M11449.9 652.753H11390.5C11389.6 652.753 11388.8 652.283 11388.3 651.512L11383.6 644.321C11382.5 642.53 11383.8 640.164 11385.9 640.164H11454.6C11456.7 640.164 11458 642.53 11456.9 644.321L11452.2 651.512C11451.7 652.283 11450.9 652.753 11449.9 652.753Z" fill="#F7F3EA" stroke="#2A4385" stroke-width="2" stroke-linecap="round" stroke-linejoin="round"/>
<path d="M11449.9 663.722H11390.5C11389.6 663.722 11388.8 663.252 11388.3 662.48L11383.6 655.29C11382.5 653.499 11383.8 651.133 11385.9 651.133H11454.6C11456.7 651.133 11458 653.499 11456.8 655.29L11452.2 662.48C11451.7 663.252 11450.9 663.722 11449.9 663.722H11449.9Z" fill="#2A4385" stroke="#2A4385" stroke-width="2" stroke-linecap="round" stroke-linejoin="round"/>
<path d="M11449.9 673.082H11390.5C11389.6 673.082 11388.8 672.611 11388.3 671.84L11383.6 664.649C11382.5 662.858 11383.8 660.492 11385.9 660.492H11454.6C11456.7 660.492 11458 662.858 11456.8 664.649L11452.2 671.84C11451.7 672.611 11450.9 673.082 11449.9 673.082H11449.9Z" fill="#F7F3EA" stroke="#2A4385" stroke-width="2" stroke-linecap="round" stroke-linejoin="round"/>
<path d="M11449.9 682.964H11390.5C11389.6 682.964 11388.8 682.494 11388.3 681.722L11383.6 674.532C11382.5 672.741 11383.8 670.375 11385.9 670.375H11454.6C11456.7 670.375 11458 672.741 11456.8 674.532L11452.2 681.722C11451.7 682.494 11450.9 682.964 11449.9 682.964H11449.9Z" fill="#2A4385" stroke="#2A4385" stroke-width="2" stroke-linecap="round" stroke-linejoin="round"/>
<path d="M11449.9 693.398H11390.5C11389.6 693.398 11388.8 692.927 11388.3 692.156L11383.6 684.966C11382.5 683.175 11383.8 680.809 11385.9 680.809H11454.6C11456.7 680.809 11458 683.175 11456.8 684.966L11452.2 692.156C11451.7 692.927 11450.9 693.398 11449.9 693.398H11449.9Z" fill="#F7F3EA" stroke="#2A4385" stroke-width="2" stroke-linecap="round" stroke-linejoin="round"/>
<g clip-path="url(#clip6_3610_3670)">
<rect x="11041" y="825" width="91" height="10" fill="#F7F3EA" stroke="#2A4385" stroke-width="2"/>
<path d="M11092.5 699.268C11092.5 696.257 11090 693.816 11087 693.816C11084 693.816 11081.5 696.257 11081.5 699.268V867.719C11081.5 870.729 11084 873.17 11087 873.17C11090 873.17 11092.5 870.729 11092.5 867.719V699.268Z" fill="#F7F3EA" stroke="#2A4385" stroke-width="2" stroke-linecap="round" stroke-linejoin="round"/>
<path d="M11058.6 700.068C11058.9 697.069 11056.6 694.425 11053.6 694.163C11050.6 693.9 11047.9 696.119 11047.7 699.118L11032.9 866.928C11032.6 869.927 11034.8 872.571 11037.9 872.834C11040.9 873.096 11043.5 870.878 11043.8 867.878L11058.6 700.068Z" fill="#F7F3EA" stroke="#2A4385" stroke-width="2" stroke-linecap="round" stroke-linejoin="round"/>
<path d="M11120.4 694.154C11123.4 693.891 11126.1 696.108 11126.3 699.109L11141.1 866.919C11141.4 869.92 11139.2 872.562 11136.1 872.825C11133.1 873.088 11130.5 870.87 11130.2 867.87L11115.4 700.059C11115.1 697.059 11117.4 694.416 11120.4 694.154Z" fill="#F7F3EA" stroke="#2A4385" stroke-width="2" stroke-linecap="round" stroke-linejoin="round"/>
<path d="M11130.2 684.828H11043.7C11041 684.828 11038.8 687.039 11038.8 689.767V694.572C11038.8 697.3 11041 699.511 11043.7 699.511H11130.2C11133 699.511 11135.2 697.3 11135.2 694.572V689.767C11135.2 687.039 11133 684.828 11130.2 684.828Z" fill="#2A4385" stroke="#2A4385" stroke-width="2" stroke-linecap="round" stroke-linejoin="round"/>
</g>
<path d="M11545.7 532H11522.3C11521.6 532 11521 532.464 11521 533.037V540.963C11521 541.536 11521.6 542 11522.3 542H11545.7C11546.4 542 11547 541.536 11547 540.963V533.037C11547 532.464 11546.4 532 11545.7 532Z" fill="#F7F3EA" stroke="#2A4385" stroke-width="2" stroke-linecap="round" stroke-linejoin="round"/>
<path d="M11549.8 541.117H11517.7C11516.8 541.117 11516 541.895 11516 542.854V569.348C11516 570.308 11516.8 571.086 11517.7 571.086H11549.8C11550.8 571.086 11551.6 570.308 11551.6 569.348V542.854C11551.6 541.895 11550.8 541.117 11549.8 541.117Z" fill="#F7F3EA" stroke="#2A4385" stroke-width="2" stroke-linecap="round" stroke-linejoin="round"/>
<path d="M11546.8 550.652H11520.8V562.29H11546.8V550.652Z" fill="#2A4385" stroke="#2A4385" stroke-width="2" stroke-linecap="round" stroke-linejoin="round"/>
<path d="M11497.6 508.598H11460C11458.9 508.598 11458 509.339 11458 510.253V522.908C11458 523.822 11458.9 524.564 11460 524.564H11497.6C11498.7 524.564 11499.7 523.822 11499.7 522.908V510.253C11499.7 509.339 11498.7 508.598 11497.6 508.598Z" fill="#F7F3EA" stroke="#2A4385" stroke-width="2" stroke-linecap="round" stroke-linejoin="round"/>
<path d="M11504.2 523.152H11452.8C11451.2 523.152 11450 524.394 11450 525.926V568.226C11450 569.758 11451.2 570.999 11452.8 570.999H11504.2C11505.8 570.999 11507 569.758 11507 568.226V525.926C11507 524.394 11505.8 523.152 11504.2 523.152Z" fill="#F7F3EA" stroke="#2A4385" stroke-width="2" stroke-linecap="round" stroke-linejoin="round"/>
<path d="M11499.3 538.379H11457.7V556.96H11499.3V538.379Z" fill="#2A4385" stroke="#2A4385" stroke-width="2" stroke-linecap="round" stroke-linejoin="round"/>
</g>
<defs>
<clipPath id="clip0_3610_3670">
<rect width="24268" height="875" fill="white"/>
</clipPath>
<clipPath id="clip1_3610_3670">
<rect width="168" height="182" fill="white" transform="translate(5489 408)"/>
</clipPath>
<clipPath id="clip2_3610_3670">
<rect width="255" height="128" fill="white" transform="translate(9349 651)"/>
</clipPath>
<clipPath id="clip3_3610_3670">
<rect width="91.6829" height="31.0924" fill="white" transform="translate(11059 544.496)"/>
</clipPath>
<clipPath id="clip4_3610_3670">
<rect width="74.9408" height="51.0235" fill="white" transform="translate(11258 524)"/>
</clipPath>
<clipPath id="clip5_3610_3670">
<rect width="112" height="192" fill="white" transform="translate(10902 683)"/>
</clipPath>
<clipPath id="clip6_3610_3670">
<rect width="112" height="192" fill="white" transform="translate(11031 683)"/>
</clipPath>
</defs>
</svg>
