<svg width="5929" height="1022" viewBox="0 0 5929 1022" fill="none" xmlns="http://www.w3.org/2000/svg">
<g clip-path="url(#clip0_3259_539)">
<path d="M861.408 816.544C870.208 818.671 887.792 818.343 896.686 816.122C905.015 814.026 904.796 811.383 904.154 804.172L888.794 719.228C887.823 713.676 885.835 711.142 881.654 711.173L874.592 711.236C869.989 711.283 868.533 714.02 867.609 719.416L853.767 804.61C853.251 811.836 853.079 814.527 861.408 816.544Z" fill="#F7F3EA" stroke="#2A4385" stroke-width="2" stroke-linecap="round" stroke-linejoin="round"/>
<path d="M864.994 735.956C873.827 738.666 882.661 738.666 891.478 735.956Z" fill="#F7F3EA"/>
<path d="M864.994 735.956C873.827 738.666 882.661 738.666 891.478 735.956" stroke="#2A4385" stroke-width="2" stroke-linecap="round" stroke-linejoin="round"/>
<path d="M860.41 766.951C872.634 771.016 884.857 771.016 897.081 766.951Z" fill="#F7F3EA"/>
<path d="M860.41 766.951C872.634 771.016 884.857 771.016 897.081 766.951" stroke="#2A4385" stroke-width="2" stroke-linecap="round" stroke-linejoin="round"/>
<path d="M855.826 792.866C871.1 800.318 886.39 800.318 901.665 792.866Z" fill="#F7F3EA"/>
<path d="M855.826 792.866C871.1 800.318 886.39 800.318 901.665 792.866" stroke="#2A4385" stroke-width="2" stroke-linecap="round" stroke-linejoin="round"/>
<path d="M918.826 825.099L918.779 815.011L839.19 815.559L839.237 825.24C839.237 825.24 839.206 825.397 839.206 825.475C839.206 830.089 857.024 833.827 879.008 833.827C900.991 833.827 918.81 830.089 918.81 825.475C918.81 825.35 918.794 825.24 918.763 825.115H918.841L918.826 825.099Z" fill="#2A4385" stroke="#2A4385" stroke-width="2" stroke-linecap="round" stroke-linejoin="round"/>
<path d="M839.19 816.059C839.19 820.798 857.557 825.131 879.54 825.131C901.524 825.131 918.779 820.798 918.779 816.059C918.779 811.32 900.96 807.488 878.977 807.488C856.993 807.488 839.19 811.32 839.19 816.059Z" fill="#2A4385" stroke="#2A4385" stroke-width="2" stroke-linecap="round" stroke-linejoin="round"/>
<path d="M855.062 795.661C855.062 795.661 853.378 806.119 853.534 808.872C853.628 810.467 904.211 809.126 904.211 809.126C904.336 803.934 901.919 793.12 901.919 793.12C901.919 793.12 879.509 805.061 855.826 793.12L855.062 795.661Z" fill="#2A4385"/>
<path d="M864.994 736.209L859.901 766.697C871.315 771.17 886.246 770.826 897.081 766.697L891.478 736.209C891.478 736.209 879.18 739.838 864.994 736.209Z" fill="#2A4385"/>
</g>
<path d="M5122.94 964.866H5091.3C5089.76 964.866 5088.51 966.116 5088.51 967.658V1017.92C5088.51 1019.46 5089.76 1020.71 5091.3 1020.71H5122.94C5124.48 1020.71 5125.73 1019.46 5125.73 1017.92V967.658C5125.73 966.116 5124.48 964.866 5122.94 964.866Z" fill="#F7F3EA" stroke="#2A4385" stroke-width="2" stroke-linecap="round" stroke-linejoin="round"/>
<path d="M5893.56 964.865H5861.92C5860.38 964.865 5859.13 966.115 5859.13 967.657V1017.92C5859.13 1019.46 5860.38 1020.71 5861.92 1020.71H5893.56C5895.11 1020.71 5896.36 1019.46 5896.36 1017.92V967.657C5896.36 966.115 5895.11 964.865 5893.56 964.865Z" fill="#F7F3EA" stroke="#2A4385" stroke-width="2" stroke-linecap="round" stroke-linejoin="round"/>
<path d="M5693.46 679.763V691.81C5693.46 693.697 5694.89 695.226 5696.66 695.226H5781.54C5783.3 695.226 5784.73 693.697 5784.73 691.81V679.763C5784.73 677.877 5783.3 676.347 5781.54 676.347H5696.66C5694.89 676.347 5693.46 677.877 5693.46 679.763Z" fill="#2A4385" stroke="#2A4385" stroke-width="1.5" stroke-linecap="round" stroke-linejoin="round"/>
<path d="M5862.35 618.578H5126.13V970.45H5862.35V618.578Z" fill="#F7F3EA" stroke="#2A4385" stroke-width="2" stroke-miterlimit="10"/>
<path d="M5862.35 950.898H5114.88C5113.34 950.898 5112.09 952.152 5112.09 953.699V967.648C5112.09 969.195 5113.34 970.45 5114.88 970.45H5862.35C5863.9 970.45 5865.15 969.195 5865.15 967.648V953.699C5865.15 952.152 5863.9 950.898 5862.35 950.898Z" fill="#F7F3EA" stroke="#2A4385" stroke-width="2" stroke-miterlimit="10"/>
<path d="M5925.2 587H5057.8C5056.25 587 5055 588.254 5055 589.801V615.776C5055 617.323 5056.25 618.578 5057.8 618.578H5925.2C5926.75 618.578 5928 617.323 5928 615.776V589.801C5928 588.254 5926.75 587 5925.2 587Z" fill="#F7F3EA" stroke="#2A4385" stroke-width="2" stroke-miterlimit="10"/>
<path d="M5132.38 618.578H5091.78C5090.23 618.578 5088.98 619.832 5088.98 621.379V967.649C5088.98 969.196 5090.23 970.45 5091.78 970.45H5132.38C5133.92 970.45 5135.18 969.196 5135.18 967.649V621.379C5135.18 619.832 5133.92 618.578 5132.38 618.578Z" fill="#F7F3EA" stroke="#2A4385" stroke-width="2" stroke-miterlimit="10"/>
<path d="M5847.34 618.578H5137.97C5136.43 618.578 5135.18 619.832 5135.18 621.379V630.716C5135.18 632.263 5136.43 633.517 5137.97 633.517H5847.34C5848.88 633.517 5850.14 632.263 5850.14 630.716V621.379C5850.14 619.832 5848.88 618.578 5847.34 618.578Z" fill="#F7F3EA" stroke="#2A4385" stroke-width="2" stroke-miterlimit="10"/>
<path d="M5617.83 618.578H5577.23C5575.69 618.578 5574.44 619.832 5574.44 621.379V967.649C5574.44 969.196 5575.69 970.45 5577.23 970.45H5617.83C5619.38 970.45 5620.63 969.196 5620.63 967.649V621.379C5620.63 619.832 5619.38 618.578 5617.83 618.578Z" fill="#F7F3EA" stroke="#2A4385" stroke-width="2" stroke-miterlimit="10"/>
<path d="M5893.54 618.644H5852.64C5851.08 618.644 5849.82 619.898 5849.82 621.445V967.649C5849.82 969.196 5851.08 970.45 5852.64 970.45H5893.54C5895.09 970.45 5896.36 969.196 5896.36 967.649V621.445C5896.36 619.898 5895.09 618.644 5893.54 618.644Z" fill="#F7F3EA" stroke="#2A4385" stroke-width="2" stroke-miterlimit="10"/>
<path d="M5827.48 588.861C5827.48 588.861 5845.74 618.42 5884.57 597.591C5884.57 597.591 5911.73 605.577 5918.95 588.861H5827.48Z" fill="#2A4385" stroke="#2A4385" stroke-width="2" stroke-miterlimit="10"/>
<path d="M5118.29 587.629C5118.29 587.629 5145.4 720.4 5203.1 626.829C5203.1 626.829 5243.46 662.671 5254.17 587.629H5118.29Z" fill="#F7F3EA" stroke="#2A4385" stroke-width="2" stroke-miterlimit="10"/>
<path d="M5050.77 628.412C5050.77 628.412 5027.39 551.68 5101.22 537.708C5101.22 537.708 5142.68 527.863 5163.89 575.618C5164.67 577.387 5166.01 578.841 5167.7 579.786C5170.31 581.243 5173.6 584.421 5170.09 590.414C5164.81 599.453 5110.18 653.363 5051.28 628.881L5050.77 628.412Z" fill="#F7F3EA" stroke="#2A4385" stroke-width="2" stroke-miterlimit="10"/>
<path d="M5049.42 629.516C5049.42 629.516 5024.62 656.24 5050.14 660.525C5068.07 663.536 5086.03 660.194 5095.13 657.942C5099.14 656.948 5102.97 655.378 5106.53 653.262C5111.76 650.138 5113.61 649.351 5122.99 640.051C5129.82 633.28 5138.55 617.868 5138.55 617.868C5123.37 626.987 5109.95 631.018 5100.93 632.979C5097.62 633.699 5092.78 634.727 5086.37 635.141C5070.4 636.169 5057.45 632.539 5049.42 629.527L5049.42 629.516Z" fill="#F7F3EA" stroke="#2A4385" stroke-width="2" stroke-miterlimit="10"/>
<path d="M5092.87 616.514C5092.87 616.514 5079.57 556.416 5125.19 538.924" stroke="#2A4385" stroke-width="2" stroke-miterlimit="10" stroke-linecap="round"/>
<path d="M5070.39 616.942C5070.39 616.942 5058.48 556.93 5109.72 537.154" stroke="#2A4385" stroke-width="2" stroke-miterlimit="10" stroke-linecap="round"/>
<path d="M4834.15 859.391C4834.13 859.398 4834.12 859.404 4834.1 859.414C4833.22 859.772 4832.63 858.499 4833.48 858.082C4833.72 857.968 4833.95 857.856 4834.19 857.746L4859.15 846.234C4859.5 846.073 4859.92 846.207 4860.11 846.54L4860.65 847.496C4860.86 847.874 4860.7 848.355 4860.3 848.526L4848.32 853.567L4839.45 857.237L4834.15 859.389L4834.15 859.391Z" fill="#2A4385"/>
<path d="M4861.83 849.411C4859.65 847.311 4858.84 843.165 4860.1 842.419C4861.69 841.481 4864.84 845.568 4864.26 848.781C4864.17 849.296 4863.89 849.935 4863.35 850.046C4862.85 850.151 4862.23 849.797 4861.83 849.407L4861.83 849.411Z" fill="#F7F3EA" stroke="#2A4385" stroke-width="2" stroke-miterlimit="10"/>
<path d="M4859.15 846.234L4859.84 845.936" stroke="#2A4385" stroke-width="1.5" stroke-miterlimit="10"/>
<path d="M4739.21 859.18C4739.22 859.188 4739.23 859.195 4739.25 859.205C4739.87 859.609 4740.51 858.712 4739.92 858.267C4739.75 858.144 4739.59 858.024 4739.42 857.904L4721.83 845.391C4721.58 845.216 4721.24 845.259 4721.04 845.488L4720.49 846.147C4720.27 846.408 4720.32 846.803 4720.61 846.994L4729.12 852.624L4735.43 856.747L4739.21 859.178L4739.21 859.18Z" fill="#2A4385"/>
<path d="M4719.3 847.454C4721.29 846.15 4722.51 843.067 4721.65 842.308C4720.56 841.354 4717.54 844.05 4717.51 846.613C4717.51 847.025 4717.63 847.559 4718.03 847.723C4718.4 847.877 4718.93 847.693 4719.3 847.451L4719.3 847.454Z" fill="#F7F3EA" stroke="#2A4385" stroke-width="2" stroke-miterlimit="10"/>
<path d="M4721.83 845.391L4721.34 845.061" stroke="#2A4385" stroke-width="1.5" stroke-miterlimit="10"/>
<g clip-path="url(#clip1_3259_539)">
<path d="M5526.49 542.672L5537.48 541.333L5525.71 444.525L5514.73 445.865L5526.49 542.672Z" fill="#F7F3EA" stroke="#2A4385" stroke-width="2" stroke-miterlimit="10"/>
<path d="M5525.67 444.627L5514.88 445.938C5514.54 445.984 5514.21 445.8 5514.05 445.501C5513.75 444.972 5513.32 444.305 5512.7 443.684C5511.3 442.257 5509.99 441.981 5508.54 441.13C5507.46 440.486 5506.02 439.313 5504.68 437.081C5504.68 437.058 5504.66 437.012 5504.64 436.989C5504.04 435.678 5502.73 432.342 5503.42 428.132C5503.79 425.808 5504.66 423.968 5505.44 422.679C5505.81 422.081 5506.68 422.173 5506.93 422.817C5508.17 426.153 5509.39 429.466 5510.63 432.802C5510.75 433.101 5511 433.308 5511.32 433.331C5512.86 433.469 5515.61 433.492 5518.6 432.158C5520.83 431.168 5522.37 429.834 5523.31 428.845C5523.51 428.615 5523.58 428.293 5523.49 427.994C5522.18 424.29 5520.9 420.586 5519.59 416.882C5519.38 416.307 5519.84 415.708 5520.44 415.777C5520.83 415.823 5521.26 415.892 5521.75 416.03C5522.73 416.33 5523.47 416.767 5523.93 417.112C5525.35 418.032 5527.21 419.435 5529.03 421.529C5530.54 423.277 5531.55 424.98 5532.26 426.337C5532.29 426.383 5532.31 426.429 5532.31 426.475C5532.63 427.533 5533.09 429.627 5532.61 432.181C5532.17 434.343 5531.23 435.908 5530.63 436.782C5530.61 436.828 5530.56 436.851 5530.54 436.897C5529.76 437.633 5528.75 438.76 5527.88 440.325C5527.1 441.705 5526.66 442.97 5526.41 443.983C5526.32 444.305 5526.04 444.558 5525.7 444.604L5525.67 444.627Z" fill="#F7F3EA" stroke="#2A4385" stroke-width="2" stroke-miterlimit="10"/>
<path d="M5537.31 540.723L5526.48 542.034C5526.34 542.034 5526.25 542.195 5526.27 542.31C5526.38 542.77 5526.48 543.414 5526.45 544.174C5526.36 547.049 5524.8 548.131 5524.48 551.075C5524.27 552.847 5524.68 554.227 5524.75 554.48C5525.72 557.655 5528.36 559.22 5528.84 559.496C5531 560.715 5533.11 560.715 5534.26 560.577C5535.16 560.485 5537.48 560.094 5539.52 558.184C5540.07 557.655 5542.05 555.7 5542.32 552.594C5542.48 550.937 5542.16 549.787 5541.88 549.074C5540.9 546.474 5538.85 545.807 5537.93 543.023C5537.66 542.172 5537.59 541.436 5537.57 540.907C5537.57 540.769 5537.43 540.677 5537.29 540.677L5537.31 540.723Z" fill="#F7F3EA" stroke="#2A4385" stroke-width="2" stroke-miterlimit="10"/>
<path d="M5640.06 410.074L5633.19 408.047C5629.31 417.986 5628.43 423.07 5628.43 425.877C5628.43 426.521 5628.46 428.96 5628.04 432.319C5627.77 434.527 5627.4 436.322 5627.15 437.426L5611.3 496.781L5615.51 497.909L5631.42 438.323C5631.74 437.242 5632.29 435.631 5633.07 433.722C5634.38 430.57 5635.68 428.283 5636 427.731C5637.4 425.292 5640.06 410.074 5640.06 410.074Z" fill="#F7F3EA" stroke="#2A4385" stroke-width="2" stroke-miterlimit="10"/>
<path d="M5620.05 499.317L5606.63 495.719C5606.01 495.551 5605.37 495.923 5605.2 496.549L5604.64 498.638C5604.47 499.264 5604.85 499.907 5605.47 500.075L5618.89 503.672C5619.52 503.84 5620.16 503.468 5620.32 502.842L5620.88 500.753C5621.05 500.127 5620.68 499.484 5620.05 499.317Z" fill="#F7F3EA" stroke="#2A4385" stroke-width="2" stroke-miterlimit="10"/>
<path d="M5618.11 502.881L5606.54 499.777C5603.89 499.067 5601.17 500.641 5600.46 503.293L5588.04 549.808C5587.33 552.459 5588.9 555.183 5591.55 555.893L5603.13 558.997C5605.77 559.706 5608.49 558.132 5609.2 555.481L5621.62 508.966C5622.33 506.314 5620.76 503.59 5618.11 502.881Z" fill="#F7F3EA" stroke="#2A4385" stroke-width="2" stroke-miterlimit="10"/>
<path d="M5640.37 480.079H5504.89V489.212H5640.37V480.079Z" fill="#F7F3EA" stroke="#2A4385" stroke-width="2" stroke-miterlimit="10"/>
<path d="M5556.56 463.208L5564.97 464.265L5558.69 514.348C5558.53 515.649 5557.35 516.59 5556.03 516.424L5552.36 515.963C5551.06 515.8 5550.12 514.615 5550.29 513.291L5556.56 463.208Z" fill="#F7F3EA" stroke="#2A4385" stroke-width="2" stroke-miterlimit="10"/>
<path d="M5565.56 464.142L5555.99 462.94C5555.68 462.902 5555.41 463.116 5555.37 463.419L5555.37 463.442C5555.33 463.744 5555.54 464.02 5555.85 464.058L5565.42 465.261C5565.72 465.299 5565.99 465.084 5566.03 464.782L5566.03 464.759C5566.07 464.456 5565.86 464.18 5565.56 464.142Z" fill="#2A4385" stroke="#2A4385" stroke-width="2" stroke-miterlimit="10"/>
<path d="M5529.03 459.489C5530.75 456.406 5533.89 451.851 5539.29 448.377C5546.64 443.638 5554.03 443.04 5557.8 443.523L5568.68 444.88C5568.84 445.248 5570.45 449.021 5574.54 449.964C5578.05 450.77 5580.76 448.883 5581.2 448.584L5579.52 461.95C5577.36 459.673 5574.26 458.753 5571.48 459.581C5568.84 460.363 5567.44 462.457 5567.08 463.078L5554.58 461.513C5553.8 459.949 5552.86 458.845 5551.97 458.085C5546.96 453.76 5537.94 454.566 5529.05 459.535L5529.03 459.489Z" fill="#F7F3EA" stroke="#2A4385" stroke-width="2" stroke-miterlimit="10"/>
<path d="M5588.95 447.653L5588.76 447.62C5589.88 447.761 5590.68 448.788 5590.54 449.907L5588.95 462.576C5588.81 463.694 5587.78 464.493 5586.67 464.353L5579.74 463.482L5581.84 446.727L5588.95 447.653Z" fill="#F7F3EA" stroke="#2A4385" stroke-width="2" stroke-miterlimit="10"/>
<path d="M5559.99 512.097L5549.74 510.809C5548.43 510.644 5547.24 511.574 5547.07 512.885L5541.15 560.182C5540.99 561.494 5541.92 562.69 5543.22 562.854L5553.48 564.143C5554.79 564.307 5555.98 563.378 5556.14 562.067L5562.07 514.769C5562.23 513.458 5561.3 512.262 5559.99 512.097Z" fill="#F7F3EA" stroke="#2A4385" stroke-width="2" stroke-miterlimit="10"/>
<path d="M5592.39 489.852L5583.97 489.146L5577.78 563.312L5586.2 564.017L5592.39 489.852Z" fill="#F7F3EA" stroke="#2A4385" stroke-width="2" stroke-miterlimit="10"/>
<path d="M5584.03 489.232L5592.3 489.922C5592.55 489.922 5592.81 489.807 5592.92 489.577C5593.13 489.163 5593.45 488.657 5593.91 488.15C5594.94 487.023 5595.93 486.77 5597.01 486.08C5597.81 485.551 5598.89 484.63 5599.83 482.882C5599.83 482.859 5599.86 482.836 5599.86 482.813C5600.27 481.801 5601.17 479.224 5600.52 476.026C5600.18 474.255 5599.47 472.897 5598.82 471.931C5598.52 471.494 5597.86 471.563 5597.7 472.092C5596.85 474.669 5596 477.246 5595.17 479.822C5595.1 480.052 5594.9 480.213 5594.67 480.259C5593.5 480.42 5591.41 480.489 5589.09 479.569C5587.36 478.879 5586.15 477.913 5585.41 477.177C5585.25 477.016 5585.18 476.762 5585.25 476.532C5586.12 473.68 5587.02 470.804 5587.89 467.951C5588.03 467.514 5587.66 467.077 5587.2 467.123C5586.9 467.169 5586.58 467.238 5586.22 467.353C5585.46 467.606 5584.93 467.974 5584.59 468.227C5583.53 468.963 5582.15 470.091 5580.82 471.747C5579.72 473.128 5578.98 474.439 5578.5 475.497C5578.5 475.543 5578.48 475.566 5578.45 475.612C5578.25 476.44 5577.95 478.051 5578.41 479.983C5578.8 481.617 5579.56 482.79 5580.06 483.434C5580.08 483.457 5580.11 483.48 5580.13 483.526C5580.75 484.078 5581.55 484.907 5582.27 486.057C5582.91 487.069 5583.27 487.932 5583.51 488.818C5583.58 489.071 5583.8 489.255 5584.06 489.255L5584.03 489.232Z" fill="#F7F3EA" stroke="#2A4385" stroke-width="2" stroke-miterlimit="10"/>
<path d="M5577.9 562.851L5586.19 563.541C5586.19 563.541 5586.38 563.656 5586.35 563.748C5586.28 564.093 5586.22 564.599 5586.26 565.174C5586.4 567.36 5587.64 568.142 5587.96 570.397C5588.17 571.754 5587.89 572.812 5587.85 572.996C5587.2 575.458 5585.23 576.723 5584.88 576.93C5583.28 577.92 5581.67 577.966 5580.77 577.92C5580.11 577.874 5578.32 577.644 5576.71 576.24C5576.27 575.849 5574.71 574.423 5574.41 572.076C5574.25 570.834 5574.46 569.937 5574.64 569.361C5575.33 567.36 5576.87 566.785 5577.49 564.622C5577.67 563.978 5577.72 563.403 5577.72 562.989C5577.72 562.874 5577.81 562.805 5577.93 562.805L5577.9 562.851Z" fill="#F7F3EA" stroke="#2A4385" stroke-width="2" stroke-miterlimit="10"/>
<path d="M5655.28 519.442L5646.14 467.587C5645.98 466.713 5645.1 466.068 5644.09 466.068H5635.55C5634.4 466.068 5633.49 466.874 5633.49 467.863V517.671C5633.49 518.66 5632.57 519.465 5631.42 519.465H5514.58C5513.43 519.465 5512.51 518.66 5512.51 517.671V467.863C5512.51 466.874 5511.6 466.068 5510.45 466.068H5501.91C5500.87 466.068 5500 466.713 5499.86 467.587L5490.72 519.442V579.58C5490.72 583.284 5494.21 586.274 5498.48 586.274H5647.49C5651.79 586.274 5655.25 583.284 5655.25 579.58V519.442H5655.28Z" fill="#F7F3EA" stroke="#2A4385" stroke-width="2" stroke-miterlimit="10"/>
</g>
<path d="M4815.4 859.084C4815.44 859.767 4814.44 859.895 4814.31 859.221C4814.15 858.359 4814.03 857.486 4813.91 856.591L4812.32 844.573L4811.49 837.995C4811.46 837.681 4811.69 837.396 4812 837.376L4812.94 837.309C4813.24 837.288 4813.46 837.273 4813.52 837.803L4815.21 856.13L4815.4 859.055C4815.4 859.055 4815.4 859.077 4815.4 859.088L4815.4 859.084Z" fill="#2A4385"/>
<path d="M4814.9 836.523C4812.25 837.861 4808.61 837.04 4808.91 835.682C4809.01 835.242 4809.51 834.802 4809.95 834.609C4811.31 834.025 4812.77 833.88 4814.19 834.254C4814.76 834.405 4815.38 834.797 4815.58 835.354C4815.73 835.788 4815.32 836.309 4814.9 836.523Z" fill="#F7F3EA" stroke="#2A4385" stroke-width="2" stroke-miterlimit="10"/>
<path d="M4828.5 848.508C4828.02 848.988 4827.26 848.315 4827.69 847.777C4828.23 847.09 4828.81 846.424 4829.41 845.748L4837.42 836.655L4841.84 831.708C4842.05 831.472 4842.42 831.462 4842.64 831.685L4843.31 832.35C4843.52 832.561 4843.67 832.718 4843.32 833.112L4830.61 846.427L4828.52 848.487C4828.52 848.487 4828.51 848.503 4828.5 848.511L4828.5 848.508Z" fill="#2A4385"/>
<path d="M4845.18 833.306C4842.44 832.19 4840.67 828.909 4841.89 828.243C4842.28 828.028 4842.94 828.115 4843.38 828.321C4844.71 828.958 4845.78 829.965 4846.43 831.28C4846.69 831.81 4846.8 832.536 4846.51 833.051C4846.29 833.454 4845.62 833.484 4845.18 833.306Z" fill="#F7F3EA" stroke="#2A4385" stroke-width="2" stroke-miterlimit="10"/>
<path d="M4861 819.033C4860.52 819.676 4860.32 820.341 4860.57 820.993L4862.43 825.883C4862.72 826.655 4863.7 826.88 4864.3 826.315C4868.05 822.787 4873.17 820.543 4878.01 819.236C4879.55 818.819 4881.06 818.622 4882.61 818.554C4883.4 818.521 4883.93 817.723 4883.64 816.984C4883.55 816.738 4883.45 816.498 4883.36 816.252C4883.26 816.006 4883.16 815.767 4883.06 815.522C4882.56 814.309 4882.03 813.123 4881.41 811.946C4881.23 811.611 4880.89 811.387 4880.52 811.342C4879.35 811.206 4878.18 811.088 4877.13 810.419C4874.17 808.524 4872.92 804.921 4873.74 801.564L4874.28 799.357C4874.33 799.154 4874.32 798.939 4874.26 798.737C4873.48 796.17 4872.57 793.714 4871.48 791.252L4869.01 785.671L4866.91 781.156C4865.77 778.737 4864.5 776.606 4862.65 774.61C4858.73 770.391 4854.59 766.501 4850.03 762.998C4848.98 762.187 4847.61 763.5 4848.37 764.588L4850.23 767.235C4850.66 767.836 4851.49 769.03 4851.17 769.458C4851.09 769.577 4850.63 769.473 4850.51 769.356C4848.86 767.838 4847.16 766.429 4845.38 765.149C4844.26 764.34 4842.92 765.816 4843.82 766.856C4845.59 768.876 4847.02 771.123 4848.21 773.509C4849.4 775.894 4850.06 778.605 4849.94 781.362C4849.69 787.099 4845.77 787.64 4846.54 790.352C4848.04 795.658 4850.06 800.823 4852.64 805.694C4854.38 808.984 4857 807.241 4860.18 810.367C4862.54 812.686 4863.05 816.269 4861 819.035L4861 819.033Z" fill="#F7F3EA" stroke="#2A4385" stroke-width="2" stroke-miterlimit="10"/>
<path d="M4768.66 822.413C4769.09 826.152 4770.56 829.642 4772.76 832.61C4774.34 834.747 4775.77 834.639 4777.94 833.777C4788.3 829.2 4798.7 824.982 4809.21 820.692L4817.63 817.263C4818.48 816.915 4818.83 815.899 4818.38 815.091C4816.76 812.162 4815.57 809.091 4814.98 805.746C4814.82 804.82 4813.97 804.259 4813.06 804.507L4810.57 805.19L4801.21 808.04L4782.8 813.604L4776 815.706C4772.67 816.734 4768.14 817.946 4768.66 822.41L4768.66 822.413Z" fill="#F7F3EA" stroke="#2A4385" stroke-width="2" stroke-miterlimit="10"/>
<path d="M4815.38 805.524C4815.94 808.998 4817.19 812.272 4819.02 815.306C4819.45 816.031 4820.35 816.336 4821.14 816.043L4845.64 806.922L4850.13 805.363C4851.02 805.084 4851.86 804.256 4851.16 802.973C4849.9 800.195 4848.8 797.398 4847.75 794.384C4847.33 793.19 4846.39 792.977 4845.47 793.313L4832.18 798.233L4816.55 803.582C4815.74 803.859 4815.24 804.678 4815.37 805.516L4815.38 805.524Z" fill="#F7F3EA" stroke="#2A4385" stroke-width="2" stroke-miterlimit="10"/>
<path d="M4865.08 829.326C4866.45 829.397 4867.41 829.384 4868.57 829.125C4873.05 828.134 4877.28 826.329 4881.15 823.83C4882.21 823.143 4884.9 821.08 4884.56 819.81C4884.28 818.778 4882.09 818.876 4881.15 819.013C4875.81 819.803 4870.75 821.842 4866.39 825.044C4865.37 825.797 4864.48 826.686 4863.93 827.79C4863.61 828.441 4863.81 829.259 4865.08 829.326Z" fill="#F7F3EA" stroke="#2A4385" stroke-width="2" stroke-miterlimit="10"/>
<path d="M4873.03 794.273C4874.01 794.046 4874.36 792.82 4874.27 791.836C4874.01 789.286 4872.83 786.836 4871.03 784.998C4870.35 784.297 4869.57 783.698 4868.49 783.957L4873.02 794.276L4873.03 794.273Z" fill="#F7F3EA" stroke="#2A4385" stroke-width="2" stroke-miterlimit="10"/>
<path d="M4863.84 828.706C4863.84 828.706 4863.02 827.867 4862.17 825.21Z" fill="#F7F3EA"/>
<path d="M4863.84 828.706C4863.84 828.706 4863.02 827.867 4862.17 825.21" stroke="#2A4385" stroke-width="2" stroke-miterlimit="10"/>
<path d="M4863 826.898L4863.85 827.038L4863.24 827.553" stroke="#2A4385" stroke-width="2" stroke-miterlimit="10"/>
<path d="M4847.24 792.71L4845.84 793.204L4844.44 793.698" stroke="#2A4385" stroke-width="2" stroke-miterlimit="10"/>
<path d="M4849.7 805.512L4851.95 804.797L4851.43 804.185" stroke="#2A4385" stroke-width="2" stroke-miterlimit="10"/>
<path d="M4820.97 816.095L4819.28 816.706L4816.75 817.621" fill="#F7F3EA"/>
<path d="M4820.97 816.095L4819.28 816.706L4816.75 817.621" stroke="#2A4385" stroke-width="2" stroke-miterlimit="10"/>
<path d="M4818.84 815.526L4819.28 816.884" stroke="#2A4385" stroke-width="2" stroke-miterlimit="10"/>
<path d="M4816.34 803.675L4812.43 804.678" stroke="#2A4385" stroke-width="2" stroke-miterlimit="10"/>
<path d="M4814.92 805.044L4815.05 804.741L4814.95 804.104" stroke="#2A4385" stroke-width="2" stroke-miterlimit="10"/>
<path d="M1563.57 477.23H1549.89V488.613H1563.57V477.23Z" fill="#2A4385" stroke="#2A4385" stroke-width="2" stroke-miterlimit="10"/>
<path d="M1548.06 488.23H1564.58C1565.31 488.23 1565.92 489.138 1565.92 490.269V818.219H1546.74V490.269C1546.74 489.154 1547.33 488.23 1548.07 488.23H1548.06Z" fill="#F7F3EA" stroke="#2A4385" stroke-width="2" stroke-miterlimit="10"/>
<path d="M2029.22 488.23H2045.74C2046.47 488.23 2047.07 489.138 2047.07 490.269V818.219H2027.89V490.269C2027.89 489.154 2028.49 488.23 2029.23 488.23H2029.22Z" fill="#F7F3EA" stroke="#2A4385" stroke-width="2" stroke-miterlimit="10"/>
<path d="M1525.96 808.447H1587.5C1595.57 808.447 1602.11 814.983 1602.11 823.018V828.789H1511.35V823.018C1511.35 814.967 1517.9 808.447 1525.96 808.447Z" fill="#F7F3EA" stroke="#2A4385" stroke-width="2" stroke-miterlimit="10"/>
<path d="M1549.12 485.982H1564.37C1569.82 485.982 1574.25 490.398 1574.25 495.834V508.635H1539.24V495.834C1539.24 490.398 1543.67 485.982 1549.12 485.982Z" fill="#F7F3EA" stroke="#2A4385" stroke-width="2" stroke-miterlimit="10"/>
<path d="M1556.73 480.85C1567.15 480.85 1575.61 472.421 1575.61 462.023C1575.61 451.625 1567.15 443.196 1556.73 443.196C1546.3 443.196 1537.85 451.625 1537.85 462.023C1537.85 472.421 1546.3 480.85 1556.73 480.85Z" fill="#F7F3EA" stroke="#2A4385" stroke-width="2" stroke-miterlimit="10"/>
<path d="M2044.25 477.23H2030.56V488.613H2044.25V477.23Z" fill="#2A4385" stroke="#2A4385" stroke-width="2" stroke-miterlimit="10"/>
<path d="M2006.63 808.447H2068.18C2076.25 808.447 2082.79 814.983 2082.79 823.018V828.789H1992.01V823.018C1992.01 814.967 1998.56 808.447 2006.62 808.447H2006.63Z" fill="#F7F3EA" stroke="#2A4385" stroke-width="2" stroke-miterlimit="10"/>
<path d="M2029.78 485.982H2045.03C2050.48 485.982 2054.91 490.398 2054.91 495.834V508.635H2019.9V495.834C2019.9 490.398 2024.33 485.982 2029.78 485.982Z" fill="#F7F3EA" stroke="#2A4385" stroke-width="2" stroke-miterlimit="10"/>
<path d="M2037.4 480.85C2047.83 480.85 2056.28 472.421 2056.28 462.023C2056.28 451.625 2047.83 443.196 2037.4 443.196C2026.98 443.196 2018.53 451.625 2018.53 462.023C2018.53 472.421 2026.98 480.85 2037.4 480.85Z" fill="#F7F3EA" stroke="#2A4385" stroke-width="2" stroke-miterlimit="10"/>
<mask id="mask0_3259_539" style="mask-type:luminance" maskUnits="userSpaceOnUse" x="1517" y="533" width="555" height="80">
<path d="M2058.46 533.743H1530.53C1523.55 533.743 1517.9 539.382 1517.9 546.337V599.948C1517.9 606.904 1523.55 612.542 1530.53 612.542H2058.46C2065.43 612.542 2071.08 606.904 2071.08 599.948V546.337C2071.08 539.382 2065.43 533.743 2058.46 533.743Z" fill="white"/>
</mask>
<g mask="url(#mask0_3259_539)">
<path d="M1556.1 612.446H1508.24L1479.71 533.871H1527.57L1556.1 612.446Z" fill="#F7F3EA" stroke="#2A4385" stroke-width="2" stroke-miterlimit="10"/>
<path d="M1603.56 612.446H1555.7L1527.17 533.871H1575.03L1603.56 612.446Z" fill="#2A4385" stroke="#2A4385" stroke-width="2" stroke-miterlimit="10"/>
<path d="M1651.02 612.446H1603.16L1574.63 533.871H1622.49L1651.02 612.446Z" fill="#F7F3EA" stroke="#2A4385" stroke-width="2" stroke-miterlimit="10"/>
<path d="M1698.48 612.446H1650.62L1622.09 533.871H1669.95L1698.48 612.446Z" fill="#2A4385" stroke="#2A4385" stroke-width="2" stroke-miterlimit="10"/>
<path d="M1745.94 612.446H1698.08L1669.55 533.871H1717.41L1745.94 612.446Z" fill="#F7F3EA" stroke="#2A4385" stroke-width="2" stroke-miterlimit="10"/>
<path d="M1793.4 612.446H1745.55L1717.01 533.871H1764.87L1793.4 612.446Z" fill="#2A4385" stroke="#2A4385" stroke-width="2" stroke-miterlimit="10"/>
<path d="M1794.64 612.446H1842.5L1871.03 533.871H1823.15L1794.64 612.446Z" fill="#2A4385" stroke="#2A4385" stroke-width="2" stroke-miterlimit="10"/>
<path d="M1841.82 612.446H1889.68L1918.22 533.871H1870.36L1841.82 612.446Z" fill="#F7F3EA" stroke="#2A4385" stroke-width="2" stroke-miterlimit="10"/>
<path d="M1889.59 612.446H1937.45L1965.98 533.871H1918.12L1889.59 612.446Z" fill="#2A4385" stroke="#2A4385" stroke-width="2" stroke-miterlimit="10"/>
<path d="M1937.37 612.446H1985.23L2013.76 533.871H1965.9L1937.37 612.446Z" fill="#F7F3EA" stroke="#2A4385" stroke-width="2" stroke-miterlimit="10"/>
<path d="M1985.13 612.446H2032.99L2061.53 533.871H2013.67L1985.13 612.446Z" fill="#2A4385" stroke="#2A4385" stroke-width="2" stroke-miterlimit="10"/>
<path d="M2032.9 612.446H2080.76L2109.29 533.871H2061.43L2032.9 612.446Z" fill="#F7F3EA" stroke="#2A4385" stroke-width="2" stroke-miterlimit="10"/>
</g>
<path d="M2058.47 533.329H1529.68C1522.71 533.329 1517.05 538.967 1517.05 545.922V599.534C1517.05 606.489 1522.71 612.127 1529.68 612.127H2058.47C2065.45 612.127 2071.1 606.489 2071.1 599.534V545.922C2071.1 538.967 2065.45 533.329 2058.47 533.329Z" stroke="#2A4385" stroke-width="2" stroke-miterlimit="10"/>
<path d="M1766.36 534.556L1793.95 610.517L1821.65 534.556H1766.36Z" fill="#F7F3EA"/>
<mask id="mask1_3259_539" style="mask-type:luminance" maskUnits="userSpaceOnUse" x="1517" y="642" width="555" height="80">
<path d="M2058.46 642.624H1530.53C1523.55 642.624 1517.9 648.262 1517.9 655.217V708.829C1517.9 715.784 1523.55 721.422 1530.53 721.422H2058.46C2065.43 721.422 2071.08 715.784 2071.08 708.829V655.217C2071.08 648.262 2065.43 642.624 2058.46 642.624Z" fill="white"/>
</mask>
<g mask="url(#mask1_3259_539)">
<path d="M1556.1 721.327H1508.24L1479.71 642.735H1527.57L1556.1 721.327Z" fill="#F7F3EA" stroke="#2A4385" stroke-width="2" stroke-miterlimit="10"/>
<path d="M1603.56 721.327H1555.7L1527.17 642.735H1575.03L1603.56 721.327Z" fill="#2A4385" stroke="#2A4385" stroke-width="2" stroke-miterlimit="10"/>
<path d="M1651.02 721.327H1603.16L1574.63 642.735H1622.49L1651.02 721.327Z" fill="#F7F3EA" stroke="#2A4385" stroke-width="2" stroke-miterlimit="10"/>
<path d="M1698.48 721.327H1650.62L1622.09 642.735H1669.95L1698.48 721.327Z" fill="#2A4385" stroke="#2A4385" stroke-width="2" stroke-miterlimit="10"/>
<path d="M1745.94 721.327H1698.08L1669.55 642.735H1717.41L1745.94 721.327Z" fill="#F7F3EA" stroke="#2A4385" stroke-width="2" stroke-miterlimit="10"/>
<path d="M1793.4 721.327H1745.55L1717.01 642.735H1764.87L1793.4 721.327Z" fill="#2A4385" stroke="#2A4385" stroke-width="2" stroke-miterlimit="10"/>
<path d="M1794.64 721.327H1842.5L1871.03 642.735H1823.15L1794.64 721.327Z" fill="#2A4385" stroke="#2A4385" stroke-width="2" stroke-miterlimit="10"/>
<path d="M1841.82 721.327H1889.68L1918.22 642.735H1870.36L1841.82 721.327Z" fill="#F7F3EA" stroke="#2A4385" stroke-width="2" stroke-miterlimit="10"/>
<path d="M1889.59 721.327H1937.45L1965.98 642.735H1918.12L1889.59 721.327Z" fill="#2A4385" stroke="#2A4385" stroke-width="2" stroke-miterlimit="10"/>
<path d="M1937.37 721.327H1985.23L2013.76 642.735H1965.9L1937.37 721.327Z" fill="#F7F3EA" stroke="#2A4385" stroke-width="2" stroke-miterlimit="10"/>
<path d="M1985.13 721.327H2032.99L2061.53 642.735H2013.67L1985.13 721.327Z" fill="#2A4385" stroke="#2A4385" stroke-width="2" stroke-miterlimit="10"/>
<path d="M2032.9 721.327H2080.76L2109.29 642.735H2061.43L2032.9 721.327Z" fill="#F7F3EA" stroke="#2A4385" stroke-width="2" stroke-miterlimit="10"/>
</g>
<path d="M2058.47 642.209H1529.68C1522.71 642.209 1517.05 647.847 1517.05 654.803V708.414C1517.05 715.369 1522.71 721.008 1529.68 721.008H2058.47C2065.45 721.008 2071.1 715.369 2071.1 708.414V654.803C2071.1 647.847 2065.45 642.209 2058.47 642.209Z" stroke="#2A4385" stroke-width="2" stroke-miterlimit="10"/>
<path d="M1766.36 643.437L1793.95 719.398L1821.65 643.437H1766.36Z" fill="#F7F3EA"/>
<g clip-path="url(#clip2_3259_539)">
<path d="M2154.41 826.544C2163.21 828.671 2180.79 828.343 2189.69 826.122C2198.02 824.026 2197.8 821.383 2197.15 814.172L2181.79 729.228C2180.82 723.676 2178.83 721.142 2174.65 721.173L2167.59 721.236C2162.99 721.283 2161.53 724.02 2160.61 729.416L2146.77 814.61C2146.25 821.836 2146.08 824.527 2154.41 826.544Z" fill="#F7F3EA" stroke="#2A4385" stroke-width="2" stroke-linecap="round" stroke-linejoin="round"/>
<path d="M2157.99 745.956C2166.83 748.666 2175.66 748.666 2184.48 745.956Z" fill="#F7F3EA"/>
<path d="M2157.99 745.956C2166.83 748.666 2175.66 748.666 2184.48 745.956" stroke="#2A4385" stroke-width="2" stroke-linecap="round" stroke-linejoin="round"/>
<path d="M2153.41 776.951C2165.63 781.016 2177.86 781.016 2190.08 776.951Z" fill="#F7F3EA"/>
<path d="M2153.41 776.951C2165.63 781.016 2177.86 781.016 2190.08 776.951" stroke="#2A4385" stroke-width="2" stroke-linecap="round" stroke-linejoin="round"/>
<path d="M2148.83 802.866C2164.1 810.318 2179.39 810.318 2194.66 802.866Z" fill="#F7F3EA"/>
<path d="M2148.83 802.866C2164.1 810.318 2179.39 810.318 2194.66 802.866" stroke="#2A4385" stroke-width="2" stroke-linecap="round" stroke-linejoin="round"/>
<path d="M2211.83 835.099L2211.78 825.011L2132.19 825.559L2132.24 835.24C2132.24 835.24 2132.21 835.397 2132.21 835.475C2132.21 840.089 2150.02 843.827 2172.01 843.827C2193.99 843.827 2211.81 840.089 2211.81 835.475C2211.81 835.35 2211.79 835.24 2211.76 835.115H2211.84L2211.83 835.099Z" fill="#2A4385" stroke="#2A4385" stroke-width="2" stroke-linecap="round" stroke-linejoin="round"/>
<path d="M2132.19 826.059C2132.19 830.798 2150.56 835.131 2172.54 835.131C2194.52 835.131 2211.78 830.798 2211.78 826.059C2211.78 821.32 2193.96 817.488 2171.98 817.488C2149.99 817.488 2132.19 821.32 2132.19 826.059Z" fill="#2A4385" stroke="#2A4385" stroke-width="2" stroke-linecap="round" stroke-linejoin="round"/>
<path d="M2148.06 805.661C2148.06 805.661 2146.38 816.119 2146.53 818.872C2146.63 820.467 2197.21 819.126 2197.21 819.126C2197.34 813.934 2194.92 803.12 2194.92 803.12C2194.92 803.12 2172.51 815.061 2148.83 803.12L2148.06 805.661Z" fill="#2A4385"/>
<path d="M2157.99 746.209L2152.9 776.697C2164.32 781.17 2179.25 780.826 2190.08 776.697L2184.48 746.209C2184.48 746.209 2172.18 749.838 2157.99 746.209Z" fill="#2A4385"/>
</g>
<g clip-path="url(#clip3_3259_539)">
<path d="M4218.41 837.544C4227.21 839.671 4244.79 839.343 4253.69 837.122C4262.02 835.026 4261.8 832.383 4261.15 825.172L4245.79 740.228C4244.82 734.676 4242.83 732.142 4238.65 732.173L4231.59 732.236C4226.99 732.283 4225.53 735.02 4224.61 740.416L4210.77 825.61C4210.25 832.836 4210.08 835.527 4218.41 837.544Z" fill="#F7F3EA" stroke="#2A4385" stroke-width="2" stroke-linecap="round" stroke-linejoin="round"/>
<path d="M4221.99 756.956C4230.83 759.666 4239.66 759.666 4248.48 756.956Z" fill="#F7F3EA"/>
<path d="M4221.99 756.956C4230.83 759.666 4239.66 759.666 4248.48 756.956" stroke="#2A4385" stroke-width="2" stroke-linecap="round" stroke-linejoin="round"/>
<path d="M4217.41 787.951C4229.63 792.016 4241.86 792.016 4254.08 787.951Z" fill="#F7F3EA"/>
<path d="M4217.41 787.951C4229.63 792.016 4241.86 792.016 4254.08 787.951" stroke="#2A4385" stroke-width="2" stroke-linecap="round" stroke-linejoin="round"/>
<path d="M4212.83 813.866C4228.1 821.318 4243.39 821.318 4258.66 813.866Z" fill="#F7F3EA"/>
<path d="M4212.83 813.866C4228.1 821.318 4243.39 821.318 4258.66 813.866" stroke="#2A4385" stroke-width="2" stroke-linecap="round" stroke-linejoin="round"/>
<path d="M4275.83 846.099L4275.78 836.011L4196.19 836.559L4196.24 846.24C4196.24 846.24 4196.21 846.397 4196.21 846.475C4196.21 851.089 4214.02 854.827 4236.01 854.827C4257.99 854.827 4275.81 851.089 4275.81 846.475C4275.81 846.35 4275.79 846.24 4275.76 846.115H4275.84L4275.83 846.099Z" fill="#2A4385" stroke="#2A4385" stroke-width="2" stroke-linecap="round" stroke-linejoin="round"/>
<path d="M4196.19 837.059C4196.19 841.798 4214.56 846.131 4236.54 846.131C4258.52 846.131 4275.78 841.798 4275.78 837.059C4275.78 832.32 4257.96 828.488 4235.98 828.488C4213.99 828.488 4196.19 832.32 4196.19 837.059Z" fill="#2A4385" stroke="#2A4385" stroke-width="2" stroke-linecap="round" stroke-linejoin="round"/>
<path d="M4212.06 816.661C4212.06 816.661 4210.38 827.119 4210.53 829.872C4210.63 831.467 4261.21 830.126 4261.21 830.126C4261.34 824.934 4258.92 814.12 4258.92 814.12C4258.92 814.12 4236.51 826.061 4212.83 814.12L4212.06 816.661Z" fill="#2A4385"/>
<path d="M4221.99 757.209L4216.9 787.697C4228.31 792.17 4243.25 791.826 4254.08 787.697L4248.48 757.209C4248.48 757.209 4236.18 760.838 4221.99 757.209Z" fill="#2A4385"/>
</g>
<g clip-path="url(#clip4_3259_539)">
<path d="M2286.41 829.544C2295.21 831.671 2312.79 831.343 2321.69 829.122C2330.02 827.026 2329.8 824.383 2329.15 817.172L2313.79 732.228C2312.82 726.676 2310.83 724.142 2306.65 724.173L2299.59 724.236C2294.99 724.283 2293.53 727.02 2292.61 732.416L2278.77 817.61C2278.25 824.836 2278.08 827.527 2286.41 829.544Z" fill="#F7F3EA" stroke="#2A4385" stroke-width="2" stroke-linecap="round" stroke-linejoin="round"/>
<path d="M2289.99 748.956C2298.83 751.666 2307.66 751.666 2316.48 748.956Z" fill="#F7F3EA"/>
<path d="M2289.99 748.956C2298.83 751.666 2307.66 751.666 2316.48 748.956" stroke="#2A4385" stroke-width="2" stroke-linecap="round" stroke-linejoin="round"/>
<path d="M2285.41 779.951C2297.63 784.016 2309.86 784.016 2322.08 779.951Z" fill="#F7F3EA"/>
<path d="M2285.41 779.951C2297.63 784.016 2309.86 784.016 2322.08 779.951" stroke="#2A4385" stroke-width="2" stroke-linecap="round" stroke-linejoin="round"/>
<path d="M2280.83 805.866C2296.1 813.318 2311.39 813.318 2326.66 805.866Z" fill="#F7F3EA"/>
<path d="M2280.83 805.866C2296.1 813.318 2311.39 813.318 2326.66 805.866" stroke="#2A4385" stroke-width="2" stroke-linecap="round" stroke-linejoin="round"/>
<path d="M2343.83 838.099L2343.78 828.011L2264.19 828.559L2264.24 838.24C2264.24 838.24 2264.21 838.397 2264.21 838.475C2264.21 843.089 2282.02 846.827 2304.01 846.827C2325.99 846.827 2343.81 843.089 2343.81 838.475C2343.81 838.35 2343.79 838.24 2343.76 838.115H2343.84L2343.83 838.099Z" fill="#2A4385" stroke="#2A4385" stroke-width="2" stroke-linecap="round" stroke-linejoin="round"/>
<path d="M2264.19 829.059C2264.19 833.798 2282.56 838.131 2304.54 838.131C2326.52 838.131 2343.78 833.798 2343.78 829.059C2343.78 824.32 2325.96 820.488 2303.98 820.488C2281.99 820.488 2264.19 824.32 2264.19 829.059Z" fill="#2A4385" stroke="#2A4385" stroke-width="2" stroke-linecap="round" stroke-linejoin="round"/>
<path d="M2280.06 808.661C2280.06 808.661 2278.38 819.119 2278.53 821.872C2278.63 823.467 2329.21 822.126 2329.21 822.126C2329.34 816.934 2326.92 806.12 2326.92 806.12C2326.92 806.12 2304.51 818.061 2280.83 806.12L2280.06 808.661Z" fill="#2A4385"/>
<path d="M2289.99 749.209L2284.9 779.697C2296.32 784.17 2311.25 783.826 2322.08 779.697L2316.48 749.209C2316.48 749.209 2304.18 752.838 2289.99 749.209Z" fill="#2A4385"/>
</g>
<g clip-path="url(#clip5_3259_539)">
<path d="M2222.41 799.544C2231.21 801.671 2248.79 801.343 2257.69 799.122C2266.02 797.026 2265.8 794.383 2265.15 787.172L2249.79 702.228C2248.82 696.676 2246.83 694.142 2242.65 694.173L2235.59 694.236C2230.99 694.283 2229.53 697.02 2228.61 702.416L2214.77 787.61C2214.25 794.836 2214.08 797.527 2222.41 799.544Z" fill="#F7F3EA" stroke="#2A4385" stroke-width="2" stroke-linecap="round" stroke-linejoin="round"/>
<path d="M2225.99 718.956C2234.83 721.666 2243.66 721.666 2252.48 718.956Z" fill="#F7F3EA"/>
<path d="M2225.99 718.956C2234.83 721.666 2243.66 721.666 2252.48 718.956" stroke="#2A4385" stroke-width="2" stroke-linecap="round" stroke-linejoin="round"/>
<path d="M2221.41 749.951C2233.63 754.016 2245.86 754.016 2258.08 749.951Z" fill="#F7F3EA"/>
<path d="M2221.41 749.951C2233.63 754.016 2245.86 754.016 2258.08 749.951" stroke="#2A4385" stroke-width="2" stroke-linecap="round" stroke-linejoin="round"/>
<path d="M2216.83 775.866C2232.1 783.318 2247.39 783.318 2262.66 775.866Z" fill="#F7F3EA"/>
<path d="M2216.83 775.866C2232.1 783.318 2247.39 783.318 2262.66 775.866" stroke="#2A4385" stroke-width="2" stroke-linecap="round" stroke-linejoin="round"/>
<path d="M2279.83 808.099L2279.78 798.011L2200.19 798.559L2200.24 808.24C2200.24 808.24 2200.21 808.397 2200.21 808.475C2200.21 813.089 2218.02 816.827 2240.01 816.827C2261.99 816.827 2279.81 813.089 2279.81 808.475C2279.81 808.35 2279.79 808.24 2279.76 808.115H2279.84L2279.83 808.099Z" fill="#2A4385" stroke="#2A4385" stroke-width="2" stroke-linecap="round" stroke-linejoin="round"/>
<path d="M2200.19 799.059C2200.19 803.798 2218.56 808.131 2240.54 808.131C2262.52 808.131 2279.78 803.798 2279.78 799.059C2279.78 794.32 2261.96 790.488 2239.98 790.488C2217.99 790.488 2200.19 794.32 2200.19 799.059Z" fill="#2A4385" stroke="#2A4385" stroke-width="2" stroke-linecap="round" stroke-linejoin="round"/>
<path d="M2216.06 778.661C2216.06 778.661 2214.38 789.119 2214.53 791.872C2214.63 793.467 2265.21 792.126 2265.21 792.126C2265.34 786.934 2262.92 776.12 2262.92 776.12C2262.92 776.12 2240.51 788.061 2216.83 776.12L2216.06 778.661Z" fill="#2A4385"/>
<path d="M2225.99 719.209L2220.9 749.697C2232.32 754.17 2247.25 753.826 2258.08 749.697L2252.48 719.209C2252.48 719.209 2240.18 722.838 2225.99 719.209Z" fill="#2A4385"/>
</g>
<path d="M2873.33 618.64C2870.52 619.449 2866.57 620.646 2861.88 622.265C2851.21 625.946 2845.87 627.787 2841.44 630.581C2834.83 634.75 2831.02 640.017 2823.41 650.573C2819.12 656.527 2815.97 661.694 2813.93 665.253H2835.77C2838.85 660.552 2841.94 655.85 2845.02 651.149C2847.48 648.776 2850.46 646.27 2853.99 643.887C2862.66 638.021 2871.13 635.293 2877.27 633.93L2873.34 618.651L2873.33 618.64Z" fill="#F7F3EA" stroke="#2A4385" stroke-width="2" stroke-miterlimit="10"/>
<path d="M2545.52 680.657L2626.03 760.517C2626.56 761.048 2645.25 781.148 2678.92 771.028C2707.33 762.487 2769.2 742.582 2797.98 733.284C2809.75 729.485 2819.1 720.241 2822.45 708.377C2822.57 707.966 2822.66 707.566 2822.76 707.176C2825.54 695.562 2826.4 681.122 2826.45 680.668H2545.52V680.657Z" fill="#F7F3EA" stroke="#2A4385" stroke-width="2" stroke-miterlimit="10"/>
<path d="M2603.76 845C2628.37 845 2648.32 825.121 2648.32 800.599C2648.32 776.078 2628.37 756.199 2603.76 756.199C2579.15 756.199 2559.2 776.078 2559.2 800.599C2559.2 825.121 2579.15 845 2603.76 845Z" fill="#F7F3EA" stroke="#2A4385" stroke-width="2" stroke-miterlimit="10"/>
<path d="M2603.76 824.51C2617.01 824.51 2627.76 813.805 2627.76 800.599C2627.76 787.394 2617.01 776.689 2603.76 776.689C2590.51 776.689 2579.77 787.394 2579.77 800.599C2579.77 813.805 2590.51 824.51 2603.76 824.51Z" fill="#2A4385" stroke="#2A4385" stroke-width="2" stroke-miterlimit="10"/>
<path d="M2837.3 680.657H2526.63C2525.73 680.657 2525 679.932 2525 679.033V668.458C2525 667.56 2525.73 666.834 2526.63 666.834H2837.3C2838.21 666.834 2838.93 667.56 2838.93 668.458V679.033C2838.93 679.932 2838.21 680.657 2837.3 680.657Z" fill="#F7F3EA" stroke="#2A4385" stroke-width="2" stroke-miterlimit="10"/>
<path d="M2872.79 616.039C2877.16 614.319 2916.75 598.987 2923.9 609.842C2924.8 611.208 2925.33 613.221 2924.78 616.275C2924.56 617.243 2924.14 618.682 2923.23 620.207C2920.28 625.1 2914.75 626.715 2911.32 627.678C2896.43 631.815 2881.67 634.932 2877.83 635.73L2872.79 616.039Z" fill="#F7F3EA" stroke="#2A4385" stroke-width="2" stroke-miterlimit="10"/>
<path d="M2919.57 626.623C2907.89 628.992 2900.4 631.353 2894.34 633.669C2886.49 636.667 2882.31 639.081 2878.6 642.025C2875.3 644.645 2872.91 647.264 2871.32 649.213C2862.17 661.736 2852.99 674.4 2843.8 687.216C2836.57 697.304 2829.41 707.36 2822.34 717.372C2816.79 725.231 2808.85 731.097 2799.7 734.139C2713.72 762.693 2679.3 773.171 2667 776.137C2666.01 776.375 2642.95 782.664 2642.95 782.664C2642.95 782.664 2643.09 782.62 2643.2 782.599C2638.77 783.616 2632.22 785.261 2624.21 787.805C2622.49 788.357 2621.01 788.844 2619.29 789.472C2609.34 793.087 2601.43 796.064 2600.71 801.151C2600.64 801.628 2600.44 803.046 2601.22 804.323C2603.45 807.981 2612.08 807.732 2623.13 803.846C2686.99 784.579 2750.83 765.312 2814.69 746.045C2819.81 744.498 2824.27 741.337 2827.42 737.04C2845.42 712.447 2863.43 687.844 2881.43 663.251C2884.5 658.586 2889.21 653.001 2896.2 648.531C2901.73 644.991 2906.8 643.346 2909.65 642.447C2914.69 640.856 2919.12 640.153 2922.4 639.817C2921.45 635.423 2920.79 631.221 2919.83 626.827L2919.57 626.623Z" fill="#F7F3EA" stroke="#2A4385" stroke-width="2" stroke-miterlimit="10"/>
<path d="M2735.86 769.826L2768.07 805.6C2769.79 806.758 2788.74 832.476 2797.33 826.75C2801.99 823.644 2801.35 818.892 2800.66 787.318C2800.28 770.237 2800.28 760.571 2798.96 750.776C2804.19 749.195 2809.41 747.626 2814.64 746.045L2818.6 816.792C2818.41 820.039 2819.52 830.983 2807.87 839.501C2796.21 848.02 2778.76 841.482 2759.26 821.403C2745.36 806.055 2731.47 790.695 2717.56 775.346L2735.88 769.815L2735.86 769.826Z" fill="#F7F3EA" stroke="#2A4385" stroke-width="2" stroke-miterlimit="10"/>
<path d="M2621.79 623.722C2615.42 618.743 2585.19 627.218 2585.19 627.218C2599.88 607.778 2622.07 598.296 2622.07 598.296C2657.57 564.578 2688.91 570.38 2688.91 570.38C2688.91 570.38 2707.83 564.557 2740.24 608.644L2729.94 613.211C2729.94 613.211 2734.51 609.986 2740.24 608.644C2745.98 607.302 2753.55 607.897 2758.24 616.535C2767.4 633.388 2812.88 661.303 2812.88 661.303H2539.15C2539.15 661.303 2577.45 636.007 2585.19 627.218" fill="#F7F3EA"/>
<path d="M2621.79 623.722C2615.42 618.743 2585.19 627.218 2585.19 627.218M2585.19 627.218C2599.88 607.778 2622.07 598.296 2622.07 598.296C2657.57 564.578 2688.91 570.38 2688.91 570.38C2688.91 570.38 2707.83 564.557 2740.24 608.644M2585.19 627.218C2577.45 636.007 2539.15 661.303 2539.15 661.303H2812.88C2812.88 661.303 2767.4 633.388 2758.24 616.535C2753.55 607.897 2745.98 607.302 2740.24 608.644M2740.24 608.644L2729.94 613.211C2729.94 613.211 2734.51 609.986 2740.24 608.644Z" stroke="#2A4385" stroke-width="2" stroke-miterlimit="10"/>
<path d="M2536.41 664.17H2815.02" stroke="#2A4385" stroke-width="4" stroke-miterlimit="10"/>
<path d="M2919.51 622.57C2923.98 621.114 2964.42 608.176 2970.91 619.438C2971.72 620.856 2972.13 622.897 2971.4 625.913C2971.12 626.866 2970.61 628.277 2969.61 629.745C2966.38 634.453 2960.76 635.735 2957.28 636.491C2942.16 639.731 2927.24 641.96 2923.36 642.527L2919.51 622.57Z" fill="#F7F3EA" stroke="#2A4385" stroke-width="2" stroke-miterlimit="10"/>
<path d="M2845.42 934.796C2840.79 932.712 2839.55 926.779 2842.89 922.971C2856.28 907.739 2884.94 883.569 2907.06 874.951C2926.28 867.455 2947.11 840.318 2952.38 829.736C2953.58 827.29 2954.95 825.005 2956.52 822.761C2963.27 813.261 2981.93 790.012 3005.45 785.482C3013.17 783.999 3020.01 779.63 3024.51 773.217C3031.95 762.594 3043.57 747.924 3053.75 743.875C3056.28 742.873 3058.69 741.59 3060.58 739.626C3070.27 729.886 3100.51 701.867 3122.63 706.516C3149.33 712.128 3156 721.348 3156 721.348C3156 721.348 3163.32 722.55 3172.85 735.057C3175.38 738.343 3178.48 741.149 3182.14 743.113C3190.3 747.563 3205.46 757.023 3214.91 770.571C3220.26 778.227 3228.66 783.158 3237.83 785.242C3243.94 786.645 3250.9 789.451 3257.13 795.023C3269.59 806.206 3286.8 830.176 3292.88 838.875C3294.56 841.28 3296.49 843.444 3298.67 845.408C3304.98 851.02 3318.73 862.484 3333.09 869.259C3341.53 873.227 3347.84 875.872 3352.31 877.596C3358.98 880.161 3365.17 883.849 3370.64 888.499C3379.37 895.915 3391.63 907.178 3397.26 916.317C3414.87 944.978 3341.81 938.324 3341.81 938.324C3341.81 938.324 3322.15 945.378 3301.76 936.52C3295.61 933.834 3288.81 932.992 3282.26 934.676C3266.7 938.684 3236.9 945.218 3210.36 944.497C3172.37 943.455 3141.56 944.537 3141.56 944.537H3083.54C3083.54 944.537 3046.59 929.625 3012.69 941.41C2978.79 953.195 2944.94 932.191 2944.94 932.191C2944.94 932.191 2939.31 926.579 2903.88 938.845C2879.72 947.222 2857.2 940.127 2845.34 934.756L2845.42 934.796Z" fill="#F7F3EA" stroke="#2A4385" stroke-width="2" stroke-miterlimit="10"/>
<path d="M3791.88 818.453H3695.62C3694.73 818.453 3694 819.18 3694 820.077V860.316C3694 861.213 3694.73 861.94 3695.62 861.94H3791.88C3792.77 861.94 3793.5 861.213 3793.5 860.316V820.077C3793.5 819.18 3792.77 818.453 3791.88 818.453Z" fill="#F7F3EA" stroke="#2A4385" stroke-width="2" stroke-miterlimit="10"/>
<path d="M3891.38 818.453H3795.12C3794.23 818.453 3793.5 819.18 3793.5 820.077V860.316C3793.5 861.213 3794.23 861.94 3795.12 861.94H3891.38C3892.27 861.94 3893 861.213 3893 860.316V820.077C3893 819.18 3892.27 818.453 3891.38 818.453Z" fill="#F7F3EA" stroke="#2A4385" stroke-width="2" stroke-miterlimit="10"/>
<path d="M3845.4 774.316H3749.15C3748.25 774.316 3747.52 775.043 3747.52 775.94V816.179C3747.52 817.076 3748.25 817.803 3749.15 817.803H3845.4C3846.3 817.803 3847.02 817.076 3847.02 816.179V775.94C3847.02 775.043 3846.3 774.316 3845.4 774.316Z" fill="#F7F3EA" stroke="#2A4385" stroke-width="2" stroke-miterlimit="10"/>
<path d="M3861.88 833.68L3846.49 850.308C3846.45 850.352 3846.45 850.419 3846.49 850.458C3846.53 850.496 3846.6 850.492 3846.64 850.448L3862.03 833.82C3862.07 833.776 3862.07 833.709 3862.03 833.671C3861.99 833.632 3861.92 833.637 3861.88 833.68Z" fill="#F7F3EA" stroke="#2A4385" stroke-width="2" stroke-miterlimit="10"/>
<path d="M3846.85 831.78L3831.45 848.408C3831.41 848.452 3831.41 848.519 3831.46 848.557C3831.5 848.596 3831.56 848.591 3831.61 848.548L3847 831.92C3847.04 831.876 3847.04 831.809 3847 831.77C3846.95 831.732 3846.89 831.736 3846.85 831.78Z" fill="#F7F3EA" stroke="#2A4385" stroke-width="2" stroke-miterlimit="10"/>
<path d="M4552.16 755.553H4754C4756.85 755.553 4759.16 757.704 4759.16 760.369V821.183C4759.16 823.848 4756.82 826.032 4753.96 826L4552.13 824.426C4549.31 824.426 4547 822.243 4547 819.61V760.337C4547 757.672 4549.31 755.521 4552.16 755.521V755.553Z" fill="#F7F3EA" stroke="#2A4385" stroke-width="2" stroke-miterlimit="10"/>
<path d="M4759.18 760.327C4759.09 747.806 4758.2 738.657 4757.09 732.043C4755.58 722.861 4747.67 716.184 4738.5 716.184H4568.06C4549.63 716.184 4547.16 740.037 4547 750.6C4546.97 753.296 4549.09 755.512 4551.74 755.512H4759.18" fill="#F7F3EA"/>
<path d="M4759.18 760.327C4759.09 747.806 4758.2 738.657 4757.09 732.043C4755.58 722.861 4747.67 716.184 4738.5 716.184H4568.06C4549.63 716.184 4547.16 740.037 4547 750.6C4546.97 753.296 4549.09 755.512 4551.74 755.512H4759.18" stroke="#2A4385" stroke-width="2" stroke-miterlimit="10"/>
<path d="M4696.69 715.59C4696.69 715.59 4695.13 715.59 4693.57 715.59C4693.57 710.887 4695.12 693.474 4682.48 693.071C4671.88 692.733 4640.88 693.071 4629.21 693.071C4626.91 693.071 4620.23 692.514 4616.66 696.634C4613.51 700.268 4611.41 705.834 4613.04 715.638H4609.91C4609.91 715.638 4604.25 688.32 4626.96 688.32H4681.48C4686.33 688.32 4690.44 690.223 4692.79 693.078C4696.69 697.835 4696.73 703.561 4696.69 715.59Z" fill="#2A4385" stroke="#2A4385" stroke-width="2" stroke-miterlimit="10"/>
<path d="M4594.94 744.596H4586.93C4584.31 744.596 4582.19 746.752 4582.19 749.412V760.263C4582.19 762.923 4584.31 765.079 4586.93 765.079H4594.94C4597.56 765.079 4599.68 762.923 4599.68 760.263V749.412C4599.68 746.752 4597.56 744.596 4594.94 744.596Z" fill="#F7F3EA" stroke="#2A4385" stroke-width="2" stroke-miterlimit="10"/>
<path d="M4720.25 744.596H4712.25C4709.63 744.596 4707.5 746.752 4707.5 749.411V761.354C4707.5 764.014 4709.63 766.17 4712.25 766.17H4720.25C4722.87 766.17 4724.99 764.014 4724.99 761.354V749.411C4724.99 746.752 4722.87 744.596 4720.25 744.596Z" fill="#F7F3EA" stroke="#2A4385" stroke-width="2" stroke-miterlimit="10"/>
<path d="M4662.19 775.995H4644.23C4641.6 775.995 4639.48 773.844 4639.48 771.179V749.38C4639.48 746.715 4641.6 744.564 4644.23 744.564H4662.19C4664.82 744.564 4666.94 746.715 4666.94 749.38V771.179C4666.94 773.844 4664.82 775.995 4662.19 775.995Z" fill="#F7F3EA" stroke="#2A4385" stroke-width="2" stroke-miterlimit="10"/>
<path d="M4667.15 758.711H4639.13" stroke="#2A4385" stroke-width="2" stroke-miterlimit="10"/>
<path d="M3614.42 835.715C3630.64 856.578 3614.43 858.525 3613.51 859.382C3613.51 859.382 3568.28 878.009 3559.34 851.824C3551.19 827.988 3588.81 812.15 3597.36 807.809C3605.9 803.469 3610.68 825.31 3610.68 825.31" fill="#F7F3EA"/>
<path d="M3614.42 835.715C3630.64 856.578 3614.43 858.525 3613.51 859.382C3613.51 859.382 3568.28 878.009 3559.34 851.824C3551.19 827.988 3588.81 812.15 3597.36 807.809C3605.9 803.469 3610.68 825.31 3610.68 825.31" stroke="#2A4385" stroke-width="2" stroke-miterlimit="10"/>
<path d="M3702.66 770.896L3718.22 807.5C3719.16 809.707 3718.45 812.272 3716.52 813.687C3709.62 818.732 3692.89 827.784 3679.07 809.923C3678.88 809.676 3678.56 809.586 3678.27 809.706L3614.61 836.035C3614.61 836.035 3595.15 843.019 3592.44 839.236C3589.72 835.453 3610.74 825.438 3610.74 825.438L3673.21 799.594C3673.54 799.459 3673.71 799.097 3673.6 798.759C3672.6 795.561 3669.36 779.971 3696.86 768.515C3699.12 767.575 3701.7 768.647 3702.66 770.896ZM3694.67 778.511C3694.67 778.511 3675.67 785.252 3683.45 802.417C3689.59 815.968 3707.25 809.221 3707.25 809.221L3695.29 778.064L3694.67 778.511Z" fill="#2A4385" stroke="#2A4385" stroke-width="2" stroke-miterlimit="10"/>
<path d="M4742.8 730.562C4742.8 730.562 4743.68 729.859 4746.09 729.519" stroke="#2A4385" stroke-width="1.5" stroke-miterlimit="10"/>
<path d="M4744.93 730.948L4744.55 729.769" stroke="#2A4385" stroke-width="2.5" stroke-miterlimit="10"/>
<path d="M495.419 628H278.581C275.499 628 273 630.702 273 634.034V794.511C273 797.844 275.499 800.546 278.581 800.546H495.419C498.501 800.546 501 797.844 501 794.511V634.034C501 630.702 498.501 628 495.419 628Z" fill="#F7F3EA" stroke="#2A4385" stroke-width="2" stroke-miterlimit="10"/>
<path d="M479.718 644.977H294.728C291.646 644.977 289.148 647.679 289.148 651.012V777.615C289.148 780.948 291.646 783.649 294.728 783.649H479.718C482.8 783.649 485.299 780.948 485.299 777.615V651.012C485.299 647.679 482.8 644.977 479.718 644.977Z" fill="#F7F3EA" stroke="#2A4385" stroke-width="2" stroke-miterlimit="10"/>
<path d="M297.593 800.586H294.728L289.148 800.586V894.965C289.148 898.298 291.646 901 294.728 901H297.593C300.676 901 303.174 898.298 303.174 894.965V800.586L297.593 800.586Z" fill="#2A4385" stroke="#2A4385" stroke-width="2" stroke-miterlimit="10"/>
<path d="M479.755 800.804L476.89 800.803C473.808 800.803 471.309 800.706 471.309 800.586V894.965C471.309 898.298 473.808 901 476.89 901H479.755C482.837 901 485.336 898.298 485.336 894.965V800.586C485.336 800.706 482.837 800.804 479.755 800.804Z" fill="#2A4385" stroke="#2A4385" stroke-width="2" stroke-miterlimit="10"/>
<path d="M314.333 698.644V678.204H317.833V695.396H326.513V698.644H314.333ZM334.93 698.924C333.344 698.924 332.093 698.504 331.178 697.664C330.264 696.824 329.806 695.695 329.806 694.276C329.806 692.764 330.31 691.597 331.318 690.776C332.326 689.955 333.754 689.544 335.602 689.544H339.438V688.228C339.438 687.481 339.196 686.903 338.71 686.492C338.225 686.063 337.562 685.848 336.722 685.848C335.957 685.848 335.322 686.016 334.818 686.352C334.314 686.688 334.016 687.145 333.922 687.724H330.506C330.674 686.268 331.328 685.111 332.466 684.252C333.605 683.393 335.061 682.964 336.834 682.964C338.72 682.964 340.204 683.44 341.286 684.392C342.388 685.325 342.938 686.595 342.938 688.2V698.644H339.55V695.956H338.99L339.55 695.2C339.55 696.339 339.13 697.244 338.29 697.916C337.45 698.588 336.33 698.924 334.93 698.924ZM336.078 696.292C337.068 696.292 337.87 696.04 338.486 695.536C339.121 695.032 339.438 694.379 339.438 693.576V691.7H335.658C334.949 691.7 334.38 691.905 333.95 692.316C333.521 692.727 333.306 693.268 333.306 693.94C333.306 694.668 333.549 695.247 334.034 695.676C334.538 696.087 335.22 696.292 336.078 696.292ZM351.187 698.644L346.119 683.244H349.703L352.643 692.596C352.811 693.156 352.97 693.735 353.119 694.332C353.287 694.929 353.409 695.405 353.483 695.76C353.577 695.405 353.698 694.929 353.847 694.332C353.997 693.735 354.146 693.165 354.295 692.624L357.179 683.244H360.735L355.695 698.644H351.187ZM370.216 698.896C368.91 698.896 367.771 698.653 366.8 698.168C365.848 697.664 365.102 696.964 364.56 696.068C364.038 695.153 363.776 694.08 363.776 692.848V689.04C363.776 687.808 364.038 686.744 364.56 685.848C365.102 684.933 365.848 684.233 366.8 683.748C367.771 683.244 368.91 682.992 370.216 682.992C371.542 682.992 372.68 683.244 373.632 683.748C374.584 684.233 375.322 684.933 375.844 685.848C376.386 686.744 376.656 687.799 376.656 689.012V692.848C376.656 694.08 376.386 695.153 375.844 696.068C375.322 696.964 374.584 697.664 373.632 698.168C372.68 698.653 371.542 698.896 370.216 698.896ZM370.216 695.844C371.15 695.844 371.868 695.592 372.372 695.088C372.895 694.565 373.156 693.819 373.156 692.848V689.04C373.156 688.051 372.895 687.304 372.372 686.8C371.868 686.296 371.15 686.044 370.216 686.044C369.302 686.044 368.583 686.296 368.06 686.8C367.538 687.304 367.276 688.051 367.276 689.04V692.848C367.276 693.819 367.538 694.565 368.06 695.088C368.583 695.592 369.302 695.844 370.216 695.844ZM381.237 698.644V683.244H384.541V686.184H385.409L384.373 687.976C384.373 686.315 384.747 685.064 385.493 684.224C386.24 683.384 387.341 682.964 388.797 682.964C390.459 682.964 391.765 683.477 392.717 684.504C393.669 685.531 394.145 686.949 394.145 688.76V689.88H390.477V689.012C390.477 688.023 390.216 687.257 389.693 686.716C389.189 686.175 388.489 685.904 387.593 685.904C386.679 685.904 385.969 686.175 385.465 686.716C384.98 687.257 384.737 688.023 384.737 689.012V698.644H381.237ZM397.523 698.644V695.452H402.899V686.408H398.223V683.244H406.259V695.452H411.019V698.644H397.523ZM404.299 680.668C403.589 680.668 403.029 680.491 402.619 680.136C402.208 679.763 402.003 679.268 402.003 678.652C402.003 678.036 402.208 677.551 402.619 677.196C403.029 676.823 403.589 676.636 404.299 676.636C405.008 676.636 405.568 676.823 405.979 677.196C406.389 677.551 406.595 678.036 406.595 678.652C406.595 679.268 406.389 679.763 405.979 680.136C405.568 680.491 405.008 680.668 404.299 680.668ZM431.101 698.644V695.452H436.477V686.408H431.801V683.244H439.837V695.452H444.597V698.644H431.101ZM437.877 680.668C437.167 680.668 436.607 680.491 436.197 680.136C435.786 679.763 435.581 679.268 435.581 678.652C435.581 678.036 435.786 677.551 436.197 677.196C436.607 676.823 437.167 676.636 437.877 676.636C438.586 676.636 439.146 676.823 439.557 677.196C439.967 677.551 440.173 678.036 440.173 678.652C440.173 679.268 439.967 679.763 439.557 680.136C439.146 680.491 438.586 680.668 437.877 680.668ZM447.918 698.644V683.244H451.334V686.184H452.286L451.334 686.996C451.334 685.727 451.698 684.737 452.426 684.028C453.172 683.319 454.19 682.964 455.478 682.964C456.99 682.964 458.194 683.468 459.09 684.476C460.004 685.484 460.462 686.837 460.462 688.536V698.644H456.962V688.9C456.962 687.967 456.719 687.248 456.234 686.744C455.748 686.24 455.067 685.988 454.19 685.988C453.331 685.988 452.65 686.249 452.146 686.772C451.66 687.295 451.418 688.041 451.418 689.012V698.644H447.918ZM353.511 735.924C352.205 735.924 351.057 735.681 350.067 735.196C349.097 734.692 348.341 733.992 347.799 733.096C347.258 732.181 346.987 731.108 346.987 729.876V726.012C346.987 724.761 347.258 723.688 347.799 722.792C348.341 721.896 349.097 721.205 350.067 720.72C351.057 720.216 352.205 719.964 353.511 719.964C355.453 719.964 357.002 720.468 358.159 721.476C359.317 722.465 359.923 723.819 359.979 725.536H356.479C356.423 724.733 356.134 724.117 355.611 723.688C355.107 723.24 354.407 723.016 353.511 723.016C352.578 723.016 351.841 723.277 351.299 723.8C350.758 724.304 350.487 725.032 350.487 725.984V729.876C350.487 730.828 350.758 731.565 351.299 732.088C351.841 732.611 352.578 732.872 353.511 732.872C354.407 732.872 355.107 732.657 355.611 732.228C356.134 731.78 356.423 731.155 356.479 730.352H359.979C359.923 732.069 359.317 733.432 358.159 734.44C357.002 735.429 355.453 735.924 353.511 735.924ZM370.216 735.896C368.91 735.896 367.771 735.653 366.8 735.168C365.848 734.664 365.102 733.964 364.56 733.068C364.038 732.153 363.776 731.08 363.776 729.848V726.04C363.776 724.808 364.038 723.744 364.56 722.848C365.102 721.933 365.848 721.233 366.8 720.748C367.771 720.244 368.91 719.992 370.216 719.992C371.542 719.992 372.68 720.244 373.632 720.748C374.584 721.233 375.322 721.933 375.844 722.848C376.386 723.744 376.656 724.799 376.656 726.012V729.848C376.656 731.08 376.386 732.153 375.844 733.068C375.322 733.964 374.584 734.664 373.632 735.168C372.68 735.653 371.542 735.896 370.216 735.896ZM370.216 732.844C371.15 732.844 371.868 732.592 372.372 732.088C372.895 731.565 373.156 730.819 373.156 729.848V726.04C373.156 725.051 372.895 724.304 372.372 723.8C371.868 723.296 371.15 723.044 370.216 723.044C369.302 723.044 368.583 723.296 368.06 723.8C367.538 724.304 367.276 725.051 367.276 726.04V729.848C367.276 730.819 367.538 731.565 368.06 732.088C368.583 732.592 369.302 732.844 370.216 732.844ZM381.237 735.644V720.244H384.541V723.184H385.409L384.373 724.976C384.373 723.315 384.747 722.064 385.493 721.224C386.24 720.384 387.341 719.964 388.797 719.964C390.459 719.964 391.765 720.477 392.717 721.504C393.669 722.531 394.145 723.949 394.145 725.76V726.88H390.477V726.012C390.477 725.023 390.216 724.257 389.693 723.716C389.189 723.175 388.489 722.904 387.593 722.904C386.679 722.904 385.969 723.175 385.465 723.716C384.98 724.257 384.737 725.023 384.737 726.012V735.644H381.237ZM403.207 735.896C402.031 735.896 401.004 735.709 400.127 735.336C399.249 734.963 398.559 734.449 398.055 733.796C397.569 733.124 397.308 732.34 397.271 731.444H400.771C400.808 731.929 401.041 732.321 401.471 732.62C401.919 732.919 402.497 733.068 403.207 733.068H404.439C405.297 733.068 405.941 732.9 406.371 732.564C406.8 732.228 407.015 731.771 407.015 731.192C407.015 730.651 406.819 730.231 406.427 729.932C406.053 729.615 405.465 729.409 404.663 729.316L402.759 729.036C401.004 728.793 399.716 728.327 398.895 727.636C398.073 726.945 397.663 725.909 397.663 724.528C397.663 723.091 398.148 721.98 399.119 721.196C400.089 720.393 401.517 719.992 403.403 719.992H404.467C406.184 719.992 407.556 720.375 408.583 721.14C409.609 721.905 410.16 722.932 410.235 724.22H406.735C406.679 723.809 406.445 723.473 406.035 723.212C405.643 722.951 405.12 722.82 404.467 722.82H403.403C402.6 722.82 402.012 722.969 401.639 723.268C401.284 723.548 401.107 723.968 401.107 724.528C401.107 725.051 401.265 725.443 401.583 725.704C401.9 725.947 402.413 726.124 403.123 726.236L405.111 726.516C406.94 726.777 408.284 727.272 409.143 728C410.02 728.709 410.459 729.764 410.459 731.164C410.459 732.657 409.945 733.824 408.919 734.664C407.911 735.485 406.417 735.896 404.439 735.896H403.207ZM420.584 735.896C419.277 735.896 418.138 735.653 417.168 735.168C416.216 734.664 415.469 733.964 414.928 733.068C414.405 732.153 414.144 731.08 414.144 729.848V726.04C414.144 724.808 414.405 723.744 414.928 722.848C415.469 721.933 416.216 721.233 417.168 720.748C418.138 720.244 419.277 719.992 420.584 719.992C421.909 719.992 423.048 720.244 424 720.748C424.952 721.233 425.689 721.933 426.212 722.848C426.753 723.744 427.024 724.799 427.024 726.012V729.848C427.024 731.08 426.753 732.153 426.212 733.068C425.689 733.964 424.952 734.664 424 735.168C423.048 735.653 421.909 735.896 420.584 735.896ZM420.584 732.844C421.517 732.844 422.236 732.592 422.74 732.088C423.262 731.565 423.524 730.819 423.524 729.848V726.04C423.524 725.051 423.262 724.304 422.74 723.8C422.236 723.296 421.517 723.044 420.584 723.044C419.669 723.044 418.95 723.296 418.428 723.8C417.905 724.304 417.644 725.051 417.644 726.04V729.848C417.644 730.819 417.905 731.565 418.428 732.088C418.95 732.592 419.669 732.844 420.584 732.844Z" fill="#2A4385"/>
<defs>
<clipPath id="clip0_3259_539">
<rect width="82" height="125" fill="white" transform="translate(838 710)"/>
</clipPath>
<clipPath id="clip1_3259_539">
<rect width="168" height="182" fill="white" transform="translate(5489 406)"/>
</clipPath>
<clipPath id="clip2_3259_539">
<rect width="82" height="125" fill="white" transform="translate(2131 720)"/>
</clipPath>
<clipPath id="clip3_3259_539">
<rect width="82" height="125" fill="white" transform="translate(4195 731)"/>
</clipPath>
<clipPath id="clip4_3259_539">
<rect width="82" height="125" fill="white" transform="translate(2263 723)"/>
</clipPath>
<clipPath id="clip5_3259_539">
<rect width="82" height="125" fill="white" transform="translate(2199 693)"/>
</clipPath>
</defs>
</svg>
