<svg width="116" height="104" viewBox="1998 436 116 104" fill="none" xmlns="http://www.w3.org/2000/svg">
<path d="M2089.16 508.428C2089.16 508.428 2106.4 451.773 2051.95 441.457C2051.95 441.457 2021.37 434.187 2005.72 469.447C2005.15 470.754 2004.16 471.827 2002.92 472.525C2000.99 473.601 1998.57 475.947 2001.15 480.372C2005.05 487.046 2045.34 526.851 2088.79 508.774L2089.16 508.428Z" fill="#F7F3EA" stroke="#FCB131" stroke-width="2" stroke-miterlimit="10"/>
<path d="M2090.16 509.243C2090.16 509.243 2108.45 528.975 2089.62 532.139C2076.4 534.362 2063.15 531.895 2056.44 530.231C2053.48 529.498 2050.66 528.338 2048.04 526.776C2044.17 524.47 2042.81 523.889 2035.89 517.022C2030.86 512.023 2024.42 500.643 2024.42 500.643C2035.61 507.376 2045.51 510.352 2052.17 511.8C2054.6 512.332 2058.17 513.091 2062.9 513.396C2074.68 514.156 2084.23 511.475 2090.16 509.251L2090.16 509.243Z" fill="#F7F3EA" stroke="#FCB131" stroke-width="2" stroke-miterlimit="10"/>
<path d="M2058.1 499.644C2058.1 499.644 2067.92 455.27 2034.27 442.355" stroke="#FCB131" stroke-width="2" stroke-miterlimit="10" stroke-linecap="round"/>
<path d="M2074.69 499.96C2074.69 499.96 2083.47 455.65 2045.68 441.048" stroke="#FCB131" stroke-width="2" stroke-miterlimit="10" stroke-linecap="round"/>
</svg>
