<svg width="5928" height="876" viewBox="0 0 5928 876" fill="none" xmlns="http://www.w3.org/2000/svg">
<path d="M549.85 753.151C547.93 752.725 547.385 751.493 548.783 750.712C554.377 747.561 566.37 742.587 575.637 740.81C583.672 739.271 592.395 733.681 594.599 731.501C595.097 731.004 595.665 730.53 596.329 730.057C599.15 728.091 606.947 723.306 616.807 722.382C620.031 722.074 622.899 721.174 624.771 719.847C627.876 717.668 632.759 714.636 637.001 713.807C638.068 713.594 639.063 713.334 639.869 712.931C643.922 710.918 656.579 705.138 665.846 706.109C677.01 707.27 679.806 709.165 679.806 709.165C679.806 709.165 682.864 709.425 686.87 711.983C687.936 712.67 689.24 713.239 690.757 713.641C694.17 714.565 700.498 716.508 704.48 719.303C706.732 720.89 710.239 721.885 714.055 722.311C716.615 722.595 719.53 723.187 722.138 724.324C727.352 726.622 734.557 731.573 737.093 733.349C737.805 733.846 738.61 734.297 739.535 734.699C742.166 735.86 747.949 738.229 753.945 739.602C757.477 740.431 760.132 740.976 761.98 741.332C764.777 741.853 767.361 742.634 769.66 743.582C773.31 745.121 778.453 747.443 780.799 749.314C788.171 755.212 757.595 753.838 757.595 753.838C757.595 753.838 749.371 755.283 740.838 753.459C738.255 752.914 735.411 752.725 732.685 753.08C726.167 753.909 713.7 755.259 702.607 755.094C686.704 754.88 673.81 755.094 673.81 755.094H649.539C649.539 755.094 634.062 752.014 619.889 754.454C605.715 756.894 591.541 752.559 591.541 752.559C591.541 752.559 589.171 751.399 574.358 753.933C564.237 755.662 554.804 754.194 549.85 753.08V753.151Z" fill="#F7F3EA" stroke="#2A4385" stroke-width="2" stroke-miterlimit="10"/>
<path d="M1473.43 687.333H1390.27C1387.74 687.333 1385.7 689.378 1385.7 691.9V698.689C1385.7 701.211 1387.74 703.256 1390.27 703.256H1473.43C1475.95 703.256 1478 701.211 1478 698.689V691.9C1478 689.378 1475.95 687.333 1473.43 687.333Z" fill="#F7F3EA" stroke="#2A4385" stroke-width="2" stroke-miterlimit="10"/>
<path d="M1468.04 703.615H1395.66C1393.13 703.615 1391.09 705.659 1391.09 708.181V772.632C1391.09 775.155 1393.13 777.199 1395.66 777.199H1468.04C1470.56 777.199 1472.61 775.155 1472.61 772.632V708.181C1472.61 705.659 1470.56 703.615 1468.04 703.615Z" fill="#F7F3EA" stroke="#2A4385" stroke-width="2" stroke-miterlimit="10"/>
<path d="M1472.96 734.066C1412.92 741.4 1395.84 702.862 1395.84 702.862" stroke="#2A4385" stroke-width="2" stroke-miterlimit="10"/>
<path d="M1437.39 732.598C1437.39 732.598 1472.58 732.141 1472.58 718.989" stroke="#2A4385" stroke-width="2" stroke-miterlimit="10"/>
<path d="M1391.34 733.066C1390.7 733.066 1376.12 734.616 1387.05 701.576" stroke="#2A4385" stroke-width="2" stroke-miterlimit="10"/>
<path d="M3893.61 690H3833.27C3831.44 690 3829.96 691.483 3829.96 693.313V698.239C3829.96 700.069 3831.44 701.552 3833.27 701.552H3893.61C3895.44 701.552 3896.92 700.069 3896.92 698.239V693.313C3896.92 691.483 3895.44 690 3893.61 690Z" fill="#F7F3EA" stroke="#2A4385" stroke-width="2" stroke-miterlimit="10"/>
<path d="M3889.7 701.812H3837.18C3835.35 701.812 3833.87 703.296 3833.87 705.126V751.886C3833.87 753.715 3835.35 755.199 3837.18 755.199H3889.7C3891.53 755.199 3893.01 753.715 3893.01 751.886V705.126C3893.01 703.296 3891.53 701.812 3889.7 701.812Z" fill="#F7F3EA" stroke="#2A4385" stroke-width="2" stroke-miterlimit="10"/>
<path d="M3893.27 723.905C3849.71 729.226 3837.32 701.266 3837.32 701.266" stroke="#2A4385" stroke-width="2" stroke-miterlimit="10"/>
<path d="M3867.46 722.84C3867.46 722.84 3892.99 722.509 3892.99 712.967" stroke="#2A4385" stroke-width="2" stroke-miterlimit="10"/>
<path d="M3834.05 723.18C3833.59 723.18 3823.01 724.304 3830.94 700.334" stroke="#2A4385" stroke-width="2" stroke-miterlimit="10"/>
<path d="M1354.95 614.776H1298.51C1296.65 614.776 1295.15 613.251 1295.15 611.412V603.631C1295.15 601.792 1296.67 600.268 1298.51 600.268H1354.95C1356.81 600.268 1358.32 601.792 1358.32 603.631V611.412C1358.32 612.578 1357.71 613.61 1356.79 614.215C1356.25 614.574 1355.63 614.776 1354.95 614.776Z" fill="#F7F3EA" stroke="#2A4385" stroke-width="2" stroke-miterlimit="10"/>
<path d="M1283.49 752.594C1283.13 741.287 1283.13 742.344 1283.13 738.579C1282.84 732.793 1283.13 659.153 1283.13 655.274C1283.13 655.184 1283.13 651.372 1283.11 651.26C1282.88 649.264 1293.44 625.382 1296.81 616.346C1297.17 615.404 1298.04 614.776 1299.05 614.776H1352.37C1353.7 614.776 1354.91 615.561 1355.45 616.772L1369.71 648.905C1369.91 649.331 1370 649.802 1370 650.273V752.594C1370 756.159 1368.68 759.635 1366.12 762.101C1364.98 763.2 1363.65 764.03 1362.29 764.03H1293.04C1285.11 764.03 1283.75 757.908 1283.49 752.594Z" fill="#F7F3EA" stroke="#2A4385" stroke-width="2" stroke-miterlimit="10"/>
<path d="M2204.18 754.962C2201.9 753.933 2201.28 751.004 2202.93 749.124C2209.54 741.604 2223.7 729.67 2234.62 725.415C2244.11 721.714 2254.39 708.316 2256.99 703.091C2257.59 701.884 2258.26 700.756 2259.04 699.648C2262.37 694.957 2271.58 683.479 2283.2 681.242C2287.01 680.51 2290.38 678.353 2292.61 675.186C2296.28 669.942 2302.02 662.699 2307.04 660.7C2308.29 660.205 2309.48 659.572 2310.42 658.602C2315.2 653.793 2330.13 639.959 2341.05 642.255C2354.23 645.026 2357.53 649.578 2357.53 649.578C2357.53 649.578 2361.14 650.171 2365.85 656.346C2367.1 657.969 2368.63 659.354 2370.43 660.324C2374.46 662.521 2381.95 667.191 2386.61 673.88C2389.25 677.66 2393.4 680.095 2397.93 681.124C2400.95 681.816 2404.38 683.202 2407.46 685.953C2413.61 691.474 2422.11 703.309 2425.11 707.603C2425.94 708.791 2426.9 709.86 2427.97 710.829C2431.08 713.6 2437.87 719.26 2444.96 722.605C2449.13 724.564 2452.25 725.87 2454.45 726.721C2457.75 727.988 2460.8 729.808 2463.5 732.104C2467.81 735.765 2473.87 741.326 2476.65 745.839C2485.34 759.989 2449.27 756.704 2449.27 756.704C2449.27 756.704 2439.56 760.187 2429.5 755.813C2426.46 754.487 2423.1 754.072 2419.87 754.903C2412.18 756.882 2397.47 760.108 2384.37 759.752C2365.61 759.237 2350.4 759.771 2350.4 759.771H2321.75C2321.75 759.771 2303.51 752.409 2286.77 758.228C2270.03 764.046 2253.32 753.676 2253.32 753.676C2253.32 753.676 2250.54 750.905 2233.05 756.961C2221.12 761.097 2210 757.594 2204.14 754.942L2204.18 754.962Z" fill="#F7F3EA" stroke="#2A4385" stroke-width="2" stroke-miterlimit="10"/>
<path d="M2803.08 81H2795.95C2793.95 81 2792.33 82.7524 2792.33 84.9142V106.834C2792.33 108.996 2793.95 110.748 2795.95 110.748H2803.08C2805.07 110.748 2806.69 108.996 2806.69 106.834V84.9142C2806.69 82.7524 2805.07 81 2803.08 81Z" fill="#F7F3EA" stroke="#2A4385" stroke-width="2" stroke-miterlimit="10"/>
<path d="M3259.56 82.0259H3252.42C3250.43 82.0259 3248.81 83.7783 3248.81 85.9401V107.86C3248.81 110.021 3250.43 111.774 3252.42 111.774H3259.56C3261.55 111.774 3263.17 110.021 3263.17 107.86V85.9401C3263.17 83.7783 3261.55 82.0259 3259.56 82.0259Z" fill="#F7F3EA" stroke="#2A4385" stroke-width="2" stroke-miterlimit="10"/>
<path d="M2800.17 110.748H2798.86C2796.95 110.748 2795.41 112.379 2795.41 114.392V706.166C2795.41 708.179 2796.95 709.81 2798.86 709.81H2800.17C2802.07 709.81 2803.61 708.179 2803.61 706.166V114.392C2803.61 112.379 2802.07 110.748 2800.17 110.748Z" fill="#F7F3EA" stroke="#2A4385" stroke-width="2" stroke-miterlimit="10"/>
<path d="M3256.8 111.786H3255.41C3253.4 111.786 3251.77 113.417 3251.77 115.43V707.326C3251.77 709.339 3253.4 710.971 3255.41 710.971H3256.8C3258.81 710.971 3260.45 709.339 3260.45 707.326V115.43C3260.45 113.417 3258.81 111.786 3256.8 111.786Z" fill="#F7F3EA" stroke="#2A4385" stroke-width="2" stroke-miterlimit="10"/>
<path d="M3267.89 168H2789.75C2787.73 168 2786.1 169.632 2786.1 171.645V174.294C2786.1 176.307 2787.73 177.938 2789.75 177.938H3267.89C3269.9 177.938 3271.53 176.307 3271.53 174.294V171.645C3271.53 169.632 3269.9 168 3267.89 168Z" fill="#F7F3EA" stroke="#2A4385" stroke-width="2" stroke-miterlimit="10"/>
<path d="M3267.89 328.682H2789.75C2787.73 328.682 2786.1 330.314 2786.1 332.327V334.975C2786.1 336.988 2787.73 338.62 2789.75 338.62H3267.89C3269.9 338.62 3271.53 336.988 3271.53 334.975V332.327C3271.53 330.314 3269.9 328.682 3267.89 328.682Z" fill="#F7F3EA" stroke="#2A4385" stroke-width="2" stroke-miterlimit="10"/>
<path d="M3267.89 647.543H2789.75C2787.73 647.543 2786.1 649.175 2786.1 651.188V653.836C2786.1 655.849 2787.73 657.481 2789.75 657.481H3267.89C3269.9 657.481 3271.53 655.849 3271.53 653.836V651.188C3271.53 649.175 3269.9 647.543 3267.89 647.543Z" fill="#F7F3EA" stroke="#2A4385" stroke-width="2" stroke-miterlimit="10"/>
<path d="M2799.96 182.069C2804.82 182.069 2808.76 178.131 2808.76 173.273C2808.76 168.415 2804.82 164.477 2799.96 164.477C2795.1 164.477 2791.16 168.415 2791.16 173.273C2791.16 178.131 2795.1 182.069 2799.96 182.069Z" fill="#F7F3EA" stroke="#2A4385" stroke-width="2" stroke-miterlimit="10"/>
<path d="M3255.71 182.579C3260.57 182.579 3264.51 178.641 3264.51 173.783C3264.51 168.925 3260.57 164.987 3255.71 164.987C3250.84 164.987 3246.9 168.925 3246.9 173.783C3246.9 178.641 3250.84 182.579 3255.71 182.579Z" fill="#F7F3EA" stroke="#2A4385" stroke-width="2" stroke-miterlimit="10"/>
<path d="M2799.96 342.678C2804.82 342.678 2808.76 338.74 2808.76 333.882C2808.76 329.024 2804.82 325.086 2799.96 325.086C2795.1 325.086 2791.16 329.024 2791.16 333.882C2791.16 338.74 2795.1 342.678 2799.96 342.678Z" fill="#F7F3EA" stroke="#2A4385" stroke-width="2" stroke-miterlimit="10"/>
<path d="M3255.71 343.212C3260.57 343.212 3264.51 339.274 3264.51 334.416C3264.51 329.559 3260.57 325.621 3255.71 325.621C3250.84 325.621 3246.9 329.559 3246.9 334.416C3246.9 339.274 3250.84 343.212 3255.71 343.212Z" fill="#F7F3EA" stroke="#2A4385" stroke-width="2" stroke-miterlimit="10"/>
<path d="M2799.96 497.479C2804.82 497.479 2808.76 493.541 2808.76 488.684C2808.76 483.826 2804.82 479.888 2799.96 479.888C2795.1 479.888 2791.16 483.826 2791.16 488.684C2791.16 493.541 2795.1 497.479 2799.96 497.479Z" fill="#F7F3EA" stroke="#2A4385" stroke-width="2" stroke-miterlimit="10"/>
<path d="M3255.71 497.99C3260.57 497.99 3264.51 494.052 3264.51 489.194C3264.51 484.336 3260.57 480.398 3255.71 480.398C3250.84 480.398 3246.9 484.336 3246.9 489.194C3246.9 494.052 3250.84 497.99 3255.71 497.99Z" fill="#F7F3EA" stroke="#2A4385" stroke-width="2" stroke-miterlimit="10"/>
<path d="M2799.96 659.595C2804.82 659.595 2808.76 655.657 2808.76 650.799C2808.76 645.941 2804.82 642.003 2799.96 642.003C2795.1 642.003 2791.16 645.941 2791.16 650.799C2791.16 655.657 2795.1 659.595 2799.96 659.595Z" fill="#F7F3EA" stroke="#2A4385" stroke-width="2" stroke-miterlimit="10"/>
<path d="M3255.71 660.105C3260.57 660.105 3264.51 656.167 3264.51 651.309C3264.51 646.451 3260.57 642.513 3255.71 642.513C3250.84 642.513 3246.9 646.451 3246.9 651.309C3246.9 656.167 3250.84 660.105 3255.71 660.105Z" fill="#F7F3EA" stroke="#2A4385" stroke-width="2" stroke-miterlimit="10"/>
<path d="M2807.28 709.81H2791.75C2789.8 709.81 2788.23 711.836 2788.23 714.336V715.542C2788.23 718.042 2789.8 720.068 2791.75 720.068H2807.28C2809.22 720.068 2810.8 718.042 2810.8 715.542V714.336C2810.8 711.836 2809.22 709.81 2807.28 709.81Z" fill="#F7F3EA" stroke="#2A4385" stroke-width="2" stroke-miterlimit="10"/>
<path d="M3257.04 764.683C3268.62 764.683 3278 755.306 3278 743.738C3278 732.171 3268.62 722.793 3257.04 722.793C3245.47 722.793 3236.08 732.171 3236.08 743.738C3236.08 755.306 3245.47 764.683 3257.04 764.683Z" fill="#F7F3EA" stroke="#2A4385" stroke-width="2" stroke-miterlimit="10"/>
<path d="M2799.96 764.586C2811.53 764.586 2820.92 755.208 2820.92 743.641C2820.92 732.074 2811.53 722.696 2799.96 722.696C2788.38 722.696 2779 732.074 2779 743.641C2779 755.208 2788.38 764.586 2799.96 764.586Z" fill="#F7F3EA" stroke="#2A4385" stroke-width="2" stroke-miterlimit="10"/>
<path d="M2801.39 719.921H2797.92C2795.9 719.921 2794.27 721.553 2794.27 723.566V741.084C2794.27 743.097 2795.9 744.729 2797.92 744.729H2801.39C2803.41 744.729 2805.04 743.097 2805.04 741.084V723.566C2805.04 721.553 2803.41 719.921 2801.39 719.921Z" fill="#F7F3EA" stroke="#2A4385" stroke-width="2" stroke-miterlimit="10"/>
<path d="M3264.62 709.81H3248.38C3246.35 709.81 3244.71 712.039 3244.71 714.788V716.116C3244.71 718.865 3246.35 721.094 3248.38 721.094H3264.62C3266.65 721.094 3268.3 718.865 3268.3 716.116V714.788C3268.3 712.039 3266.65 709.81 3264.62 709.81Z" fill="#F7F3EA" stroke="#2A4385" stroke-width="2" stroke-miterlimit="10"/>
<path d="M3258.48 721.068H3255C3252.99 721.068 3251.35 722.7 3251.35 724.713V742.232C3251.35 744.245 3252.99 745.876 3255 745.876H3258.48C3260.49 745.876 3262.12 744.245 3262.12 742.232V724.713C3262.12 722.7 3260.49 721.068 3258.48 721.068Z" fill="#F7F3EA" stroke="#2A4385" stroke-width="2" stroke-miterlimit="10"/>
<path d="M2803.99 372.929L3251.77 601.644V610.732L2803.99 381.19V372.929Z" fill="#F7F3EA" stroke="#2A4385" stroke-width="2" stroke-miterlimit="10"/>
<path d="M3251.89 372.325L2803.61 600.825V610.308L3251.59 381.557L3251.59 372.325" fill="#F7F3EA"/>
<path d="M3251.89 372.325L2803.61 600.825V610.308L3251.59 381.557L3251.59 372.325" stroke="#2A4385" stroke-width="2" stroke-miterlimit="10"/>
<path d="M3027.48 502.946C3033.62 502.946 3038.59 497.975 3038.59 491.842C3038.59 485.709 3033.62 480.738 3027.48 480.738C3021.34 480.738 3016.37 485.709 3016.37 491.842C3016.37 497.975 3021.34 502.946 3027.48 502.946Z" fill="#F7F3EA" stroke="#2A4385" stroke-width="2" stroke-miterlimit="10"/>
<path d="M2894.8 265.643H2837.58C2836.38 265.643 2835.41 267.013 2835.41 268.703V268.737C2835.41 270.427 2836.38 271.797 2837.58 271.797H2894.8C2895.99 271.797 2896.96 270.427 2896.96 268.737V268.703C2896.96 267.013 2895.99 265.643 2894.8 265.643Z" fill="#F7F3EA" stroke="#2A4385" stroke-width="2" stroke-miterlimit="10"/>
<path d="M2887.15 271.797H2844.2C2842.18 271.797 2840.54 273.498 2840.54 275.596V324.418C2840.54 326.515 2842.18 328.216 2844.2 328.216H2887.15C2889.17 328.216 2890.81 326.515 2890.81 324.418V275.596C2890.81 273.498 2889.17 271.797 2887.15 271.797Z" fill="#F7F3EA" stroke="#2A4385" stroke-width="2" stroke-miterlimit="10"/>
<ellipse cx="4374.5" cy="603" rx="126.5" ry="130" fill="#D9D9D9"/>
<path d="M4331.18 612.254C4330.15 612.254 4329.25 612.089 4328.49 611.759C4327.74 611.429 4327.14 610.972 4326.7 610.388C4326.26 609.795 4326 609.105 4325.91 608.318L4325.9 608.217H4328.11L4328.14 608.331C4328.27 608.983 4328.59 609.495 4329.09 609.867C4329.6 610.231 4330.3 610.413 4331.2 610.413C4331.8 610.413 4332.31 610.333 4332.73 610.172C4333.16 610.011 4333.49 609.787 4333.72 609.499C4333.96 609.203 4334.08 608.856 4334.08 608.458V608.445C4334.08 607.971 4333.93 607.59 4333.63 607.303C4333.34 607.007 4332.81 606.765 4332.05 606.579L4329.95 606.071C4329.12 605.868 4328.43 605.606 4327.88 605.284C4327.34 604.954 4326.93 604.552 4326.66 604.078C4326.39 603.604 4326.26 603.046 4326.26 602.402V602.39C4326.26 601.628 4326.46 600.955 4326.88 600.371C4327.29 599.787 4327.86 599.33 4328.59 599C4329.33 598.67 4330.18 598.505 4331.13 598.505C4332.1 598.505 4332.93 598.674 4333.65 599.013C4334.36 599.351 4334.93 599.812 4335.35 600.396C4335.76 600.98 4336 601.641 4336.06 602.377V602.529H4333.95L4333.94 602.44C4333.84 601.814 4333.56 601.311 4333.07 600.93C4332.6 600.54 4331.95 600.346 4331.13 600.346C4330.59 600.346 4330.12 600.426 4329.74 600.587C4329.35 600.748 4329.05 600.976 4328.83 601.272C4328.62 601.56 4328.52 601.899 4328.52 602.288V602.301C4328.52 602.605 4328.58 602.876 4328.72 603.113C4328.86 603.35 4329.09 603.558 4329.39 603.735C4329.71 603.913 4330.11 604.065 4330.6 604.192L4332.69 604.7C4334.02 605.022 4334.96 605.466 4335.51 606.033C4336.06 606.592 4336.34 607.341 4336.34 608.28V608.306C4336.34 609.076 4336.11 609.761 4335.66 610.362C4335.22 610.955 4334.6 611.42 4333.82 611.759C4333.04 612.089 4332.16 612.254 4331.18 612.254ZM4344.21 612.254C4342.96 612.254 4341.88 611.97 4340.96 611.403C4340.04 610.836 4339.33 610.041 4338.83 609.017C4338.33 607.984 4338.08 606.765 4338.08 605.36V605.348C4338.08 603.96 4338.33 602.754 4338.84 601.729C4339.35 600.697 4340.06 599.901 4340.97 599.343C4341.89 598.784 4342.96 598.505 4344.18 598.505C4345.29 598.505 4346.24 598.716 4347.03 599.14C4347.81 599.563 4348.44 600.113 4348.89 600.79C4349.35 601.459 4349.62 602.174 4349.72 602.936L4349.73 603.037H4347.57L4347.55 602.936C4347.39 602.275 4347.03 601.7 4346.48 601.209C4345.93 600.71 4345.16 600.46 4344.18 600.46C4343.42 600.46 4342.75 600.663 4342.16 601.069C4341.59 601.467 4341.14 602.034 4340.82 602.771C4340.5 603.498 4340.34 604.366 4340.34 605.373V605.386C4340.34 606.41 4340.5 607.29 4340.82 608.026C4341.15 608.754 4341.61 609.317 4342.19 609.715C4342.77 610.104 4343.45 610.299 4344.21 610.299C4345.11 610.299 4345.85 610.07 4346.42 609.613C4346.98 609.156 4347.36 608.56 4347.56 607.823L4347.58 607.722H4349.76L4349.74 607.811C4349.62 608.648 4349.3 609.406 4348.8 610.083C4348.31 610.752 4347.67 611.281 4346.89 611.67C4346.11 612.059 4345.22 612.254 4344.21 612.254ZM4355.76 612.254C4354.89 612.254 4354.12 612.089 4353.45 611.759C4352.79 611.429 4352.27 610.963 4351.9 610.362C4351.53 609.761 4351.34 609.059 4351.34 608.255V608.229C4351.34 607.476 4351.53 606.825 4351.91 606.274C4352.29 605.716 4352.84 605.276 4353.55 604.954C4354.27 604.632 4355.14 604.442 4356.15 604.383L4361.05 604.104V605.817L4356.41 606.097C4355.51 606.147 4354.82 606.359 4354.33 606.731C4353.84 607.104 4353.6 607.603 4353.6 608.229V608.255C4353.6 608.898 4353.84 609.406 4354.33 609.778C4354.81 610.151 4355.45 610.337 4356.24 610.337C4356.95 610.337 4357.58 610.193 4358.13 609.905C4358.69 609.609 4359.13 609.207 4359.46 608.699C4359.79 608.191 4359.95 607.616 4359.95 606.973V603.05C4359.95 602.237 4359.7 601.603 4359.19 601.146C4358.69 600.688 4357.97 600.46 4357.04 600.46C4356.2 600.46 4355.51 600.642 4354.99 601.006C4354.47 601.361 4354.14 601.831 4354.01 602.415L4353.98 602.529H4351.85L4351.86 602.39C4351.93 601.662 4352.18 601.006 4352.61 600.422C4353.04 599.838 4353.64 599.372 4354.39 599.025C4355.15 598.678 4356.04 598.505 4357.07 598.505C4358.12 598.505 4359.02 598.683 4359.77 599.038C4360.53 599.394 4361.12 599.897 4361.54 600.549C4361.95 601.201 4362.16 601.966 4362.16 602.847V612H4359.95V609.867H4359.89C4359.62 610.35 4359.28 610.769 4358.86 611.124C4358.44 611.479 4357.97 611.759 4357.44 611.962C4356.91 612.157 4356.35 612.254 4355.76 612.254ZM4369.43 612.241C4368.2 612.241 4367.28 611.953 4366.68 611.378C4366.08 610.802 4365.78 609.884 4365.78 608.623V600.587H4363.82V598.759H4365.78V595.191H4368.06V598.759H4370.61V600.587H4368.06V608.56C4368.06 609.271 4368.21 609.757 4368.52 610.02C4368.82 610.273 4369.28 610.4 4369.88 610.4C4370.02 610.4 4370.15 610.396 4370.27 610.388C4370.4 610.371 4370.51 610.358 4370.61 610.35V612.152C4370.47 612.169 4370.29 612.186 4370.08 612.203C4369.87 612.229 4369.65 612.241 4369.43 612.241ZM4378.22 612.254C4376.99 612.254 4375.92 611.975 4374.99 611.416C4374.07 610.857 4373.35 610.062 4372.84 609.029C4372.33 607.997 4372.07 606.778 4372.07 605.373V605.348C4372.07 603.943 4372.33 602.728 4372.84 601.704C4373.35 600.68 4374.07 599.893 4374.99 599.343C4375.92 598.784 4376.99 598.505 4378.21 598.505C4379.43 598.505 4380.5 598.784 4381.42 599.343C4382.34 599.893 4383.06 600.68 4383.56 601.704C4384.08 602.728 4384.34 603.943 4384.34 605.348V605.373C4384.34 606.786 4384.08 608.009 4383.56 609.042C4383.06 610.066 4382.34 610.857 4381.42 611.416C4380.5 611.975 4379.44 612.254 4378.22 612.254ZM4378.22 610.299C4379.01 610.299 4379.69 610.104 4380.26 609.715C4380.84 609.326 4381.28 608.767 4381.6 608.039C4381.92 607.303 4382.08 606.414 4382.08 605.373V605.348C4382.08 604.315 4381.92 603.435 4381.6 602.707C4381.28 601.971 4380.83 601.412 4380.25 601.031C4379.67 600.65 4378.99 600.46 4378.21 600.46C4377.44 600.46 4376.76 600.655 4376.17 601.044C4375.59 601.425 4375.14 601.979 4374.82 602.707C4374.49 603.435 4374.33 604.315 4374.33 605.348V605.373C4374.33 606.414 4374.49 607.303 4374.82 608.039C4375.14 608.767 4375.59 609.326 4376.17 609.715C4376.76 610.104 4377.44 610.299 4378.22 610.299ZM4386.79 612V593.604H4389V612H4386.79ZM4397.59 612.254C4396.36 612.254 4395.29 611.975 4394.37 611.416C4393.44 610.857 4392.73 610.062 4392.21 609.029C4391.7 607.997 4391.45 606.778 4391.45 605.373V605.348C4391.45 603.943 4391.7 602.728 4392.21 601.704C4392.73 600.68 4393.44 599.893 4394.37 599.343C4395.29 598.784 4396.36 598.505 4397.58 598.505C4398.81 598.505 4399.88 598.784 4400.79 599.343C4401.71 599.893 4402.43 600.68 4402.94 601.704C4403.45 602.728 4403.71 603.943 4403.71 605.348V605.373C4403.71 606.786 4403.45 608.009 4402.94 609.042C4402.43 610.066 4401.71 610.857 4400.79 611.416C4399.88 611.975 4398.81 612.254 4397.59 612.254ZM4397.59 610.299C4398.38 610.299 4399.06 610.104 4399.64 609.715C4400.21 609.326 4400.66 608.767 4400.97 608.039C4401.29 607.303 4401.45 606.414 4401.45 605.373V605.348C4401.45 604.315 4401.29 603.435 4400.97 602.707C4400.66 601.971 4400.21 601.412 4399.62 601.031C4399.05 600.65 4398.37 600.46 4397.58 600.46C4396.81 600.46 4396.13 600.655 4395.55 601.044C4394.96 601.425 4394.51 601.979 4394.19 602.707C4393.87 603.435 4393.71 604.315 4393.71 605.348V605.373C4393.71 606.414 4393.87 607.303 4394.19 608.039C4394.51 608.767 4394.96 609.326 4395.55 609.715C4396.13 610.104 4396.81 610.299 4397.59 610.299ZM4406.03 612V598.759H4408.24V600.65H4408.32C4408.67 600.024 4409.18 599.512 4409.86 599.114C4410.53 598.708 4411.37 598.505 4412.37 598.505C4413.82 598.505 4414.95 598.945 4415.76 599.825C4416.56 600.697 4416.96 601.89 4416.96 603.405V612H4414.76V603.812C4414.76 602.72 4414.5 601.89 4413.99 601.323C4413.49 600.748 4412.72 600.46 4411.7 600.46C4411 600.46 4410.4 600.617 4409.88 600.93C4409.36 601.234 4408.96 601.666 4408.67 602.225C4408.39 602.783 4408.24 603.443 4408.24 604.205V612H4406.03ZM4420.01 612V598.759H4422.22V612H4420.01ZM4421.12 596.486C4420.74 596.486 4420.41 596.351 4420.13 596.08C4419.86 595.801 4419.72 595.471 4419.72 595.09C4419.72 594.692 4419.86 594.362 4420.13 594.1C4420.41 593.829 4420.74 593.693 4421.12 593.693C4421.51 593.693 4421.84 593.829 4422.11 594.1C4422.38 594.362 4422.51 594.692 4422.51 595.09C4422.51 595.471 4422.38 595.801 4422.11 596.08C4421.84 596.351 4421.51 596.486 4421.12 596.486Z" fill="black"/>
<path d="M3522.6 707.282H3416.79C3415.8 707.282 3415 708.08 3415 709.064V753.218C3415 754.202 3415.8 755 3416.79 755H3522.6C3523.58 755 3524.38 754.202 3524.38 753.218V709.064C3524.38 708.08 3523.58 707.282 3522.6 707.282Z" fill="#F7F3EA" stroke="#2A4385" stroke-width="2" stroke-miterlimit="10"/>
<path d="M3631.98 707.282H3526.17C3525.18 707.282 3524.38 708.08 3524.38 709.064V753.218C3524.38 754.202 3525.18 755 3526.17 755H3631.98C3632.97 755 3633.77 754.202 3633.77 753.218V709.064C3633.77 708.08 3632.97 707.282 3631.98 707.282Z" fill="#F7F3EA" stroke="#2A4385" stroke-width="2" stroke-miterlimit="10"/>
<path d="M3741.38 707.282H3635.56C3634.58 707.282 3633.78 708.08 3633.78 709.064V753.218C3633.78 754.202 3634.58 755 3635.56 755H3741.38C3742.36 755 3743.16 754.202 3743.16 753.218V709.064C3743.16 708.08 3742.36 707.282 3741.38 707.282Z" fill="#F7F3EA" stroke="#2A4385" stroke-width="2" stroke-miterlimit="10"/>
<path d="M3581.44 658.851H3475.62C3474.64 658.851 3473.84 659.648 3473.84 660.632V704.787C3473.84 705.771 3474.64 706.569 3475.62 706.569H3581.44C3582.42 706.569 3583.22 705.771 3583.22 704.787V660.632C3583.22 659.648 3582.42 658.851 3581.44 658.851Z" fill="#F7F3EA" stroke="#2A4385" stroke-width="2" stroke-miterlimit="10"/>
<path d="M3690.83 658.851H3585.02C3584.03 658.851 3583.23 659.648 3583.23 660.632V704.787C3583.23 705.771 3584.03 706.569 3585.02 706.569H3690.83C3691.82 706.569 3692.62 705.771 3692.62 704.787V660.632C3692.62 659.648 3691.82 658.851 3690.83 658.851Z" fill="#F7F3EA" stroke="#2A4385" stroke-width="2" stroke-miterlimit="10"/>
<path d="M3800.21 658.851H3694.4C3693.42 658.851 3692.62 659.648 3692.62 660.632V704.787C3692.62 705.771 3693.42 706.569 3694.4 706.569H3800.21C3801.2 706.569 3802 705.771 3802 704.787V660.632C3802 659.648 3801.2 658.851 3800.21 658.851Z" fill="#F7F3EA" stroke="#2A4385" stroke-width="2" stroke-miterlimit="10"/>
<path d="M3526.75 610.419H3420.94C3419.95 610.419 3419.15 611.217 3419.15 612.201V656.356C3419.15 657.34 3419.95 658.138 3420.94 658.138H3526.75C3527.74 658.138 3528.54 657.34 3528.54 656.356V612.201C3528.54 611.217 3527.74 610.419 3526.75 610.419Z" fill="#F7F3EA" stroke="#2A4385" stroke-width="2" stroke-miterlimit="10"/>
<path d="M3636.13 610.419H3530.32C3529.34 610.419 3528.54 611.217 3528.54 612.201V656.356C3528.54 657.34 3529.34 658.138 3530.32 658.138H3636.13C3637.12 658.138 3637.92 657.34 3637.92 656.356V612.201C3637.92 611.217 3637.12 610.419 3636.13 610.419Z" fill="#F7F3EA" stroke="#2A4385" stroke-width="2" stroke-miterlimit="10"/>
<path d="M3745.53 610.419H3639.72C3638.73 610.419 3637.93 611.217 3637.93 612.201V656.356C3637.93 657.34 3638.73 658.138 3639.72 658.138H3745.53C3746.52 658.138 3747.31 657.34 3747.31 656.356V612.201C3747.31 611.217 3746.52 610.419 3745.53 610.419Z" fill="#F7F3EA" stroke="#2A4385" stroke-width="2" stroke-miterlimit="10"/>
<path d="M3686.57 562H3580.76C3579.77 562 3578.97 562.798 3578.97 563.782V607.937C3578.97 608.921 3579.77 609.718 3580.76 609.718H3686.57C3687.56 609.718 3688.36 608.921 3688.36 607.937V563.782C3688.36 562.798 3687.56 562 3686.57 562Z" fill="#F7F3EA" stroke="#2A4385" stroke-width="2" stroke-miterlimit="10"/>
<path d="M3795.97 562H3690.15C3689.17 562 3688.37 562.798 3688.37 563.782V607.937C3688.37 608.921 3689.17 609.718 3690.15 609.718H3795.97C3796.95 609.718 3797.75 608.921 3797.75 607.937V563.782C3797.75 562.798 3796.95 562 3795.97 562Z" fill="#F7F3EA" stroke="#2A4385" stroke-width="2" stroke-miterlimit="10"/>
<path d="M3599.74 562.345C3599.74 562.345 3617.16 610.265 3654.24 576.493C3654.24 576.493 3680.17 589.429 3687.05 562.345H3599.74Z" fill="#F7F3EA" stroke="#2A4385" stroke-width="2" stroke-miterlimit="10"/>
<path d="M3643.1 706.569C3643.1 706.569 3658.84 732.18 3694.14 716.31C3695.52 715.692 3697.1 715.728 3698.45 716.405C3703.85 719.149 3721.45 722.047 3728.76 712.271C3729.99 710.632 3730.61 708.612 3730.61 706.557H3643.1V706.569Z" fill="#F7F3EA" stroke="#2A4385" stroke-width="2" stroke-miterlimit="10"/>
<path d="M3672.53 629.369L3655.61 647.615C3655.57 647.663 3655.57 647.736 3655.61 647.779C3655.66 647.821 3655.73 647.816 3655.78 647.768L3672.7 629.523C3672.74 629.474 3672.74 629.401 3672.7 629.359C3672.65 629.316 3672.58 629.321 3672.53 629.369Z" fill="#F7F3EA" stroke="#2A4385" stroke-width="2" stroke-miterlimit="10"/>
<path d="M3599.56 723.991L3582.64 742.237C3582.59 742.285 3582.59 742.358 3582.64 742.4C3582.69 742.443 3582.76 742.438 3582.8 742.39L3599.72 724.144C3599.77 724.096 3599.77 724.023 3599.72 723.98C3599.68 723.938 3599.6 723.943 3599.56 723.991Z" fill="#F7F3EA" stroke="#2A4385" stroke-width="2" stroke-miterlimit="10"/>
<path d="M3583.03 721.905L3566.11 740.151C3566.06 740.199 3566.06 740.273 3566.11 740.315C3566.16 740.357 3566.23 740.353 3566.27 740.304L3583.19 722.059C3583.24 722.011 3583.24 721.937 3583.19 721.895C3583.15 721.853 3583.07 721.857 3583.03 721.905Z" fill="#F7F3EA" stroke="#2A4385" stroke-width="2" stroke-miterlimit="10"/>
<path d="M3775.72 658.85C3775.72 658.85 3779.66 684.462 3788.49 668.591C3788.84 667.973 3789.23 668.009 3789.58 668.686C3790.93 671.43 3795.34 674.329 3797.16 664.552C3797.47 662.913 3797.62 660.893 3797.62 658.838H3775.72V658.85Z" fill="#2A4385" stroke="#2A4385" stroke-width="2" stroke-miterlimit="10"/>
<path d="M3425.13 610.419C3425.13 610.419 3436.8 629.283 3461.63 615.991C3461.63 615.991 3478.99 621.087 3483.61 610.419H3425.13Z" fill="#2A4385" stroke="#2A4385" stroke-width="2" stroke-miterlimit="10"/>
</svg>
