<svg xmlns="http://www.w3.org/2000/svg" width="23000" height="1117" fill="none" viewBox="0 0 23000 1117">
<path fill="#f7f3ea" stroke="#2a4385" stroke-linecap="round" stroke-linejoin="round" stroke-width="1.859" d="M2754.34 953.598h-16.82c-.82 0-1.49.662-1.49 1.48v26.645c0 .818.67 1.48 1.49 1.48h16.82c.82 0 1.48-.662 1.48-1.48v-26.645c0-.818-.66-1.48-1.48-1.48m-510.72 0h-16.82c-.82 0-1.48.662-1.48 1.48v26.645c0 .818.66 1.48 1.48 1.48h16.82c.82 0 1.49-.662 1.49-1.48v-26.645c0-.818-.67-1.48-1.49-1.48"/>
<path stroke="#f7f3ea" stroke-miterlimit="10" stroke-width="1.395" d="M2479.21 664.965h19.68m-19.76 275.824h19.66"/>
<path fill="#f7f3ea" d="M2745.37 671.355H2245.2v274.837h500.17z"/>
<path fill="#2a4385" stroke="#2a4385" stroke-miterlimit="10" stroke-width="1.859" d="M2229.54 671.043h524.61c2.07 0 3.73 1.791 3.73 4.011v5.989c0 2.754-2.09 5-4.65 5h-523.69c-2.57 0-4.66-2.246-4.66-5v-5c0-2.754 2.09-5 4.66-5Z"/>
<path fill="#f7f3ea" stroke="#2a4385" stroke-miterlimit="10" stroke-width="1.859" d="M2229.54 787.043h523.6c2.07 0 3.74 1.695 3.74 3.795v9.41c0 2.1-1.67 3.795-3.74 3.795h-523.6c-2.56 0-4.66-2.125-4.66-4.731v-7.538c0-2.606 2.1-4.731 4.66-4.731Z"/>
<path fill="#f7f3ea" stroke="#2a4385" stroke-miterlimit="10" stroke-width="1.859" d="M2757.18 950.196V672.545c0-2.1-1.7-3.803-3.81-3.803h-26.54a3.81 3.81 0 0 0-3.81 3.803v277.651a3.81 3.81 0 0 0 3.81 3.803h26.54c2.11 0 3.81-1.702 3.81-3.803Zm-532.09.028V672.573a3.8 3.8 0 0 1 3.81-3.803h26.54c2.1 0 3.81 1.698 3.81 3.803v276.713c0 .304-.03 2.003-1.4 3.346a4.76 4.76 0 0 1-3.35 1.395h-25.58a3.8 3.8 0 0 1-3.81-3.803zm271.03-6.692V654.751a4.82 4.82 0 0 0-4.82-4.817h-4.62a4.82 4.82 0 0 0-4.83 4.817v288.781a4.82 4.82 0 0 0 4.83 4.818h4.62a4.82 4.82 0 0 0 4.82-4.818Z"/>
<path fill="#f7f3ea" stroke="#2a4385" stroke-linecap="round" stroke-linejoin="round" stroke-width="1.859" d="M2580.67 743.61h-60.24c-.94 0-1.8-.482-2.31-1.293l-4.7-7.479c-1.17-1.877.13-4.311 2.31-4.311h69.64c2.16 0 3.48 2.46 2.31 4.311l-4.7 7.479a2.72 2.72 0 0 1-2.31 1.293"/>
<path fill="#2a4385" stroke="#2a4385" stroke-linecap="round" stroke-linejoin="round" stroke-width="1.859" d="M2580.67 755.02h-60.24c-.94 0-1.8-.482-2.31-1.293l-4.7-7.479c-1.17-1.877.13-4.31 2.31-4.31h69.64c2.16 0 3.48 2.459 2.31 4.31l-4.7 7.479a2.72 2.72 0 0 1-2.31 1.293"/>
<path fill="#f7f3ea" stroke="#2a4385" stroke-linecap="round" stroke-linejoin="round" stroke-width="1.859" d="M2580.67 764.727h-60.24c-.94 0-1.8-.482-2.31-1.293l-4.7-7.479c-1.17-1.876.13-4.31 2.31-4.31h69.64c2.16 0 3.48 2.459 2.31 4.31l-4.7 7.479a2.72 2.72 0 0 1-2.31 1.293"/>
<path fill="#2a4385" stroke="#2a4385" stroke-linecap="round" stroke-linejoin="round" stroke-width="1.859" d="M2580.67 775.001h-60.24c-.94 0-1.8-.482-2.31-1.293l-4.7-7.48c-1.17-1.876.13-4.31 2.31-4.31h69.64c2.16 0 3.48 2.459 2.31 4.31l-4.7 7.48a2.72 2.72 0 0 1-2.31 1.293"/>
<path fill="#f7f3ea" stroke="#2a4385" stroke-linecap="round" stroke-linejoin="round" stroke-width="1.859" d="M2580.67 785.852h-60.24c-.94 0-1.8-.482-2.31-1.293l-4.7-7.479c-1.17-1.876.13-4.31 2.31-4.31h69.64c2.16 0 3.48 2.459 2.31 4.31l-4.7 7.479a2.72 2.72 0 0 1-2.31 1.293m102.61-42.242h-60.25c-.93 0-1.8-.482-2.31-1.293l-4.69-7.479c-1.17-1.877.12-4.311 2.31-4.311h69.64c2.15 0 3.47 2.46 2.31 4.311l-4.7 7.479a2.72 2.72 0 0 1-2.31 1.293"/>
<path fill="#2a4385" stroke="#2a4385" stroke-linecap="round" stroke-linejoin="round" stroke-width="1.859" d="M2683.28 755.02h-60.25c-.93 0-1.8-.482-2.31-1.293l-4.69-7.479c-1.17-1.877.12-4.31 2.31-4.31h69.64c2.15 0 3.47 2.459 2.31 4.31l-4.7 7.479a2.72 2.72 0 0 1-2.31 1.293"/>
<path fill="#f7f3ea" stroke="#2a4385" stroke-linecap="round" stroke-linejoin="round" stroke-width="1.859" d="M2683.28 764.727h-60.25c-.93 0-1.8-.482-2.31-1.293l-4.69-7.479c-1.17-1.876.12-4.31 2.31-4.31h69.64c2.15 0 3.47 2.459 2.31 4.31l-4.7 7.479a2.72 2.72 0 0 1-2.31 1.293"/>
<path fill="#2a4385" stroke="#2a4385" stroke-linecap="round" stroke-linejoin="round" stroke-width="1.859" d="M2683.28 775.001h-60.25c-.93 0-1.8-.482-2.31-1.293l-4.69-7.48c-1.17-1.876.12-4.31 2.31-4.31h69.64c2.15 0 3.47 2.459 2.31 4.31l-4.7 7.48a2.72 2.72 0 0 1-2.31 1.293"/>
<path fill="#f7f3ea" stroke="#2a4385" stroke-linecap="round" stroke-linejoin="round" stroke-width="1.859" d="M2683.28 785.852h-60.25c-.93 0-1.8-.482-2.31-1.293l-4.69-7.479c-1.17-1.876.12-4.31 2.31-4.31h69.64c2.15 0 3.47 2.459 2.31 4.31l-4.7 7.479a2.72 2.72 0 0 1-2.31 1.293m-327.07-38.563h-69.87a5.09 5.09 0 0 0-5.1 5.084c0 2.807 2.28 5.083 5.1 5.083h69.87c2.82 0 5.11-2.276 5.11-5.083s-2.29-5.084-5.11-5.084"/>
<path fill="#f7f3ea" stroke="#2a4385" stroke-linecap="round" stroke-linejoin="round" stroke-width="1.859" d="M2291.78 747.695h59.02c1.14 0 2.06.913 2.06 2.054V778.5c0 4.209-3.43 7.632-7.65 7.632h-47.84c-4.22 0-7.65-3.423-7.65-7.632v-28.751c0-1.141.91-2.054 2.06-2.054m164.14-.199h-69.87a5.09 5.09 0 0 0-5.1 5.084c0 2.807 2.28 5.083 5.1 5.083h69.87c2.82 0 5.1-2.276 5.1-5.083a5.09 5.09 0 0 0-5.1-5.084"/>
<path fill="#f7f3ea" stroke="#2a4385" stroke-linecap="round" stroke-linejoin="round" stroke-width="1.859" d="M2391.49 747.93h59.02c1.14 0 2.06.912 2.06 2.053v28.752c0 4.208-3.43 7.631-7.65 7.631h-47.84c-4.22 0-7.65-3.423-7.65-7.631v-28.752a2.05 2.05 0 0 1 2.06-2.053"/>
<path fill="#2a4385" stroke="#2a4385" stroke-linecap="round" stroke-linejoin="round" stroke-width="1.859" d="M2452.44 824.391h-163.78a3.8 3.8 0 0 0-3.81 3.803v3.98c0 2.101 1.7 3.803 3.81 3.803h163.78c2.11 0 3.81-1.702 3.81-3.803v-3.98c0-2.101-1.7-3.803-3.81-3.803"/>
<path fill="#f7f3ea" stroke="#2a4385" stroke-miterlimit="10" stroke-width="1.859" d="M2786.29 647.902h-578.58a3.81 3.81 0 0 0-3.81 3.803V667.4a3.81 3.81 0 0 0 3.81 3.803h578.58a3.8 3.8 0 0 0 3.8-3.803v-15.695a3.8 3.8 0 0 0-3.8-3.803Zm-31.85 289.059H2228.9a3.803 3.803 0 0 0-3.81 3.803v9.432c0 2.1 1.7 3.803 3.81 3.803h525.54a3.81 3.81 0 0 0 3.81-3.803v-9.432a3.81 3.81 0 0 0-3.81-3.803Z"/>
<path fill="#2a4385" stroke="#2a4385" stroke-linecap="round" stroke-linejoin="round" stroke-width="1.859" d="M2691.32 824.391h-163.78a3.8 3.8 0 0 0-3.81 3.803v3.98c0 2.101 1.7 3.803 3.81 3.803h163.78c2.11 0 3.81-1.702 3.81-3.803v-3.98c0-2.101-1.7-3.803-3.81-3.803"/>
<g clip-path="url(#c)"><path fill="#f7f3ea" d="m55.336 589.462 42.536-45.31 21.281 24.298-4.841 19.249z"/><path fill="#f7f3ea" d="M48.37 595.807c-12.625-4.682-16.214-18.728-14.596-27.711 2.182-12.085 16.088-19.728 31.163-16.866.915-1.438 6.742-12.649 18.974-14.539 11.26-1.748 20.31 5.542 21.83 6.671"/><path stroke="#2a4385" stroke-linecap="round" stroke-linejoin="round" stroke-width="2" d="M48.37 595.807c-12.625-4.682-16.214-18.728-14.596-27.711 2.182-12.085 16.088-19.728 31.163-16.866.915-1.438 6.742-12.649 18.974-14.539 11.26-1.748 20.31 5.542 21.83 6.671"/><path fill="#f7f3ea" d="M99.73 547.704c13.302-10.421 31.191-5.923 37.033 4.583 5.714 10.266-2.478 29.05-17.665 35.34"/><path stroke="#2a4385" stroke-linecap="round" stroke-linejoin="round" stroke-width="2" d="M99.73 547.704c13.302-10.421 31.191-5.923 37.033 4.583 5.714 10.266-2.478 29.05-17.665 35.34"/><path fill="#f7f3ea" d="M49.385 585.863c1.604 11.367 2.449 31.857 1.365 46.734a184 184 0 0 1-1.703 14.991h60.777a309 309 0 0 1 2.872-32.745c1.604-11.282 3.715-25.101 6.024-34.366"/><path stroke="#2a4385" stroke-linecap="round" stroke-miterlimit="10" stroke-width="2" d="M49.385 585.863c1.604 11.367 2.449 31.857 1.365 46.734a184 184 0 0 1-1.703 14.991h60.777a309 309 0 0 1 2.872-32.745c1.604-11.282 3.715-25.101 6.024-34.366"/><path fill="#f7f3ea" d="M113.074 612.336c-6.038-2.454-18.804-6.388-30.05-7.262-11.57-.903-25.547.86-31.965 2.425"/><path stroke="#2a4385" stroke-miterlimit="10" stroke-width="2" d="M113.074 612.336c-6.038-2.454-18.804-6.388-30.05-7.262-11.57-.903-25.547.86-31.965 2.425"/><path fill="#f7f3ea" d="M66.697 584.836a60 60 0 0 1 1.943 8.235c.647 3.963.83 7.531.788 10.549"/><path stroke="#2a4385" stroke-linecap="round" stroke-linejoin="round" stroke-width="2" d="M66.697 584.836a60 60 0 0 1 1.943 8.235c.647 3.963.83 7.531.788 10.549"/><path fill="#f7f3ea" d="M89.681 581.918a56 56 0 0 0-1.619 10.844 55 55 0 0 0 .564 10.845"/><path stroke="#2a4385" stroke-linecap="round" stroke-linejoin="round" stroke-width="2" d="M89.681 581.918a56 56 0 0 0-1.619 10.844 55 55 0 0 0 .564 10.845"/></g>
<g clip-path="url(#d)"><path fill="#f7f3ea" d="m145.336 589.462 42.536-45.31 21.281 24.298-4.841 19.249z"/><path fill="#f7f3ea" d="M138.37 595.807c-12.625-4.682-16.214-18.728-14.596-27.711 2.182-12.085 16.088-19.728 31.163-16.866.915-1.438 6.742-12.649 18.974-14.539 11.26-1.748 20.31 5.542 21.83 6.671"/><path stroke="#2a4385" stroke-linecap="round" stroke-linejoin="round" stroke-width="2" d="M138.37 595.807c-12.625-4.682-16.214-18.728-14.596-27.711 2.182-12.085 16.088-19.728 31.163-16.866.915-1.438 6.742-12.649 18.974-14.539 11.26-1.748 20.31 5.542 21.83 6.671"/><path fill="#f7f3ea" d="M189.73 547.704c13.302-10.421 31.191-5.923 37.033 4.583 5.714 10.266-2.478 29.05-17.665 35.34"/><path stroke="#2a4385" stroke-linecap="round" stroke-linejoin="round" stroke-width="2" d="M189.73 547.704c13.302-10.421 31.191-5.923 37.033 4.583 5.714 10.266-2.478 29.05-17.665 35.34"/><path fill="#f7f3ea" d="M139.385 585.863c1.604 11.367 2.449 31.857 1.365 46.734a184 184 0 0 1-1.703 14.991h60.777a309 309 0 0 1 2.872-32.745c1.604-11.282 3.715-25.101 6.024-34.366"/><path stroke="#2a4385" stroke-linecap="round" stroke-miterlimit="10" stroke-width="2" d="M139.385 585.863c1.604 11.367 2.449 31.857 1.365 46.734a184 184 0 0 1-1.703 14.991h60.777a309 309 0 0 1 2.872-32.745c1.604-11.282 3.715-25.101 6.024-34.366"/><path fill="#f7f3ea" d="M203.074 612.336c-6.038-2.454-18.804-6.388-30.05-7.262-11.57-.903-25.547.86-31.965 2.425"/><path stroke="#2a4385" stroke-miterlimit="10" stroke-width="2" d="M203.074 612.336c-6.038-2.454-18.804-6.388-30.05-7.262-11.57-.903-25.547.86-31.965 2.425"/><path fill="#f7f3ea" d="M156.697 584.836a60 60 0 0 1 1.943 8.235c.647 3.963.83 7.531.788 10.549"/><path stroke="#2a4385" stroke-linecap="round" stroke-linejoin="round" stroke-width="2" d="M156.697 584.836a60 60 0 0 1 1.943 8.235c.647 3.963.83 7.531.788 10.549"/><path fill="#f7f3ea" d="M179.681 581.918a56 56 0 0 0-1.619 10.844 55 55 0 0 0 .563 10.845"/><path stroke="#2a4385" stroke-linecap="round" stroke-linejoin="round" stroke-width="2" d="M179.681 581.918a56 56 0 0 0-1.619 10.844 55 55 0 0 0 .563 10.845"/></g>
<g clip-path="url(#e)"><path fill="#f7f3ea" d="m229.336 589.462 42.536-45.31 21.281 24.298-4.841 19.249z"/><path fill="#f7f3ea" d="M222.37 595.807c-12.625-4.682-16.214-18.728-14.596-27.711 2.182-12.085 16.088-19.728 31.163-16.866.915-1.438 6.742-12.649 18.974-14.539 11.26-1.748 20.31 5.542 21.83 6.671"/><path stroke="#2a4385" stroke-linecap="round" stroke-linejoin="round" stroke-width="2" d="M222.37 595.807c-12.625-4.682-16.214-18.728-14.596-27.711 2.182-12.085 16.088-19.728 31.163-16.866.915-1.438 6.742-12.649 18.974-14.539 11.26-1.748 20.31 5.542 21.83 6.671"/><path fill="#f7f3ea" d="M273.73 547.704c13.302-10.421 31.191-5.923 37.033 4.583 5.714 10.266-2.478 29.05-17.665 35.34"/><path stroke="#2a4385" stroke-linecap="round" stroke-linejoin="round" stroke-width="2" d="M273.73 547.704c13.302-10.421 31.191-5.923 37.033 4.583 5.714 10.266-2.478 29.05-17.665 35.34"/><path fill="#f7f3ea" d="M223.385 585.863c1.604 11.367 2.449 31.857 1.365 46.734a184 184 0 0 1-1.703 14.991h60.777a309 309 0 0 1 2.872-32.745c1.604-11.282 3.715-25.101 6.024-34.366"/><path stroke="#2a4385" stroke-linecap="round" stroke-miterlimit="10" stroke-width="2" d="M223.385 585.863c1.604 11.367 2.449 31.857 1.365 46.734a184 184 0 0 1-1.703 14.991h60.777a309 309 0 0 1 2.872-32.745c1.604-11.282 3.715-25.101 6.024-34.366"/><path fill="#f7f3ea" d="M287.074 612.336c-6.038-2.454-18.804-6.388-30.05-7.262-11.57-.903-25.547.86-31.965 2.425"/><path stroke="#2a4385" stroke-miterlimit="10" stroke-width="2" d="M287.074 612.336c-6.038-2.454-18.804-6.388-30.05-7.262-11.57-.903-25.547.86-31.965 2.425"/><path fill="#f7f3ea" d="M240.697 584.836a60 60 0 0 1 1.943 8.235c.647 3.963.83 7.531.788 10.549"/><path stroke="#2a4385" stroke-linecap="round" stroke-linejoin="round" stroke-width="2" d="M240.697 584.836a60 60 0 0 1 1.943 8.235c.647 3.963.83 7.531.788 10.549"/><path fill="#f7f3ea" d="M263.681 581.918a56 56 0 0 0-1.619 10.844 55 55 0 0 0 .563 10.845"/><path stroke="#2a4385" stroke-linecap="round" stroke-linejoin="round" stroke-width="2" d="M263.681 581.918a56 56 0 0 0-1.619 10.844 55 55 0 0 0 .563 10.845"/></g>
<g clip-path="url(#f)"><path fill="#f7f3ea" d="m313.336 589.462 42.536-45.31 21.281 24.298-4.841 19.249z"/><path fill="#f7f3ea" d="M306.37 595.807c-12.625-4.682-16.214-18.728-14.596-27.711 2.182-12.085 16.088-19.728 31.163-16.866.915-1.438 6.742-12.649 18.974-14.539 11.26-1.748 20.31 5.542 21.83 6.671"/><path stroke="#2a4385" stroke-linecap="round" stroke-linejoin="round" stroke-width="2" d="M306.37 595.807c-12.625-4.682-16.214-18.728-14.596-27.711 2.182-12.085 16.088-19.728 31.163-16.866.915-1.438 6.742-12.649 18.974-14.539 11.26-1.748 20.31 5.542 21.83 6.671"/><path fill="#f7f3ea" d="M357.73 547.704c13.302-10.421 31.191-5.923 37.033 4.583 5.714 10.266-2.478 29.05-17.665 35.34"/><path stroke="#2a4385" stroke-linecap="round" stroke-linejoin="round" stroke-width="2" d="M357.73 547.704c13.302-10.421 31.191-5.923 37.033 4.583 5.714 10.266-2.478 29.05-17.665 35.34"/><path fill="#f7f3ea" d="M307.385 585.863c1.604 11.367 2.449 31.857 1.365 46.734a184 184 0 0 1-1.703 14.991h60.777a309 309 0 0 1 2.872-32.745c1.604-11.282 3.715-25.101 6.024-34.366"/><path stroke="#2a4385" stroke-linecap="round" stroke-miterlimit="10" stroke-width="2" d="M307.385 585.863c1.604 11.367 2.449 31.857 1.365 46.734a184 184 0 0 1-1.703 14.991h60.777a309 309 0 0 1 2.872-32.745c1.604-11.282 3.715-25.101 6.024-34.366"/><path fill="#f7f3ea" d="M371.074 612.336c-6.038-2.454-18.804-6.388-30.05-7.262-11.57-.903-25.547.86-31.965 2.425"/><path stroke="#2a4385" stroke-miterlimit="10" stroke-width="2" d="M371.074 612.336c-6.038-2.454-18.804-6.388-30.05-7.262-11.57-.903-25.547.86-31.965 2.425"/><path fill="#f7f3ea" d="M324.697 584.836a60 60 0 0 1 1.943 8.235c.647 3.963.83 7.531.788 10.549"/><path stroke="#2a4385" stroke-linecap="round" stroke-linejoin="round" stroke-width="2" d="M324.697 584.836a60 60 0 0 1 1.943 8.235c.647 3.963.83 7.531.788 10.549"/><path fill="#f7f3ea" d="M347.681 581.918a56 56 0 0 0-1.619 10.844 55 55 0 0 0 .563 10.845"/><path stroke="#2a4385" stroke-linecap="round" stroke-linejoin="round" stroke-width="2" d="M347.681 581.918a56 56 0 0 0-1.619 10.844 55 55 0 0 0 .563 10.845"/></g>
<g clip-path="url(#g)"><path fill="#f7f3ea" d="m397.336 589.462 42.536-45.31 21.281 24.298-4.841 19.249z"/><path fill="#f7f3ea" d="M390.37 595.807c-12.625-4.682-16.214-18.728-14.596-27.711 2.182-12.085 16.088-19.728 31.163-16.866.915-1.438 6.742-12.649 18.974-14.539 11.26-1.748 20.31 5.542 21.83 6.671"/><path stroke="#2a4385" stroke-linecap="round" stroke-linejoin="round" stroke-width="2" d="M390.37 595.807c-12.625-4.682-16.214-18.728-14.596-27.711 2.182-12.085 16.088-19.728 31.163-16.866.915-1.438 6.742-12.649 18.974-14.539 11.26-1.748 20.31 5.542 21.83 6.671"/><path fill="#f7f3ea" d="M441.73 547.704c13.302-10.421 31.191-5.923 37.033 4.583 5.714 10.266-2.478 29.05-17.665 35.34"/><path stroke="#2a4385" stroke-linecap="round" stroke-linejoin="round" stroke-width="2" d="M441.73 547.704c13.302-10.421 31.191-5.923 37.033 4.583 5.714 10.266-2.478 29.05-17.665 35.34"/><path fill="#f7f3ea" d="M391.385 585.863c1.604 11.367 2.449 31.857 1.365 46.734a184 184 0 0 1-1.703 14.991h60.777a309 309 0 0 1 2.872-32.745c1.604-11.282 3.715-25.101 6.024-34.366"/><path stroke="#2a4385" stroke-linecap="round" stroke-miterlimit="10" stroke-width="2" d="M391.385 585.863c1.604 11.367 2.449 31.857 1.365 46.734a184 184 0 0 1-1.703 14.991h60.777a309 309 0 0 1 2.872-32.745c1.604-11.282 3.715-25.101 6.024-34.366"/><path fill="#f7f3ea" d="M455.074 612.336c-6.038-2.454-18.804-6.388-30.05-7.262-11.57-.903-25.547.86-31.965 2.425"/><path stroke="#2a4385" stroke-miterlimit="10" stroke-width="2" d="M455.074 612.336c-6.038-2.454-18.804-6.388-30.05-7.262-11.57-.903-25.547.86-31.965 2.425"/><path fill="#f7f3ea" d="M408.697 584.836a60 60 0 0 1 1.943 8.235c.647 3.963.83 7.531.788 10.549"/><path stroke="#2a4385" stroke-linecap="round" stroke-linejoin="round" stroke-width="2" d="M408.697 584.836a60 60 0 0 1 1.943 8.235c.647 3.963.83 7.531.788 10.549"/><path fill="#f7f3ea" d="M431.681 581.918a56 56 0 0 0-1.619 10.844 55 55 0 0 0 .563 10.845"/><path stroke="#2a4385" stroke-linecap="round" stroke-linejoin="round" stroke-width="2" d="M431.681 581.918a56 56 0 0 0-1.619 10.844 55 55 0 0 0 .563 10.845"/></g>
<g clip-path="url(#h)"><path fill="#f7f3ea" d="m481.336 589.462 42.536-45.31 21.281 24.298-4.841 19.249z"/><path fill="#f7f3ea" d="M474.37 595.807c-12.625-4.682-16.214-18.728-14.596-27.711 2.182-12.085 16.088-19.728 31.163-16.866.915-1.438 6.742-12.649 18.974-14.539 11.26-1.748 20.31 5.542 21.83 6.671"/><path stroke="#2a4385" stroke-linecap="round" stroke-linejoin="round" stroke-width="2" d="M474.37 595.807c-12.625-4.682-16.214-18.728-14.596-27.711 2.182-12.085 16.088-19.728 31.163-16.866.915-1.438 6.742-12.649 18.974-14.539 11.26-1.748 20.31 5.542 21.83 6.671"/><path fill="#f7f3ea" d="M525.73 547.704c13.302-10.421 31.191-5.923 37.033 4.583 5.714 10.266-2.478 29.05-17.665 35.34"/><path stroke="#2a4385" stroke-linecap="round" stroke-linejoin="round" stroke-width="2" d="M525.73 547.704c13.302-10.421 31.191-5.923 37.033 4.583 5.714 10.266-2.478 29.05-17.665 35.34"/><path fill="#f7f3ea" d="M475.385 585.863c1.604 11.367 2.449 31.857 1.365 46.734a184 184 0 0 1-1.703 14.991h60.777a309 309 0 0 1 2.872-32.745c1.604-11.282 3.715-25.101 6.024-34.366"/><path stroke="#2a4385" stroke-linecap="round" stroke-miterlimit="10" stroke-width="2" d="M475.385 585.863c1.604 11.367 2.449 31.857 1.365 46.734a184 184 0 0 1-1.703 14.991h60.777a309 309 0 0 1 2.872-32.745c1.604-11.282 3.715-25.101 6.024-34.366"/><path fill="#f7f3ea" d="M539.074 612.336c-6.038-2.454-18.804-6.388-30.05-7.262-11.57-.903-25.547.86-31.965 2.425"/><path stroke="#2a4385" stroke-miterlimit="10" stroke-width="2" d="M539.074 612.336c-6.038-2.454-18.804-6.388-30.05-7.262-11.57-.903-25.547.86-31.965 2.425"/><path fill="#f7f3ea" d="M492.697 584.836a60 60 0 0 1 1.943 8.235c.647 3.963.83 7.531.788 10.549"/><path stroke="#2a4385" stroke-linecap="round" stroke-linejoin="round" stroke-width="2" d="M492.697 584.836a60 60 0 0 1 1.943 8.235c.647 3.963.83 7.531.788 10.549"/><path fill="#f7f3ea" d="M515.681 581.918a56 56 0 0 0-1.619 10.844 55 55 0 0 0 .563 10.845"/><path stroke="#2a4385" stroke-linecap="round" stroke-linejoin="round" stroke-width="2" d="M515.681 581.918a56 56 0 0 0-1.619 10.844 55 55 0 0 0 .563 10.845"/></g>
<g clip-path="url(#i)"><path fill="#f7f3ea" d="m565.336 589.462 42.536-45.31 21.281 24.298-4.841 19.249z"/><path fill="#f7f3ea" d="M558.37 595.807c-12.625-4.682-16.214-18.728-14.596-27.711 2.182-12.085 16.088-19.728 31.163-16.866.915-1.438 6.742-12.649 18.974-14.539 11.26-1.748 20.31 5.542 21.83 6.671"/><path stroke="#2a4385" stroke-linecap="round" stroke-linejoin="round" stroke-width="2" d="M558.37 595.807c-12.625-4.682-16.214-18.728-14.596-27.711 2.182-12.085 16.088-19.728 31.163-16.866.915-1.438 6.742-12.649 18.974-14.539 11.26-1.748 20.31 5.542 21.83 6.671"/><path fill="#f7f3ea" d="M609.73 547.704c13.302-10.421 31.191-5.923 37.033 4.583 5.714 10.266-2.478 29.05-17.665 35.34"/><path stroke="#2a4385" stroke-linecap="round" stroke-linejoin="round" stroke-width="2" d="M609.73 547.704c13.302-10.421 31.191-5.923 37.033 4.583 5.714 10.266-2.478 29.05-17.665 35.34"/><path fill="#f7f3ea" d="M559.385 585.863c1.604 11.367 2.449 31.857 1.365 46.734a184 184 0 0 1-1.703 14.991h60.777a309 309 0 0 1 2.872-32.745c1.604-11.282 3.715-25.101 6.024-34.366"/><path stroke="#2a4385" stroke-linecap="round" stroke-miterlimit="10" stroke-width="2" d="M559.385 585.863c1.604 11.367 2.449 31.857 1.365 46.734a184 184 0 0 1-1.703 14.991h60.777a309 309 0 0 1 2.872-32.745c1.604-11.282 3.715-25.101 6.024-34.366"/><path fill="#f7f3ea" d="M623.074 612.336c-6.038-2.454-18.804-6.388-30.05-7.262-11.57-.903-25.547.86-31.965 2.425"/><path stroke="#2a4385" stroke-miterlimit="10" stroke-width="2" d="M623.074 612.336c-6.038-2.454-18.804-6.388-30.05-7.262-11.57-.903-25.547.86-31.965 2.425"/><path fill="#f7f3ea" d="M576.697 584.836a60 60 0 0 1 1.943 8.235c.647 3.963.83 7.531.788 10.549"/><path stroke="#2a4385" stroke-linecap="round" stroke-linejoin="round" stroke-width="2" d="M576.697 584.836a60 60 0 0 1 1.943 8.235c.647 3.963.83 7.531.788 10.549"/><path fill="#f7f3ea" d="M599.681 581.918a56 56 0 0 0-1.619 10.844 55 55 0 0 0 .563 10.845"/><path stroke="#2a4385" stroke-linecap="round" stroke-linejoin="round" stroke-width="2" d="M599.681 581.918a56 56 0 0 0-1.619 10.844 55 55 0 0 0 .563 10.845"/></g>
<g clip-path="url(#j)"><path fill="#f7f3ea" d="m649.336 589.462 42.536-45.31 21.281 24.298-4.841 19.249z"/><path fill="#f7f3ea" d="M642.37 595.807c-12.625-4.682-16.214-18.728-14.596-27.711 2.182-12.085 16.088-19.728 31.163-16.866.915-1.438 6.742-12.649 18.974-14.539 11.26-1.748 20.31 5.542 21.83 6.671"/><path stroke="#2a4385" stroke-linecap="round" stroke-linejoin="round" stroke-width="2" d="M642.37 595.807c-12.625-4.682-16.214-18.728-14.596-27.711 2.182-12.085 16.088-19.728 31.163-16.866.915-1.438 6.742-12.649 18.974-14.539 11.26-1.748 20.31 5.542 21.83 6.671"/><path fill="#f7f3ea" d="M693.73 547.704c13.302-10.421 31.191-5.923 37.033 4.583 5.714 10.266-2.478 29.05-17.665 35.34"/><path stroke="#2a4385" stroke-linecap="round" stroke-linejoin="round" stroke-width="2" d="M693.73 547.704c13.302-10.421 31.191-5.923 37.033 4.583 5.714 10.266-2.478 29.05-17.665 35.34"/><path fill="#f7f3ea" d="M643.385 585.863c1.604 11.367 2.449 31.857 1.365 46.734a184 184 0 0 1-1.703 14.991h60.777a309 309 0 0 1 2.872-32.745c1.604-11.282 3.715-25.101 6.024-34.366"/><path stroke="#2a4385" stroke-linecap="round" stroke-miterlimit="10" stroke-width="2" d="M643.385 585.863c1.604 11.367 2.449 31.857 1.365 46.734a184 184 0 0 1-1.703 14.991h60.777a309 309 0 0 1 2.872-32.745c1.604-11.282 3.715-25.101 6.024-34.366"/><path fill="#f7f3ea" d="M707.074 612.336c-6.038-2.454-18.804-6.388-30.05-7.262-11.57-.903-25.547.86-31.965 2.425"/><path stroke="#2a4385" stroke-miterlimit="10" stroke-width="2" d="M707.074 612.336c-6.038-2.454-18.804-6.388-30.05-7.262-11.57-.903-25.547.86-31.965 2.425"/><path fill="#f7f3ea" d="M660.697 584.836a60 60 0 0 1 1.943 8.235c.647 3.963.83 7.531.788 10.549"/><path stroke="#2a4385" stroke-linecap="round" stroke-linejoin="round" stroke-width="2" d="M660.697 584.836a60 60 0 0 1 1.943 8.235c.647 3.963.83 7.531.788 10.549"/><path fill="#f7f3ea" d="M683.681 581.918a56 56 0 0 0-1.619 10.844 55 55 0 0 0 .563 10.845"/><path stroke="#2a4385" stroke-linecap="round" stroke-linejoin="round" stroke-width="2" d="M683.681 581.918a56 56 0 0 0-1.619 10.844 55 55 0 0 0 .563 10.845"/></g>
<path fill="#f7f3ea" stroke="#2a4385" stroke-linecap="round" stroke-linejoin="round" stroke-width="2" d="M99.96 941.438H76.162c-1.16 0-2.1.951-2.1 2.125v38.256c0 1.174.94 2.125 2.1 2.125H99.96c1.16 0 2.1-.951 2.1-2.125v-38.256c0-1.174-.94-2.125-2.1-2.125m585.877 0h-23.798c-1.159 0-2.1.951-2.1 2.125v38.256c0 1.174.941 2.125 2.1 2.125h23.798c1.16 0 2.1-.951 2.1-2.125v-38.256c0-1.174-.94-2.125-2.1-2.125"/>
<path fill="#2a4385" stroke="#2a4385" stroke-linecap="round" stroke-linejoin="round" stroke-width="1.5" d="M536.449 718.486v9.25c0 1.449 1.102 2.623 2.46 2.623h65.329c1.359 0 2.46-1.174 2.46-2.623v-9.25c0-1.448-1.101-2.623-2.46-2.623h-65.329c-1.358 0-2.46 1.175-2.46 2.623"/>
<path fill="#f7f3ea" stroke="#2a4385" stroke-miterlimit="10" stroke-width="2" d="M666.442 671.508H99.775v270.188h566.667z"/>
<path fill="#f7f3ea" stroke="#2a4385" stroke-miterlimit="10" stroke-width="2" d="M666.443 926.68H91.12c-1.19 0-2.153.963-2.153 2.151v10.711c0 1.188.964 2.151 2.153 2.151h575.323a2.15 2.15 0 0 0 2.153-2.151v-10.711a2.15 2.15 0 0 0-2.153-2.151Zm48.376-279.422H47.181c-1.19 0-2.154.963-2.154 2.151v19.945c0 1.188.964 2.151 2.154 2.151h667.638a2.15 2.15 0 0 0 2.153-2.151v-19.945a2.15 2.15 0 0 0-2.153-2.151Z"/>
<path fill="#f7f3ea" stroke="#2a4385" stroke-miterlimit="10" stroke-width="2" d="M104.585 671.508h-31.25c-1.19 0-2.153.963-2.153 2.151v265.887c0 1.187.964 2.15 2.153 2.15h31.25a2.15 2.15 0 0 0 2.153-2.15V673.659a2.15 2.15 0 0 0-2.153-2.151Z"/>
<path fill="#2a4385" stroke="#2a4385" stroke-miterlimit="10" stroke-width="2" d="M654.888 671.508H108.891a2.15 2.15 0 0 0-2.153 2.151v7.169c0 1.188.964 2.151 2.153 2.151h545.997a2.15 2.15 0 0 0 2.153-2.151v-7.169a2.15 2.15 0 0 0-2.153-2.151Z"/>
<path fill="#f7f3ea" stroke="#2a4385" stroke-miterlimit="10" stroke-width="2" d="M478.237 671.508h-31.25a2.15 2.15 0 0 0-2.153 2.151v265.887c0 1.187.964 2.15 2.153 2.15h31.25c1.19 0 2.154-.963 2.154-2.15V673.659a2.15 2.15 0 0 0-2.154-2.151Z"/>
<path fill="#f7f3ea" stroke="#2a4385" stroke-miterlimit="10" stroke-width="2" d="M442.682 789.758H110.083a2.15 2.15 0 0 0-2.153 2.151v10.768c0 1.188.964 2.151 2.153 2.151h332.599a2.15 2.15 0 0 0 2.153-2.151v-10.768a2.15 2.15 0 0 0-2.153-2.151Zm247.764-118.203h-31.48a2.16 2.16 0 0 0-2.169 2.15v265.837a2.16 2.16 0 0 0 2.169 2.15h31.48a2.16 2.16 0 0 0 2.169-2.15V673.705a2.16 2.16 0 0 0-2.169-2.15Z"/>
<path fill="#2a4385" stroke="#2a4385" stroke-linecap="round" stroke-linejoin="round" stroke-width="2" d="M536.543 717.086v8.6a2.436 2.436 0 0 0 2.433 2.439h64.61a2.436 2.436 0 0 0 2.433-2.439v-8.6a2.436 2.436 0 0 0-2.433-2.439h-64.61a2.436 2.436 0 0 0-2.433 2.439"/>
<path fill="#f7f3ea" stroke="#2a4385" stroke-linecap="round" stroke-linejoin="round" stroke-width="2" d="M143.539 745.602h77.771v39.996c0 2.257-1.737 4.104-3.86 4.104H147.4c-2.124 0-3.861-1.847-3.861-4.104z"/>
<path fill="#2a4385" stroke="#2a4385" stroke-linecap="round" stroke-linejoin="round" stroke-width="2" d="M176.362 724.207h12.104c2.08 0 3.763 1.273 3.763 2.847v8.128h-19.612v-8.128c0-1.574 1.683-2.847 3.764-2.847z"/>
<path fill="#f7f3ea" stroke="#2a4385" stroke-linecap="round" stroke-linejoin="round" stroke-width="2" d="M225.57 741.316c0-.634-.95-1.148-2.12-1.148 0 0-24.891-4.988-41.026-4.988s-41.026 4.988-41.026 4.988c-1.171 0-2.121.514-2.121 1.148v3.691c0 .634.95 1.147 2.121 1.147h82.052c1.17 0 2.12-.513 2.12-1.147zm94.147 8.321h-72.38a5.29 5.29 0 0 0-5.288 5.291 5.29 5.29 0 0 0 5.288 5.292h72.38a5.29 5.29 0 0 0 5.288-5.292 5.29 5.29 0 0 0-5.288-5.291"/>
<path fill="#f7f3ea" stroke="#2a4385" stroke-linecap="round" stroke-linejoin="round" stroke-width="2" d="M252.967 750.059h61.145c1.184 0 2.131.95 2.131 2.137v29.93c0 4.381-3.552 7.944-7.919 7.944h-49.569c-4.367 0-7.919-3.563-7.919-7.944v-29.93c0-1.187.947-2.137 2.131-2.137m155.994-.422h-71.475c-2.884 0-5.222 2.369-5.222 5.291s2.338 5.292 5.222 5.292h71.475c2.884 0 5.222-2.369 5.222-5.292s-2.338-5.291-5.222-5.291"/>
<path fill="#f7f3ea" stroke="#2a4385" stroke-linecap="round" stroke-linejoin="round" stroke-width="2" d="M343.044 750.059h60.381c1.169 0 2.104.95 2.104 2.137v29.93c0 4.381-3.507 7.944-7.82 7.944H348.76c-4.313 0-7.821-3.563-7.821-7.944v-29.93c0-1.187.936-2.137 2.105-2.137M206.445 879.856h-68.691c-1.06 0-2.06-.545-2.635-1.439l-5.347-8.331c-1.333-2.075.151-4.816 2.635-4.816h79.4c2.469 0 3.968 2.741 2.635 4.816l-5.362 8.331a3.13 3.13 0 0 1-2.635 1.439"/>
<path fill="#2a4385" stroke="#2a4385" stroke-linecap="round" stroke-linejoin="round" stroke-width="2" d="M206.444 892.567h-68.69a3.15 3.15 0 0 1-2.636-1.439l-5.362-8.331c-1.333-2.075.152-4.817 2.636-4.817h79.399c2.469 0 3.969 2.742 2.636 4.817l-5.362 8.331a3.13 3.13 0 0 1-2.636 1.439z"/>
<path fill="#f7f3ea" stroke="#2a4385" stroke-linecap="round" stroke-linejoin="round" stroke-width="2" d="M206.444 903.411h-68.69a3.15 3.15 0 0 1-2.636-1.439l-5.362-8.331c-1.333-2.075.152-4.817 2.636-4.817h79.399c2.469 0 3.969 2.742 2.636 4.817l-5.362 8.331a3.13 3.13 0 0 1-2.636 1.439z"/>
<path fill="#2a4385" stroke="#2a4385" stroke-linecap="round" stroke-linejoin="round" stroke-width="2" d="M206.444 914.864h-68.69a3.15 3.15 0 0 1-2.636-1.439l-5.362-8.331c-1.333-2.075.152-4.817 2.636-4.817h79.399c2.469 0 3.969 2.742 2.636 4.817l-5.362 8.331a3.13 3.13 0 0 1-2.636 1.439z"/>
<path fill="#f7f3ea" stroke="#2a4385" stroke-linecap="round" stroke-linejoin="round" stroke-width="2" d="M206.444 926.95h-68.69a3.15 3.15 0 0 1-2.636-1.439l-5.362-8.331c-1.333-2.075.152-4.817 2.636-4.817h79.399c2.469 0 3.969 2.742 2.636 4.817l-5.362 8.331a3.13 3.13 0 0 1-2.636 1.439zm114.544-47.094h-68.691c-1.06 0-2.06-.545-2.635-1.439l-5.347-8.331c-1.333-2.075.151-4.816 2.635-4.816h79.4c2.469 0 3.968 2.741 2.635 4.816l-5.362 8.331a3.13 3.13 0 0 1-2.635 1.439"/>
<path fill="#2a4385" stroke="#2a4385" stroke-linecap="round" stroke-linejoin="round" stroke-width="2" d="M320.987 892.567h-68.69a3.15 3.15 0 0 1-2.636-1.439l-5.362-8.331c-1.333-2.075.152-4.817 2.636-4.817h79.399c2.469 0 3.969 2.742 2.636 4.817l-5.362 8.331a3.13 3.13 0 0 1-2.636 1.439z"/>
<path fill="#f7f3ea" stroke="#2a4385" stroke-linecap="round" stroke-linejoin="round" stroke-width="2" d="M320.987 903.411h-68.69a3.15 3.15 0 0 1-2.636-1.439l-5.362-8.331c-1.333-2.075.152-4.817 2.636-4.817h79.399c2.469 0 3.969 2.742 2.636 4.817l-5.362 8.331a3.13 3.13 0 0 1-2.636 1.439z"/>
<path fill="#2a4385" stroke="#2a4385" stroke-linecap="round" stroke-linejoin="round" stroke-width="2" d="M320.987 914.864h-68.69a3.15 3.15 0 0 1-2.636-1.439l-5.362-8.331c-1.333-2.075.152-4.817 2.636-4.817h79.399c2.469 0 3.969 2.742 2.636 4.817l-5.362 8.331a3.13 3.13 0 0 1-2.636 1.439z"/>
<path fill="#f7f3ea" stroke="#2a4385" stroke-linecap="round" stroke-linejoin="round" stroke-width="2" d="M320.987 926.95h-68.69a3.15 3.15 0 0 1-2.636-1.439l-5.362-8.331c-1.333-2.075.152-4.817 2.636-4.817h79.399c2.469 0 3.969 2.742 2.636 4.817l-5.362 8.331a3.13 3.13 0 0 1-2.636 1.439z"/>
<path fill="#f7f3ea" stroke="#2a4385" stroke-miterlimit="10" stroke-width="2" d="M351.832 894h51.32c1.573 0 2.848 1.264 2.848 2.824v4.335C406 914.868 394.772 926 380.945 926h-6.89C360.228 926 349 914.868 349 901.159v-4.335c0-1.56 1.275-2.824 2.848-2.824z"/>
<path fill="#2a4385" stroke="#2a4385" stroke-linecap="round" stroke-linejoin="round" stroke-width="2" d="M20202.7 969.293h-26.9c-1.3 0-2.3 1.075-2.3 2.401v43.206c0 1.33 1 2.4 2.3 2.4h26.9c1.3 0 2.3-1.07 2.3-2.4v-43.206c0-1.326-1-2.401-2.3-2.401m508.9 0h-26.8c-1.3 0-2.4 1.075-2.4 2.401v43.206c0 1.33 1.1 2.4 2.4 2.4h26.8c1.4 0 2.4-1.07 2.4-2.4v-43.206c0-1.326-1-2.401-2.4-2.401"/>
<path fill="#f7f3ea" stroke="#2a4385" stroke-linecap="round" stroke-linejoin="round" stroke-width="2" d="M21247.1 586h-1066.2c-3.8 0-6.9 1.546-6.9 3.453v78.094c0 1.907 3.1 3.453 6.9 3.453h1066.2c3.8 0 6.9-1.546 6.9-3.453v-78.094c0-1.907-3.1-3.453-6.9-3.453"/>
<path fill="#f7f3ea" stroke="#2a4385" stroke-linecap="round" stroke-linejoin="round" stroke-width="2" d="m20496.3 602.813-5 2.32 13.7 29.937 5.1-2.32z"/>
<path fill="#2a4385" stroke="#2a4385" stroke-linecap="round" stroke-linejoin="round" stroke-width="2" d="M20496.2 607.536V602h-26.5v5.536z"/>
<path fill="#f7f3ea" stroke="#2a4385" stroke-linecap="round" stroke-linejoin="round" stroke-width="2" d="M20626.8 628.316h-120.4c-2.3 0-4.3 1.929-4.3 4.309v56.921c0 2.38 2 4.309 4.3 4.309h120.4c2.4 0 4.3-1.929 4.3-4.309v-56.921c0-2.38-1.9-4.309-4.3-4.309m-375.8-8.299-5 2.319 13.8 29.937 5-2.32z"/>
<path fill="#2a4385" stroke="#2a4385" stroke-linecap="round" stroke-linejoin="round" stroke-width="2" d="M20250.9 624.739v-5.536h-26.5v5.536z"/>
<path fill="#f7f3ea" stroke="#2a4385" stroke-linecap="round" stroke-linejoin="round" stroke-width="2" d="M20381.5 645.52h-120.4c-2.3 0-4.3 1.928-4.3 4.308v56.922c0 2.379 2 4.308 4.3 4.308h120.4c2.4 0 4.3-1.929 4.3-4.308v-56.922c0-2.38-1.9-4.308-4.3-4.308"/>
<path fill="#2a4385" stroke="#2a4385" stroke-linecap="round" stroke-linejoin="round" stroke-width="2" d="M20408.9 659.918h-181.7c-1.9 0-3.5 1.569-3.5 3.505v3.415c0 1.935 1.6 3.504 3.5 3.504h181.7c1.9 0 3.5-1.569 3.5-3.504v-3.415c0-1.936-1.6-3.505-3.5-3.505m250.9 0h-181.7c-1.9 0-3.5 1.569-3.5 3.505v3.415c0 1.935 1.6 3.504 3.5 3.504h181.7c1.9 0 3.5-1.569 3.5-3.504v-3.415c0-1.936-1.6-3.505-3.5-3.505"/>
<path fill="#f7f3ea" stroke="#2a4385" stroke-linecap="round" stroke-linejoin="round" stroke-width="2" d="M20375.3 677.172H20176c-1.2 0-2.1.929-2.1 2.076v296.663c0 1.147.9 2.076 2.1 2.076h199.3c1.1 0 2-.929 2-2.076V679.248c0-1.147-.9-2.076-2-2.076m336.1 0h-129c-.9 0-1.7.749-1.7 1.674v297.467c0 .925.8 1.674 1.7 1.674h129c.9 0 1.7-.749 1.7-1.674V678.846c0-.925-.8-1.674-1.7-1.674"/>
<path fill="#f7f3ea" stroke="#2a4385" stroke-linecap="round" stroke-linejoin="round" stroke-width="2" d="M20709.7 685.703h-532.4c-1.9 0-3.4 1.499-3.4 3.348v48.06c0 1.85 1.5 3.349 3.4 3.349h532.4c1.9 0 3.4-1.499 3.4-3.349v-48.06c0-1.849-1.5-3.348-3.4-3.348"/>
<path fill="#f7f3ea" stroke="#2a4385" stroke-linecap="round" stroke-linejoin="round" stroke-width="2" d="M20282 705.723h-76.8c-1.7 0-3 1.359-3 3.035v7.501c0 1.676 1.3 3.036 3 3.036h76.8c1.7 0 3-1.36 3-3.036v-7.501c0-1.676-1.3-3.035-3-3.035m372.5 2.989c2.5 0 4.5-2.009 4.5-4.487s-2-4.487-4.5-4.487c-2.4 0-4.4 2.009-4.4 4.487s2 4.487 4.4 4.487"/>
<path fill="#2a4385" stroke="#2a4385" stroke-linecap="round" stroke-linejoin="round" stroke-width="2" d="M20671.8 708.712c2.5 0 4.5-2.009 4.5-4.487s-2-4.487-4.5-4.487-4.5 2.009-4.5 4.487 2 4.487 4.5 4.487"/>
<path fill="#f7f3ea" stroke="#2a4385" stroke-linecap="round" stroke-linejoin="round" stroke-width="2" d="M20689.1 708.712c2.4 0 4.4-2.009 4.4-4.487s-2-4.487-4.4-4.487c-2.5 0-4.5 2.009-4.5 4.487s2 4.487 4.5 4.487"/>
<path fill="#2a4385" d="M20620.6 723.225a46.23 46.23 0 0 1 0-28.952c3.1 9.353 3 19.599 0 28.952"/>
<path fill="#2a4385" stroke="#2a4385" stroke-linecap="round" stroke-linejoin="round" stroke-width="2" d="M20620.7 727.869c5.8 0 10.4-4.668 10.4-10.425s-4.6-10.424-10.4-10.424c-5.7 0-10.3 4.667-10.3 10.424s4.6 10.425 10.3 10.425"/>
<path fill="#2a4385" d="M20584.1 723.225c-3-9.353-3-19.599 0-28.952a46.23 46.23 0 0 1 0 28.952"/>
<path fill="#2a4385" stroke="#2a4385" stroke-linecap="round" stroke-linejoin="round" stroke-width="2" d="M20584.3 727.869c5.7 0 10.4-4.668 10.4-10.425s-4.7-10.424-10.4-10.424-10.4 4.667-10.4 10.424 4.7 10.425 10.4 10.425"/>
<path stroke="#2a4385" stroke-linecap="round" stroke-linejoin="round" stroke-width="2" d="M20303.8 707.957h59.7m-59.7 8.305h59.7"/>
<path fill="#2a4385" stroke="#2a4385" stroke-linecap="round" stroke-linejoin="round" stroke-width="1.5" d="M20246.7 771.575v6.206c0 1.849 1.5 3.348 3.4 3.348h51.1c1.9 0 3.3-1.499 3.3-3.348v-6.206c0-1.849-1.4-3.348-3.3-3.348h-51.1c-1.9 0-3.4 1.499-3.4 3.348"/>
<path fill="#f7f3ea" stroke="#2a4385" stroke-linecap="round" stroke-linejoin="round" stroke-width="2" d="M20578.9 740.453h-199.7c-1.1 0-1.9.83-1.9 1.853v233.826c0 1.023.8 1.853 1.9 1.853h199.7c1 0 1.8-.83 1.8-1.853V742.306c0-1.023-.8-1.853-1.8-1.853"/>
<path fill="#2a4385" stroke="#2a4385" stroke-linecap="round" stroke-linejoin="round" stroke-width="1.5" d="M20450.1 771.552v6.205c0 1.849 1.5 3.348 3.3 3.348h51.2c1.8 0 3.3-1.499 3.3-3.348v-6.205c0-1.85-1.5-3.349-3.3-3.349h-51.2c-1.8 0-3.3 1.499-3.3 3.349"/>
<path fill="#f7f3ea" stroke="#2a4385" stroke-linecap="round" stroke-linejoin="round" stroke-width="2" d="M20713.4 669.184h-539.8c-1.9 0-3.4 1.509-3.4 3.37v11.474c0 1.861 1.5 3.371 3.4 3.371h539.8c1.9 0 3.4-1.51 3.4-3.371v-11.474c0-1.861-1.5-3.37-3.4-3.37"/>
<path fill="#2a4385" stroke="#2a4385" stroke-linecap="round" stroke-linejoin="round" stroke-width="2" d="M20741.7 969.293h-26.9c-1.3 0-2.3 1.075-2.3 2.401v43.206c0 1.33 1 2.4 2.3 2.4h26.9c1.3 0 2.3-1.07 2.3-2.4v-43.206c0-1.326-1-2.401-2.3-2.401m508.9 0h-26.8c-1.3 0-2.4 1.075-2.4 2.401v43.206c0 1.33 1.1 2.4 2.4 2.4h26.8c1.4 0 2.4-1.07 2.4-2.4v-43.206c0-1.326-1-2.401-2.4-2.401"/>
<path fill="#f7f3ea" stroke="#2a4385" stroke-linecap="round" stroke-linejoin="round" stroke-width="2" d="m21035.3 611.813-5 2.32 13.7 29.937 5.1-2.32z"/>
<path fill="#2a4385" stroke="#2a4385" stroke-linecap="round" stroke-linejoin="round" stroke-width="2" d="M21035.2 616.536V611h-26.5v5.536z"/>
<path fill="#f7f3ea" stroke="#2a4385" stroke-linecap="round" stroke-linejoin="round" stroke-width="2" d="M21165.8 637.316h-120.4c-2.3 0-4.3 1.929-4.3 4.309v56.921c0 2.38 2 4.309 4.3 4.309h120.4c2.4 0 4.3-1.929 4.3-4.309v-56.921c0-2.38-1.9-4.309-4.3-4.309m-375.8-12.503-5 2.32 13.8 29.937 5-2.32z"/>
<path fill="#2a4385" stroke="#2a4385" stroke-linecap="round" stroke-linejoin="round" stroke-width="2" d="M20789.9 629.536V624h-26.5v5.536z"/>
<path fill="#f7f3ea" stroke="#2a4385" stroke-linecap="round" stroke-linejoin="round" stroke-width="2" d="M20920.5 650.316h-120.4c-2.3 0-4.3 1.929-4.3 4.309v56.921c0 2.38 2 4.309 4.3 4.309h120.4c2.4 0 4.3-1.929 4.3-4.309v-56.921c0-2.38-1.9-4.309-4.3-4.309"/>
<path fill="#2a4385" stroke="#2a4385" stroke-linecap="round" stroke-linejoin="round" stroke-width="2" d="M20947.9 659.918h-181.7c-1.9 0-3.5 1.569-3.5 3.505v3.415c0 1.935 1.6 3.504 3.5 3.504h181.7c1.9 0 3.5-1.569 3.5-3.504v-3.415c0-1.936-1.6-3.505-3.5-3.505m250.9 0h-181.7c-1.9 0-3.5 1.569-3.5 3.505v3.415c0 1.935 1.6 3.504 3.5 3.504h181.7c1.9 0 3.5-1.569 3.5-3.504v-3.415c0-1.936-1.6-3.505-3.5-3.505"/>
<path fill="#f7f3ea" stroke="#2a4385" stroke-linecap="round" stroke-linejoin="round" stroke-width="2" d="M20914.3 677.172H20715c-1.2 0-2.1.929-2.1 2.076v296.663c0 1.147.9 2.076 2.1 2.076h199.3c1.1 0 2-.929 2-2.076V679.248c0-1.147-.9-2.076-2-2.076m336.1 0h-129c-.9 0-1.7.749-1.7 1.674v297.467c0 .925.8 1.674 1.7 1.674h129c.9 0 1.7-.749 1.7-1.674V678.846c0-.925-.8-1.674-1.7-1.674"/>
<path fill="#f7f3ea" stroke="#2a4385" stroke-linecap="round" stroke-linejoin="round" stroke-width="2" d="M21248.7 685.703h-532.4c-1.9 0-3.4 1.499-3.4 3.348v48.06c0 1.85 1.5 3.349 3.4 3.349h532.4c1.9 0 3.4-1.499 3.4-3.349v-48.06c0-1.849-1.5-3.348-3.4-3.348"/>
<path fill="#f7f3ea" stroke="#2a4385" stroke-linecap="round" stroke-linejoin="round" stroke-width="2" d="M20821 705.723h-76.8c-1.7 0-3 1.359-3 3.035v7.501c0 1.676 1.3 3.036 3 3.036h76.8c1.7 0 3-1.36 3-3.036v-7.501c0-1.676-1.3-3.035-3-3.035"/>
<path fill="#2a4385" stroke="#2a4385" stroke-linecap="round" stroke-linejoin="round" stroke-width="2" d="M21193.5 708.712c2.5 0 4.5-2.009 4.5-4.487s-2-4.487-4.5-4.487c-2.4 0-4.4 2.009-4.4 4.487s2 4.487 4.4 4.487"/>
<path fill="#f7f3ea" stroke="#2a4385" stroke-linecap="round" stroke-linejoin="round" stroke-width="2" d="M21210.8 708.712c2.5 0 4.5-2.009 4.5-4.487s-2-4.487-4.5-4.487-4.5 2.009-4.5 4.487 2 4.487 4.5 4.487"/>
<path fill="#2a4385" stroke="#2a4385" stroke-linecap="round" stroke-linejoin="round" stroke-width="2" d="M21228.1 708.712c2.4 0 4.4-2.009 4.4-4.487s-2-4.487-4.4-4.487c-2.5 0-4.5 2.009-4.5 4.487s2 4.487 4.5 4.487"/>
<path fill="#2a4385" d="M21159.6 723.225a46.23 46.23 0 0 1 0-28.952c3.1 9.353 3 19.599 0 28.952"/>
<path fill="#2a4385" stroke="#2a4385" stroke-linecap="round" stroke-linejoin="round" stroke-width="2" d="M21159.7 727.869c5.8 0 10.4-4.668 10.4-10.425s-4.6-10.424-10.4-10.424c-5.7 0-10.3 4.667-10.3 10.424s4.6 10.425 10.3 10.425"/>
<path fill="#2a4385" d="M21123.1 723.225c-3-9.353-3-19.599 0-28.952a46.23 46.23 0 0 1 0 28.952"/>
<path fill="#2a4385" stroke="#2a4385" stroke-linecap="round" stroke-linejoin="round" stroke-width="2" d="M21123.3 727.869c5.7 0 10.4-4.668 10.4-10.425s-4.7-10.424-10.4-10.424-10.4 4.667-10.4 10.424 4.7 10.425 10.4 10.425"/>
<path stroke="#2a4385" stroke-linecap="round" stroke-linejoin="round" stroke-width="2" d="M20842.8 707.957h59.7m-59.7 8.305h59.7"/>
<path fill="#2a4385" stroke="#2a4385" stroke-linecap="round" stroke-linejoin="round" stroke-width="1.5" d="M20785.7 771.575v6.206c0 1.849 1.5 3.348 3.4 3.348h51.1c1.9 0 3.3-1.499 3.3-3.348v-6.206c0-1.849-1.4-3.348-3.3-3.348h-51.1c-1.9 0-3.4 1.499-3.4 3.348"/>
<path fill="#f7f3ea" stroke="#2a4385" stroke-linecap="round" stroke-linejoin="round" stroke-width="2" d="M21117.9 740.453h-199.7c-1.1 0-1.9.83-1.9 1.853v233.826c0 1.023.8 1.853 1.9 1.853h199.7c1 0 1.8-.83 1.8-1.853V742.306c0-1.023-.8-1.853-1.8-1.853"/>
<path fill="#2a4385" stroke="#2a4385" stroke-linecap="round" stroke-linejoin="round" stroke-width="1.5" d="M20989.1 771.552v6.205c0 1.849 1.5 3.348 3.3 3.348h51.2c1.8 0 3.3-1.499 3.3-3.348v-6.205c0-1.85-1.5-3.349-3.3-3.349h-51.2c-1.8 0-3.3 1.499-3.3 3.349"/>
<path fill="#f7f3ea" stroke="#2a4385" stroke-linecap="round" stroke-linejoin="round" stroke-width="2" d="M21252.7 669h-536.4c-1.8 0-3.3 1.491-3.3 3.331v11.338c0 1.84 1.5 3.331 3.3 3.331h536.4c1.8 0 3.3-1.491 3.3-3.331v-11.338c0-1.84-1.5-3.331-3.3-3.331"/>
<path fill="#2a4385" stroke="#2a4385" stroke-miterlimit="10" stroke-width="2" d="M11088.7 722.098h21.7c2.9 0 5.3 2.342 5.3 5.215v249.369c0 3.801-3.2 6.895-7 6.895h-20c-3.8 0-6.9-3.094-6.9-6.895V728.993c0-3.801 3.1-6.895 6.9-6.895Zm195.5 0h21.7c2.9 0 5.2 2.342 5.2 5.215v249.369c0 3.801-3.1 6.895-6.9 6.895h-20c-3.8 0-7-3.094-7-6.895V728.993c0-3.801 3.2-6.895 7-6.895Zm236.6 0h21.7c3.9 0 7 3.094 7 6.895v247.689c0 3.801-3.1 6.895-7 6.895h-20c-3.8 0-6.9-3.094-6.9-6.895V727.313c0-2.873 2.3-5.215 5.2-5.215Zm207.8 0h-23.4c-2.9 0-5.3 2.335-5.3 5.215v251.049c0 2.88 2.4 5.215 5.3 5.215h23.4c2.9 0 5.2-2.335 5.2-5.215V727.313a5.19 5.19 0 0 0-5.2-5.215Z"/>
<path fill="#f7f3ea" stroke="#2a4385" stroke-miterlimit="10" stroke-width="2" d="M11732.8 653.812h-648.6c-3.1 0-5.7 2.514-5.7 5.614v303.158c0 3.101 2.6 5.614 5.7 5.614h648.6c3.2 0 5.7-2.513 5.7-5.614V659.426c0-3.1-2.5-5.614-5.7-5.614Z"/>
<path fill="#2a4385" stroke="#2a4385" stroke-miterlimit="10" stroke-width="2" d="M11084.3 653.812h-5c-3.7 0-6.7 2.969-6.7 6.63v301.126c0 3.661 3 6.63 6.7 6.63h5c3.7 0 6.6-2.969 6.6-6.63V660.442c0-3.661-2.9-6.63-6.6-6.63Zm649.2 0h-5c-3.6 0-6.6 2.969-6.6 6.63v301.126c0 3.661 3 6.63 6.6 6.63h5c3.7 0 6.7-2.969 6.7-6.63V660.442c0-3.661-3-6.63-6.7-6.63Z"/>
<path fill="#2a4385" stroke="#2a4385" stroke-miterlimit="10" stroke-width="2" d="M11755.5 902.968v-7.647c0-3.661-2.9-6.63-6.6-6.63h-680.8c-3.7 0-6.6 2.969-6.6 6.63v7.647c0 3.661 2.9 6.629 6.6 6.629h680.8c3.7 0 6.6-2.968 6.6-6.629Zm0-234.879v-7.647c0-3.661-2.9-6.63-6.6-6.63h-680.8c-3.7 0-6.6 2.969-6.6 6.63v7.647c0 3.661 2.9 6.629 6.6 6.629h680.8c3.7 0 6.6-2.968 6.6-6.629Zm0 119.601v-7.646c0-3.662-2.9-6.63-6.6-6.63h-680.8c-3.7 0-6.6 2.968-6.6 6.63v7.646c0 3.662 2.9 6.63 6.6 6.63h680.8c3.7 0 6.6-2.968 6.6-6.63Z"/>
<path fill="#d2d2d2" d="M11264 585h290v69h-290z"/>
<path fill="#000" d="M11387.5 624.136c-.6 0-1.1-.14-1.6-.422-.4-.281-.8-.674-1-1.18-.3-.506-.4-1.097-.4-1.773 0-.681.1-1.277.4-1.785.2-.509.6-.904 1-1.185.5-.281 1-.422 1.6-.422q.9 0 1.5.422c.5.281.8.676 1.1 1.185q.3.763.3 1.785 0 1.014-.3 1.773c-.3.506-.6.899-1.1 1.18q-.6.423-1.5.422m0-.903c.4 0 .8-.115 1.1-.345q.45-.345.6-.908c.2-.375.2-.781.2-1.219 0-.437 0-.845-.2-1.223a1.67 1.67 0 0 0-.6-.916c-.3-.233-.7-.349-1.1-.349-.5 0-.8.116-1.1.349s-.5.539-.7.916c-.1.378-.2.786-.2 1.223s.1.844.2 1.219c.2.375.4.678.7.908s.6.345 1.1.345m7.1 3.358q-.75 0-1.2-.188-.6-.183-.9-.485-.3-.298-.6-.64l.8-.562c.1.119.3.256.4.409q.15.234.6.405.3.174.9.175c.5 0 1-.128 1.3-.384.4-.256.5-.656.5-1.202v-1.329c-.1.119-.2.267-.4.443-.1.173-.3.328-.5.464-.3.134-.6.201-1 .201q-.9 0-1.5-.375c-.4-.25-.7-.614-1-1.091q-.3-.716-.3-1.739 0-1.005.3-1.751c.3-.5.6-.887 1-1.159q.6-.414 1.5-.414c.4 0 .7.071 1 .213q.3.21.6.478.15.264.3.434h.1v-1.039h1v6.733c0 .562-.2 1.019-.4 1.372-.3.355-.6.615-1.1.779-.4.168-.9.252-1.4.252m0-3.597c.4 0 .7-.092 1-.277q.45-.276.6-.797.3-.52.3-1.244 0-.707-.3-1.248-.15-.542-.6-.848a1.66 1.66 0 0 0-1-.307c-.4 0-.8.108-1.1.324q-.45.323-.6.869c-.2.364-.2.767-.2 1.21 0 .455 0 .857.2 1.206q.15.52.6.818c.3.196.7.294 1.1.294m7.3 3.597q-.75 0-1.2-.188-.6-.183-.9-.485c-.2-.199-.4-.412-.5-.64l.8-.562c0 .119.2.256.3.409q.15.234.6.405.3.174.9.175c.6 0 1-.128 1.3-.384q.6-.383.6-1.202v-1.329h-.1q-.15.179-.3.443-.3.26-.6.464c-.3.134-.6.201-1 .201-.6 0-1-.125-1.5-.375-.4-.25-.7-.614-1-1.091q-.3-.716-.3-1.739 0-1.005.3-1.751c.3-.5.6-.887 1-1.159q.6-.414 1.5-.414c.4 0 .7.071 1 .213q.3.21.6.478.15.264.3.434h.1v-1.039h1v6.733c0 .562-.2 1.019-.4 1.372-.3.355-.6.615-1 .779-.5.168-.9.252-1.5.252m0-3.597c.4 0 .7-.092 1-.277.3-.184.5-.45.7-.797.1-.346.2-.761.2-1.244 0-.471-.1-.888-.2-1.248-.2-.361-.4-.644-.7-.848-.2-.205-.6-.307-1-.307s-.8.108-1.1.324c-.2.215-.5.505-.6.869s-.2.767-.2 1.21c0 .455.1.857.2 1.206.1.347.4.619.6.818.3.196.7.294 1.1.294m7.4 1.142c-.6 0-1.1-.139-1.6-.417-.4-.281-.8-.674-1-1.176-.3-.506-.4-1.094-.4-1.765s.1-1.261.4-1.772c.2-.515.6-.915 1-1.202.4-.29 1-.435 1.5-.435.4 0 .7.057 1.1.171q.45.17.9.554c.2.253.5.588.6 1.005q.3.627.3 1.543v.426h-5.1v-.869h4c0-.369 0-.699-.2-.989q-.15-.434-.6-.686c-.3-.167-.6-.251-1-.251s-.7.099-1 .298c-.3.196-.5.452-.7.767-.1.315-.2.653-.2 1.014v.58q0 .741.3 1.257c.1.341.4.601.7.78.3.176.6.264 1 .264.3 0 .6-.037.8-.111.2-.077.4-.19.5-.341.2-.153.3-.344.4-.571l1 .273q-.15.494-.6.869-.3.371-.9.58-.45.204-1.2.204m7.1-6.681v.852h-3.4v-.852zm-2.4-1.569h1v6.239c0 .284.1.497.2.639 0 .139.2.233.3.281.1.046.3.069.4.069q.15 0 .3-.017c.1-.015.1-.026.1-.035l.3.904-.3.077c-.2.028-.3.042-.5.042-.3 0-.6-.061-.8-.183-.3-.122-.5-.308-.7-.558q-.3-.375-.3-.946zm6.8 1.569v.852h-3.4v-.852zm-2.4-1.569h1v6.239c0 .284 0 .497.1.639q.15.209.3.281c.2.046.3.069.5.069.1 0 .2-.006.2-.017.1-.015.2-.026.2-.035l.2.904c-.1.025-.1.051-.3.077-.1.028-.2.042-.4.042q-.45 0-.9-.183c-.2-.122-.5-.308-.6-.558q-.3-.375-.3-.946zm3.9 8.114v-6.545h1V624zm.5-7.636c-.2 0-.3-.067-.5-.201-.1-.133-.2-.294-.2-.481 0-.188.1-.348.2-.482.2-.133.3-.2.5-.2s.4.067.5.2c.2.134.2.294.2.482 0 .187 0 .348-.2.481-.1.134-.3.201-.5.201m3.4 3.698V624h-1v-6.545h.9v1.022h.1c.2-.332.4-.599.7-.801q.45-.307 1.2-.307t1.2.273c.3.179.6.452.8.818.1.364.2.824.2 1.381V624h-1v-4.091c0-.514-.1-.915-.4-1.202-.2-.289-.6-.434-1.1-.434-.3 0-.6.069-.8.209q-.45.208-.6.609c-.2.267-.2.591-.2.971m6 3.938v-6.545h1V624zm.5-7.636c-.2 0-.4-.067-.5-.201-.2-.133-.2-.294-.2-.481 0-.188 0-.348.2-.482.1-.133.3-.2.5-.2s.3.067.5.2c.1.134.2.294.2.482 0 .187-.1.348-.2.481-.2.134-.3.201-.5.201"/>
<path fill="#2a4385" stroke="#2a4385" stroke-miterlimit="10" stroke-width="2" d="M11825.7 722.215h21.7c2.9 0 5.3 2.341 5.3 5.213v249.26c0 3.799-3.2 6.892-7 6.892h-20c-3.8 0-6.9-3.093-6.9-6.892V729.107c0-3.8 3.1-6.892 6.9-6.892Zm195.5 0h21.7c2.9 0 5.2 2.341 5.2 5.213v249.26c0 3.799-3.1 6.892-6.9 6.892h-20c-3.8 0-7-3.093-7-6.892V729.107c0-3.8 3.2-6.892 7-6.892Zm236.6 0h21.7c3.9 0 7 3.092 7 6.892v247.581c0 3.799-3.1 6.892-7 6.892h-20c-3.8 0-6.9-3.093-6.9-6.892v-249.26c0-2.872 2.3-5.213 5.2-5.213Zm207.8 0h-23.4c-2.9 0-5.3 2.334-5.3 5.213v250.938c0 2.88 2.4 5.214 5.3 5.214h23.4c2.9 0 5.2-2.334 5.2-5.214V727.428c0-2.879-2.3-5.213-5.2-5.213Z"/>
<path fill="#f7f3ea" stroke="#2a4385" stroke-miterlimit="10" stroke-width="2" d="M12469.8 653.961h-648.6c-3.1 0-5.7 2.512-5.7 5.611v303.026c0 3.098 2.6 5.61 5.7 5.61h648.6c3.2 0 5.7-2.512 5.7-5.61V659.572c0-3.099-2.5-5.611-5.7-5.611Z"/>
<path fill="#2a4385" stroke="#2a4385" stroke-miterlimit="10" stroke-width="2" d="M11821.3 653.961h-5c-3.7 0-6.7 2.967-6.7 6.627v300.993c0 3.66 3 6.627 6.7 6.627h5c3.7 0 6.6-2.967 6.6-6.627V660.588c0-3.66-2.9-6.627-6.6-6.627Zm649.2 0h-5c-3.6 0-6.6 2.967-6.6 6.627v300.993c0 3.66 3 6.627 6.6 6.627h5c3.7 0 6.7-2.967 6.7-6.627V660.588c0-3.66-3-6.627-6.7-6.627Z"/>
<path fill="#2a4385" stroke="#2a4385" stroke-miterlimit="10" stroke-width="2" d="M12492.5 903.004v-7.643c0-3.66-2.9-6.627-6.6-6.627h-680.8c-3.7 0-6.6 2.967-6.6 6.627v7.643c0 3.66 2.9 6.627 6.6 6.627h680.8c3.7 0 6.6-2.967 6.6-6.627Zm0-234.773v-7.643c0-3.66-2.9-6.627-6.6-6.627h-680.8c-3.7 0-6.6 2.967-6.6 6.627v7.643c0 3.66 2.9 6.627 6.6 6.627h680.8c3.7 0 6.6-2.967 6.6-6.627Zm0 119.547v-7.643c0-3.66-2.9-6.627-6.6-6.627h-680.8c-3.7 0-6.6 2.967-6.6 6.627v7.643c0 3.66 2.9 6.627 6.6 6.627h680.8c3.7 0 6.6-2.967 6.6-6.627Z"/>
<path fill="#f7f3ea" stroke="#2a4385" stroke-miterlimit="10" stroke-width="2" d="M12018.1 629.531h-81.7c-10.8-.318-24.8-22.5-25.4-70.017-.3-25.508 5.9-35.11 17.8-36.672.2 0 .3-.057.4-.057h71.6c3.5 0 6.4-2.864 6.4-6.421 0-3.528-2.9-6.391-6.4-6.391h-139.6c-3.5 0-6.3 2.863-6.3 6.391v1.591c0 1.504 1.2 1.851 2.6 2.371 1.8.955 16.1 4.367 17.6 42.832 1.2 33.895-17.5 62.787-17.9 68.976v7.403c0 1.88 1.5 3.384 3.3 3.384h165.9c.8 0 1.5-.723 1.5-1.591v-1.995c0-5.437-4.3-9.833-9.8-9.833zm-4-136.476h-6.4c-1.6 0-2.9 1.32-2.9 2.95v9.052c0 1.629 1.3 2.95 2.9 2.95h6.4c1.7 0 3-1.321 3-2.95v-9.052c0-1.63-1.3-2.95-3-2.95Z"/>
<path fill="#f7f3ea" stroke="#2a4385" stroke-miterlimit="10" stroke-width="2" d="M11883.2 474.891h96.3c14.9 0 26.9 12.117 26.9 27.069v8.503h-150.2v-8.503c0-14.952 12.1-27.069 27-27.069Z"/>
<path fill="#2a4385" d="M11936.7 495.047c2.9 0 5.2-2.343 5.2-5.234s-2.3-5.235-5.2-5.235-5.2 2.344-5.2 5.235 2.3 5.234 5.2 5.234"/>
<path fill="#f7f3ea" stroke="#2a4385" stroke-miterlimit="10" stroke-width="2" d="M11960.7 531.461h23.4c0 2.227-1.8 4.02-4 4.02h-15.4c-2.2 0-4-1.793-4-4.02Z"/>
<path fill="#2a4385" d="M11973.4 535.16h-4.3c-2.1 0-3.7 1.658-3.7 3.702v4.888c0 2.044 1.6 3.701 3.7 3.701h4.3c2 0 3.6-1.657 3.6-3.701v-4.888c0-2.044-1.6-3.702-3.6-3.702"/>
<path fill="#f7f3ea" stroke="#2a4385" stroke-miterlimit="10" stroke-width="2" d="M11952.7 523.855h39.7v.521c0 4.743-3.8 8.589-8.6 8.589h-22.6c-4.7 0-8.5-3.846-8.5-8.589zm-22.8 48.149h89.2c2.8 0 5 2.227 5 4.974v7.635c0 24.149-19.5 43.757-43.6 43.757h-12c-24 0-43.6-19.608-43.6-43.757v-7.635c0-2.747 2.3-4.974 5-4.974Z"/>
<path stroke="#2a4385" stroke-miterlimit="10" stroke-width="2" d="m11855 500.562 151 .002"/>
<path fill="#f7f3ea" stroke="#2a4385" stroke-miterlimit="10" stroke-width="2" d="M11897.1 621.605c5.1 0 9.3-4.169 9.3-9.312s-4.2-9.313-9.3-9.313-9.3 4.17-9.3 9.313 4.2 9.312 9.3 9.312Zm128.3 21.606h-165.7c-1.7 0-3 1.385-3 3.094v4.628c0 1.709 1.3 3.094 3 3.094h165.7c1.7 0 3.1-1.385 3.1-3.094v-4.628c0-1.709-1.4-3.094-3.1-3.094Zm149.1-44.324h-86.4c-2.7 0-4.8 2.173-4.8 4.853v7.45c0 23.564 18.9 42.697 42.2 42.697h11.6c23.3 0 42.2-19.133 42.2-42.697v-7.45c0-2.68-2.2-4.853-4.8-4.853Zm107 0h-86.4c-2.7 0-4.8 2.173-4.8 4.853v7.45c0 23.564 18.9 42.697 42.2 42.697h11.6c23.3 0 42.2-19.133 42.2-42.697v-7.45c0-2.68-2.2-4.853-4.8-4.853Z"/>
<defs><clipPath id="a"><path fill="#fff" d="M4305.06 448.156h38.018v96.462h-38.018z"/></clipPath><clipPath id="b"><path fill="#fff" d="M4255.35 480.309h36.556v51.154h-36.556z"/></clipPath><clipPath id="c"><path fill="#fff" d="M32 535h108v114H32z"/></clipPath><clipPath id="d"><path fill="#fff" d="M122 535h108v114H122z"/></clipPath><clipPath id="e"><path fill="#fff" d="M206 535h108v114H206z"/></clipPath><clipPath id="f"><path fill="#fff" d="M290 535h108v114H290z"/></clipPath><clipPath id="g"><path fill="#fff" d="M374 535h108v114H374z"/></clipPath><clipPath id="h"><path fill="#fff" d="M458 535h108v114H458z"/></clipPath><clipPath id="i"><path fill="#fff" d="M542 535h108v114H542z"/></clipPath><clipPath id="j"><path fill="#fff" d="M626 535h108v114H626z"/></clipPath><clipPath id="k"><path fill="#fff" d="M22250 238h590v686h-590z"/></clipPath></defs>
</svg>