<svg xmlns="http://www.w3.org/2000/svg" width="24268" height="875" fill="none" viewBox="0 0 24268 875"><path fill="#f7f3ea" stroke="#2a4385" stroke-miterlimit="10" stroke-width="2" d="M549.85 752.572c-1.92-.425-2.465-1.652-1.067-2.431 5.594-3.14 17.587-8.097 26.854-9.867 8.035-1.535 16.758-7.106 18.962-9.278a14 14 0 0 1 1.73-1.44c2.821-1.959 10.618-6.727 20.478-7.648 3.224-.307 6.092-1.204 7.964-2.526 3.105-2.172 7.988-5.193 12.23-6.019 1.067-.213 2.062-.472 2.868-.874 4.053-2.006 16.71-7.766 25.977-6.798 11.164 1.156 13.96 3.045 13.96 3.045s3.058.26 7.064 2.809c1.066.685 2.37 1.251 3.887 1.652 3.413.921 9.741 2.857 13.723 5.642 2.252 1.582 5.759 2.573 9.575 2.998 2.56.284 5.476.874 8.083 2.007 5.214 2.29 12.419 7.223 14.955 8.994.712.495 1.517.944 2.442 1.345 2.631 1.157 8.414 3.518 14.41 4.887 3.532.826 6.187 1.369 8.035 1.723a39 39 0 0 1 7.68 2.242c3.65 1.535 8.793 3.848 11.139 5.713 7.372 5.878-23.204 4.509-23.204 4.509s-8.224 1.44-16.757-.378c-2.583-.543-5.427-.732-8.153-.378-6.518.827-18.985 2.172-30.078 2.007-15.903-.213-28.797 0-28.797 0h-24.271s-15.477-3.069-29.65-.637c-14.174 2.431-28.348-1.889-28.348-1.889s-2.37-1.157-17.183 1.369c-10.121 1.724-19.554.26-24.508-.85zm923.58-65.595h-83.16a4.556 4.556 0 0 0-4.57 4.551v6.766a4.557 4.557 0 0 0 4.57 4.551h83.16c2.52 0 4.57-2.038 4.57-4.551v-6.766c0-2.514-2.05-4.551-4.57-4.551Zm-5.39 16.226h-72.38a4.557 4.557 0 0 0-4.57 4.551v64.231a4.557 4.557 0 0 0 4.57 4.551h72.38c2.52 0 4.57-2.038 4.57-4.551v-64.231c0-2.513-2.05-4.551-4.57-4.551Z"/><path stroke="#2a4385" stroke-miterlimit="10" stroke-width="2" d="M1472.96 733.547c-60.04 7.308-77.12-31.098-77.12-31.098"/><path stroke="#2a4385" stroke-miterlimit="10" stroke-width="2" d="M1437.39 732.086s35.19-.455 35.19-13.563m-81.24 14.031c-.64 0-15.22 1.544-4.29-31.382"/><path fill="#f7f3ea" stroke="#2a4385" stroke-miterlimit="10" stroke-width="2" d="M4110.61 701.594h-60.34a3.305 3.305 0 0 0-3.31 3.302v4.908a3.305 3.305 0 0 0 3.31 3.302h60.34c1.83 0 3.31-1.478 3.31-3.302v-4.908a3.305 3.305 0 0 0-3.31-3.302Zm-3.91 11.773h-52.52a3.305 3.305 0 0 0-3.31 3.302v46.6a3.305 3.305 0 0 0 3.31 3.302h52.52c1.83 0 3.31-1.478 3.31-3.302v-46.6a3.305 3.305 0 0 0-3.31-3.302Z"/><path stroke="#2a4385" stroke-miterlimit="10" stroke-width="2" d="M4110.26 735.382c-43.55 5.302-55.94-22.562-55.94-22.562"/><path stroke="#2a4385" stroke-miterlimit="10" stroke-width="2" d="M4084.46 734.324s25.53-.33 25.53-9.84m-58.94 10.175c-.46 0-11.04 1.12-3.11-22.768"/><path fill="#2a4385" stroke="#2a4385" stroke-miterlimit="10" stroke-width="2" d="M1582.72 600.789h-9.23v7.686h9.23z"/><path fill="#f7f3ea" stroke="#2a4385" stroke-miterlimit="10" stroke-width="2" d="M1572.26 608.219h11.15c.49 0 .9.613.9 1.376v221.451h-12.94V609.595c0-.752.4-1.376.9-1.376zm324.57 0h11.15c.49 0 .9.613.9 1.376v221.451h-12.94V609.595c0-.752.4-1.376.9-1.376z"/><path fill="#f7f3ea" stroke="#2a4385" stroke-miterlimit="10" stroke-width="2" d="M1557.35 824.445h41.51c5.45 0 9.86 4.414 9.86 9.839v3.897h-61.23v-3.897c0-5.436 4.42-9.839 9.86-9.839Zm15.62-217.746h10.29c3.68 0 6.67 2.982 6.67 6.653v8.644h-23.62v-8.644c0-3.671 2.99-6.653 6.66-6.653Zm5.14-3.464c7.03 0 12.73-5.692 12.73-12.713 0-7.022-5.7-12.713-12.73-12.713-7.04 0-12.74 5.691-12.74 12.713s5.7 12.713 12.74 12.713Z"/><path fill="#2a4385" stroke="#2a4385" stroke-miterlimit="10" stroke-width="2" d="M1906.97 600.789h-9.23v7.686h9.23z"/><path fill="#f7f3ea" stroke="#2a4385" stroke-miterlimit="10" stroke-width="2" d="M1881.6 824.445h41.51c5.45 0 9.86 4.414 9.86 9.839v3.897h-61.24v-3.897c0-5.436 4.42-9.839 9.86-9.839zm15.61-217.746h10.29c3.68 0 6.66 2.982 6.66 6.653v8.644h-23.61v-8.644a6.66 6.66 0 0 1 6.66-6.653Zm5.14-3.464c7.04 0 12.74-5.692 12.74-12.713 0-7.022-5.7-12.713-12.74-12.713-7.03 0-12.73 5.691-12.73 12.713s5.7 12.713 12.73 12.713Z"/><mask id="a" width="375" height="55" x="1551" y="638" maskUnits="userSpaceOnUse" style="mask-type:luminance"><path fill="#fff" d="M1916.56 638.953h-356.13c-4.7 0-8.52 3.808-8.52 8.504v36.202c0 4.696 3.82 8.504 8.52 8.504h356.13c4.7 0 8.51-3.808 8.51-8.504v-36.202c0-4.696-3.81-8.504-8.51-8.504"/></mask><g stroke="#2a4385" stroke-miterlimit="10" stroke-width="2" mask="url(#a)"><path fill="#f7f3ea" d="M1577.69 692.098h-32.29l-19.25-53.059h32.29z"/><path fill="#2a4385" d="M1609.7 692.098h-32.28l-19.25-53.059h32.28z"/><path fill="#f7f3ea" d="M1641.72 692.098h-32.29l-19.25-53.059h32.29z"/><path fill="#2a4385" d="M1673.73 692.098h-32.28l-19.25-53.059h32.28z"/><path fill="#f7f3ea" d="M1705.75 692.098h-32.29l-19.25-53.059h32.29z"/><path fill="#2a4385" d="M1737.76 692.098h-32.28l-19.25-53.059h32.28zm.83 0h32.29l19.24-53.059h-32.29z"/><path fill="#f7f3ea" d="M1770.42 692.098h32.29l19.25-53.059h-32.29z"/><path fill="#2a4385" d="M1802.64 692.098h32.29l19.25-53.059h-32.29z"/><path fill="#f7f3ea" d="M1834.87 692.098h32.29l19.25-53.059h-32.29z"/><path fill="#2a4385" d="M1867.09 692.098h32.29l19.25-53.059h-32.29z"/><path fill="#f7f3ea" d="M1899.31 692.098h32.29l19.25-53.059h-32.29z"/></g><path stroke="#2a4385" stroke-miterlimit="10" stroke-width="2" d="M1916.57 638.672h-356.71c-4.7 0-8.52 3.807-8.52 8.504v36.201c0 4.697 3.82 8.504 8.52 8.504h356.71c4.7 0 8.52-3.807 8.52-8.504v-36.201c0-4.697-3.82-8.504-8.52-8.504Z"/><path fill="#f7f3ea" d="m1719.52 639.5 18.61 51.293 18.69-51.293z"/><mask id="b" width="375" height="54" x="1551" y="712" maskUnits="userSpaceOnUse" style="mask-type:luminance"><path fill="#fff" d="M1916.56 712.473h-356.13c-4.7 0-8.52 3.807-8.52 8.504v36.201c0 4.697 3.82 8.504 8.52 8.504h356.13c4.7 0 8.51-3.807 8.51-8.504v-36.201c0-4.697-3.81-8.504-8.51-8.504"/></mask><g stroke="#2a4385" stroke-miterlimit="10" stroke-width="2" mask="url(#b)"><path fill="#f7f3ea" d="M1577.69 765.616h-32.29l-19.25-53.069h32.29z"/><path fill="#2a4385" d="M1609.7 765.616h-32.28l-19.25-53.069h32.28z"/><path fill="#f7f3ea" d="M1641.72 765.616h-32.29l-19.25-53.069h32.29z"/><path fill="#2a4385" d="M1673.73 765.616h-32.28l-19.25-53.069h32.28z"/><path fill="#f7f3ea" d="M1705.75 765.616h-32.29l-19.25-53.069h32.29z"/><path fill="#2a4385" d="M1737.76 765.616h-32.28l-19.25-53.069h32.28zm.83 0h32.29l19.24-53.069h-32.29z"/><path fill="#f7f3ea" d="M1770.42 765.616h32.29l19.25-53.069h-32.29z"/><path fill="#2a4385" d="M1802.64 765.616h32.29l19.25-53.069h-32.29z"/><path fill="#f7f3ea" d="M1834.87 765.616h32.29l19.25-53.069h-32.29z"/><path fill="#2a4385" d="M1867.09 765.616h32.29l19.25-53.069h-32.29z"/><path fill="#f7f3ea" d="M1899.31 765.616h32.29l19.25-53.069h-32.29z"/></g><path stroke="#2a4385" stroke-miterlimit="10" stroke-width="2" d="M1916.57 712.191h-356.71c-4.7 0-8.52 3.808-8.52 8.504v36.202c0 4.697 3.82 8.504 8.52 8.504h356.71c4.7 0 8.52-3.807 8.52-8.504v-36.202c0-4.696-3.82-8.504-8.52-8.504Z"/><path fill="#f7f3ea" d="m1719.52 713.02 18.61 51.293 18.69-51.293z"/><path fill="#f7f3ea" stroke="#2a4385" stroke-miterlimit="10" stroke-width="2" d="M1354.95 614.666h-56.44c-1.86 0-3.36-1.52-3.36-3.352v-7.755c0-1.832 1.52-3.352 3.36-3.352h56.44c1.86 0 3.37 1.52 3.37 3.352v7.755c0 1.162-.61 2.19-1.53 2.793-.54.358-1.16.559-1.84.559Z"/><path fill="#f7f3ea" stroke="#2a4385" stroke-miterlimit="10" stroke-width="2" d="M1283.49 752.011c-.36-11.268-.36-10.215-.36-13.967-.29-5.766 0-79.155 0-83.021 0-.089 0-3.888-.02-4-.23-1.989 10.33-25.789 13.7-34.795.36-.938 1.23-1.564 2.24-1.564h53.32c1.33 0 2.54.782 3.08 1.989l14.26 32.024c.2.424.29.894.29 1.363v101.971c0 3.553-1.32 7.017-3.88 9.475-1.14 1.095-2.47 1.922-3.83 1.922h-69.25c-7.93 0-9.29-6.101-9.55-11.397Z"/><g clip-path="url(#c)"><path fill="#f7f3ea" stroke="#2a4385" stroke-linecap="round" stroke-linejoin="round" stroke-width="2" d="M2154.41 828.543c8.8 2.127 26.38 1.799 35.28-.422 8.33-2.096 8.11-4.739 7.46-11.95l-15.36-84.944c-.97-5.552-2.96-8.086-7.14-8.055l-7.06.063c-4.6.047-6.06 2.784-6.98 8.18l-13.84 85.194c-.52 7.226-.69 9.917 7.64 11.934"/><path fill="#f7f3ea" d="M2157.99 747.953q13.26 4.065 26.49 0z"/><path stroke="#2a4385" stroke-linecap="round" stroke-linejoin="round" stroke-width="2" d="M2157.99 747.953q13.26 4.065 26.49 0"/><path fill="#f7f3ea" d="M2153.41 778.949c12.22 4.065 24.45 4.065 36.67 0z"/><path stroke="#2a4385" stroke-linecap="round" stroke-linejoin="round" stroke-width="2" d="M2153.41 778.949c12.22 4.065 24.45 4.065 36.67 0"/><path fill="#f7f3ea" d="M2148.83 804.863c15.27 7.453 30.56 7.453 45.83 0z"/><path stroke="#2a4385" stroke-linecap="round" stroke-linejoin="round" stroke-width="2" d="M2148.83 804.863c15.27 7.453 30.56 7.453 45.83 0"/><path fill="#2a4385" stroke="#2a4385" stroke-linecap="round" stroke-linejoin="round" stroke-width="2" d="m2211.83 837.1-.05-10.088-79.59.547.05 9.682s-.03.156-.03.234c0 4.614 17.81 8.352 39.8 8.352 21.98 0 39.8-3.738 39.8-8.352 0-.125-.02-.234-.05-.359h.08z"/><path fill="#2a4385" stroke="#2a4385" stroke-linecap="round" stroke-linejoin="round" stroke-width="2" d="M2132.19 828.059c0 4.739 18.37 9.072 40.35 9.072s39.24-4.333 39.24-9.072-17.82-8.571-39.8-8.571c-21.99 0-39.79 3.832-39.79 8.571"/><path fill="#2a4385" d="M2148.06 807.658s-1.68 10.458-1.53 13.211c.1 1.596 50.68.254 50.68.254.13-5.192-2.29-16.006-2.29-16.006s-22.41 11.941-46.09 0zm9.93-59.451-5.09 30.488c11.42 4.473 26.35 4.129 37.18 0l-5.6-30.488s-12.3 3.629-26.49 0"/></g><g clip-path="url(#d)"><path fill="#f7f3ea" stroke="#2a4385" stroke-linecap="round" stroke-linejoin="round" stroke-width="2" d="M4237.41 839.543c8.8 2.127 26.38 1.799 35.28-.422 8.33-2.096 8.11-4.739 7.46-11.95l-15.36-84.944c-.97-5.552-2.96-8.086-7.14-8.055l-7.06.063c-4.6.047-6.06 2.784-6.98 8.18l-13.84 85.194c-.52 7.226-.69 9.917 7.64 11.934"/><path fill="#f7f3ea" d="M4240.99 758.953q13.26 4.065 26.49 0z"/><path stroke="#2a4385" stroke-linecap="round" stroke-linejoin="round" stroke-width="2" d="M4240.99 758.953q13.26 4.065 26.49 0"/><path fill="#f7f3ea" d="M4236.41 789.949c12.22 4.065 24.45 4.065 36.67 0z"/><path stroke="#2a4385" stroke-linecap="round" stroke-linejoin="round" stroke-width="2" d="M4236.41 789.949c12.22 4.065 24.45 4.065 36.67 0"/><path fill="#f7f3ea" d="M4231.83 815.863c15.27 7.453 30.56 7.453 45.83 0z"/><path stroke="#2a4385" stroke-linecap="round" stroke-linejoin="round" stroke-width="2" d="M4231.83 815.863c15.27 7.453 30.56 7.453 45.83 0"/><path fill="#2a4385" stroke="#2a4385" stroke-linecap="round" stroke-linejoin="round" stroke-width="2" d="m4294.83 848.1-.05-10.088-79.59.547.05 9.682s-.03.156-.03.234c0 4.614 17.81 8.352 39.8 8.352 21.98 0 39.8-3.738 39.8-8.352 0-.125-.02-.234-.05-.359h.08z"/><path fill="#2a4385" stroke="#2a4385" stroke-linecap="round" stroke-linejoin="round" stroke-width="2" d="M4215.19 839.059c0 4.739 18.37 9.072 40.35 9.072s39.24-4.333 39.24-9.072-17.82-8.571-39.8-8.571c-21.99 0-39.79 3.832-39.79 8.571"/><path fill="#2a4385" d="M4231.06 818.658s-1.68 10.458-1.53 13.211c.1 1.596 50.68.254 50.68.254.13-5.192-2.29-16.006-2.29-16.006s-22.41 11.941-46.09 0zm9.93-59.451-5.09 30.488c11.41 4.473 26.35 4.129 37.18 0l-5.6-30.488s-12.3 3.629-26.49 0"/></g><g clip-path="url(#e)"><path fill="#f7f3ea" stroke="#2a4385" stroke-linecap="round" stroke-linejoin="round" stroke-width="2" d="M2286.41 831.543c8.8 2.127 26.38 1.799 35.28-.422 8.33-2.096 8.11-4.739 7.46-11.95l-15.36-84.944c-.97-5.552-2.96-8.086-7.14-8.055l-7.06.063c-4.6.047-6.06 2.784-6.98 8.18l-13.84 85.194c-.52 7.226-.69 9.917 7.64 11.934"/><path fill="#f7f3ea" d="M2289.99 750.953q13.26 4.065 26.49 0z"/><path stroke="#2a4385" stroke-linecap="round" stroke-linejoin="round" stroke-width="2" d="M2289.99 750.953q13.26 4.065 26.49 0"/><path fill="#f7f3ea" d="M2285.41 781.949c12.22 4.065 24.45 4.065 36.67 0z"/><path stroke="#2a4385" stroke-linecap="round" stroke-linejoin="round" stroke-width="2" d="M2285.41 781.949c12.22 4.065 24.45 4.065 36.67 0"/><path fill="#f7f3ea" d="M2280.83 807.863c15.27 7.453 30.56 7.453 45.83 0z"/><path stroke="#2a4385" stroke-linecap="round" stroke-linejoin="round" stroke-width="2" d="M2280.83 807.863c15.27 7.453 30.56 7.453 45.83 0"/><path fill="#2a4385" stroke="#2a4385" stroke-linecap="round" stroke-linejoin="round" stroke-width="2" d="m2343.83 840.1-.05-10.088-79.59.547.05 9.682s-.03.156-.03.234c0 4.614 17.81 8.352 39.8 8.352 21.98 0 39.8-3.738 39.8-8.352 0-.125-.02-.234-.05-.359h.08z"/><path fill="#2a4385" stroke="#2a4385" stroke-linecap="round" stroke-linejoin="round" stroke-width="2" d="M2264.19 831.059c0 4.739 18.37 9.072 40.35 9.072s39.24-4.333 39.24-9.072-17.82-8.571-39.8-8.571c-21.99 0-39.79 3.832-39.79 8.571"/><path fill="#2a4385" d="M2280.06 810.658s-1.68 10.458-1.53 13.211c.1 1.596 50.68.254 50.68.254.13-5.192-2.29-16.006-2.29-16.006s-22.41 11.941-46.09 0zm9.93-59.451-5.09 30.488c11.42 4.473 26.35 4.129 37.18 0l-5.6-30.488s-12.3 3.629-26.49 0"/></g><g clip-path="url(#f)"><path fill="#f7f3ea" stroke="#2a4385" stroke-linecap="round" stroke-linejoin="round" stroke-width="2" d="M2222.41 801.543c8.8 2.127 26.38 1.799 35.28-.422 8.33-2.096 8.11-4.739 7.46-11.95l-15.36-84.944c-.97-5.552-2.96-8.086-7.14-8.055l-7.06.063c-4.6.047-6.06 2.784-6.98 8.18l-13.84 85.194c-.52 7.226-.69 9.917 7.64 11.934"/><path fill="#f7f3ea" d="M2225.99 720.953q13.26 4.065 26.49 0z"/><path stroke="#2a4385" stroke-linecap="round" stroke-linejoin="round" stroke-width="2" d="M2225.99 720.953q13.26 4.065 26.49 0"/><path fill="#f7f3ea" d="M2221.41 751.949c12.22 4.065 24.45 4.065 36.67 0z"/><path stroke="#2a4385" stroke-linecap="round" stroke-linejoin="round" stroke-width="2" d="M2221.41 751.949c12.22 4.065 24.45 4.065 36.67 0"/><path fill="#f7f3ea" d="M2216.83 777.863c15.27 7.453 30.56 7.453 45.83 0z"/><path stroke="#2a4385" stroke-linecap="round" stroke-linejoin="round" stroke-width="2" d="M2216.83 777.863c15.27 7.453 30.56 7.453 45.83 0"/><path fill="#2a4385" stroke="#2a4385" stroke-linecap="round" stroke-linejoin="round" stroke-width="2" d="m2279.83 810.1-.05-10.088-79.59.547.05 9.682s-.03.156-.03.234c0 4.614 17.81 8.352 39.8 8.352 21.98 0 39.8-3.738 39.8-8.352 0-.125-.02-.234-.05-.359h.08z"/><path fill="#2a4385" stroke="#2a4385" stroke-linecap="round" stroke-linejoin="round" stroke-width="2" d="M2200.19 801.059c0 4.739 18.37 9.072 40.35 9.072s39.24-4.333 39.24-9.072-17.82-8.571-39.8-8.571c-21.99 0-39.79 3.832-39.79 8.571"/><path fill="#2a4385" d="M2216.06 780.658s-1.68 10.458-1.53 13.211c.1 1.596 50.68.254 50.68.254.13-5.192-2.29-16.006-2.29-16.006s-22.41 11.941-46.09 0zm9.93-59.451-5.09 30.488c11.42 4.473 26.35 4.129 37.18 0l-5.6-30.488s-12.3 3.629-26.49 0"/></g><path fill="#f7f3ea" stroke="#2a4385" stroke-miterlimit="10" stroke-width="2" d="M8196.13 562.684H8040.1c-2.26 0-4.1 1.882-4.1 4.204v155.118c0 2.322 1.84 4.204 4.1 4.204h156.03c2.26 0 4.1-1.882 4.1-4.204V566.888c0-2.322-1.84-4.204-4.1-4.204Z"/><path stroke="#2a4385" stroke-miterlimit="10" stroke-width="2" d="M8036 589.508h164.23M8036 616.699h164.23M8036 644.445h164.23M8036 672.535h164.23M8036 696.863h164.23"/><path fill="#f7f3ea" stroke="#2a4385" stroke-miterlimit="10" stroke-width="2" d="M8140.16 562.684h-47.68c-2.26 0-4.1 1.882-4.1 4.204v3.055c0 2.322 1.84 4.205 4.1 4.205h47.68c2.27 0 4.1-1.883 4.1-4.205v-3.055c0-2.322-1.83-4.204-4.1-4.204Zm.88 27.222h-47.68c-2.26 0-4.1 1.883-4.1 4.205v3.055c0 2.322 1.84 4.205 4.1 4.205h47.68c2.26 0 4.1-1.883 4.1-4.205v-3.055c0-2.322-1.84-4.205-4.1-4.205Zm0 26.68h-47.68c-2.26 0-4.1 1.882-4.1 4.204v3.056c0 2.322 1.84 4.204 4.1 4.204h47.68c2.26 0 4.1-1.882 4.1-4.204v-3.056c0-2.322-1.84-4.204-4.1-4.204Zm0 28.027h-47.68c-2.26 0-4.1 1.883-4.1 4.205v3.055c0 2.322 1.84 4.205 4.1 4.205h47.68c2.26 0 4.1-1.883 4.1-4.205v-3.055c0-2.322-1.84-4.205-4.1-4.205Zm0 28.032h-47.68c-2.26 0-4.1 1.882-4.1 4.204v3.055c0 2.322 1.84 4.205 4.1 4.205h47.68c2.26 0 4.1-1.883 4.1-4.205v-3.055c0-2.322-1.84-4.204-4.1-4.204Zm0 24.703h-47.68c-2.26 0-4.1 1.882-4.1 4.204v3.055c0 2.323 1.84 4.205 4.1 4.205h47.68c2.26 0 4.1-1.882 4.1-4.205v-3.055c0-2.322-1.84-4.204-4.1-4.204Zm55.09 27.91h-154.28c-2.26 0-4.1 1.882-4.1 4.204v105.141c0 2.322 1.84 4.204 4.1 4.204h154.28c2.26 0 4.1-1.882 4.1-4.204V729.462c0-2.322-1.84-4.204-4.1-4.204Z"/><path fill="#f7f3ea" stroke="#2a4385" stroke-miterlimit="10" stroke-width="2" d="M8141.04 725.902h-47.68c-2.26 0-4.1 1.883-4.1 4.205v3.055c0 2.322 1.84 4.205 4.1 4.205h47.68c2.26 0 4.1-1.883 4.1-4.205v-3.055c0-2.322-1.84-4.205-4.1-4.205Zm-108.98-174.793h-162.78c-2.36 0-4.28 1.964-4.28 4.387v161.836c0 2.422 1.92 4.386 4.28 4.386h162.78c2.37 0 4.28-1.964 4.28-4.386V555.496c0-2.423-1.91-4.387-4.28-4.387Z"/><path stroke="#2a4385" stroke-miterlimit="10" stroke-width="2" d="M7865 579.094h171.34M7865 607.465h171.34M7865 636.414h171.34M7865 665.715h171.34M7865 691.098h171.34"/><path fill="#f7f3ea" stroke="#2a4385" stroke-miterlimit="10" stroke-width="2" d="M7973.67 551.109h-49.74c-2.36 0-4.28 1.964-4.28 4.387v3.187c0 2.423 1.92 4.387 4.28 4.387h49.74c2.37 0 4.28-1.964 4.28-4.387v-3.187c0-2.423-1.91-4.387-4.28-4.387Zm.92 28.403h-49.75c-2.36 0-4.28 1.964-4.28 4.386v3.188c0 2.423 1.92 4.387 4.28 4.387h49.75c2.36 0 4.28-1.964 4.28-4.387v-3.188c0-2.422-1.92-4.386-4.28-4.386Zm0 27.836h-49.75c-2.36 0-4.28 1.964-4.28 4.386v3.188c0 2.423 1.92 4.386 4.28 4.386h49.75c2.36 0 4.28-1.963 4.28-4.386v-3.188c0-2.422-1.92-4.386-4.28-4.386Zm0 29.242h-49.75c-2.36 0-4.28 1.964-4.28 4.386v3.188c0 2.423 1.92 4.387 4.28 4.387h49.75c2.36 0 4.28-1.964 4.28-4.387v-3.188c0-2.422-1.92-4.386-4.28-4.386Zm0 29.242h-49.75c-2.36 0-4.28 1.964-4.28 4.387v3.187c0 2.423 1.92 4.387 4.28 4.387h49.75c2.36 0 4.28-1.964 4.28-4.387v-3.187c0-2.423-1.92-4.387-4.28-4.387Zm0 25.793h-49.75c-2.36 0-4.28 1.964-4.28 4.387v3.187c0 2.423 1.92 4.387 4.28 4.387h49.75c2.36 0 4.28-1.964 4.28-4.387v-3.187c0-2.423-1.92-4.387-4.28-4.387Zm57.47 29.098h-160.95c-2.37 0-4.28 1.964-4.28 4.386v109.694c0 2.423 1.91 4.387 4.28 4.387h160.95c2.37 0 4.28-1.964 4.28-4.387V725.109c0-2.422-1.91-4.386-4.28-4.386Z"/><path fill="#f7f3ea" stroke="#2a4385" stroke-miterlimit="10" stroke-width="2" d="M7974.59 721.398h-49.75c-2.36 0-4.28 1.964-4.28 4.387v3.188c0 2.422 1.92 4.386 4.28 4.386h49.75c2.36 0 4.28-1.964 4.28-4.386v-3.188c0-2.423-1.92-4.387-4.28-4.387Z"/><path fill="#2a4385" d="M4834.15 858.461c-.01.007-.03.013-.05.023-.88.357-1.46-.912-.61-1.328.23-.114.47-.226.71-.336l24.96-11.492a.74.74 0 0 1 .95.304l.54.953c.22.378.05.857-.35 1.028l-11.97 5.033-8.88 3.664-5.29 2.149z"/><path fill="#f7f3ea" stroke="#2a4385" stroke-miterlimit="10" stroke-width="2" d="M4861.83 848.505c-2.18-2.092-2.98-6.224-1.72-6.968 1.58-.937 4.73 3.136 4.16 6.339-.1.514-.38 1.151-.92 1.262-.5.105-1.12-.248-1.52-.636z"/><path stroke="#2a4385" stroke-miterlimit="10" stroke-width="1.5" d="m4859.15 845.337.69-.298"/><path fill="#2a4385" d="M4739.21 858.233q.015.011.03.025c.63.403 1.27-.491.67-.935-.16-.122-.33-.242-.5-.362l-17.59-12.47a.585.585 0 0 0-.78.097l-.55.657c-.22.26-.17.653.12.843l8.51 5.612 6.31 4.108 3.77 2.423z"/><path fill="#f7f3ea" stroke="#2a4385" stroke-miterlimit="10" stroke-width="2" d="M4719.3 846.547c1.98-1.299 3.21-4.371 2.35-5.127-1.09-.952-4.12 1.736-4.14 4.29-.01.41.12.943.52 1.106.37.153.9-.03 1.27-.271z"/><path stroke="#2a4385" stroke-miterlimit="10" stroke-width="1.5" d="m4721.83 844.494-.49-.33"/><path fill="#2a4385" d="M4815.4 858.14c.04.681-.96.808-1.09.136-.16-.858-.28-1.728-.4-2.62l-1.59-11.977-.83-6.556a.56.56 0 0 1 .51-.617l.94-.066c.3-.021.52-.036.58.492l1.69 18.264.19 2.915v.033z"/><path fill="#f7f3ea" stroke="#2a4385" stroke-miterlimit="10" stroke-width="2" d="M4814.9 835.656c-2.65 1.333-6.29.516-5.99-.838.1-.438.6-.877 1.04-1.07 1.36-.582 2.82-.726 4.24-.354.57.151 1.19.542 1.39 1.097.15.432-.26.952-.68 1.165Z"/><path fill="#2a4385" d="M4828.51 847.603c-.49.478-1.25-.193-.82-.729a45 45 0 0 1 1.72-2.023l8.01-9.062 4.42-4.93a.554.554 0 0 1 .8-.023l.67.664c.21.209.36.366 0 .759l-12.7 13.269-2.08 2.053-.03.024z"/><path fill="#f7f3ea" stroke="#2a4385" stroke-miterlimit="10" stroke-width="2" d="M4845.18 832.452c-2.74-1.112-4.51-4.383-3.29-5.046.39-.214 1.05-.128 1.49.078 1.33.634 2.4 1.638 3.05 2.949.26.529.37 1.252.08 1.766-.22.401-.89.431-1.33.253ZM3712.19 717.453h-89.68c-.83 0-1.51.678-1.51 1.514v37.52c0 .837.68 1.514 1.51 1.514h89.68c.84 0 1.52-.677 1.52-1.514v-37.52c0-.836-.68-1.514-1.52-1.514Zm92.71 0h-89.68c-.84 0-1.51.678-1.51 1.514v37.52c0 .837.67 1.514 1.51 1.514h89.68c.84 0 1.51-.677 1.51-1.514v-37.52c0-.836-.67-1.514-1.51-1.514Zm92.72 0h-89.68c-.84 0-1.52.678-1.52 1.514v37.52c0 .837.68 1.514 1.52 1.514h89.68c.83 0 1.51-.677 1.51-1.514v-37.52c0-.836-.68-1.514-1.51-1.514Zm-135.56-41.156h-89.68c-.83 0-1.51.678-1.51 1.514v37.52c0 .836.68 1.514 1.51 1.514h89.68c.84 0 1.52-.678 1.52-1.514v-37.52c0-.836-.68-1.514-1.52-1.514Zm92.72 0h-89.68c-.84 0-1.51.678-1.51 1.514v37.52c0 .836.67 1.514 1.51 1.514h89.68c.84 0 1.51-.678 1.51-1.514v-37.52c0-.836-.67-1.514-1.51-1.514Zm92.71 0h-89.68c-.84 0-1.52.678-1.52 1.514v37.52c0 .836.68 1.514 1.52 1.514h89.68c.83 0 1.51-.678 1.51-1.514v-37.52c0-.836-.68-1.514-1.51-1.514Zm-231.78-41.152h-89.68c-.83 0-1.51.677-1.51 1.514v37.52c0 .836.68 1.514 1.51 1.514h89.68c.84 0 1.52-.678 1.52-1.514v-37.52c0-.837-.68-1.514-1.52-1.514Zm92.71 0h-89.68c-.84 0-1.51.677-1.51 1.514v37.52c0 .836.67 1.514 1.51 1.514h89.68c.84 0 1.51-.678 1.51-1.514v-37.52c0-.837-.67-1.514-1.51-1.514Zm92.72 0h-89.68c-.84 0-1.52.677-1.52 1.514v37.52c0 .836.68 1.514 1.52 1.514h89.68c.83 0 1.51-.678 1.51-1.514v-37.52c0-.837-.68-1.514-1.51-1.514ZM3851.17 594h-89.68c-.84 0-1.52.678-1.52 1.514v37.52c0 .836.68 1.514 1.52 1.514h89.68c.83 0 1.51-.678 1.51-1.514v-37.52c0-.836-.68-1.514-1.51-1.514Zm92.72 0h-89.69c-.83 0-1.51.678-1.51 1.514v37.52c0 .836.68 1.514 1.51 1.514h89.69c.83 0 1.51-.678 1.51-1.514v-37.52c0-.836-.68-1.514-1.51-1.514Z"/><path fill="#f7f3ea" stroke="#2a4385" stroke-miterlimit="10" stroke-width="2" d="M3777.58 594.293s14.76 40.72 46.18 12.022c0 0 21.98 10.993 27.81-12.022zm36.74 122.553s13.35 21.763 43.26 8.277a4.27 4.27 0 0 1 3.66.081c4.57 2.332 19.49 4.795 25.69-3.513 1.04-1.393 1.56-3.109 1.56-4.855h-74.17zm24.95-65.6-14.34 15.504c-.04.041-.04.103 0 .139s.1.032.14-.009l14.34-15.504c.04-.041.04-.103 0-.139s-.1-.032-.14.009Zm87.46 25.053s3.34 21.763 10.82 8.277c.29-.525.63-.494.92.081 1.15 2.332 4.88 4.795 6.42-3.513.27-1.393.4-3.109.4-4.855h-18.56zm-297.15-41.154s9.9 16.029 30.94 4.734c0 0 14.72 4.33 18.63-4.734zM4631.36 769.14h170.44c2.42 0 4.36 1.811 4.36 4.054v51.18c0 2.243-1.97 4.08-4.39 4.053l-170.44-1.324c-2.38 0-4.33-1.837-4.33-4.053v-49.883c0-2.243 1.95-4.054 4.36-4.054z"/><path fill="#f7f3ea" d="M4806.18 773.159c-.08-10.538-.83-18.238-1.76-23.804-1.28-7.727-7.96-13.347-15.71-13.347h-143.92c-15.57 0-17.66 20.075-17.79 28.964-.03 2.269 1.76 4.134 4.01 4.134h175.17"/><path stroke="#2a4385" stroke-miterlimit="10" stroke-width="2" d="M4806.18 773.159c-.08-10.538-.83-18.238-1.76-23.804-1.28-7.727-7.96-13.347-15.71-13.347h-143.92c-15.57 0-17.66 20.075-17.79 28.964-.03 2.269 1.76 4.134 4.01 4.134h175.17"/><path fill="#2a4385" stroke="#2a4385" stroke-miterlimit="10" stroke-width="2" d="M4753.41 735.509h-2.64c0-3.959 1.31-18.613-9.36-18.952-8.95-.285-35.13 0-44.99 0-1.94 0-7.58-.469-10.6 2.999-2.66 3.058-4.43 7.742-3.05 15.993h-2.64s-4.79-22.99 14.4-22.99h46.03c4.1 0 7.57 1.601 9.55 4.003 3.3 4.004 3.33 8.823 3.3 18.947Z"/><path fill="#f7f3ea" stroke="#2a4385" stroke-miterlimit="10" stroke-width="2" d="M4667.48 759.918h-6.76c-2.21 0-4 1.814-4 4.053v9.132c0 2.238 1.79 4.053 4 4.053h6.76c2.21 0 4.01-1.815 4.01-4.053v-9.132c0-2.239-1.8-4.053-4.01-4.053Zm105.82 0h-6.75c-2.21 0-4.01 1.814-4.01 4.053v10.051c0 2.238 1.8 4.053 4.01 4.053h6.75c2.22 0 4.01-1.815 4.01-4.053v-10.051c0-2.239-1.79-4.053-4.01-4.053Zm-49.02 26.424h-15.17c-2.22 0-4.01-1.81-4.01-4.053v-18.346c0-2.242 1.79-4.052 4.01-4.052h15.17c2.21 0 4 1.81 4 4.052v18.346c0 2.243-1.79 4.053-4 4.053Z"/><path stroke="#2a4385" stroke-miterlimit="10" stroke-width="2" d="M4728.46 771.801h-23.66"/><path fill="#f7f3ea" stroke="#2a4385" stroke-miterlimit="10" stroke-width="2" d="M4849.55 819.379c-.43.565-.6 1.15-.38 1.723l1.64 4.298c.25.679 1.12.877 1.65.379 3.31-3.103 7.82-5.079 12.09-6.229 1.37-.368 2.7-.542 4.06-.602.7-.029 1.17-.732.91-1.381-.08-.216-.16-.428-.25-.644-.08-.216-.17-.426-.26-.641a35 35 0 0 0-1.46-3.144 1.01 1.01 0 0 0-.78-.53c-1.03-.119-2.06-.222-2.99-.81-2.61-1.665-3.71-4.832-2.99-7.784l.48-1.941c.04-.178.04-.367-.02-.544a56 56 0 0 0-2.44-6.58l-2.18-4.906-1.85-3.968c-1-2.127-2.12-4-3.76-5.754-3.45-3.707-7.1-7.126-11.12-10.203-.93-.713-2.14.442-1.46 1.398l1.64 2.326c.37.529 1.1 1.578.82 1.955-.07.104-.47.013-.58-.09a48 48 0 0 0-4.52-3.697c-.99-.71-2.18.588-1.38 1.502 1.56 1.775 2.82 3.75 3.87 5.847s1.63 4.48 1.52 6.904c-.22 5.044-3.68 5.522-3 7.906 1.32 4.664 3.09 9.204 5.37 13.486 1.54 2.892 3.85 1.358 6.65 4.104 2.09 2.039 2.53 5.188.72 7.622zm-81.44 2.976c.38 3.287 1.68 6.353 3.61 8.962 1.39 1.877 2.66 1.782 4.57 1.023 9.14-4.028 18.32-7.74 27.59-11.517l7.42-3.017c.76-.306 1.06-1.2.67-1.91-1.43-2.574-2.48-5.273-3-8.214-.14-.814-.89-1.307-1.69-1.088l-2.2.602-8.25 2.509-16.24 4.9-6 1.85c-2.94.905-6.93 1.973-6.48 5.897z"/><path fill="#f7f3ea" stroke="#2a4385" stroke-miterlimit="10" stroke-width="2" d="M4809.32 807.507c.5 3.054 1.6 5.932 3.2 8.598.39.637 1.18.905 1.88.647l21.61-8.029 3.96-1.372c.79-.246 1.53-.975.91-2.103-1.11-2.441-2.07-4.899-3.01-7.548-.37-1.05-1.19-1.237-2-.94l-11.73 4.33-13.79 4.71c-.71.243-1.15.963-1.03 1.701zm43.84 20.921c1.21.062 2.05.05 3.08-.178 3.95-.873 7.68-2.462 11.09-4.66.94-.604 3.31-2.419 3.01-3.535-.24-.908-2.17-.821-3-.7-4.71.697-9.18 2.492-13.02 5.309-.9.662-1.69 1.444-2.17 2.414-.29.573-.12 1.292 1.01 1.35Zm7.01-30.821c.86-.2 1.18-1.277 1.09-2.142-.22-2.242-1.26-4.396-2.85-6.011-.6-.616-1.29-1.142-2.24-.914l3.99 9.07z"/><path fill="#f7f3ea" d="M4852.07 827.878s-.73-.737-1.48-3.072z"/><path stroke="#2a4385" stroke-miterlimit="10" stroke-width="2" d="M4852.07 827.878s-.73-.737-1.48-3.072"/><path stroke="#2a4385" stroke-miterlimit="10" stroke-width="2" d="m4851.32 826.288.76.123-.54.452m-14.11-30.629-1.23.435-1.24.435m4.63 10.387 1.99-.63-.46-.538"/><path fill="#f7f3ea" d="m4814.25 816.793-1.48.538-2.24.805"/><path stroke="#2a4385" stroke-miterlimit="10" stroke-width="2" d="m4814.25 816.793-1.48.538-2.24.805m1.84-1.844.39 1.194m-2.59-11.611-3.45.883m2.2.322.11-.266-.09-.56"/><g stroke="#2a4385" stroke-linecap="round" stroke-linejoin="round" clip-path="url(#g)"><path fill="#f7f3ea" stroke-width="2" d="M8926.72 773.945h-18.55c-.9 0-1.63.731-1.63 1.633v29.38c0 .902.73 1.633 1.63 1.633h18.55c.91 0 1.64-.731 1.64-1.633v-29.38c0-.902-.73-1.633-1.64-1.633m-511.71 0h-18.55c-.91 0-1.64.731-1.64 1.633v29.38c0 .902.73 1.633 1.64 1.633h18.55c.9 0 1.63-.731 1.63-1.633v-29.38c0-.902-.73-1.633-1.63-1.633M8926 540.402h-363c-1.2 0-2.17.971-2.17 2.168v212.961c0 1.197.97 2.168 2.17 2.168h363c1.19 0 2.17-.971 2.17-2.168V542.57c0-1.197-.98-2.168-2.17-2.168m-365.23-21.172h-165.69v238.491h165.69z"/><path fill="#f7f3ea" stroke-width="2" d="M8910.65 556.141h-335.31c-1.03 0-1.86.903-1.86 2.018v184.318c0 1.114.83 2.018 1.86 2.018h335.31c1.02 0 1.86-.904 1.86-2.018V558.159c0-1.115-.84-2.018-1.86-2.018"/><path fill="#f7f3ea" stroke-width="2" d="M8560.77 533.609h-165.69v116.876h165.69z" opacity=".8"/><path fill="#f7f3ea" stroke-width="2" d="M8936.01 519.145H8388c-1.1 0-1.99.91-1.99 2.034v17.946c0 1.124.89 2.035 1.99 2.035h548.01c1.1 0 1.99-.911 1.99-2.035v-17.946c0-1.124-.89-2.034-1.99-2.034m0 238.503H8388c-1.1 0-1.99.911-1.99 2.035v17.946c0 1.124.89 2.035 1.99 2.035h548.01c1.1 0 1.99-.911 1.99-2.035v-17.946c0-1.124-.89-2.035-1.99-2.035"/><path fill="#2a4385" stroke-width="1.407" d="M8502.21 561.809h-48.59c-.96 0-1.75.783-1.75 1.75v8.995c0 .966.79 1.75 1.75 1.75h48.59c.97 0 1.76-.784 1.76-1.75v-8.995c0-.967-.79-1.75-1.76-1.75"/><path fill="#2a4385" stroke-width="2" d="M8502.21 669.852h-48.59c-.96 0-1.75.783-1.75 1.75v8.995c0 .966.79 1.75 1.75 1.75h48.59c.97 0 1.76-.784 1.76-1.75v-8.995c0-.967-.79-1.75-1.76-1.75"/><path fill="#2a4385" stroke-width="1.407" d="M8614.56 683.856v-66.598c0-.967-.78-1.75-1.75-1.75h-9.62c-.97 0-1.75.783-1.75 1.75v66.598c0 .966.78 1.75 1.75 1.75h9.62c.97 0 1.75-.784 1.75-1.75"/></g><g clip-path="url(#h)"><path fill="#f7f3ea" d="m8940.05 525.411-3.67 32.798 13.37 7.43 27.06-25.914z"/><path fill="#f7f3ea" stroke="#2a4385" stroke-miterlimit="10" stroke-width="2" d="M8945.74 567.568c-1.45-.423-2.63-.964-3.51-1.559-1.99-.535-5.47-1.939-7.96-4.543-1.99-2.089-3.59-4.42-3.4-7.237l1.68-24.803 9.93 1.387-.53 6.87-5.39-.791-1.38 20.048c-.15 2.281.99 4.151 2.42 5.822 1.79 2.091 4.31 3.205 5.75 3.617.6.456 1.41.864 2.39 1.189Z"/><path fill="#2a4385" d="M8967.69 547.729s-11.5 10.555-15.8 13.558c-1.15.797-2.72 1.328-4.09 1.113l-.04-.002c-1.26-.2-2.59-.7-3.16-1.034 0-.011-.01.011 0 0-.65-.362-1.59-.997-2.33-1.735 0-.006-.01-.012-.02-.024-.98-.995-1.44-2.438-1.33-3.826l1.31-16.774-7.19-1.056-1.38 20.049c-.16 2.28.99 4.151 2.42 5.822 1.79 2.091 4.31 3.199 5.75 3.617 1.23.924 3.3 1.668 5.93 1.889 2.2.182 4.1-.119 5.96-1.377 5.55-3.764 13.46-11.215 18.63-15.491l-4.65-4.735z"/><path stroke="#2a4385" stroke-miterlimit="10" stroke-width="2" d="M8944.6 561.364c.57.334 1.9.834 3.16 1.034l.04.002c1.37.215 2.94-.316 4.09-1.113 4.3-3.003 15.8-13.558 15.8-13.558l.01-.006 4.65 4.735c-5.17 4.276-13.08 11.727-18.63 15.491-1.86 1.257-3.76 1.559-5.96 1.377-2.63-.221-4.7-.965-5.93-1.889-1.44-.418-3.96-1.526-5.75-3.617-1.43-1.671-2.58-3.542-2.42-5.822l1.38-20.049 7.19 1.056-1.31 16.774c-.11 1.388.35 2.831 1.33 3.826.01.012.02.018.02.024.74.738 1.68 1.373 2.33 1.735Zm0 0c0-.011-.01.011 0 0Z"/><path fill="#2a4385" stroke="#2a4385" stroke-miterlimit="10" stroke-width="2" d="M8986.56 549.047c-.16.351-.31.674-.46.974-.2.41-.49.763-.85 1.03a20.2 20.2 0 0 1-6.49 3.242c-2.39.701-4.54.852-6.23.801a2.79 2.79 0 0 1-2.55-1.877c-.76-2.193-2.18-5.163-3.88-8.342-.07-.118-.14-.237-.22-.346-2.98-4.1-4.48-6.486-8.5-7.313-9.23-1.89-16.92 3.956-21.81 1.58-4.45-2.161-2.58-6.085-8.53-10.495-3.35-2.472-6.76-3.491-13.72-4.92-4.55-.931-8.28-1.498-11.06-1.923-.62-.094-1.03-.716-.89-1.352.19-.87.42-1.765.7-2.68.16.149.37.25.61.285 2.88.433 6.76 1.011 11.49 1.956 7.23 1.451 10.78 2.481 14.26 4.963 6.19 4.429 4.26 8.348 8.9 10.523 5.09 2.391 13.05-3.433 22.65-1.515 4.18.839 5.75 3.23 8.85 7.341.09.108.16.228.23.346 1.77 3.185 3.26 6.16 4.06 8.355.4 1.104 1.46 1.85 2.65 1.885 1.75.056 3.98-.089 6.47-.782a21.4 21.4 0 0 0 4.33-1.735z"/><path fill="#f7f3ea" stroke="#2a4385" stroke-miterlimit="10" stroke-width="2" d="M8902.56 518.621a1.106 1.106 0 0 1-.92-1.354c1.49-6.637 5.53-14.847 12.54-21.073 20.91-18.554 61.11-12.81 73.82 7.405 5.02 7.969 5.56 17.844 5.67 19.89.6 11.123-2.93 19.679-5.04 23.868-.21.409-.5.761-.87 1.028a21.3 21.3 0 0 1-6.66 3.23c-2.45.695-4.66.836-6.38.788-1.18-.035-2.23-.78-2.62-1.888-.79-2.195-2.26-5.168-4.01-8.351a2 2 0 0 0-.22-.341c-3.07-4.107-4.61-6.496-8.73-7.332-9.48-1.913-17.35 3.918-22.37 1.537-4.58-2.17-2.67-6.091-8.78-10.513-3.43-2.484-6.94-3.505-14.08-4.949-4.67-.946-8.51-1.515-11.35-1.945Z"/><path fill="#f7f3ea" stroke="#2a4385" stroke-miterlimit="10" stroke-width="2" d="m8976.02 515.134 7.71-.249a.86.86 0 0 0 .8-1.062l-.37-1.419a.85.85 0 0 0-.86-.634l-7.62.324a.847.847 0 0 0-.8 1.022l.28 1.344c.09.404.45.687.86.674Zm1.35 6.168 7.71-.249a.86.86 0 0 0 .8-1.062l-.37-1.419a.846.846 0 0 0-.86-.634l-7.63.324a.846.846 0 0 0-.79 1.022l.28 1.344c.08.404.45.687.86.674Z"/></g><g stroke="#2a4385" stroke-miterlimit="10" stroke-width="2" clip-path="url(#i)"><path fill="#f7f3ea" d="M4445.89 629.148h-156.78v121.734h156.78z"/><path fill="#f7f3ea" d="M4383.36 665.894c-4.27-4.014-35.1-2.587-37.8 0v-36.789h37.8z"/><path stroke-linecap="round" d="M4407.53 729.297h27.68m-27.68 5.773h27.68m-27.68 5.774h27.68"/></g><g stroke="#2a4385" stroke-miterlimit="10" stroke-width="2" clip-path="url(#j)"><path fill="#f7f3ea" d="M4572.84 637.207h-163.68v127.624h163.68z"/><path fill="#f7f3ea" d="M4507.56 675.729c-4.46-4.208-36.64-2.713-39.46 0V637.16h39.46z"/><path stroke-linecap="round" d="M4532.79 742.199h28.9m-28.9 6.051h28.9m-28.9 6.055h28.9"/></g><path fill="#f7f3ea" stroke="#2a4385" stroke-linecap="round" stroke-linejoin="round" stroke-width="2" d="M10198 795.672h-18.1c-.9 0-1.6.714-1.6 1.594v28.7c0 .881.7 1.595 1.6 1.595h18.1c.8 0 1.6-.714 1.6-1.595v-28.7c0-.88-.8-1.594-1.6-1.594m258.1 0h-18.1c-.8 0-1.6.714-1.6 1.594v28.7c0 .881.8 1.595 1.6 1.595h18.1c.9 0 1.6-.714 1.6-1.595v-28.7c0-.88-.7-1.594-1.6-1.594"/><path fill="#f7f3ea" stroke="#2a4385" stroke-linecap="round" stroke-linejoin="round" stroke-width="2" d="M10459.9 758.223H10176c-1.1 0-2 .891-2 1.991v38.999c0 1.099.9 1.991 2 1.991h283.9c1.1 0 2-.892 2-1.991v-38.999c0-1.1-.9-1.991-2-1.991m1.9-536.2h-182v447.292h182z"/><path fill="#f7f3ea" stroke="#2a4385" stroke-linecap="round" stroke-linejoin="round" stroke-width="2" d="M10317.3 222.023H10174v447.292h143.3z"/><path fill="#f7f3ea" stroke="#2a4385" stroke-linecap="round" stroke-linejoin="round" stroke-width="2" d="M10462 658.828h-288v131.903h288zm-286-531.832h283.8c1.1 0 2 .889 2 1.991v93.037H10174v-93.037c0-1.102.9-1.991 2-1.991"/><path fill="#f7f3ea" stroke="#2a4385" stroke-linecap="round" stroke-linejoin="round" stroke-width="2" d="M10443.1 146.52h-249.2c-1.1 0-2 .891-2 1.991v5.973c0 1.1.9 1.991 2 1.991h249.2c1.1 0 2-.891 2-1.991v-5.973c0-1.1-.9-1.991-2-1.991m0 18.042h-249.2c-1.1 0-2 .892-2 1.992v5.973c0 1.1.9 1.991 2 1.991h249.2c1.1 0 2-.891 2-1.991v-5.973c0-1.1-.9-1.992-2-1.992m0 19.711h-249.2c-1.1 0-2 .892-2 1.992v5.973c0 1.099.9 1.991 2 1.991h249.2c1.1 0 2-.892 2-1.991v-5.973c0-1.1-.9-1.992-2-1.992"/><path fill="#2a4385" stroke="#2a4385" stroke-linecap="round" stroke-linejoin="round" stroke-width="2" d="M10347.9 203.148h-58.8c-1.1 0-2 .892-2 1.992v5.973c0 1.099.9 1.991 2 1.991h58.8c1.1 0 2-.892 2-1.991v-5.973c0-1.1-.9-1.992-2-1.992M10198 214.18c3.3 0 6-2.71 6-6.053s-2.7-6.053-6-6.053c-3.4 0-6.1 2.71-6.1 6.053s2.7 6.053 6.1 6.053"/><path fill="#f7f3ea" stroke="#2a4385" stroke-linecap="round" stroke-linejoin="round" stroke-width="2" d="M10216.1 214.18c3.3 0 6-2.71 6-6.053s-2.7-6.053-6-6.053-6 2.71-6 6.053 2.7 6.053 6 6.053"/><path fill="#2a4385" stroke="#2a4385" stroke-linecap="round" stroke-linejoin="round" stroke-width="2" d="M10234.2 214.18c3.4 0 6.1-2.71 6.1-6.053s-2.7-6.053-6.1-6.053c-3.3 0-6 2.71-6 6.053s2.7 6.053 6 6.053m67.7 174.484h-9.3c-1.1 0-2 .892-2 1.991v178.959c0 1.1.9 1.991 2 1.991h9.3c1.1 0 2-.891 2-1.991V390.655c0-1.099-.9-1.991-2-1.991m41.2 0h-9.4c-1.1 0-2 .892-2 1.991v178.959c0 1.1.9 1.991 2 1.991h9.4c1.1 0 2-.891 2-1.991V390.655c0-1.099-.9-1.991-2-1.991"/><path fill="#f7f3ea" stroke="#2a4385" stroke-miterlimit="10" stroke-width="2" d="m14862.6 400.158 3.1 16.223c.6 3.036 3.3 5.23 6.4 5.23h291.9c3 0 5.7-2.071 6.4-5.004l3.9-17.392z"/><path stroke="#2a4385" stroke-linecap="round" stroke-miterlimit="10" stroke-width="2" d="M14879.3 409.215h102.4m6.7 4.935v-6.002h25.6v6.399m-140.3-14.266v21.33m289.5-21.33v21.33m-140.3-1.215 10-19.197m6.7 19.197 8.9-19.197"/><path fill="#f7f3ea" stroke="#2a4385" stroke-width="2" d="M15151.5 407.68c1.6 0 2.9 1.263 2.9 2.732s-1.3 2.733-2.9 2.734-2.9-1.265-2.9-2.734 1.3-2.732 2.9-2.732Zm-11.1 0c1.6 0 2.9 1.263 2.9 2.732s-1.3 2.733-2.9 2.734c-1.7 0-2.9-1.265-2.9-2.734s1.2-2.732 2.9-2.732Zm-11.2 0c1.7 0 2.9 1.263 2.9 2.732s-1.2 2.733-2.9 2.734c-1.6 0-2.9-1.265-2.9-2.734s1.3-2.732 2.9-2.732Z"/><path fill="#f7f3ea" stroke="#2a4385" stroke-miterlimit="10" stroke-width="2" d="M14971.7 121.418h88.1c1.8 0 3.2.869 3.2 1.946v142.458h-94.5V123.364c0-1.077 1.5-1.946 3.2-1.946Z"/><path fill="#2a4385" stroke="#2a4385" stroke-miterlimit="10" stroke-width="1.5" d="m14841.4 388.418 12.4 11.792c.7.725 1.7 1.127 2.8 1.127h322.7c1.1 0 2.1-.402 2.8-1.127l14.5-13.804z"/><path fill="#f7f3ea" stroke="#2a4385" stroke-miterlimit="10" stroke-width="2" d="m14969.1 265.895-129.9 119.504c-.9.736-.3 2.075.9 2.075h357c1.2 0 1.8-1.245 1-2l-135.7-119.579zm271.5 134.263 3.1 16.223c.6 3.036 3.3 5.23 6.4 5.23h291.9c3 0 5.7-2.071 6.4-5.004l3.9-17.392z"/><path stroke="#2a4385" stroke-linecap="round" stroke-miterlimit="10" stroke-width="2" d="M15257.3 409.215h102.4m6.7 4.935v-6.002h25.6v6.399m-140.3-14.266v21.33m289.5-21.33v21.33m-140.3-1.215 10-19.197m6.7 19.197 8.9-19.197"/><path fill="#f7f3ea" stroke="#2a4385" stroke-width="2" d="M15529.5 407.68c1.6 0 2.9 1.263 2.9 2.732s-1.3 2.733-2.9 2.734-2.9-1.265-2.9-2.734 1.3-2.732 2.9-2.732Zm-11.1 0c1.6 0 2.9 1.263 2.9 2.732s-1.3 2.733-2.9 2.734c-1.7 0-2.9-1.265-2.9-2.734s1.2-2.732 2.9-2.732Zm-11.2 0c1.7 0 2.9 1.263 2.9 2.732s-1.2 2.733-2.9 2.734c-1.6 0-2.9-1.265-2.9-2.734s1.3-2.732 2.9-2.732Z"/><path fill="#f7f3ea" stroke="#2a4385" stroke-miterlimit="10" stroke-width="2" d="M15349.7 121.418h88.1c1.8 0 3.2.869 3.2 1.946v142.458h-94.5V123.364c0-1.077 1.5-1.946 3.2-1.946Z"/><path fill="#2a4385" stroke="#2a4385" stroke-miterlimit="10" stroke-width="1.5" d="m15219.4 388.418 12.4 11.792c.7.725 1.7 1.127 2.8 1.127h322.7c1.1 0 2.1-.402 2.8-1.127l14.5-13.804z"/><path fill="#f7f3ea" stroke="#2a4385" stroke-miterlimit="10" stroke-width="2" d="m15347.1 265.895-129.9 119.504c-.9.736-.3 2.075.9 2.075h357c1.2 0 1.8-1.245 1-2l-135.7-119.579z"/><path fill="#f7f3ea" stroke="#2a4385" stroke-linecap="round" stroke-linejoin="round" stroke-width="2" d="M14840.8 799.996h-19.1c-.9 0-1.7.756-1.7 1.688v30.39c0 .932.8 1.688 1.7 1.688h19.1c.9 0 1.6-.756 1.6-1.688v-30.39c0-.932-.7-1.688-1.6-1.688m377.9 0h-19c-.9 0-1.7.756-1.7 1.688v30.39c0 .932.8 1.688 1.7 1.688h19c.9 0 1.7-.756 1.7-1.688v-30.39c0-.932-.8-1.688-1.7-1.688m-5-233.906h-396.8c-1.8 0-3.3 1.475-3.3 3.295v6.479c0 1.82 1.5 3.295 3.3 3.295h396.8c1.8 0 3.3-1.475 3.3-3.295v-6.479c0-1.82-1.5-3.295-3.3-3.295m0-8.106h-396.8c-1.8 0-3.3 1.475-3.3 3.295v.879c0 1.819 1.5 3.294 3.3 3.294h396.8c1.8 0 3.3-1.475 3.3-3.294v-.879c0-1.82-1.5-3.295-3.3-3.295m-200 80.696h-190c-2.2 0-4 1.473-4 3.29v145.42c0 1.817 1.8 3.29 4 3.29h190c2.2 0 4-1.473 4-3.29V641.97c0-1.817-1.8-3.29-4-3.29"/><path fill="#f7f3ea" stroke="#2a4385" stroke-linecap="round" stroke-linejoin="round" stroke-width="2" d="M15211.9 579.199h-392.8v59.525h392.8z"/><path fill="#f7f3ea" stroke="#2a4385" stroke-linecap="round" stroke-linejoin="round" stroke-width="2" d="M14865.5 623.11c7.4 0 13.5-6.038 13.5-13.487s-6.1-13.486-13.5-13.486-13.4 6.038-13.4 13.486 6 13.487 13.4 13.487"/><path fill="#f7f3ea" stroke="#2a4385" stroke-width="2" d="M14865.5 592.111a13.52 13.52 0 0 1 0 11.463 14.3 14.3 0 0 1 0-11.463Z"/><path fill="#f7f3ea" stroke="#2a4385" stroke-linecap="round" stroke-linejoin="round" stroke-width="2" d="M14865.5 616.717c3.9 0 7.1-3.177 7.1-7.095s-3.2-7.095-7.1-7.095-7 3.177-7 7.095 3.1 7.095 7 7.095m51.7 6.393c7.5 0 13.5-6.038 13.5-13.487s-6-13.486-13.5-13.486c-7.4 0-13.4 6.038-13.4 13.486s6 13.487 13.4 13.487"/><path fill="#f7f3ea" stroke="#2a4385" stroke-width="2" d="M14917.2 592.111a13.52 13.52 0 0 1 0 11.463 14.3 14.3 0 0 1 0-11.463Z"/><path fill="#f7f3ea" stroke="#2a4385" stroke-linecap="round" stroke-linejoin="round" stroke-width="2" d="M14917.2 616.717c3.9 0 7.1-3.177 7.1-7.095s-3.2-7.095-7.1-7.095-7 3.177-7 7.095 3.1 7.095 7 7.095m51.8 6.393c7.4 0 13.4-6.038 13.4-13.487s-6-13.486-13.4-13.486-13.4 6.038-13.4 13.486 6 13.487 13.4 13.487"/><path fill="#f7f3ea" stroke="#2a4385" stroke-width="2" d="M14969 592.111c1.6 3.622 1.6 7.836 0 11.463a13.52 13.52 0 0 1 0-11.463Z"/><path fill="#f7f3ea" stroke="#2a4385" stroke-linecap="round" stroke-linejoin="round" stroke-width="2" d="M14969 616.717c3.9 0 7.1-3.177 7.1-7.095s-3.2-7.095-7.1-7.095-7.1 3.177-7.1 7.095 3.2 7.095 7.1 7.095m93.1 6.393c7.4 0 13.4-6.038 13.4-13.487s-6-13.486-13.4-13.486c-7.5 0-13.5 6.038-13.5 13.486s6 13.487 13.5 13.487"/><path fill="#f7f3ea" stroke="#2a4385" stroke-width="2" d="M15062.1 592.111c1.6 3.622 1.6 7.836 0 11.463a13.52 13.52 0 0 1 0-11.463Z"/><path fill="#f7f3ea" stroke="#2a4385" stroke-linecap="round" stroke-linejoin="round" stroke-width="2" d="M15062.1 616.717c3.9 0 7-3.177 7-7.095s-3.1-7.095-7-7.095-7.1 3.177-7.1 7.095 3.2 7.095 7.1 7.095m51.7 6.393c7.4 0 13.4-6.038 13.4-13.487s-6-13.486-13.4-13.486-13.4 6.038-13.4 13.486 6 13.487 13.4 13.487"/><path fill="#f7f3ea" stroke="#2a4385" stroke-width="2" d="M15113.8 592.111c1.7 3.622 1.6 7.836 0 11.463-1.6-3.626-1.7-7.841 0-11.463Z"/><path fill="#f7f3ea" stroke="#2a4385" stroke-linecap="round" stroke-linejoin="round" stroke-width="2" d="M15113.8 616.717c3.9 0 7.1-3.177 7.1-7.095s-3.2-7.095-7.1-7.095-7.1 3.177-7.1 7.095 3.2 7.095 7.1 7.095m51.7 6.393c7.4 0 13.5-6.038 13.5-13.487s-6.1-13.486-13.5-13.486-13.4 6.038-13.4 13.486 6 13.487 13.4 13.487"/><path fill="#f7f3ea" stroke="#2a4385" stroke-width="2" d="M15165.5 592.111a13.52 13.52 0 0 1 0 11.463 14.3 14.3 0 0 1 0-11.463Z"/><path fill="#f7f3ea" stroke="#2a4385" stroke-linecap="round" stroke-linejoin="round" stroke-width="2" d="M15165.5 616.717c3.9 0 7.1-3.177 7.1-7.095s-3.2-7.095-7.1-7.095-7 3.177-7 7.095 3.1 7.095 7 7.095m-198.9 142.076H14866zm-96.9-80.545c0 4.13-1.8 7.688-6.4 7.688s-8.3-3.338-8.3-7.468c0-4.129 3.7-7.468 8.3-7.468s6.4 3.119 6.4 7.248m94 0c0 4.13 1.9 7.688 6.5 7.688 4.7 0 8.4-3.338 8.4-7.468 0-4.129-3.7-7.468-8.4-7.468-4.6 0-6.5 3.119-6.5 7.248"/><path fill="#2a4385" stroke="#2a4385" stroke-linecap="round" stroke-linejoin="round" stroke-width="2" d="M14963.6 673.594h-94.6c-1.7 0-3 1.357-3 3.031v3.668c0 1.674 1.3 3.031 3 3.031h94.6c1.7 0 3-1.357 3-3.031v-3.668c0-1.674-1.3-3.031-3-3.031"/><path fill="#f7f3ea" stroke="#2a4385" stroke-linecap="round" stroke-linejoin="round" stroke-width="2" d="M15207.7 638.68h-187c-2.2 0-4 1.473-4 3.29v145.42c0 1.817 1.8 3.29 4 3.29h187c2.2 0 4-1.473 4-3.29V641.97c0-1.817-1.8-3.29-4-3.29"/><path fill="#f7f3ea" stroke="#2a4385" stroke-linecap="round" stroke-linejoin="round" stroke-width="2" d="M15066.7 678.248c0 4.13-1.8 7.688-6.4 7.688s-8.3-3.338-8.3-7.468c0-4.129 3.7-7.468 8.3-7.468s6.4 3.119 6.4 7.248m94 0c0 4.13 1.9 7.688 6.5 7.688 4.7 0 8.4-3.338 8.4-7.468 0-4.129-3.7-7.468-8.4-7.468-4.6 0-6.5 3.119-6.5 7.248"/><path fill="#2a4385" stroke="#2a4385" stroke-linecap="round" stroke-linejoin="round" stroke-width="2" d="M15160.6 673.613h-94.6c-1.7 0-3 1.357-3 3.031v3.669c0 1.674 1.3 3.031 3 3.031h94.6c1.7 0 3-1.357 3-3.031v-3.669c0-1.674-1.3-3.031-3-3.031"/><path fill="#f7f3ea" stroke="#2a4385" stroke-linecap="round" stroke-linejoin="round" stroke-width="2" d="M15205.9 791h-399.8c-1.7 0-3.1 1.418-3.1 3.166v9.668c0 1.748 1.4 3.166 3.1 3.166h399.8c1.7 0 3.1-1.418 3.1-3.166v-9.668c0-1.748-1.4-3.166-3.1-3.166m-273.2-233.455h-84.3l12.4-6.084h59.4z"/><path stroke="#2a4385" stroke-linecap="round" stroke-linejoin="round" stroke-width="2" d="M14890.6 555.832v-3.844"/><path fill="#f7f3ea" stroke="#2a4385" stroke-linecap="round" stroke-linejoin="round" stroke-width="2" d="M15016 557.545h-84.3l12.3-6.084h59.5z"/><path stroke="#2a4385" stroke-linecap="round" stroke-linejoin="round" stroke-width="2" d="M14973.8 555.832v-3.844"/><path fill="#f7f3ea" stroke="#2a4385" stroke-linecap="round" stroke-linejoin="round" stroke-width="2" d="M15099.3 557.545h-84.3l12.3-6.084h59.5z"/><path stroke="#2a4385" stroke-linecap="round" stroke-linejoin="round" stroke-width="2" d="M15057.1 555.832v-3.844"/><path fill="#f7f3ea" stroke="#2a4385" stroke-linecap="round" stroke-linejoin="round" stroke-width="2" d="M15182.6 557.545h-84.3l12.3-6.084h59.5z"/><path stroke="#2a4385" stroke-linecap="round" stroke-linejoin="round" stroke-width="2" d="M15140.4 555.832v-3.844"/><path stroke="#2a4385" stroke-linecap="round" stroke-width="2" d="M14866.9 546.852c.5 2.916 5.7 8.75 22.3 8.75m24.2-8.75c-.5 2.916-5.7 8.75-22.3 8.75m59.1-7.5c.5 2.49 5.8 7.471 22.3 7.471m24.2-7.471c-.5 2.49-5.7 7.471-22.3 7.471m59.1-7.471c.6 2.49 5.8 7.471 22.4 7.471m24.1-7.471c-.5 2.49-5.7 7.471-22.3 7.471m59.1-7.471c.6 2.49 5.8 7.471 22.4 7.471m24.2-7.471c-.6 2.49-5.8 7.471-22.4 7.471"/><path fill="#f7f3ea" stroke="#2a4385" stroke-linecap="round" stroke-linejoin="round" stroke-width="2" d="M15250.6 500.887h58.6v37.421c0 2.112-1.3 3.84-2.9 3.84h-52.8c-1.6 0-2.9-1.728-2.9-3.84z"/><path fill="#2a4385" stroke="#2a4385" stroke-linecap="round" stroke-linejoin="round" stroke-width="2" d="M15275.3 480.867h9.1c1.6 0 2.9 1.192 2.9 2.664v7.604h-14.8v-7.604c0-1.472 1.3-2.664 2.8-2.664"/><path fill="#f7f3ea" stroke="#2a4385" stroke-linecap="round" stroke-linejoin="round" stroke-width="2" d="M15312.4 496.874c0-.593-.7-1.074-1.6-1.074 0 0-18.8-4.667-30.9-4.667-12.2 0-30.9 4.667-30.9 4.667-.9 0-1.6.481-1.6 1.074v3.453c0 .593.7 1.074 1.6 1.074h61.8c.9 0 1.6-.481 1.6-1.074z"/><path stroke="#2a4385" stroke-width="2" d="M15250.5 502.793h-7c-3.5 0-3.5 6.236 7 6.236m58.8-6.236h7c3.5 0 3.5 6.236-7 6.236"/><path fill="#f7f3ea" stroke="#2a4385" stroke-linecap="round" stroke-linejoin="round" stroke-width="2" d="M15421.8 503.219h48.2v36.909c0 2.083-1.1 3.787-2.4 3.787h-43.4c-1.3 0-2.4-1.704-2.4-3.787z"/><path fill="#2a4385" stroke="#2a4385" stroke-linecap="round" stroke-linejoin="round" stroke-width="2" d="M15442.7 487.555h6c1 0 1.9.628 1.9 1.405v4.01h-9.7v-4.01c0-.777.8-1.405 1.8-1.405"/><path fill="#f7f3ea" stroke="#2a4385" stroke-linecap="round" stroke-linejoin="round" stroke-width="2" d="M15472.6 499.264c0-.585-.6-1.059-1.3-1.059 0 0-15.4-4.603-25.4-4.603s-25.4 4.603-25.4 4.603c-.8 0-1.3.474-1.3 1.059v3.406c0 .585.5 1.059 1.3 1.059h50.8c.7 0 1.3-.474 1.3-1.059z"/><path stroke="#2a4385" stroke-width="2" d="M15421.7 505.098h-5.8c-2.8 0-2.8 6.15 5.8 6.15m48.4-6.15h5.8c2.8 0 2.8 6.15-5.8 6.15"/><path fill="#f7f3ea" stroke="#2a4385" stroke-miterlimit="10" stroke-width="2" d="M16350.8 598.613h-294.4c-1.3 0-2.4 1.086-2.4 2.426v15.523c0 1.34 1.1 2.426 2.4 2.426h294.4c1.3 0 2.3-1.086 2.3-2.426v-15.523c0-1.34-1-2.426-2.3-2.426Zm-138-36.515h-104.3c-1.3 0-2.3 1.086-2.3 2.425v1.067c0 1.34 1 2.426 2.3 2.426h104.3c1.4 0 2.4-1.086 2.4-2.426v-1.067c0-1.339-1-2.425-2.4-2.425Zm-97.9 5.918 6.2 10.607h81.4l4.2-10.607z"/><path fill="#f7f3ea" stroke="#2a4385" stroke-miterlimit="10" stroke-width="2" d="M16212.8 571.801h-104.3c-1.3 0-2.3 1.086-2.3 2.425v1.068c0 1.339 1 2.425 2.3 2.425h104.3c1.4 0 2.4-1.086 2.4-2.425v-1.068c0-1.339-1-2.425-2.4-2.425Zm-97.9 5.918 6.2 10.607h81.4l4.2-10.607z"/><path fill="#f7f3ea" stroke="#2a4385" stroke-miterlimit="10" stroke-width="2" d="M16213.2 582.102h-104.3c-1.3 0-2.4 1.086-2.4 2.425v1.067c0 1.34 1.1 2.426 2.4 2.426h104.3c1.3 0 2.4-1.086 2.4-2.426v-1.067c0-1.339-1.1-2.425-2.4-2.425Zm-97.9 5.918 6.1 10.591h81.4l4.3-10.591zm416.6-5.418h-104.3c-1.3 0-2.4 1.086-2.4 2.425v1.067c0 1.34 1.1 2.426 2.4 2.426h104.3c1.3 0 2.4-1.086 2.4-2.426v-1.067c0-1.339-1.1-2.425-2.4-2.425Zm-97.9 5.918 6.2 10.591h81.3l4.3-10.591zm210.1-5.918h-104.4c-1.3 0-2.3 1.086-2.3 2.425v1.067c0 1.34 1 2.426 2.3 2.426h104.4c1.3 0 2.3-1.086 2.3-2.426v-1.067c0-1.339-1-2.425-2.3-2.425Zm-98 5.918 6.2 10.591h81.4l4.2-10.591zm-4.1 157.265h-104.4c-1.3 0-2.3 1.086-2.3 2.426v1.067c0 1.34 1 2.425 2.3 2.425h104.4c1.3 0 2.3-1.085 2.3-2.425v-1.067c0-1.34-1-2.426-2.3-2.426Zm-98 5.922 6.2 10.592h81.4l4.3-10.592zm210.1-5.922h-104.3c-1.3 0-2.4 1.086-2.4 2.426v1.067c0 1.34 1.1 2.425 2.4 2.425h104.3c1.3 0 2.4-1.085 2.4-2.425v-1.067c0-1.34-1.1-2.426-2.4-2.426Zm-97.9 5.922 6.1 10.592h81.4l4.3-10.592zm-217.1-202.82h-104.3c-1.3 0-2.3 1.086-2.3 2.425v1.068c0 1.339 1 2.425 2.3 2.425h104.3c1.3 0 2.4-1.086 2.4-2.425v-1.068c0-1.339-1.1-2.425-2.4-2.425Zm-97.9 5.918 6.2 10.607h81.3l4.3-10.607z"/><path fill="#f7f3ea" stroke="#2a4385" stroke-miterlimit="10" stroke-width="2" d="M16339.1 558.586h-104.3c-1.3 0-2.3 1.086-2.3 2.425v1.068c0 1.339 1 2.425 2.3 2.425h104.3c1.3 0 2.4-1.086 2.4-2.425v-1.068c0-1.339-1.1-2.425-2.4-2.425Zm-97.9 5.922 6.2 10.608h81.3l4.3-10.608z"/><path fill="#f7f3ea" stroke="#2a4385" stroke-miterlimit="10" stroke-width="2" d="M16337.6 571.527h-104.4c-1.3 0-2.3 1.086-2.3 2.426v1.067c0 1.34 1 2.426 2.3 2.426h104.4c1.3 0 2.3-1.086 2.3-2.426v-1.067c0-1.34-1-2.426-2.3-2.426Z"/><path fill="#f7f3ea" stroke="#2a4385" stroke-miterlimit="10" stroke-width="2" d="m16239.6 577.445 6.2 10.608h81.4l4.3-10.608z"/><path fill="#f7f3ea" stroke="#2a4385" stroke-miterlimit="10" stroke-width="2" d="M16337.6 581.227h-104.4c-1.3 0-2.3 1.086-2.3 2.425v1.067c0 1.34 1 2.426 2.3 2.426h104.4c1.3 0 2.3-1.086 2.3-2.426v-1.067c0-1.339-1-2.425-2.3-2.425Zm-98 5.918 6.2 10.607h81.4l4.3-10.607zm85.6-68.145h-78.3c-1.2 0-2.2 1.003-2.2 2.24 0 1.236 1 2.239 2.2 2.239h78.3c1.2 0 2.2-1.003 2.2-2.239 0-1.237-1-2.24-2.2-2.24Zm-73.8 4.48 4.6 8.037h61.7l3.3-8.037z"/><path fill="#f7f3ea" stroke="#2a4385" stroke-miterlimit="10" stroke-width="2" d="M16325.2 526.359h-78.3c-1.2 0-2.2 1.003-2.2 2.24s1 2.24 2.2 2.24h78.3c1.2 0 2.2-1.003 2.2-2.24s-1-2.24-2.2-2.24Zm-73.8 4.481 4.6 8.036h61.7l3.3-8.036z"/><path fill="#f7f3ea" stroke="#2a4385" stroke-miterlimit="10" stroke-width="2" d="M16324 536.156h-78.3c-1.2 0-2.2 1.003-2.2 2.24s1 2.239 2.2 2.239h78.3c1.2 0 2.2-1.002 2.2-2.239s-1-2.24-2.2-2.24Zm-73.8 4.496 4.6 8.021h61.7l3.3-8.021zm-16.4 177.181 50.4-10.821c.9-.183 1.7.377 1.9 1.254l1.3 6.537c2.7 13.37-5.6 26.503-18.7 29.296l-5.6 1.208c-13.4 2.879-26.6-5.979-29.4-19.772l-1.1-5.787c-.2-.876.3-1.732 1.2-1.915Z"/><path fill="#f7f3ea" stroke="#2a4385" stroke-miterlimit="10" stroke-width="2" d="M16235.3 727.191h51.3c.8 0 1.5.732 1.5 1.639v6.763c0 13.831-10.7 25.072-23.9 25.072h-5.8c-13.6 0-24.7-11.58-24.7-25.848v-5.987c0-.907.7-1.639 1.6-1.639Zm-19.1-3.031h-104.3c-1.3 0-2.4 1.086-2.4 2.426v1.067c0 1.34 1.1 2.426 2.4 2.426h104.3c1.3 0 2.3-1.086 2.3-2.426v-1.067c0-1.34-1-2.426-2.3-2.426Z"/><path fill="#f7f3ea" stroke="#2a4385" stroke-miterlimit="10" stroke-width="2" d="m16118.2 730.078 6.2 10.608h81.4l4.3-10.608z"/><path fill="#f7f3ea" stroke="#2a4385" stroke-miterlimit="10" stroke-width="2" d="M16216.2 733.863h-104.3c-1.3 0-2.4 1.086-2.4 2.426v1.067c0 1.34 1.1 2.426 2.4 2.426h104.3c1.3 0 2.3-1.086 2.3-2.426v-1.067c0-1.34-1-2.426-2.3-2.426Zm-98 5.922 6.2 10.608h81.4l4.3-10.608z"/><path fill="#f7f3ea" stroke="#2a4385" stroke-miterlimit="10" stroke-width="2" d="M16216.5 744.164h-104.3c-1.3 0-2.3 1.086-2.3 2.426v1.067c0 1.339 1 2.425 2.3 2.425h104.3c1.3 0 2.4-1.086 2.4-2.425v-1.067c0-1.34-1.1-2.426-2.4-2.426Zm-97.9 5.918 6.2 10.592h81.3l4.3-10.592zm237.4 11.363h-299.6c-1.3 0-2.4 1.086-2.4 2.426v15.523c0 1.34 1.1 2.426 2.4 2.426h299.6c1.3 0 2.4-1.086 2.4-2.426v-15.523c0-1.34-1.1-2.426-2.4-2.426Z"/><path fill="#f7f3ea" stroke="#2a4385" stroke-miterlimit="10" stroke-width="2" d="M16086.2 618.969h-10.9c-1.3 0-2.3 1.086-2.3 2.425v179.005c0 1.34 1 2.426 2.3 2.426h10.9c1.3 0 2.3-1.086 2.3-2.426V621.394c0-1.339-1-2.425-2.3-2.425Zm243.7 0h-10.9c-1.3 0-2.3 1.086-2.3 2.425v180.655c0 1.339 1 2.425 2.3 2.425h10.9c1.3 0 2.3-1.086 2.3-2.425V621.394c0-1.339-1-2.425-2.3-2.425Z"/><path fill="#f7f3ea" stroke="#2a4385" stroke-miterlimit="10" stroke-width="2" d="M16324.2 825.441c6.4 0 11.6-5.314 11.6-11.869s-5.2-11.869-11.6-11.869c-6.3 0-11.5 5.314-11.5 11.869s5.2 11.869 11.5 11.869Zm-243.5.211c6.4 0 11.6-5.314 11.6-11.869s-5.2-11.869-11.6-11.869c-6.3 0-11.5 5.314-11.5 11.869s5.2 11.869 11.5 11.869Z"/><path fill="#f7f3ea" stroke="#2a4385" stroke-miterlimit="10" stroke-width="2" d="M16324.3 820.49c3.7 0 6.7-3.098 6.7-6.921 0-3.822-3-6.921-6.7-6.921-3.8 0-6.8 3.099-6.8 6.921s3 6.921 6.8 6.921Zm-243.6.215c3.8 0 6.8-3.099 6.8-6.921s-3-6.921-6.8-6.921c-3.7 0-6.7 3.099-6.7 6.921s3 6.921 6.7 6.921Zm622.1-221.369h-294.4c-1.3 0-2.4 1.086-2.4 2.425v15.524c0 1.34 1.1 2.425 2.4 2.425h294.4c1.3 0 2.3-1.085 2.3-2.425v-15.524c0-1.339-1-2.425-2.3-2.425Zm5.2 162.832h-299.6c-1.3 0-2.4 1.086-2.4 2.426v15.523c0 1.34 1.1 2.426 2.4 2.426h299.6c1.3 0 2.4-1.086 2.4-2.426v-15.523c0-1.34-1.1-2.426-2.4-2.426Z"/><path fill="#f7f3ea" stroke="#2a4385" stroke-miterlimit="10" stroke-width="2" d="M16438.2 619.695h-10.9c-1.3 0-2.3 1.086-2.3 2.426v179.005c0 1.339 1 2.425 2.3 2.425h10.9c1.3 0 2.3-1.086 2.3-2.425V622.121c0-1.34-1-2.426-2.3-2.426Zm243.7 0h-10.9c-1.3 0-2.3 1.086-2.3 2.426v180.654c0 1.34 1 2.426 2.3 2.426h10.9c1.3 0 2.3-1.086 2.3-2.426V622.121c0-1.34-1-2.426-2.3-2.426Z"/><path fill="#f7f3ea" stroke="#2a4385" stroke-miterlimit="10" stroke-width="2" d="M16676.2 826.164c6.4 0 11.6-5.314 11.6-11.869s-5.2-11.869-11.6-11.869c-6.3 0-11.5 5.314-11.5 11.869s5.2 11.869 11.5 11.869Zm-243.5-1.778c6.4 0 11.6-5.313 11.6-11.869 0-6.555-5.2-11.869-11.6-11.869-6.3 0-11.5 5.314-11.5 11.869 0 6.556 5.2 11.869 11.5 11.869Z"/><path fill="#f7f3ea" stroke="#2a4385" stroke-miterlimit="10" stroke-width="2" d="M16676.2 821.217c3.8 0 6.8-3.099 6.8-6.921s-3-6.921-6.8-6.921c-3.7 0-6.7 3.099-6.7 6.921s3 6.921 6.7 6.921Zm-243.4-1.778c3.7 0 6.7-3.098 6.7-6.92s-3-6.921-6.7-6.921c-3.8 0-6.8 3.098-6.8 6.921 0 3.822 3 6.92 6.8 6.92Z"/><g stroke="#2a4385" stroke-miterlimit="10" stroke-width="2" clip-path="url(#k)"><path fill="#f7f3ea" stroke-linecap="round" d="M22699.8 262.742h-182.6c-1.6 0-2.8 1.237-2.8 2.764v1.701c0 1.527 1.2 2.764 2.8 2.764h182.6c1.6 0 2.8-1.237 2.8-2.764v-1.701c0-1.527-1.2-2.764-2.8-2.764Zm0 467.254h-182.6c-1.6 0-2.8 1.237-2.8 2.764v1.701c0 1.527 1.2 2.764 2.8 2.764h182.6c1.6 0 2.8-1.237 2.8-2.764v-1.701c0-1.527-1.2-2.764-2.8-2.764Z"/><path fill="#f7f3ea" d="M22530.1 330.223h157.1v1.021c0 2.763-2.2 5.009-5 5.009h-147.1c-2.7 0-5-2.246-5-5.009z"/><path fill="#2a4385" d="M22687.8 328.941h-158.4c-.1 0-.3.153-.3.341s.2.34.3.34h158.4c.2 0 .3-.152.3-.34s-.1-.341-.3-.341Z"/><path fill="#f7f3ea" d="M22530.1 371.391h157.1v1.021c0 2.763-2.2 5.009-5 5.009h-147.1c-2.7 0-5-2.246-5-5.009z"/><path fill="#2a4385" d="M22687.8 370.125h-158.4c-.1 0-.3.152-.3.34s.2.341.3.341h158.4c.2 0 .3-.153.3-.341s-.1-.34-.3-.34Z"/><path fill="#f7f3ea" d="M22530.1 412.75h157.1v1.021c0 2.764-2.2 5.01-5 5.01h-147.1c-2.7 0-5-2.246-5-5.01z"/><path fill="#2a4385" d="M22687.8 411.469h-158.4c-.1 0-.3.152-.3.34s.2.34.3.34h158.4c.2 0 .3-.152.3-.34s-.1-.34-.3-.34Z"/><path fill="#f7f3ea" d="M22530.1 495.328h157.1v1.021c0 2.764-2.2 5.01-5 5.01h-147.1c-2.7 0-5-2.246-5-5.01z"/><path fill="#2a4385" d="M22687.8 494.047h-158.4c-.1 0-.3.152-.3.34s.2.341.3.341h158.4c.2 0 .3-.153.3-.341s-.1-.34-.3-.34Z"/><path fill="#f7f3ea" d="M22530.1 535.883h157.1v1.021c0 2.763-2.2 5.01-5 5.01h-147.1c-2.7 0-5-2.247-5-5.01z"/><path fill="#2a4385" d="M22687.8 534.602h-158.4c-.1 0-.3.152-.3.34s.2.34.3.34h158.4c.2 0 .3-.152.3-.34s-.1-.34-.3-.34Z"/><path fill="#f7f3ea" d="M22530.1 618.965h157.1v1.021c0 2.763-2.2 5.01-5 5.01h-147.1c-2.7 0-5-2.247-5-5.01z"/><path fill="#2a4385" d="M22687.8 617.684h-158.4c-.1 0-.3.152-.3.34s.2.34.3.34h158.4c.2 0 .3-.152.3-.34s-.1-.34-.3-.34Z"/><path fill="#f7f3ea" d="M22530.1 577.785h157.1v1.021c0 2.764-2.2 5.01-5 5.01h-147.1c-2.7 0-5-2.246-5-5.01z"/><path fill="#2a4385" d="M22687.8 576.504h-158.4c-.1 0-.3.152-.3.34s.2.341.3.341h158.4c.2 0 .3-.153.3-.341s-.1-.34-.3-.34Z"/><path fill="#2a4385" stroke-linecap="round" d="M22535.2 296.596h-14.5l-.4-2.151 14.9 1.92zm0 41.25h-14.5l-.4-2.151 14.9 1.933zm0 41.262h-14.5l-.4-2.151 14.9 1.92zm0 41.262h-14.5l-.4-2.151 14.9 1.919zm0 41.25h-14.5l-.4-2.151 14.9 1.933zm0 41.261h-14.5l-.4-2.151 14.9 1.92zm0 41.246h-14.5l-.4-2.15 14.9 1.933zm0 41.266h-14.5l-.4-2.151 14.9 1.92zm0 41.262h-14.5l-.4-2.151 14.9 1.919zm0 41.246h-14.5l-.4-2.151 14.9 1.933zm0 41.262h-14.5l-.4-2.151 14.9 1.919z"/><path fill="#f7f3ea" d="M22517.9 262.02c-2.3 0-4.2 2.423-4.2 4.723v483.29h8.5v-483.29c0-2.3-1.9-4.723-4.3-4.723Z"/><path fill="#f7f3ea" d="M22525.7 748.754h-15.6c-.7 0-1.3.615-1.3 1.375v.408c0 .76.6 1.375 1.3 1.375h15.6c.8 0 1.4-.615 1.4-1.375v-.408c0-.76-.6-1.375-1.4-1.375Zm-.3 3.906h-14.9a4.49 4.49 0 0 0-4.5 4.493v14.906c3 0 5.3-2.219 5.1-4.833l-.3-3.661c-.2-3.649 3-6.712 7.1-6.712 4.2 0 7.4 3.063 7.2 6.712l-.3 3.661c-.3 2.601 2.1 4.833 5.1 4.833v-14.906c0-2.478-2.1-4.493-4.5-4.493Z"/><path fill="#2a4385" d="M22522.6 765.908c0-2.549-2.1-4.615-4.7-4.615-2.5 0-4.6 2.066-4.6 4.615v23.456c0 2.549 2.1 4.615 4.6 4.615 2.6 0 4.7-2.066 4.7-4.615z"/><path fill="#2a4385" stroke-linecap="round" d="M22681.8 296.596h14.4l.4-2.151-14.8 1.92zm0 41.25h14.4l.4-2.151-14.8 1.933zm0 41.262h14.4l.4-2.151-14.8 1.92zm0 41.262h14.4l.4-2.151-14.8 1.919zm0 41.25h14.4l.4-2.151-14.8 1.933zm0 41.261h14.4l.4-2.151-14.8 1.92zm0 41.246h14.4l.4-2.15-14.8 1.933zm0 41.266h14.4l.4-2.151-14.8 1.92zm0 41.262h14.4l.4-2.151-14.8 1.919zm0 41.246h14.4l.4-2.151-14.8 1.933zm0 41.262h14.4l.4-2.151-14.8 1.919z"/><path fill="#f7f3ea" d="M22699 262.02c2.4 0 4.3 2.423 4.3 4.723v483.29h-8.5v-483.29c0-2.3 1.9-4.723 4.3-4.723z"/><path fill="#f7f3ea" d="M22691.2 751.91h15.6c.8 0 1.4-.615 1.4-1.375v-.408c0-.76-.6-1.375-1.4-1.375h-15.6c-.7 0-1.3.615-1.3 1.375v.408c0 .76.6 1.375 1.3 1.375Zm.4.75h14.9c2.4 0 4.5 2.015 4.5 4.493v14.906c-3 0-5.4-2.219-5.1-4.833l.3-3.661c.2-3.649-3-6.712-7.2-6.712-4.1 0-7.3 3.063-7.1 6.712l.3 3.661c.2 2.601-2.1 4.833-5.1 4.833v-14.906c0-2.478 2-4.493 4.5-4.493Z"/><path fill="#2a4385" d="M22694.4 789.362c0 2.548 2.1 4.615 4.6 4.615 2.6 0 4.6-2.067 4.6-4.615v-23.456c0-2.549-2-4.615-4.6-4.615-2.5 0-4.6 2.066-4.6 4.615z"/><path fill="#f7f3ea" stroke-linecap="round" d="M22945.2 262.742h-182.6c-1.5 0-2.8 1.237-2.8 2.764v1.701c0 1.527 1.3 2.764 2.8 2.764h182.6c1.6 0 2.8-1.237 2.8-2.764v-1.701c0-1.527-1.2-2.764-2.8-2.764Zm0 467.254h-182.6c-1.5 0-2.8 1.237-2.8 2.764v1.701c0 1.527 1.3 2.764 2.8 2.764h182.6c1.6 0 2.8-1.237 2.8-2.764v-1.701c0-1.527-1.2-2.764-2.8-2.764Z"/><path fill="#f7f3ea" d="M22775.5 330.227h157.1v1.021c0 2.763-2.2 5.009-5 5.009h-147.1c-2.7 0-5-2.246-5-5.009z"/><path fill="#2a4385" d="M22933.2 328.945h-158.3c-.2 0-.4.153-.4.341s.2.34.4.34h158.3c.2 0 .3-.152.3-.34s-.1-.341-.3-.341Z"/><path fill="#f7f3ea" d="M22775.5 371.391h157.1v1.021c0 2.763-2.2 5.009-5 5.009h-147.1c-2.7 0-5-2.246-5-5.009z"/><path fill="#2a4385" d="M22933.2 370.125h-158.3c-.2 0-.4.152-.4.34s.2.341.4.341h158.3c.2 0 .3-.153.3-.341s-.1-.34-.3-.34Z"/><path fill="#f7f3ea" d="M22775.5 412.75h157.1v1.021c0 2.764-2.2 5.01-5 5.01h-147.1c-2.7 0-5-2.246-5-5.01z"/><path fill="#2a4385" d="M22933.2 411.469h-158.3c-.2 0-.4.152-.4.34s.2.34.4.34h158.3c.2 0 .3-.152.3-.34s-.1-.34-.3-.34Z"/><path fill="#f7f3ea" d="M22775.5 495.328h157.1v1.021c0 2.764-2.2 5.01-5 5.01h-147.1c-2.7 0-5-2.246-5-5.01z"/><path fill="#2a4385" d="M22933.2 494.047h-158.3c-.2 0-.4.152-.4.34s.2.341.4.341h158.3c.2 0 .3-.153.3-.341s-.1-.34-.3-.34Z"/><path fill="#f7f3ea" d="M22775.5 535.883h157.1v1.021c0 2.763-2.2 5.01-5 5.01h-147.1c-2.7 0-5-2.247-5-5.01z"/><path fill="#2a4385" d="M22933.2 534.602h-158.3c-.2 0-.4.152-.4.34s.2.34.4.34h158.3c.2 0 .3-.152.3-.34s-.1-.34-.3-.34Z"/><path fill="#f7f3ea" d="M22775.5 618.965h157.1v1.021c0 2.763-2.2 5.01-5 5.01h-147.1c-2.7 0-5-2.247-5-5.01z"/><path fill="#2a4385" d="M22933.2 617.684h-158.3c-.2 0-.4.152-.4.34s.2.34.4.34h158.3c.2 0 .3-.152.3-.34s-.1-.34-.3-.34Z"/><path fill="#f7f3ea" d="M22775.5 577.785h157.1v1.021c0 2.764-2.2 5.01-5 5.01h-147.1c-2.7 0-5-2.246-5-5.01z"/><path fill="#2a4385" d="M22933.2 576.504h-158.3c-.2 0-.4.152-.4.34s.2.341.4.341h158.3c.2 0 .3-.153.3-.341s-.1-.34-.3-.34Zm11.2 217.325c10.3 0 18.6-8.283 18.6-18.5s-8.3-18.501-18.6-18.501c-10.2 0-18.5 8.283-18.5 18.501 0 10.217 8.3 18.5 18.5 18.5Z"/><path fill="#2a4385" stroke-linecap="round" d="M22927.2 296.803h14.4l.4-2.151-14.8 1.933zm0 41.262h14.4l.4-2.151-14.8 1.92zm0 41.262h14.4l.4-2.151-14.8 1.919zm0 41.25h14.4l.4-2.151-14.8 1.933zm0 41.261h14.4l.4-2.15-14.8 1.919zm0 41.25h14.4l.4-2.15-14.8 1.933zm0 41.262h14.4l.4-2.151-14.8 1.92zm0 41.262h14.4l.4-2.151-14.8 1.919zm0 41.25h14.4l.4-2.151-14.8 1.933zm0 41.262h14.4l.4-2.151-14.8 1.919zm0 41.246h14.4l.4-2.151-14.8 1.933z"/><path fill="#f7f3ea" d="M22944.4 262.24c2.4 0 4.3 2.423 4.3 4.724v483.29h-8.5V266.95c0-2.3 1.9-4.723 4.2-4.723z"/><path fill="#f7f3ea" d="M22936.6 752.117h15.6c.8 0 1.4-.615 1.4-1.375v-.408c0-.76-.6-1.375-1.4-1.375h-15.6c-.7 0-1.3.615-1.3 1.375v.408c0 .76.6 1.375 1.3 1.375Zm7.8 34.241c6.1 0 11.1-4.936 11.1-11.026s-5-11.027-11.1-11.027c-6 0-11 4.937-11 11.027s5 11.026 11 11.026Z"/><path fill="#f7f3ea" d="M22946.1 779.508h-3.5c-2.9 0-5.3-2.015-5.9-4.806l-3.9-19.181c-.3-1.225.7-2.369 1.9-2.369h19.3c1.3 0 2.2 1.144 2 2.369l-4 19.181c-.5 2.805-3 4.806-5.9 4.806Z"/><path fill="#2a4385" d="M22763.3 793.829c10.2 0 18.5-8.283 18.5-18.5s-8.3-18.501-18.5-18.501c-10.3 0-18.5 8.283-18.5 18.501 0 10.217 8.2 18.5 18.5 18.5Z"/><path fill="#2a4385" stroke-linecap="round" d="M22780.5 296.803h-14.4l-.4-2.151 14.8 1.933zm0 41.262h-14.4l-.4-2.151 14.8 1.92zm0 41.262h-14.4l-.4-2.151 14.8 1.919zm0 41.25h-14.4l-.4-2.151 14.8 1.933zm0 41.261h-14.4l-.4-2.15 14.8 1.919zm0 41.25h-14.4l-.4-2.15 14.8 1.933zm0 41.262h-14.4l-.4-2.151 14.8 1.92zm0 41.262h-14.4l-.4-2.151 14.8 1.919zm0 41.25h-14.4l-.4-2.151 14.8 1.933zm0 41.262h-14.4l-.4-2.151 14.8 1.919zm0 41.246h-14.4l-.4-2.151 14.8 1.933z"/><path fill="#f7f3ea" d="M22763.3 262.24c-2.3 0-4.2 2.423-4.2 4.724v483.29h8.4V266.95c0-2.3-1.9-4.723-4.2-4.723z"/><path fill="#f7f3ea" d="M22771.1 748.973h-15.6c-.8 0-1.4.615-1.4 1.375v.408c0 .759.6 1.375 1.4 1.375h15.6c.8 0 1.4-.616 1.4-1.375v-.408c0-.76-.6-1.375-1.4-1.375Zm-7.8 37.385c6.1 0 11-4.936 11-11.026s-4.9-11.027-11-11.027-11.1 4.937-11.1 11.027 5 11.026 11.1 11.026Z"/><path fill="#f7f3ea" d="M22761.6 779.508h3.5c2.9 0 5.3-2.015 5.9-4.806l3.9-19.181c.3-1.225-.6-2.369-1.9-2.369h-19.3c-1.3 0-2.2 1.144-1.9 2.369l3.9 19.181c.6 2.805 3 4.806 5.9 4.806Z"/></g><g stroke="#2a4385" stroke-width="2" clip-path="url(#l)"><path fill="#f7f3ea" stroke-linecap="round" stroke-linejoin="round" d="M13887.8 489.375h-565.6c-1.2 0-2.3 1.039-2.3 2.32v36.624c0 1.281 1.1 2.32 2.3 2.32h565.6c1.3 0 2.3-1.039 2.3-2.32v-36.624c0-1.281-1-2.32-2.3-2.32"/><path fill="#f7f3ea" stroke-miterlimit="10" d="M13697 516h-125c-.5 0-1 .537-1 1.2v6.6c0 .663.5 1.2 1 1.2h125c.5 0 1-.537 1-1.2v-6.6c0-.663-.5-1.2-1-1.2Zm-126.2 4h-18.6c-.1 0-.2.298-.2.667v3.666c0 .369.1.667.2.667h18.6c.1 0 .2-.298.2-.667v-3.666c0-.369-.1-.667-.2-.667Z"/><path fill="#f7f3ea" stroke-linecap="round" stroke-linejoin="round" d="M13495.6 769.625h195.5V534.643h-195.5z"/><path fill="#f7f3ea" stroke-linecap="round" stroke-linejoin="round" d="M13691 769.625h195.5V534.643H13691zm-367.7-116.953h172.3V535.414h-172.3z"/><path stroke-linecap="round" stroke-linejoin="round" d="M13323.8 561.098h170.8m-170.8 6.394h170.8"/><path fill="#f7f3ea" stroke-linecap="round" stroke-linejoin="round" d="M13323.3 769.461h172.3V652.203h-172.3z"/><path stroke-linecap="round" stroke-linejoin="round" d="M13323.8 676.391h170.8m-170.8 6.41h170.8"/><path fill="#f7f3ea" stroke-linecap="round" stroke-linejoin="round" d="M13889.2 525.203h-568.4c-.8 0-1.4.645-1.4 1.441v7.976c0 .796.6 1.441 1.4 1.441h568.4c.8 0 1.4-.645 1.4-1.441v-7.976c0-.796-.6-1.441-1.4-1.441"/><path fill="#2a4385" stroke-linecap="round" stroke-linejoin="round" d="M13526.7 674.65V624.5c0-.828-.7-1.5-1.5-1.5h-7.7c-.8 0-1.5.672-1.5 1.5v50.15c0 .828.7 1.5 1.5 1.5h7.7c.8 0 1.5-.672 1.5-1.5m195.4 0V624.5c0-.828-.7-1.5-1.5-1.5h-7.7c-.8 0-1.5.672-1.5 1.5v50.15c0 .828.7 1.5 1.5 1.5h7.7c.8 0 1.5-.672 1.5-1.5"/><path fill="#f7f3ea" stroke-linecap="round" stroke-linejoin="round" d="M13881.4 770h-15.2c-.7 0-1.3.598-1.3 1.335v24.022c0 .737.6 1.334 1.3 1.334h15.2c.7 0 1.3-.597 1.3-1.334v-24.022c0-.737-.6-1.335-1.3-1.335m-536.9 0h-15.2c-.7 0-1.3.598-1.3 1.335v24.022c0 .737.6 1.334 1.3 1.334h15.2c.7 0 1.3-.597 1.3-1.334v-24.022c0-.737-.6-1.335-1.3-1.335"/><path fill="#f7f3ea" stroke-miterlimit="10" d="M13764.7 456.433c.1-.805 1.5-11.315 1.5-15.404 0-1.623.1-6.612.1-12.995 0-1.249.4-2.472 1.2-3.493.3-.399.5-.742.6-.989-.1-.729-.7-2.542-2.5-4.342-1.1-1.128-2.4-1.933-3.1-2.162-.3-.05-1.7-.247-2.9.596-1.6 1.027-1.8 2.758-1.8 2.992-.4 13.756-.2 22.954-.2 28.805 0 1.097.2 3.651.3 7.22l6.8-.013z"/><path stroke-miterlimit="10" d="M13757.8 452.227h7.4"/><path fill="#2a4385" stroke-miterlimit="10" d="M13761.5 447.463c.2 0 .5-.213.5-.476 0-.262-.3-.475-.5-.475-.3 0-.5.213-.5.475 0 .263.2.476.5.476Zm0-9.606c.2 0 .5-.213.5-.475 0-.263-.3-.476-.5-.476-.3 0-.5.213-.5.476 0 .262.2.475.5.475Z"/><path fill="#f7f3ea" stroke-miterlimit="10" d="M13773.6 458.693c-2 0-3.6.013-4.9-.025-3.1-.089-4.3-.469-4.2-1.94v-.126h-6.4v.266c.3 8.114-.1 14.047-.1 16.45-.1 2.098 0-.197-.1 20.101 0 5.889 2.2 13.534 9.1 18.903l.3-.704c2.3-5.394 2.9-9.984 3.7-16.621 2.4-19.721 1.9-21.591 2.6-36.234z"/><path fill="#2a4385" stroke-miterlimit="10" d="M13773.6 458.695h-1.2v.057c-.7 14.637-.2 16.514-2.6 36.234-.8 6.625-1.4 11.214-3.7 16.596q.45.369.9.729l.3-.703c2.3-5.395 2.9-9.985 3.7-16.622 2.4-19.72 1.9-21.597 2.6-36.234z"/><path fill="#f7f3ea" stroke-miterlimit="10" d="M13803.8 456.433c0-.805 1.5-11.315 1.4-15.404 0-1.623.2-6.612.2-12.995 0-1.249.4-2.472 1.1-3.493.3-.399.6-.742.7-.989-.1-.729-.7-2.542-2.5-4.342-1.2-1.128-2.4-1.933-3.1-2.162-.3-.05-1.7-.247-3 .596-1.6 1.027-1.8 2.758-1.8 2.992-.4 13.756-.2 22.954-.1 28.805 0 1.097.2 3.651.3 7.22l6.8-.013z"/><path stroke-miterlimit="10" d="M13796.8 452.227h7.4"/><path fill="#2a4385" stroke-miterlimit="10" d="M13800.5 447.463c.2 0 .5-.213.5-.476 0-.262-.3-.475-.5-.475-.3 0-.5.213-.5.475 0 .263.2.476.5.476Zm0-9.606c.2 0 .5-.213.5-.475 0-.263-.3-.476-.5-.476-.3 0-.5.213-.5.476 0 .262.2.475.5.475Z"/><path fill="#f7f3ea" stroke-miterlimit="10" d="M13812.6 458.693c-1.9 0-3.5.013-4.8-.025-3.2-.089-4.3-.469-4.2-1.94v-.126h-6.4v.266c.2 8.114-.1 14.047-.2 16.45v20.101c0 5.889 2.2 13.534 9.1 18.903l.3-.704c2.3-5.394 2.9-9.984 3.6-16.621 2.5-19.721 2-21.591 2.6-36.234z"/><path fill="#2a4385" stroke-miterlimit="10" d="M13812.6 458.695h-1.2v.057c-.6 14.637-.1 16.514-2.6 36.234-.7 6.625-1.3 11.214-3.6 16.596q.45.369.9.729l.3-.703c2.3-5.395 2.9-9.985 3.6-16.622 2.5-19.72 2-21.597 2.6-36.234z"/><path fill="#f7f3ea" stroke-miterlimit="10" d="M13840 455.242h-114c-.6 0-1 .398-1 .889v67.222c0 .491.4.889 1 .889h114c.6 0 1-.398 1-.889v-67.222c0-.491-.4-.889-1-.889Z"/><path fill="#f7f3ea" stroke-miterlimit="10" d="M13751.6 449.707c-3.2-.089-4.3-.469-4.3-1.94v-.126h-6.3v.266c0 2.909.1 5.832 0 8.234 0 3.119.1 25.414 4.2 34.409q.3-.969.6-1.965c.8-2.904 1.6-5.934 2.2-9.097a154.4 154.4 0 0 0 3.6-29.775z"/><path fill="#f7f3ea" stroke-miterlimit="10" d="M13747.5 447.417c.1-.805 1.6-11.315 1.5-15.404 0-1.622.2-6.611.2-12.995 0-1.248.4-2.472 1.1-3.493.3-.399.5-.741.6-.988-.1-.729-.6-2.542-2.5-4.343-1.1-1.128-2.4-1.933-3.1-2.161-.3-.051-1.6-.248-2.9.596-1.6 1.027-1.8 2.757-1.8 2.992-.4 13.755-.2 22.953-.2 28.804.1 1.097.2 3.652.3 7.221l6.8-.013z"/><path stroke-miterlimit="10" d="M13740.6 443.211h7.4"/><path fill="#2a4385" stroke-miterlimit="10" d="M13744.5 438.447c.2 0 .5-.213.5-.475 0-.263-.3-.476-.5-.476-.3 0-.5.213-.5.476 0 .262.2.475.5.475Zm0-9.606c.2 0 .5-.212.5-.475s-.3-.475-.5-.475c-.3 0-.5.212-.5.475s.2.475.5.475Z"/><path fill="#f7f3ea" stroke-miterlimit="10" d="M13842 518.242h-118c-.6 0-1 .418-1 .934v5.133c0 .515.4.933 1 .933h118c.6 0 1-.418 1-.933v-5.133c0-.516-.4-.934-1-.934Zm-59.8-70.801c.1-.805 1.5-11.315 1.5-15.404-.1-1.623.1-6.612.1-12.995 0-1.249.4-2.472 1.1-3.493.3-.399.6-.742.7-.989-.1-.729-.7-2.542-2.5-4.342-1.1-1.129-2.4-1.934-3.1-2.162-.3-.051-1.7-.247-3 .596-1.5 1.027-1.8 2.758-1.8 2.992-.4 13.756-.2 22.954-.1 28.805 0 1.096.2 3.651.3 7.22l6.8-.013z"/><path stroke-miterlimit="10" d="M13776.2 443.234h7.4"/><path fill="#2a4385" stroke-miterlimit="10" d="M13779.5 438.654c.2 0 .5-.213.5-.475 0-.263-.3-.476-.5-.476-.3 0-.5.213-.5.476 0 .262.2.475.5.475Zm0-9.605c.2 0 .5-.213.5-.476 0-.262-.3-.475-.5-.475-.3 0-.5.213-.5.475 0 .263.2.476.5.476Z"/><path fill="#f7f3ea" stroke-miterlimit="10" d="M13791.1 449.701c-2 0-3.6.013-4.9-.025-3.2-.089-4.3-.469-4.2-1.94v-.127h-6.4v.267c.2 8.114-.1 14.047-.1 16.449-.1 2.099 0-.196-.1 20.102 0 5.889 2.2 13.534 9.1 18.903l.3-.704c2.3-5.394 2.9-9.984 3.7-16.621 2.4-19.721 1.9-21.591 2.6-36.234zm28.8-11.26c.1-.805 1.5-11.315 1.5-15.404 0-1.623.1-6.612.1-12.995 0-1.249.4-2.472 1.2-3.493.2-.399.5-.742.6-.989-.1-.729-.7-2.542-2.5-4.342-1.1-1.129-2.4-1.934-3.1-2.162-.3-.051-1.7-.247-3 .596-1.5 1.027-1.7 2.758-1.8 2.992-.3 13.756-.1 22.954-.1 28.805 0 1.096.2 3.651.3 7.22l6.8-.013z"/><path stroke-miterlimit="10" d="M13812.9 434.234h7.5"/><path fill="#2a4385" stroke-miterlimit="10" d="M13816.5 429.47c.2 0 .5-.212.5-.475s-.3-.475-.5-.475c-.3 0-.5.212-.5.475s.2.475.5.475Zm0-9.605c.2 0 .5-.213.5-.476 0-.262-.3-.475-.5-.475-.3 0-.5.213-.5.475 0 .263.2.476.5.476Z"/><path fill="#f7f3ea" stroke-miterlimit="10" d="M13819.7 438.821c0 2.066.9 1.977 7.9 1.971-.7 14.694-1.5 31.061-5.1 50.808-1.3 6.732-3 12.868-5.6 18.548-3.3-7.201-3.7-14.656-3.8-20.545-.5-21.274 0-32.095.1-34.193 0-2.409.4-8.342.1-16.456v-.266h6.4z"/></g><path stroke="#f7f3ea" stroke-miterlimit="10" stroke-width="1.5" d="M21257.3 524.727h16.3m-16.4 228.722h16.3"/><path fill="#f7f3ea" stroke="#2a4385" stroke-linecap="round" stroke-linejoin="round" stroke-width="2" d="M21073.1 759.324h-18.9c-.9 0-1.7.747-1.7 1.669v30.039c0 .922.8 1.669 1.7 1.669h18.9c.9 0 1.7-.747 1.7-1.669v-30.039c0-.922-.8-1.669-1.7-1.669m406.7 0h-19c-.9 0-1.6.747-1.6 1.669v30.039c0 .922.7 1.669 1.6 1.669h19c.9 0 1.7-.747 1.7-1.669v-30.039c0-.922-.8-1.669-1.7-1.669"/><path fill="#f7f3ea" d="M21477.4 530.023h-413.7v227.903h413.7z"/><path fill="#f7f3ea" stroke="#2a4385" stroke-miterlimit="10" stroke-width="2" d="M21050.8 529.914h433.4c1.7 0 3.1 1.389 3.1 3.111v4.645c0 2.136-1.7 3.878-3.9 3.878h-432.6c-2.1 0-3.9-1.742-3.9-3.878v-3.878c0-2.136 1.8-3.878 3.9-3.878Zm0 95.184h432.3c1.8 0 3.1 1.476 3.1 3.305v8.196c0 1.829-1.3 3.305-3.1 3.305h-432.3c-2.1 0-3.9-1.851-3.9-4.12v-6.566c0-2.27 1.8-4.12 3.9-4.12Z"/><path fill="#f7f3ea" stroke="#2a4385" stroke-miterlimit="10" stroke-width="2" d="M21487.2 761.249V531.013c0-1.742-1.4-3.154-3.1-3.154h-22c-1.7 0-3.2 1.412-3.2 3.154v230.236c0 1.742 1.5 3.154 3.2 3.154h22c1.7 0 3.1-1.412 3.1-3.154Zm-440.1.02V531.033c0-1.745 1.4-3.154 3.1-3.154h22c1.7 0 3.1 1.409 3.1 3.154v229.458c0 .252 0 1.661-1.1 2.775a3.9 3.9 0 0 1-2.8 1.156h-21.1c-1.8 0-3.2-1.408-3.2-3.153Zm224.2-5.551V516.252c0-2.206-1.8-3.994-4-3.994h-3.8c-2.2 0-4 1.788-4 3.994v239.466c0 2.206 1.8 3.995 4 3.995h3.8c2.2 0 4-1.789 4-3.995Z"/><path fill="#2a4385" stroke="#2a4385" stroke-linecap="round" stroke-linejoin="round" stroke-width="2" d="M21235.1 656.926h-135.4c-1.8 0-3.2 1.412-3.2 3.153v3.301c0 1.742 1.4 3.154 3.2 3.154h135.4c1.8 0 3.2-1.412 3.2-3.154v-3.301c0-1.741-1.4-3.153-3.2-3.153"/><path fill="#f7f3ea" stroke="#2a4385" stroke-miterlimit="10" stroke-width="2" d="M21511.3 510.578h-478.6c-1.7 0-3.1 1.412-3.1 3.154v13.014c0 1.741 1.4 3.153 3.1 3.153h478.6c1.7 0 3.1-1.412 3.1-3.153v-13.014c0-1.742-1.4-3.154-3.1-3.154Zm-26.4 239.695h-434.7c-1.7 0-3.1 1.412-3.1 3.154v7.821c0 1.742 1.4 3.154 3.1 3.154h434.7c1.8 0 3.2-1.412 3.2-3.154v-7.821c0-1.742-1.4-3.154-3.2-3.154Z"/><path fill="#2a4385" stroke="#2a4385" stroke-linecap="round" stroke-linejoin="round" stroke-width="2" d="M21432.7 656.926h-135.4c-1.8 0-3.2 1.412-3.2 3.153v3.301c0 1.742 1.4 3.154 3.2 3.154h135.4c1.8 0 3.2-1.412 3.2-3.154v-3.301c0-1.741-1.4-3.153-3.2-3.153"/><path fill="#f7f3ea" stroke="#2a4385" stroke-miterlimit="10" stroke-width="2" d="M21290.1 577.746h69.6c2.1 0 3.9.919 3.9 2.053v3.152c0 9.969-15.3 18.063-34 18.063h-9.3c-18.8 0-34-8.094-34-18.063v-3.152c0-1.134 1.7-2.053 3.9-2.053z"/><path fill="#f7f3ea" stroke="#2a4385" stroke-miterlimit="10" stroke-width="2" d="M21290.1 590.438h69.6c2.1 0 3.9.919 3.9 2.053v3.152c0 9.968-15.3 18.062-34 18.062h-9.3c-18.8 0-34-8.094-34-18.062v-3.152c0-1.134 1.7-2.053 3.9-2.053z"/><path fill="#f7f3ea" stroke="#2a4385" stroke-miterlimit="10" stroke-width="2" d="M21290.1 602.07h69.6c2.1 0 3.9.92 3.9 2.054v3.151c0 9.969-15.3 18.063-34 18.063h-9.3c-18.8 0-34-8.094-34-18.063v-3.151c0-1.134 1.7-2.054 3.9-2.054z"/><path stroke="#f7f3ea" stroke-miterlimit="10" stroke-width="1.5" d="M21759.3 524.727h16.3m-16.4 228.722h16.3"/><path fill="#f7f3ea" stroke="#2a4385" stroke-linecap="round" stroke-linejoin="round" stroke-width="2" d="M21575.1 759.324h-18.9c-.9 0-1.7.747-1.7 1.669v30.039c0 .922.8 1.669 1.7 1.669h18.9c.9 0 1.7-.747 1.7-1.669v-30.039c0-.922-.8-1.669-1.7-1.669m406.7 0h-19c-.9 0-1.6.747-1.6 1.669v30.039c0 .922.7 1.669 1.6 1.669h19c.9 0 1.7-.747 1.7-1.669v-30.039c0-.922-.8-1.669-1.7-1.669"/><path fill="#f7f3ea" d="M21979.4 530.023h-413.7v227.903h413.7z"/><path fill="#f7f3ea" stroke="#2a4385" stroke-miterlimit="10" stroke-width="2" d="M21552.8 529.914h433.4c1.7 0 3.1 1.389 3.1 3.111v4.645c0 2.136-1.7 3.878-3.9 3.878h-432.6c-2.1 0-3.9-1.742-3.9-3.878v-3.878c0-2.136 1.8-3.878 3.9-3.878Zm0 95.184h432.3c1.8 0 3.1 1.476 3.1 3.305v8.196c0 1.829-1.3 3.305-3.1 3.305h-432.3c-2.1 0-3.9-1.851-3.9-4.12v-6.566c0-2.27 1.8-4.12 3.9-4.12Z"/><path fill="#f7f3ea" stroke="#2a4385" stroke-miterlimit="10" stroke-width="2" d="M21989.2 761.249V531.013c0-1.742-1.4-3.154-3.1-3.154h-22c-1.7 0-3.2 1.412-3.2 3.154v230.236c0 1.742 1.5 3.154 3.2 3.154h22c1.7 0 3.1-1.412 3.1-3.154Zm-440.1.02V531.033c0-1.745 1.4-3.154 3.1-3.154h22c1.7 0 3.1 1.409 3.1 3.154v229.458c0 .252 0 1.661-1.1 2.775a3.9 3.9 0 0 1-2.8 1.156h-21.1c-1.8 0-3.2-1.408-3.2-3.153Zm224.2-5.551V516.252c0-2.206-1.8-3.994-4-3.994h-3.8c-2.2 0-4 1.788-4 3.994v239.466c0 2.206 1.8 3.995 4 3.995h3.8c2.2 0 4-1.789 4-3.995Z"/><path fill="#2a4385" stroke="#2a4385" stroke-linecap="round" stroke-linejoin="round" stroke-width="2" d="M21737.1 656.926h-135.4c-1.8 0-3.2 1.412-3.2 3.153v3.301c0 1.742 1.4 3.154 3.2 3.154h135.4c1.8 0 3.2-1.412 3.2-3.154v-3.301c0-1.741-1.4-3.153-3.2-3.153"/><path fill="#f7f3ea" stroke="#2a4385" stroke-miterlimit="10" stroke-width="2" d="M22013.3 510.578h-478.6c-1.7 0-3.1 1.412-3.1 3.154v13.014c0 1.741 1.4 3.153 3.1 3.153h478.6c1.7 0 3.1-1.412 3.1-3.153v-13.014c0-1.742-1.4-3.154-3.1-3.154Zm-26.4 239.695h-434.7c-1.7 0-3.1 1.412-3.1 3.154v7.821c0 1.742 1.4 3.154 3.1 3.154h434.7c1.8 0 3.2-1.412 3.2-3.154v-7.821c0-1.742-1.4-3.154-3.2-3.154Z"/><path fill="#2a4385" stroke="#2a4385" stroke-linecap="round" stroke-linejoin="round" stroke-width="2" d="M21934.7 656.926h-135.4c-1.8 0-3.2 1.412-3.2 3.153v3.301c0 1.742 1.4 3.154 3.2 3.154h135.4c1.8 0 3.2-1.412 3.2-3.154v-3.301c0-1.741-1.4-3.153-3.2-3.153"/><g stroke="#2a4385" clip-path="url(#m)"><path fill="#f7f3ea" stroke-linecap="round" stroke-linejoin="round" stroke-width="2" d="M19903.1 511.574h-879.5v41.887h879.5z"/><path fill="#f7f3ea" stroke-linecap="round" stroke-linejoin="round" stroke-width="2" d="M19448.8 492.676h11.1c5.4 0 9.7 4.331 9.7 9.672v47.199h-30.5v-47.199a9.66 9.66 0 0 1 9.7-9.672m12.6-6.551h-14.1v5.978h14.1z"/><path fill="#2a4385" stroke-linecap="round" stroke-linejoin="round" stroke-width="2" d="M19455.9 477.719h-3.6v6.749h3.6z"/><path stroke-linecap="round" stroke-linejoin="round" stroke-width="2" d="M19472.1 475.273c-4 4.475-9.4 5.531-14.1 2.742l-.8-.466c-3.7-2.199-7.9-2.028-11.5.476l-.6.447"/><path fill="#f7f3ea" stroke-linecap="round" stroke-linejoin="round" stroke-width="2" d="M19483 512.453h7.3c3.5 0 6.3 2.825 6.3 6.309v30.786h-19.9v-30.786c0-3.484 2.8-6.309 6.3-6.309m8.3-4.273h-9.2v3.899h9.2z"/><path fill="#2a4385" stroke-linecap="round" stroke-linejoin="round" stroke-width="2" d="M19487.7 502.695h-2.3v4.403h2.3z"/><path stroke-linecap="round" stroke-linejoin="round" stroke-width="2" d="M19498.2 501.102c-2.6 2.918-6.1 3.607-9.2 1.788l-.5-.304c-2.4-1.435-5.1-1.323-7.5.31l-.4.292"/><path fill="#f7f3ea" stroke-linecap="round" stroke-linejoin="round" stroke-width="2" d="M19768.4 642.207h128v-75.292h-128zm-.1-80.758h-192v231.799h192z"/><path fill="#f7f3ea" stroke-linecap="round" stroke-linejoin="round" stroke-width="2" d="M19576.9 561.449h-192v231.799h192z"/><path fill="#2a4385" stroke-linecap="round" stroke-linejoin="round" stroke-width="2" d="M19822 587h20.9c.7 0 1.4-.631 1.4-1.409v-1.828c0-.778-.7-1.409-1.4-1.409h-20.9c-.8 0-1.4.631-1.4 1.409v1.828c0 .778.6 1.409 1.4 1.409"/><path fill="#f7f3ea" stroke-linecap="round" stroke-linejoin="round" stroke-width="2" d="M19768.4 717.773h128v-75.292h-128z"/><path fill="#2a4385" stroke-linecap="round" stroke-linejoin="round" stroke-width="2" d="M19822 662.531h20.9c.7 0 1.4-.631 1.4-1.409v-1.818c0-.778-.7-1.409-1.4-1.409h-20.9c-.8 0-1.4.631-1.4 1.409v1.818c0 .778.6 1.409 1.4 1.409"/><path stroke-linejoin="round" stroke-width="9" d="M19849.6 530.156v-93.628c0-15.155-14.4-27.826-32.6-28.226-.2 0-.4 0-.6-.01-1.1-.009-2.1 0-3.1.057-17.6.848-31.3 13.233-31.3 27.903v3.875"/><path fill="#f7f3ea" stroke-linecap="round" stroke-linejoin="round" stroke-width="2" d="M19785.9 436.18h-8.6c-1.5 0-2.8 1.249-2.8 2.789v3.037c0 1.54 1.3 2.789 2.8 2.789h8.6c1.6 0 2.8-1.249 2.8-2.789v-3.037c0-1.54-1.2-2.789-2.8-2.789m74.4 78.965v-4.751c0-1.466-1.2-2.656-2.7-2.656h-16.7c-.8 0-1.4.295-1.9.781-.8.761-.8 1.704-.8 1.875v32.111c0 1.466 1.2 2.656 2.7 2.656h16.7c1.5 0 2.7-1.19 2.7-2.656zm18.3-2.153h-12c-1.6 0-2.8 1.249-2.8 2.789v8.692a2.76 2.76 0 0 0 2.8 2.789h12c1.5 0 2.8-1.248 2.8-2.789v-8.692c0-1.54-1.3-2.789-2.8-2.789"/><path fill="#f7f3ea" stroke-linecap="round" stroke-linejoin="round" stroke-width="2" d="M19878.3 502.68c0-1.204-1-2.18-2.2-2.18s-2.2.976-2.2 2.18v11.148c0 1.204 1 2.18 2.2 2.18s2.2-.976 2.2-2.18zm-14.6 13.875h-3v8.12h3zm33.7 27.455c0-1.828-3-2.037-6.6-2.037h-2.8c-3.7 0-6.6.209-6.6 2.037v1.009h-213.3v-1.009c0-1.828-2.9-2.037-6.6-2.037h-2.8c-3.6 0-6.6.209-6.6 2.037v7.216h0v2.58h245.3v-2.58h0z"/><path fill="#f7f3ea" stroke-linecap="round" stroke-linejoin="round" stroke-width="2" d="M19667.9 544.01c0-1.828-3-2.037-6.6-2.037h-2.8c-3.7 0-6.6.209-6.6 2.037v1.009h-213.3v-1.009c0-1.828-2.9-2.037-6.6-2.037h-2.8c-3.6 0-6.6.209-6.6 2.037v7.216h0v2.58h245.3v-2.58h0z"/><path fill="#2a4385" stroke-linecap="round" stroke-linejoin="round" stroke-width="2" d="M19554.2 686.502V638.76c0-.789-.7-1.428-1.4-1.428h-7.3c-.8 0-1.5.639-1.5 1.428v47.742c0 .789.7 1.428 1.5 1.428h7.3c.7 0 1.4-.639 1.4-1.428m53.4 0V638.76c0-.789-.6-1.428-1.4-1.428h-7.3c-.8 0-1.4.639-1.4 1.428v47.742c0 .789.6 1.428 1.4 1.428h7.3c.8 0 1.4-.639 1.4-1.428"/><path fill="#f7f3ea" stroke-linecap="round" stroke-linejoin="round" stroke-width="2" d="M19268.1 545.619c13.5 0 24.3-10.895 24.3-24.333 0-13.439-10.8-24.333-24.3-24.333-13.4 0-24.3 10.894-24.3 24.333s10.9 24.333 24.3 24.333"/><path fill="#f7f3ea" stroke-linecap="round" stroke-linejoin="round" stroke-width="2" d="M19256.4 545.958c13.4 0 24.3-10.894 24.3-24.332s-10.9-24.333-24.3-24.333-24.3 10.894-24.3 24.333 10.9 24.332 24.3 24.332m79.4-.339c13.4 0 24.3-10.895 24.3-24.333 0-13.439-10.9-24.333-24.3-24.333-13.5 0-24.4 10.894-24.4 24.333s10.9 24.333 24.4 24.333"/><path fill="#f7f3ea" stroke-linecap="round" stroke-linejoin="round" stroke-width="2" d="M19325.9 545.958c13.4 0 24.3-10.894 24.3-24.332s-10.9-24.333-24.3-24.333-24.3 10.894-24.3 24.333 10.9 24.332 24.3 24.332"/><path fill="#f7f3ea" stroke-linecap="round" stroke-linejoin="round" stroke-width="2" d="M19325.8 531.565c5.6 0 10-4.689 10-10.472 0-5.784-4.4-10.472-10-10.472-5.5 0-10 4.688-10 10.472s4.5 10.472 10 10.472m-69.5 0c5.6 0 10-4.689 10-10.472 0-5.784-4.4-10.472-10-10.472-5.5 0-9.9 4.688-9.9 10.472s4.4 10.472 9.9 10.472"/><path fill="#f7f3ea" stroke-linecap="round" stroke-linejoin="round" stroke-width="2" d="M19362.1 519.135v25.884c0 .791-.6 1.428-1.4 1.428h-122.2c-.8 0-1.4-.637-1.4-1.428v-25.884c0-.79-.6-1.428-1.4-1.428h-1.9c-.8 0-1.5.638-1.5 1.428v31.711c0 .79.7 1.428 1.5 1.428h131.7c.8 0 1.4-.638 1.4-1.428v-31.711c0-.79-.6-1.428-1.4-1.428h-1.9c-.8 0-1.5.638-1.5 1.428"/><path fill="#f7f3ea" stroke-linecap="round" stroke-linejoin="round" stroke-width="2" d="M19304.1 545.619c13.4 0 24.3-10.895 24.3-24.333 0-13.439-10.9-24.333-24.3-24.333s-24.3 10.894-24.3 24.333 10.9 24.333 24.3 24.333"/><path fill="#f7f3ea" stroke-linecap="round" stroke-linejoin="round" stroke-width="2" d="M19295.4 545.958c13.5 0 24.4-10.894 24.4-24.332s-10.9-24.333-24.4-24.333c-13.4 0-24.3 10.894-24.3 24.333s10.9 24.332 24.3 24.332"/><path fill="#f7f3ea" stroke-linecap="round" stroke-linejoin="round" stroke-width="2" d="M19295.4 531.565c5.5 0 10-4.689 10-10.472 0-5.784-4.5-10.472-10-10.472s-10 4.688-10 10.472 4.5 10.472 10 10.472m-33.1 200.439h-56.6c-.9 0-1.7-.448-2.2-1.182l-4.4-6.845c-1.1-1.705.2-3.957 2.2-3.957h65.4c2 0 3.2 2.252 2.1 3.957l-4.4 6.845c-.5.734-1.3 1.182-2.1 1.182"/><path fill="#2a4385" stroke-linecap="round" stroke-linejoin="round" stroke-width="2" d="M19262.3 742.45h-56.6c-.9 0-1.7-.448-2.2-1.183l-4.4-6.845c-1.1-1.705.1-3.957 2.2-3.957h65.4c2 0 3.2 2.252 2.1 3.957l-4.4 6.845c-.5.735-1.3 1.183-2.2 1.183z"/><path fill="#f7f3ea" stroke-linecap="round" stroke-linejoin="round" stroke-width="2" d="M19262.3 751.36h-56.6c-.9 0-1.7-.448-2.2-1.182l-4.4-6.845c-1.1-1.705.1-3.958 2.2-3.958h65.4c2 0 3.2 2.253 2.1 3.958l-4.4 6.845c-.5.734-1.3 1.182-2.2 1.182z"/><path fill="#2a4385" stroke-linecap="round" stroke-linejoin="round" stroke-width="2" d="M19262.3 760.77h-56.6c-.9 0-1.7-.448-2.2-1.182l-4.4-6.845c-1.1-1.705.1-3.958 2.2-3.958h65.4c2 0 3.2 2.253 2.1 3.958l-4.4 6.845c-.5.734-1.3 1.182-2.2 1.182z"/><path fill="#f7f3ea" stroke-linecap="round" stroke-linejoin="round" stroke-width="2" d="M19262.3 770.7h-56.6c-.9 0-1.7-.448-2.2-1.183l-4.4-6.845c-1.1-1.705.1-3.957 2.2-3.957h65.4c2 0 3.2 2.252 2.1 3.957l-4.4 6.845c-.5.735-1.3 1.183-2.2 1.183zm84.7-38.696h-56.6c-.8 0-1.7-.448-2.1-1.182l-4.4-6.845c-1.1-1.705.1-3.957 2.1-3.957h65.4c2 0 3.2 2.252 2.2 3.957l-4.5 6.845c-.4.734-1.2 1.182-2.1 1.182"/><path fill="#2a4385" stroke-linecap="round" stroke-linejoin="round" stroke-width="2" d="M19347 742.45h-56.6c-.8 0-1.7-.448-2.1-1.183l-4.5-6.845c-1.1-1.705.2-3.957 2.2-3.957h65.4c2 0 3.2 2.252 2.1 3.957l-4.4 6.845c-.4.735-1.3 1.183-2.1 1.183"/><path fill="#f7f3ea" stroke-linecap="round" stroke-linejoin="round" stroke-width="2" d="M19347 751.36h-56.6c-.8 0-1.7-.448-2.1-1.182l-4.5-6.845c-1.1-1.705.2-3.958 2.2-3.958h65.4c2 0 3.2 2.253 2.1 3.958l-4.4 6.845c-.4.734-1.3 1.182-2.1 1.182"/><path fill="#2a4385" stroke-linecap="round" stroke-linejoin="round" stroke-width="2" d="M19347 760.77h-56.6c-.8 0-1.7-.448-2.1-1.182l-4.5-6.845c-1.1-1.705.2-3.958 2.2-3.958h65.4c2 0 3.2 2.253 2.1 3.958l-4.4 6.845c-.4.734-1.3 1.182-2.1 1.182"/><path fill="#f7f3ea" stroke-linecap="round" stroke-linejoin="round" stroke-width="2" d="M19347 770.7h-56.6c-.8 0-1.7-.448-2.1-1.183l-4.5-6.845c-1.1-1.705.2-3.957 2.2-3.957h65.4c2 0 3.2 2.252 2.1 3.957l-4.4 6.845c-.4.735-1.3 1.183-2.1 1.183m-305 20.757h-14.4c-.7 0-1.3.569-1.3 1.271v22.868c0 .702.6 1.271 1.3 1.271h14.4c.7 0 1.3-.569 1.3-1.271v-22.868c0-.702-.6-1.271-1.3-1.271m852.9 0h-14.4c-.7 0-1.3.569-1.3 1.271v22.868c0 .702.6 1.271 1.3 1.271h14.4c.7 0 1.3-.569 1.3-1.271v-22.868c0-.702-.6-1.271-1.3-1.271m-511 0h-14.4c-.7 0-1.3.569-1.3 1.271v22.868c0 .702.6 1.271 1.3 1.271h14.4c.7 0 1.3-.569 1.3-1.271v-22.868c0-.702-.6-1.271-1.3-1.271m-199.1-272.322v25.884c0 .791-.6 1.428-1.4 1.428h-122.2c-.8 0-1.4-.637-1.4-1.428v-25.884c0-.79-.7-1.428-1.4-1.428h-1.9c-.8 0-1.5.638-1.5 1.428v31.711c0 .79.7 1.428 1.5 1.428h131.7c.7 0 1.4-.638 1.4-1.428v-31.711c0-.79-.7-1.428-1.4-1.428h-1.9c-.8 0-1.5.638-1.5 1.428"/><path fill="#f7f3ea" stroke-miterlimit="10" stroke-width="2" d="M19088.5 514.755h-16c-.3 0-.5.188-.5.439l-3.1 30.743c0 .285.2.536.5.536h22.2c.2 0 .5-.251.4-.536l-3-30.743c-.1-.251-.3-.439-.5-.439Zm27.6 0h-16c-.3 0-.5.188-.5.439l-3.1 30.743c0 .285.2.536.5.536h22.2c.2 0 .5-.251.4-.536l-3-30.743c-.1-.251-.3-.439-.5-.439Zm26.6 0h-16c-.2 0-.4.188-.5.439l-3.1 30.743c0 .285.2.536.5.536h22.2c.3 0 .5-.251.5-.536l-3.1-30.743c0-.251-.2-.439-.5-.439Zm26.7 0h-16c-.3 0-.5.188-.5.439l-3.1 30.743c0 .285.2.536.5.536h22.2c.2 0 .5-.251.4-.536l-3-30.743c-.1-.251-.3-.439-.5-.439Zm-84.9 255.435h-16.1c-.2 0-.4-.188-.4-.438l-3.1-30.743c-.1-.286.2-.536.5-.536h22.1c.3 0 .5.25.5.536l-3.1 30.743c0 .25-.2.438-.4.438Zm28.5 0h-16c-.3 0-.5-.188-.5-.438l-3.1-30.743c0-.286.2-.536.5-.536h22.2c.3 0 .5.25.5.536l-3.1 30.743c0 .25-.2.438-.5.438Zm28.6 0h-16.1c-.2 0-.4-.188-.4-.438l-3.1-30.743c0-.286.2-.536.5-.536h22.1c.3 0 .6.25.5.536l-3.1 30.743c0 .25-.2.438-.4.438Zm29.5 0h-16c-.3 0-.5-.188-.5-.438l-3.1-30.743c0-.286.2-.536.5-.536h22.2c.2 0 .5.25.4.536l-3 30.743c-.1.25-.3.438-.5.438Z"/><path fill="#f7f3ea" stroke-linecap="round" stroke-linejoin="round" stroke-width="2" d="M19200.2 636.229v25.884c0 .79-.6 1.428-1.4 1.428h-122.2c-.8 0-1.4-.638-1.4-1.428v-25.884c0-.79-.7-1.428-1.5-1.428h-1.9c-.8 0-1.4.638-1.4 1.428v31.71c0 .79.6 1.428 1.4 1.428h131.7c.8 0 1.5-.638 1.5-1.428v-31.71c0-.79-.7-1.428-1.5-1.428h-1.9c-.8 0-1.4.638-1.4 1.428"/><path fill="#f7f3ea" stroke-linecap="round" stroke-linejoin="round" stroke-width="2" d="M19205.1 649.681v-2.447h-134.8v2.447z"/><path fill="#f7f3ea" stroke-linecap="round" stroke-linejoin="round" stroke-width="2" d="M19384.4 566.789h-192.3v105.67h192.3z"/><path fill="#2a4385" stroke-linecap="round" stroke-linejoin="round" stroke-width="2" d="M19205.4 640.346v-23.354c0-.386-.3-.699-.6-.699h-3.5c-.3 0-.6.313-.6.699v23.354c0 .386.3.699.6.699h3.5c.3 0 .6-.313.6-.699"/><path fill="#f7f3ea" stroke-linecap="round" stroke-linejoin="round" stroke-width="2" d="M19189.9 531.158v-2.447h-134.8v2.447zm193.9 34.678H19028c-.9 0-1.5.631-1.5 1.406v224.712c0 .775.6 1.406 1.5 1.406h355.8c.9 0 1.5-.631 1.5-1.406V567.242c0-.775-.6-1.406-1.5-1.406m-13.1 203.185c0 .765-.7 1.377-1.5 1.377h-326.6c-.8 0-1.5-.622-1.5-1.377V588.559c0-.765.7-1.377 1.5-1.377h326.6c.8 0 1.5.621 1.5 1.377z"/><path fill="#f7f3ea" stroke-linecap="round" stroke-linejoin="round" stroke-width="2" d="M19369.2 668.172h-327.5v9.52h327.5zm-2.3-135.585v-2.446h-134.8v2.446zm403 260.765h125.1c.8 0 1.4-.64 1.4-1.428v-72.437c0-.788-.6-1.428-1.4-1.428h-125.1c-.8 0-1.5.64-1.5 1.428v72.437c0 .788.7 1.428 1.5 1.428"/><path fill="#2a4385" stroke-linecap="round" stroke-linejoin="round" stroke-width="2" d="M19822 736.871h20.8c.8 0 1.5-.639 1.5-1.428v-1.885c0-.788-.7-1.428-1.5-1.428h-20.8c-.8 0-1.4.64-1.4 1.428v1.885c0 .789.6 1.428 1.4 1.428"/><path fill="#f7f3ea" stroke-linecap="round" stroke-linejoin="round" stroke-width="2" d="M19901.4 552.508h-875.1c-2 0-3.6 1.583-3.6 3.537v7.205c0 1.954 1.6 3.538 3.6 3.538h875.1c2 0 3.6-1.584 3.6-3.538v-7.205c0-1.954-1.6-3.537-3.6-3.537"/></g><g clip-path="url(#n)"><path fill="#f7f3ea" stroke="#2a4385" stroke-linecap="round" stroke-linejoin="round" stroke-width="2" d="M861.408 818.543c8.8 2.127 26.384 1.799 35.278-.422 8.329-2.096 8.11-4.739 7.468-11.95l-15.36-84.944c-.971-5.552-2.959-8.086-7.14-8.055l-7.062.063c-4.603.047-6.059 2.784-6.983 8.18l-13.842 85.194c-.516 7.226-.688 9.917 7.641 11.934"/><path fill="#f7f3ea" d="M864.994 737.953c8.833 2.71 17.667 2.71 26.484 0z"/><path stroke="#2a4385" stroke-linecap="round" stroke-linejoin="round" stroke-width="2" d="M864.994 737.953c8.833 2.71 17.667 2.71 26.484 0"/><path fill="#f7f3ea" d="M860.41 768.949q18.336 6.097 36.671 0z"/><path stroke="#2a4385" stroke-linecap="round" stroke-linejoin="round" stroke-width="2" d="M860.41 768.949q18.336 6.097 36.671 0"/><path fill="#f7f3ea" d="M855.826 794.863c15.274 7.453 30.564 7.453 45.839 0z"/><path stroke="#2a4385" stroke-linecap="round" stroke-linejoin="round" stroke-width="2" d="M855.826 794.863c15.274 7.453 30.564 7.453 45.839 0"/><path fill="#2a4385" stroke="#2a4385" stroke-linecap="round" stroke-linejoin="round" stroke-width="2" d="m918.826 827.1-.047-10.088-79.589.547.047 9.682s-.031.156-.031.234c0 4.614 17.818 8.352 39.802 8.352s39.802-3.738 39.802-8.352c0-.125-.016-.234-.047-.359h.078z"/><path fill="#2a4385" stroke="#2a4385" stroke-linecap="round" stroke-linejoin="round" stroke-width="2" d="M839.19 818.059c0 4.739 18.367 9.072 40.35 9.072 21.984 0 39.239-4.333 39.239-9.072s-17.819-8.571-39.802-8.571c-21.984 0-39.787 3.832-39.787 8.571"/><path fill="#2a4385" d="M855.062 797.658s-1.684 10.458-1.528 13.211c.094 1.596 50.677.254 50.677.254.125-5.192-2.292-16.006-2.292-16.006s-22.41 11.941-46.093 0zm9.932-59.451-5.093 30.488c11.414 4.473 26.345 4.129 37.18 0l-5.603-30.488s-12.298 3.629-26.484 0"/></g><path fill="#f7f3ea" stroke="#2a4385" stroke-linecap="round" stroke-linejoin="round" stroke-width="2" d="M15600.4 799.996h-19c-1 0-1.7.756-1.7 1.688v30.39c0 .932.7 1.688 1.7 1.688h19c.9 0 1.7-.756 1.7-1.688v-30.39c0-.932-.8-1.688-1.7-1.688m3.4-233.996h-391.6c-1.8 0-3.2 1.467-3.2 3.277v6.446c0 1.81 1.4 3.277 3.2 3.277h391.6c1.8 0 3.2-1.467 3.2-3.277v-6.446c0-1.81-1.4-3.277-3.2-3.277m0-8h-391.6c-1.8 0-3.2 1.383-3.2 3.088v.824c0 1.705 1.4 3.088 3.2 3.088h391.6c1.8 0 3.2-1.383 3.2-3.088v-.824c0-1.705-1.4-3.088-3.2-3.088"/><path fill="#f7f3ea" stroke="#2a4385" stroke-linecap="round" stroke-linejoin="round" stroke-width="2" d="M15614.8 791h-402.6c-1.8 0-3.2 1.418-3.2 3.166v9.668c0 1.748 1.4 3.166 3.2 3.166h402.6c1.8 0 3.2-1.418 3.2-3.166v-9.668c0-1.748-1.4-3.166-3.2-3.166m-245.2-152.426H15213c-1.8 0-3.3 1.475-3.3 3.295v145.628c0 1.82 1.5 3.295 3.3 3.295h156.6c1.8 0 3.2-1.475 3.2-3.295V641.869c0-1.82-1.4-3.295-3.2-3.295m68.6 0h-61.9c-1.8 0-3.3 1.475-3.3 3.295v145.628c0 1.82 1.5 3.295 3.3 3.295h61.9c1.8 0 3.2-1.475 3.2-3.295V641.869c0-1.82-1.4-3.295-3.2-3.295"/><path fill="#f7f3ea" stroke="#2a4385" stroke-linecap="round" stroke-linejoin="round" stroke-width="2" d="M15601.9 579.199h-392.8v59.525h392.8z"/><path fill="#f7f3ea" stroke="#2a4385" stroke-linecap="round" stroke-linejoin="round" stroke-width="2" d="M15255.4 623.102c7.5 0 13.5-6.038 13.5-13.487s-6-13.486-13.5-13.486c-7.4 0-13.4 6.038-13.4 13.486s6 13.487 13.4 13.487"/><path fill="#f7f3ea" stroke="#2a4385" stroke-width="2" d="M15255.4 592.104c1.7 3.621 1.7 7.836 0 11.462a14.3 14.3 0 0 1 0-11.462Z"/><path fill="#f7f3ea" stroke="#2a4385" stroke-linecap="round" stroke-linejoin="round" stroke-width="2" d="M15255.4 616.709c3.9 0 7.1-3.176 7.1-7.095s-3.2-7.094-7.1-7.094-7 3.176-7 7.094 3.1 7.095 7 7.095m51.8 6.401c7.5 0 13.5-6.038 13.5-13.487s-6-13.486-13.5-13.486c-7.4 0-13.4 6.038-13.4 13.486s6 13.487 13.4 13.487"/><path fill="#f7f3ea" stroke="#2a4385" stroke-width="2" d="M15307.2 592.111a13.52 13.52 0 0 1 0 11.463 14.3 14.3 0 0 1 0-11.463Z"/><path fill="#f7f3ea" stroke="#2a4385" stroke-linecap="round" stroke-linejoin="round" stroke-width="2" d="M15307.2 616.717c3.9 0 7.1-3.177 7.1-7.095s-3.2-7.095-7.1-7.095-7 3.177-7 7.095 3.1 7.095 7 7.095m51.8 6.393c7.4 0 13.4-6.038 13.4-13.487s-6-13.486-13.4-13.486-13.4 6.038-13.4 13.486 6 13.487 13.4 13.487"/><path fill="#f7f3ea" stroke="#2a4385" stroke-width="2" d="M15359 592.111c1.6 3.622 1.6 7.836 0 11.463a13.52 13.52 0 0 1 0-11.463Z"/><path fill="#f7f3ea" stroke="#2a4385" stroke-linecap="round" stroke-linejoin="round" stroke-width="2" d="M15359 616.717c3.9 0 7.1-3.177 7.1-7.095s-3.2-7.095-7.1-7.095-7.1 3.177-7.1 7.095 3.2 7.095 7.1 7.095m93.1 6.393c7.4 0 13.4-6.038 13.4-13.487s-6-13.486-13.4-13.486c-7.5 0-13.5 6.038-13.5 13.486s6 13.487 13.5 13.487"/><path fill="#f7f3ea" stroke="#2a4385" stroke-width="2" d="M15452.1 592.111c1.6 3.622 1.6 7.836 0 11.463a13.52 13.52 0 0 1 0-11.463Z"/><path fill="#f7f3ea" stroke="#2a4385" stroke-linecap="round" stroke-linejoin="round" stroke-width="2" d="M15452.1 616.717c3.9 0 7-3.177 7-7.095s-3.1-7.095-7-7.095-7.1 3.177-7.1 7.095 3.2 7.095 7.1 7.095m51.7 6.393c7.4 0 13.4-6.038 13.4-13.487s-6-13.486-13.4-13.486-13.4 6.038-13.4 13.486 6 13.487 13.4 13.487"/><path fill="#f7f3ea" stroke="#2a4385" stroke-width="2" d="M15503.8 592.111c1.7 3.622 1.6 7.836 0 11.463-1.6-3.626-1.7-7.841 0-11.463Z"/><path fill="#f7f3ea" stroke="#2a4385" stroke-linecap="round" stroke-linejoin="round" stroke-width="2" d="M15503.8 616.717c3.9 0 7.1-3.177 7.1-7.095s-3.2-7.095-7.1-7.095-7.1 3.177-7.1 7.095 3.2 7.095 7.1 7.095m51.7 6.393c7.4 0 13.5-6.038 13.5-13.487s-6.1-13.486-13.5-13.486-13.4 6.038-13.4 13.486 6 13.487 13.4 13.487"/><path fill="#f7f3ea" stroke="#2a4385" stroke-width="2" d="M15555.5 592.111a13.52 13.52 0 0 1 0 11.463 14.3 14.3 0 0 1 0-11.463Z"/><path fill="#f7f3ea" stroke="#2a4385" stroke-linecap="round" stroke-linejoin="round" stroke-width="2" d="M15555.5 616.717c3.9 0 7.1-3.177 7.1-7.095s-3.2-7.095-7.1-7.095-7 3.177-7 7.095 3.1 7.095 7 7.095m-214.3 143.607h-100.7zm-96.9-80.544c0 4.129-1.8 7.687-6.4 7.687s-8.4-3.338-8.4-7.468c0-4.129 3.8-7.468 8.4-7.468s6.4 3.119 6.4 7.249m94 0c0 4.129 1.8 7.687 6.5 7.687 4.6 0 8.4-3.338 8.4-7.468 0-4.129-3.8-7.468-8.4-7.468-4.7 0-6.5 3.119-6.5 7.249"/><path fill="#2a4385" stroke="#2a4385" stroke-linecap="round" stroke-linejoin="round" stroke-width="2" d="M15338.2 675.125h-94.7c-1.6 0-3 1.357-3 3.031v3.668c0 1.674 1.4 3.032 3 3.032h94.7c1.6 0 3-1.358 3-3.032v-3.668c0-1.674-1.4-3.031-3-3.031"/><path fill="#f7f3ea" stroke="#2a4385" stroke-linecap="round" stroke-linejoin="round" stroke-width="2" d="M15598.9 638.574h-154.1c-1.8 0-3.3 1.475-3.3 3.295v145.628c0 1.82 1.5 3.295 3.3 3.295h154.1c1.8 0 3.3-1.475 3.3-3.295V641.869c0-1.82-1.5-3.295-3.3-3.295"/><path fill="#f7f3ea" stroke="#2a4385" stroke-linecap="round" stroke-linejoin="round" stroke-width="2" d="M15474.7 679.561c0 4.129-1.8 7.688-6.4 7.688s-8.3-3.339-8.3-7.468c0-4.13 3.7-7.469 8.3-7.469s6.4 3.12 6.4 7.249m94 0c0 4.129 1.9 7.688 6.5 7.688 4.7 0 8.5-3.339 8.5-7.468 0-4.13-3.8-7.469-8.5-7.469-4.6 0-6.5 3.12-6.5 7.249"/><path fill="#2a4385" stroke="#2a4385" stroke-linecap="round" stroke-linejoin="round" stroke-width="2" d="M15568.6 674.926h-94.6c-1.7 0-3 1.357-3 3.031v3.668c0 1.674 1.3 3.031 3 3.031h94.6c1.7 0 3.1-1.357 3.1-3.031v-3.668c0-1.674-1.4-3.031-3.1-3.031"/><path fill="#f7f3ea" stroke="#2a4385" stroke-linecap="round" stroke-linejoin="round" stroke-width="2" d="m15529.9 755.778-14 2.504c-3.3.418-6.7.505-10 .242-5.3-.417-12.4-1.977-12.4-2.636v-73.319c0-4.745 3.8-8.589 8.6-8.589h38.8c4.7 0 8.5 3.844 8.5 8.589v73.319c0 .637-5.3.198-9.5-.22-3.3-.329-6.7-.285-10 .11"/><path fill="#f7f3ea" d="M15549.5 731.596c0 .637-5.3.198-9.6-.22-3.3-.329-6.7-.285-10 .11l-14 2.504c-3.3.417-6.6.505-10 .242-5.3-.418-12.4-1.977-12.4-2.636"/><path stroke="#2a4385" stroke-linecap="round" stroke-linejoin="round" stroke-width="2" d="M15549.5 731.596c0 .637-5.3.198-9.6-.22-3.3-.329-6.7-.285-10 .11l-14 2.504c-3.3.417-6.6.505-10 .242-5.3-.418-12.4-1.977-12.4-2.636"/><path fill="#f7f3ea" stroke="#2a4385" stroke-linecap="round" stroke-linejoin="round" stroke-width="2" d="M15393.4 687.623c3 0 5.5-2.458 5.5-5.491s-2.5-5.491-5.5-5.491-5.5 2.458-5.5 5.491 2.5 5.491 5.5 5.491m-70.7-130.078h-84.3l12.4-6.084h59.4z"/><path stroke="#2a4385" stroke-linecap="round" stroke-linejoin="round" stroke-width="2" d="M15280.6 555.832v-3.844"/><path fill="#f7f3ea" stroke="#2a4385" stroke-linecap="round" stroke-linejoin="round" stroke-width="2" d="M15406 557.545h-84.3l12.3-6.084h59.5z"/><path stroke="#2a4385" stroke-linecap="round" stroke-linejoin="round" stroke-width="2" d="M15363.8 555.832v-3.844"/><path fill="#f7f3ea" stroke="#2a4385" stroke-linecap="round" stroke-linejoin="round" stroke-width="2" d="M15489.3 557.545h-84.3l12.3-6.084h59.5z"/><path stroke="#2a4385" stroke-linecap="round" stroke-linejoin="round" stroke-width="2" d="M15447.1 555.832v-3.844"/><path fill="#f7f3ea" stroke="#2a4385" stroke-linecap="round" stroke-linejoin="round" stroke-width="2" d="M15572.6 557.545h-84.3l12.3-6.084h59.5z"/><path stroke="#2a4385" stroke-linecap="round" stroke-linejoin="round" stroke-width="2" d="M15530.4 555.832v-3.844"/><path stroke="#2a4385" stroke-linecap="round" stroke-width="2" d="M15256.9 546.852c.5 2.916 5.7 8.75 22.3 8.75m24.2-8.75c-.5 2.916-5.7 8.75-22.3 8.75m59.1-7.5c.5 2.49 5.8 7.471 22.3 7.471m24.2-7.471c-.5 2.49-5.7 7.471-22.3 7.471m59.1-7.471c.6 2.49 5.8 7.471 22.4 7.471m24.1-7.471c-.5 2.49-5.7 7.471-22.3 7.471m59.1-7.471c.6 2.49 5.8 7.471 22.4 7.471m24.2-7.471c-.6 2.49-5.8 7.471-22.4 7.471"/><g stroke="#2a4385" stroke-linecap="round" stroke-width="2" clip-path="url(#o)"><path stroke-linejoin="round" d="M17390.5-15.21v173.309"/><path fill="#2a4385" stroke-linejoin="round" d="M17383.8 158.098h10.7c1.5 0 2.7 1.194 2.7 2.667v13.417h-16.1v-13.417c0-1.473 1.2-2.667 2.7-2.667"/><path fill="#f7f3ea" stroke-linejoin="round" d="M17386.5 196.926h5.3c3 0 5.4 2.407 5.4 5.371v2.666c0 4.436-3.6 8.038-8 8.038-4.5 0-8.1-3.602-8.1-8.038v-2.666c0-2.964 2.4-5.371 5.4-5.371"/><path fill="#f7f3ea" stroke-linejoin="round" d="M17382.6 171.422h15.4c19 0 34.4 15.446 34.4 34.475h-84.2c0-19.029 15.4-34.475 34.4-34.475"/><path fill="#2a4385" d="m17432.8 206.102-3.2-13.427s-11.6-8.221-30.1-7.408c-6.3.278-19.9 7.871-27.7 7.871-7.1 0-18.1-5.093-18.1-5.093l-3.7 8.957-1.3 9.1z"/></g><g stroke="#2a4385" stroke-linecap="round" stroke-width="2" clip-path="url(#p)"><path stroke-linejoin="round" d="M17898.5-15.21v173.309"/><path fill="#2a4385" stroke-linejoin="round" d="M17891.8 158.098h10.7c1.5 0 2.7 1.194 2.7 2.667v13.417h-16.1v-13.417c0-1.473 1.2-2.667 2.7-2.667"/><path fill="#f7f3ea" stroke-linejoin="round" d="M17894.5 196.926h5.3c3 0 5.4 2.407 5.4 5.371v2.666c0 4.436-3.6 8.038-8 8.038-4.5 0-8.1-3.602-8.1-8.038v-2.666c0-2.964 2.4-5.371 5.4-5.371"/><path fill="#f7f3ea" stroke-linejoin="round" d="M17890.6 171.422h15.4c19 0 34.4 15.446 34.4 34.475h-84.2c0-19.029 15.4-34.475 34.4-34.475"/><path fill="#2a4385" d="m17940.8 206.102-3.2-13.427s-11.6-8.221-30.1-7.408c-6.3.278-19.9 7.871-27.7 7.871-7.1 0-18.1-5.093-18.1-5.093l-3.7 8.957-1.3 9.1z"/></g><defs><clipPath id="c"><path fill="#fff" d="M2131 722h82v125h-82z"/></clipPath><clipPath id="d"><path fill="#fff" d="M4214 733h82v125h-82z"/></clipPath><clipPath id="e"><path fill="#fff" d="M2263 725h82v125h-82z"/></clipPath><clipPath id="f"><path fill="#fff" d="M2199 695h82v125h-82z"/></clipPath><clipPath id="g"><path fill="#fff" d="M8385 518.223h563v295.985h-563z"/></clipPath><clipPath id="h"><path fill="#fff" d="m8903.95 481 95.714 7.409-7.95 102.693-95.713-7.41z"/></clipPath><clipPath id="i"><path fill="#fff" d="M4288 628h159v124h-159z"/></clipPath><clipPath id="j"><path fill="#fff" d="M4408 636h166v130h-166z"/></clipPath><clipPath id="k"><path fill="#fff" d="M22505 261h459v534h-459z"/></clipPath><clipPath id="l"><path fill="#fff" d="M13318 390h574v460h-574z"/></clipPath><clipPath id="m"><path fill="#fff" d="M19016 404h890v456h-890z"/></clipPath><clipPath id="n"><path fill="#fff" d="M838 712h82v125h-82z"/></clipPath><clipPath id="o"><path fill="#fff" d="M17347 79h87v135h-87z"/></clipPath><clipPath id="p"><path fill="#fff" d="M17855 79h87v135h-87z"/></clipPath></defs></svg>