<svg xmlns="http://www.w3.org/2000/svg" width="24268" height="875" fill="none" viewBox="0 0 24268 875"><g clip-path="url(#a)"><path fill="#f7f3ea" stroke="#2a4385" stroke-miterlimit="10" stroke-width="2" d="M485.909 655H288.091c-2.812 0-5.091 2.454-5.091 5.482v145.781c0 3.028 2.279 5.482 5.091 5.482h197.818c2.812 0 5.091-2.454 5.091-5.482V660.482c0-3.028-2.279-5.482-5.091-5.482Z"/><path fill="#f7f3ea" stroke="#2a4385" stroke-miterlimit="10" stroke-width="2" d="M471.585 670.422H302.822c-2.811 0-5.091 2.454-5.091 5.482v115.009c0 3.028 2.28 5.482 5.091 5.482h168.763c2.812 0 5.091-2.454 5.091-5.482V675.904c0-3.028-2.279-5.482-5.091-5.482Z"/><path fill="#2a4385" stroke="#2a4385" stroke-miterlimit="10" stroke-width="2" d="M305.436 811.781h-7.705v85.737c0 3.027 2.28 5.482 5.091 5.482h2.614c2.812 0 5.091-2.455 5.091-5.482v-85.737zm166.183.198h-2.614c-2.812 0-5.091-.089-5.091-.198v85.737c0 3.028 2.279 5.482 5.091 5.482h2.614c2.812 0 5.091-2.454 5.091-5.482v-85.737c0 .11-2.279.198-5.091.198Z"/><path fill="#2a4385" d="M339.587 724v-20.44h3.5v17.192h8.68V724zm20.597.28q-2.38 0-3.752-1.26t-1.372-3.388q0-2.268 1.512-3.5t4.284-1.232h3.836v-1.316q0-1.12-.728-1.736-.728-.644-1.988-.644-1.148 0-1.904.504t-.896 1.372h-3.416q.252-2.184 1.96-3.472 1.709-1.288 4.368-1.288 2.828 0 4.452 1.428 1.652 1.4 1.652 3.808V724h-3.388v-2.688h-.56l.56-.756q0 1.708-1.26 2.716t-3.36 1.008m1.148-2.632q1.484 0 2.408-.756.952-.756.952-1.96v-1.876h-3.78q-1.064 0-1.708.616t-.644 1.624q0 1.092.728 1.736.756.616 2.044.616M376.441 724l-5.068-15.4h3.584l2.94 9.352q.252.84.476 1.736.252.895.364 1.428.14-.533.364-1.428.224-.896.448-1.708l2.884-9.38h3.556l-5.04 15.4zm19.029.252q-1.96 0-3.416-.728a5.65 5.65 0 0 1-2.24-2.1q-.783-1.372-.784-3.22v-3.808q0-1.848.784-3.192a5.4 5.4 0 0 1 2.24-2.1q1.457-.756 3.416-.756 1.989 0 3.416.756a5.2 5.2 0 0 1 2.212 2.1q.813 1.344.812 3.164v3.836q0 1.848-.812 3.22-.783 1.344-2.212 2.1-1.427.728-3.416.728m0-3.052q1.4 0 2.156-.756.784-.784.784-2.24v-3.808q0-1.484-.784-2.24-.755-.756-2.156-.756-1.371 0-2.156.756-.783.756-.784 2.24v3.808q0 1.456.784 2.24.785.756 2.156.756m11.021 2.8v-15.4h3.304v2.94h.868l-1.036 1.792q0-2.492 1.12-3.752t3.304-1.26q2.493 0 3.92 1.54t1.428 4.256v1.12h-3.668v-.868q0-1.484-.784-2.296-.756-.812-2.1-.812-1.372 0-2.128.812-.728.812-.728 2.296V724zm16.285 0v-3.192h5.376v-9.044h-4.676V708.6h8.036v12.208h4.76V724zm6.776-17.976q-1.063 0-1.68-.532-.616-.56-.616-1.484t.616-1.456q.617-.56 1.68-.56 1.065 0 1.68.56.616.532.616 1.456t-.616 1.484q-.615.532-1.68.532M322.042 754v-3.192h5.376v-9.044h-4.676V738.6h8.036v12.208h4.76V754zm6.776-17.976q-1.063 0-1.68-.532-.616-.56-.616-1.484t.616-1.456q.617-.56 1.68-.56t1.68.56q.616.532.616 1.456t-.616 1.484q-.617.532-1.68.532M338.859 754v-15.4h3.416v2.94h.952l-.952.812q0-1.904 1.092-2.968 1.12-1.064 3.052-1.064 2.268 0 3.612 1.512 1.372 1.512 1.372 4.06V754h-3.5v-9.744q0-1.4-.728-2.156t-2.044-.756q-1.288 0-2.044.784-.728.784-.728 2.24V754zm39.906.28q-1.96 0-3.444-.728-1.457-.756-2.268-2.1-.812-1.372-.812-3.22v-3.864q0-1.876.812-3.22a5.4 5.4 0 0 1 2.268-2.072q1.483-.756 3.444-.756 2.912 0 4.648 1.512 1.736 1.484 1.82 4.06h-3.5q-.084-1.204-.868-1.848-.756-.672-2.1-.672-1.4 0-2.212.784-.812.756-.812 2.184v3.892q0 1.428.812 2.212t2.212.784q1.344 0 2.1-.644.784-.672.868-1.876h3.5q-.084 2.576-1.82 4.088-1.736 1.484-4.648 1.484m16.705-.028q-1.96 0-3.416-.728a5.65 5.65 0 0 1-2.24-2.1q-.783-1.372-.784-3.22v-3.808q0-1.848.784-3.192a5.4 5.4 0 0 1 2.24-2.1q1.457-.756 3.416-.756 1.989 0 3.416.756a5.2 5.2 0 0 1 2.212 2.1q.813 1.344.812 3.164v3.836q0 1.848-.812 3.22-.783 1.344-2.212 2.1-1.427.728-3.416.728m0-3.052q1.4 0 2.156-.756.784-.784.784-2.24v-3.808q0-1.484-.784-2.24-.755-.756-2.156-.756-1.371 0-2.156.756-.783.756-.784 2.24v3.808q0 1.456.784 2.24.785.756 2.156.756m11.021 2.8v-15.4h3.304v2.94h.868l-1.036 1.792q0-2.492 1.12-3.752t3.304-1.26q2.493 0 3.92 1.54t1.428 4.256v1.12h-3.668v-.868q0-1.484-.784-2.296-.756-.812-2.1-.812-1.372 0-2.128.812-.728.812-.728 2.296V754zm21.969.252q-1.764 0-3.08-.56t-2.072-1.54q-.727-1.008-.784-2.352h3.5q.057.727.7 1.176.672.448 1.736.448h1.232q1.288 0 1.932-.504t.644-1.372q0-.812-.588-1.26-.56-.476-1.764-.616l-1.904-.28q-2.631-.364-3.864-1.4-1.232-1.036-1.232-3.108 0-2.156 1.456-3.332 1.457-1.204 4.284-1.204h1.064q2.577 0 4.116 1.148 1.54 1.148 1.652 3.08h-3.5q-.084-.616-.7-1.008-.587-.392-1.568-.392h-1.064q-1.203 0-1.764.448-.531.42-.532 1.26 0 .784.476 1.176.477.364 1.54.532l1.988.28q2.745.392 4.032 1.484 1.317 1.064 1.316 3.164 0 2.24-1.54 3.5-1.512 1.232-4.48 1.232zm17.377 0q-1.96 0-3.416-.728a5.65 5.65 0 0 1-2.24-2.1q-.784-1.372-.784-3.22v-3.808q0-1.848.784-3.192a5.4 5.4 0 0 1 2.24-2.1q1.457-.756 3.416-.756 1.989 0 3.416.756a5.2 5.2 0 0 1 2.212 2.1q.812 1.344.812 3.164v3.836q0 1.848-.812 3.22-.783 1.344-2.212 2.1-1.427.728-3.416.728m0-3.052q1.4 0 2.156-.756.784-.784.784-2.24v-3.808q0-1.484-.784-2.24-.755-.756-2.156-.756-1.371 0-2.156.756-.784.756-.784 2.24v3.808q0 1.456.784 2.24.785.756 2.156.756"/><path fill="#f7f3ea" stroke="#2a4385" stroke-miterlimit="10" stroke-width="2" d="M2845.42 936.796c-4.63-2.084-5.87-8.017-2.53-11.825 13.39-15.232 42.05-39.402 64.17-48.02 19.22-7.496 40.05-34.633 45.32-45.215a52 52 0 0 1 4.14-6.975c6.75-9.5 25.41-32.749 48.93-37.279 7.72-1.483 14.56-5.852 19.06-12.265 7.44-10.623 19.06-25.293 29.24-29.342 2.53-1.002 4.94-2.285 6.83-4.249 9.69-9.74 39.93-37.759 62.05-33.11 26.7 5.612 33.37 14.832 33.37 14.832s7.32 1.202 16.85 13.709c2.53 3.286 5.63 6.092 9.29 8.056 8.16 4.45 23.32 13.91 32.77 27.458 5.35 7.656 13.75 12.587 22.92 14.671 6.11 1.403 13.07 4.209 19.3 9.781 12.46 11.183 29.67 35.153 35.75 43.852a38.2 38.2 0 0 0 5.79 6.533c6.31 5.612 20.06 17.076 34.42 23.851 8.44 3.968 14.75 6.613 19.22 8.337a63.5 63.5 0 0 1 18.33 10.903c8.73 7.416 20.99 18.679 26.62 27.818 17.61 28.661-55.45 22.007-55.45 22.007s-19.66 7.054-40.05-1.804c-6.15-2.686-12.95-3.528-19.5-1.844-15.56 4.008-45.36 10.542-71.9 9.821-37.99-1.042-68.8.04-68.8.04h-58.02s-36.95-14.912-70.85-3.127-67.75-9.219-67.75-9.219-5.63-5.612-41.06 6.654c-24.16 8.377-46.68 1.282-58.54-4.089z"/><path fill="#2a4385" stroke="#2a4385" stroke-linecap="round" stroke-linejoin="round" stroke-width="1.5" d="M5693.46 681.764v12.047c0 1.886 1.43 3.416 3.2 3.416h84.88c1.76 0 3.19-1.53 3.19-3.416v-12.047c0-1.887-1.43-3.416-3.19-3.416h-84.88c-1.77 0-3.2 1.529-3.2 3.416"/><path fill="#f7f3ea" stroke="#2a4385" stroke-miterlimit="10" stroke-width="2" d="M5862.35 620.578h-736.22V972.45h736.22z"/><path fill="#f7f3ea" stroke="#2a4385" stroke-miterlimit="10" stroke-width="1.5" d="M5925.2 589h-867.4c-1.55 0-2.8 1.254-2.8 2.801v25.975a2.8 2.8 0 0 0 2.8 2.802h867.4c1.55 0 2.8-1.255 2.8-2.802v-25.975a2.8 2.8 0 0 0-2.8-2.801Z"/><path fill="#f7f3ea" stroke="#2a4385" stroke-miterlimit="10" stroke-width="1.5" d="M5132.38 620.578h-40.6c-1.55 0-2.8 1.254-2.8 2.801v346.27a2.8 2.8 0 0 0 2.8 2.801h40.6c1.54 0 2.8-1.254 2.8-2.801v-346.27a2.805 2.805 0 0 0-2.8-2.801Z"/><path fill="#f7f3ea" stroke="#2a4385" stroke-miterlimit="10" stroke-width="1.5" d="M5847.34 620.578h-709.37a2.796 2.796 0 0 0-2.79 2.801v9.337a2.796 2.796 0 0 0 2.79 2.801h709.37c1.54 0 2.8-1.254 2.8-2.801v-9.337a2.805 2.805 0 0 0-2.8-2.801Z"/><path fill="#f7f3ea" stroke="#2a4385" stroke-miterlimit="10" stroke-width="1.5" d="M5617.83 620.578h-40.6a2.796 2.796 0 0 0-2.79 2.801v346.27a2.796 2.796 0 0 0 2.79 2.801h40.6c1.55 0 2.8-1.254 2.8-2.801v-346.27a2.8 2.8 0 0 0-2.8-2.801Z"/><path fill="#f7f3ea" stroke="#2a4385" stroke-miterlimit="10" stroke-width="1.5" d="M5571.64 774.582h-432.12c-1.54 0-2.8 1.254-2.8 2.801v14.024a2.805 2.805 0 0 0 2.8 2.801h432.12c1.54 0 2.8-1.254 2.8-2.801v-14.024a2.805 2.805 0 0 0-2.8-2.801Zm321.9-153.937h-40.9a2.81 2.81 0 0 0-2.82 2.8V969.65c0 1.546 1.26 2.8 2.82 2.8h40.9c1.55 0 2.82-1.254 2.82-2.8V623.445c0-1.547-1.27-2.8-2.82-2.8Z"/><path fill="#2a4385" stroke="#2a4385" stroke-linecap="round" stroke-linejoin="round" stroke-width="1.5" d="M5693.46 681.764v12.047c0 1.886 1.43 3.416 3.2 3.416h84.88c1.76 0 3.19-1.53 3.19-3.416v-12.047c0-1.887-1.43-3.416-3.19-3.416h-84.88c-1.77 0-3.2 1.529-3.2 3.416"/><path fill="#f7f3ea" stroke="#2a4385" stroke-miterlimit="10" stroke-width="2" d="M5862.35 620.578h-736.22V972.45h736.22z"/><path fill="#f7f3ea" stroke="#2a4385" stroke-miterlimit="10" stroke-width="2" d="M5925.2 589h-867.4c-1.55 0-2.8 1.254-2.8 2.801v25.975a2.8 2.8 0 0 0 2.8 2.802h867.4c1.55 0 2.8-1.255 2.8-2.802v-25.975a2.8 2.8 0 0 0-2.8-2.801Z"/><path fill="#f7f3ea" stroke="#2a4385" stroke-miterlimit="10" stroke-width="2" d="M5132.38 620.578h-40.6c-1.55 0-2.8 1.254-2.8 2.801v346.27a2.8 2.8 0 0 0 2.8 2.801h40.6c1.54 0 2.8-1.254 2.8-2.801v-346.27a2.805 2.805 0 0 0-2.8-2.801Z"/><path fill="#f7f3ea" stroke="#2a4385" stroke-miterlimit="10" stroke-width="2" d="M5847.34 620.578h-709.37a2.796 2.796 0 0 0-2.79 2.801v9.337a2.796 2.796 0 0 0 2.79 2.801h709.37c1.54 0 2.8-1.254 2.8-2.801v-9.337a2.805 2.805 0 0 0-2.8-2.801Z"/><path fill="#f7f3ea" stroke="#2a4385" stroke-miterlimit="10" stroke-width="2" d="M5617.83 620.578h-40.6a2.796 2.796 0 0 0-2.79 2.801v346.27a2.796 2.796 0 0 0 2.79 2.801h40.6c1.55 0 2.8-1.254 2.8-2.801v-346.27a2.8 2.8 0 0 0-2.8-2.801Zm275.71.067h-40.9a2.81 2.81 0 0 0-2.82 2.8V969.65c0 1.546 1.26 2.8 2.82 2.8h40.9c1.55 0 2.82-1.254 2.82-2.8V623.445c0-1.547-1.27-2.8-2.82-2.8Zm-66.06-30.786s18.26 29.559 57.09 8.73c0 0 27.16 7.986 34.38-8.73zm-709.19-.23s27.11 132.771 84.81 39.199c0 0 40.36 35.842 51.07-39.199z"/><g stroke="#2a4385" stroke-miterlimit="10" stroke-width="2" clip-path="url(#b)"><path fill="#f7f3ea" d="M9446.47 687.441c0 22.004-15.32 39.847-34.23 39.847-18.9 0-34.23-17.843-34.23-39.847s15.34-34.761 34.23-34.761 34.23 12.756 34.23 34.761Z"/><path fill="#f7f3ea" d="M9439.09 729.269c0 22.005-15.32 39.847-34.23 39.847s-34.23-17.842-34.23-39.847 15.32-34.761 34.23-34.761 34.23 12.756 34.23 34.761Z"/><path fill="#f7f3ea" d="M9474.78 729.753c0 22.005-15.33 39.847-34.24 39.847-18.9 0-34.23-17.842-34.23-39.847 0-22.004 15.33-34.761 34.23-34.761 18.91 0 34.24 12.757 34.24 34.761Z"/><path fill="#f7f3ea" d="M9488.72 705.769c0 22.005-15.33 39.847-34.24 39.847-18.9 0-34.23-17.842-34.23-39.847s15.33-34.761 34.23-34.761c18.91 0 34.24 12.756 34.24 34.761Z"/><path fill="#f7f3ea" d="M9527.66 706.457c2.91-21.82-9.92-41.492-28.65-43.959-18.74-2.468-36.3 13.226-39.2 35.029-2.91 21.82 10.59 36.456 29.33 38.924s35.62-8.174 38.52-29.994Z"/><path fill="#f7f3ea" d="M9528.41 742.562c2.9-21.82-9.92-41.492-28.66-43.959s-36.29 13.226-39.2 35.03c-2.91 21.82 10.59 36.456 29.33 38.923 18.74 2.468 35.62-8.174 38.53-29.994Z"/><path fill="#f7f3ea" d="M9590.01 703.031c-2.45-21.871-19.65-37.917-38.44-35.852-18.79 2.064-32.03 21.484-29.58 43.355s19.09 32.864 37.88 30.8c18.79-2.065 32.59-16.416 30.16-38.286z"/><path fill="#f7f3ea" d="M9589.42 732.406c-2.45-21.871-19.65-37.917-38.44-35.852-18.79 2.064-32.04 21.484-29.59 43.355s19.1 32.864 37.89 30.8c18.78-2.065 32.59-16.416 30.16-38.286z"/><path fill="#2a4385" d="M9374.01 677.723h-7.79c-1.4 0-2.54 1.127-2.54 2.517v86.777c0 1.391 1.14 2.518 2.54 2.518h7.79c1.4 0 2.53-1.127 2.53-2.518V680.24c0-1.39-1.13-2.517-2.53-2.517Zm211.51 0h-7.79c-1.4 0-2.54 1.127-2.54 2.517v86.777c0 1.391 1.14 2.518 2.54 2.518h7.79c1.39 0 2.53-1.127 2.53-2.518V680.24c0-1.39-1.14-2.517-2.53-2.517Z"/><path fill="#f7f3ea" d="M9599.78 754.512h-246.56c-1.4 0-2.53 1.127-2.53 2.517v17.759c0 1.39 1.13 2.517 2.53 2.517h246.56c1.4 0 2.53-1.127 2.53-2.517v-17.759c0-1.39-1.13-2.517-2.53-2.517Zm0-30.532h-246.56c-1.4 0-2.53 1.128-2.53 2.518v17.758a2.52 2.52 0 0 0 2.53 2.518h246.56c1.4 0 2.53-1.127 2.53-2.518v-17.758c0-1.39-1.13-2.518-2.53-2.518Zm0-30.531h-246.56c-1.4 0-2.53 1.127-2.53 2.518v17.758a2.52 2.52 0 0 0 2.53 2.518h246.56c1.4 0 2.53-1.127 2.53-2.518v-17.758a2.52 2.52 0 0 0-2.53-2.518Z"/></g><path fill="#f7f3ea" stroke="#2a4385" stroke-miterlimit="10" stroke-width="2" d="m9648.75 788.175-28.72-2.454c-5.03-.429-8.92-4.647-9.02-9.794l-1.02-51.872c.05-.977.33-4.504 3.12-7.554 2.94-3.24 6.63-3.717 7.54-3.812 5.7-.596 12.67-.834 20.56-.119 7.35.667 13.74 2.025 18.99 3.502.84.191 4.68 1.192 7.16 5.052 2.24 3.479 1.9 7.029 1.79 7.982l-9.83 50.944c-.98 5.051-5.54 8.554-10.57 8.125Z"/><path fill="#2a4385" stroke="#2a4385" stroke-miterlimit="10" stroke-width="2" d="M9646.08 717.644c-1.72 0-3.63-.095-5.68-.31a62 62 0 0 1-3.43-.452 38.4 38.4 0 0 1-.77-7.697c0-5.718 1.29-10.508 2.63-14.034.33-1.835 2.02-3.169 3.96-3.312 2.43-.167 5.01 1.62 5.15 4.074-1.36 1.788-3.82 5.6-4.2 10.913-.33 4.933 1.31 8.817 2.34 10.818Z"/><path fill="#2a4385" stroke="#2a4385" stroke-miterlimit="10" stroke-width="2" d="M9651.33 717.423c.08-.904-4.57-2.04-10.38-2.536-5.82-.496-10.6-.164-10.67.74-.08.905 4.57 2.041 10.39 2.537 5.81.496 10.59.164 10.66-.741Z"/><path fill="#f7f3ea" stroke="#2a4385" stroke-miterlimit="10" stroke-width="2" d="m9675.13 812.644 29.13-2.478c5.1-.429 9.04-4.718 9.16-9.936l1.05-52.612c-.05-.977-.36-4.551-3.18-7.672-2.98-3.289-6.72-3.765-7.63-3.86-5.77-.596-12.86-.858-20.87-.12-7.47.691-13.95 2.05-19.25 3.551-.84.19-4.72 1.215-7.25 5.123-2.27 3.526-1.96 7.124-1.84 8.101l9.97 51.682c.98 5.123 5.61 8.673 10.71 8.221Z"/><path fill="#2a4385" stroke="#2a4385" stroke-miterlimit="10" stroke-width="2" d="M9677.85 743.068c1.74 0 3.68-.119 5.75-.357 1.22-.119 2.39-.286 3.48-.453.46-2.287.79-4.908.79-7.791 0-5.814-1.29-10.651-2.67-14.226-.33-1.858-2.05-3.216-4.01-3.359-2.48-.167-5.08 1.644-5.22 4.146 1.38 1.834 3.89 5.671 4.24 11.08.34 5.003-1.33 8.959-2.36 10.96Z"/><path fill="#2a4385" stroke="#2a4385" stroke-miterlimit="10" stroke-width="2" d="M9683.34 743.574c5.9-.503 10.61-1.654 10.53-2.572s-4.92-1.255-10.81-.752c-5.9.503-10.61 1.654-10.53 2.572s4.92 1.254 10.81.752Z"/><path fill="#f7f3ea" stroke="#2a4385" stroke-miterlimit="10" stroke-width="2" d="m9837.24 849.195 29.13-2.479c5.1-.428 9.04-4.717 9.16-9.936l1.05-52.611c-.05-.977-.36-4.551-3.18-7.673-2.98-3.288-6.72-3.764-7.63-3.86a107.5 107.5 0 0 0-20.87-.119c-7.47.691-13.96 2.049-19.25 3.551-.84.19-4.72 1.215-7.25 5.122-2.27 3.527-1.96 7.125-1.84 8.102l9.97 51.682c.98 5.123 5.61 8.673 10.71 8.221Z"/><path fill="#2a4385" stroke="#2a4385" stroke-miterlimit="10" stroke-width="2" d="M9839.96 779.619c1.74 0 3.68-.096 5.75-.334 1.22-.119 2.39-.286 3.48-.453.46-2.287.79-4.908.79-7.791 0-5.814-1.29-10.651-2.67-14.225-.34-1.859-2.05-3.217-4.01-3.36-2.48-.167-5.08 1.644-5.22 4.146 1.38 1.835 3.89 5.671 4.24 11.08.34 5.004-1.33 8.959-2.36 10.961z"/><path fill="#2a4385" stroke="#2a4385" stroke-miterlimit="10" stroke-width="2" d="M9845.45 780.156c5.89-.503 10.61-1.654 10.53-2.572s-4.92-1.255-10.81-.752c-5.9.503-10.61 1.654-10.53 2.572s4.92 1.254 10.81.752Z"/><path fill="#f7f3ea" stroke="#2a4385" stroke-miterlimit="10" stroke-width="2" d="m9785.6 850.409 29.12-2.478c5.11-.429 9.05-4.718 9.16-9.936l1.05-52.611c-.04-.977-.35-4.551-3.17-7.673-2.98-3.288-6.72-3.765-7.63-3.86a107.3 107.3 0 0 0-20.87-.119c-7.47.691-13.96 2.049-19.25 3.55-.84.191-4.73 1.216-7.25 5.123-2.27 3.527-1.96 7.125-1.84 8.102l9.97 51.682c.98 5.123 5.6 8.673 10.71 8.22Z"/><path fill="#2a4385" stroke="#2a4385" stroke-miterlimit="10" stroke-width="2" d="M9788.32 780.81c1.74 0 3.67-.095 5.75-.333 1.21-.12 2.38-.286 3.48-.453.45-2.288.79-4.909.79-7.792 0-5.814-1.29-10.651-2.67-14.225-.34-1.858-2.06-3.217-4.01-3.36-2.48-.166-5.08 1.644-5.23 4.146 1.39 1.835 3.89 5.671 4.25 11.08.33 5.004-1.34 8.959-2.36 10.961z"/><path fill="#2a4385" stroke="#2a4385" stroke-miterlimit="10" stroke-width="2" d="M9793.79 781.371c5.89-.503 10.61-1.654 10.53-2.572s-4.92-1.255-10.82-.752c-5.89.503-10.6 1.654-10.52 2.572.07.918 4.91 1.254 10.81.752Z"/><path fill="#f7f3ea" stroke="#2a4385" stroke-miterlimit="10" stroke-width="2" d="m9732.76 850.409 29.13-2.478c5.1-.429 9.04-4.718 9.16-9.936l1.05-52.611c-.05-.977-.36-4.551-3.17-7.673-2.99-3.288-6.73-3.765-7.64-3.86a107.3 107.3 0 0 0-20.87-.119c-7.47.691-13.95 2.049-19.25 3.55-.83.191-4.72 1.216-7.25 5.123-2.27 3.527-1.96 7.125-1.84 8.102l9.97 51.682c.98 5.123 5.61 8.673 10.71 8.22Z"/><path fill="#2a4385" stroke="#2a4385" stroke-miterlimit="10" stroke-width="2" d="M9735.48 780.81c1.74 0 3.68-.095 5.75-.333a65 65 0 0 0 3.48-.453c.46-2.288.79-4.909.79-7.792 0-5.814-1.29-10.651-2.67-14.225-.33-1.858-2.05-3.217-4.01-3.36-2.48-.166-5.08 1.644-5.22 4.146 1.38 1.835 3.89 5.671 4.24 11.08.34 5.004-1.33 8.959-2.36 10.961z"/><path fill="#2a4385" stroke="#2a4385" stroke-miterlimit="10" stroke-width="2" d="M9740.95 781.355c5.9-.503 10.61-1.654 10.53-2.572s-4.92-1.254-10.81-.752c-5.89.503-10.61 1.654-10.53 2.572s4.92 1.255 10.81.752Z"/><path fill="#f7f3ea" stroke="#2a4385" stroke-miterlimit="10" stroke-width="2" d="m9660.73 860.011 29.12-2.478c5.11-.429 9.04-4.718 9.16-9.936l1.05-52.612c-.05-.977-.36-4.551-3.17-7.672-2.98-3.288-6.73-3.765-7.64-3.86a107.3 107.3 0 0 0-20.87-.119c-7.46.691-13.95 2.049-19.25 3.55-.83.191-4.72 1.215-7.25 5.123-2.26 3.526-1.95 7.124-1.84 8.101l9.98 51.682c.97 5.123 5.6 8.674 10.71 8.221Z"/><path fill="#2a4385" stroke="#2a4385" stroke-miterlimit="10" stroke-width="2" d="M9663.44 790.412c1.75 0 3.68-.096 5.75-.334 1.22-.119 2.39-.286 3.49-.453.45-2.287.78-4.908.78-7.791 0-5.814-1.28-10.651-2.67-14.225-.33-1.859-2.05-3.217-4.01-3.36-2.48-.167-5.08 1.644-5.22 4.146 1.38 1.835 3.89 5.671 4.25 11.08.33 5.004-.89 8.149-1.92 10.15z"/><path fill="#2a4385" stroke="#2a4385" stroke-miterlimit="10" stroke-width="2" d="M9668.92 790.945c5.89-.503 10.61-1.654 10.53-2.572s-4.92-1.255-10.82-.752c-5.89.503-10.6 1.654-10.53 2.572.08.918 4.92 1.255 10.82.752Z"/><path fill="#f7f3ea" stroke="#2a4385" stroke-miterlimit="10" stroke-width="2" d="m9689.85 857.511 29.13-2.478c5.1-.429 9.04-4.718 9.16-9.936l1.05-52.612c-.05-.977-.36-4.551-3.18-7.672-2.98-3.288-6.72-3.765-7.63-3.86a107.3 107.3 0 0 0-20.87-.119c-7.47.691-13.96 2.049-19.25 3.55-.84.191-4.73 1.215-7.25 5.123-2.27 3.526-1.96 7.124-1.84 8.101l9.97 51.682c.98 5.123 5.61 8.674 10.71 8.221Z"/><path fill="#2a4385" stroke="#2a4385" stroke-miterlimit="10" stroke-width="2" d="M9692.57 787.935c1.74 0 3.67-.095 5.75-.333 1.22-.12 2.38-.286 3.48-.453.45-2.288.79-4.909.79-7.792 0-5.814-1.29-10.651-2.67-14.225-.34-1.858-2.05-3.217-4.01-3.36-2.48-.166-5.08 1.644-5.22 4.146 1.38 1.835 3.88 5.671 4.24 11.08.34 5.004-.82 7.66-1.85 9.661z"/><path fill="#2a4385" stroke="#2a4385" stroke-miterlimit="10" stroke-width="2" d="M9698.04 788.457c5.89-.503 10.6-1.655 10.53-2.572-.08-.918-4.92-1.255-10.82-.752-5.89.502-10.61 1.654-10.53 2.572s4.92 1.254 10.82.752Z"/><path fill="#f7f3ea" stroke="#2a4385" stroke-miterlimit="10" stroke-width="2" d="m9845.09 810.453-29.13-2.359c-5.1-.405-9.06-4.67-9.2-9.888l-1.27-52.612c.05-.977.34-4.551 3.15-7.672 2.98-3.288 6.73-3.789 7.64-3.884 5.77-.62 12.83-.906 20.84-.215 7.47.644 13.96 2.002 19.28 3.455.83.191 4.74 1.192 7.27 5.1 2.29 3.526 1.98 7.124 1.86 8.077l-9.75 51.706c-.98 5.123-5.56 8.697-10.69 8.268z"/><path fill="#2a4385" stroke="#2a4385" stroke-miterlimit="10" stroke-width="2" d="M9842.08 740.876c-1.74 0-3.67-.095-5.74-.31a67 67 0 0 1-3.49-.452 38.7 38.7 0 0 1-.81-7.792c-.02-5.814 1.27-10.675 2.6-14.249.31-1.858 2.03-3.24 3.99-3.383 2.48-.191 5.1 1.62 5.24 4.122-1.38 1.834-3.86 5.695-4.19 11.08-.34 5.003 1.36 8.959 2.4 10.96z"/><path fill="#2a4385" stroke="#2a4385" stroke-miterlimit="10" stroke-width="2" d="M9847.44 740.639c.08-.919-4.64-2.051-10.54-2.53-5.89-.479-10.73-.123-10.81.795-.07.918 4.65 2.051 10.54 2.53 5.9.479 10.74.123 10.81-.795Z"/><path fill="#f7f3ea" stroke="#2a4385" stroke-miterlimit="10" stroke-width="2" d="m9633.77 845.219-29.12-2.359c-5.11-.405-9.07-4.67-9.21-9.889l-1.27-52.611c.05-.977.34-4.551 3.15-7.673 2.98-3.288 6.73-3.788 7.64-3.883 5.77-.62 12.83-.906 20.84-.215 7.47.643 13.96 2.002 19.28 3.455.83.191 4.74 1.191 7.27 5.099 2.29 3.527 1.98 7.125 1.86 8.078l-9.75 51.706c-.98 5.123-5.56 8.697-10.69 8.268z"/><path fill="#2a4385" stroke="#2a4385" stroke-miterlimit="10" stroke-width="2" d="M9630.77 775.642c-1.75 0-3.68-.096-5.75-.31a66 66 0 0 1-3.49-.453 38.7 38.7 0 0 1-.81-7.791c-.02-5.814 1.27-10.675 2.6-14.249.31-1.859 2.03-3.241 3.99-3.384 2.48-.19 5.1 1.62 5.24 4.122-1.38 1.835-3.86 5.695-4.19 11.08-.34 5.004 1.36 8.959 2.41 10.961z"/><path fill="#2a4385" stroke="#2a4385" stroke-miterlimit="10" stroke-width="2" d="M9636.1 775.408c.08-.918-4.64-2.051-10.54-2.53-5.89-.479-10.73-.123-10.81.795-.07.919 4.64 2.051 10.54 2.53s10.74.123 10.81-.795Z"/><path fill="#f7f3ea" stroke="#2a4385" stroke-miterlimit="10" stroke-width="2" d="m9800.17 783.215-29.17 1.859c-5.1.333-9.66-3.336-10.52-8.459l-8.82-51.873c-.1-.977-.34-4.551 2-8.053 2.46-3.694 6.11-4.718 6.99-4.957 5.63-1.429 12.57-2.74 20.61-3.193 7.49-.428 14.1-.023 19.56.668.86.071 4.86.5 7.92 4.003 2.76 3.145 2.98 6.767 3 7.744l-2.22 52.587c-.21 5.218-4.27 9.388-9.37 9.722z"/><path fill="#2a4385" stroke="#2a4385" stroke-miterlimit="10" stroke-width="2" d="M9787.17 712.877c-1.74.238-3.65.428-5.74.524-1.25.047-2.41.071-3.51.047a40 40 0 0 1-1.93-7.601c-.86-5.742-.29-10.746.52-14.463.05-1.882 1.55-3.479 3.46-3.908 2.43-.524 5.27.882 5.77 3.336-1.09 2.002-3 6.195-2.57 11.58.4 5.004 2.64 8.65 3.96 10.485z"/><path fill="#2a4385" stroke="#2a4385" stroke-miterlimit="10" stroke-width="2" d="M9781.84 714.23c5.9-.374 10.64-1.423 10.58-2.342s-4.89-1.361-10.79-.987c-5.91.374-10.64 1.422-10.59 2.342.06.919 4.9 1.361 10.8.987Z"/><path fill="#f7f3ea" stroke="#2a4385" stroke-miterlimit="10" stroke-width="2" d="m9745.45 801.351-32.56-2.788c-5.7-.476-10.11-5.266-10.23-11.103l-1.17-58.831c.05-1.096.38-5.099 3.56-8.578 3.33-3.669 7.53-4.217 8.54-4.313a121 121 0 0 1 23.32-.143c8.35.763 15.6 2.312 21.54 3.956.93.214 5.3 1.358 8.11 5.742 2.53 3.956 2.17 7.959 2.06 9.055l-11.17 57.782c-1.1 5.718-6.27 9.698-11.97 9.197z"/><path fill="#2a4385" stroke="#2a4385" stroke-miterlimit="10" stroke-width="2" d="M9742.4 719.957c-1.96 0-4.13-.119-6.44-.358a57 57 0 0 1-3.89-.524c-.5-2.549-.88-5.48-.86-8.721 0-6.505 1.46-11.914 2.98-15.917.36-2.073 2.29-3.598 4.49-3.764 2.77-.191 5.7 1.834 5.84 4.646-1.55 2.049-4.34 6.362-4.74 12.366-.39 5.6 1.48 10.008 2.64 12.248z"/><path fill="#2a4385" stroke="#2a4385" stroke-miterlimit="10" stroke-width="2" d="M9748.34 719.718c.08-1.022-5.19-2.307-11.78-2.869s-12-.188-12.09.834c-.08 1.023 5.19 2.308 11.78 2.87 6.58.562 12 .188 12.09-.835Zm-161.04 9.505h-10.99c-1.98 0-3.58 1.6-3.58 3.574v123.189c0 1.974 1.6 3.574 3.58 3.574h10.99c1.98 0 3.58-1.6 3.58-3.574V732.797c0-1.974-1.6-3.574-3.58-3.574Zm298.6 0h-10.99c-1.98 0-3.58 1.6-3.58 3.574v123.189c0 1.974 1.6 3.574 3.58 3.574h10.99c1.98 0 3.58-1.6 3.58-3.574V732.797c0-1.974-1.6-3.574-3.58-3.574Z"/><path fill="#f7f3ea" stroke="#2a4385" stroke-miterlimit="10" stroke-width="2" d="M9906.04 838.258h-348.08c-1.97 0-3.57 1.6-3.57 3.574v25.21c0 1.974 1.6 3.574 3.57 3.574h348.08c1.97 0 3.57-1.6 3.57-3.574v-25.21c0-1.974-1.6-3.574-3.57-3.574Zm0-43.344h-348.08c-1.97 0-3.57 1.6-3.57 3.574v25.21c0 1.974 1.6 3.574 3.57 3.574h348.08c1.97 0 3.57-1.6 3.57-3.574v-25.21c0-1.974-1.6-3.574-3.57-3.574Zm0-43.34h-348.08c-1.97 0-3.57 1.6-3.57 3.574v25.21c0 1.974 1.6 3.574 3.57 3.574h348.08c1.97 0 3.57-1.6 3.57-3.574v-25.21c0-1.974-1.6-3.574-3.57-3.574Zm-709.51 43.81c19.96 0 36.13-16.213 36.13-36.213 0-20.001-16.17-36.214-36.13-36.214s-36.14 16.213-36.14 36.214 16.18 36.213 36.14 36.213Z"/><path fill="#f7f3ea" stroke="#2a4385" stroke-miterlimit="10" stroke-width="2" d="M9265.52 806.72c19.96 0 36.13-16.213 36.13-36.213 0-20.001-16.17-36.214-36.13-36.214s-36.14 16.213-36.14 36.214 16.18 36.213 36.14 36.213Zm-82.62 36.801c19.96 0 36.14-16.213 36.14-36.214s-16.18-36.213-36.14-36.213-36.14 16.213-36.14 36.213c0 20.001 16.18 36.214 36.14 36.214Zm183.88-39.121c19.95 0 36.13-16.213 36.13-36.214s-16.18-36.213-36.13-36.213c-19.96 0-36.14 16.213-36.14 36.213 0 20.001 16.18 36.214 36.14 36.214Z"/><path fill="#f7f3ea" stroke="#2a4385" stroke-miterlimit="10" stroke-width="2" d="M9239.64 853.83c19.96 0 36.14-16.214 36.14-36.214s-16.18-36.214-36.14-36.214-36.14 16.214-36.14 36.214 16.18 36.214 36.14 36.214Z"/><path fill="#f7f3ea" stroke="#2a4385" stroke-miterlimit="10" stroke-width="2" d="M9194.86 899.999c22.69 0 41.09-18.436 41.09-41.177 0-22.742-18.4-41.177-41.09-41.177-22.7 0-41.09 18.435-41.09 41.177 0 22.741 18.39 41.177 41.09 41.177Zm142.61-17.622c24.31 0 44.02-19.751 44.02-44.114 0-24.364-19.71-44.115-44.02-44.115s-44.02 19.751-44.02 44.115c0 24.363 19.71 44.114 44.02 44.114Z"/><path fill="#f7f3ea" stroke="#2a4385" stroke-miterlimit="10" stroke-width="2" d="M9303.21 844.404c19.96 0 36.13-16.213 36.13-36.214s-16.17-36.213-36.13-36.213-36.14 16.213-36.14 36.213c0 20.001 16.18 36.214 36.14 36.214Z"/><path fill="#f7f3ea" stroke="#2a4385" stroke-miterlimit="10" stroke-width="2" d="M9264.2 888.107c19.96 0 36.14-16.213 36.14-36.214s-16.18-36.213-36.14-36.213-36.14 16.213-36.14 36.213c0 20.001 16.18 36.214 36.14 36.214Zm146.86 3.434c19.96 0 36.14-16.214 36.14-36.214s-16.18-36.214-36.14-36.214-36.14 16.214-36.14 36.214 16.18 36.214 36.14 36.214Z"/><path fill="#f7f3ea" stroke="#2a4385" stroke-miterlimit="10" stroke-width="2" d="M9463.43 891.541c19.96 0 36.14-16.214 36.14-36.214s-16.18-36.214-36.14-36.214c-19.95 0-36.13 16.214-36.13 36.214s16.18 36.214 36.13 36.214Zm-104.01-45.668c19.96 0 36.14-16.214 36.14-36.214s-16.18-36.214-36.14-36.214-36.14 16.214-36.14 36.214 16.18 36.214 36.14 36.214Z"/><path fill="#f7f3ea" stroke="#2a4385" stroke-miterlimit="10" stroke-width="2" d="M9405.96 822.873c19.96 0 36.14-16.214 36.14-36.214s-16.18-36.214-36.14-36.214-36.14 16.214-36.14 36.214 16.18 36.214 36.14 36.214Zm-102.11-38.739c19.96 0 36.14-16.213 36.14-36.213 0-20.001-16.18-36.214-36.14-36.214s-36.13 16.213-36.13 36.214 16.17 36.213 36.13 36.213Z"/><path fill="#f7f3ea" stroke="#2a4385" stroke-miterlimit="10" stroke-width="2" d="M9458.57 790.802c19.96 0 36.13-16.213 36.13-36.213 0-20.001-16.17-36.214-36.13-36.214s-36.14 16.213-36.14 36.214 16.18 36.213 36.14 36.213Z"/><path fill="#f7f3ea" stroke="#2a4385" stroke-miterlimit="10" stroke-width="2" d="M9466.13 846.693c19.96 0 36.14-16.213 36.14-36.214s-16.18-36.213-36.14-36.213-36.14 16.213-36.14 36.213c0 20.001 16.18 36.214 36.14 36.214Z"/><path fill="#2a4385" stroke="#2a4385" stroke-miterlimit="10" stroke-width="2" d="M9148.38 731.973h-13.52c-2.42 0-4.39 1.972-4.39 4.405v151.845c0 2.433 1.97 4.406 4.39 4.406h13.52c2.42 0 4.39-1.973 4.39-4.406V736.378c0-2.433-1.97-4.405-4.39-4.405Zm366.87 0h-13.51c-2.43 0-4.4 1.972-4.4 4.405v151.845a4.403 4.403 0 0 0 4.4 4.406h13.51c2.43 0 4.39-1.973 4.39-4.406V736.378a4.394 4.394 0 0 0-4.39-4.405Z"/><path fill="#f7f3ea" stroke="#2a4385" stroke-miterlimit="10" stroke-width="2" d="M9539.98 866.371h-427.65c-2.43 0-4.4 1.973-4.4 4.406v31.074a4.4 4.4 0 0 0 4.4 4.405h427.65c2.43 0 4.4-1.972 4.4-4.405v-31.074a4.403 4.403 0 0 0-4.4-4.406Zm0-53.426h-427.65c-2.43 0-4.4 1.973-4.4 4.406v31.074a4.4 4.4 0 0 0 4.4 4.405h427.65c2.43 0 4.4-1.972 4.4-4.405v-31.074a4.403 4.403 0 0 0-4.4-4.406Zm0-53.422h-427.65c-2.43 0-4.4 1.973-4.4 4.406v31.074a4.4 4.4 0 0 0 4.4 4.405h427.65c2.43 0 4.4-1.972 4.4-4.405v-31.074a4.403 4.403 0 0 0-4.4-4.406Z"/><ellipse cx="9294.72" cy="723.957" fill="#2a4385" rx="3.648" ry="3.652"/><ellipse cx="3.648" cy="3.652" fill="#2a4385" rx="3.648" ry="3.652" transform="matrix(-1 0 0 1 9210.8 729.434)"/><ellipse cx="3.648" cy="3.652" fill="#2a4385" rx="3.648" ry="3.652" transform="matrix(-1 0 0 1 9365.86 736.738)"/><ellipse cx="3.648" cy="3.652" fill="#2a4385" rx="3.648" ry="3.652" transform="matrix(-1 0 0 1 9488.09 745.871)"/><ellipse cx="2.736" cy="2.739" fill="#2a4385" rx="2.736" ry="2.739" transform="matrix(-1 0 0 1 9354.92 742.219)"/><ellipse cx="2.736" cy="2.739" fill="#2a4385" rx="2.736" ry="2.739" transform="matrix(-1 0 0 1 9477.14 749.523)"/><ellipse cx="9242.73" cy="752.263" fill="#2a4385" rx="2.736" ry="2.739"/><path fill="#f7f3ea" stroke="#2a4385" stroke-linecap="round" stroke-linejoin="round" stroke-width="2" d="M7353.57 559h-802.14a3.436 3.436 0 0 0-3.43 3.436v21.212a3.436 3.436 0 0 0 3.43 3.436h802.14c1.89 0 3.43-1.538 3.43-3.436v-21.212a3.436 3.436 0 0 0-3.43-3.436"/><path fill="#f7f3ea" stroke="#2a4385" stroke-linecap="round" stroke-linejoin="round" stroke-width="2" d="M6793.59 587.062h-228.12c-1.9 0-3.44 1.539-3.44 3.437v112.452a3.44 3.44 0 0 0 3.44 3.436h228.12a3.43 3.43 0 0 0 3.43-3.436V590.499a3.43 3.43 0 0 0-3.43-3.437"/><path fill="#f7f3ea" stroke="#2a4385" stroke-linecap="round" stroke-linejoin="round" stroke-width="2" d="M6793.59 706.387h-228.12c-1.9 0-3.44 1.538-3.44 3.436v112.452a3.44 3.44 0 0 0 3.44 3.436h228.12a3.43 3.43 0 0 0 3.43-3.436V709.823a3.43 3.43 0 0 0-3.43-3.436m0 119.324h-228.12c-1.9 0-3.44 1.538-3.44 3.436v112.452a3.44 3.44 0 0 0 3.44 3.437h228.12a3.43 3.43 0 0 0 3.43-3.437V829.147a3.43 3.43 0 0 0-3.43-3.436"/><path fill="#f7f3ea" stroke="#2a4385" stroke-linecap="round" stroke-linejoin="round" stroke-width="2" d="M7336.36 587.133h-536.58c-1.91 0-3.46 1.538-3.46 3.436v351.047c0 1.897 1.55 3.435 3.46 3.435h536.58c1.91 0 3.46-1.538 3.46-3.435V590.569c0-1.898-1.55-3.436-3.46-3.436"/><path fill="#f7f3ea" stroke="#2a4385" stroke-linecap="round" stroke-linejoin="round" stroke-width="2" d="M7059.35 587.062h-238.63a3.43 3.43 0 0 0-3.43 3.437v327.278a3.43 3.43 0 0 0 3.43 3.436h238.63a3.43 3.43 0 0 0 3.43-3.436V590.499a3.43 3.43 0 0 0-3.43-3.437"/><path fill="#2a4385" stroke="#2a4385" stroke-linecap="round" stroke-linejoin="round" stroke-width="2" d="M6860.98 796.899v-95.654a2.51 2.51 0 0 0-2.51-2.515h-13.77a2.51 2.51 0 0 0-2.51 2.515v95.654a2.51 2.51 0 0 0 2.51 2.514h13.77a2.51 2.51 0 0 0 2.51-2.514"/><path fill="#f7f3ea" stroke="#2a4385" stroke-linecap="round" stroke-linejoin="round" stroke-width="2" d="M7325.11 587.062h-238.63c-1.9 0-3.44 1.539-3.44 3.437v327.278a3.44 3.44 0 0 0 3.44 3.436h238.63c1.89 0 3.43-1.539 3.43-3.436V590.499a3.436 3.436 0 0 0-3.43-3.437"/><path fill="#2a4385" stroke="#2a4385" stroke-linecap="round" stroke-linejoin="round" stroke-width="2" d="M7127.46 796.274V700.62a2.51 2.51 0 0 0-2.5-2.515h-13.77a2.51 2.51 0 0 0-2.51 2.515v95.654a2.51 2.51 0 0 0 2.51 2.514h13.77c1.38 0 2.5-1.126 2.5-2.514m-418.38-191.95h-69.55a2.51 2.51 0 0 0-2.51 2.514v12.919a2.51 2.51 0 0 0 2.51 2.514h69.55c1.38 0 2.51-1.125 2.51-2.514v-12.919a2.516 2.516 0 0 0-2.51-2.514m0 120.352h-69.55a2.51 2.51 0 0 0-2.51 2.514v12.919a2.51 2.51 0 0 0 2.51 2.514h69.55c1.38 0 2.51-1.126 2.51-2.514V727.19a2.516 2.516 0 0 0-2.51-2.514m0 118.785h-69.55a2.51 2.51 0 0 0-2.51 2.514v12.919a2.51 2.51 0 0 0 2.51 2.514h69.55c1.38 0 2.51-1.125 2.51-2.514v-12.919a2.516 2.516 0 0 0-2.51-2.514"/><g stroke="#2a4385" clip-path="url(#c)"><path fill="#f7f3ea" stroke-linecap="round" stroke-linejoin="round" stroke-width="2" d="M11274.3 545.828c3.8 0 6.9-3.123 6.9-6.975s-3.1-6.974-6.9-6.974-6.8 3.123-6.8 6.974 3 6.975 6.8 6.975m24.7 4.455c4.2 0 7.6-3.422 7.6-7.644s-3.4-7.643-7.6-7.643c-4.1 0-7.5 3.422-7.5 7.643 0 4.222 3.4 7.644 7.5 7.644"/><path fill="#f7f3ea" stroke-linecap="round" stroke-linejoin="round" stroke-width="2" d="M11286.2 544.306c5.1 0 9.3-4.2 9.3-9.381 0-5.182-4.2-9.382-9.3-9.382s-9.3 4.2-9.3 9.382 4.2 9.381 9.3 9.381m26.2 3.787c5 0 9.1-4.136 9.1-9.238s-4.1-9.238-9.1-9.238-9.1 4.136-9.1 9.238 4.1 9.238 9.1 9.238"/><path fill="#f7f3ea" stroke-linecap="round" stroke-linejoin="round" stroke-width="2" d="M11259.5 542.641h71.9c0 17.014-13.6 30.83-30.4 30.83h-11c-16.8.01-30.5-13.805-30.5-30.83"/><path fill="#2a4385" stroke-width="2" d="m11329.4 551.309-5.1 10.755h-57.3l-4.3-10.755z"/><circle cx="11284.3" cy="531.973" r="1" fill="#2a4385" stroke-width="1.189"/><circle cx="11299.9" cy="538.751" r="1" fill="#2a4385" stroke-width=".392"/><circle cx="11289.5" cy="536.356" r="1" fill="#2a4385" stroke-width="1.986"/><circle cx="11272.4" cy="536.755" r="1" fill="#2a4385" stroke-width="1.189"/><circle cx="11309.8" cy="534.364" r="1" fill="#2a4385" stroke-width="1.189"/></g><path fill="#f7f3ea" stroke="#2a4385" stroke-linecap="round" stroke-linejoin="round" stroke-width="2" d="M11382 490.594h-6.5v15.085h6.5zm2.6 15.086h-11.7v16.679h11.7zm7.1 24.204h-25.9l7.4-7.525h11.1z"/><path fill="#f7f3ea" stroke="#2a4385" stroke-linecap="round" stroke-linejoin="round" stroke-width="2" d="M11365.8 529.883h25.9v42.16c0 1.067-.8 1.934-1.9 1.934h-22.1c-1.1 0-1.9-.867-1.9-1.934z"/><rect width="14.742" height="22.715" x="11371.4" y="541.023" fill="#f7f3ea" stroke="#2a4385" stroke-width="2" rx="1.392"/><g stroke="#2a4385" stroke-width="2" clip-path="url(#e)"><path fill="#f7f3ea" d="M10914 825h91v10h-91z"/><path fill="#f7f3ea" stroke-linecap="round" stroke-linejoin="round" d="M10963.5 699.268c0-3.011-2.5-5.452-5.5-5.452s-5.5 2.441-5.5 5.452v168.451c0 3.01 2.5 5.451 5.5 5.451s5.5-2.441 5.5-5.451zm-33.9.796c.3-2.999-2-5.643-5-5.905s-5.7 1.956-5.9 4.955l-14.8 167.81c-.3 2.999 1.9 5.643 5 5.906 3 .262 5.6-1.956 5.9-4.955zm61.8-5.91c3-.263 5.7 1.954 5.9 4.955l14.8 167.81c.3 3.001-1.9 5.643-5 5.906-3 .263-5.6-1.955-5.9-4.955l-14.8-167.811c-.3-3 2-5.643 5-5.905"/><path fill="#2a4385" stroke-linecap="round" stroke-linejoin="round" d="M11001.2 684.828h-86.5c-2.7 0-4.9 2.211-4.9 4.939v4.805c0 2.728 2.2 4.939 4.9 4.939h86.5c2.8 0 5-2.211 5-4.939v-4.805c0-2.728-2.2-4.939-5-4.939"/></g><path fill="#f7f3ea" stroke="#2a4385" stroke-linecap="round" stroke-linejoin="round" stroke-width="2" d="M14408.3 549.215h-68.7c-1.1 0-2.1-.545-2.7-1.439l-5.3-8.33c-1.3-2.076.2-4.817 2.6-4.817h79.4c2.5 0 4 2.741 2.7 4.817l-5.4 8.33c-.6.894-1.6 1.439-2.6 1.439"/><path fill="#2a4385" stroke="#2a4385" stroke-linecap="round" stroke-linejoin="round" stroke-width="2" d="M14408.3 561.926h-68.7c-1.1 0-2.1-.545-2.7-1.439l-5.3-8.33c-1.3-2.076.1-4.817 2.6-4.817h79.4c2.5 0 4 2.741 2.7 4.817l-5.4 8.33c-.6.894-1.6 1.439-2.6 1.439"/><path fill="#f7f3ea" stroke="#2a4385" stroke-linecap="round" stroke-linejoin="round" stroke-width="2" d="M14408.3 572.77h-68.7c-1.1 0-2.1-.545-2.7-1.439l-5.3-8.331c-1.3-2.075.1-4.816 2.6-4.816h79.4c2.5 0 4 2.741 2.7 4.816l-5.4 8.331c-.6.894-1.6 1.439-2.6 1.439"/><path fill="#2a4385" stroke="#2a4385" stroke-linecap="round" stroke-linejoin="round" stroke-width="2" d="M14408.3 584.223h-68.7c-1.1 0-2.1-.545-2.7-1.439l-5.3-8.331c-1.3-2.075.1-4.816 2.6-4.816h79.4c2.5 0 4 2.741 2.7 4.816l-5.4 8.331c-.6.894-1.6 1.439-2.6 1.439"/><path fill="#f7f3ea" stroke="#2a4385" stroke-linecap="round" stroke-linejoin="round" stroke-width="2" d="M14408.3 596.309h-68.7c-1.1 0-2.1-.545-2.7-1.439l-5.3-8.331c-1.3-2.075.1-4.816 2.6-4.816h79.4c2.5 0 4 2.741 2.7 4.816l-5.4 8.331c-.6.894-1.6 1.439-2.6 1.439m114.5-47.094h-68.7c-1 0-2-.545-2.6-1.439l-5.4-8.33c-1.3-2.076.2-4.817 2.7-4.817h79.4c2.4 0 3.9 2.741 2.6 4.817l-5.3 8.33c-.6.894-1.6 1.439-2.7 1.439"/><path fill="#2a4385" stroke="#2a4385" stroke-linecap="round" stroke-linejoin="round" stroke-width="2" d="M14522.8 561.926h-68.7c-1 0-2-.545-2.6-1.439l-5.4-8.33c-1.3-2.076.2-4.817 2.7-4.817h79.4c2.4 0 3.9 2.741 2.6 4.817l-5.4 8.33c-.5.894-1.5 1.439-2.6 1.439"/><path fill="#f7f3ea" stroke="#2a4385" stroke-linecap="round" stroke-linejoin="round" stroke-width="2" d="M14522.8 572.77h-68.7c-1 0-2-.545-2.6-1.439l-5.4-8.331c-1.3-2.075.2-4.816 2.7-4.816h79.4c2.4 0 3.9 2.741 2.6 4.816l-5.4 8.331c-.5.894-1.5 1.439-2.6 1.439"/><path fill="#2a4385" stroke="#2a4385" stroke-linecap="round" stroke-linejoin="round" stroke-width="2" d="M14522.8 584.223h-68.7c-1 0-2-.545-2.6-1.439l-5.4-8.331c-1.3-2.075.2-4.816 2.7-4.816h79.4c2.4 0 3.9 2.741 2.6 4.816l-5.4 8.331c-.5.894-1.5 1.439-2.6 1.439"/><path fill="#f7f3ea" stroke="#2a4385" stroke-linecap="round" stroke-linejoin="round" stroke-width="2" d="M14522.8 596.309h-68.7c-1 0-2-.545-2.6-1.439l-5.4-8.331c-1.3-2.075.2-4.816 2.7-4.816h79.4c2.4 0 3.9 2.741 2.6 4.816l-5.4 8.331c-.5.894-1.5 1.439-2.6 1.439"/><path fill="#f7f3ea" stroke="#2a4385" stroke-miterlimit="10" stroke-width="2" d="M14224.8 565h51.4c1.5 0 2.8 1.264 2.8 2.824v4.335c0 13.709-11.2 24.841-25.1 24.841h-6.8c-13.9 0-25.1-11.132-25.1-24.841v-4.335c0-1.56 1.3-2.824 2.8-2.824Z"/><path fill="#2a4385" stroke="#2a4385" stroke-linecap="round" stroke-linejoin="round" stroke-width="1.5" d="M14479.4 668.486v9.25c0 1.449 1.2 2.623 2.5 2.623h65.3c1.4 0 2.5-1.174 2.5-2.623v-9.25c0-1.448-1.1-2.623-2.5-2.623h-65.3c-1.3 0-2.5 1.175-2.5 2.623"/><path fill="#f7f3ea" stroke="#2a4385" stroke-miterlimit="10" stroke-width="2" d="M14609.4 621.508h-566.6v270.188h566.6zm48.4-24.25h-667.6c-1.2 0-2.2.963-2.2 2.151v19.945c0 1.188 1 2.151 2.2 2.151h667.6c1.2 0 2.2-.963 2.2-2.151v-19.945c0-1.188-1-2.151-2.2-2.151Z"/><path fill="#f7f3ea" stroke="#2a4385" stroke-miterlimit="10" stroke-width="2" d="M14047.6 621.508h-31.3c-1.2 0-2.1.963-2.1 2.151v265.887c0 1.187.9 2.15 2.1 2.15h31.3c1.2 0 2.1-.963 2.1-2.15V623.659c0-1.188-.9-2.151-2.1-2.151Z"/><path fill="#f7f3ea" stroke="#2a4385" stroke-miterlimit="10" stroke-width="2" d="M14597.9 621.508h-546c-1.2 0-2.2.963-2.2 2.151v7.169c0 1.188 1 2.151 2.2 2.151h546c1.2 0 2.1-.963 2.1-2.151v-7.169c0-1.188-.9-2.151-2.1-2.151Z"/><path fill="#f7f3ea" stroke="#2a4385" stroke-miterlimit="10" stroke-width="2" d="M14421.2 621.508h-31.2c-1.2 0-2.2.963-2.2 2.151v265.887c0 1.187 1 2.15 2.2 2.15h31.2c1.2 0 2.2-.963 2.2-2.15V623.659c0-1.188-1-2.151-2.2-2.151Z"/><path fill="#f7f3ea" stroke="#2a4385" stroke-miterlimit="10" stroke-width="2" d="M14385.7 739.758h-332.6c-1.2 0-2.2.963-2.2 2.151v10.768c0 1.188 1 2.151 2.2 2.151h332.6c1.2 0 2.1-.963 2.1-2.151v-10.768c0-1.188-.9-2.151-2.1-2.151Zm247.7-118.203h-31.4c-1.2 0-2.2.962-2.2 2.15v265.837c0 1.188 1 2.15 2.2 2.15h31.4c1.2 0 2.2-.962 2.2-2.15V623.705c0-1.188-1-2.15-2.2-2.15Z"/><path fill="#2a4385" stroke="#2a4385" stroke-linecap="round" stroke-linejoin="round" stroke-width="2" d="M14479.5 667.086v8.6c0 1.347 1.1 2.439 2.5 2.439h64.6c1.3 0 2.4-1.092 2.4-2.439v-8.6c0-1.347-1.1-2.439-2.4-2.439h-64.6c-1.4 0-2.5 1.092-2.5 2.439"/><path fill="#f7f3ea" stroke="#2a4385" stroke-linecap="round" stroke-linejoin="round" stroke-width="2" d="M14086.5 695.602h77.8v39.996c0 2.257-1.7 4.104-3.9 4.104h-70c-2.1 0-3.9-1.847-3.9-4.104z"/><path fill="#2a4385" stroke="#2a4385" stroke-linecap="round" stroke-linejoin="round" stroke-width="2" d="M14119.4 674.207h12.1c2 0 3.7 1.273 3.7 2.847v8.128h-19.6v-8.128c0-1.574 1.7-2.847 3.8-2.847"/><path fill="#f7f3ea" stroke="#2a4385" stroke-linecap="round" stroke-linejoin="round" stroke-width="2" d="M14168.6 691.316c0-.634-1-1.148-2.2-1.148 0 0-24.8-4.988-41-4.988-16.1 0-41 4.988-41 4.988-1.2 0-2.1.514-2.1 1.148v3.691c0 .634.9 1.147 2.1 1.147h82c1.2 0 2.2-.513 2.2-1.147zm94.1 8.321h-72.4c-2.9 0-5.3 2.369-5.3 5.291s2.4 5.292 5.3 5.292h72.4c2.9 0 5.3-2.369 5.3-5.292s-2.4-5.291-5.3-5.291"/><path fill="#f7f3ea" stroke="#2a4385" stroke-linecap="round" stroke-linejoin="round" stroke-width="2" d="M14196 700.059h61.1c1.2 0 2.1.95 2.1 2.137v29.93c0 4.381-3.5 7.944-7.9 7.944h-49.5c-4.4 0-8-3.563-8-7.944v-29.93c0-1.187 1-2.137 2.2-2.137m156-.422h-71.5c-2.9 0-5.2 2.369-5.2 5.291s2.3 5.292 5.2 5.292h71.5c2.8 0 5.2-2.369 5.2-5.292s-2.4-5.291-5.2-5.291"/><path fill="#f7f3ea" stroke="#2a4385" stroke-linecap="round" stroke-linejoin="round" stroke-width="2" d="M14286 700.059h60.4c1.2 0 2.1.95 2.1 2.137v29.93c0 4.381-3.5 7.944-7.8 7.944h-48.9c-4.4 0-7.9-3.563-7.9-7.944v-29.93c0-1.187 1-2.137 2.1-2.137m-3105.4 133.476h-20.3c-.9 0-1.7.798-1.7 1.781v32.063c0 .984.8 1.781 1.7 1.781h20.3c.9 0 1.7-.797 1.7-1.781v-32.063c0-.983-.8-1.781-1.7-1.781m387.7 0h-20.2c-1 0-1.8.798-1.8 1.781v32.063c0 .984.8 1.781 1.8 1.781h20.2c1 0 1.8-.797 1.8-1.781v-32.063c0-.983-.8-1.781-1.8-1.781"/><path fill="#f7f3ea" stroke="#2a4385" stroke-linecap="round" stroke-linejoin="round" stroke-width="1.5" d="M11529.8 838.868h-331.5c-12 0-21.8-.974-21.8-2.18V590.031c0-1.206 9.8-2.179 21.8-2.179h331.5c12 0 21.7.973 21.7 2.179v246.657c0 1.206-9.7 2.18-21.7 2.18"/><path fill="#f7f3ea" stroke="#2a4385" stroke-linecap="round" stroke-linejoin="round" stroke-width="2" d="M11171.6 596.437v227.306c0 1.206.9 2.18 2 2.18h4.4c1.2 0 2.1-.974 2.1-2.18v-113.13c0-1.206.9-2.179 2-2.179h147.9c1.1 0 2.1.973 2.1 2.179v113.13c0 1.206.9 2.18 2 2.18h224.1c1.1 0 2-.974 2-2.18V596.437c0-1.206-.9-2.179-2-2.179h-384.6c-1.1 0-2 .973-2 2.179m158.4 98.268h-147.9c-1.1 0-2-.973-2-2.179v-84.655c0-1.206.9-2.18 2-2.18h147.9c1.1 0 2.1.974 2.1 2.18v84.655c0 1.206-1 2.179-2.1 2.179m220.5 0h-204c-1.2 0-2.1-.973-2.1-2.179v-84.655c0-1.206.9-2.18 2.1-2.18h204c1.2 0 2.1.974 2.1 2.18v84.655c0 1.206-.9 2.179-2.1 2.179"/><path fill="#f7f3ea" stroke="#2a4385" stroke-linecap="round" stroke-linejoin="round" stroke-width="2" d="M11564.2 823.613h-396.6c-1.1 0-2.1.976-2.1 2.179v10.897c0 1.203 1 2.179 2.1 2.179h396.6c1.1 0 2-.976 2-2.179v-10.897c0-1.203-.9-2.179-2-2.179"/><path fill="#f7f3ea" stroke="#2a4385" stroke-linecap="round" stroke-linejoin="round" stroke-width="2" d="M11578.7 838.869h-37c-1.1 0-2-.974-2-2.179V722.237c0-.45.1-.871.3-1.235l4.9-7.511c.3-.363.4-.799.4-1.234l.3-118.724c0-3.123 2.3-5.666 5.3-5.666h27.8c1.1 0 2 .974 2 2.179v246.658c0 1.206-.9 2.179-2 2.179zm-391.6-.001h-31.1c-1.1 0-2.1-.974-2.1-2.18V590.031c0-1.206 1-2.179 2.1-2.179h31.1c1.1 0 2 .973 2 2.179v246.657c0 1.206-.9 2.18-2 2.18"/><path fill="#f7f3ea" stroke="#2a4385" stroke-linecap="round" stroke-linejoin="round" stroke-width="2" d="M11604.9 571H11008c-1.1 0-2 .976-2 2.179v18.901c0 1.204.9 2.179 2 2.179h596.9c1.1 0 2.1-.975 2.1-2.179v-18.901c0-1.203-1-2.179-2.1-2.179"/><path fill="#f7f3ea" stroke="#2a4385" stroke-linecap="round" stroke-linejoin="round" stroke-width="1.5" d="M11526.3 719.535h-180.2c-1.1 0-2 .976-2 2.179v88.447c0 1.204.9 2.18 2 2.18h180.2c1.2 0 2.1-.976 2.1-2.18v-88.447c0-1.203-.9-2.179-2.1-2.179"/><path fill="#2a4385" stroke="#2a4385" stroke-linecap="round" stroke-linejoin="round" stroke-width="2" d="M11407.1 736.245v7.685c0 1.204.9 2.179 2.1 2.179h54.2c1.1 0 2-.975 2-2.179v-7.685c0-1.204-.9-2.179-2-2.179h-54.2c-1.2 0-2.1.975-2.1 2.179"/><path fill="#f7f3ea" stroke="#2a4385" stroke-linecap="round" stroke-linejoin="round" stroke-width="2" d="M11449.9 652.753h-59.4c-.9 0-1.7-.47-2.2-1.241l-4.7-7.191c-1.1-1.791.2-4.157 2.3-4.157h68.7c2.1 0 3.4 2.366 2.3 4.157l-4.7 7.191c-.5.771-1.3 1.241-2.3 1.241"/><path fill="#2a4385" stroke="#2a4385" stroke-linecap="round" stroke-linejoin="round" stroke-width="2" d="M11449.9 663.722h-59.4c-.9 0-1.7-.47-2.2-1.242l-4.7-7.19c-1.1-1.791.2-4.157 2.3-4.157h68.7c2.1 0 3.4 2.366 2.2 4.157l-4.6 7.19c-.5.772-1.3 1.242-2.3 1.242"/><path fill="#f7f3ea" stroke="#2a4385" stroke-linecap="round" stroke-linejoin="round" stroke-width="2" d="M11449.9 673.082h-59.4c-.9 0-1.7-.471-2.2-1.242l-4.7-7.191c-1.1-1.791.2-4.157 2.3-4.157h68.7c2.1 0 3.4 2.366 2.2 4.157l-4.6 7.191c-.5.771-1.3 1.242-2.3 1.242"/><path fill="#2a4385" stroke="#2a4385" stroke-linecap="round" stroke-linejoin="round" stroke-width="2" d="M11449.9 682.964h-59.4c-.9 0-1.7-.47-2.2-1.242l-4.7-7.19c-1.1-1.791.2-4.157 2.3-4.157h68.7c2.1 0 3.4 2.366 2.2 4.157l-4.6 7.19c-.5.772-1.3 1.242-2.3 1.242"/><path fill="#f7f3ea" stroke="#2a4385" stroke-linecap="round" stroke-linejoin="round" stroke-width="2" d="M11449.9 693.398h-59.4c-.9 0-1.7-.471-2.2-1.242l-4.7-7.19c-1.1-1.791.2-4.157 2.3-4.157h68.7c2.1 0 3.4 2.366 2.2 4.157l-4.6 7.19c-.5.771-1.3 1.242-2.3 1.242"/><g stroke="#2a4385" stroke-width="2" clip-path="url(#f)"><path fill="#f7f3ea" d="M11041 825h91v10h-91z"/><path fill="#f7f3ea" stroke-linecap="round" stroke-linejoin="round" d="M11092.5 699.268c0-3.011-2.5-5.452-5.5-5.452s-5.5 2.441-5.5 5.452v168.451c0 3.01 2.5 5.451 5.5 5.451s5.5-2.441 5.5-5.451zm-33.9.8c.3-2.999-2-5.643-5-5.905s-5.7 1.956-5.9 4.955l-14.8 167.81c-.3 2.999 1.9 5.643 5 5.906 3 .262 5.6-1.956 5.9-4.956zm61.8-5.914c3-.263 5.7 1.954 5.9 4.955l14.8 167.81c.3 3.001-1.9 5.643-5 5.906-3 .263-5.6-1.955-5.9-4.955l-14.8-167.811c-.3-3 2-5.643 5-5.905"/><path fill="#2a4385" stroke-linecap="round" stroke-linejoin="round" d="M11130.2 684.828h-86.5c-2.7 0-4.9 2.211-4.9 4.939v4.805c0 2.728 2.2 4.939 4.9 4.939h86.5c2.8 0 5-2.211 5-4.939v-4.805c0-2.728-2.2-4.939-5-4.939"/></g><path fill="#f7f3ea" stroke="#2a4385" stroke-miterlimit="10" stroke-width="2" d="M20333.9 875.146c13.7 0 24.9-11.164 24.9-24.934s-11.2-24.935-24.9-24.935c-13.8 0-25 11.164-25 24.935s11.2 24.934 25 24.934Z"/><path fill="#2a4385" stroke="#2a4385" stroke-miterlimit="10" stroke-width="2" d="M20333.9 865.075c8.2 0 14.8-6.654 14.8-14.862s-6.6-14.861-14.8-14.861-14.9 6.653-14.9 14.861 6.7 14.862 14.9 14.862Z"/><path fill="#f7f3ea" stroke="#2a4385" stroke-miterlimit="10" stroke-width="2" d="M20331.6 855.845h4.7c3.9 0 7.2-2.715 8-6.477l5.2-25.851c.4-1.652-.9-3.193-2.6-3.193h-25.9c-1.7 0-3 1.541-2.6 3.193l5.2 25.851c.8 3.78 4.1 6.477 8 6.477Z"/><path fill="#f7f3ea" stroke="#2a4385" stroke-miterlimit="10" stroke-width="2" d="M20340.4 792.016h-13c-1.5 0-2.8 1.232-2.8 2.752v27.191c0 1.52 1.3 2.752 2.8 2.752h13c1.5 0 2.7-1.232 2.7-2.752v-27.191c0-1.52-1.2-2.752-2.7-2.752Zm379.6 83.13c13.8 0 24.9-11.164 24.9-24.934s-11.1-24.935-24.9-24.935-24.9 11.164-24.9 24.935 11.1 24.934 24.9 24.934Z"/><path fill="#2a4385" stroke="#2a4385" stroke-miterlimit="10" stroke-width="2" d="M20720 865.075c8.2 0 14.8-6.654 14.8-14.862s-6.6-14.861-14.8-14.861-14.8 6.653-14.8 14.861 6.6 14.862 14.8 14.862Z"/><path fill="#f7f3ea" stroke="#2a4385" stroke-miterlimit="10" stroke-width="2" d="M20717.7 855.845h4.8c3.8 0 7.1-2.715 7.9-6.477l5.3-25.851c.3-1.652-.9-3.193-2.6-3.193h-26c-1.7 0-2.9 1.541-2.6 3.193l5.3 25.851c.8 3.78 4.1 6.477 7.9 6.477Z"/><path fill="#f7f3ea" stroke="#2a4385" stroke-miterlimit="10" stroke-width="2" d="M20726.5 792.016h-13c-1.5 0-2.8 1.232-2.8 2.752v27.191c0 1.52 1.3 2.752 2.8 2.752h13c1.5 0 2.8-1.232 2.8-2.752v-27.191c0-1.52-1.3-2.752-2.8-2.752Z"/><path fill="#f7f3ea" stroke="#2a4385" stroke-miterlimit="10" stroke-width="2" d="M20734.2 784.984h-427.3c-1.6 0-2.9 1.331-2.9 2.973v10.072c0 1.642 1.3 2.973 2.9 2.973h427.3c1.7 0 3-1.331 3-2.973v-10.072c0-1.642-1.3-2.973-3-2.973Zm-60.6-159.621h-230.7c-1.5 0-2.7 1.232-2.7 2.752v10.514c0 1.519 1.2 2.752 2.7 2.752h230.7c1.5 0 2.8-1.233 2.8-2.752v-10.514c0-1.52-1.3-2.752-2.8-2.752Z"/><path fill="#f7f3ea" stroke="#2a4385" stroke-miterlimit="10" stroke-width="2" d="M20466.6 804.601V508.858c0-1.52-1.2-2.753-2.7-2.753h-15.4c-1.5 0-2.7 1.233-2.7 2.753v295.743c0 1.52 1.2 2.752 2.7 2.752h15.4c1.5 0 2.7-1.232 2.7-2.752Z"/><path fill="#2a4385" stroke="#2a4385" stroke-miterlimit="10" stroke-width="2" d="M20823.9 492.27h-122.8c-1.5 0-2.7 1.232-2.7 2.752v.587c0 1.52 1.2 2.752 2.7 2.752h122.8c1.6 0 2.8-1.232 2.8-2.752v-.587c0-1.52-1.2-2.752-2.8-2.752Z"/><path fill="#f7f3ea" stroke="#2a4385" stroke-miterlimit="10" stroke-width="2" d="M20702.2 512.582h120.7v183.567c0 20.457-16.6 37.062-37 37.062h-46.7c-20.4 0-37-16.605-37-37.062zm-146.9 117h-29.7c-1.6 0-2.8 1.232-2.8 2.752v1.743c0 1.52 1.2 2.752 2.8 2.752h29.7c1.5 0 2.7-1.232 2.7-2.752v-1.743c0-1.52-1.2-2.752-2.7-2.752Zm-154.5 79.265c-.5-1.334-1.7-2.264-3.1-2.291l-1.1-.012c.8-.591 1.4-1.515 1.4-2.592l3.9-247.852c0-1.811-1.5-3.312-3.3-3.328l-1.9-.034c-1.8-.034-3.3 1.424-3.4 3.23l-3.8 247.849c0 1.072.5 2.034 1.3 2.631l-1.1-.012c-1.4-.027-2.7.85-3.1 2.176l-6 16.729 25.6.41z"/><path fill="#f7f3ea" stroke="#2a4385" stroke-miterlimit="10" stroke-width="2" d="M20421.5 785.188h-96.3c-1.5 0-2.7-1.192-2.8-2.697l-2.7-102.214h107.3l-2.8 102.214c0 1.487-1.3 2.679-2.7 2.679z"/><path stroke="#2a4385" stroke-linecap="round" stroke-linejoin="round" stroke-width="2" d="M20319.8 708h-12.9c-2.8 7.926-1.5 23.21 0 25.797 5.3 9.228 25.3 9.449 65 9.54h2.4c39.7-.091 59.6-.312 65-9.54 1.5-2.587 2.7-17.871 0-25.797h-12.9"/><path fill="#2a4385" stroke="#2a4385" stroke-miterlimit="10" stroke-width="2" d="M20580.1 697.832h-10.9c-1.6 0-2.9 1.292-2.9 2.886v5.462c0 1.594 1.3 2.886 2.9 2.886h10.9c1.6 0 2.9-1.292 2.9-2.886v-5.462c0-1.594-1.3-2.886-2.9-2.886Z"/><path fill="#f7f3ea" stroke="#2a4385" stroke-miterlimit="10" stroke-width="2" d="M20609.9 709.043h-45.3c-4.1 0-7.4 3.319-7.4 7.4v60.479c0 4.081 3.3 7.4 7.4 7.4h45.3c4.1 0 7.5-3.319 7.5-7.4v-60.479c0-4.081-3.4-7.4-7.5-7.4Zm-5.2 30.033c-2.4-1.608-5.2-3.937-7.6-7.256-2.9-4.04-4.3-8.1-5-11.131-.4-1.917 1.1-3.71 3.1-3.71h9.6c1.6 0 2.9 1.216 3.1 2.803l1.6 16.408c.2 2.577-2.6 4.329-4.8 2.886Z"/><path fill="#2a4385" stroke="#2a4385" stroke-miterlimit="10" stroke-width="2" d="M20650.2 697.832h-10.8c-1.6 0-2.9 1.292-2.9 2.886v5.462c0 1.594 1.3 2.886 2.9 2.886h10.8c1.6 0 2.9-1.292 2.9-2.886v-5.462c0-1.594-1.3-2.886-2.9-2.886Z"/><path fill="#f7f3ea" stroke="#2a4385" stroke-miterlimit="10" stroke-width="2" d="M20548.3 777.024c-.6-1.523-2-2.55-3.6-2.55h-1.2c.9-.679 1.5-1.762 1.5-2.972V489.188c0-2.073-1.6-3.743-3.7-3.743h-2.3c-2 0-3.7 1.67-3.7 3.743V771.52c0 1.229.6 2.293 1.5 2.972h-1.2c-1.6 0-3 1.028-3.5 2.55l-6.5 19.155h29.1l-6.4-19.155z"/><path fill="#f7f3ea" stroke="#2a4385" stroke-miterlimit="10" stroke-width="2" d="M20497.8 796h83.5c3.7 0 6.7 3.027 6.7 6.752v.055c0 2.055-1.6 3.724-3.7 3.724h-89.5c-2.1 0-3.7-1.669-3.7-3.724v-.055c0-3.725 3-6.752 6.7-6.752Z"/><path fill="#2a4385" stroke="#2a4385" stroke-miterlimit="10" stroke-width="2" d="M20543.6 480.914h-6.8c-1.5 0-2.7 1.232-2.7 2.752v15.027c0 1.52 1.2 2.752 2.7 2.752h6.8c1.5 0 2.8-1.232 2.8-2.752v-15.027c0-1.52-1.3-2.752-2.8-2.752Zm-1 136.305h-4.8c-2.1 0-3.7 1.676-3.7 3.743v27.631c0 2.067 1.6 3.743 3.7 3.743h4.8c2.1 0 3.8-1.676 3.8-3.743v-27.631c0-2.067-1.7-3.743-3.8-3.743Z"/><path fill="#f7f3ea" stroke="#2a4385" stroke-miterlimit="10" stroke-width="2" d="M20589.9 845.54h-100.6l6-39.337h88.5zm246.7-347.079h-586.4c-2 0-3.6 1.327-3.6 2.965v10.147c0 1.637 1.6 2.965 3.6 2.965h586.4c2 0 3.6-1.328 3.6-2.965v-10.147c0-1.638-1.6-2.965-3.6-2.965Z"/><path fill="#f7f3ea" stroke="#2a4385" stroke-miterlimit="10" stroke-width="2" d="M20475.4 535.72v12.825c0 3.028 1.4 5.505 3.1 5.505h.5c1.8 0 3.2-2.459 3.2-5.505V530.84c0-1.633.7-2.954 1.7-2.954h.5c.9 0 1.7 1.321 1.7 2.954v25.32c0 3.027 1.4 5.504 3.1 5.504h1c1.7 0 3.1-2.459 3.1-5.504v-26.164c0-1.633.8-2.954 1.7-2.954 1 0 1.7 1.321 1.7 2.954v32.273c0 3.028 1.5 5.505 3.2 5.505h1c1.7 0 3.1-2.459 3.1-5.505V530.84c0-1.633.8-2.954 1.7-2.954h.5c.9 0 1.7 1.321 1.7 2.954v21.925c0 3.028 1.4 5.505 3.2 5.505 1.7 0 3.1-2.459 3.1-5.505v-51.299c0-1.633-.8-2.954-1.7-2.954h-35.4c-1 0-1.7 1.321-1.7 2.954zm187.4 56.175h-72.2c-1.5 0-2.8 1.27-2.8 2.837v27.617c0 1.567 1.3 2.837 2.8 2.837h72.2c1.6 0 2.9-1.27 2.9-2.837v-27.617c0-1.567-1.3-2.837-2.9-2.837Z"/><path fill="#f7f3ea" stroke="#2a4385" stroke-miterlimit="10" stroke-width="2" d="M20664.4 585.121h-75.3c-1.6 0-2.8 1.27-2.8 2.837v1.343c0 1.567 1.2 2.838 2.8 2.838h75.3c1.5 0 2.8-1.271 2.8-2.838v-1.343c0-1.567-1.3-2.837-2.8-2.837Z"/><path fill="#f7f3ea" stroke="#2a4385" stroke-linecap="round" stroke-linejoin="round" stroke-width="2" d="M11545.7 532h-23.4c-.7 0-1.3.464-1.3 1.037v7.926c0 .573.6 1.037 1.3 1.037h23.4c.7 0 1.3-.464 1.3-1.037v-7.926c0-.573-.6-1.037-1.3-1.037"/><path fill="#f7f3ea" stroke="#2a4385" stroke-linecap="round" stroke-linejoin="round" stroke-width="2" d="M11549.8 541.117h-32.1c-.9 0-1.7.778-1.7 1.737v26.494c0 .96.8 1.738 1.7 1.738h32.1c1 0 1.8-.778 1.8-1.738v-26.494c0-.959-.8-1.737-1.8-1.737"/><path fill="#2a4385" stroke="#2a4385" stroke-linecap="round" stroke-linejoin="round" stroke-width="2" d="M11546.8 550.652h-26v11.638h26z"/><path fill="#f7f3ea" stroke="#2a4385" stroke-linecap="round" stroke-linejoin="round" stroke-width="2" d="M11497.6 508.598h-37.6c-1.1 0-2 .741-2 1.655v12.655c0 .914.9 1.656 2 1.656h37.6c1.1 0 2.1-.742 2.1-1.656v-12.655c0-.914-1-1.655-2.1-1.655"/><path fill="#f7f3ea" stroke="#2a4385" stroke-linecap="round" stroke-linejoin="round" stroke-width="2" d="M11504.2 523.152h-51.4c-1.6 0-2.8 1.242-2.8 2.774v42.3c0 1.532 1.2 2.773 2.8 2.773h51.4c1.6 0 2.8-1.241 2.8-2.773v-42.3c0-1.532-1.2-2.774-2.8-2.774"/><path fill="#2a4385" stroke="#2a4385" stroke-linecap="round" stroke-linejoin="round" stroke-width="2" d="M11499.3 538.379h-41.6v18.581h41.6z"/><path fill="#f7f3ea" stroke="#2a4385" stroke-miterlimit="10" stroke-width="2" d="M2937.57 678.629c-2.47.709-5.93 1.759-10.04 3.177-9.36 3.226-14.05 4.839-17.94 7.288-5.8 3.654-9.14 8.269-15.82 17.52a149 149 0 0 0-8.31 12.865h19.16c2.7-4.12 5.41-8.24 8.11-12.36a58.6 58.6 0 0 1 7.87-6.365c7.61-5.14 15.04-7.53 20.42-8.725l-3.45-13.39zM2650 732.977l70.62 69.986c.47.465 16.87 18.081 46.4 9.211 24.93-7.484 79.2-24.929 104.45-33.077 10.32-3.33 18.52-11.431 21.46-21.827.1-.361.19-.711.28-1.053 2.43-10.178 3.19-22.833 3.23-23.231H2650z"/><path fill="#f7f3ea" stroke="#2a4385" stroke-miterlimit="10" stroke-width="2" d="M2701.09 877.002c21.59 0 39.09-17.421 39.09-38.911s-17.5-38.911-39.09-38.911c-21.58 0-39.08 17.421-39.08 38.911s17.5 38.911 39.08 38.911Z"/><path fill="#2a4385" stroke="#2a4385" stroke-miterlimit="10" stroke-width="2" d="M2701.09 859.045c11.63 0 21.05-9.381 21.05-20.954s-9.42-20.954-21.05-20.954c-11.62 0-21.05 9.381-21.05 20.954s9.43 20.954 21.05 20.954Z"/><path fill="#f7f3ea" stroke="#2a4385" stroke-miterlimit="10" stroke-width="2" d="M2905.96 732.977h-272.53c-.79 0-1.43-.636-1.43-1.423v-9.268c0-.787.64-1.423 1.43-1.423h272.53c.79 0 1.43.636 1.43 1.423v9.268c0 .787-.64 1.423-1.43 1.423Zm31.13-56.628c3.84-1.507 38.57-14.943 44.84-5.431.79 1.197 1.25 2.961.77 5.638-.19.849-.56 2.109-1.36 3.446-2.59 4.288-7.44 5.703-10.45 6.547-13.06 3.626-26.01 6.357-29.38 7.057z"/><path fill="#f7f3ea" stroke="#2a4385" stroke-miterlimit="10" stroke-width="2" d="M2978.13 685.625c-10.25 2.076-16.82 4.145-22.13 6.175-6.89 2.628-10.56 4.743-13.81 7.323a41.2 41.2 0 0 0-6.38 6.299 4207 4207 0 0 0-24.15 33.305 5194 5194 0 0 0-18.83 26.428 39.6 39.6 0 0 1-19.85 14.693c-75.43 25.024-105.63 34.207-116.41 36.806-.87.208-21.1 5.72-21.1 5.72s.12-.038.22-.057a211 211 0 0 0-16.66 4.563c-1.51.483-2.81.91-4.31 1.46-8.73 3.169-15.68 5.777-16.31 10.236-.05.417-.23 1.66.45 2.779 1.95 3.206 9.53 2.988 19.22-.417l168.05-50.655a21.6 21.6 0 0 0 11.16-7.892l47.38-64.666c2.7-4.088 6.83-8.983 12.96-12.901 4.85-3.101 9.3-4.543 11.79-5.331a56 56 0 0 1 11.19-2.305c-.83-3.851-1.41-7.533-2.25-11.384z"/><path fill="#f7f3ea" stroke="#2a4385" stroke-miterlimit="10" stroke-width="2" d="m2816.98 811.122 28.25 31.351c1.5 1.015 18.13 23.553 25.67 18.535 4.09-2.722 3.52-6.887 2.91-34.557-.33-14.969-.33-23.44-1.48-32.024 4.58-1.385 9.16-2.761 13.75-4.146l3.48 62c-.18 2.846.81 12.436-9.42 19.902-10.22 7.465-25.53 1.735-42.64-15.861-12.19-13.451-24.38-26.911-36.58-40.362l16.07-4.848z"/><path fill="#f7f3ea" d="M2716.91 687.463c-5.59-4.364-32.11 3.064-32.11 3.064 12.89-17.037 32.36-25.347 32.36-25.347 31.14-29.548 58.63-24.464 58.63-24.464s16.59-5.103 45.03 33.533l-9.04 4.003s4.01-2.827 9.04-4.003 11.67-.655 15.79 6.915c8.03 14.77 47.92 39.234 47.92 39.234h-240.11s33.59-22.169 40.38-29.871"/><path stroke="#2a4385" stroke-miterlimit="10" stroke-width="2" d="M2716.91 687.463c-5.59-4.364-32.11 3.064-32.11 3.064m0 0c12.89-17.037 32.36-25.347 32.36-25.347 31.14-29.548 58.63-24.464 58.63-24.464s16.59-5.103 45.03 33.533m-136.02 16.278c-6.79 7.702-40.38 29.871-40.38 29.871h240.11s-39.89-24.464-47.92-39.234c-4.12-7.57-10.76-8.091-15.79-6.915m0 0-9.04 4.003s4.01-2.827 9.04-4.003Z"/><path fill="#f7f3ea" stroke="#2a4385" stroke-miterlimit="10" stroke-width="2" d="M2978.08 682.072c3.92-1.276 39.4-12.614 45.08-2.745.72 1.243 1.08 3.031.43 5.674-.24.836-.69 2.072-1.56 3.358-2.84 4.127-7.77 5.25-10.82 5.913-13.26 2.839-26.35 4.792-29.76 5.29z"/><path fill="#f7f3ea" d="M3622.41 844.714c16.23 20.862.02 22.809-.9 23.666 0 0-45.23 18.628-54.17-7.557-8.15-23.837 29.47-39.675 38.02-44.015 8.54-4.341 13.32 17.5 13.32 17.5"/><path stroke="#2a4385" stroke-miterlimit="10" stroke-width="2" d="M3622.41 844.714c16.23 20.862.02 22.809-.9 23.666 0 0-45.23 18.628-54.17-7.557-8.15-23.837 29.47-39.675 38.02-44.015 8.54-4.341 13.32 17.5 13.32 17.5"/><path fill="#2a4385" stroke="#2a4385" stroke-miterlimit="10" stroke-width="2" d="m3710.66 779.897 15.56 36.604a5.17 5.17 0 0 1-1.7 6.187c-6.9 5.045-23.63 14.097-37.45-3.764a.67.67 0 0 0-.8-.217l-63.66 26.329s-19.46 6.984-22.17 3.201c-2.72-3.783 18.3-13.798 18.3-13.798l62.47-25.844c.33-.135.5-.497.39-.835-1-3.198-4.24-18.788 23.26-30.244 2.25-.94 4.84.132 5.8 2.381Zm-7.99 7.615s-19 6.741-11.22 23.906c6.14 13.551 23.8 6.803 23.8 6.803l-11.96-31.156z"/><path fill="#f7f3ea" stroke="#2a4385" stroke-miterlimit="10" stroke-width="2" d="M3791.88 831.453h-96.26c-.89 0-1.62.727-1.62 1.624v40.239c0 .897.73 1.624 1.62 1.624h96.26c.89 0 1.62-.727 1.62-1.624v-40.239c0-.897-.73-1.624-1.62-1.624Zm99.5 0h-96.26c-.89 0-1.62.727-1.62 1.624v40.239c0 .897.73 1.624 1.62 1.624h96.26c.89 0 1.62-.727 1.62-1.624v-40.239c0-.897-.73-1.624-1.62-1.624Zm-45.98-44.137h-96.25c-.9 0-1.63.727-1.63 1.624v40.24c0 .897.73 1.624 1.63 1.624h96.25c.9 0 1.62-.727 1.62-1.624v-40.24c0-.897-.72-1.624-1.62-1.624Z"/><path fill="#f7f3ea" stroke="#2a4385" stroke-miterlimit="10" stroke-width="2" d="m3861.88 846.679-15.39 16.628c-.04.044-.04.111 0 .15s.11.034.15-.01l15.39-16.628c.04-.044.04-.111 0-.149-.04-.039-.11-.034-.15.009Zm-15.03-1.898-15.4 16.628c-.04.044-.04.111.01.149.04.039.1.034.15-.009l15.39-16.628c.04-.044.04-.111 0-.15-.05-.038-.11-.034-.15.01Z"/><path fill="#f7f3ea" stroke="#2a4385" stroke-linecap="round" stroke-linejoin="round" stroke-width="2" d="M17644.8 548.68h-392.6c-1.4 0-2.5 1.129-2.5 2.522v21.539c0 1.393 1.1 2.522 2.5 2.522h392.6c1.4 0 2.5-1.129 2.5-2.522v-21.539c0-1.393-1.1-2.522-2.5-2.522"/><path fill="#f7f3ea" stroke="#2a4385" stroke-linecap="round" stroke-linejoin="round" stroke-width="2" d="M17643.1 574.141h-129c-.5 0-.9.369-.9.824v93.421c0 .455.4.824.9.824h129c.4 0 .8-.369.8-.824v-93.421c0-.455-.4-.824-.8-.824"/><path fill="#f7f3ea" stroke="#2a4385" stroke-linecap="round" stroke-linejoin="round" stroke-width="2" d="M17643.1 668.566h-129c-.5 0-.9.369-.9.824v93.422c0 .455.4.824.9.824h129c.4 0 .8-.369.8-.824V669.39c0-.455-.4-.824-.8-.824"/><path fill="#f7f3ea" stroke="#2a4385" stroke-linecap="round" stroke-linejoin="round" stroke-width="2" d="M17643.1 763h-129c-.5 0-.9.369-.9.824v93.421c0 .456.4.824.9.824h129c.4 0 .8-.368.8-.824v-93.421c0-.455-.4-.824-.8-.824m-260.8-188.863h-127.7c-.8 0-1.5.655-1.5 1.463v302.729c0 .808.7 1.462 1.5 1.462h127.7c.8 0 1.5-.654 1.5-1.462V575.6c0-.808-.7-1.463-1.5-1.463"/><path fill="#2a4385" stroke="#2a4385" stroke-linecap="round" stroke-linejoin="round" stroke-width="1.5" d="M17359.1 635.344h-8.8c-1.4 0-2.6 1.129-2.6 2.522v38.657c0 1.393 1.2 2.522 2.6 2.522h8.8c1.4 0 2.6-1.129 2.6-2.522v-38.657c0-1.393-1.2-2.522-2.6-2.522"/><path fill="#f7f3ea" stroke="#2a4385" stroke-linecap="round" stroke-linejoin="round" stroke-width="2" d="M17384 879.793h127.7c.8 0 1.5-.655 1.5-1.463V575.601c0-.808-.7-1.463-1.5-1.463H17384c-.8 0-1.5.655-1.5 1.463V878.33c0 .808.7 1.463 1.5 1.463"/><path fill="#2a4385" stroke="#2a4385" stroke-linecap="round" stroke-linejoin="round" stroke-width="1.5" d="M17407.2 679.043h8.8c1.4 0 2.6-1.129 2.6-2.522v-38.657c0-1.393-1.2-2.522-2.6-2.522h-8.8c-1.4 0-2.6 1.129-2.6 2.522v38.657c0 1.393 1.2 2.522 2.6 2.522"/><path fill="#f7f3ea" stroke="#2a4385" stroke-linecap="round" stroke-linejoin="round" stroke-width="2" d="M17644.8 856.168h-392.6c-1.4 0-2.5 1.129-2.5 2.522v21.54c0 1.393 1.1 2.522 2.5 2.522h392.6c1.4 0 2.5-1.129 2.5-2.522v-21.54c0-1.393-1.1-2.522-2.5-2.522"/><path stroke="#f7f3ea" stroke-miterlimit="10" stroke-width="1.5" d="M17973 565.293h22.1m-22.1 309.711h22"/><path fill="#f7f3ea" d="M18271.7 572.469h-561.2v308.599h561.2z"/><path fill="#f7f3ea" stroke="#2a4385" stroke-miterlimit="10" stroke-width="2" d="M17693 572.469h600.6c2.4 0 4.3 1.907 4.3 4.27v6.377c0 2.932-2.4 5.324-5.4 5.324H17693c-2.9 0-5.3-2.392-5.3-5.324v-5.324c0-2.932 2.4-5.323 5.3-5.323Zm.2 129.504h598.8c2.3 0 4.2 1.907 4.2 4.27v10.59c0 2.363-1.9 4.271-4.2 4.271h-598.8c-2.9 0-5.3-2.392-5.3-5.324v-8.484c0-2.932 2.4-5.323 5.3-5.323Z"/><path fill="#f7f3ea" stroke="#2a4385" stroke-miterlimit="10" stroke-width="2" d="M18284.9 885.565v-311.76c0-2.358-1.9-4.27-4.2-4.27h-29.8a4.27 4.27 0 0 0-4.3 4.27v311.76a4.27 4.27 0 0 0 4.3 4.27h29.8c2.3 0 4.2-1.912 4.2-4.27Zm-597 .031V573.837c0-2.363 1.9-4.271 4.3-4.271h29.8c2.3 0 4.2 1.908 4.2 4.271v310.706c0 .341 0 2.249-1.5 3.758-1 .968-2.3 1.565-3.8 1.565h-28.7c-2.4 0-4.3-1.907-4.3-4.27Zm304.1-7.516V553.823c0-2.987-2.4-5.409-5.4-5.409h-5.2c-3 0-5.4 2.422-5.4 5.409V878.08c0 2.988 2.4 5.409 5.4 5.409h5.2c3 0 5.4-2.421 5.4-5.409Z"/><path fill="#f7f3ea" stroke="#2a4385" stroke-linecap="round" stroke-linejoin="round" stroke-width="2" d="M18086.9 653.6h-67.6c-1.1 0-2-.541-2.6-1.452l-5.3-8.398c-1.3-2.107.2-4.84 2.6-4.84h78.2c2.4 0 3.9 2.762 2.5 4.84l-5.2 8.398c-.6.911-1.6 1.452-2.6 1.452"/><path fill="#f7f3ea" stroke="#2a4385" stroke-linecap="round" stroke-linejoin="round" stroke-width="2" d="M18086.9 666.412h-67.6c-1.1 0-2-.54-2.6-1.451l-5.3-8.399c-1.3-2.106.2-4.839 2.6-4.839h78.2c2.4 0 3.9 2.761 2.5 4.839l-5.2 8.399c-.6.911-1.6 1.451-2.6 1.451"/><path fill="#f7f3ea" stroke="#2a4385" stroke-linecap="round" stroke-linejoin="round" stroke-width="2" d="M18086.9 677.315h-67.6c-1.1 0-2-.541-2.6-1.452l-5.3-8.398c-1.3-2.107.2-4.84 2.6-4.84h78.2c2.4 0 3.9 2.761 2.5 4.84l-5.2 8.398c-.6.911-1.6 1.452-2.6 1.452"/><path fill="#f7f3ea" stroke="#2a4385" stroke-linecap="round" stroke-linejoin="round" stroke-width="2" d="M18086.9 688.842h-67.6c-1.1 0-2-.541-2.6-1.452l-5.3-8.398c-1.3-2.107.2-4.84 2.6-4.84h78.2c2.4 0 3.9 2.762 2.5 4.84l-5.2 8.398c-.6.911-1.6 1.452-2.6 1.452"/><path fill="#f7f3ea" stroke="#2a4385" stroke-linecap="round" stroke-linejoin="round" stroke-width="2" d="M18086.9 701.03h-67.6c-1.1 0-2-.541-2.6-1.452l-5.3-8.398c-1.3-2.107.2-4.84 2.6-4.84h78.2c2.4 0 3.9 2.761 2.5 4.84l-5.2 8.398c-.6.911-1.6 1.452-2.6 1.452m115.1-47.43h-67.6c-1 0-2-.541-2.6-1.452l-5.3-8.398c-1.3-2.107.2-4.84 2.6-4.84h78.2c2.4 0 3.9 2.762 2.6 4.84l-5.3 8.398c-.6.911-1.5 1.452-2.6 1.452"/><path fill="#f7f3ea" stroke="#2a4385" stroke-linecap="round" stroke-linejoin="round" stroke-width="2" d="M18202 666.412h-67.6c-1 0-2-.54-2.6-1.451l-5.3-8.399c-1.3-2.106.2-4.839 2.6-4.839h78.2c2.4 0 3.9 2.761 2.6 4.839l-5.3 8.399c-.6.911-1.5 1.451-2.6 1.451"/><path fill="#f7f3ea" stroke="#2a4385" stroke-linecap="round" stroke-linejoin="round" stroke-width="2" d="M18202 677.315h-67.6c-1 0-2-.541-2.6-1.452l-5.3-8.398c-1.3-2.107.2-4.84 2.6-4.84h78.2c2.4 0 3.9 2.761 2.6 4.84l-5.3 8.398c-.6.911-1.5 1.452-2.6 1.452"/><path fill="#f7f3ea" stroke="#2a4385" stroke-linecap="round" stroke-linejoin="round" stroke-width="2" d="M18202 688.842h-67.6c-1 0-2-.541-2.6-1.452l-5.3-8.398c-1.3-2.107.2-4.84 2.6-4.84h78.2c2.4 0 3.9 2.762 2.6 4.84l-5.3 8.398c-.6.911-1.5 1.452-2.6 1.452"/><path fill="#f7f3ea" stroke="#2a4385" stroke-linecap="round" stroke-linejoin="round" stroke-width="2" d="M18202 701.03h-67.6c-1 0-2-.541-2.6-1.452l-5.3-8.398c-1.3-2.107.2-4.84 2.6-4.84h78.2c2.4 0 3.9 2.761 2.6 4.84l-5.3 8.398c-.6.911-1.5 1.452-2.6 1.452m-367-43.296h-78.4c-3.1 0-5.7 2.556-5.7 5.708s2.6 5.708 5.7 5.708h78.4c3.2 0 5.8-2.555 5.8-5.708s-2.6-5.708-5.8-5.708"/><path fill="#f7f3ea" stroke="#2a4385" stroke-linecap="round" stroke-linejoin="round" stroke-width="2" d="M17762.7 658.191h66.3c1.2 0 2.3 1.025 2.3 2.306v32.284c0 4.726-3.9 8.569-8.6 8.569h-53.7c-4.7 0-8.6-3.843-8.6-8.569v-32.284c0-1.281 1.1-2.306 2.3-2.306m184.2-.23h-78.4c-3.2 0-5.7 2.555-5.7 5.708s2.5 5.708 5.7 5.708h78.4c3.2 0 5.7-2.556 5.7-5.708s-2.5-5.708-5.7-5.708"/><path fill="#f7f3ea" stroke="#2a4385" stroke-linecap="round" stroke-linejoin="round" stroke-width="2" d="M17874.6 658.445h66.2c1.3 0 2.3 1.025 2.3 2.306v32.284c0 4.725-3.8 8.569-8.5 8.569h-53.7c-4.8 0-8.6-3.844-8.6-8.569v-32.284c0-1.281 1-2.306 2.3-2.306"/><path fill="#2a4385" stroke="#2a4385" stroke-linecap="round" stroke-linejoin="round" stroke-width="2" d="M17943 744.305h-183.8c-2.3 0-4.2 1.912-4.2 4.27v4.47c0 2.358 1.9 4.27 4.2 4.27h183.8c2.4 0 4.3-1.912 4.3-4.27v-4.47a4.27 4.27 0 0 0-4.3-4.27"/><path fill="#f7f3ea" stroke="#2a4385" stroke-miterlimit="10" stroke-width="2" d="M18317.6 546.137h-649.2c-2.3 0-4.3 1.912-4.3 4.27v17.622c0 2.358 2 4.27 4.3 4.27h649.2c2.3 0 4.3-1.912 4.3-4.27v-17.622c0-2.358-2-4.27-4.3-4.27Zm-35.7 324.57h-589.7a4.27 4.27 0 0 0-4.3 4.27v10.591a4.27 4.27 0 0 0 4.3 4.27h589.7c2.3 0 4.2-1.912 4.2-4.27v-10.591c0-2.358-1.9-4.27-4.2-4.27Z"/><path fill="#2a4385" stroke="#2a4385" stroke-linecap="round" stroke-linejoin="round" stroke-width="2" d="M18211 744.305h-183.7a4.27 4.27 0 0 0-4.3 4.27v4.47a4.27 4.27 0 0 0 4.3 4.27h183.7c2.4 0 4.3-1.912 4.3-4.27v-4.47a4.27 4.27 0 0 0-4.3-4.27"/></g><defs><clipPath id="a"><path fill="#fff" d="M0 0h24268v875H0z"/></clipPath><clipPath id="b"><path fill="#fff" d="M9349 651h255v128h-255z"/></clipPath><clipPath id="c"><path fill="#fff" d="M11258 524h74.941v51.023H11258z"/></clipPath><clipPath id="e"><path fill="#fff" d="M10902 683h112v192h-112z"/></clipPath><clipPath id="f"><path fill="#fff" d="M11031 683h112v192h-112z"/></clipPath></defs></svg>