<svg width="185" height="565" viewBox="0 0 185 565" fill="none" xmlns="http://www.w3.org/2000/svg">
<g clip-path="url(#clip0_3259_419)">
<path d="M140.348 293.352C137.142 296.644 134.446 298.828 132.516 299.396C132.516 299.396 130.814 296.956 128.26 293.352C126.103 290.316 123.322 286.428 120.428 282.512C113.873 273.602 106.808 264.522 105.275 264.522C105.275 264.522 111.177 257.967 119.009 249.426C122.017 246.134 125.337 242.559 128.686 238.955C134.957 232.23 141.483 225.42 146.761 220.17C146.676 219.631 146.562 219.063 146.477 218.524C145.683 214.069 145.087 209.699 144.633 205.414C138.958 152.465 155.217 113.731 155.217 113.731C155.416 113.845 155.643 113.93 155.841 114.015C158.225 115.179 160.325 116.285 161.999 117.364C161.999 117.364 162.056 117.392 162.084 117.42C164.241 118.839 165.688 120.173 166 121.336C168.157 128.941 177.691 164.638 177.691 164.638C177.691 164.638 185.608 211.203 183.962 224.256C183.196 230.357 174.314 246.503 163.929 262.252C155.898 274.425 147.016 286.371 140.263 293.352H140.348Z" fill="#F7F3E9"/>
<path d="M166 291.535L167.561 314.406C167.561 314.406 163.957 316.109 157.175 318.294C138.56 324.281 95.968 333.958 38.7051 321.841C35.8391 321.245 32.9448 320.564 29.9937 319.855V294.543C35.1013 291.479 38.7051 281.774 38.7051 281.774L39.0172 281.49C43.9831 286.853 50.169 295.65 50.169 295.65C55.3902 304.929 71.0822 313.3 71.0822 313.3C76.8142 316.279 78.4883 312.222 78.6302 311.881C78.6586 311.881 78.7154 311.881 78.7437 311.881H78.7721C85.1567 313.782 85.781 308.902 85.8094 308.107C86.0931 308.192 86.2918 308.192 86.4053 308.107C88.0795 308.306 92.6764 308.447 92.0521 303.283C96.195 304.702 97.5854 303.283 97.9543 301.552C98.3516 299.651 97.5854 297.579 95.968 296.53C95.968 296.53 100.451 296.473 105.644 293.266H128.232C130.814 296.87 132.488 299.31 132.488 299.31C134.389 298.771 137.113 296.586 140.32 293.266L165.972 291.479L166 291.535Z" fill="#F7F3E9"/>
<path d="M164.014 262.223L166 291.535L140.348 293.323C147.102 286.342 156.012 274.396 164.014 262.223Z" fill="#2A4385"/>
<path d="M89.867 516.529C79.0557 520.7 48.7501 512.556 48.7501 512.556C48.7501 512.556 53.8294 423.002 38.705 321.869C95.9678 333.957 138.532 324.31 157.175 318.322C155.387 318.918 161.744 520.7 161.744 520.7C161.375 520.7 161.091 520.899 160.892 521.24C145.371 530.831 132.034 525.723 127.267 523.254C126.046 522.63 125.394 522.176 125.394 522.176C124.117 445.646 96.053 344.996 96.053 344.996C91.4277 349.281 92.1655 515.224 92.1655 515.224C91.5696 515.763 90.775 516.189 89.867 516.557V516.529Z" fill="#284485"/>
<path d="M160.523 529.185C161.744 531.852 160.523 536.335 160.523 536.335V541.812C160.523 542.692 160.24 543.571 159.615 544.167C157.459 546.097 157.629 551.63 157.629 551.63C156.948 555.574 149.06 560.228 149.06 560.228C125.621 569.762 116.143 558.27 116.143 558.27C114.412 557.05 114.98 554.581 115.604 552.964C116.001 551.942 116.2 550.892 116.143 549.814C115.916 543.543 122.613 536.96 122.613 536.96L127.238 523.282C132.006 525.751 145.342 530.83 160.864 521.268C159.644 523.112 160.523 529.241 160.523 529.241V529.185Z" fill="#243C6B"/>
<path d="M155.217 113.646C155.217 113.646 155.302 113.646 155.331 113.675C155.331 113.675 139.071 152.408 144.746 205.358H128.827C126.813 158.878 139.412 107.517 139.412 107.517L129.196 103.8C137.057 106.496 147.953 110.383 155.217 113.618V113.646Z" fill="#2A4385"/>
<path d="M146.562 218.496C146.648 219.035 146.733 219.602 146.846 220.142C141.568 225.391 135.042 232.23 128.771 238.927L128.288 238.444H42.1101L34.4486 219.744V217.417L145.796 218.609L146.562 218.467V218.496Z" fill="#2A4385"/>
<path d="M146.563 218.495L145.796 218.637L34.4771 217.446L34.7041 204.847L46.4801 204.988C46.4801 204.988 46.7071 204.875 46.6504 204.761C44.3519 198.32 46.7071 124.344 46.7355 122.925L52.7229 119.633L52.8364 119.577C54.5673 118.668 56.128 117.902 57.3765 117.306C57.036 121.96 51.3324 198.661 55.9577 204.364C56.0996 204.534 56.3266 204.591 56.5536 204.591L115.434 205.244C115.434 205.244 116.456 119.747 128.317 103.487C128.6 103.572 128.856 103.658 129.168 103.771L139.383 107.488C139.383 107.488 126.784 158.849 128.799 205.329H144.718C145.172 209.614 145.768 213.984 146.563 218.439V218.495Z" fill="#F7F3EA"/>
<path d="M119.69 100.649C126.898 102.863 143.867 108.339 155.189 113.674C147.925 110.439 137.028 106.552 129.168 103.856C128.884 103.742 128.6 103.657 128.317 103.572C124.032 102.125 120.769 101.047 119.662 100.678L119.69 100.649Z" fill="#F7F3E9"/>
<path d="M128.26 238.472L128.742 238.955C125.394 242.558 122.074 246.134 119.066 249.425L47.3029 249.794L46.8205 249.993L42.1101 238.472H128.288H128.26Z" fill="#F7F3EA"/>
<path d="M128.26 293.351H105.672C107.971 291.933 110.411 289.89 112.653 286.938L120.428 282.483C123.322 286.399 126.075 290.287 128.26 293.323V293.351Z" fill="#2A4385"/>
<path d="M121.336 48.9766C121.336 48.9766 122.131 53.2047 115.945 51.0197C116.115 49.9982 116.2 48.9766 116.2 47.9551V47.6713C116.2 47.6713 116.2 47.5011 116.2 47.4443C119.492 48.324 121.365 48.9766 121.365 48.9766H121.336Z" fill="#F7F3EA"/>
<path d="M115.718 40.9747C115.718 40.9747 121.535 41.7976 121.336 48.9768C121.336 48.9768 119.463 48.3241 116.172 47.4444C116.143 45.6568 115.434 43.9258 114.242 42.5921C113.448 41.7409 112.539 40.8612 111.83 40.1802C113.873 40.6342 115.264 40.9463 115.462 40.9747H115.718Z" fill="#F7F3EA"/>
<path d="M105.304 264.521C106.836 264.521 113.902 273.602 120.456 282.512L112.681 286.967C110.44 289.89 107.999 291.933 105.701 293.38C100.508 296.586 96.0246 296.643 96.0246 296.643C90.6332 293.238 82.7446 284.867 79.0841 280.866C78.6301 280.384 79.0557 279.589 79.7084 279.703C83.3121 280.157 88.6468 278.653 88.6468 278.653C95.9962 273.261 90.3778 272.325 90.3778 272.325C89.6116 272.268 86.093 272.07 84.2202 271.984C87.8239 270.736 92.4492 272.892 92.4492 272.892L105.304 264.578V264.521Z" fill="#F7F3EA"/>
<path d="M119.69 100.65C120.797 101.019 124.06 102.097 128.345 103.544C116.484 119.775 115.462 205.301 115.462 205.301L56.5819 204.648C56.3549 204.648 56.1279 204.591 55.986 204.421C51.3891 198.717 57.0643 122.017 57.4048 117.363C59.5614 116.285 60.895 115.661 60.895 115.661C60.895 115.661 60.9234 115.802 61.0369 116.058C61.4342 120.74 64.0732 143.526 79.5098 155.075C79.5098 155.075 119.548 104.594 119.293 100.536C119.293 100.536 119.293 100.536 119.35 100.536C119.463 100.536 119.577 100.593 119.719 100.65H119.69Z" fill="#2A4385"/>
<path d="M86.3484 126.926C94.1235 124.202 104.027 117.59 116.597 104.452C117.363 103.686 117.562 102.494 117.108 101.529L116.257 99.5713C116.257 99.5713 117.363 99.9118 119.236 100.479C119.52 104.537 79.453 155.018 79.453 155.018C64.0165 143.469 61.3775 120.683 60.9802 116.001C61.491 117.42 63.676 122.528 68.5566 125.762C68.7836 125.904 69.0107 126.046 69.266 126.216C73.1819 128.515 78.6869 129.593 86.2917 126.926H86.3484Z" fill="#F7F3E9"/>
<path d="M47.2746 249.765L119.038 249.396C111.178 257.938 105.304 264.493 105.304 264.493L92.4493 272.807C92.4493 272.807 87.7957 270.65 84.2203 271.899C83.9649 271.899 83.7379 271.842 83.4541 271.814C83.0568 271.757 82.688 271.643 82.3191 271.558C80.5314 271.076 76.3317 270.764 72.0469 270.508C71.9902 270.508 71.9334 270.508 71.8767 270.508C66.4569 269.969 61.037 269.6 59.9587 270.054L52.0986 261.825L51.3324 261.031L46.7922 249.964L47.2746 249.765Z" fill="#2A4385"/>
<path d="M117.136 101.53C117.59 102.523 117.363 103.686 116.626 104.452C104.027 117.59 94.1235 124.202 86.3768 126.926L87.0295 115.945C87.0295 115.945 100.026 110.61 109.078 98.7204C110.298 97.1029 111.461 95.372 112.511 93.4992C112.767 93.0451 113.448 93.0451 113.646 93.5275L116.314 99.5433L117.165 101.501L117.136 101.53Z" fill="#F7F3E9"/>
<path d="M100.962 61.4901L100.565 56.4108L96.7341 50.083C95.8828 48.8344 95.5707 47.5575 95.2585 45.5428L95.0883 43.6416C104.112 44.578 111.518 46.2238 116.143 47.4724C116.143 47.5575 116.143 47.6426 116.143 47.6994V47.9831C116.143 49.0047 116.058 50.0262 115.888 51.0478C115.774 51.8139 115.604 52.5517 115.406 53.2895L113.192 61.0361C111.234 59.5606 108.766 59.4187 108.766 59.4187C107.176 59.3336 105.814 61.2064 105.048 62.5117C104.594 63.2778 104.396 64.1291 104.396 64.9804V67.5626C104.396 68.272 103.856 68.8395 103.147 68.8395H101.501L100.934 61.5185L100.962 61.4901Z" fill="#284485"/>
<path d="M115.718 40.9753H115.462C115.264 40.947 113.873 40.6348 111.83 40.1808C111.007 39.4146 110.411 38.8755 110.411 38.8755V37.6553V30.6748C110.411 30.5329 110.383 30.4194 110.326 30.2776L114.441 29.4263C115.207 32.7746 115.661 36.6054 115.746 40.947L115.718 40.9753Z" fill="#EAE042"/>
<path d="M89.0725 81.2118C87.3416 79.2255 85.0431 78.1755 85.0431 78.1755H80.5029C80.5313 78.0337 80.5881 77.9202 80.5881 77.7783C80.7299 76.927 80.4462 75.792 79.1976 74.2597L79.0558 73.2949L93.5559 71.1667C95.0315 70.9397 96.1098 69.6344 96.0246 68.1304L95.599 61.9444L100.962 61.462L101.53 68.7831H103.175C103.885 68.7831 104.424 68.2156 104.424 67.5062V64.9239C104.424 64.0726 104.651 63.193 105.077 62.4552C105.843 61.1215 107.233 59.2771 108.794 59.3622C108.794 59.3622 111.263 59.5041 113.221 60.9797C114.327 61.8309 115.235 63.0795 115.434 64.9523C115.434 64.9523 117.08 74.4867 111.461 80.1903C110.61 81.0983 109.418 81.6091 108.17 81.7793C107.318 81.8644 106.382 81.8928 105.9 81.5807C105.814 81.5239 105.701 81.5807 105.673 81.6658C105.587 82.8009 105.162 87.5113 103.005 92.9311C97.8123 105.842 83.8229 112.908 70.2024 110.099C67.3648 109.503 64.5556 108.481 62.2571 106.835C62.2571 106.835 51.985 102.352 49.8568 89.4976C49.8568 89.4976 41.5142 93.0446 38.0807 75.3663C37.9105 74.4015 37.9105 73.4084 38.1375 72.472L40.4359 72.926C40.8332 74.6853 44.2383 80.1903 44.2383 80.1903L45.7139 78.2323C46.1111 77.4945 46.1679 76.5865 45.8274 75.8203L48.2393 75.3947C48.6934 76.8986 50.1973 77.9202 51.7864 77.6932L64.2151 75.4798L65.2366 77.7499C65.2366 77.7499 62.8246 83.0562 70.7416 82.7157C70.9686 82.7157 71.1956 82.6873 71.4226 82.6306L72.2171 86.4614L65.2366 87.8802C67.5067 94.4634 77.0694 93.1014 77.0694 93.1014C84.7877 91.8812 86.7173 83.4819 86.7173 83.4819L89.0725 81.1834V81.2118ZM111.376 64.6402C111.404 64.1294 111.007 63.647 110.496 63.7038C108.028 63.9308 106.978 68.2156 106.637 70.2019C106.552 70.7978 106.836 71.3653 107.375 71.5923L109.532 72.5287C109.759 72.7273 111.263 66.9954 111.404 64.6402H111.376Z" fill="#F7F3EA"/>
<path d="M33.2852 49.147C33.2 48.8917 33.2 48.6363 33.1717 48.3809L33.0582 45.6852C32.973 43.784 33.7108 41.9111 35.0445 40.5775L36.2079 39.414C37.3146 38.3074 37.8253 36.7751 37.6267 35.2144C37.0592 30.8161 37.1443 21.7925 47.4732 21.5939H47.5016C47.5016 21.5939 50.2257 14.8971 56.667 14.0742C58.9655 13.7905 61.7464 14.2445 65.038 16.0038C66.2014 16.5997 67.5067 16.9118 68.812 16.9118C70.1173 16.9118 71.2807 16.5713 72.359 15.947C73.2103 15.4646 74.4021 14.8404 75.8209 14.4431C78.9139 13.5351 83.1135 13.4216 87.4267 16.9402C88.3347 17.678 89.2711 18.586 90.1792 19.6643C90.1792 19.6643 102.58 18.0469 102.409 25.7935C102.409 25.7935 109.361 26.3894 110.298 30.3337C110.326 30.4756 110.355 30.5891 110.383 30.731V38.9033C110.383 38.9033 111.007 39.4424 111.83 40.2086C112.568 40.8896 113.476 41.7693 114.242 42.6205C115.434 43.9542 116.143 45.6852 116.172 47.4728C111.546 46.2527 104.14 44.5785 95.1166 43.6421C81.3258 42.2233 63.7611 42.507 46.7638 48.6646C42.6776 50.1402 38.6199 51.9563 34.6188 54.1696C34.8458 53.9426 35.4417 52.9211 34.1364 51.0766C33.7108 50.5091 33.427 49.8564 33.2852 49.1754V49.147Z" fill="#F7F3EA"/>
<path d="M114.412 29.4538L110.298 30.3051C109.361 26.3892 102.409 25.7649 102.409 25.7649C102.551 18.0182 90.1791 19.6357 90.1791 19.6357C89.2711 18.5574 88.3347 17.6493 87.4266 16.9116C87.2847 10.6688 87.8806 4.90848 87.8806 4.90848L88.0225 4.7666L88.1644 4.90848C88.5333 4.90848 108.992 5.02198 114.441 29.4254L114.412 29.4538Z" fill="#F7F3EA"/>
<path d="M110.496 63.7043C111.007 63.6475 111.404 64.1299 111.376 64.6407C111.234 66.9959 109.73 72.7278 109.503 72.5292L107.347 71.5928C106.808 71.3658 106.524 70.7983 106.609 70.2024C106.949 68.2161 107.999 63.9313 110.468 63.7043H110.496Z" fill="#284485"/>
<path d="M108.851 98.6352L109.021 98.7771C99.969 110.638 86.9728 116.001 86.9728 116.001L86.3201 126.983C78.7437 129.65 73.2104 128.572 69.2945 126.274L67.5068 118.442C67.3649 117.505 66.3434 116.484 65.5205 116.342C63.7895 116.058 62.2288 115.405 60.9519 115.207L61.2073 114.072C61.2073 114.072 61.7748 111.972 62.2288 106.921C64.5273 108.567 67.3365 109.588 70.1741 110.184C83.7946 112.994 97.784 105.899 102.977 93.0168C105.133 87.5969 105.587 82.8865 105.644 81.7515C105.644 81.7515 108.425 99.1744 108.822 98.6636L108.851 98.6352Z" fill="#F7F3EA"/>
<path d="M100.593 56.4112L100.99 61.4906L95.6274 61.9729V61.4622C95.4855 60.2136 94.4072 59.3056 93.1587 59.4191L77.0978 61.15C75.7074 61.2919 74.6575 62.4837 74.6575 63.8741V66.2294L67.3081 66.6266L67.2229 65.7186C67.1094 64.2714 65.8325 63.1931 64.3853 63.3634L47.4732 65.2078L46.7638 48.6078C63.7894 42.4502 81.3258 42.1948 95.1166 43.5853L95.2869 45.4865C95.599 47.5295 95.9111 48.7781 96.7624 50.0266L100.593 56.3545V56.4112ZM93.3005 56.1275C93.3005 54.9073 92.279 53.8858 91.0588 53.8858H77.9491C76.7005 53.8858 75.7074 54.9073 75.7074 56.1275C75.7074 57.3477 76.7005 58.3692 77.9491 58.3692H91.0588C92.279 58.3692 93.3005 57.376 93.3005 56.1275ZM65.0664 59.1353C65.0664 58.9651 65.038 58.7948 64.9812 58.5962C64.6691 57.4044 63.4489 56.6666 62.2571 56.9788L49.5163 60.1853C48.4947 60.4406 47.8137 61.3487 47.8137 62.3418C47.8137 62.5121 47.8137 62.7107 47.8988 62.881C48.1826 64.1012 49.4028 64.8106 50.6229 64.5268L63.3354 61.3203C64.357 61.0649 65.038 60.1569 65.038 59.1353H65.0664Z" fill="#F7F3EA"/>
<path d="M78.6584 311.909C78.5165 312.25 76.814 316.308 71.1104 313.328C71.1104 313.328 55.4184 304.957 50.1972 295.678C50.1972 295.678 44.0112 286.882 39.0454 281.519C37.4564 279.816 36.0092 278.454 34.9309 277.801C38.7901 272.353 44.295 266.536 52.1268 261.854L59.987 270.083C59.987 270.083 65.9743 270.225 71.9049 270.537C71.9617 270.537 72.0184 270.537 72.0752 270.537C76.8707 271.019 81.6947 271.615 83.4824 271.842C83.7377 271.871 83.9648 271.928 84.2485 271.928C86.093 272.013 89.64 272.211 90.4061 272.268C90.4061 272.268 96.0246 273.204 88.6752 278.596C88.6752 278.596 83.3405 280.1 79.7367 279.646C79.0841 279.561 78.6584 280.327 79.1124 280.809C82.7729 284.839 90.6615 293.181 96.0529 296.586C97.6988 297.636 98.4365 299.736 98.0393 301.609C97.6704 303.34 96.28 304.759 92.1371 303.34C92.7613 308.504 88.1644 308.362 86.4902 308.164C86.1213 308.107 85.8943 308.05 85.8943 308.05C85.8943 308.05 85.8943 308.079 85.8943 308.135C85.8659 308.902 85.2417 313.782 78.8571 311.909H78.8287C78.8287 311.909 78.7435 311.909 78.7152 311.881L78.6584 311.909Z" fill="#F7F3EA"/>
<path d="M96.0246 68.1593C96.1098 69.6633 95.0599 70.9969 93.5559 71.1956L79.0558 73.3238L78.2612 73.4373C76.7857 73.6643 75.452 72.5292 75.4236 71.0821L74.6575 66.2298V63.8745C74.6575 62.4841 75.7074 61.2923 77.0978 61.1504L93.1587 59.4195C94.3788 59.2776 95.4855 60.214 95.5706 61.4626V61.9733L96.0246 68.1593ZM86.0363 65.3501C86.0363 64.4988 85.3552 63.8178 84.504 63.8178C83.6527 63.8178 82.9717 64.5272 82.9717 65.3501C82.9717 66.173 83.6811 66.8824 84.504 66.8824C85.3269 66.8824 86.0363 66.173 86.0363 65.3501Z" fill="#F7F3EA"/>
<path d="M91.059 53.8857C92.2791 53.8857 93.3007 54.9073 93.3007 56.1275C93.3007 57.3476 92.2791 58.3692 91.059 58.3692H77.9492C76.7007 58.3692 75.7075 57.376 75.7075 56.1275C75.7075 54.8789 76.7007 53.8857 77.9492 53.8857H91.059Z" fill="#284485"/>
<path d="M91.3426 534.719V539.571C86.2917 544.111 77.3816 543.118 72.4442 542.125C70.2308 541.671 67.9324 542.125 65.9744 543.288C57.7737 548.112 42.6209 551.829 42.6209 551.829C20.4308 556.171 13.4503 547.488 13.4503 547.488L15.2664 539.259H15.4083C15.238 540.167 15.238 541.047 15.5218 541.869C16.0042 543.345 17.3378 544.735 20.0052 545.757C20.0052 545.757 33.5689 549.247 48.4096 546.239C49.8284 545.956 51.2189 545.445 52.5242 544.764C57.8589 542.096 72.9833 534.861 80.276 534.662C89.186 534.435 91.371 534.662 91.371 534.662L91.3426 534.719Z" fill="#284485"/>
<path d="M89.867 516.529L91.3426 534.746C91.3426 534.746 89.186 534.519 80.2476 534.746C72.9549 534.945 57.8305 542.181 52.4958 544.848C51.1905 545.501 49.8284 546.011 48.3812 546.324C33.5405 549.303 19.9768 545.841 19.9768 545.841C17.3094 544.82 16.0041 543.429 15.4934 541.954C15.2096 541.102 15.2096 540.223 15.3799 539.343C15.6636 537.697 16.6284 536.08 17.5932 534.803C18.8134 533.157 20.6011 532.05 22.5874 531.625C33.8243 529.213 38.6199 523.821 40.2373 521.523C40.9183 520.53 41.7129 519.622 42.5641 518.77L48.7501 512.613C48.7501 512.613 79.0558 520.757 89.867 516.585V516.529Z" fill="#243C6B"/>
<path d="M89.0725 81.2121L86.7173 83.5105L72.2171 86.49L71.4226 82.6593C72.1036 82.5174 72.7563 82.2336 73.3238 81.8363C74.5724 80.9567 76.7289 79.623 78.6018 79.5663C79.453 79.5379 80.2476 78.942 80.5313 78.1475H85.0715C85.0715 78.1475 87.37 79.2258 89.1009 81.2121H89.0725Z" fill="#F7F3EA"/>
<path d="M86.6889 3.49009L88.0226 4.82377L87.8807 4.96565C87.8807 4.96565 87.3132 10.726 87.4267 16.9687C83.1135 13.4501 78.9139 13.5636 75.8209 14.4716C74.8561 9.56257 76.5587 2.18479 76.5587 2.18479L76.7573 2.07129L76.8141 2.18479C77.0411 2.63881 77.5235 2.95095 78.0342 2.97932L86.6889 3.51847V3.49009Z" fill="#F7F3EA"/>
<path d="M72.2172 86.5181L86.7174 83.5386C86.7174 83.5386 84.7878 91.9379 77.0695 93.1581C77.0695 93.1581 67.4784 94.5201 65.2367 87.9369L72.2172 86.5181Z" fill="#F7F3E9"/>
<path d="M84.504 66.882C85.3503 66.882 86.0363 66.196 86.0363 65.3497C86.0363 64.5034 85.3503 63.8174 84.504 63.8174C83.6577 63.8174 82.9717 64.5034 82.9717 65.3497C82.9717 66.196 83.6577 66.882 84.504 66.882Z" fill="#284485"/>
<path d="M82.319 271.588C82.7163 271.673 83.0852 271.786 83.4541 271.843C81.6664 271.616 76.8424 271.02 72.0469 270.538C76.3317 270.765 80.5313 271.105 82.319 271.588Z" fill="#F7F3EA"/>
<path d="M79.1976 74.3172C80.4461 75.8495 80.7299 76.9845 80.588 77.8358C80.588 77.9777 80.5313 78.0628 80.5029 78.1763C80.2191 78.9708 79.4246 79.5667 78.5733 79.5951C76.7289 79.6519 74.5439 80.9855 73.2954 81.8652C72.7278 82.2625 72.0752 82.5462 71.3942 82.6881C71.1672 82.7165 70.9401 82.7449 70.7131 82.7732C62.7962 83.1137 65.2082 77.8074 65.2082 77.8074L64.1866 75.5373C65.6906 75.3103 66.7972 73.9766 66.6837 72.4443L67.2513 66.6272L74.6007 66.23L75.3668 71.0823C75.3952 72.5578 76.7572 73.6645 78.2044 73.4375L78.9989 73.324L79.1408 74.2888L79.1976 74.3172Z" fill="#F7F3EA"/>
<path d="M76.7573 2.04266L76.5587 2.15616C76.5587 2.15616 74.8561 9.56232 75.8209 14.443C74.4021 14.8403 73.2103 15.4645 72.359 15.9469C71.2808 16.5996 70.0606 16.9117 68.812 16.9117C67.5635 16.9117 66.2014 16.5996 65.038 16.0037C61.7464 14.2444 58.9939 13.7904 56.6671 14.0741C55.6739 10.5271 55.5037 6.66796 55.5037 5.56129C55.5888 5.47616 55.6739 5.39104 55.759 5.27753C56.5536 4.19924 58.2561 2.18454 59.9871 2.18454L73.7778 0.708984C73.7778 0.708984 75.9912 0.708984 76.7573 2.04266Z" fill="#F7F3EA"/>
<path d="M71.8766 270.509C65.9743 270.196 59.9586 270.055 59.9586 270.055C61.0369 269.572 66.4284 269.941 71.8766 270.509Z" fill="#F7F3E9"/>
<path d="M69.3228 126.217C69.0674 126.075 68.8404 125.933 68.6134 125.763C63.7327 122.528 61.5477 117.42 61.037 116.001C61.0086 115.434 60.9802 115.15 60.9802 115.15C62.2571 115.349 63.8178 116.001 65.5488 116.285C66.4001 116.427 67.3932 117.448 67.5351 118.385L69.3228 126.217Z" fill="#F7F3E9"/>
<path d="M67.223 65.7186L67.3081 66.6266L66.7406 72.4437C66.8541 73.976 65.7474 75.338 64.2435 75.5367L51.8148 77.75C50.1973 77.977 48.7218 76.9555 48.2677 75.4516C48.211 75.2813 48.1542 75.0543 48.1259 74.8557L47.757 71.2519L47.5016 65.2362L64.4137 63.3917C65.8325 63.2215 67.1378 64.2998 67.2513 65.7469L67.223 65.7186ZM61.1221 69.0386C61.1221 68.1873 60.4127 67.5063 59.5898 67.5063C58.7669 67.5063 58.0575 68.1873 58.0575 69.0386C58.0575 69.8898 58.7669 70.5709 59.5898 70.5709C60.4127 70.5709 61.1221 69.8898 61.1221 69.0386Z" fill="#F7F3EA"/>
<path d="M65.0096 58.5959C65.038 58.7661 65.0948 58.9648 65.0948 59.135C65.0948 60.1565 64.3854 61.0646 63.3922 61.32L50.6797 64.5265C49.4595 64.8102 48.2677 64.1008 47.9556 62.8807C47.8989 62.7104 47.8705 62.5118 47.8705 62.3415C47.8705 61.3483 48.5515 60.4403 49.573 60.1849L62.3139 56.9784C63.5057 56.6663 64.7259 57.4041 65.038 58.5959H65.0096Z" fill="#284485"/>
<path d="M59.5614 67.5063C60.4126 67.5063 61.0937 68.1874 61.0937 69.0387C61.0937 69.8899 60.3843 70.571 59.5614 70.571C58.7385 70.571 58.0291 69.8899 58.0291 69.0387C58.0291 68.1874 58.7385 67.5063 59.5614 67.5063Z" fill="#284485"/>
<path d="M55.5036 5.56152C55.5036 6.66819 55.6739 10.5273 56.6671 14.0743C50.2257 14.8689 47.5016 21.594 47.5016 21.594H47.4732C46.3949 16.9403 45.9693 12.5137 45.8842 11.4921C46.0828 11.2935 46.253 11.0949 46.3949 10.8395C47.1327 9.6193 49.2325 7.0087 54.4254 6.04392C54.8226 5.95879 55.1915 5.81691 55.5036 5.56152Z" fill="#EAE042"/>
<path d="M52.7511 119.661L46.7638 122.924L41.6277 125.762C45.572 123.464 49.4879 121.364 52.7795 119.661H52.7511Z" fill="#F7F3E9"/>
<path d="M34.9026 277.801C28.4045 287.024 26.6735 295.196 26.6735 295.196C16.5433 287.96 0.737793 229.676 0.737793 229.676L21.9631 141.227C23.7792 137.652 29.4827 133.254 35.9525 129.139L34.6756 204.847L34.4486 217.445V219.772L42.0533 238.472L46.7638 249.993L51.3039 261.059L52.0701 261.854C44.2383 266.536 38.7333 272.353 34.8742 277.801H34.9026Z" fill="#F7F3E9"/>
<path d="M39.9252 69.3226C40.1806 69.0672 40.4644 68.8402 40.7481 68.6415C42.6493 67.3646 45.1748 67.1376 47.7286 71.2521L48.0975 74.8559C48.0975 75.0829 48.1826 75.2815 48.2394 75.4518L45.8274 75.8774C43.8411 71.3373 40.3509 72.5858 40.4644 72.9547L38.1659 72.5007C38.4213 71.2805 39.0172 70.1455 39.9252 69.2942V69.3226Z" fill="#F7F3EA"/>
<path d="M47.4733 65.2079L47.7286 71.2236C45.1464 67.109 42.6209 67.3644 40.7481 68.613C40.4644 68.8116 40.1806 69.0386 39.9252 69.294L33.9663 58.0855C33.9663 58.0855 32.888 56.014 34.5621 54.1979C34.5621 54.1979 34.5621 54.1979 34.5905 54.1412C38.5632 51.9279 42.6209 50.1118 46.7355 48.6362L47.4449 65.2362L47.4733 65.2079Z" fill="#284485"/>
<path d="M45.8841 11.4922C45.9692 12.5137 46.4233 16.9404 47.4732 21.5941C37.1159 21.7927 37.0592 30.8163 37.6267 35.2146C37.8253 36.7753 37.3145 38.3076 36.2079 39.4142L35.0445 40.5777C33.6824 41.9397 32.973 43.7841 33.0581 45.6853L33.1716 48.3811C33.1716 48.6365 33.2 48.8918 33.2851 49.1472C32.6609 49.5445 32.1217 49.9134 31.611 50.2539C31.611 50.2539 28.1491 20.9414 45.2882 11.8895C45.5152 11.7759 45.6855 11.6341 45.8841 11.4922Z" fill="#F7F3EA"/>
<path d="M41.5994 125.734L46.7354 122.925C46.7071 124.344 44.3235 198.32 46.6503 204.761C46.6787 204.875 46.5935 204.988 46.48 204.988L34.704 204.847L35.9809 129.139C37.8253 127.976 39.6982 126.841 41.5994 125.734Z" fill="#2A4385"/>
<path d="M45.8274 75.8774C46.168 76.6435 46.1112 77.5516 45.7139 78.2893L44.2384 80.2473C44.2384 80.2473 40.8333 74.7423 40.436 72.983C40.3509 72.6141 43.8127 71.3372 45.7991 75.9057L45.8274 75.8774Z" fill="#284485"/>
<path d="M29.9936 294.572C29.0288 295.139 28.0073 295.48 26.9573 295.48L26.6736 295.196C26.6736 295.196 28.4045 287.023 34.9026 277.801C35.9809 278.454 37.4281 279.788 39.0172 281.519L38.705 281.802C38.705 281.802 35.1297 291.507 29.9936 294.572Z" fill="#294485"/>
<path d="M34.1648 51.0482C35.4701 52.8927 34.8742 53.9142 34.6472 54.1412C32.6609 55.2479 30.7029 56.4397 28.7734 57.745C28.7734 57.745 25.6236 54.6236 31.6677 50.2253C32.1501 49.8848 32.7176 49.5159 33.3419 49.1187C33.4838 49.7997 33.7959 50.4523 34.1932 51.0198L34.1648 51.0482Z" fill="#F7F3EA"/>
<path d="M34.6189 54.1416L34.5905 54.1984C32.888 56.0144 33.9946 58.0859 33.9946 58.0859C30.5611 59.7884 28.7734 57.7454 28.7734 57.7454C30.703 56.4401 32.661 55.2199 34.6473 54.1416H34.6189Z" fill="#F7F3EA"/>
<path d="M52.8646 119.605C54.5956 118.697 56.1562 117.931 57.4048 117.335C59.5614 116.257 60.8951 115.632 60.8951 115.632C60.8951 115.632 60.9234 115.774 61.0369 116.03C61.5477 117.448 63.7327 122.556 68.6133 125.791C68.8404 125.933 69.0674 126.075 69.3227 126.245C73.2386 128.543 78.7436 129.622 86.3484 126.954C94.1234 124.23 104.027 117.619 116.597 104.481C117.363 103.714 117.562 102.523 117.108 101.558L116.257 99.5999L113.589 93.5842C113.391 93.1018 112.71 93.1018 112.454 93.5558C111.404 95.4002 110.241 97.1596 109.021 98.777C99.9689 110.638 86.9727 116.001 86.9727 116.001L86.32 126.983V127.125" stroke="#294485" stroke-width="1.4188" stroke-miterlimit="10"/>
<path d="M41.5994 125.734C45.5436 123.436 49.4595 121.336 52.7512 119.633" stroke="#294485" stroke-width="1.4188" stroke-miterlimit="10"/>
<path d="M52.0985 261.854C44.2667 266.536 38.7617 272.353 34.9026 277.802C28.4045 287.024 26.6735 295.196 26.6735 295.196C16.5433 287.96 0.737793 229.676 0.737793 229.676L21.9631 141.228C23.7792 137.652 29.4827 133.254 35.9525 129.139C37.7969 127.976 39.6698 126.841 41.5709 125.734" stroke="#294485" stroke-width="1.4188" stroke-miterlimit="10"/>
<path d="M95.1166 43.6416L95.2869 45.5428C95.599 47.5859 95.9112 48.8344 96.7624 50.083L100.593 56.4108L100.99 61.4901L101.558 68.8112H103.204C103.913 68.8112 104.452 68.2436 104.452 67.5342V64.952C104.452 64.1007 104.679 63.2211 105.105 62.4833C105.871 61.1496 107.262 59.3052 108.822 59.3903C108.822 59.3903 111.291 59.5322 113.249 61.0078C114.356 61.859 115.264 63.1076 115.462 64.9804C115.462 64.9804 117.108 74.5148 111.49 80.2183C110.638 81.1264 109.447 81.6371 108.198 81.8074C107.347 81.8925 106.41 81.9209 105.928 81.6088C105.843 81.552 105.729 81.6088 105.701 81.6939C105.616 82.8289 105.19 87.5394 103.034 92.9592C97.8407 105.87 83.8513 112.936 70.2308 110.127C67.3932 109.531 64.584 108.509 62.2855 106.863" stroke="#294485" stroke-width="1.4188" stroke-miterlimit="10"/>
<path d="M69.3228 126.216L67.5351 118.384C67.3932 117.448 66.3717 116.426 65.5487 116.284C63.8178 116.001 62.2571 115.348 60.9802 115.149L61.2356 114.014C61.2356 114.014 61.8031 111.914 62.2571 106.863C62.2571 106.863 51.985 102.38 49.8568 89.5257C49.8568 89.5257 41.5142 93.0727 38.0807 75.3944C37.9105 74.4296 37.9105 73.4365 38.1375 72.5001C38.3928 71.2799 38.9887 70.1449 39.8968 69.2936C40.1522 69.0382 40.4359 68.8112 40.7197 68.6125C42.6209 67.3356 45.1464 67.1086 47.7002 71.2231L47.4448 65.2074L46.7354 48.6074" stroke="#294485" stroke-width="1.4188" stroke-miterlimit="10"/>
<path d="M38.705 281.803C38.705 281.803 35.1296 291.507 29.9935 294.572C29.0287 295.139 28.0072 295.48 26.9573 295.48" stroke="#294485" stroke-width="1.4188" stroke-miterlimit="10"/>
<path d="M116.2 47.4443C116.2 47.4443 116.2 47.6146 116.2 47.6713V47.9551C116.2 48.9766 116.115 49.9982 115.945 51.0197C115.831 51.7859 115.661 52.5237 115.462 53.2614L113.249 61.0081" stroke="#294485" stroke-width="1.4188" stroke-miterlimit="10"/>
<path d="M39.982 69.4079L39.9252 69.3227L33.9663 58.1142C33.9663 58.1142 32.888 56.0427 34.5621 54.2267C34.5621 54.2267 34.5621 54.2267 34.5905 54.1699" stroke="#294485" stroke-width="1.4188" stroke-miterlimit="10"/>
<path d="M119.321 100.536C119.321 100.536 119.293 100.536 119.265 100.536C117.363 99.9406 116.285 99.6284 116.285 99.6284" stroke="#294485" stroke-width="1.4188" stroke-miterlimit="10"/>
<path d="M155.217 113.646C143.895 108.311 126.898 102.863 119.719 100.621" stroke="#294485" stroke-width="1.4188" stroke-miterlimit="10"/>
<path d="M162.113 117.335C160.438 116.256 158.339 115.121 155.955 113.986" stroke="#294485" stroke-width="1.4188" stroke-miterlimit="10"/>
<path d="M119.038 249.397C111.178 257.938 105.304 264.493 105.304 264.493C106.836 264.493 113.902 273.573 120.457 282.484C123.351 286.399 126.103 290.287 128.288 293.323C130.871 296.927 132.545 299.367 132.545 299.367C134.446 298.828 137.17 296.643 140.377 293.323C147.13 286.343 156.04 274.396 164.042 262.223C174.428 246.474 183.31 230.357 184.076 224.227C185.75 211.174 177.805 164.609 177.805 164.609C177.805 164.609 168.27 128.941 166.114 121.308C165.773 120.144 164.354 118.782 162.198 117.392" stroke="#294485" stroke-width="1.4188" stroke-miterlimit="10"/>
<path d="M153.174 214.125C151.415 215.715 149.258 217.786 146.846 220.17C141.568 225.419 135.042 232.258 128.771 238.955C125.422 242.558 122.102 246.134 119.094 249.425" stroke="#294485" stroke-width="1.4188" stroke-miterlimit="10"/>
<path d="M84.1918 271.928C86.0363 272.013 89.5833 272.211 90.3494 272.268C90.3494 272.268 95.9679 273.205 88.6185 278.596C88.6185 278.596 83.2838 280.1 79.68 279.646C79.0274 279.561 78.6017 280.327 79.0558 280.809C82.7163 284.839 90.6048 293.181 95.9963 296.587C97.6421 297.636 98.3798 299.736 97.9826 301.609C97.6137 303.34 96.2233 304.759 92.0804 303.34C92.0804 303.34 78.1477 296.274 77.2113 294.373" stroke="#294485" stroke-width="1.4188" stroke-miterlimit="10"/>
<path d="M72.0186 270.538C76.3033 270.765 80.503 271.105 82.2907 271.588C82.688 271.673 83.0568 271.786 83.4257 271.843" stroke="#294485" stroke-width="1.4188" stroke-miterlimit="10"/>
<path d="M59.9586 270.055C59.9586 270.055 65.946 270.197 71.8766 270.509" stroke="#294485" stroke-width="1.4188" stroke-miterlimit="10"/>
<path d="M78.7721 311.938C78.7721 311.938 78.687 311.938 78.6586 311.909C78.5167 312.278 76.8141 316.308 71.1105 313.328C71.1105 313.328 55.4186 304.957 50.1974 295.678C50.1974 295.678 44.0114 286.882 39.0456 281.518C37.4565 279.816 36.0094 278.454 34.9311 277.801C34.7608 277.716 34.6189 277.631 34.4771 277.574" stroke="#294485" stroke-width="1.4188" stroke-miterlimit="10"/>
<path d="M92.0804 303.368C92.7047 308.533 88.1078 308.391 86.4336 308.192C86.0647 308.135 85.8377 308.079 85.8377 308.079C85.8377 308.079 85.8377 308.107 85.8377 308.164C85.8093 308.93 85.185 313.811 78.8004 311.938" stroke="#294485" stroke-width="1.4188" stroke-miterlimit="10"/>
<path d="M72.5292 300.729C72.5292 300.729 82.9148 307.568 85.8659 308.192C86.1497 308.278 86.3483 308.278 86.4618 308.192" stroke="#294485" stroke-width="1.4188" stroke-miterlimit="10"/>
<path d="M68.2728 305.61C68.2728 305.61 76.1046 311.37 78.6301 311.909C78.6585 311.909 78.7152 311.909 78.7436 311.909H78.772C78.9422 311.938 79.0557 311.938 79.1692 311.909" stroke="#294485" stroke-width="1.4188" stroke-miterlimit="10"/>
<path d="M164.014 262.223L166 291.535L167.561 314.406C167.561 314.406 163.957 316.109 157.175 318.294C138.56 324.281 95.968 333.957 38.7051 321.841C35.8391 321.245 32.9448 320.564 29.9937 319.854V293.351" stroke="#294485" stroke-width="1.4188" stroke-miterlimit="10"/>
<path d="M38.705 321.869C53.8578 423.03 48.7501 512.557 48.7501 512.557C48.7501 512.557 79.0557 520.7 89.867 516.529C90.775 516.189 91.5696 515.735 92.1655 515.195C92.1655 515.195 91.4277 349.252 96.053 344.967C96.053 344.967 124.089 445.617 125.394 522.148C125.394 522.148 126.046 522.602 127.267 523.226C132.034 525.695 145.371 530.774 160.892 521.211C161.176 521.041 161.46 520.871 161.744 520.672C161.744 520.672 155.387 318.861 157.175 318.294" stroke="#294485" stroke-width="1.4188" stroke-miterlimit="10"/>
<path d="M95.9963 296.615C95.9963 296.615 100.48 296.558 105.673 293.351C107.971 291.933 110.411 289.89 112.653 286.938L120.428 282.483" stroke="#294485" stroke-width="1.4188" stroke-miterlimit="10"/>
<path d="M48.7501 512.556L42.5641 518.714C41.7129 519.565 40.9183 520.473 40.2373 521.466C38.6482 523.765 33.8243 529.128 22.5874 531.568C20.6011 531.994 18.8134 533.1 17.5932 534.746C16.6284 536.023 15.692 537.641 15.3799 539.286C15.2096 540.166 15.2096 541.046 15.4934 541.897C15.9758 543.373 17.3094 544.763 19.9768 545.784C19.9768 545.784 33.5405 549.275 48.3812 546.267C49.8 545.983 51.1905 545.472 52.4958 544.791C57.8305 542.124 72.9549 534.888 80.2476 534.689C89.1576 534.462 91.3426 534.689 91.3426 534.689L89.867 516.472" stroke="#294485" stroke-width="1.4188" stroke-miterlimit="10"/>
<path d="M91.3426 534.718V539.571C86.2917 544.111 77.3816 543.118 72.4442 542.124C70.2308 541.67 67.9324 542.124 65.9744 543.288C57.7737 548.112 42.6209 551.829 42.6209 551.829C20.4308 556.171 13.4503 547.487 13.4503 547.487L15.2664 539.258" stroke="#294485" stroke-width="1.4188" stroke-miterlimit="10"/>
<path d="M127.267 523.226L122.641 536.903C122.641 536.903 115.916 543.486 116.172 549.757C116.2 550.836 116.03 551.914 115.633 552.907C114.98 554.525 114.412 556.993 116.172 558.214C116.172 558.214 125.649 569.706 149.088 560.171C149.088 560.171 156.976 555.518 157.657 551.574C157.657 551.574 157.487 546.04 159.644 544.111C160.296 543.515 160.552 542.635 160.552 541.755V536.279C160.552 536.279 161.772 531.795 160.552 529.128C160.552 529.128 159.701 522.999 160.892 521.154C161.119 520.814 161.375 520.615 161.744 520.615" stroke="#294485" stroke-width="1.4188" stroke-miterlimit="10"/>
<path d="M47.4733 65.2078L64.3854 63.3634C65.8042 63.1931 67.1095 64.2714 67.223 65.7186L67.3081 66.6267L66.7406 72.4437C66.8541 73.9761 65.7475 75.3381 64.2435 75.5367L51.8148 77.7501C50.1974 77.9771 48.7218 76.9555 48.2678 75.4516C48.211 75.2814 48.1543 75.0543 48.1259 74.8557L47.757 71.252" stroke="#294485" stroke-width="1.4188" stroke-miterlimit="10"/>
<path d="M67.3081 66.627L74.6575 66.2298M74.6575 66.2298V63.8745C74.6575 62.4841 75.7074 61.2923 77.0978 61.1504L93.1587 59.4195C94.3789 59.2776 95.4855 60.214 95.5707 61.4626V61.9733L96.0247 68.1593C96.1098 69.6633 95.0599 70.9969 93.556 71.1956L79.0558 73.3238L78.2613 73.4373C76.7857 73.6643 75.452 72.5292 75.4237 71.0821L74.6575 66.2298Z" stroke="#294485" stroke-width="1.4188" stroke-miterlimit="10"/>
<path d="M103.119 61.3208L100.962 61.4911L95.599 61.9734" stroke="#294485" stroke-width="1.4188" stroke-miterlimit="10"/>
<path d="M61.1222 69.0387C61.1222 69.8899 60.4128 70.571 59.5899 70.571C58.767 70.571 58.0576 69.8899 58.0576 69.0387C58.0576 68.1874 58.767 67.5063 59.5899 67.5063C60.4128 67.5063 61.1222 68.1874 61.1222 69.0387Z" stroke="#294485" stroke-width="1.4188" stroke-miterlimit="10"/>
<path d="M84.504 66.882C85.3503 66.882 86.0363 66.196 86.0363 65.3497C86.0363 64.5034 85.3503 63.8174 84.504 63.8174C83.6577 63.8174 82.9717 64.5034 82.9717 65.3497C82.9717 66.196 83.6577 66.882 84.504 66.882Z" stroke="#294485" stroke-width="1.4188" stroke-miterlimit="10"/>
<path d="M62.9098 66.7119L57.2346 67.2511" stroke="#294485" stroke-width="1.4188" stroke-miterlimit="10"/>
<path d="M86.7173 63.1934L79.1976 63.9028" stroke="#294485" stroke-width="1.4188" stroke-miterlimit="10"/>
<path d="M91.059 58.3692H77.9492C76.7007 58.3692 75.7075 57.376 75.7075 56.1275C75.7075 54.8789 76.7007 53.8857 77.9492 53.8857H91.059C92.2791 53.8857 93.3007 54.9073 93.3007 56.1275C93.3007 57.3476 92.2791 58.3692 91.059 58.3692Z" stroke="#294485" stroke-width="1.4188" stroke-miterlimit="10"/>
<path d="M63.3639 61.32L50.6514 64.5265C49.4312 64.8102 48.2394 64.1008 47.9273 62.8807C47.8705 62.7104 47.8422 62.5118 47.8422 62.3415C47.8422 61.3483 48.5232 60.4403 49.5447 60.1849L62.2856 56.9784C63.4774 56.6663 64.6975 57.4041 65.0097 58.5959C65.0381 58.7661 65.0948 58.9648 65.0948 59.135C65.0948 60.1565 64.3854 61.0646 63.3922 61.32H63.3639Z" stroke="#294485" stroke-width="1.4188" stroke-miterlimit="10"/>
<path d="M85.0431 78.2046C85.0431 78.2046 87.3416 79.2545 89.0725 81.2408C90.1224 82.4326 90.9737 83.9649 91.0304 85.781" stroke="#294485" stroke-width="1.4188" stroke-miterlimit="10"/>
<path d="M86.7174 83.5386C86.7174 83.5386 84.7878 91.9379 77.0695 93.1581C77.0695 93.1581 67.4784 94.5201 65.2367 87.9369L72.2172 86.5181L86.7174 83.5386Z" stroke="#294485" stroke-width="1.4188" stroke-miterlimit="10"/>
<path d="M65.2366 77.7783C65.2366 77.7783 62.8247 83.0847 70.7416 82.7442C70.9686 82.7442 71.1956 82.7158 71.4226 82.659C72.1036 82.5171 72.7563 82.2334 73.3238 81.8361C74.5724 80.9565 76.7289 79.6228 78.6018 79.566C79.453 79.5377 80.2476 78.9418 80.5313 78.1472C80.5597 78.0337 80.6165 77.9202 80.6165 77.8067C80.7583 76.9554 80.4746 75.8204 79.226 74.2881" stroke="#294485" stroke-width="1.4188" stroke-miterlimit="10"/>
<path d="M108.851 98.6348C108.453 99.1456 105.672 81.7227 105.672 81.7227" stroke="#294485" stroke-width="1.4188" stroke-miterlimit="10"/>
<path d="M107.347 71.6211C106.808 71.3941 106.524 70.8266 106.609 70.2307C106.949 68.2444 107.999 63.9596 110.468 63.7326C110.979 63.6758 111.376 64.1582 111.348 64.669C111.206 67.0242 109.702 72.7562 109.475 72.5575L107.318 71.6211H107.347Z" stroke="#294485" stroke-width="1.4188" stroke-miterlimit="10"/>
<path d="M45.8274 75.8774C46.168 76.6435 46.1112 77.5516 45.7139 78.2893L44.2384 80.2473C44.2384 80.2473 40.8333 74.7423 40.436 72.983C40.3509 72.6141 43.8127 71.3372 45.7991 75.9057L45.8274 75.8774Z" stroke="#294485" stroke-width="1.4188" stroke-miterlimit="10"/>
<path d="M31.611 50.2536C31.611 50.2536 28.1491 20.9411 45.2882 11.8892C45.5152 11.7757 45.6855 11.6338 45.8841 11.4919C46.0828 11.2933 46.253 11.0946 46.3949 10.8392C47.1327 9.61907 49.2325 7.00847 54.4253 6.04368C54.8226 5.95856 55.1915 5.81668 55.5036 5.56129C55.5887 5.47616 55.6739 5.39104 55.759 5.27753C56.5535 4.19924 58.2561 2.18454 59.987 2.18454L73.7778 0.708984C73.7778 0.708984 75.9911 0.708984 76.7573 2.04266L76.814 2.15616C77.041 2.61018 77.5234 2.92232 78.0342 2.95069L86.6889 3.48984L88.0226 4.82351L88.1645 4.96539C88.5333 4.96539 108.992 5.0789 114.441 29.4823C115.207 32.8307 115.661 36.6615 115.746 41.003C115.746 41.003 121.563 41.8259 121.364 49.005C121.364 49.005 119.492 48.3524 116.2 47.4727C111.575 46.2526 104.169 44.5784 95.145 43.642C81.3542 42.2232 63.7894 42.5069 46.7922 48.6645C42.706 50.1401 38.6482 51.9562 34.6472 54.1695C32.6609 55.2762 30.7029 56.468 28.7734 57.7733C28.7734 57.7733 25.6236 54.6519 31.6677 50.2536C32.1501 49.9131 32.7176 49.5442 33.3419 49.1469C36.8322 47.0471 42.4506 44.6919 51.3607 42.2799" fill="#F7F3EA"/>
<path d="M31.611 50.2536C31.611 50.2536 28.1491 20.9411 45.2882 11.8892C45.5152 11.7756 45.6855 11.6338 45.8841 11.4919C46.0828 11.2933 46.253 11.0946 46.3949 10.8392C47.1327 9.61907 49.2325 7.00847 54.4253 6.04368C54.8226 5.95856 55.1915 5.81668 55.5036 5.56129C55.5887 5.47616 55.6739 5.39104 55.759 5.27753C56.5535 4.19924 58.2561 2.18454 59.987 2.18454L73.7778 0.708984C73.7778 0.708984 75.9911 0.708984 76.7573 2.04266L76.814 2.15616C77.041 2.61018 77.5234 2.92232 78.0342 2.95069L86.6889 3.48984L88.0226 4.82351L88.1645 4.96539C88.5333 4.96539 108.992 5.0789 114.441 29.4823C115.207 32.8307 115.661 36.6615 115.746 41.003C115.746 41.003 121.563 41.8259 121.364 49.005C121.364 49.005 119.492 48.3524 116.2 47.4727C111.575 46.2526 104.169 44.5784 95.145 43.642C81.3542 42.2232 63.7894 42.5069 46.7922 48.6645C42.706 50.1401 38.6482 51.9562 34.6472 54.1695C32.6609 55.2762 30.7029 56.468 28.7734 57.7733C28.7734 57.7733 25.6236 54.6519 31.6677 50.2536C32.1501 49.9131 32.7176 49.5442 33.3419 49.1469C36.8322 47.0471 42.4506 44.6919 51.3607 42.2799" stroke="#294485" stroke-width="1.4188" stroke-miterlimit="10"/>
<path d="M115.462 40.9748C115.264 40.9464 113.873 40.6343 111.83 40.1802C105.758 38.9033 93.7829 36.6332 88.5901 37.5696" stroke="#294485" stroke-width="1.4188" stroke-miterlimit="10"/>
<path d="M45.8842 11.2935C45.8842 11.2935 45.8842 11.3786 45.8842 11.4921C45.9693 12.5136 46.4233 16.9403 47.4732 21.594C48.5515 26.503 50.3392 31.6107 53.0633 33.1147" stroke="#294485" stroke-width="1.4188" stroke-miterlimit="10"/>
<path d="M55.5037 5.24951V5.53327C55.5037 6.63994 55.6739 10.4991 56.6671 14.0461C57.2062 16.0892 58.0575 18.0471 59.3061 19.324" stroke="#294485" stroke-width="1.4188" stroke-miterlimit="10"/>
<path d="M76.5587 2.15625C76.5587 2.15625 74.8561 9.5624 75.8209 14.4431C75.9628 15.2944 76.2182 16.0889 76.5587 16.7132" stroke="#294485" stroke-width="1.4188" stroke-miterlimit="10"/>
<path d="M87.8806 4.93701C87.8806 4.93701 87.3131 10.6974 87.4266 16.9401C87.5685 21.8775 88.136 27.0987 89.7818 29.9931" stroke="#294485" stroke-width="1.4188" stroke-miterlimit="10"/>
<path d="M28.745 57.7734C28.745 57.7734 30.5327 59.8165 33.9662 58.1139" stroke="#294485" stroke-width="1.4188" stroke-miterlimit="10"/>
<path d="M121.336 48.9771C121.336 48.9771 122.131 53.2051 115.945 51.0201" stroke="#294485" stroke-width="1.4188" stroke-miterlimit="10"/>
<path d="M129.168 103.828C137.028 106.524 147.924 110.411 155.189 113.646C155.217 113.646 155.274 113.646 155.302 113.675C155.501 113.788 155.728 113.873 155.926 113.958C158.736 115.235 160.949 116.37 162.084 117.307C162.084 117.307 162.141 117.335 162.169 117.364" stroke="#294485" stroke-width="1.4188" stroke-miterlimit="10"/>
<path d="M46.7354 122.925L52.7227 119.662L52.8362 119.605L57.4048 117.108L60.9518 115.15C60.9518 115.15 60.9518 115.434 61.0085 116.001C61.4058 120.683 64.0448 143.469 79.4813 155.018C79.4813 155.018 119.52 104.537 119.265 100.479C119.265 100.479 119.265 100.479 119.321 100.479C119.435 100.479 119.548 100.536 119.69 100.593C120.797 100.962 124.06 102.04 128.345 103.487" stroke="#294485" stroke-width="1.4188" stroke-miterlimit="10"/>
<path d="M105.304 264.521L92.4493 272.836C92.4493 272.836 87.7957 270.679 84.2203 271.928C83.9649 271.928 83.7379 271.871 83.4541 271.842C81.6664 271.615 76.8425 271.019 72.0469 270.537C71.9902 270.537 71.9334 270.537 71.8767 270.537C66.4569 269.998 61.037 269.629 59.9587 270.083L52.0986 261.854L51.3324 261.059L46.7923 249.993L42.0818 238.472L34.4203 219.772V217.445L34.6757 204.847L35.9526 129.139V128.799L41.5711 125.734L46.7071 122.925" stroke="#294485" stroke-width="1.4188" stroke-miterlimit="10"/>
<path d="M46.7354 122.925C46.7071 124.344 44.3235 198.348 46.6503 204.79C46.6787 204.903 46.5935 205.017 46.48 205.017L34.704 204.875" stroke="#294485" stroke-width="1.4188" stroke-miterlimit="10"/>
<path d="M57.4332 117.108C57.4332 117.108 57.4332 117.193 57.4332 117.335C57.0927 121.988 51.3891 198.689 56.0144 204.393C56.1563 204.563 56.3833 204.62 56.6103 204.62L115.491 205.272C115.491 205.272 116.512 119.775 128.373 103.516C128.657 103.601 128.912 103.686 129.225 103.799L139.44 107.517C139.44 107.517 126.841 158.877 128.856 205.357H144.831" stroke="#294485" stroke-width="1.4188" stroke-miterlimit="10"/>
<path d="M34.4771 217.445L145.796 218.637" stroke="#294485" stroke-width="1.4188" stroke-miterlimit="10"/>
<path d="M42.1101 238.472H128.26" stroke="#294485" stroke-width="1.4188" stroke-miterlimit="10"/>
<path d="M47.2745 249.765L119.038 249.396H119.066" stroke="#294485" stroke-width="1.4188" stroke-miterlimit="10"/>
<path d="M105.701 293.352H128.26" stroke="#294485" stroke-width="1.4188" stroke-miterlimit="10"/>
<path d="M140.32 293.352H140.348L166 291.536" stroke="#294485" stroke-width="1.4188" stroke-miterlimit="10"/>
<path d="M155.302 113.703C155.302 113.703 139.043 152.436 144.718 205.386C145.172 209.67 145.768 214.04 146.562 218.495C146.648 219.035 146.733 219.602 146.846 220.141" stroke="#294485" stroke-width="1.4188" stroke-miterlimit="10"/>
</g>
<defs>
<clipPath id="clip0_3259_419">
<rect width="184.984" height="564.712" fill="white"/>
</clipPath>
</defs>
</svg>
