<svg preserveAspectRatio="none" width="100%" height="100%" overflow="visible" style="display: block;" viewBox="0 0 200.724 208.459" fill="none" xmlns="http://www.w3.org/2000/svg">
<g id="oggetto">
<path id="Vector" d="M133.233 69H138.161C139.94 69.0002 141.393 70.4544 141.394 72.2637V77.8936C141.394 79.7029 139.94 81.158 138.161 81.1582H133.233C131.455 81.1582 130 79.7031 130 77.8936V72.2637C130 70.4543 131.455 69 133.233 69Z" fill="var(--fill-0, #2A4385)" stroke="var(--stroke-0, #2A4385)" stroke-width="2"/>
<path id="Vector_2" d="M188.447 179.122H94.5913C82.1896 178.756 66.117 153.205 65.4225 98.4725C65.0588 69.0909 72.2683 58.0311 85.9266 56.2323C86.092 56.2323 86.2243 56.1656 86.3896 56.1656H168.538C172.573 56.1656 175.88 52.8677 175.88 48.7703C175.88 44.7061 172.606 41.4082 168.571 41.4082H8.30872C4.27404 41.4082 1 44.7061 1 48.7703V50.6024C1 52.3347 2.42206 52.7344 3.9764 53.3341C6.05988 54.4334 22.5293 58.3643 24.1829 102.67C25.638 141.712 4.07561 174.991 3.61262 182.12V190.648C3.61262 192.813 5.33232 194.546 7.48194 194.546H197.905C198.898 194.546 199.724 193.713 199.724 192.714V190.415C199.724 184.152 194.698 179.089 188.48 179.089L188.447 179.122Z" fill="var(--fill-0, #F7F3EA)" stroke="var(--stroke-0, #2A4385)" stroke-width="2" stroke-miterlimit="10"/>
<path id="Vector_3" d="M183.883 21.9199H176.542C174.679 21.9199 173.168 23.4412 173.168 25.3178V35.7446C173.168 37.6212 174.679 39.1425 176.542 39.1425H183.883C185.746 39.1425 187.257 37.6212 187.257 35.7446V25.3178C187.257 23.4412 185.746 21.9199 183.883 21.9199Z" fill="var(--fill-0, #FCB531)" stroke="var(--stroke-0, #2A4385)" stroke-width="2" stroke-miterlimit="10"/>
<path id="Vector_4" d="M33.4761 1H144.066C161.164 1 175.02 14.9579 175.02 32.1805V41.9744H2.52148V32.1805C2.52148 14.9579 16.4114 1 33.4761 1Z" fill="var(--fill-0, #FCB531)" stroke="var(--stroke-0, #2A4385)" stroke-width="2" stroke-miterlimit="10"/>
<path id="Vector_5" d="M94.9888 13.1602C97.7353 13.1604 99.974 15.4051 99.9741 18.1895C99.9741 20.9739 97.7353 23.2195 94.9888 23.2197C92.242 23.2197 90.0024 20.9741 90.0024 18.1895C90.0026 15.405 92.2421 13.1602 94.9888 13.1602Z" fill="var(--fill-0, #F7F3EA)" stroke="var(--stroke-0, #2A4385)" stroke-width="2"/>
<path id="Vector_6" d="M122.503 66.1602H149.39C149.39 68.7252 147.34 70.7906 144.793 70.7906H127.1C124.554 70.7906 122.503 68.7252 122.503 66.1602Z" fill="var(--fill-0, #FCB531)" stroke="var(--stroke-0, #2A4385)" stroke-width="2" stroke-miterlimit="10"/>
<path id="Vector_7" d="M113.309 57.3984H158.915V57.9981C158.915 63.4613 154.516 67.8919 149.092 67.8919H123.098C117.675 67.8919 113.276 63.4613 113.276 57.9981V57.3984H113.309Z" fill="var(--fill-0, #FCB531)" stroke="var(--stroke-0, #2A4385)" stroke-width="2" stroke-miterlimit="10"/>
<path id="Vector_8" d="M87.1171 112.863H189.604C192.746 112.863 195.293 115.428 195.293 118.593V127.388C195.293 155.203 172.87 177.789 145.256 177.789H131.499C103.884 177.789 81.4619 155.203 81.4619 127.388V118.593C81.4619 115.428 84.0084 112.863 87.1501 112.863H87.1171Z" fill="var(--fill-0, #F7F3EA)" stroke="var(--stroke-0, #2A4385)" stroke-width="2" stroke-miterlimit="10"/>
<path id="Vector_9" d="M195.848 195H5.58939C3.63507 195 2.05078 196.596 2.05078 198.564V203.894C2.05078 205.863 3.63507 207.459 5.58939 207.459H195.848C197.802 207.459 199.386 205.863 199.386 203.894V198.564C199.386 196.596 197.802 195 195.848 195Z" fill="var(--fill-0, #FCB531)" stroke="var(--stroke-0, #2A4385)" stroke-width="2" stroke-miterlimit="10"/>
<path id="Vector_10" d="M44.6489 175.453C50.5301 175.453 55.2978 170.651 55.2978 164.727C55.2978 158.802 50.5301 154 44.6489 154C38.7677 154 34 158.802 34 164.727C34 170.651 38.7677 175.453 44.6489 175.453Z" fill="var(--fill-0, #2A4385)" stroke="var(--stroke-0, #2A4385)" stroke-width="2" stroke-miterlimit="10"/>
</g>
</svg>
