<svg xmlns="http://www.w3.org/2000/svg" fill="none" overflow="visible" preserveAspectRatio="none" style="display:block" viewBox="0 0 220 648.348"><path fill="var(--fill-0, #f7f3ea)" d="M213.295 53.304H6.477a4.27 4.27 0 0 0-4.27 4.272V639.93a4.27 4.27 0 0 0 4.27 4.272h206.818a4.27 4.27 0 0 0 4.269-4.272V57.576a4.27 4.27 0 0 0-4.269-4.272"/><g stroke="var(--stroke-0, #8c98b7)" stroke-miterlimit="10"><path fill="var(--fill-0, #f7f3ea)" d="M215.23 54.215H4.77A4.27 4.27 0 0 0 .5 58.488v3.104a4.27 4.27 0 0 0 4.27 4.272h210.46a4.27 4.27 0 0 0 4.27-4.272v-3.104a4.27 4.27 0 0 0-4.27-4.273ZM214.263 173.039H5.51a4.27 4.27 0 0 0-4.27 4.272v3.104a4.27 4.27 0 0 0 4.27 4.273h208.753a4.27 4.27 0 0 0 4.269-4.273v-3.104a4.27 4.27 0 0 0-4.269-4.272ZM215.23 291.891H4.77a4.27 4.27 0 0 0-4.27 4.272v3.104a4.27 4.27 0 0 0 4.27 4.272h210.46a4.27 4.27 0 0 0 4.27-4.272v-3.104a4.27 4.27 0 0 0-4.27-4.272ZM215.23 408.948H4.77A4.27 4.27 0 0 0 .5 413.22v3.105a4.27 4.27 0 0 0 4.27 4.272h210.46a4.27 4.27 0 0 0 4.27-4.272v-3.105a4.27 4.27 0 0 0-4.27-4.272ZM215.23 528.882H4.77a4.27 4.27 0 0 0-4.27 4.272v3.105a4.27 4.27 0 0 0 4.27 4.272h210.46a4.27 4.27 0 0 0 4.27-4.272v-3.105a4.27 4.27 0 0 0-4.27-4.272ZM214.149 635.288H6.477a4.27 4.27 0 0 0-4.27 4.272v3.104a4.27 4.27 0 0 0 4.27 4.273H214.15a4.27 4.27 0 0 0 4.269-4.273v-3.104a4.27 4.27 0 0 0-4.269-4.272Z"/><path fill="var(--fill-0, #f7f3ea)" d="M215.202 53.304h-5.75a4.27 4.27 0 0 0-4.269 4.272v585.088a4.27 4.27 0 0 0 4.269 4.273h5.75a4.27 4.27 0 0 0 4.27-4.273V57.576a4.27 4.27 0 0 0-4.27-4.272ZM10.52 54.215H4.77A4.27 4.27 0 0 0 .5 58.488v585.088a4.27 4.27 0 0 0 4.27 4.272h5.75a4.27 4.27 0 0 0 4.269-4.272V58.488a4.27 4.27 0 0 0-4.27-4.273ZM88.766 604.699h-59.29a4.27 4.27 0 0 0-4.27 4.272v22.045a4.27 4.27 0 0 0 4.27 4.272h59.29a4.27 4.27 0 0 0 4.27-4.272v-22.045a4.27 4.27 0 0 0-4.27-4.272Z"/><path fill="var(--fill-0, #f7f3ea)" d="M67.703 612.218H50.539a3.894 3.894 0 0 0-3.9 3.888 3.893 3.893 0 0 0 3.9 3.887h17.164c2.153 0 3.9-1.74 3.9-3.887a3.894 3.894 0 0 0-3.9-3.888ZM88.766 595.243h-59.29a4.27 4.27 0 0 0-4.27 4.273v.911a4.27 4.27 0 0 0 4.27 4.272h59.29a4.27 4.27 0 0 0 4.27-4.272v-.911a4.27 4.27 0 0 0-4.27-4.273ZM192.156 515.026h-50.695c-2.371 0-4.292 1.885-4.292 4.211v4.772c0 2.325 1.921 4.21 4.292 4.21h50.695c2.37 0 4.291-1.885 4.291-4.21v-4.772c0-2.326-1.921-4.211-4.291-4.211Z"/><path fill="var(--fill-0, #f7f3ea)" d="M192.156 501.833h-50.695c-2.371 0-4.292 1.885-4.292 4.211v4.772c0 2.325 1.921 4.21 4.292 4.21h50.695c2.37 0 4.291-1.885 4.291-4.21v-4.772c0-2.326-1.921-4.211-4.291-4.211ZM184.015 491.939h-37.707c-2.319 0-4.199 2.215-4.199 4.947s1.88 4.947 4.199 4.947h37.707c2.319 0 4.199-2.215 4.199-4.947s-1.88-4.947-4.199-4.947ZM104.885 515.026H54.19c-2.37 0-4.291 1.885-4.291 4.211v4.772c0 2.325 1.92 4.21 4.29 4.21h50.696c2.37 0 4.292-1.885 4.292-4.21v-4.772c0-2.326-1.922-4.211-4.292-4.211ZM96.745 505.132H59.037c-2.319 0-4.199 2.215-4.199 4.947s1.88 4.947 4.2 4.947h37.707c2.319 0 4.199-2.215 4.199-4.947s-1.88-4.947-4.2-4.947Z"/><path d="M155.343 371.78c4.559 0 8.254-3.698 8.254-8.259 0-4.562-3.695-8.26-8.254-8.26s-8.255 3.698-8.255 8.26a8.257 8.257 0 0 0 8.255 8.259Z"/><path fill="var(--fill-0, #f7f3ea)" d="M183.835 372.977h-56.984a4.27 4.27 0 0 0-4.27 4.272v27.455a4.27 4.27 0 0 0 4.27 4.273h56.984a4.27 4.27 0 0 0 4.269-4.273v-27.455a4.27 4.27 0 0 0-4.269-4.272ZM183.835 363.521h-56.984a4.27 4.27 0 0 0-4.27 4.272v.911a4.27 4.27 0 0 0 4.27 4.272h56.984a4.27 4.27 0 0 0 4.269-4.272v-.911a4.27 4.27 0 0 0-4.269-4.272Z"/><path d="M163.227 382.973h-15.826a3.987 3.987 0 0 0-3.985 3.988v.028a3.987 3.987 0 0 0 3.985 3.988h15.826a3.987 3.987 0 0 0 3.985-3.988v-.028a3.987 3.987 0 0 0-3.985-3.988Z"/><path fill="var(--fill-0, #f7f3ea)" d="M29.248 332.79h-6.006a4.27 4.27 0 0 0-4.269 4.272v67.614a4.27 4.27 0 0 0 4.27 4.272h6.005a4.27 4.27 0 0 0 4.27-4.272v-67.614a4.27 4.27 0 0 0-4.27-4.272ZM44.228 332.78l-5.945.852a4.27 4.27 0 0 0-3.621 4.834l9.58 66.932a4.27 4.27 0 0 0 4.831 3.623l5.945-.852a4.27 4.27 0 0 0 3.621-4.835l-9.579-66.931a4.27 4.27 0 0 0-4.832-3.623Z"/><g fill="var(--fill-0, #f7f3ea)"><path d="M52.76 248.884a3.73 3.73 0 0 0-3.73-3.731 3.73 3.73 0 0 0-3.728 3.731v2.165a3.73 3.73 0 0 0 3.729 3.731 3.73 3.73 0 0 0 3.728-3.731zM75.73 242.248H65.568a4.27 4.27 0 0 0-4.27 4.272v3.988a4.27 4.27 0 0 0 4.27 4.272H75.73a4.27 4.27 0 0 0 4.27-4.272v-3.988a4.27 4.27 0 0 0-4.27-4.272ZM98.985 247.574a4.13 4.13 0 0 0-4.128-4.13 4.13 4.13 0 0 0-4.127 4.13v4.842a4.13 4.13 0 0 0 4.127 4.13 4.13 4.13 0 0 0 4.127-4.13z"/><path d="M98.444 248.628h-55.59a4.27 4.27 0 0 0-4.27 4.272v34.718a4.27 4.27 0 0 0 4.27 4.273h55.59a4.27 4.27 0 0 0 4.269-4.273V252.9a4.27 4.27 0 0 0-4.27-4.272Z"/><path d="M98.444 258.254h-55.59a4.27 4.27 0 0 0-4.27 4.273v14.724a4.27 4.27 0 0 0 4.27 4.272h55.59a4.27 4.27 0 0 0 4.269-4.272v-14.724a4.27 4.27 0 0 0-4.27-4.273Z"/><path d="M70.663 284.97c8.332 0 15.086-6.759 15.086-15.095s-6.754-15.095-15.086-15.095c-8.331 0-15.086 6.758-15.086 15.095s6.755 15.095 15.086 15.095Z"/><path d="M70.663 280.042c5.612 0 10.162-4.552 10.162-10.167s-4.55-10.168-10.162-10.168-10.161 4.552-10.161 10.168 4.549 10.167 10.161 10.167Z"/></g><path fill="var(--fill-0, #f7f3ea)" d="M178.541 215.162h-9.82a4.27 4.27 0 0 0-4.27 4.273v68.183a4.27 4.27 0 0 0 4.27 4.273h9.82a4.27 4.27 0 0 0 4.269-4.273v-68.183a4.27 4.27 0 0 0-4.269-4.273Z"/><path fill="var(--fill-0, #f7f3ea)" d="M196.871 215.162h-9.82a4.27 4.27 0 0 0-4.269 4.273v68.184a4.27 4.27 0 0 0 4.269 4.272h9.82a4.27 4.27 0 0 0 4.27-4.272v-68.184a4.27 4.27 0 0 0-4.27-4.273ZM31.042 97.535h-7.088a4.27 4.27 0 0 0-4.27 4.272v66.96a4.27 4.27 0 0 0 4.27 4.272h7.088a4.27 4.27 0 0 0 4.27-4.272v-66.96a4.27 4.27 0 0 0-4.27-4.272Z"/><path fill="var(--fill-0, #f7f3ea)" d="M46.436 97.798h-7.087a4.27 4.27 0 0 0-4.27 4.272v66.96a4.27 4.27 0 0 0 4.27 4.272h7.087a4.27 4.27 0 0 0 4.27-4.272v-66.96a4.27 4.27 0 0 0-4.27-4.272ZM62.295 97.535h-7.088a4.27 4.27 0 0 0-4.27 4.272v66.96a4.27 4.27 0 0 0 4.27 4.272h7.088a4.27 4.27 0 0 0 4.27-4.272v-66.96a4.27 4.27 0 0 0-4.27-4.272ZM27.968 104.769h-1.253a2.64 2.64 0 0 0-2.647 2.635 2.64 2.64 0 0 0 2.647 2.635h1.253a2.64 2.64 0 0 0 2.647-2.635 2.64 2.64 0 0 0-2.647-2.635Z"/><path fill="var(--fill-0, #f7f3ea)" d="M59.392 104.769h-1.253a2.64 2.64 0 0 0-2.647 2.635 2.64 2.64 0 0 0 2.647 2.635h1.252a2.64 2.64 0 0 0 2.648-2.635 2.64 2.64 0 0 0-2.648-2.635Z"/><path d="M169.575 17.02c4.558 0 8.254-3.699 8.254-8.26 0-4.562-3.696-8.26-8.254-8.26-4.559 0-8.255 3.698-8.255 8.26s3.696 8.26 8.255 8.26Z"/><path fill="var(--fill-0, #f7f3ea)" d="M198.067 18.215h-56.985a4.27 4.27 0 0 0-4.269 4.272v27.456a4.27 4.27 0 0 0 4.269 4.272h56.985a4.27 4.27 0 0 0 4.269-4.272V22.487a4.27 4.27 0 0 0-4.269-4.272Z"/><path fill="var(--fill-0, #f7f3ea)" d="M198.067 8.76h-56.985a4.27 4.27 0 0 0-4.269 4.272v.911a4.27 4.27 0 0 0 4.269 4.272h56.985a4.27 4.27 0 0 0 4.269-4.272v-.911a4.27 4.27 0 0 0-4.269-4.272Z"/><path d="M177.459 28.212h-15.826a3.986 3.986 0 0 0-3.985 3.988v.028a3.986 3.986 0 0 0 3.985 3.987h15.826a3.986 3.986 0 0 0 3.985-3.987v-.029a3.986 3.986 0 0 0-3.985-3.987Z"/></g></svg>