<svg xmlns="http://www.w3.org/2000/svg" fill="none" overflow="visible" preserveAspectRatio="none" style="display:block" viewBox="0 0 129.014 193.68"><g stroke="var(--stroke-0, #8c98b7)" stroke-miterlimit="10"><path fill="var(--fill-0, #f7f3ea)" d="m125.708 17.453-13.298-2.141a3.336 3.336 0 0 0-3.82 2.771L85.411 162.904a3.343 3.343 0 0 0 2.763 3.832l13.298 2.141a3.335 3.335 0 0 0 3.82-2.772l23.18-144.82a3.344 3.344 0 0 0-2.764-3.832ZM88.222 1.883 74.822.517a3.336 3.336 0 0 0-3.653 2.99L56.391 149.43a3.34 3.34 0 0 0 2.98 3.664l13.399 1.365a3.336 3.336 0 0 0 3.653-2.989L91.202 5.547a3.34 3.34 0 0 0-2.98-3.664Z"/><path fill="var(--fill-0, #f7f3ea)" d="M16.251 6.288 3.224 9.718a3.345 3.345 0 0 0-2.377 4.084L37.98 155.669a3.33 3.33 0 0 0 4.07 2.385l13.027-3.43a3.345 3.345 0 0 0 2.378-4.083L20.322 8.673a3.333 3.333 0 0 0-4.07-2.385Z"/><path fill="var(--fill-0, #f7f3ea)" d="M54.498 20.176H41.029a3.34 3.34 0 0 0-3.334 3.344v126.948a3.34 3.34 0 0 0 3.334 3.343h13.469a3.34 3.34 0 0 0 3.333-3.343V23.52a3.34 3.34 0 0 0-3.333-3.344Z"/><path fill="var(--fill-0, #f7f3ea)" d="M125.105 104.974H9.202a3.34 3.34 0 0 0-3.333 3.343v81.519a3.34 3.34 0 0 0 3.333 3.344h115.903a3.34 3.34 0 0 0 3.334-3.344v-81.519a3.34 3.34 0 0 0-3.334-3.343Z"/><path d="M87.21 118.348H47.072a3.34 3.34 0 0 0-3.334 3.344v16.941a3.34 3.34 0 0 0 3.334 3.344H87.21a3.34 3.34 0 0 0 3.333-3.344v-16.941a3.34 3.34 0 0 0-3.333-3.344Z"/></g></svg>