<svg xmlns="http://www.w3.org/2000/svg" fill="none" overflow="visible" preserveAspectRatio="none" style="display:block" viewBox="0 0 232 167"><g fill="var(--fill-0, #f7f3ea)" stroke="var(--stroke-0, #8c98b7)" stroke-miterlimit="10"><path d="M228.491.5H3.509A3.007 3.007 0 0 0 .5 3.505v159.99a3.007 3.007 0 0 0 3.009 3.005H228.49a3.007 3.007 0 0 0 3.009-3.005V3.505A3.007 3.007 0 0 0 228.491.5Z"/><path d="M104.567 44.079H83.986a3.007 3.007 0 0 0-3.009 3.005v22.621a3.007 3.007 0 0 0 3.009 3.005h20.581a3.007 3.007 0 0 0 3.008-3.005v-22.62a3.007 3.007 0 0 0-3.008-3.006ZM52.453 50.41h-20.58a3.007 3.007 0 0 0-3.01 3.006v22.62a3.007 3.007 0 0 0 3.01 3.006h20.58a3.007 3.007 0 0 0 3.01-3.005V53.416a3.007 3.007 0 0 0-3.01-3.006ZM149.11 84.19l-20.128-4.288a3.01 3.01 0 0 0-3.57 2.313l-4.724 22.123a3.005 3.005 0 0 0 2.315 3.566l20.128 4.288a3.01 3.01 0 0 0 3.57-2.312l4.724-22.124a3.005 3.005 0 0 0-2.315-3.566Z"/><path d="M43.226 42.035h-1.544a3.007 3.007 0 0 0-3.01 3.006v6.21a3.007 3.007 0 0 0 3.01 3.006h1.544a3.007 3.007 0 0 0 3.01-3.005V45.04a3.007 3.007 0 0 0-3.01-3.005ZM96.021 36.325h-1.544a3.007 3.007 0 0 0-3.01 3.005v6.211a3.007 3.007 0 0 0 3.01 3.006h1.544a3.007 3.007 0 0 0 3.01-3.006v-6.21a3.007 3.007 0 0 0-3.01-3.006ZM136.842 71.288h-1.545a3.007 3.007 0 0 0-3.009 3.005v6.212a3.007 3.007 0 0 0 3.009 3.005h1.545a3.01 3.01 0 0 0 3.009-3.005v-6.212a3.01 3.01 0 0 0-3.009-3.005Z"/></g></svg>