<svg xmlns="http://www.w3.org/2000/svg" fill="none" overflow="visible" preserveAspectRatio="none" style="display:block" viewBox="0 0 189 367"><g stroke="var(--stroke-0, #2a4385)" stroke-miterlimit="10" stroke-width="2"><path fill="var(--fill-0, #f7f3ea)" d="m87.412 296.806-1.82-2.327a3.29 3.29 0 0 0-4.611-.568L18.4 342.67a3.277 3.277 0 0 0-.569 4.604l1.82 2.327a3.29 3.29 0 0 0 4.611.568l62.58-48.759a3.276 3.276 0 0 0 .569-4.604ZM170.786 349.764l1.82-2.327a3.276 3.276 0 0 0-.569-4.604l-60.68-47.279a3.29 3.29 0 0 0-4.612.568l-1.819 2.328a3.276 3.276 0 0 0 .568 4.604l60.681 47.278a3.29 3.29 0 0 0 4.611-.568ZM96.701 298.953h-2.913a3.283 3.283 0 0 0-3.286 3.28v41.243a3.283 3.283 0 0 0 3.286 3.28H96.7a3.283 3.283 0 0 0 3.286-3.28v-41.243a3.283 3.283 0 0 0-3.286-3.28Z"/><path fill="var(--fill-0, #2a4385)" d="M11.974 366c6.061 0 10.974-4.905 10.974-10.956s-4.913-10.956-10.974-10.956C5.914 344.088 1 348.993 1 355.044S5.913 366 11.974 366ZM95.234 366c6.061 0 10.974-4.905 10.974-10.956s-4.913-10.956-10.974-10.956c-6.06 0-10.974 4.905-10.974 10.956S89.173 366 95.234 366ZM177.026 366c6.061 0 10.974-4.905 10.974-10.956s-4.913-10.956-10.974-10.956-10.974 4.905-10.974 10.956S170.965 366 177.026 366Z"/><path fill="var(--fill-0, #f7f3ea)" d="M98.892 248.765h-7.404a3.283 3.283 0 0 0-3.286 3.28v33.852a3.283 3.283 0 0 0 3.286 3.28h7.404a3.283 3.283 0 0 0 3.286-3.28v-33.852a3.283 3.283 0 0 0-3.286-3.28Z"/><path fill="var(--fill-0, #2a4385)" d="M106.054 274.569h-21.62a3.283 3.283 0 0 0-3.285 3.28v33.852a3.283 3.283 0 0 0 3.285 3.28h21.62a3.283 3.283 0 0 0 3.286-3.28v-33.852a3.283 3.283 0 0 0-3.286-3.28ZM107.216 240.543H83.274a3.283 3.283 0 0 0-3.286 3.28v5.292a3.283 3.283 0 0 0 3.286 3.28h23.942a3.28 3.28 0 0 0 3.285-3.28v-5.292a3.28 3.28 0 0 0-3.285-3.28Z"/><path fill="var(--fill-0, #f7f3ea)" d="M94.336 161.446h-2.848a3.283 3.283 0 0 0-3.286 3.28v30.9a3.283 3.283 0 0 0 3.286 3.28h2.848a3.283 3.283 0 0 0 3.285-3.28v-30.9a3.283 3.283 0 0 0-3.285-3.28Z"/><path fill="var(--fill-0, #f7f3ea)" d="M93.13 1c37.917 0 68.693 30.725 68.693 68.578v95.498a3.28 3.28 0 0 1-3.285 3.28H27.723a3.28 3.28 0 0 1-3.286-3.28V69.578C24.437 31.725 55.213 1 93.13 1ZM93.272 240.855c31.024 0 57.334-.195 59.147-17.397.113-1.045-1.292-1.944-3.059-1.944H39.224c-1.768 0-3.173.899-3.06 1.944 1.677 17.202 26.084 17.397 57.13 17.397z"/><path fill="var(--fill-0, #f7f3ea)" d="M171.418 191.908H17.078a3.283 3.283 0 0 0-3.286 3.281v23.245a3.283 3.283 0 0 0 3.286 3.281h154.34a3.283 3.283 0 0 0 3.285-3.281v-23.245a3.283 3.283 0 0 0-3.285-3.281Z"/></g></svg>