<svg xmlns="http://www.w3.org/2000/svg" fill="none" overflow="visible" preserveAspectRatio="none" style="display:block" viewBox="0 0 234.983 196.32"><g stroke="var(--stroke-0, #8c98b7)" stroke-miterlimit="10"><path fill="var(--fill-0, #f7f3ea)" d="M231.533 14.561H3.45a2.95 2.95 0 0 0-2.95 2.95v163.815a2.95 2.95 0 0 0 2.95 2.95h228.083a2.95 2.95 0 0 0 2.95-2.95V17.511a2.95 2.95 0 0 0-2.95-2.95ZM231.533.5H3.45A2.95 2.95 0 0 0 .5 3.45v8.161a2.95 2.95 0 0 0 2.95 2.95h228.083a2.95 2.95 0 0 0 2.95-2.95V3.45a2.95 2.95 0 0 0-2.95-2.95ZM217.472 184.276H26.046a2.95 2.95 0 0 0-2.95 2.95v5.644a2.95 2.95 0 0 0 2.95 2.95h191.426a2.95 2.95 0 0 0 2.95-2.95v-5.644a2.95 2.95 0 0 0-2.95-2.95Z"/><path d="M113.48 14.561v169.715M104.099 35.643a2.674 2.674 0 1 0-5.35 0v38.84a2.674 2.674 0 1 0 5.35 0zM127.521 35.643a2.674 2.674 0 1 0-5.349 0v38.84a2.675 2.675 0 0 0 5.349 0z"/></g></svg>