<svg xmlns="http://www.w3.org/2000/svg" fill="none" overflow="visible" preserveAspectRatio="none" style="display:block" viewBox="0 0 476.229 185.819"><g stroke="var(--stroke-0, #8c98b7)" stroke-miterlimit="10"><g fill="var(--fill-0, #f7f3ea)"><path d="M95.552 185.319c18.377 0 33.275-14.899 33.275-33.276s-14.898-33.276-33.275-33.276c-18.378 0-33.276 14.898-33.276 33.276 0 18.377 14.898 33.276 33.276 33.276ZM375.102 180.879c18.378 0 33.276-14.898 33.276-33.276 0-18.377-14.898-33.275-33.276-33.275s-33.276 14.898-33.276 33.275c0 18.378 14.898 33.276 33.276 33.276Z"/><path d="M463.907 109.758c0 .232.13.439.362.439 2.117.077 11.746 1.626 11.436 23.827 0 0 1.523 19.697-19.594 20.678-15.85.749-45.383.903-45.383.903s4.75-41.304-35.625-41.355c-35.986-.052-36.063 37.148-36.063 37.148l-207.115 2.375s-2.53-35.186-34.102-35.729c-34.308-.567-37.07 32.373-37.07 32.373l-40.788.18S.5 150.029.5 126.021v-14.146c0-13.244 8.287-25.093 20.756-29.559 3.975-1.42 8.648-2.89 14.172-4.414 23.672-6.454 61.44-14.689 74.477-17.477 3.046-.645 5.885-2.013 8.338-3.95l62.318-49.513A28.48 28.48 0 0 1 198.27.766h134.729c.955 0 1.91-.051 2.865-.129 4.776-.413 23.182-.8 46.907 13.32 27.673 16.471 51.759 41.64 51.759 41.64 11.72 0 22.02 7.72 25.273 18.975 2.297 7.977 5.705 19.18 4.079 35.186z"/></g><path fill="var(--fill-0, #f7f3ea)" d="m271.921 12.951-61.776 1.007c-3.407-.026-6.738.955-9.552 2.865-8.519 5.783-29.48 20.317-62.704 45.41-.259.18-.129.593.18.593h274.363a.667.667 0 0 0 .568-1.007c-4.182-6.944-49.874-50.985-141.079-48.894z"/><path d="m273.753 14.656-.516 48.196"/><path fill="var(--fill-0, #f7f3ea)" d="M22.572 84.743h18.07a3.867 3.867 0 0 1 3.873 3.873v15.204a3.87 3.87 0 0 1-3.872 3.873H7.367a3.867 3.867 0 0 1-3.872-3.873c0-10.532 8.545-19.077 19.077-19.077Z"/></g></svg>