<svg xmlns="http://www.w3.org/2000/svg" fill="none" overflow="visible" preserveAspectRatio="none" style="display:block" viewBox="0 0 300 656"><g fill="var(--fill-0, #f7f3ea)" stroke="var(--stroke-0, #8c98b7)" stroke-miterlimit="10"><path d="M294.558 2.177H5.442A3.265 3.265 0 0 0 2.177 5.44V650.56a3.264 3.264 0 0 0 3.265 3.264h289.116a3.264 3.264 0 0 0 3.265-3.264V5.441a3.265 3.265 0 0 0-3.265-3.264Z"/><path d="M281.741 16H19.259C17.46 16 16 17.463 16 19.268v630.464A3.264 3.264 0 0 0 19.26 653H281.74c1.8 0 3.259-1.463 3.259-3.268V19.269A3.264 3.264 0 0 0 281.741 16Z"/><path d="M105.863 76.311H55.99a3.265 3.265 0 0 0-3.265 3.265v208.908a3.265 3.265 0 0 0 3.265 3.265h49.873a3.265 3.265 0 0 0 3.266-3.265V79.576a3.265 3.265 0 0 0-3.266-3.265ZM259.814 322.896a8.467 8.467 0 0 0-8.468-8.467 8.467 8.467 0 0 0-8.468 8.467v43.466a8.467 8.467 0 0 0 8.468 8.467 8.467 8.467 0 0 0 8.468-8.467z"/><path d="M248.081 331.21h-36.899a3.265 3.265 0 0 0-3.265 3.265v2.46a3.265 3.265 0 0 0 3.265 3.265h36.899a3.265 3.265 0 0 0 3.265-3.265v-2.46a3.265 3.265 0 0 0-3.265-3.265Z"/></g></svg>