<svg xmlns="http://www.w3.org/2000/svg" fill="none" overflow="visible" preserveAspectRatio="none" style="display:block" viewBox="0 0 611 416"><g stroke="var(--stroke-0, #2a4385)" stroke-miterlimit="10" stroke-width="2"><path fill="var(--fill-0, #f7f3ea)" d="M606.119 171.619H4.881A3.886 3.886 0 0 0 1 175.511v16.738a3.887 3.887 0 0 0 3.88 3.892H606.12a3.886 3.886 0 0 0 3.881-3.892v-16.738a3.886 3.886 0 0 0-3.881-3.892ZM21.981 200.033v211.075a3.887 3.887 0 0 0 3.88 3.892h16.687a3.887 3.887 0 0 0 3.881-3.892V200.033a3.887 3.887 0 0 0-3.88-3.892H25.861a3.887 3.887 0 0 0-3.881 3.892ZM561.466 200.033v211.074a3.887 3.887 0 0 0 3.881 3.893h16.687a3.886 3.886 0 0 0 3.88-3.893V200.033a3.886 3.886 0 0 0-3.88-3.892h-16.687a3.887 3.887 0 0 0-3.881 3.892Z"/><path fill="var(--fill-0, #f7f3ea)" d="M557.586 196.141H417.728a3.887 3.887 0 0 0-3.881 3.892v56.052a3.887 3.887 0 0 0 3.881 3.892h139.858a3.886 3.886 0 0 0 3.88-3.892v-56.052a3.886 3.886 0 0 0-3.88-3.892Z"/><path fill="var(--fill-0, #f7f3ea)" d="M557.586 259.951H417.728a3.887 3.887 0 0 0-3.881 3.892v56.052a3.887 3.887 0 0 0 3.881 3.892h139.858a3.886 3.886 0 0 0 3.88-3.892v-56.052a3.886 3.886 0 0 0-3.88-3.892Z"/><path fill="var(--fill-0, #2a4385)" d="M512.131 205.639h-44.214a3.886 3.886 0 0 0-3.88 3.892v1.038a3.886 3.886 0 0 0 3.88 3.892h44.214a3.886 3.886 0 0 0 3.88-3.892v-1.038a3.886 3.886 0 0 0-3.88-3.892ZM512.131 270.772h-44.214a3.886 3.886 0 0 0-3.88 3.893v1.037a3.886 3.886 0 0 0 3.88 3.893h44.214a3.886 3.886 0 0 0 3.88-3.893v-1.037a3.886 3.886 0 0 0-3.88-3.893ZM359.027 155.374H253.836a3.887 3.887 0 0 0-3.881 3.893v8.459a3.887 3.887 0 0 0 3.881 3.893h105.191a3.886 3.886 0 0 0 3.88-3.893v-8.459a3.886 3.886 0 0 0-3.88-3.893ZM325.99 139.804h-39.143a3.886 3.886 0 0 0-3.88 3.893v7.785a3.886 3.886 0 0 0 3.88 3.892h39.143a3.886 3.886 0 0 0 3.88-3.892v-7.785a3.886 3.886 0 0 0-3.88-3.893Z"/><path fill="var(--fill-0, #f7f3ea)" d="M405.646 1H207.165a3.887 3.887 0 0 0-3.881 3.892v132.343a3.887 3.887 0 0 0 3.881 3.893h198.481a3.887 3.887 0 0 0 3.881-3.893V4.892A3.887 3.887 0 0 0 405.646 1Z"/><path fill="var(--fill-0, #2a4385)" d="M389.244 12.158H223.515a3.886 3.886 0 0 0-3.88 3.893v93.366a3.886 3.886 0 0 0 3.88 3.893h165.729a3.887 3.887 0 0 0 3.881-3.893V16.051a3.887 3.887 0 0 0-3.881-3.893Z"/></g></svg>