<svg xmlns="http://www.w3.org/2000/svg" fill="none" overflow="visible" preserveAspectRatio="none" style="display:block" viewBox="0 0 79.404 86.074"><g stroke="var(--stroke-0, #2a4385)" stroke-miterlimit="10" stroke-width="2"><path fill="var(--fill-0, #f7f3ea)" d="m53.292 52.671 1.24 3.977c.242.564.646 1.04 1.156 1.38l2.285 1.505c.466.306.821.752 1.016 1.272l.943 2.505a3.18 3.18 0 0 0 1.473 1.68l1.827.986c.491.263.798.777.793 1.33 0 .263-.02.564-.073.885-.131.786.389 1.568 1.181 1.66.063.01.126.01.195.01.636 0 .49 1.068.335 1.734-.156.665.267 1.316.933 1.398h.034c.768.078 3.68 5.327 4.633 7.085.223.417.374.864.432 1.335.078.602-.136 1.36-.126 1.675.01.282 5.216 1.982 5.216 1.982s1.079-.03 1.429-.967c.296-.786.17-5.006.122-6.322a.85.85 0 0 0-.321-.636l-.661-.525a1.05 1.05 0 0 1-.394-.835l.015-.757a1.5 1.5 0 0 0-.2-.782L69.552 61.49a1.5 1.5 0 0 1-.195-.773l.049-2.68a1.7 1.7 0 0 0-.214-.86l-6.485-9.944-9.41 5.429z"/><path d="M58.465 49.481 78.356 83.04M19.497 16.01C19.497 7.72 26.224 1 34.522 1s15.025 6.72 15.025 15.01"/><path d="M36.042 30.79c4.968-.514 9.518-3.976 11.88-8.395 1.566-2.923 2.173-6.264 1.313-9.454"/><path fill="var(--fill-0, #3bc300)" d="M63.918 46.548 50.894 54.06c-3.874 2.234-8.881.899-11.117-2.976L31.062 36c-2.236-3.87-.9-8.871 2.98-11.105l13.022-7.512c3.875-2.234 8.881-.898 11.118 2.977l8.715 15.082c2.236 3.87.9 8.872-2.98 11.105ZM52.158 22.59a2.56 2.56 0 0 0-3.49-.933L37.358 28.18a2.556 2.556 0 0 0-.933 3.486 2.56 2.56 0 0 0 3.49.932l11.311-6.52a2.556 2.556 0 0 0 .934-3.487Z"/><path d="M19.497 16.01c0 8.289 8.35 16.126 16.547 14.805"/><path d="M1 18.69C1 10.403 7.728 3.478 16.025 3.478s15.026 6.72 15.026 15.01"/><path d="M1 18.58c0 8.288 8.351 16.125 16.547 14.805"/></g></svg>