<svg xmlns="http://www.w3.org/2000/svg" fill="none" overflow="visible" preserveAspectRatio="none" style="display:block" viewBox="0 0 48.438 59.401"><path fill="var(--fill-0, #2a4385)" stroke="var(--stroke-0, #2a4385)" stroke-miterlimit="10" stroke-width="2" d="M26.64 58.34 1.435 47.25a.73.73 0 0 1-.374-.962L20.836 1.435a.73.73 0 0 1 .962-.374l25.205 11.09a.73.73 0 0 1 .374.962L27.602 57.967a.73.73 0 0 1-.962.373Zm13.713-43.474a1.947 1.947 0 0 0-.997-2.564l-13.08-5.754a1.95 1.95 0 0 0-2.567.995c-.433.981.014 2.132.996 2.564l13.081 5.755a1.95 1.95 0 0 0 2.567-.996Z"/></svg>