<svg xmlns="http://www.w3.org/2000/svg" fill="none" overflow="visible" preserveAspectRatio="none" style="display:block" viewBox="0 0 110 175"><g stroke="var(--stroke-0, #8c98b7)" stroke-linecap="round" stroke-linejoin="round"><path fill="var(--fill-0, #f7f3ea)" d="M104.975.5H5.025C2.526.5.5 2.538.5 5.051v164.898c0 2.513 2.026 4.551 4.525 4.551h99.95c2.499 0 4.525-2.038 4.525-4.551V5.051c0-2.513-2.026-4.551-4.525-4.551"/><path d="M22.07 151.593h6.94M39.026 151.593H89.86M77.612 136.484H89.86M39.026 136.484h30.44M20.17 136.484h8.84M20.17 123.68l18.856-15.867M54.23 113.729l15.236-12.5M92.937 128.019l-23.471-26.79M29.01 128.019h63.927M39.534 107.407l7.848 5.503"/></g></svg>