<svg xmlns="http://www.w3.org/2000/svg" fill="none" overflow="visible" preserveAspectRatio="none" style="display:block" viewBox="0 0 130 187"><g stroke="var(--stroke-0, #8c98b7)" stroke-miterlimit="10"><path fill="var(--fill-0, #f7f3ea)" d="M126.739.5H3.261A2.76 2.76 0 0 0 .5 3.259V183.74a2.76 2.76 0 0 0 2.761 2.759H126.74a2.76 2.76 0 0 0 2.761-2.759V3.259A2.76 2.76 0 0 0 126.739.5Z"/><path d="M33.27 100.519c7.37 0 13.346-5.96 13.346-13.312S40.64 73.894 33.27 73.894s-13.345 5.96-13.345 13.313c0 7.352 5.975 13.312 13.345 13.312ZM65.58 100.519c7.37 0 13.344-5.96 13.344-13.312S72.95 73.894 65.58 73.894c-7.37 0-13.344 5.96-13.344 13.313 0 7.352 5.974 13.312 13.344 13.312ZM98.24 100.519c7.564 0 13.696-5.96 13.696-13.312s-6.132-13.313-13.697-13.313-13.696 5.96-13.696 13.313c0 7.352 6.132 13.312 13.696 13.312Z"/><path d="M49.776 112.43c7.564 0 13.696-6.117 13.696-13.663 0-7.545-6.132-13.662-13.696-13.662S36.08 91.222 36.08 98.767s6.132 13.663 13.696 13.663ZM82.436 113.832c7.37 0 13.345-5.961 13.345-13.313s-5.975-13.312-13.345-13.312-13.345 5.96-13.345 13.312 5.975 13.313 13.345 13.313Z"/></g></svg>