<svg xmlns="http://www.w3.org/2000/svg" fill="none" overflow="visible" preserveAspectRatio="none" style="display:block" viewBox="0 0 692.092 208"><g stroke="var(--stroke-0, #8c98b7)" stroke-miterlimit="10"><path fill="var(--fill-0, #f7f3ea)" d="M689.358 58.677H2.734C1.5 58.677.5 59.677.5 60.91v131.665c0 1.234 1 2.234 2.234 2.234h686.624c1.234 0 2.234-1 2.234-2.234V60.911c0-1.234-1-2.234-2.234-2.234Z"/><path d="M86.887 58.11v136.134M173.273 58.11v136.134M259.66 58.11v136.134M346.046 58.11v136.134M432.433 58.11v136.134M518.819 58.11v136.134M605.206 58.11v136.134"/><path fill="var(--fill-0, #f7f3ea)" d="M78.62 73.884h-.342c-1.234 0-2.234 1-2.234 2.234v25.454c0 1.234 1 2.234 2.234 2.234h.343c1.234 0 2.234-1 2.234-2.234V76.118c0-1.234-1-2.234-2.234-2.234ZM95.734 73.884h-.343c-1.234 0-2.234 1-2.234 2.234v25.454c0 1.234 1 2.234 2.234 2.234h.343c1.234 0 2.234-1 2.234-2.234V76.118c0-1.234-1-2.234-2.234-2.234ZM251.274 73.884h-.342c-1.234 0-2.234 1-2.234 2.234v25.454c0 1.234 1 2.234 2.234 2.234h.342c1.234 0 2.235-1 2.235-2.234V76.118a2.235 2.235 0 0 0-2.235-2.234ZM268.387 73.884h-.342c-1.234 0-2.234 1-2.234 2.234v25.454c0 1.234 1 2.234 2.234 2.234h.342c1.234 0 2.235-1 2.235-2.234V76.118a2.235 2.235 0 0 0-2.235-2.234ZM424.048 73.884h-.343c-1.234 0-2.234 1-2.234 2.234v25.454c0 1.234 1 2.234 2.234 2.234h.343c1.233 0 2.234-1 2.234-2.234V76.118a2.235 2.235 0 0 0-2.234-2.234ZM441.161 73.884h-.343c-1.234 0-2.234 1-2.234 2.234v25.454c0 1.234 1 2.234 2.234 2.234h.343c1.233 0 2.234-1 2.234-2.234V76.118a2.235 2.235 0 0 0-2.234-2.234ZM596.821 73.884h-.343c-1.234 0-2.234 1-2.234 2.234v25.454c0 1.234 1 2.234 2.234 2.234h.343c1.233 0 2.234-1 2.234-2.234V76.118a2.235 2.235 0 0 0-2.234-2.234ZM613.934 73.884h-.343c-1.234 0-2.234 1-2.234 2.234v25.454c0 1.234 1 2.234 2.234 2.234h.343c1.233 0 2.234-1 2.234-2.234V76.118a2.235 2.235 0 0 0-2.234-2.234ZM23.244 194.825H12.37c-1.234 0-2.234 1-2.234 2.234v8.207c0 1.234 1 2.234 2.234 2.234h10.873c1.234 0 2.234-1 2.234-2.234v-8.207c0-1.234-1-2.234-2.234-2.234ZM679.215 194.825h-10.872c-1.234 0-2.235 1-2.235 2.234v8.207a2.235 2.235 0 0 0 2.235 2.234h10.872c1.234 0 2.235-1 2.235-2.234v-8.207a2.235 2.235 0 0 0-2.235-2.234Z"/><g fill="var(--fill-0, #f7f3ea)"><path d="M359.1.5h-10.366c-1.234 0-2.234 1-2.234 2.234v53.709c0 1.234 1 2.234 2.234 2.234H359.1c1.234 0 2.234-1 2.234-2.234V2.734c0-1.234-1-2.234-2.234-2.234ZM368.93 23.065h-5.362c-1.233 0-2.234 1-2.234 2.234v31.144a2.235 2.235 0 0 0 2.234 2.234h5.362c1.234 0 2.235-1 2.235-2.234V25.299a2.235 2.235 0 0 0-2.235-2.234Z"/><path d="M378.745 23.065h-5.361c-1.234 0-2.235 1-2.235 2.234v31.144a2.235 2.235 0 0 0 2.235 2.234h5.361c1.234 0 2.235-1 2.235-2.234V25.299a2.235 2.235 0 0 0-2.235-2.234ZM388.576 23.065h-5.362c-1.234 0-2.234 1-2.234 2.234v31.144c0 1.234 1 2.234 2.234 2.234h5.362c1.234 0 2.234-1 2.234-2.234V25.299c0-1.234-1-2.234-2.234-2.234Z"/></g><path fill="var(--fill-0, #f7f3ea)" d="M180.81 50.813h-58.281c-1.234 0-2.234 1-2.234 2.234v3.396c0 1.233 1 2.234 2.234 2.234h58.281c1.234 0 2.234-1 2.234-2.234v-3.396c0-1.234-1-2.234-2.234-2.234ZM548.015 50.813h-58.281c-1.234 0-2.234 1-2.234 2.234v3.396c0 1.233 1 2.234 2.234 2.234h58.281c1.234 0 2.234-1 2.234-2.234v-3.396c0-1.234-1-2.234-2.234-2.234Z"/><path fill="var(--fill-0, #f7f3ea)" d="M180.795 43.217h-38.249c-1.234 0-2.234 1-2.234 2.234v3.143c0 1.233 1 2.234 2.234 2.234h38.249c1.233 0 2.234-1 2.234-2.234V45.45a2.235 2.235 0 0 0-2.234-2.234ZM535 43.217h-38.249c-1.234 0-2.234 1-2.234 2.234v3.143c0 1.233 1 2.234 2.234 2.234H535c1.234 0 2.234-1 2.234-2.234V45.45c0-1.234-1-2.234-2.234-2.234Z"/><path fill="var(--fill-0, #f7f3ea)" d="M180.795 35.635h-38.249c-1.234 0-2.234 1-2.234 2.234v3.143c0 1.234 1 2.234 2.234 2.234h38.249c1.233 0 2.234-1 2.234-2.234v-3.143a2.235 2.235 0 0 0-2.234-2.234ZM535 35.635h-38.249c-1.234 0-2.234 1-2.234 2.234v3.143c0 1.234 1 2.234 2.234 2.234H535c1.234 0 2.234-1 2.234-2.234v-3.143c0-1.233-1-2.234-2.234-2.234Z"/></g></svg>