<svg xmlns="http://www.w3.org/2000/svg" fill="none" overflow="visible" preserveAspectRatio="none" style="display:block" viewBox="0 0 973 292"><g stroke="var(--stroke-0, #8c98b7)" stroke-miterlimit="10"><path fill="var(--fill-0, #f7f3ea)" d="M969.358 82.285H3.642A3.14 3.14 0 0 0 .5 85.425V270.52a3.14 3.14 0 0 0 3.142 3.141h965.716a3.14 3.14 0 0 0 3.142-3.141V85.426a3.14 3.14 0 0 0-3.142-3.141Z"/><path d="M122 81.49v191.375M243.5 81.49v191.375M365 81.49v191.375M486.5 81.49v191.375M608 81.49v191.375M729.5 81.49v191.375M851 81.49v191.375"/><path fill="var(--fill-0, #f7f3ea)" d="M110.374 103.663h-.482a3.14 3.14 0 0 0-3.142 3.141v35.783a3.14 3.14 0 0 0 3.142 3.141h.482a3.14 3.14 0 0 0 3.142-3.141v-35.783a3.14 3.14 0 0 0-3.142-3.141ZM134.443 103.663h-.482a3.14 3.14 0 0 0-3.142 3.141v35.783a3.14 3.14 0 0 0 3.142 3.141h.482a3.14 3.14 0 0 0 3.142-3.141v-35.783a3.14 3.14 0 0 0-3.142-3.141ZM353.206 103.663h-.481a3.14 3.14 0 0 0-3.143 3.141v35.783a3.14 3.14 0 0 0 3.143 3.141h.481a3.14 3.14 0 0 0 3.143-3.141v-35.783a3.14 3.14 0 0 0-3.143-3.141ZM377.275 103.663h-.481a3.14 3.14 0 0 0-3.143 3.141v35.783a3.14 3.14 0 0 0 3.143 3.141h.481a3.14 3.14 0 0 0 3.143-3.141v-35.783a3.14 3.14 0 0 0-3.143-3.141ZM596.206 103.663h-.481a3.14 3.14 0 0 0-3.143 3.141v35.783a3.14 3.14 0 0 0 3.143 3.141h.481a3.14 3.14 0 0 0 3.143-3.141v-35.783a3.14 3.14 0 0 0-3.143-3.141ZM620.275 103.663h-.481a3.14 3.14 0 0 0-3.143 3.141v35.783a3.14 3.14 0 0 0 3.143 3.141h.481a3.14 3.14 0 0 0 3.143-3.141v-35.783a3.14 3.14 0 0 0-3.143-3.141ZM839.206 103.663h-.481a3.14 3.14 0 0 0-3.143 3.141v35.783a3.14 3.14 0 0 0 3.143 3.141h.481a3.14 3.14 0 0 0 3.143-3.141v-35.783a3.14 3.14 0 0 0-3.143-3.141ZM863.275 103.663h-.481a3.14 3.14 0 0 0-3.143 3.141v35.783a3.14 3.14 0 0 0 3.143 3.141h.481a3.14 3.14 0 0 0 3.143-3.141v-35.783a3.14 3.14 0 0 0-3.143-3.141ZM32.489 273.682H17.196a3.14 3.14 0 0 0-3.142 3.14v11.537a3.14 3.14 0 0 0 3.142 3.141H32.49a3.14 3.14 0 0 0 3.142-3.141v-11.537a3.14 3.14 0 0 0-3.142-3.14ZM955.092 273.682H939.8a3.14 3.14 0 0 0-3.142 3.14v11.537a3.14 3.14 0 0 0 3.142 3.141h15.292a3.14 3.14 0 0 0 3.143-3.141v-11.537a3.14 3.14 0 0 0-3.143-3.14Z"/><g fill="var(--fill-0, #f7f3ea)"><path d="M834.053.5h-14.58a3.14 3.14 0 0 0-3.142 3.14v75.504a3.14 3.14 0 0 0 3.142 3.14h14.58a3.14 3.14 0 0 0 3.142-3.14V3.641A3.14 3.14 0 0 0 834.053.5Z"/><path d="M847.879 32.222h-7.541a3.14 3.14 0 0 0-3.143 3.14v43.782a3.14 3.14 0 0 0 3.143 3.14h7.541a3.14 3.14 0 0 0 3.142-3.14V35.362a3.14 3.14 0 0 0-3.142-3.14Z"/><path d="M861.683 32.222h-7.541a3.14 3.14 0 0 0-3.142 3.14v43.782a3.14 3.14 0 0 0 3.142 3.14h7.541a3.14 3.14 0 0 0 3.143-3.14V35.362a3.14 3.14 0 0 0-3.143-3.14Z"/><path d="M875.51 32.222h-7.542a3.14 3.14 0 0 0-3.142 3.14v43.782a3.14 3.14 0 0 0 3.142 3.14h7.542a3.14 3.14 0 0 0 3.142-3.14V35.362a3.14 3.14 0 0 0-3.142-3.14Z"/></g><path fill="var(--fill-0, #f7f3ea)" d="M254.1 71.23h-81.971a3.14 3.14 0 0 0-3.142 3.14v4.774a3.14 3.14 0 0 0 3.142 3.14H254.1a3.14 3.14 0 0 0 3.142-3.14V74.37a3.14 3.14 0 0 0-3.142-3.14Z"/><path fill="var(--fill-0, #f7f3ea)" d="M254.079 60.55h-53.795a3.14 3.14 0 0 0-3.143 3.142v4.418a3.14 3.14 0 0 0 3.143 3.14h53.795a3.14 3.14 0 0 0 3.142-3.14v-4.418a3.14 3.14 0 0 0-3.142-3.141Z"/><path fill="var(--fill-0, #f7f3ea)" d="M254.079 49.893h-53.795a3.14 3.14 0 0 0-3.143 3.141v4.418a3.14 3.14 0 0 0 3.143 3.14h53.795a3.14 3.14 0 0 0 3.142-3.14v-4.418a3.14 3.14 0 0 0-3.142-3.14Z"/></g></svg>