<svg xmlns="http://www.w3.org/2000/svg" fill="none" overflow="visible" preserveAspectRatio="none" style="display:block" viewBox="0 0 136 123"><g fill="var(--fill-0, #f7f3ea)" stroke="var(--stroke-0, #8c98b7)" stroke-miterlimit="10"><path d="M20.204 116.888c3.552 0 6.431-2.898 6.431-6.472s-2.88-6.472-6.431-6.472-6.432 2.897-6.432 6.472c0 3.574 2.88 6.472 6.432 6.472ZM92.17 116.888c3.553 0 6.432-2.898 6.432-6.472s-2.88-6.472-6.431-6.472-6.432 2.897-6.432 6.472c0 3.574 2.88 6.472 6.432 6.472ZM21.52 3.735l-.216.035c-2.144.354-3.596 2.39-3.245 4.548L31.332 89.7c.352 2.158 2.375 3.62 4.52 3.266l.215-.036c2.144-.354 3.596-2.39 3.245-4.547L26.039 7c-.352-2.157-2.375-3.62-4.52-3.265ZM29.921 3.709l-.216.035c-2.144.352-3.599 2.387-3.249 4.545l13.192 81.395c.35 2.158 2.371 3.622 4.516 3.27l.215-.035c2.145-.352 3.6-2.387 3.25-4.544L34.437 6.979c-.35-2.158-2.372-3.622-4.516-3.27ZM49.53 13.663l-1.335.14c-2.178.227-3.76 2.188-3.535 4.38l7.384 71.656c.226 2.192 2.175 3.785 4.353 3.557l1.335-.139c2.178-.227 3.761-2.188 3.535-4.38L53.883 17.22c-.225-2.191-2.174-3.784-4.352-3.557ZM64.695 24.745l-1.837.14c-2.012.155-3.519 1.92-3.366 3.945l4.625 61.182c.153 2.024 1.908 3.54 3.92 3.386l1.837-.14c2.011-.155 3.518-1.92 3.365-3.945l-4.625-61.182c-.153-2.024-1.908-3.54-3.92-3.386ZM74.92 25.707l-1.825.26c-1.997.284-3.384 2.143-3.097 4.153l8.678 60.731c.287 2.01 2.14 3.408 4.137 3.124l1.824-.26c1.998-.284 3.384-2.143 3.097-4.152L79.056 28.83c-.287-2.01-2.139-3.408-4.137-3.124Z"/><path d="M100.613 9.394 93.87 94.536H68.74L21.434 11.114c-.67-2.963-5.913-4.296-11.288-4.296H5.714c-1.53 0-2.717 1.413-2.592 3.079l7.556 90.105c.218 2.419 2.06 4.273 4.308 4.273h83.38c2.247 0 4.121-1.854 4.308-4.273l7.555-90.105c.125-1.666-1.061-3.08-2.591-3.08h-4.433c-1.343 0-2.467 1.132-2.592 2.577Z"/></g></svg>