<svg xmlns="http://www.w3.org/2000/svg" fill="none" overflow="visible" preserveAspectRatio="none" style="display:block" viewBox="0 0 98.773 410.376"><path fill="var(--fill-0, #f7f3ea)" d="M14.08 370.342c2.57-20.141 5.732-33.999 8.353-53.682a2.54 2.54 0 0 1 2.519-2.225h43.925c1.251 0 2.333.934 2.502 2.174l8.961 61.783c.575 3.074 1.961 12.839-3.787 20.991-7.71 10.937-22.385 10.614-29.943 10.444-6.678-.153-24.397-.543-31.532-13.535-4.126-7.506-2.097-18.8-1.015-25.95"/><path stroke="var(--stroke-0, #8c98b7)" stroke-linecap="round" stroke-linejoin="round" d="M14.08 370.342c2.57-20.141 5.732-33.999 8.353-53.682a2.54 2.54 0 0 1 2.519-2.225h43.925c1.251 0 2.333.934 2.502 2.174l8.961 61.783c.575 3.074 1.961 12.839-3.787 20.991-7.71 10.937-22.385 10.614-29.943 10.444-6.678-.153-24.397-.543-31.532-13.535-4.126-7.506-2.097-18.8-1.015-25.95"/><path fill="var(--fill-0, #f7f3ea)" d="m43.4 314.435-6.417-54.211L17.98 98.769"/><path stroke="var(--stroke-0, #8c98b7)" stroke-linecap="round" stroke-linejoin="round" d="m43.4 314.435-6.417-54.211L17.98 98.769M46.79 22.534s-3.331 240.22 7.456 238.913L50 314.435M80.942 68.065S57.154 263.4 54.262 261.803"/><path fill="var(--fill-0, #f7f3ea)" stroke="var(--stroke-0, #8c98b7)" stroke-linecap="round" stroke-linejoin="round" d="M19.806 114.11S9.493 88.738 2.104 97.348c-8.2 9.544 17.702 16.762 17.702 16.762M35.478 109.078c-11.784-5.01-13.678 20.328-13.678 20.328s24.296-15.828 13.678-20.328M41.155 173.749c-11.159-5.757-11.505 20.75-11.505 20.75s21.565-15.553 11.505-20.75M24.268 153.325s-12.68-27.597-21.793-18.24c-10.094 10.377 21.793 18.24 21.793 18.24M30.592 210.702S17.912 183.105 8.8 192.463c-10.094 10.376 21.793 18.239 21.793 18.239M38.048 273.25s-12.68-27.597-21.793-18.24c-10.094 10.377 21.793 18.24 21.793 18.24"/><path stroke="var(--stroke-0, #8c98b7)" stroke-linecap="round" stroke-linejoin="round" d="M24.268 153.325 9.796 141.827M21.8 129.406l7.118-12.635M29.984 194.127l7.337-13.399M30.592 210.702l-14.658-11.48"/><path fill="var(--fill-0, #f7f3ea)" stroke="var(--stroke-0, #8c98b7)" stroke-linecap="round" stroke-linejoin="round" d="M58.963 1.306c-11.16-5.757-12.055 21.228-12.055 21.228S69.022 6.502 58.963 1.306M69.448 46.631c-10.787 6.437 11.497 21.534 11.497 21.534S79.17 40.823 69.448 46.631M61.266 91.145c-10.026 7.574 13.762 20.158 13.762 20.158s-4.717-26.985-13.762-20.158M71.863 137.999s-12.68-24.506-21.794-16.201c-10.093 9.222 21.794 16.201 21.794 16.201M65.185 195.843s29.452-7.014 22.131-17.832c-8.132-12.007-22.132 17.832-22.132 17.832M69.8 158.25s29.453-7.013 22.132-17.831C83.799 128.412 69.8 158.25 69.8 158.25M96.285 74.864C85.836 67.442 78.6 91.796 78.6 91.796s27.102-10.24 17.685-16.932M91.56 107.804c-10.449-7.421-17.685 16.932-17.685 16.932s27.102-10.241 17.685-16.932M73.23 210.07c-10.735-6.519-13.487 20.339-13.487 20.339s23.166-14.455 13.488-20.339M65.86 185.5s-.963-30.382-12.984-25.338C39.553 165.766 65.861 185.5 65.861 185.5M46.299 28.003S35.986 2.63 28.597 11.24C20.397 20.785 46.3 28.003 46.3 28.003M58.963 34.898c-11.16-5.758-12.055 21.228-12.055 21.228s22.114-16.032 12.055-21.228M46.299 75.707s-12.68-27.597-21.793-18.24c-10.094 10.377 21.793 18.24 21.793 18.24M49.568 243.968s-12.68-27.597-21.793-18.24c-10.094 10.377 21.793 18.24 21.793 18.24M46.096 155.475s-5.021-27.156-16.146-21.874c-12.343 5.859 16.146 21.874 16.146 21.874M46.13 105.681S35.816 80.309 28.428 88.92c-8.2 9.544 17.702 16.761 17.702 16.761M60.586 70.256C48.8 65.245 46.908 90.584 46.908 90.584s24.296-15.828 13.678-20.329"/><path stroke="var(--stroke-0, #8c98b7)" stroke-linecap="round" stroke-linejoin="round" d="m71.863 137.999-14.371-10.172M65.185 195.843 78.727 185.5M59.977 229.876l7.862-12.941M44.642 104.576l-10.229-9.935M47.55 21.328l6.374-12.584M69.8 158.25l14.422-12.057M80.942 68.559l-7.236-13.926"/></svg>