<svg xmlns="http://www.w3.org/2000/svg" fill="none" overflow="visible" preserveAspectRatio="none" style="display:block" viewBox="0 0 205.941 141"><path fill="var(--fill-0, #f7f3ea)" stroke="var(--stroke-0, #8c98b7)" stroke-linecap="round" stroke-linejoin="round" d="M10.054 69.393h-.122a3.066 3.066 0 0 0-3.07 3.062v15.6a3.066 3.066 0 0 0 3.07 3.063h.122a3.066 3.066 0 0 0 3.07-3.063v-15.6a3.066 3.066 0 0 0-3.07-3.062M173.589 69.78h-.123a3.066 3.066 0 0 0-3.069 3.063v15.6a3.066 3.066 0 0 0 3.069 3.062h.123a3.066 3.066 0 0 0 3.069-3.062v-15.6a3.066 3.066 0 0 0-3.069-3.063M64.21 33.108H6.8a3.066 3.066 0 0 0-3.068 3.063v23.42A3.066 3.066 0 0 0 6.8 62.652h57.41a3.066 3.066 0 0 0 3.068-3.063V36.17a3.066 3.066 0 0 0-3.068-3.062"/><path fill="var(--fill-0, #f7f3ea)" stroke="var(--stroke-0, #8c98b7)" stroke-linecap="round" stroke-linejoin="round" d="M67.424 25.553H3.569A3.066 3.066 0 0 0 .5 28.616v1.695a3.066 3.066 0 0 0 3.069 3.062h63.855a3.066 3.066 0 0 0 3.069-3.062v-1.695a3.066 3.066 0 0 0-3.07-3.063M41.664 39.234H29.429a3.066 3.066 0 0 0-3.069 3.063v1.51a3.066 3.066 0 0 0 3.07 3.063h12.234a3.066 3.066 0 0 0 3.069-3.062v-1.511a3.066 3.066 0 0 0-3.07-3.063M99.81.5h-9.656a3.066 3.066 0 0 0-3.069 3.063V59.61a3.066 3.066 0 0 0 3.069 3.062h9.657a3.066 3.066 0 0 0 3.069-3.062V3.563A3.066 3.066 0 0 0 99.81.5M116.26.5h-9.657a3.066 3.066 0 0 0-3.069 3.063V59.61a3.066 3.066 0 0 0 3.069 3.062h9.657a3.066 3.066 0 0 0 3.069-3.062V3.563A3.066 3.066 0 0 0 116.26.5M129.647 6.59l-7.257 1.67a3.063 3.063 0 0 0-2.301 3.672l11.089 48.01a3.07 3.07 0 0 0 3.68 2.297l7.257-1.67a3.063 3.063 0 0 0 2.301-3.672l-11.089-48.01a3.07 3.07 0 0 0-3.68-2.297"/><path fill="var(--fill-0, #f7f3ea)" stroke="var(--stroke-0, #8c98b7)" stroke-linecap="round" stroke-linejoin="round" d="M94.983 10.832a1.124 1.124 0 1 0 .002-2.248 1.124 1.124 0 0 0-.002 2.248M111.432 10.832a1.124 1.124 0 1 0 0-2.246 1.124 1.124 0 1 0 0 2.246M128.028 12.813c.613 0 1.125.51 1.125 1.123 0 .612-.512 1.123-1.125 1.123-.614 0-1.126-.51-1.126-1.123s.512-1.123 1.126-1.123M172.441 29.5s21.068-15.006 12.577-19.972S172.441 29.5 172.441 29.5M177.2 29.239s25.324 5.587 23.519-4.067-23.519 4.067-23.519 4.067"/><path stroke="var(--stroke-0, #8c98b7)" stroke-linecap="round" stroke-linejoin="round" d="m191.344 27.5-12.903 1.33M188.441 31.5S200.112 61 192.3 89.255c-.047.204-.118.409-.165.593 0 0-1.812 8.6-.4 21.9s5.435 11.816.565 28.752"/><path fill="var(--fill-0, #f7f3ea)" stroke="var(--stroke-0, #8c98b7)" stroke-linecap="round" stroke-linejoin="round" d="M191.368 102.243s-8.122 5.656-10.312 10.475c-1.002 2.205.471 4.859 2.885 5.166 3.008.388 7.529-1.409 7.427-15.641"/><path stroke="var(--stroke-0, #8c98b7)" stroke-linecap="round" stroke-linejoin="round" d="m186.441 111.116 4.337-7.616"/><path fill="var(--fill-0, #f7f3ea)" d="M192.046 107.061s16.817.143 12.091 8.188c-3.028 5.145-12.132-8.065-12.132-8.065"/><path stroke="var(--stroke-0, #8c98b7)" stroke-linecap="round" stroke-linejoin="round" d="M192.046 107.061s16.817.143 12.091 8.188c-3.028 5.145-12.132-8.065-12.132-8.065"/><path fill="var(--fill-0, #f7f3ea)" stroke="var(--stroke-0, #8c98b7)" stroke-linecap="round" stroke-linejoin="round" d="M191.473 91.729s-17.145-.082-13.381 6.962c0 0 6.425 6.085 13.381-6.962"/><path fill="var(--fill-0, #f7f3ea)" d="M195.03 73.169s11.723 7.656 8.245 11.311c0 0-6.792 6.003-8.265-10.76"/><path stroke="var(--stroke-0, #8c98b7)" stroke-linecap="round" stroke-linejoin="round" d="M195.03 73.169s11.723 7.656 8.245 11.311c0 0-6.792 6.003-8.265-10.76"/><path fill="var(--fill-0, #f7f3ea)" stroke="var(--stroke-0, #8c98b7)" stroke-linecap="round" stroke-linejoin="round" d="M192.782 46.42s16.449 2.512 11.846 9.475c0 0-5.504 5.39-11.846-9.475"/><path fill="var(--fill-0, #f7f3ea)" d="M167.079 29.085s-2.327-24.819-10.94-20.077 10.262 20.447 10.262 20.447"/><path stroke="var(--stroke-0, #8c98b7)" stroke-linecap="round" stroke-linejoin="round" d="M167.079 29.085s-2.327-24.819-10.94-20.077 10.262 20.447 10.262 20.447M161.346 19.783l5.15 9.271"/></svg>