<svg xmlns="http://www.w3.org/2000/svg" fill="none" overflow="visible" preserveAspectRatio="none" style="display:block" viewBox="0 0 255 130.001"><g stroke="var(--stroke-0, #8c98b7)"><path fill="var(--fill-0, #f7f3ea)" stroke-miterlimit="10" d="M237.991 107.894h-2.105a2 2 0 0 0-1.998 1.997v17.613c0 1.103.894 1.997 1.998 1.997h2.105a2 2 0 0 0 1.999-1.997v-17.613a2 2 0 0 0-1.999-1.997ZM19.42 107.894h-2.105a2 2 0 0 0-1.998 1.997v17.613c0 1.103.895 1.997 1.998 1.997h2.105a2 2 0 0 0 2-1.997v-17.613a2 2 0 0 0-2-1.997ZM241.748 65.374h-57.107a2 2 0 0 0-1.999 1.997v29.354c0 1.103.895 1.997 1.999 1.997h57.107a2 2 0 0 0 1.999-1.997V67.371a2 2 0 0 0-1.999-1.997Z"/><path fill="var(--fill-0, #f7f3ea)" stroke-miterlimit="10" d="M243.974 59.157h-61.292a1.997 1.997 0 0 0-1.998 1.997v4.54c0 1.102.894 1.996 1.998 1.996h61.292a1.997 1.997 0 0 0 1.998-1.996v-4.54a1.997 1.997 0 0 0-1.998-1.997ZM144.403 15.95h-12.765a2 2 0 0 0-1.998 1.998V95.48c0 1.103.895 1.997 1.998 1.997h12.765a2 2 0 0 0 1.999-1.997V17.948a2 2 0 0 0-1.999-1.997ZM161.178 15.95h-12.765a2 2 0 0 0-1.998 1.998V95.48c0 1.103.895 1.997 1.998 1.997h12.765a2 2 0 0 0 1.999-1.997V17.948a2 2 0 0 0-1.999-1.997ZM127.456 17.059l-12.452-2.806a2 2 0 0 0-2.389 1.508L95.542 91.394a1.997 1.997 0 0 0 1.51 2.387l12.451 2.806a2 2 0 0 0 2.39-1.508l17.073-75.633a1.997 1.997 0 0 0-1.51-2.387Z"/><path fill="var(--fill-0, #f7f3ea)" stroke-miterlimit="10" d="M138.021 91.966a3.13 3.13 0 0 0 3.131-3.129 3.13 3.13 0 0 0-3.131-3.128 3.13 3.13 0 0 0-3.132 3.128 3.13 3.13 0 0 0 3.132 3.129ZM154.796 91.966a3.13 3.13 0 1 0 0-6.257 3.13 3.13 0 0 0-3.131 3.128 3.13 3.13 0 0 0 3.131 3.129ZM104.735 91.893a3.13 3.13 0 0 0 3.132-3.129 3.13 3.13 0 0 0-3.132-3.128 3.13 3.13 0 0 0-3.131 3.128 3.13 3.13 0 0 0 3.131 3.129ZM252.501 97.045H2.499A2 2 0 0 0 .5 99.042v7.042c0 1.103.895 1.997 1.999 1.997H252.5a2 2 0 0 0 1.999-1.997v-7.042a2 2 0 0 0-1.999-1.997Z"/><path stroke-miterlimit="10" d="m49.134 53.751-4.917 9.68"/><path fill="var(--fill-0, #f7f3ea)" stroke-miterlimit="10" d="M26.11 38.829c3.437 4.247 3.37 9.984-.134 12.807-3.504 2.822-9.127 1.677-12.565-2.57-2.438-3.022-3.45-10.703-3.824-14.897-.12-1.397 1.2-2.489 2.545-2.09 4.09 1.199 11.539 3.715 13.977 6.737zM52.065 41.199c-4.344 3.314-5.636 8.906-2.905 12.473s8.474 3.795 12.818.48c3.078-2.357 5.89-9.585 7.248-13.566.453-1.331-.573-2.702-1.972-2.636-4.25.2-12.085.879-15.176 3.249zM56.009 30.975c-3.478 4.206-9.114 5.298-12.592 2.422s-3.477-8.6 0-12.806c2.479-2.996 9.807-5.512 13.844-6.723 1.346-.4 2.678.679 2.558 2.077-.36 4.233-2.025 13.178-3.81 15.03ZM34.424 12.55c2.838 4.66 2.011 10.344-1.84 12.673s-9.273.453-12.11-4.206C18.46 17.702 14.49 6.612 14.676 2.406c.067-1.398 1.519-2.303 2.798-1.731 3.89 1.73 14.937 8.56 16.949 11.875Z"/><path stroke-linecap="round" stroke-linejoin="round" d="m49.16 53.672 14.937-11.076M31.785 63.43l-6.289-12.433-9.22-10.877M40.3 36.699l-7.196-12.115L20.42 7.904"/><path stroke-linecap="round" stroke-linejoin="round" d="M38.527 63.43V39.535c0-.479.174-.931.48-1.29l4.104-4.833 10.86-13.326"/><path fill="var(--fill-0, #f7f3ea)" stroke-miterlimit="10" d="M53.637 60.422h-30.22a2 2 0 0 0-1.998 1.997v32.629c0 1.103.895 1.997 1.998 1.997h30.22a2 2 0 0 0 1.998-1.997v-32.63a2 2 0 0 0-1.998-1.996Z"/></g></svg>