<svg xmlns="http://www.w3.org/2000/svg" fill="none" overflow="visible" preserveAspectRatio="none" style="display:block" viewBox="0 0 412 101"><g stroke="var(--stroke-0, #8c98b7)" stroke-miterlimit="10"><path fill="var(--fill-0, #f7f3ea)" d="M347.567 52.543c-16.729-1.458-15.542-24.646-15.542-24.646s7.646.646 13.146 8.188c5.208 7.146 2.417 16.458 2.417 16.458zM353.456 53.043c16.687-1.833 14.937-25.146 14.937-25.146s-7.625.813-12.938 8.5c-5.041 7.271-1.979 16.646-1.979 16.646z"/><path fill="var(--fill-0, #f7f3ea)" d="M349.956 54.563c-16.896-12-1.168-37.967-1.168-37.967s7.192 7.534 7.534 19.52c.959 11.292-6.366 18.447-6.366 18.447ZM408.375 87.02H3.625A3.125 3.125 0 0 0 .5 90.147v7.229c0 1.726 1.4 3.125 3.125 3.125h404.75c1.726 0 3.125-1.4 3.125-3.125v-7.23a3.125 3.125 0 0 0-3.125-3.124Z"/><path fill="var(--fill-0, #f7f3ea)" d="M122.896.5H20.813a3.125 3.125 0 0 0-3.125 3.125v80.27c0 1.727 1.399 3.126 3.125 3.126h102.083c1.726 0 3.125-1.4 3.125-3.125V3.625A3.125 3.125 0 0 0 122.896.5Z"/><path d="M45.875.5v86.52M72.292 1.375v86.542M98.729 1.375v86.542"/><path fill="var(--fill-0, #f7f3ea)" d="M34.604 8.646h-6.166a3.125 3.125 0 0 0-3.125 3.125v40.562c0 1.726 1.399 3.125 3.125 3.125h6.166c1.726 0 3.125-1.399 3.125-3.125V11.771c0-1.726-1.399-3.125-3.125-3.125ZM62.979 8.646h-6.167a3.125 3.125 0 0 0-3.125 3.125v40.562c0 1.726 1.4 3.125 3.125 3.125h6.167c1.726 0 3.125-1.399 3.125-3.125V11.771c0-1.726-1.4-3.125-3.125-3.125ZM87.791 8.646h-6.166A3.125 3.125 0 0 0 78.5 11.77v40.562c0 1.726 1.399 3.125 3.125 3.125h6.166c1.726 0 3.125-1.399 3.125-3.125V11.771c0-1.726-1.399-3.125-3.125-3.125ZM115.813 8.646h-6.167a3.125 3.125 0 0 0-3.125 3.125v40.562a3.125 3.125 0 0 0 3.125 3.125h6.167c1.726 0 3.125-1.399 3.125-3.125V11.771a3.125 3.125 0 0 0-3.125-3.125ZM366.521 58.646h-35.604a3.125 3.125 0 0 0-3.125 3.125v22.125a3.125 3.125 0 0 0 3.125 3.125h35.604c1.726 0 3.125-1.4 3.125-3.125V61.77a3.125 3.125 0 0 0-3.125-3.125Z"/><path fill="var(--fill-0, #f7f3ea)" d="M369 51.208h-40.562a3.125 3.125 0 0 0-3.125 3.125v1.188a3.125 3.125 0 0 0 3.125 3.125H369c1.726 0 3.125-1.4 3.125-3.125v-1.188A3.125 3.125 0 0 0 369 51.208Z"/></g></svg>