<svg xmlns="http://www.w3.org/2000/svg" fill="none" overflow="visible" preserveAspectRatio="none" style="display:block" viewBox="0 0 108 209"><g stroke="var(--stroke-0, #2a4385)" stroke-miterlimit="10" stroke-width="2"><path fill="var(--fill-0, #f7f3ea)" d="m49.982 168.759-1.031-1.32a1.864 1.864 0 0 0-2.614-.322l-35.473 27.652a1.86 1.86 0 0 0-.323 2.611l1.032 1.32c.633.81 1.803.954 2.614.322L49.66 171.37c.81-.632.955-1.801.322-2.611ZM97.243 198.792l1.03-1.32a1.86 1.86 0 0 0-.322-2.611l-34.396-26.812a1.864 1.864 0 0 0-2.614.322l-1.031 1.32a1.86 1.86 0 0 0 .322 2.611l34.396 26.812c.811.632 1.982.488 2.615-.322ZM55.248 169.976h-1.652a1.86 1.86 0 0 0-1.862 1.86v23.39a1.86 1.86 0 0 0 1.862 1.86h1.652a1.86 1.86 0 0 0 1.862-1.86v-23.39c0-1.027-.834-1.86-1.862-1.86Z"/><path fill="var(--fill-0, #2a4385)" d="M7.22 208a6.217 6.217 0 0 0 6.221-6.213 6.217 6.217 0 0 0-6.22-6.214A6.217 6.217 0 0 0 1 201.787 6.217 6.217 0 0 0 7.22 208ZM54.416 208a6.217 6.217 0 0 0 6.22-6.213 6.217 6.217 0 0 0-6.22-6.214 6.217 6.217 0 0 0-6.22 6.214 6.217 6.217 0 0 0 6.22 6.213ZM100.779 208a6.217 6.217 0 0 0 6.221-6.213 6.217 6.217 0 0 0-6.221-6.214 6.217 6.217 0 0 0-6.22 6.214 6.217 6.217 0 0 0 6.22 6.213Z"/><path fill="var(--fill-0, #f7f3ea)" d="M56.49 141.513h-4.197a1.86 1.86 0 0 0-1.863 1.861v19.198c0 1.027.834 1.86 1.863 1.86h4.197a1.86 1.86 0 0 0 1.862-1.86v-19.198a1.86 1.86 0 0 0-1.862-1.861Z"/><path fill="var(--fill-0, #2a4385)" d="M60.55 156.147H48.293a1.86 1.86 0 0 0-1.862 1.861v19.198c0 1.027.834 1.86 1.862 1.86H60.55a1.86 1.86 0 0 0 1.863-1.86v-19.198a1.86 1.86 0 0 0-1.863-1.861ZM61.208 136.85H47.637a1.86 1.86 0 0 0-1.863 1.86v3.002c0 1.027.834 1.86 1.862 1.86h13.572a1.86 1.86 0 0 0 1.862-1.86v-3.002c0-1.027-.834-1.86-1.862-1.86Z"/><path fill="var(--fill-0, #f7f3ea)" d="M53.907 91.993h-1.614a1.86 1.86 0 0 0-1.863 1.86v17.524c0 1.027.834 1.86 1.863 1.86h1.614a1.86 1.86 0 0 0 1.862-1.86V93.853c0-1.027-.834-1.86-1.862-1.86Z"/><path fill="var(--fill-0, #f7f3ea)" d="M53.224 1c21.493 0 38.938 17.425 38.938 38.892v54.16c0 1.029-.832 1.86-1.863 1.86H16.148c-1.03 0-1.863-.831-1.863-1.86v-54.16C14.285 18.425 31.731 1 53.224 1ZM53.304 137.027c17.586 0 32.5-.11 33.527-9.866.064-.592-.732-1.102-1.734-1.102h-62.43c-1.002 0-1.798.51-1.734 1.102.95 9.756 14.785 9.866 32.384 9.866z"/><path fill="var(--fill-0, #f7f3ea)" d="M97.6 109.269H10.114a1.86 1.86 0 0 0-1.863 1.86v13.183c0 1.027.834 1.86 1.863 1.86H97.6a1.86 1.86 0 0 0 1.863-1.86v-13.183a1.86 1.86 0 0 0-1.863-1.86Z"/></g></svg>