<svg xmlns="http://www.w3.org/2000/svg" fill="none" overflow="visible" preserveAspectRatio="none" style="display:block" viewBox="0 0 215.1 418.135"><g stroke="var(--stroke-0, #2a4385)" stroke-miterlimit="10" stroke-width="2"><path fill="var(--fill-0, #f7f3ea)" d="m99.473 338.248-2.073-2.653a3.747 3.747 0 0 0-5.256-.648l-71.314 55.59a3.736 3.736 0 0 0-.648 5.249l2.073 2.653a3.747 3.747 0 0 0 5.256.647l71.314-55.589a3.737 3.737 0 0 0 .648-5.249ZM194.484 398.625l2.073-2.653a3.737 3.737 0 0 0-.648-5.25L126.76 336.82a3.75 3.75 0 0 0-5.256.648l-2.073 2.653a3.737 3.737 0 0 0 .648 5.249l69.15 53.902a3.747 3.747 0 0 0 5.255-.647ZM110.058 340.695h-3.32a3.74 3.74 0 0 0-3.744 3.74v47.021a3.74 3.74 0 0 0 3.744 3.739h3.32a3.74 3.74 0 0 0 3.745-3.739v-47.021a3.74 3.74 0 0 0-3.745-3.74Z"/><path fill="var(--fill-0, #2a4385)" d="M13.506 417.135c6.907 0 12.506-5.592 12.506-12.49s-5.6-12.491-12.506-12.491S1 397.746 1 404.645c0 6.898 5.6 12.49 12.506 12.49ZM108.387 417.135c6.907 0 12.506-5.592 12.506-12.49s-5.599-12.491-12.506-12.491-12.506 5.592-12.506 12.491c0 6.898 5.599 12.49 12.506 12.49ZM201.594 417.135c6.907 0 12.506-5.592 12.506-12.49s-5.599-12.491-12.506-12.491-12.506 5.592-12.506 12.491c0 6.898 5.599 12.49 12.506 12.49Z"/><path fill="var(--fill-0, #f7f3ea)" d="M112.555 283.476h-8.437a3.74 3.74 0 0 0-3.744 3.74v38.594a3.74 3.74 0 0 0 3.744 3.74h8.437a3.74 3.74 0 0 0 3.744-3.74v-38.594a3.74 3.74 0 0 0-3.744-3.74Z"/><path fill="var(--fill-0, #2a4385)" d="M120.717 312.895H96.079a3.743 3.743 0 0 0-3.744 3.74v38.594a3.74 3.74 0 0 0 3.745 3.74h24.637a3.74 3.74 0 0 0 3.744-3.74v-38.594a3.74 3.74 0 0 0-3.744-3.74ZM122.04 274.102H94.757a3.74 3.74 0 0 0-3.744 3.739v6.034a3.743 3.743 0 0 0 3.744 3.74h27.283a3.743 3.743 0 0 0 3.745-3.74v-6.034a3.74 3.74 0 0 0-3.745-3.739Z"/><path fill="var(--fill-0, #f7f3ea)" d="M107.363 183.924h-3.245a3.74 3.74 0 0 0-3.744 3.74v35.228a3.74 3.74 0 0 0 3.744 3.74h3.245a3.74 3.74 0 0 0 3.744-3.74v-35.228a3.74 3.74 0 0 0-3.744-3.74Z"/><path fill="var(--fill-0, #f7f3ea)" d="M105.989 1c43.209 0 78.281 35.03 78.281 78.186v108.877a3.74 3.74 0 0 1-3.744 3.74H31.453a3.737 3.737 0 0 1-3.744-3.74V79.186C27.709 36.029 62.78 1 105.989 1ZM106.151 274.458c35.354 0 65.336-.222 67.402-19.834.129-1.192-1.472-2.217-3.486-2.217H44.559c-2.015 0-3.616 1.025-3.487 2.217 1.911 19.612 29.725 19.834 65.104 19.834z"/><path fill="var(--fill-0, #f7f3ea)" d="M195.203 218.654H19.322a3.74 3.74 0 0 0-3.745 3.74v26.502a3.74 3.74 0 0 0 3.745 3.74h175.881a3.74 3.74 0 0 0 3.745-3.74v-26.502a3.74 3.74 0 0 0-3.745-3.74Z"/></g></svg>