<svg xmlns="http://www.w3.org/2000/svg" fill="none" overflow="visible" preserveAspectRatio="none" style="display:block" viewBox="0 0 380 159.306"><g fill="var(--fill-0, #f7f3ea)" stroke="var(--stroke-0, #2a4385)" stroke-miterlimit="10" stroke-width="2"><path d="M376.182 1H3.818A2.817 2.817 0 0 0 1 3.815v4.43a2.817 2.817 0 0 0 2.818 2.814h372.364A2.817 2.817 0 0 0 379 8.244V3.815A2.817 2.817 0 0 0 376.182 1Z"/><path d="M17.233 13.856V155.49a2.817 2.817 0 0 0 2.818 2.815h4.434a2.817 2.817 0 0 0 2.819-2.815V13.856a2.817 2.817 0 0 0-2.819-2.816h-4.434a2.817 2.817 0 0 0-2.818 2.816ZM352.621 13.856V155.49a2.817 2.817 0 0 0 2.819 2.815h4.434a2.817 2.817 0 0 0 2.818-2.815V13.856a2.817 2.817 0 0 0-2.818-2.815h-4.434a2.817 2.817 0 0 0-2.819 2.814Z"/></g></svg>