<svg xmlns="http://www.w3.org/2000/svg" fill="none" overflow="visible" preserveAspectRatio="none" style="display:block" viewBox="0 0 696 474"><g stroke="var(--stroke-0, #2a4385)" stroke-miterlimit="10" stroke-width="2"><path fill="var(--fill-0, #f7f3ea)" d="M690.578 195.522H5.422A4.43 4.43 0 0 0 1 199.959v19.083a4.43 4.43 0 0 0 4.422 4.438h685.156a4.43 4.43 0 0 0 4.422-4.438v-19.083a4.43 4.43 0 0 0-4.422-4.437ZM24.91 227.917v240.645A4.43 4.43 0 0 0 29.331 473h19.015a4.43 4.43 0 0 0 4.423-4.438V227.917a4.43 4.43 0 0 0-4.423-4.437H29.332a4.43 4.43 0 0 0-4.423 4.437ZM639.692 227.917v240.645a4.43 4.43 0 0 0 4.422 4.438h19.016a4.43 4.43 0 0 0 4.423-4.438V227.917a4.43 4.43 0 0 0-4.423-4.437h-19.016a4.43 4.43 0 0 0-4.422 4.437Z"/><path fill="var(--fill-0, #f7f3ea)" d="M635.27 223.48H475.892a4.43 4.43 0 0 0-4.422 4.437v63.904a4.43 4.43 0 0 0 4.422 4.438H635.27a4.43 4.43 0 0 0 4.422-4.438v-63.904a4.43 4.43 0 0 0-4.422-4.437Z"/><path fill="var(--fill-0, #f7f3ea)" d="M635.27 296.229H475.892a4.43 4.43 0 0 0-4.422 4.438v63.904a4.43 4.43 0 0 0 4.422 4.437H635.27a4.43 4.43 0 0 0 4.422-4.437v-63.904a4.43 4.43 0 0 0-4.422-4.438Z"/><path fill="var(--fill-0, #2a4385)" d="M583.471 234.308h-50.385a4.43 4.43 0 0 0-4.422 4.437v1.184a4.43 4.43 0 0 0 4.422 4.438h50.385a4.43 4.43 0 0 0 4.422-4.438v-1.184a4.43 4.43 0 0 0-4.422-4.437ZM583.471 308.566h-50.385a4.43 4.43 0 0 0-4.422 4.438v1.183a4.43 4.43 0 0 0 4.422 4.438h50.385a4.43 4.43 0 0 0 4.422-4.438v-1.183a4.43 4.43 0 0 0-4.422-4.438ZM408.997 177.001H289.125a4.43 4.43 0 0 0-4.422 4.438v9.645a4.43 4.43 0 0 0 4.422 4.438h119.872a4.43 4.43 0 0 0 4.423-4.438v-9.645a4.43 4.43 0 0 0-4.423-4.438ZM371.35 159.25h-44.606a4.43 4.43 0 0 0-4.423 4.438v8.876a4.43 4.43 0 0 0 4.423 4.437h44.606a4.43 4.43 0 0 0 4.422-4.437v-8.876a4.43 4.43 0 0 0-4.422-4.438Z"/><path fill="var(--fill-0, #f7f3ea)" d="M462.124 1H235.94a4.43 4.43 0 0 0-4.422 4.438v150.884a4.43 4.43 0 0 0 4.422 4.437h226.184a4.43 4.43 0 0 0 4.422-4.437V5.438A4.43 4.43 0 0 0 462.124 1Z"/><path fill="var(--fill-0, #2a4385)" d="M443.432 13.722h-188.86a4.43 4.43 0 0 0-4.422 4.437v106.447a4.43 4.43 0 0 0 4.422 4.438h188.86a4.43 4.43 0 0 0 4.423-4.438V18.159a4.43 4.43 0 0 0-4.423-4.437Z"/></g></svg>