<svg xmlns="http://www.w3.org/2000/svg" fill="none" overflow="visible" preserveAspectRatio="none" style="display:block" viewBox="0 0 66.763 118.6"><g stroke="var(--stroke-0, #2a4385)" stroke-miterlimit="10" stroke-width="2"><path fill="var(--fill-0, #f7f3ea)" d="M62.945 1H3.818A2.817 2.817 0 0 0 1 3.815v102.187a2.816 2.816 0 0 0 2.818 2.815h59.127a2.816 2.816 0 0 0 2.818-2.815V3.815A2.817 2.817 0 0 0 62.945 1Z"/><path fill="var(--fill-0, #f7f3ea)" d="M62.945 1H3.818A2.817 2.817 0 0 0 1 3.815v21.207a2.817 2.817 0 0 0 2.818 2.815h59.127a2.817 2.817 0 0 0 2.818-2.815V3.815A2.817 2.817 0 0 0 62.945 1Z"/><path fill="var(--fill-0, #f7f3ea)" d="M62.945 27.837H3.818A2.817 2.817 0 0 0 1 30.652v21.207a2.817 2.817 0 0 0 2.818 2.815h59.127a2.817 2.817 0 0 0 2.818-2.815V30.652a2.817 2.817 0 0 0-2.818-2.815Z"/><path fill="var(--fill-0, #f7f3ea)" d="M62.945 54.674H3.818A2.817 2.817 0 0 0 1 57.489v21.207a2.817 2.817 0 0 0 2.818 2.815h59.127a2.817 2.817 0 0 0 2.818-2.815V57.489a2.817 2.817 0 0 0-2.818-2.815Z"/><path fill="var(--fill-0, #f7f3ea)" d="M62.945 81.492H3.818A2.817 2.817 0 0 0 1 84.307v21.676a2.816 2.816 0 0 0 2.818 2.815h59.127a2.816 2.816 0 0 0 2.818-2.815V84.307a2.817 2.817 0 0 0-2.818-2.815Z"/><path fill="var(--fill-0, #2a4385)" d="M9.605 108.817H6.45a2.816 2.816 0 0 0-2.819 2.815v3.153A2.816 2.816 0 0 0 6.45 117.6h3.156a2.816 2.816 0 0 0 2.818-2.815v-3.153a2.816 2.816 0 0 0-2.818-2.815ZM60.728 108.817H57.57a2.816 2.816 0 0 0-2.818 2.815v3.153a2.816 2.816 0 0 0 2.818 2.815h3.157a2.816 2.816 0 0 0 2.818-2.815v-3.153a2.816 2.816 0 0 0-2.818-2.815ZM41.92 8.019H24.843a2.817 2.817 0 0 0-2.818 2.815v3.322a2.817 2.817 0 0 0 2.818 2.815h17.079a2.817 2.817 0 0 0 2.818-2.815v-3.322a2.817 2.817 0 0 0-2.818-2.815ZM41.92 35.025H24.843a2.817 2.817 0 0 0-2.818 2.815v3.321a2.817 2.817 0 0 0 2.818 2.816h17.079a2.817 2.817 0 0 0 2.818-2.815V37.84a2.817 2.817 0 0 0-2.818-2.815ZM41.92 62.087H24.843a2.817 2.817 0 0 0-2.818 2.815v3.322a2.817 2.817 0 0 0 2.818 2.815h17.079a2.817 2.817 0 0 0 2.818-2.815v-3.322a2.817 2.817 0 0 0-2.818-2.815ZM41.92 88.53H24.843a2.817 2.817 0 0 0-2.818 2.815v3.322a2.817 2.817 0 0 0 2.818 2.815h17.079a2.817 2.817 0 0 0 2.818-2.815v-3.322a2.817 2.817 0 0 0-2.818-2.815Z"/></g></svg>