<svg xmlns="http://www.w3.org/2000/svg" fill="none" overflow="visible" preserveAspectRatio="none" style="display:block" viewBox="0 0 357.793 264.122"><path fill="var(--fill-0, #199444)" d="M209.472 215.054c-3.07-.546-5.965.906-8.5 1.864-1.05.391-2.915-2.08-2.493-3.099.34-.803.711-1.864.227-2.43-.938-1.112-4.472.134-4.132-1.174s.412-1.75-.062-2.625c-.432-.803-.257-1.668-1.638-2.162-.824-.289-2.029-.649-2.812-1.277-2.586-2.069-5.152-3.984-7.542-6.239-.598-.566-.557-1.555-1.298-1.843-.34-.134-.268-.937-.866-.865-.443-1.163-2.163-3.068-3.163-2.286l-1.834 1.442c-.711-.711-.649-1.915-1.463-2.399-.762-.453-1.854-.041-2.576-.319-.752-1.802 1.02-3.614.897-5.22-.103-1.205-1.968-2.245-.732-4.036.433-.618.052-2.08-.546-2.543-.536-.422-1.525-.196-2.339-.103-1.277.144-1.442-.999-1.792-1.719-.474-.948.185-1.627.432-2.585.639-2.429.011-4.89-.133-7.32a78 78 0 0 1 .02-9.081c.041-.71.721-1.235.67-1.853 1.133-.741 6.614-8.803 6.738-9.801.505-.474 1.391-.7 1.247-1.668l.443-.433c1.957-1.369 2.544-4.015 3.709-6.228.979-1.843 2.205-3.285 3.348-5.097 2.566.474 4.946 3.037 3.751 5.601-.547 1.163-1.742 1.977-1.752 3.624 0 .906-1.02 3.037.062 3.532 4.162 1.884 2.225 3.407 4.76 4.344.803.299 1.37-.988 2.029-1.05 1.793-.165 3.308-.257 3.936-2.419 1.741.319 3.338-.175 4.884.36 1.545.535 3.235 1.781 5.007 1.246 1.669-.505 1.999-2.739 3.081-3.748 1.607-1.493 1.03-3.531 1.823-4.983.732-1.349.855-2.255 1.237-3.737.906-3.46 3.812-6.178 4.945-9.483.598-1.739 1.082-2.934 2.833-3.974.309-.175.526-.885.969-.875 1.092.031 2.05 2.801 3.616 1.72.927-.649 2.916-3.789 3.349-4.654 4.141 1.503 23.089-5.827 22.656-5.251l51.525 26.233-18.916 26.285 11.601 20.221c.216.35-1.803 2.111-1.762 2.389l.052.03c.092.639.093 1.38.031 2.039l-.021.422c-.33.278-.515.7-.494 1.143-.33-.258-.547.185-.619.381a1.5 1.5 0 0 0-.103.607c-1.164 1.05-2.709.093-4.142-.103-.226-.031-.422.278-.463.474a5.2 5.2 0 0 0-.093 1.122c-.268.041-.587.165-.659.381-.083.237 0 .433.175.525.154.083.36.103.556.124.278 1.122.866 2.152 1.288 3.222.247.628.01 1.04 1.092.875.474-.072.691-.278.629-.864.175-.165.278-.556.391-.752.278-.206.67-.391.773-.803.093-.36.01-.741-.319-.978l.02-.7 1.175-.062.123 1.102c.021.288-.257.947.196.988v.741c.083 2.657-2.813 2.79-.36 3.418.02.093-.031.217 0 .299.597 1.585-.65 2.399.793 2.636a1.42 1.42 0 0 0 1.226 1.225c.021.268.103.556.361.721.298.195.432-.124.597-.278.258-.124.567-.186.783-.412.381-.392.711-.803.876-1.328.803-.258 1.102-.979 1.947-1.596-.082 4.272 2.164 3.789 1.752 8.658-.165 1.905.69 3.614.237 5.426-1.762-.628-.732-2.049-1.247-3.428-.67 1.348-1.752 5.065-.216 6.074 1.133.741 2.05-1.122 2.771-.309.196.217.361.567.546.886.206.597.392 1.235.845 1.699.082.185.196.35.35.483-.082.876.928 1.38.917 2.348-.69.36-1.483.679-1.514 1.174-.031.607.577 1.153.958 1.338 1.937.957 1.535-4.808 2.174-4.499l.474.041c2.205 5.199 1.422 2.739 3.441 4.808.546.556.783 1.349 1.504 1.421.144.34.608.71.866.926.226.536.422 1.318 1.051 1.442.69.144 1.205-.464 1.37-1.05l1.298-.103c.185.113.319.329.525.422 1.124 1.441-.092 4.2-.844 6.208-.042.124-.021.278-.083.391-.422-.061-.906-.051-1.216.289-.772.875-.422 3.222-.453 4.355-.36 2.471-1.37 4.767-3.699 6.424-.298-.71-.865-1.153-.958-1.616-.144-.721-.587-1.658-.165-2.471.732-1.411 1.453-2.996.618-4.479-1.226-2.193-4.296 3.212-4.162 4.983l2.267 1.225c-.546 1.174-1.917 1.123-1.834 2.399.731.371 1.71.474 1.834 1.164.123.69-.248 1.359-.567 1.915-.453.319-1.185.298-1.71.401-2.267-2.821-3.349-1.132-3.39-5.528 0-.34-.505-.196-.69-.371-1.772-1.689-1.999-.175-4.132-2.883l.083-.782c.257-.289.329-.68.288-.999-.051-.381-.185-1.091-.69-.803.185-.608.041-1.308.041-1.905.402-.268.845-.453.917-.834.093-.463.309-1.606-.361-1.74-1.576-.319-3.533-.298-4.471.886l-1.278.319c-.298-.587-1.123-.268-1.658-.402a1.4 1.4 0 0 0-.412-.051c-.856-.824-2.277-.978-3.328-.433-.217.114-.557-.03-.783.062-2.576-2.481-.897-3.964-6.079-4.828-2.483-.412-4.843-.659-7.119-1.72-5.647 2.451-7.46-.813-10.139.772-.35.083-1.009.021-1.277.381-1.844-.72-3.194.309-4.595 1.122-1.494.865-3.874.701-3.792 3.408l-4.358 1.493c-.804.278-3.771 4.582-6.357 2.348-1.875-1.617-3.73-3.058-5.77-4.17-.03-.175-.03-.412-.134-.556-.216-.288-.577-.144-.844-.124-.382.042-.763-.041-1.144-.072-.134-.01-.278 0-.412.011-.659.082-1.319.092-1.978.051-.32-.02-.969-.093-.989.35-1 .083-2.586.391-2.844-.854.041-.649.082-1.287-.206-2.07-.247-.669-1.154-.679-1.958-1.081a39.6 39.6 0 0 1-9.684-6.949l-.31-3.161c-1.493-.505-3.451.587-4.945-.237-1.154-.649-.278-3.295-.021-4.448.134-.617-.267-1.132-.247-1.75"/><path fill="var(--fill-0, #199444)" d="M161.626 105.669c.279.742 1.237 1.061 2.051 1.38l-1.061 2.193c-.588 1.215-.093 3.264-1.185 4.345-1.721 1.688-3.308 3.902-2.422 6.435l2.999 1.338c-.175 1.956.195 3.665 1.38 5.271-2.132 6.229-.979 3.336.196 9.627l2.576 1.235c.031.772-.649 1.926-.196 2.492 1.721 2.131 3.668.793 5.43-.278 1.009-.618 3.039.659 3.977-.649.638-.885.587-2.007 1.009-3.274 6.223-1.472 5.286 1.473 8.686.031.989-.422 2.946.062 3.462 1.246-1.762 2.728-3.761 5.498-4.884 8.556-.423 1.153-1.566 1.884-1.587 3.026-.165.114-.299.299-.443.433-.772.206-1.143.906-1.246 1.668-1.288 1.225-6.821 8.947-6.739 9.801-2.246-.051-1.586 8.813-1.349 10.615.948 7.3-1.669 10.028 1.215 12.736l3.071-.402c.206 1.843-.227 3.532.134 5.313.092.463.638.782.669 1.112-.113-1.37-1.143 5.508-1.442 5.045 1.988 1.668 3.534-.289 4.121 2.182.144.597.536 1.092 1.02 1.174 1.206.216 1.494-1.215 2.39-1.338 1.113-.155 1.587 1.688 2.72 1.554.145.391.536.639.866.865.124 1.514.968 2.79 2.318 3.737 2.339 1.637 4.286 3.779 6.8 5.179 1.515.855 3.07 1.339 4.162 2.605-.267 1.04-.886 2.43-.247 3.562.639 1.133 2.998-.092 3.617.361 1.246.906-1.33 2.491.855 4.849.587.628 1.741 2.007 2.854 1.215 1.751-1.267 6.037-2.43 7.51-1.668.413 6.692-.051 13.539-.401 20.292-.176.073-.371.196-.454.371-1.246.412-1.576-1.009-2.596-1.565-5.306-2.944-10.983-1.832-11.818-1.101l-1.998 1.74c-1.165 1.008-3.472.926-4.935 1.76-1.731.988-2.514.175-3.885-.504-2.658-1.329-5.749-1.555-8.551-2.646.433-1.38.69-2.543-.103-3.398-1.628-1.75-5.852-1.791-6.192-1.318-1.865 2.554-3.565 5.601-6.769 6.919-4.008 1.647-9.201.71-12.436-2.07-1.844-1.585-1.36-7.134-4.719-5.858-1.545.587-3.08.597-4.513-.381l-6.429-4.355c-6.686-4.53-9.107-.247-13.496-1.431-4.719-4.829-1.299-6.404-6.934-10.563l-5.595 1.966c.33-1.194.639-2.265-.35-2.872-.608-.371-2.226-.608-2.524.442-.392 1.36.546 2.554 1.174 3.841-1.339 1.616-5.254-1.431-5.45.329-.103.927 1.02 1.833-.114 2.77-.855-1.133-1.246-2.255-2.431-2.708-1.257-.484-1.762-1.544-2.689-2.492-1.216-1.245-.742 2.852-1.968 3.738-2.03 1.462-6.604.051-8.222-2.203-.67-.927.577-2.348.268-3.11-.814-2.007-3.4 1.143-4.543.978-1.515-.216-1.412-2.378-2.597-2.399-2.05-.03-.34 3.851-1.123 5.035-1.154 0-1.432-1.472-2.421-1.596-2.38-.288-4.513.093-6.955-.031-.649 2.451-2.38 4.005-3.42 6.095l-7.027 14.116c-.556 1.112-.412 2.471 0 3.5.876 2.245 4.636 1.596 4.05 4.366-.207.936-.104 1.997-.454 2.923-1.556 4.16-5.316 5.879-3.627 10.142.433 1.101.938 3.006 0 4.046-1.03 1.143-3.575.669-4.162-.638-.206-.453-.278-.69-.381-.834-.227-.32-.66-.412-.959-.155-.67.566.464 3.47-1.277 3.717-.732.103-2.545-.103-2.236-1.256.67-2.461.34-4.314-.66-6.394-1.133-2.347-1.112-5.261-2.76-7.341-1.03-1.307-2.957-.926-4.513-1.266-1.72-.381-4.173-2.491-3.71-4.015l.722-2.337c.37-1.195-5.728-5.663-6.645-7.732.03-.402-.031-.814.02-1.205l.052-.381c.35.134.33-.268.299-.473-.165-1.061-2.03-3.347-2.741-4.16m-.134.484-2.483-.196c-.474-.463-1.391-.628-1.793-1.307-.979-1.658.268-3.511.041-5.241-.257-1.935-3.05-1.503-4.275-.762-6.059 3.655-5.358 2.739-11.622 1.936-1.072-.134-1.886.402-2.607-.885-.937-1.658-1.782-3.624-2.174-5.591-1.01-5.014-2.555-2.275-4.904-10.491-.227-.783.67-1.524.763-2.379-1.937-1.194-1.958-2.738-2.205-4.715-.155-1.266-1.144-2.831-.938-4.365.083-.639-1.916-1.648-1.247-2.44 1.834-2.204 2.762-4.695 4.05-7.248.628-1.123 2.977-.042 4.007.123 2.02.33 3.524 1.38 3.874 3.696.258 1.678 2.896 4.427 4.39 2.78 1.102-1.215.72-3.881 3.4-4.19.546-.062 1.514-.968 1.226-1.668-.186-.453-.845-.752-1.68-1.318 1.803-2.265 5.08-2.327 7.975-3.758-2.556-2.419-2.617-8.226-4.472-9.863-1.277-1.122-3.42-1.555-3.925-3.521-.577-2.204-.886-4.582-1.237-6.95-.257-1.74-.04-3.428-1.7-4.643-.38-.278-.772-1.102-.628-1.493.32-.875 1.865.968.814-4.736-.886-.021-1.556-.113-1.937-.556-.629-.721.865-2.44-.093-4.427-.639-1.318-2.668 1.802-5.893-8.875-.206-.69.731-1.411 1.154-1.647 4.039-2.296.535-7.66 1.39-11.181.753-1.926 3.092-2.924 4.019-4.644.36-.659 1.978-.895 1.834-1.976.268-.165.783-.361.742-.793 1.081.041 1.524-1.225 2.39-1.833 4.822-3.367 2.555-7.33 3.214-11.655 2.813 1.761 5.039-.473 6.945 2.646 1.906 3.12-3.75 5.416-4.709 10.389 10.046 4.324 6.8 4.314 9.613 9.05s-.783 7.31.206 9.523c4.121-2.234 5.903 1.925 7.861.628 2.483-1.637 4.008-4.581 5.048-7.299.608-1.586-.443-3.645-1.916-3.903-3.493-.597-1.772-2.635-4.203-5.209.7-1.349 2.184-1.709 2.956-2.883.104-1.585-1.298-3.037-.886-4.643.382-1.483 2.432-2.039 3.71-2.492 4.378-1.544-.773-6.373 5.398-10.048 1.659-.989 3.617-1.823 4.853-3.367.67-.824.474-2.564 1.525-3.078 2.03-.979 3.317-2.266 3.791-4.54.824-3.954 4.1-6.353 3.658-10.883.165-1.143-.052-2.039-.505-2.976-.598-1.246-.247-2.82-.03-4.097.02-.145.04-.31.03-.453v-.71l13.847 3.726c.041 3.923 2.421.72 3.823 6.003.628 2.357 2.019 4.406 4.615 4.91 3.174.618 6.47.629 9.778.546 2.813-.061 2.792-3.912 2.627-5.59.649 0 1.494.04 2.318.257l17.649 4.788c.639.175.886 1.101 1.505 1.008.515 3.09 5.069 2.564 4.172 8.536 3.009 1.009 9.788-1.205 9.52-5.117 5.533.741 10.808 2.872 16.279 4.036-.021 2.491-17.031-3.583-15.228-2.08-7.057-11.346 12.92-1.112 15.516-1.967 3.163-1.04 1.731 1.648 1.484-1.441-.258-3.274 9.716.33 6.666-.103-3.462-.494-6.604 1.143-8.057 4.468l-17.268-4.818-1.782-1.02c-.381-.215-.505-1.327-1.216-1.286.031-.299.041-.618-.123-.937-.114-.227-.392-.618-.732-.37-.855-2.05-.422-4.346 1.556-5.859 1.411-1.081 2.699-3.418 1.586-5.096s-6.769-.66-8.242-4.119c.196-.39.381-1.204.649-1.462.299-.278.907-.566 1.298-.854l9.747 6.65c-1.556 3.491 5.522-5.497 8.706-3.335s1.576-.288 3.761-3.542 1.092 6.857-2.329 4.747c-4.956 13.096-8.747 7.629-10.684 3.078-3.235-2.697-5.399-4.417-8.943-7.032-.69-.504-1.741-3.191-1.865-3.953l.155-1.493c.607-.381.37-1.256.278-1.854.082-.39.041-.844.206-1.214 1.092-.69 2.215-1.545 2.689-2.77.144-.38.257-.793.268-1.205.896.618.669-2.882 2.411-3.922.206 0 .494.041.7 0 .866-.185 2.051-.062 2.586-.844l.722-.031c.803-.041 1.7-.103 2.235-.762 1.278.051 2.535-.412 3.637.453.083.69-.257 1.616.371 2.09-.154.247-.103.824-.062 1.122-.68-.206-.752.649-.721 1.153.031.505.35.917.886 1.04.392.082.814.309 1.216.35-.062.463.608.402.917.453.257.041.536.175.793.165.247.484.66.854 1.134 1.112.082.165.391.257.432.422.361 1.318 2.504 1.699 3.441.782.289.165.804-.113 1.123 0 .66.7 1.731.67 2.638.783.35.041.732.082 1.092.103.371.576 1.164.978 1.731.535.206.031.639-.195.824-.093.526.279 1.01-.36 1.628-.36 2.349 9.38 3.246 3.079 10.777 8.638 1.793 1.328 2.658 2.348 2.669 5.055 0 1.071.855 2.955-.227 4.047-4.183 4.22-4.09.04-6.728 2.553-.598.566-1.978 1.493-1.278 2.708.701 1.215 3.308 1.946 3.421 3.562.196 2.8.227 5.467.824 8.206-2.442 7.361-2.359 2.543-2.359 10.831-.175 0-.453-.072-.608.02-.196.124-.258.422-.247.783l.02 3.356"/><path fill="var(--fill-0, #199444)" d="M289.226 39.547c2.164 3.006.989-1.843 4.338-4.077 3.029-2.018 5.131 3.346 3.286-.31 2.164-.442 3.339.176 5.698.866.484 1.214.938 2.44 1.247 3.706.051.206.082.649.391.474.103 2.378 3.555 5.147 4.946 5.024-.062.916 1.092 1.112 1.834 1.07.257 0 .535.073.793.021l-3.328 2.996c-1.144 1.03-2.473 1.431-2.267 3.511-1.524-.247-2.05-1.308-3.173-1.37-1.308-.071-2.112 1.411-3.348 1.504-2.597.195-5.059.525-7.223 2.234-2.936-7.701-4.131-3.089-7.418-7.485-.299-.401-1.257-.813-1.721-.772-1.864.144-.813 5.333-3.564 9.42-2.751 4.088-.516 5.385-4.678 5.848-3.647.402-7.109 1.473-10.674 2.1-1.607.279-2.215 1.35-2.122 2.647.226 3.191 2.596 1.513 4.554 3.366.34.32.659 1.504.051 1.874-5.378 3.315-.886 6.837-4.852 7.712-.691.154-1.773.906-2.216 1.482-1.586 2.09 2.669 4.726 3.586 7.125.453 1.184-.227 2.605.402 3.747l3.348.525c.629.103 1.855 1.607 2.071 2.296.361 1.153-.938 2.605.237 3.635 1.041.916 2.442 1.328 3.647 2.532-.721 1.205-2.019 1.257-2.854 2.121-1.267 1.318-1.792 3.202-3.173 4.366-1.226 1.029-3.132.957-4.42 1.822-4.018 2.728-8.088.041-10.664 2.131-1.39 1.133.145 3.542-.329 4.788-.68 1.802-2.009 3.191-1.875 5.148m-25.469 9.348c-.783.947-1.968-1.472-2.638-1.699-1.113-.381-2.504 1.575-3.977 2.657-1.576 3.788-3.338 7.402-5.687 10.82-.69 1.009-.515 2.337-.618 3.264-1.35.937-1.402 2.08-1.556 3.84-.175 1.987-2.03 3.892-3.039 5.539-.639 1.05-2.288.855-3.143.35-1.638-.967-3.101-.947-4.945-.967-.979 0-2.092-.876-2.978.072-.464.494-1.03 2.09-1.896 1.873-1.535-.391-1.998.145-3.183 1.102-1.061.865-2.081-3.325-4.544-4.18-1.205-2.038.557-4.88 1.834-6.569 1.278-4.488-5.687-7.69-7.851-7.742-1.947-.051-3.328.278-5.296-.546-.937-.391-2.946.639-4.172.505-.845-.093-1 1.575-1.031 2.203-.164 3.037-3.523.916-5.007 2.08-.669.525-1.113 1.06-1.834 1.019-.659-.041-1.71-.01-1.823-.968-.114-.957.175-1.832-.165-2.79-2.133-.144-2.813-1.348-2.998-3.294-.114-1.143-1.165-2.543-.454-3.707.948-1.565.835-2.944.052-4.53-.67-1.359-.165-3.233-.979-4.53-.391-.628-2.122-.35-2.431-1.215-.763-2.08.546-3.943 2.081-5.158s.391-4.262 3.101-7.104c.433-.453-.361-1.699.216-1.894 1.329 2.635 1.185-2.78 1.185-3.655 1.824-1.967 1.041-4.819 2.833-7.393s1.371-5.497.567-8.473c-.35-1.297.927-3.058-.093-4.118l-3.245-3.356c-.824-.855 1.638-2.554 2.782-2.358 2.957.494 5.718-1.483 5.594-4.602-.062-1.627-.092-4.222-1.215-5.611-2.401-2.955-6.182-4.572-9.933-4.912-2.07-2.059-3.018-4.972-2.524-7.67l.155-.813c.463 0 .381-.68.36-.999-.041-.648.042-1.297.083-1.935v-.484c.031-.36 0-.773-.031-1.133-.083-.895-.113-2.193-1.236-2.141-.186-.175-.413-.392-.67-.443.257-.32-.103-.649-.361-.752-.226-.092-.453 0-.639 0-.381.021-.762 0-1.133-.03-.937-.248-1.617-.968-2.504-1.298-.226-.514-.556-.968-.494-1.575-.206-3.51 2.823-2.028 2.019-7.238.052-.638.402-1.143.938-1.482.412-.175.597-.598.907-.876.577-.525.783-1.256.7-2.028-.031-.267.113-.587-.144-.916-.103-.134-.247-.34-.484-.113 0-.237-.031-.484-.031-.721l.742-2.945c.329-.36.535-.803.814-1.194.195-.257.494-.463.484-.844 0-.134.041-.288.01-.412.659-.134.711-.793.639-1.349-.062-.494.072-1.194.093-1.668l.762-.02c.103.298.649.319.876.546.196 1.184 1.597 1.204 2.617 1.173.226 0 .505.031.711 0l.896.041c.237 0 .474 0 .711-.02.34-.02.937.051.958-.412h.701c.329 0 .958.062.968-.412h.701c1.442-.03 3.08-.391 4.306-1.225h.732l.855.093c.113 0 .247.03.35 0-.257.319.093.607.34.7.217.082.433.103.619.092.103 0 .206.021.309 0-.248.35.103.639.34.742.35.144.669.113.968.113.134 0 .278 0 .412.02.186.629.577 1.185 1.298 1.195h.309c-.123.319.031.638.299.73.227.083.433.093.629.083.566.278.824.803.876 1.41.051.608-.701.68-.876 1.071-.66.114-1.422.67-1.608 1.195-.226.648.217 1.462.639 1.657.629.289 1.453.052 1.772-.432.67-.052 1.34.03 1.999.113-.154.33.083.566.32.7.195.103.494 0 .618.093 1.051.855 2.39.144 3.771.175 1.298.03 1.926 1.699 3.286 1.966 2.854-1.173 5.749-1.225 8.778-.473 1.031.257 2.298-1.02 2.556-1.925.443-1.617 2.184-2.276 2.699-3.398.793-1.72.701-3.717 1.813-5.498.876-1.4.34-3.768 1.577-5.086 6.315-6.754 6.624-6.672 16.381-8.38 1.845-.32 3.565.34 5.162 1.173 4.08 2.142 5.018-1.112 7.212-2.975 2.308-1.957 3.73 2.697 5.976 1.523 2.947-1.534 5.749-.895 8.768-.278 1.916.392 3.482.196 4.925 1.843 1.112 1.277 3.204.762 4.121-.422 1.061-1.37 3.472-.453 4.502-1.287 4.451-3.603 9.149-5.333 14.857-5.343C282.56 2.925 284.188.217 290.524 0c.67-.02 1.463.247 1.608.659.979 2.831-1.463 5.117-4.297 6.394-1.051.473-2.823 1.359-2.637 2.78.278 2.162.669 4.468 1.453 6.455.546 1.38.978 2.42-.382 3.737 1.515.494 3.112.381 3.864 1.493 2.792 4.16 5.162.566 6.769 3.171 2.607 4.242-2.885 8.854 2.452 10.234l-.103.02c.165 1.329-1.731 1.782-2.576 2.842"/><path fill="var(--fill-0, #199444)" d="M306.741 80.825c-.7 2.327-8.685 3.44-8.623 8.813.02 1.771 2.771 4.242 4.368 4.448s2.246.608 2.936 1.781c.289.484 2.143.34 2.02 1.308-.639 4.777 4.203 2.049 3.348 10.213-.278 2.687-3.74.608-5.44 5.014-.34.886-1.257 1.843-.731 3.037 1.257 2.883 1.463 6.198 1.906 9.266 1.525.402 2.709 2.08 3.781 2.76 1.751 1.112 2.565 1.338 3.05 3.48.525 2.306 1.555 4.694 2.503 6.97.454 1.091 2.597 1.956 3.617 1.904 1.02-.051 1.669-1.081 2.544-.422 2.875 2.193 1.711 3.295 3.225 3.367 2.731.124 3.091-3.418 5.224-3.614 1.803-.164 2.205-1.153 3.183-2.368.608-.751 2.144.937 2.123 1.802s.484 1.359 1.082 1.369c1.133.031 1.164-2.275 3.266-2.429 2.102-.155-.618 3.397 6.563 2.882.824-.226.783-1.647 1.411-2.007.783-.453 1.587.411 1.917.895.309.453.597 1.617.371 2.214-.897 2.44 1.246 4.067 1.885 5.848.721 2.018 1.391 3.078 2.586 4.643-.876-1.143 2.998 7.773 2.936 7.918-.886 2.193-9.004.628-11.889 2.481-3.771 2.43-7.491 4.726-10.932 7.33-.34 0-.68.031-.968.227-.969.309-6.089 3.264-7.068 2.687l-79.364-52.817c-22.244 28.015-44.344 21.436-23.573-6.939-.381-4.231 13.528-16.679 12.096-20.324-1.742-4.427 26.375-20.22 28.941-20.859 1.638-.411-5.379 34.172-3.596 34.017 3.163-.278 3.441-4.983 6.563-6.208.876-.34 1.329-.906 1.236-1.75-.165-1.545-3.4-1.75-3.822-3.583-.258-1.133.546-2.049.433-3.243-1.247-.31-1.7-1.967-2.669-2.142l-3.256-.607c-.546-1.081.227-2.4-.247-3.521-.773-1.854-2.658-2.945-3.544-4.726-1.226-2.45 3.111-2.697 3.647-3.356.742-.917.175-5.066 1.978-6.137 1.257-.74 1.958-1.647 1.731-2.985-.566-3.336-5.244-.978-4.708-4.222.113-.7.762-1.606 1.885-1.822 4.235-.813 8.562-1.246 12.642-2.656 1.484-.515.896-2.471 1.535-3.408 4.884-7.31 2.514-10.224 4.317-10.975.288-.124.886.288 1.092.576 3.019 4.283 4.719-.308 7.521 7.475 1.587.185 2.607-1.637 4.111-1.688 2.452-.083 4.781-.67 6.852-1.885 1.112.33 2.431 1.524 3.688.762.474-.453.165-1.688.804-2.07 3.41-1.986 4.255-5.394 7.675-3.644h.031c1.226.628 2.319 1.452 3.668 1.781.67.165 1.566.773 2.154 0 1.617 0 3.327-.38 4.924-.144l.897.02c.824-.184 1.792.248 2.524.464a2.68 2.68 0 0 0 1.576 1.36c.567.174 1.34.277 1.669-.382.402.124 1.319-.298 1.731.155.66.73.32 1.78.412 2.532l.351 2.986c.257 2.152.669 4.221.206 6.363-4.039.906-6.615-.02-8.84 4.025-1.278 2.327 3.204 1.298 1.823 4.551-2.987-.69-6.119-.67-9.107.268-4.008 1.256-2.679 4.725-6.45 10.501-.278.422-.556.855-1.339.762"/><path fill="var(--fill-0, #2a4385)" d="M158.281 50.195c-.052-.144 0-.329 0-.483zM178.301 149.929c.154-.134.278-.319.442-.432zM183.729 200.266c-.33-.227-.721-.474-.866-.865.598-.072.526.731.866.865"/><path fill="var(--fill-0, #199444)" d="M237.789 118.301c.464.083 1.041-.226 1.494-.082.824.268 1.576-.216 2.576-.216 3.358 0 2.854 3.603 4.657 4.468 2.174 1.04 5.234.494 6.954-1.534l83.65 49.121c.814.484 1.381.659 1.206 1.462v-.031l-13.147 6.27c-2.153 1.029-4.595 1.307-6.625 2.574-1.288.803-2.256 1.843-3.997 1.904-.67.031-1.309.351-1.577.814l-2.277.401c2.154-2.615 1.381-4.694 3.854-5.261-.279.484.34.731.711.556s.618-.525.566-1.225c-.062-.957.835-.916.927 0 .258.865 1.093.587 1.721.463.381-.082.608-.586.69-1.122.031-.226-.031-.628-.092-.844 1.174-2.903 1.772-1.153 3.132-2.759.123-.042.278 0 .391-.052.876-.401 1.504-1.369 1.474-2.481-1.494.34-2.422 1.503-3.637 2.008-1.309-.999-2.051-2.338-2.473-4.191-2.174 1.092-6.367 3.913-4.513 6.703-.546.339-1.463.041-1.741-.412-.453-.752-1.195-.608-2.05-.865-.011-.268 0-.597-.031-.844-.031-.319.247-1.256-.412-1.256-.66 0-.402.926-.495 1.225-.031.103-.021.237-.041.35-.701.185-.793.906-.577 1.472.268.711.968.731 1.576.824.443.062.783.556 1.175.721a4 4 0 0 0-.011.844c-.226.041-.473.103-.7.103-.33 0-.896-.165-.927.298h-.412c-.165-.37-.31-.751-.361-1.081-.103-.648-.495-.535-.969-.463-.989.154-2.173-.175-2.833.721-.103.134-.361.164-.433.35-.628.092-1.215.35-1.627.844-.351.021-.66.206-.845.505a6.8 6.8 0 0 0-2.04 2.028 1.06 1.06 0 0 0-.505.844c-.794.535-1.113 1.493-1.247 2.409-.67-1.019-1.926 5.807-.35 4.335-.083 1.06-.495 2.1-.412 3.181"/></svg>