<svg xmlns="http://www.w3.org/2000/svg" fill="none" overflow="visible" preserveAspectRatio="none" style="display:block" viewBox="0 0 93 77"><g clip-path="url(#a)"><path fill="var(--fill-0, #f7f3ea)" stroke="var(--stroke-0, #2a4385)" stroke-miterlimit="10" stroke-width="2" d="M90.12 66.648H16.13c-.903 0-1.613-.95-1.588-2.094l1.524-47.227c.04-1.08.736-1.927 1.589-1.927h70.941c.853 0 1.55.848 1.589 1.927l1.524 47.227c.038 1.143-.685 2.094-1.589 2.094Z"/><path fill="var(--fill-0, #f7f3ea)" stroke="var(--stroke-0, #2a4385)" stroke-miterlimit="10" stroke-width="2" d="M48.934 66.648H24.486c-1.201 0-2.17-.835-2.157-1.85l1.214-56.694c.026-.989.982-1.785 2.157-1.785h22.02c1.175 0 2.13.796 2.157 1.785l1.213 56.694c.026 1.015-.942 1.85-2.156 1.85Z"/><path fill="var(--fill-0, #2a4385)" stroke="var(--stroke-0, #2a4385)" stroke-miterlimit="10" stroke-width="2" d="M32.946 1.284h7.53c2.517 0 4.661 2.042 4.932 4.765 0 .064.013.129.026.206 1.201 12.292-1.265 12.086-1.15 24.763.117 13.32 3.036 13.563 1.344 25.187v.064c-.387 2.595-2.48 4.496-4.895 4.496h-7.968c-2.415 0-4.456-1.888-4.895-4.47a36 36 0 0 1-.284-1.965c-1.24-10.982 1.614-10.763 1.847-23.312.232-12.818-2.88-12.831-1.46-24.673.013-.142.04-.283.052-.424.349-2.659 2.454-4.637 4.92-4.637Z"/><path fill="var(--fill-0, #2a4385)" d="M34.535 62.05c.18 2.773.142 5.548-.181 8.31-.052.487-.039 1.579-.375 1.99s-.8.334-1.343.385c-1.408.142-2.815.206-4.236.27-5.644.27-11.365.206-16.893-1.066-2.208-.5-4.946-1.053-6.47-2.89-1.266-1.528-1.434-3.699-.956-5.549 1.188-4.585 5.941-6.833 10.138-8.053 2.39-.693 1.37-4.418-1.033-3.712-4.468 1.298-9.027 3.507-11.52 7.617-2.208 3.635-2.415 8.695.349 12.086 3.1 3.815 9.144 4.56 13.702 5.112 5.696.694 11.495.488 17.203.013 1.42-.116 2.738-.321 3.758-1.387.879-.912 1.176-2.171 1.344-3.378.465-3.237.568-6.487.361-9.736-.155-2.466-4.03-2.479-3.874 0z"/><path fill="var(--fill-0, #2a4385)" stroke="var(--stroke-0, #2a4385)" stroke-miterlimit="10" stroke-width=".81" d="M62.993 42.903c1.126 0 2.039-.908 2.039-2.028s-.913-2.028-2.04-2.028c-1.126 0-2.039.908-2.039 2.028s.913 2.028 2.04 2.028ZM70.641 42.87c1.126 0 2.04-.909 2.04-2.029s-.914-2.028-2.04-2.028-2.04.908-2.04 2.028.914 2.028 2.04 2.028ZM78.28 42.927c1.127 0 2.04-.908 2.04-2.028s-.913-2.028-2.04-2.028c-1.126 0-2.039.907-2.039 2.028s.913 2.028 2.04 2.028ZM62.993 50.328c1.126 0 2.039-.908 2.039-2.028s-.913-2.028-2.04-2.028c-1.126 0-2.039.908-2.039 2.028s.913 2.028 2.04 2.028ZM70.641 50.305c1.126 0 2.04-.908 2.04-2.028s-.914-2.028-2.04-2.028-2.04.908-2.04 2.028.914 2.028 2.04 2.028ZM78.28 50.362c1.127 0 2.04-.908 2.04-2.028s-.913-2.028-2.04-2.028c-1.126 0-2.039.908-2.039 2.028s.913 2.028 2.04 2.028ZM62.993 57.81c1.126 0 2.039-.908 2.039-2.028s-.913-2.028-2.04-2.028c-1.126 0-2.039.908-2.039 2.028s.913 2.028 2.04 2.028ZM70.641 57.787c1.126 0 2.04-.908 2.04-2.028s-.914-2.028-2.04-2.028-2.04.908-2.04 2.028.914 2.028 2.04 2.028ZM78.28 57.845c1.127 0 2.04-.908 2.04-2.028s-.913-2.028-2.04-2.028c-1.126 0-2.039.907-2.039 2.028s.913 2.028 2.04 2.028Z"/><path fill="var(--fill-0, #f7f3ea)" stroke="var(--stroke-0, #2a4385)" stroke-miterlimit="10" stroke-width="2" d="M80.279 31.75H60.647a1.93 1.93 0 0 1-1.937-1.927l.142-6.846c0-1.065.865-1.939 1.911-1.939H80.15c1.06 0 1.912.874 1.912 1.94l.142 6.845a1.93 1.93 0 0 1-1.937 1.927z"/></g><defs><clipPath id="a"><path fill="#fff" d="M0 0h93v77H0z"/></clipPath></defs></svg>