<svg xmlns="http://www.w3.org/2000/svg" fill="none" overflow="visible" preserveAspectRatio="none" style="display:block" viewBox="0 0 377.25 369.202"><g stroke="var(--stroke-0, #2a4385)" stroke-miterlimit="10" stroke-width="2"><path fill="var(--fill-0, #2a4385)" d="M246.469 1.132 111.937 40.344c-1.764.514-2.76 2.304-2.224 3.997l1.584 5.008c.535 1.693 2.399 2.65 4.163 2.135l134.532-39.212c1.764-.514 2.76-2.304 2.224-3.997l-1.584-5.008c-.535-1.693-2.399-2.649-4.163-2.135Z"/><path fill="var(--fill-0, #f7f3ea)" d="M278.46 39.42H83.52c-1.843 0-3.337 1.434-3.337 3.203v32.492c0 1.77 1.494 3.204 3.338 3.204H278.46c1.844 0 3.338-1.434 3.338-3.204V42.624c0-1.77-1.494-3.205-3.338-3.205Z"/><path fill="var(--fill-0, #2a4385)" d="M87.082 121.107v-13.778c0-1.965 1.669-3.568 3.716-3.568h85.297a3.8 3.8 0 0 1 1.535.321l36.051 15.658c3.672 1.602 2.448 6.879-1.602 6.815l-121.348-1.88c-2.025-.022-3.65-1.624-3.65-3.568ZM117.035 169.694l-109.4-42.302c-1.71-.661-3.655.133-4.344 1.775l-2.037 4.855c-.69 1.641.139 3.508 1.849 4.169l109.401 42.302c1.71.662 3.654-.133 4.343-1.775l2.037-4.854c.689-1.642-.139-3.508-1.849-4.17ZM260.065 113.652l113.724-30.009c1.778-.47 2.823-2.233 2.334-3.939l-1.445-5.046c-.489-1.707-2.326-2.71-4.103-2.24L256.85 102.425c-1.778.469-2.822 2.232-2.334 3.939l1.445 5.046c.489 1.707 2.326 2.71 4.104 2.241Z"/><path fill="var(--fill-0, #f7f3ea)" d="M278.461 61.957H201.42c-1.843 0-3.338 1.434-3.338 3.204v282.661c0 1.77 1.495 3.205 3.338 3.205h77.041c1.844 0 3.338-1.435 3.338-3.205V65.161c0-1.77-1.494-3.204-3.338-3.204Z"/><path fill="var(--fill-0, #f7f3ea)" d="M262.349 122.496H83.81c-1.843 0-3.338 1.435-3.338 3.204v222.122c0 1.77 1.495 3.204 3.338 3.204H262.35c1.843 0 3.338-1.434 3.338-3.204V125.7c0-1.769-1.495-3.204-3.338-3.204Z"/><path d="M80.183 222.577H267.4M78.625 266.219H265.82M80.183 309.862H267.4M198.082 108.868h83.695"/><path fill="var(--fill-0, #2a4385)" d="M268.603 70.33h-56.212c-1.843 0-3.338 1.435-3.338 3.205v23.413c0 1.77 1.495 3.204 3.338 3.204h56.212c1.844 0 3.338-1.435 3.338-3.204V73.535c0-1.77-1.494-3.204-3.338-3.204ZM200.552 199.036h-53.541c-1.844 0-3.338 1.435-3.338 3.205v4.507c0 1.77 1.494 3.204 3.338 3.204h53.541c1.844 0 3.338-1.434 3.338-3.204v-4.507c0-1.77-1.494-3.205-3.338-3.205ZM107.243 351.026H96.028c-1.844 0-3.339 1.435-3.339 3.204v10.767c0 1.77 1.495 3.204 3.339 3.204h11.215c1.844 0 3.338-1.434 3.338-3.204V354.23c0-1.769-1.494-3.204-3.338-3.204ZM254.495 351.027h-11.216c-1.844 0-3.338 1.434-3.338 3.204v10.766c0 1.77 1.494 3.205 3.338 3.205h11.216c1.843 0 3.338-1.435 3.338-3.205v-10.766c0-1.77-1.495-3.204-3.338-3.204Z"/></g></svg>