<svg xmlns="http://www.w3.org/2000/svg" fill="none" overflow="visible" preserveAspectRatio="none" style="display:block" viewBox="0 0 417 352"><g stroke="var(--stroke-0, #2a4385)" stroke-miterlimit="10" stroke-width="2"><path fill="var(--fill-0, #2a4385)" d="M31.053 318h-6.82c-3.364 0-6.09 4.448-6.09 9.936v11.128c0 5.488 2.726 9.936 6.09 9.936h6.82c3.364 0 6.09-4.448 6.09-9.936v-11.128c0-5.488-2.726-9.936-6.09-9.936ZM392.053 319h-6.82c-3.363 0-6.09 4.592-6.09 10.256v11.488c0 5.664 2.727 10.256 6.09 10.256h6.82c3.364 0 6.09-4.592 6.09-10.256v-11.488c0-5.664-2.726-10.256-6.09-10.256Z"/><path fill="var(--fill-0, #f7f3ea)" d="M409.781 1H7.219A6.22 6.22 0 0 0 1 7.221v10.867a6.22 6.22 0 0 0 6.22 6.221H409.78A6.22 6.22 0 0 0 416 18.088V7.221A6.22 6.22 0 0 0 409.781 1Z"/><path fill="var(--fill-0, #f7f3ea)" d="M202.26 24.31H7.22A6.22 6.22 0 0 0 1 30.53v293.606a6.22 6.22 0 0 0 6.22 6.221h195.04a6.22 6.22 0 0 0 6.22-6.221V30.531a6.22 6.22 0 0 0-6.22-6.222Z"/><path fill="var(--fill-0, #f7f3ea)" d="M409.739 24.641h-195.04a6.22 6.22 0 0 0-6.219 6.221v293.606a6.22 6.22 0 0 0 6.219 6.221h195.04a6.22 6.22 0 0 0 6.22-6.221V30.862a6.22 6.22 0 0 0-6.22-6.22Z"/><path fill="var(--fill-0, #2a4385)" d="M339.004 50.232h-53.57a6.22 6.22 0 0 0-6.219 6.22v11.904a6.22 6.22 0 0 0 6.219 6.222h53.57a6.22 6.22 0 0 0 6.219-6.222V56.453a6.22 6.22 0 0 0-6.219-6.222ZM131.525 50.232h-53.57a6.22 6.22 0 0 0-6.22 6.22v11.904a6.22 6.22 0 0 0 6.22 6.222h53.57a6.22 6.22 0 0 0 6.219-6.222V56.453a6.22 6.22 0 0 0-6.219-6.222Z"/></g></svg>