<svg xmlns="http://www.w3.org/2000/svg" fill="none" overflow="visible" preserveAspectRatio="none" style="display:block" viewBox="0 0 230 366"><g stroke="var(--stroke-0, #2a4385)" stroke-miterlimit="10" stroke-width="2"><path fill="var(--fill-0, #2a4385)" d="M20.533 361.843c0 .313.25.594.564.594 57.022.156 114.044.281 171.066.437 8.903 0 17.68-3.125 24.138-9.282 6.771-6.47 10.501-15.253 10.501-24.63v-96.797c0-7.627-2.539-15.159-7.648-20.785-5.58-6.126-13.261-9.533-21.442-9.533H138.37c-.314 0-.596.25-.564.594v3.125c.062 2.595 2.225 4.72 4.827 4.72h54.075c5.236 0 10.439 1.563 14.389 4.938 4.734 4.063 7.336 9.814 7.336 15.972v96.923c0 6.626-2.195 13.189-6.646 18.065-4.859 5.314-11.505 8.252-18.621 8.252H21.16a.56.56 0 0 0-.564.562v6.845z"/><path fill="var(--fill-0, #f7f3ea)" d="M196.583 201.534H74.765c-3.511.125-14.859.032-25.8-7.876-11.473-8.314-14.921-19.785-15.799-23.191 0-.094-.031-.188-.062-.282C23.133 115.989 13.165 61.761 3.196 7.564 2.76 5.22 4.608 3.063 7.022 3.126h.094c1.818.062 3.323 1.344 3.605 3.125a347 347 0 0 0 5.235 25.91c5.893 24.349 8.997 36.663 17.116 43.727 8.339 7.251 18.527 8.033 38.872 9.627 26.426 2.031 33.636-3.595 46.551 2.813 9.938 4.938 14.828 12.846 21.254 23.254 16.521 26.692 10.972 41.475 21.411 56.697 6.896 10.064 21.599 21.41 56.802 23.691 2.007.125 3.574 1.751 3.574 3.751v2.032c0 2.062-1.693 3.75-3.762 3.75l-21.222.063z"/></g></svg>