<svg xmlns="http://www.w3.org/2000/svg" fill="none" overflow="visible" preserveAspectRatio="none" style="display:block" viewBox="0 0 570 261"><g stroke="var(--stroke-0, #2a4385)" stroke-miterlimit="10" stroke-width="2"><path fill="var(--fill-0, #f7f3ea)" d="M110.006 256.941h-.735c-3.838 0-6.737-3.491-6.002-7.266l34.668-176.811a6.11 6.11 0 0 1 6.002-4.912h4.247c3.92 0 6.819 3.572 6.003 7.388L115.968 252.15c-.612 2.801-3.103 4.79-6.003 4.79zM81.709 256.941h-.736c-3.838 0-6.737-3.491-6.002-7.266L109.68 72.864a6.11 6.11 0 0 1 6.002-4.912h4.247c3.92 0 6.819 3.572 6.003 7.388L87.712 252.15c-.614 2.801-3.104 4.79-6.004 4.79ZM462.607 256.941h.735c3.839 0 6.738-3.491 6.003-7.266L434.636 72.864a6.115 6.115 0 0 0-6.003-4.912h-4.246c-3.92 0-6.82 3.572-6.003 7.388l38.221 176.811c.612 2.801 3.103 4.79 6.002 4.79ZM490.905 256.941h.735c3.838 0 6.738-3.491 6.003-7.266L462.934 72.864a6.115 6.115 0 0 0-6.003-4.912h-4.247c-3.92 0-6.819 3.572-6.002 7.388l38.22 176.811c.613 2.801 3.104 4.79 6.003 4.79Z"/><path fill="var(--fill-0, #2a4385)" d="M559.792 56.06H10.209c-3.383 0-6.125 2.725-6.125 6.088v7.184c0 3.363 2.742 6.089 6.125 6.089h549.583c3.382 0 6.125-2.726 6.125-6.089v-7.184c0-3.363-2.743-6.089-6.125-6.089Z"/><path fill="var(--fill-0, #f7f3ea)" d="M164.77 19H75.23C72.342 19 70 21.366 70 24.284v7.432C70 34.634 72.342 37 75.23 37h89.54c2.888 0 5.23-2.366 5.23-5.284v-7.432c0-2.918-2.342-5.284-5.23-5.284Z"/><path fill="var(--fill-0, #f7f3ea)" d="M164.77 36.959H75.23c-2.888 0-5.23 2.365-5.23 5.283v7.433c0 2.918 2.342 5.284 5.23 5.284h89.54c2.888 0 5.23-2.366 5.23-5.284v-7.433c0-2.918-2.342-5.283-5.23-5.283ZM164.77 1H75.23C72.342 1 70 3.366 70 6.284v7.432C70 16.634 72.342 19 75.23 19h89.54c2.888 0 5.23-2.366 5.23-5.284V6.284C170 3.366 167.658 1 164.77 1Z"/></g></svg>