<svg xmlns="http://www.w3.org/2000/svg" fill="none" overflow="visible" preserveAspectRatio="none" style="display:block" viewBox="0 0 1097 383"><g stroke="var(--stroke-0, #2a4385)" stroke-miterlimit="10" stroke-width="2"><path d="M724.087 37.668c6.639 0 12.02-5.376 12.02-12.008s-5.381-12.007-12.02-12.007-12.021 5.376-12.021 12.007c0 6.632 5.382 12.007 12.021 12.007Z"/><path fill="var(--fill-0, #2a4385)" d="M1043.47 92.67V81.125c0-2.139-1.73-3.873-3.88-3.873H47.324a3.875 3.875 0 0 0-3.878 3.873V92.67a3.875 3.875 0 0 0 3.878 3.873h992.266c2.15 0 3.88-1.734 3.88-3.873Z"/><path fill="var(--fill-0, #f7f3ea)" d="M1057.19 64h-19.38c-2.1 0-3.81 1.815-3.81 4.055v309.89c0 2.24 1.71 4.055 3.81 4.055h19.38c2.1 0 3.81-1.815 3.81-4.055V68.055c0-2.24-1.71-4.055-3.81-4.055ZM58.19 64H38.81C36.706 64 35 65.815 35 68.055v309.89c0 2.24 1.706 4.055 3.81 4.055h19.38c2.104 0 3.81-1.815 3.81-4.055V68.055C62 65.815 60.294 64 58.19 64Z"/><path fill="var(--fill-0, #f7f3ea)" d="M1096 73.354V53.652c0-2.14-1.74-3.874-3.88-3.874H4.878A3.876 3.876 0 0 0 1 53.652v19.702a3.875 3.875 0 0 0 3.878 3.873H1092.12c2.14 0 3.88-1.734 3.88-3.873Z"/><path fill="var(--fill-0, #f7f3ea)" d="M717.495 1h-30.762a3.876 3.876 0 0 0-3.878 3.873V46.19a3.876 3.876 0 0 0 3.878 3.873h30.762a3.875 3.875 0 0 0 3.878-3.873V4.873A3.876 3.876 0 0 0 717.495 1Z"/></g></svg>