<svg xmlns="http://www.w3.org/2000/svg" fill="none" overflow="visible" preserveAspectRatio="none" style="display:block" viewBox="0 0 229 366"><g stroke="var(--stroke-0, #2a4385)" stroke-miterlimit="10" stroke-width="2"><path fill="var(--fill-0, #2a4385)" d="M20.444 361.843c0 .313.25.594.562.594 56.774.156 113.547.281 170.322.437 8.864 0 17.603-3.125 24.033-9.282 6.741-6.47 10.455-15.253 10.455-24.63v-96.797c0-7.627-2.528-15.159-7.615-20.785-5.556-6.126-13.203-9.533-21.349-9.533h-59.084c-.312 0-.593.25-.562.594v3.125c.063 2.595 2.217 4.72 4.807 4.72h53.84c5.213 0 10.394 1.563 14.326 4.938 4.713 4.063 7.304 9.814 7.304 15.972v96.923c0 6.626-2.185 13.189-6.617 18.065-4.838 5.314-11.455 8.252-18.54 8.252H21.068a.56.56 0 0 0-.562.562v6.845z"/><path fill="var(--fill-0, #f7f3ea)" d="M195.728 201.534H74.44c-3.496.125-14.794.032-25.687-7.876-11.424-8.314-14.857-19.785-15.731-23.191 0-.094-.031-.188-.062-.282C23.033 115.989 13.109 61.761 3.183 7.564 2.747 5.22 4.588 3.063 6.99 3.126h.094c1.81.062 3.308 1.344 3.59 3.125a348 348 0 0 0 5.212 25.91c5.868 24.349 8.958 36.663 17.041 43.727 8.303 7.251 18.446 8.033 38.703 9.627 26.311 2.031 33.49-3.595 46.349 2.813 9.894 4.938 14.763 12.846 21.162 23.254 16.448 26.692 10.924 41.475 21.317 56.697 6.867 10.064 21.505 21.41 56.556 23.691 1.997.125 3.558 1.751 3.558 3.751v2.032a3.76 3.76 0 0 1-3.746 3.75l-21.13.063z"/></g></svg>