<svg xmlns="http://www.w3.org/2000/svg" fill="none" overflow="visible" preserveAspectRatio="none" style="display:block" viewBox="0 0 162.307 98.869"><g fill="var(--fill-0, #f7f3ea)" stroke="var(--stroke-0, #2a4385)" stroke-miterlimit="10" stroke-width="2"><path d="M157.47 83.724H4.837A3.837 3.837 0 0 0 1 87.56v6.471a3.837 3.837 0 0 0 3.837 3.837H157.47a3.837 3.837 0 0 0 3.837-3.837v-6.471a3.837 3.837 0 0 0-3.837-3.837Z"/><path d="M142.713 1H17.808a3.837 3.837 0 0 0-3.837 3.837v75.05a3.837 3.837 0 0 0 3.837 3.837h124.905a3.836 3.836 0 0 0 3.836-3.837V4.837A3.836 3.836 0 0 0 142.713 1Z"/></g></svg>