<svg xmlns="http://www.w3.org/2000/svg" fill="none" overflow="visible" preserveAspectRatio="none" style="display:block" viewBox="0 0 236 378"><g stroke="var(--stroke-0, #2a4385)" stroke-miterlimit="10" stroke-width="2"><path fill="var(--fill-0, #2a4385)" d="M21.069 373.707c0 .323.257.613.579.613 58.509.161 117.018.291 175.528.452 9.135 0 18.141-3.228 24.768-9.587 6.947-6.682 10.775-15.753 10.775-25.437v-99.971c0-7.877-2.605-15.656-7.848-21.467-5.726-6.327-13.606-9.845-22.002-9.845H141.98c-.322 0-.612.258-.579.613v3.228c.064 2.679 2.283 4.875 4.953 4.875h55.486c5.372 0 10.711 1.614 14.764 5.1 4.857 4.196 7.527 10.136 7.527 16.495v100.101c0 6.843-2.252 13.622-6.819 18.657-4.986 5.488-11.805 8.522-19.107 8.522H21.712a.58.58 0 0 0-.58.581v7.07z"/><path fill="var(--fill-0, #f7f3ea)" d="M201.711 208.142H76.715c-3.602.129-15.246.032-26.472-8.134-11.773-8.587-15.311-20.434-16.212-23.952a1 1 0 0 0-.064-.291C23.738 119.791 13.51 63.785 3.281 7.812 2.83 5.39 4.728 3.163 7.205 3.228h.097c1.865.065 3.41 1.388 3.699 3.228a360 360 0 0 0 5.371 26.76c6.047 25.146 9.232 37.865 17.563 45.16 8.556 7.49 19.01 8.296 39.885 9.942 27.116 2.099 34.514-3.712 47.766 2.906 10.197 5.1 15.215 13.267 21.809 24.016 16.951 27.567 11.258 42.836 21.969 58.556 7.076 10.394 22.162 22.112 58.284 24.468 2.059.13 3.667 1.808 3.667 3.874v2.098c0 2.131-1.737 3.874-3.86 3.874l-21.776.064z"/></g></svg>