<svg xmlns="http://www.w3.org/2000/svg" fill="none" overflow="visible" preserveAspectRatio="none" style="display:block" viewBox="0 0 28.489 111.557"><path fill="var(--fill-0, #f7f3ea)" stroke="var(--stroke-0, #2a4385)" stroke-miterlimit="10" stroke-width="2" d="M22.484 1H6.004C3.242 1 1 3.264 1 6.057V105.5c0 2.793 2.24 5.057 5.005 5.057h16.48c2.763 0 5.004-2.264 5.004-5.057V6.057c0-2.793-2.24-5.057-5.005-5.057Z"/><path fill="var(--fill-0, #2a4385)" d="M14.229 94.419c2.693 0 4.877-2.207 4.877-4.93 0-2.721-2.184-4.928-4.878-4.928s-4.877 2.207-4.877 4.929 2.184 4.929 4.877 4.929M14.229 17.719c1.725 0 3.123-1.414 3.123-3.157s-1.398-3.157-3.123-3.157-3.124 1.413-3.124 3.157 1.398 3.157 3.124 3.157"/><path fill="var(--fill-0, #2a4385)" stroke="var(--stroke-0, #2a4385)" stroke-linecap="round" stroke-linejoin="round" d="M19.106 100.636H9.35v.193h9.754z"/></svg>