<svg xmlns="http://www.w3.org/2000/svg" fill="none" overflow="visible" preserveAspectRatio="none" style="display:block" viewBox="0 0 184 166"><g stroke="var(--stroke-0, #2a4385)" stroke-miterlimit="10" stroke-width="2"><path fill="var(--fill-0, #2a4385)" d="M27.335 157.751c4.805 0 8.701-3.911 8.701-8.735s-3.896-8.734-8.702-8.734c-4.805 0-8.701 3.91-8.701 8.734s3.896 8.735 8.702 8.735ZM124.702 157.751c4.805 0 8.701-3.911 8.701-8.735s-3.896-8.734-8.701-8.734-8.702 3.91-8.702 8.734 3.896 8.735 8.702 8.735Z"/><path fill="var(--fill-0, #f7f3ea)" d="m29.115 5.04-.292.048c-2.9.478-4.866 3.226-4.39 6.138L42.39 121.059c.476 2.912 3.214 4.885 6.114 4.407l.292-.048c2.9-.478 4.866-3.226 4.39-6.137L35.23 9.447c-.476-2.911-3.213-4.884-6.114-4.407Z"/><path fill="var(--fill-0, #2a4385)" d="m40.481 5.006-.291.047c-2.901.475-4.87 3.221-4.397 6.133l17.848 109.852c.474 2.912 3.209 4.887 6.11 4.412l.292-.047c2.901-.475 4.87-3.221 4.396-6.133L46.591 9.419c-.473-2.913-3.208-4.888-6.11-4.413ZM56.19 20.497l-1.732.55c-2.823.897-4.383 3.923-3.483 6.758l29.408 92.676c.9 2.835 3.918 4.406 6.741 3.509l1.731-.55c2.824-.897 4.383-3.922 3.484-6.757L62.93 24.006c-.9-2.835-3.918-4.406-6.742-3.509Z"/><path fill="var(--fill-0, #f7f3ea)" d="m74.497 41.074-2.29.982c-2.509 1.074-3.668 3.987-2.588 6.506l32.616 76.129c1.079 2.518 3.988 3.689 6.496 2.615l2.291-.981c2.509-1.075 3.667-3.988 2.588-6.507L80.994 43.69c-1.08-2.52-3.988-3.69-6.497-2.616ZM123.568 34.472l-2.492-.029c-2.73-.032-4.966 2.163-4.996 4.903l-.879 82.793c-.029 2.739 2.16 4.985 4.89 5.017l2.492.029c2.73.031 4.966-2.164 4.995-4.903l.88-82.793c.029-2.74-2.16-4.985-4.89-5.017Z"/><path fill="var(--fill-0, #f7f3ea)" d="M136.124 12.678 127 127.585H93L29 15c-.907-4-8-5.799-15.272-5.799H7.73c-2.07 0-3.675 1.908-3.506 4.155l10.222 121.606c.296 3.265 2.788 5.767 5.83 5.767h112.807c3.041 0 5.575-2.502 5.829-5.767l10.222-121.606c.169-2.247-1.436-4.155-3.506-4.155h-5.998c-1.816 0-3.337 1.526-3.506 3.477Z"/></g></svg>