<svg xmlns="http://www.w3.org/2000/svg" fill="none" overflow="visible" preserveAspectRatio="none" style="display:block" viewBox="0 0 122 101"><g clip-path="url(#a)"><path fill="var(--fill-0, #f7f3ea)" stroke="var(--stroke-0, #2a4385)" stroke-miterlimit="10" stroke-width="2" d="M118.222 87.421H21.161c-1.186 0-2.118-1.247-2.084-2.746l2-61.948c.05-1.415.965-2.527 2.083-2.527h93.063c1.118 0 2.033 1.112 2.084 2.527l1.999 61.948c.051 1.5-.898 2.746-2.084 2.746Z"/><path fill="var(--fill-0, #f7f3ea)" stroke="var(--stroke-0, #2a4385)" stroke-miterlimit="10" stroke-width="2" d="M64.193 87.42H32.12c-1.575 0-2.846-1.094-2.829-2.425l1.592-74.365c.034-1.297 1.288-2.341 2.83-2.341H62.6c1.542 0 2.796 1.044 2.83 2.341l1.592 74.365c.034 1.33-1.237 2.426-2.83 2.426Z"/><path fill="var(--fill-0, #2a4385)" stroke="var(--stroke-0, #2a4385)" stroke-miterlimit="10" stroke-width="2" d="M43.22 1.684h9.876c3.304 0 6.116 2.68 6.472 6.25 0 .085.017.17.034.27 1.576 16.123-1.66 15.854-1.508 32.482.153 17.47 3.982 17.79 1.762 33.038v.084c-.508 3.403-3.253 5.896-6.42 5.896H42.981c-3.168 0-5.845-2.476-6.421-5.862a47 47 0 0 1-.373-2.578c-1.626-14.404 2.118-14.118 2.423-30.578.305-16.814-3.778-16.83-1.915-32.364.017-.185.051-.37.068-.556.458-3.487 3.22-6.082 6.455-6.082Z"/><path fill="var(--fill-0, #2a4385)" d="M45.303 81.39c.238 3.638.187 7.277-.237 10.9-.068.64-.05 2.072-.491 2.61-.44.54-1.05.439-1.762.506-1.847.185-3.693.27-5.557.354-7.404.354-14.91.27-22.16-1.398-2.898-.657-6.49-1.382-8.488-3.791-1.66-2.005-1.881-4.852-1.254-7.278 1.559-6.015 7.793-8.963 13.3-10.564 3.134-.91 1.795-5.795-1.356-4.868-5.862 1.701-11.842 4.599-15.112 9.99-2.897 4.768-3.168 11.406.457 15.853 4.066 5.004 11.995 5.981 17.976 6.706 7.471.909 15.078.64 22.567.017 1.863-.152 3.591-.422 4.93-1.82 1.152-1.196 1.541-2.847 1.762-4.43.61-4.246.745-8.509.474-12.771-.203-3.235-5.286-3.252-5.082 0z"/><path fill="var(--fill-0, #2a4385)" stroke="var(--stroke-0, #2a4385)" stroke-miterlimit="10" stroke-width=".81" d="M82.635 56.276a2.67 2.67 0 0 0 2.675-2.66c0-1.47-1.197-2.66-2.675-2.66a2.67 2.67 0 0 0-2.675 2.66c0 1.469 1.198 2.66 2.675 2.66ZM92.67 56.231a2.67 2.67 0 0 0 2.674-2.66c0-1.47-1.197-2.66-2.675-2.66a2.67 2.67 0 0 0-2.675 2.66c0 1.469 1.198 2.66 2.675 2.66ZM102.691 56.306a2.67 2.67 0 0 0 2.675-2.66c0-1.469-1.198-2.66-2.675-2.66a2.67 2.67 0 0 0-2.676 2.66c0 1.47 1.198 2.66 2.676 2.66ZM82.635 66.015a2.67 2.67 0 0 0 2.675-2.66c0-1.47-1.197-2.66-2.675-2.66a2.67 2.67 0 0 0-2.675 2.66c0 1.468 1.198 2.66 2.675 2.66ZM92.67 65.985a2.67 2.67 0 0 0 2.674-2.66c0-1.47-1.197-2.66-2.675-2.66a2.67 2.67 0 0 0-2.675 2.66c0 1.469 1.198 2.66 2.675 2.66ZM102.691 66.06a2.67 2.67 0 0 0 2.675-2.66c0-1.47-1.198-2.66-2.675-2.66a2.67 2.67 0 0 0-2.676 2.66c0 1.468 1.198 2.66 2.676 2.66ZM82.635 75.83a2.67 2.67 0 0 0 2.675-2.66c0-1.47-1.197-2.661-2.675-2.661a2.67 2.67 0 0 0-2.675 2.66c0 1.47 1.198 2.66 2.675 2.66ZM92.67 75.799a2.67 2.67 0 0 0 2.674-2.66c0-1.47-1.197-2.66-2.675-2.66a2.67 2.67 0 0 0-2.675 2.66c0 1.469 1.198 2.66 2.675 2.66ZM102.691 75.874a2.67 2.67 0 0 0 2.675-2.66c0-1.47-1.198-2.66-2.675-2.66a2.67 2.67 0 0 0-2.676 2.66c0 1.47 1.198 2.66 2.676 2.66Z"/><path fill="var(--fill-0, #f7f3ea)" stroke="var(--stroke-0, #2a4385)" stroke-miterlimit="10" stroke-width="2" d="M105.312 41.646H79.56a2.53 2.53 0 0 1-2.542-2.527l.187-8.98c0-1.398 1.135-2.544 2.507-2.544h25.43c1.389 0 2.508 1.146 2.508 2.544l.186 8.98a2.53 2.53 0 0 1-2.541 2.527z"/></g><defs><clipPath id="a"><path fill="#fff" d="M0 0h122v101H0z"/></clipPath></defs></svg>