<svg xmlns="http://www.w3.org/2000/svg" fill="none" overflow="visible" preserveAspectRatio="none" style="display:block" viewBox="0 0 129.996 703.15"><g stroke="var(--stroke-0, #2a4385)" stroke-miterlimit="10" stroke-width="2"><path fill="var(--fill-0, #2a4385)" d="m70.914 596.112-6.936-4.005a3.8 3.8 0 0 0-5.193 1.392L1.901 692.025a3.8 3.8 0 0 0 1.391 5.193l6.936 4.005a3.803 3.803 0 0 0 5.193-1.392l56.884-98.526a3.8 3.8 0 0 0-1.391-5.193Z"/><path fill="var(--fill-0, #2a4385)" d="m119.768 701.249 6.936-4.004a3.8 3.8 0 0 0 1.391-5.193l-56.884-98.527a3.803 3.803 0 0 0-5.193-1.392l-6.936 4.005a3.8 3.8 0 0 0-1.391 5.193l56.884 98.526a3.8 3.8 0 0 0 5.193 1.392ZM21.635 2.5l-6.034 5.265a3.8 3.8 0 0 0-.365 5.364l39.777 45.58a3.8 3.8 0 0 0 5.363.365l6.035-5.265a3.8 3.8 0 0 0 .364-5.364L27 2.865a3.8 3.8 0 0 0-5.364-.365Z"/><path fill="var(--fill-0, #2a4385)" d="m62.476 53.814 6.034 5.266a3.8 3.8 0 0 0 5.364-.365l39.777-45.58a3.8 3.8 0 0 0-.365-5.364l-6.034-5.266a3.8 3.8 0 0 0-5.364.364L62.111 48.45a3.8 3.8 0 0 0 .365 5.364Z"/><path fill="var(--fill-0, #f7f3ea)" d="M69.008 2.893H61a3.8 3.8 0 0 0-3.802 3.802v689.733c0 2.1 1.702 3.802 3.802 3.802h8.008c2.1 0 3.802-1.702 3.802-3.802V6.695c0-2.1-1.702-3.802-3.802-3.802Z"/></g></svg>