<svg xmlns="http://www.w3.org/2000/svg" fill="none" overflow="visible" preserveAspectRatio="none" style="display:block" viewBox="0 0 595 301.396"><g stroke="var(--stroke-0, #2a4385)" stroke-linecap="round" stroke-linejoin="round" stroke-width="2"><path fill="var(--fill-0, #2a4385)" d="M560.355 287.801h21.677v7.824a4.767 4.767 0 0 1-4.775 4.771H565.13a4.767 4.767 0 0 1-4.775-4.771zM589.225 23.533H5.775A4.773 4.773 0 0 0 1 28.303v4.803a4.773 4.773 0 0 0 4.775 4.77h583.45a4.773 4.773 0 0 0 4.775-4.77v-4.803a4.773 4.773 0 0 0-4.775-4.77"/><path fill="var(--fill-0, #f7f3ea)" d="M586.52 37.877H5.775A4.773 4.773 0 0 0 1 42.647V282.14a4.773 4.773 0 0 0 4.775 4.771H586.52a4.77 4.77 0 0 0 4.774-4.771V42.647a4.77 4.77 0 0 0-4.774-4.77"/><path fill="var(--fill-0, #f7f3ea)" d="M577.347 45.078H416.625c-2.5 0-4.527 2.049-4.527 4.577v226.149c0 2.528 2.027 4.577 4.527 4.577h160.722c2.5 0 4.526-2.049 4.526-4.577V49.654c0-2.527-2.026-4.576-4.526-4.576M399.083 45.078H238.361c-2.5 0-4.527 2.049-4.527 4.577v226.149c0 2.528 2.027 4.577 4.527 4.577h160.722c2.5 0 4.526-2.049 4.526-4.577V49.654c0-2.527-2.026-4.576-4.526-4.576"/><path fill="var(--fill-0, #2a4385)" d="M6.152 160.303h224.956c1.509 0 2.726 2.167 2.726 4.852s-1.217 4.852-2.726 4.852H6.152c-1.509 0-2.727-2.167-2.727-4.852s1.218-4.852 2.727-4.852M6.152 269.465h224.956c1.509 0 2.726 2.167 2.726 4.851s-1.217 4.852-2.726 4.852H6.152c-1.509 0-2.727-2.167-2.727-4.852 0-2.684 1.218-4.851 2.727-4.851"/><path fill="var(--fill-0, #f7f3ea)" d="M102.794 199.456H31.621a4.77 4.77 0 0 0-4.774 4.77v60.08a4.773 4.773 0 0 0 4.774 4.771h71.173a4.773 4.773 0 0 0 4.775-4.771v-60.08a4.77 4.77 0 0 0-4.775-4.77"/><path fill="var(--fill-0, #f7f3ea)" d="M107.282 186.988h-80.15a4.773 4.773 0 0 0-4.774 4.771v2.958a4.77 4.77 0 0 0 4.775 4.77h80.149a4.773 4.773 0 0 0 4.774-4.77v-2.958a4.773 4.773 0 0 0-4.774-4.771"/><path fill="var(--fill-0, #2a4385)" d="M80.554 220.949H54.358v11.163h26.196z"/><path fill="var(--fill-0, #f7f3ea)" d="M202.867 60.845H98.432a4.773 4.773 0 0 0-4.775 4.771v89.945a4.773 4.773 0 0 0 4.775 4.771h104.435a4.773 4.773 0 0 0 4.775-4.771V65.616a4.773 4.773 0 0 0-4.775-4.77"/><path d="M121.636 62.054v97.037M150.634 62.054v97.037M178.835 62.054v97.037M101.934 69.014h10.027M131.441 69.014h10.026M160.024 69.014h10.027M188.608 69.014h10.027M107.441 136.886a3.34 3.34 0 1 0 0-6.679 3.34 3.34 0 1 0 0 6.679M135.834 136.886a3.34 3.34 0 1 0 0-6.679 3.34 3.34 0 1 0 0 6.679M165.055 136.886a3.34 3.34 0 0 0 3.342-3.339 3.34 3.34 0 0 0-3.342-3.34 3.34 3.34 0 0 0-3.343 3.34 3.34 3.34 0 0 0 3.343 3.339M193.606 136.886a3.34 3.34 0 0 0 3.342-3.339 3.34 3.34 0 0 0-3.342-3.34 3.34 3.34 0 0 0-3.343 3.34 3.34 3.34 0 0 0 3.343 3.339M439.305 84.567v164.051M261.041 84.567v164.051"/><path fill="var(--fill-0, #f7f3ea)" d="M305.871 12.192H200.799a4.77 4.77 0 0 0-4.774 4.771v1.272a4.77 4.77 0 0 0 4.774 4.771h105.072a4.773 4.773 0 0 0 4.775-4.77v-1.273a4.773 4.773 0 0 0-4.775-4.77M299.738 1h-93.963A4.773 4.773 0 0 0 201 5.77v1.273a4.773 4.773 0 0 0 4.775 4.77h93.963a4.77 4.77 0 0 0 4.774-4.77V5.771A4.77 4.77 0 0 0 299.738 1"/></g></svg>