<svg xmlns="http://www.w3.org/2000/svg" fill="none" overflow="visible" preserveAspectRatio="none" style="display:block" viewBox="0 0 1026 295"><g fill="var(--fill-0, #f7f3ea)" stroke="var(--stroke-0, #2a4385)" stroke-miterlimit="10" stroke-width="2"><path d="M1019.77 1H6.23C3.34 1 1 3.348 1 6.243v8.25c0 2.896 2.341 5.243 5.23 5.243h1013.54c2.89 0 5.23-2.347 5.23-5.243v-8.25A5.236 5.236 0 0 0 1019.77 1Z"/><path d="M31.12 24.945v263.812c0 2.895 2.34 5.243 5.229 5.243h8.227c2.888 0 5.23-2.348 5.23-5.243V24.945c0-2.896-2.342-5.244-5.23-5.244h-8.227c-2.888 0-5.23 2.348-5.23 5.244ZM967.166 24.945v263.812c0 2.895 2.341 5.243 5.229 5.243h8.227c2.888 0 5.229-2.348 5.229-5.243V24.945c0-2.896-2.341-5.244-5.229-5.244h-8.227c-2.888 0-5.229 2.348-5.229 5.244Z"/></g></svg>