<svg xmlns="http://www.w3.org/2000/svg" fill="none" overflow="visible" preserveAspectRatio="none" style="display:block" viewBox="0 0 78.672 36.259"><g fill="var(--fill-0, #199444)"><path d="M27.047 11.39c.559.215 1.172.215 1.752.353a12.49 12.49 0 0 1 9.467 10.954c-.757-.055-1.436-.238-2.155-.459-.58-3.802-3.288-7.04-6.952-8.218a5.9 5.9 0 0 0-2.106-.453 7.5 7.5 0 0 0-2.244-.028c.066-.707.061-1.442 0-2.15zM65.136 24.89c-.619-.032-1.431-.242-2.04-.408-5.012-1.37-8.803-5.72-9.19-10.92.713.093 1.47.115 2.111.475.602 3.813 3.316 7.062 7.002 8.212.713.221 1.382.376 2.128.464 5.67.658 10.799-3.542 11.396-9.185S72.89 2.613 67.153 2.127c-5.83-.498-10.766 3.813-11.274 9.605-.636-.182-1.36-.094-1.978-.354.458-6.82 6.77-12.053 13.633-11.307 6.853.746 11.778 6.864 11.07 13.634-.718 6.842-6.632 11.584-13.468 11.186"/><path d="M24.81 11.395c.06.708.06 1.443 0 2.15-.481 5.173-4.168 9.61-9.208 10.882-.027-.774.022-1.442.11-2.189 3.648-1.171 6.378-4.42 6.92-8.206.11-.752.094-1.437.066-2.178-.177-5.731-5.333-10.169-11.053-9.732-5.72.436-10.091 5.52-9.533 11.335.547 5.659 5.67 9.909 11.379 9.279a11.6 11.6 0 0 0 0 2.15C6.688 25.306.774 20.509.067 13.71S4.339.768 11.237.071c6.824-.69 12.981 4.455 13.572 11.335z"/><path d="M22.705 11.848c.022.746.039 1.426-.066 2.178-3.637 1.116-6.472 4.438-6.92 8.207-.088.751-.138 1.42-.11 2.188.182 5.455 4.897 9.799 10.351 9.755s9.92-4.278 10.252-9.7c.669.183 1.376.299 2.067.36-.547 6.41-5.891 11.379-12.308 11.418s-11.904-4.924-12.473-11.38c-.06-.696-.06-1.453 0-2.15.47-5.167 4.167-9.627 9.207-10.881zM49.639 11.826c.033.757-.028 1.437-.122 2.188-3.67 1.205-6.389 4.422-6.947 8.246a10.7 10.7 0 0 0-.094 2.183c.282 5.46 4.875 9.749 10.335 9.743 5.46-.005 10.014-4.277 10.28-9.699.613.166 1.42.376 2.039.41-.454 6.416-6.002 11.412-12.419 11.362-6.416-.05-11.788-5.024-12.324-11.451a12 12 0 0 1 0-2.012c.464-5.228 4.156-9.666 9.24-10.97z"/><path d="M51.752 11.411a11 11 0 0 1-.011 2.123c-.547 5.217-4.167 9.616-9.263 10.904a10.7 10.7 0 0 1 .094-2.183c3.648-1.15 6.488-4.45 6.947-8.246.089-.752.15-1.431.122-2.189-.227-5.289-4.637-9.544-9.91-9.737-5.321-.2-10.003 3.702-10.66 9.063-.033.265-.078.464-.27.591-.581-.143-1.195-.138-1.753-.353-.072-.127-.066-.243-.044-.42C27.8 4.332 33.724-.52 40.378.06c6.146.53 10.772 5.327 11.38 11.351z"/><path d="M53.906 11.378c.62.266 1.349.177 1.979.354 5.068 1.454 8.837 5.692 9.262 10.981a11.7 11.7 0 0 1-2.128-.464c-.574-3.791-3.315-7.13-7.002-8.212-.64-.36-1.398-.382-2.11-.476a8.6 8.6 0 0 0-2.167-.027c.072-.675.077-1.443.01-2.122l2.15-.034zM29.155 14.026c.459 3.78 3.316 7.107 6.953 8.218.724.22 1.398.403 2.155.459.707.05 1.415.116 2.133.093a12 12 0 0 0 0 2.012c-.702.044-1.42.094-2.122.028a12 12 0 0 1-2.067-.36c-4.896-1.326-8.555-5.393-9.196-10.5-.022-.171-.028-.287.039-.403a5.9 5.9 0 0 1 2.105.453"/></g></svg>