<svg xmlns="http://www.w3.org/2000/svg" fill="none" overflow="visible" preserveAspectRatio="none" style="display:block" viewBox="0 0 210 280"><g stroke="var(--stroke-0, #2a4385)" stroke-width="2"><path fill="var(--fill-0, #2a4385)" stroke-miterlimit="10" d="M30.653 254.662h-8.79a4.79 4.79 0 0 0-4.794 4.786v12.574a4.79 4.79 0 0 0 4.794 4.787h8.79a4.79 4.79 0 0 0 4.794-4.787v-12.574a4.79 4.79 0 0 0-4.794-4.786ZM187.242 254.662h-8.79a4.79 4.79 0 0 0-4.794 4.786v12.574a4.79 4.79 0 0 0 4.794 4.787h8.79a4.79 4.79 0 0 0 4.795-4.787v-12.574a4.79 4.79 0 0 0-4.795-4.786Z"/><g stroke-miterlimit="10"><path fill="var(--fill-0, #f7f3ea)" d="M204.119 3.191H5.849A2.65 2.65 0 0 0 3.196 5.84v248.662a2.65 2.65 0 0 0 2.653 2.649h198.27a2.65 2.65 0 0 0 2.653-2.649V5.84a2.65 2.65 0 0 0-2.653-2.649Z"/><path d="M14.685 256.545V18.535c0-1.317 1.086-2.409 2.459-2.409h175.712c1.373 0 2.459 1.06 2.459 2.409v237.978M14.685 76.23l180.196 1.254M14.685 137.802l180.198.571M14.685 199.372h180.63"/></g><path fill="var(--fill-0, #2a4385)" stroke-linecap="round" stroke-linejoin="round" d="M73.535 39.581h59.993c.871 0 1.577-.613 1.577-1.37V30.69c0-.756-.706-1.37-1.577-1.37H73.535c-.871 0-1.577.614-1.577 1.37v7.523c0 .756.706 1.37 1.577 1.37M73.535 99.686h59.993c.871 0 1.577-.613 1.577-1.37v-7.522c0-.757-.706-1.37-1.577-1.37H73.535c-.871 0-1.577.613-1.577 1.37v7.522c0 .757.706 1.37 1.577 1.37M73.535 159.791h59.993c.871 0 1.577-.614 1.577-1.37v-7.523c0-.756-.706-1.369-1.577-1.369H73.535c-.871 0-1.577.613-1.577 1.369v7.523c0 .756.706 1.37 1.577 1.37M73.535 222.827h59.993c.871 0 1.577-.613 1.577-1.369v-7.523c0-.756-.706-1.37-1.577-1.37H73.535c-.871 0-1.577.614-1.577 1.37v7.523c0 .756.706 1.369 1.577 1.369"/></g></svg>