<svg xmlns="http://www.w3.org/2000/svg" fill="none" overflow="visible" preserveAspectRatio="none" style="display:block" viewBox="0 0 91.698 84.089"><g stroke="var(--stroke-0, #2a4385)" stroke-linecap="round" stroke-linejoin="round" stroke-width="2"><path fill="var(--fill-0, #f7f3ea)" d="M81.436 13.468H10.263a4.773 4.773 0 0 0-4.774 4.77v60.08a4.773 4.773 0 0 0 4.774 4.771h71.173a4.773 4.773 0 0 0 4.774-4.77v-60.08a4.773 4.773 0 0 0-4.774-4.771"/><path fill="var(--fill-0, #f7f3ea)" d="M85.924 1H5.773A4.773 4.773 0 0 0 1 5.77V8.73a4.773 4.773 0 0 0 4.775 4.77h80.149a4.773 4.773 0 0 0 4.774-4.77V5.77A4.773 4.773 0 0 0 85.924 1"/><path fill="var(--fill-0, #2a4385)" d="M58.364 35.19H32.167v11.164h26.197z"/></g></svg>