<svg xmlns="http://www.w3.org/2000/svg" fill="none" overflow="visible" preserveAspectRatio="none" style="display:block" viewBox="0 0 130.74 571.521"><path fill="var(--fill-0, #2a4385)" stroke="var(--stroke-0, #2a4385)" stroke-linecap="round" stroke-linejoin="round" stroke-width="2" d="M10.847 551.521h6.821c1.715 0 3.072 1.615 3.072 3.56v9.231c0 3.436-2.393 6.209-5.357 6.209h-2.286c-2.964 0-5.357-2.773-5.357-6.209v-9.231c0-1.987 1.393-3.56 3.071-3.56zM108.847 551.521h6.821c1.715 0 3.072 1.615 3.072 3.56v9.231c0 3.436-2.393 6.209-5.357 6.209h-2.286c-2.964 0-5.357-2.773-5.357-6.209v-9.231c0-1.987 1.393-3.56 3.071-3.56z"/><path fill="var(--fill-0, #f7f3ea)" stroke="var(--stroke-0, #2a4385)" stroke-linecap="round" stroke-linejoin="round" stroke-width="2" d="M122.54 194.815H6.46A5.46 5.46 0 0 0 1 200.276v347.906a5.46 5.46 0 0 0 5.46 5.461h116.08a5.46 5.46 0 0 0 5.46-5.461V200.276a5.46 5.46 0 0 0-5.46-5.461"/><path fill="var(--fill-0, #2a4385)" stroke="var(--stroke-0, #2a4385)" stroke-linecap="round" stroke-linejoin="round" stroke-width="2" d="M32.66 179.486v2.44s-8.99 1.638-9.755 12.27h83.029s1.711-9.795-6.188-13.144v-1.566c0-2.84-2.439-5.134-5.46-5.134H38.121c-3.022 0-5.46 2.294-5.46 5.134"/><path fill="var(--fill-0, #f7f3ea)" stroke="var(--stroke-0, #2a4385)" stroke-linecap="round" stroke-linejoin="round" stroke-width="2" d="M7.399 132.734c-.582 1.311-6.042 13.982 1.165 26.726 7.571 13.363 22.277 14.783 23.478 14.892h66.903c1.638-.146 14.342-1.566 21.84-12.999 8.7-13.29 2.257-27.708 1.857-28.582l1.638-50.43H6.234l1.165 50.43z"/><path fill="var(--fill-0, #f7f3ea)" d="M7.399 66.487V38.414c-.219-1.311-.473-3.24-.765-5.571-1.237-10.705-1.856-16.02.073-20.718.473-1.129 3.022-7.282 9.428-9.94C18.9 1.02 21.485.947 23.087 1.02h85.395c5.023 0 10.01 1.566 13.723 4.952 4.805 4.406 8.772 12.343 3.567 26.252-.874 2.33-1.274 4.843-1.274 7.319v28.072"/><path stroke="var(--stroke-0, #2a4385)" stroke-linecap="round" stroke-linejoin="round" stroke-width="2" d="M7.399 66.487V38.414c-.219-1.311-.473-3.24-.765-5.571-1.237-10.705-1.856-16.02.073-20.718.473-1.129 3.022-7.282 9.428-9.94C18.9 1.02 21.485.947 23.087 1.02h85.395c5.023 0 10.01 1.566 13.723 4.952 4.805 4.406 8.772 12.343 3.567 26.252-.874 2.33-1.274 4.843-1.274 7.319v28.072"/><path stroke="var(--stroke-0, #f7f3ea)" stroke-linecap="round" stroke-linejoin="round" stroke-width="2" d="M17.3 132.807h96.97"/><path fill="var(--fill-0, #2a4385)" stroke="var(--stroke-0, #2a4385)" stroke-linecap="round" stroke-linejoin="round" stroke-width="2" d="M124.28 66.03H8.2a5.46 5.46 0 0 0-5.46 5.462v6.262a5.46 5.46 0 0 0 5.46 5.462h116.08a5.46 5.46 0 0 0 5.46-5.462v-6.263a5.46 5.46 0 0 0-5.46-5.461"/><path fill="var(--fill-0, #f7f3ea)" stroke="var(--stroke-0, #2a4385)" stroke-linecap="round" stroke-linejoin="round" stroke-width="2" d="M93.42 259.881H34.342a5.46 5.46 0 0 0-5.46 5.462v110.543a5.46 5.46 0 0 0 5.46 5.462H93.42a5.46 5.46 0 0 0 5.46-5.462V265.343a5.46 5.46 0 0 0-5.46-5.462"/><path stroke="var(--stroke-0, #2a4385)" stroke-linecap="round" stroke-linejoin="round" stroke-width="2" d="m29.72 365.4 68.323-.146"/><path fill="var(--fill-0, #2a4385)" stroke="var(--stroke-0, #2a4385)" stroke-linecap="round" stroke-linejoin="round" stroke-width="2" d="M50.213 276.739h-2.402a5.46 5.46 0 0 0-5.46 5.462v22.101a5.46 5.46 0 0 0 5.46 5.462h2.402a5.46 5.46 0 0 0 5.46-5.462v-22.101a5.46 5.46 0 0 0-5.46-5.462M81.954 276.739H79.55a5.46 5.46 0 0 0-5.46 5.462v22.101a5.46 5.46 0 0 0 5.46 5.462h2.403a5.46 5.46 0 0 0 5.46-5.462v-22.101a5.46 5.46 0 0 0-5.46-5.462"/></svg>