<svg xmlns="http://www.w3.org/2000/svg" fill="none" overflow="visible" preserveAspectRatio="none" style="display:block" viewBox="0 0 346 292"><g stroke="var(--stroke-0, #2a4385)" stroke-miterlimit="10" stroke-width="2"><path fill="var(--fill-0, #2a4385)" d="M25.912 263.657h-5.654c-2.788 0-5.048 3.686-5.048 8.233v9.22c0 4.547 2.26 8.233 5.048 8.233h5.654c2.788 0 5.048-3.686 5.048-8.233v-9.22c0-4.547-2.26-8.233-5.048-8.233ZM325.15 264.486h-5.653c-2.788 0-5.048 3.804-5.048 8.498v9.518c0 4.693 2.26 8.498 5.048 8.498h5.653c2.788 0 5.048-3.805 5.048-8.498v-9.518c0-4.694-2.26-8.498-5.048-8.498Z"/><path fill="var(--fill-0, #f7f3ea)" d="M339.845 1H6.155A5.155 5.155 0 0 0 1 6.155v9.004a5.155 5.155 0 0 0 5.155 5.155h333.69A5.155 5.155 0 0 0 345 15.159V6.155A5.155 5.155 0 0 0 339.845 1Z"/><path fill="var(--fill-0, #f7f3ea)" d="M167.828 20.313H6.155A5.155 5.155 0 0 0 1 25.468v243.273a5.155 5.155 0 0 0 5.155 5.155h161.673a5.155 5.155 0 0 0 5.155-5.155V25.468a5.155 5.155 0 0 0-5.155-5.155ZM339.81 20.588H178.138a5.155 5.155 0 0 0-5.155 5.155v243.273a5.155 5.155 0 0 0 5.155 5.155H339.81a5.156 5.156 0 0 0 5.156-5.155V25.743a5.156 5.156 0 0 0-5.156-5.155Z"/><path fill="var(--fill-0, #2a4385)" d="M281.177 41.792h-44.405a5.156 5.156 0 0 0-5.156 5.155v9.862a5.156 5.156 0 0 0 5.156 5.155h44.405a5.155 5.155 0 0 0 5.155-5.154v-9.863a5.155 5.155 0 0 0-5.155-5.155ZM109.194 41.792H64.789a5.155 5.155 0 0 0-5.156 5.155v9.862a5.155 5.155 0 0 0 5.156 5.155h44.405a5.155 5.155 0 0 0 5.155-5.154v-9.863a5.155 5.155 0 0 0-5.155-5.155Z"/></g></svg>