<svg xmlns="http://www.w3.org/2000/svg" fill="none" overflow="visible" preserveAspectRatio="none" style="display:block" viewBox="0 0 814 420"><g stroke="var(--stroke-0, #2a4385)" stroke-width="2"><g fill="var(--fill-0, #f7f3ea)" stroke-miterlimit="10"><path d="M775 202.787v-9.574c0-1.775-1.29-3.213-2.881-3.213H34.881C33.29 190 32 191.438 32 193.213v9.574c0 1.775 1.29 3.213 2.881 3.213h737.238c1.591 0 2.881-1.438 2.881-3.213Z"/><path d="M785.178 181h-14.356c-1.558 0-2.822 1.359-2.822 3.035v231.93c0 1.676 1.264 3.035 2.822 3.035h14.356c1.558 0 2.822-1.359 2.822-3.035v-231.93c0-1.676-1.264-3.035-2.822-3.035ZM30.178 181H15.822c-1.558 0-2.822 1.359-2.822 3.035v231.93c0 1.676 1.264 3.035 2.822 3.035h14.356c1.558 0 2.822-1.359 2.822-3.035v-231.93c0-1.676-1.264-3.035-2.822-3.035Z"/></g><g stroke-miterlimit="10"><path fill="var(--fill-0, #f7f3ea)" d="M327.223 147.055h-36.877a2.863 2.863 0 0 0-2.863 2.864v14.916a2.863 2.863 0 0 0 2.863 2.864h36.877a2.864 2.864 0 0 0 2.863-2.864v-14.916a2.863 2.863 0 0 0-2.863-2.864Z"/><path fill="var(--fill-0, #f7f3ea)" d="M404.128 128.563H217.38a2.864 2.864 0 0 0-2.863 2.864v14.916a2.863 2.863 0 0 0 2.863 2.864h186.748a2.863 2.863 0 0 0 2.863-2.864v-14.916a2.864 2.864 0 0 0-2.863-2.864Z"/><path fill="var(--fill-0, #f7f3ea)" d="M404.128 15.77H217.38a2.864 2.864 0 0 0-2.863 2.865v109.467a2.863 2.863 0 0 0 2.863 2.864h186.748a2.863 2.863 0 0 0 2.863-2.864V18.635a2.864 2.864 0 0 0-2.863-2.864Z"/><path fill="var(--fill-0, #2a4385)" d="M395.384 24.594H225.028a2.864 2.864 0 0 0-2.863 2.864v91.014a2.863 2.863 0 0 0 2.863 2.864h170.356a2.863 2.863 0 0 0 2.863-2.864V27.458a2.863 2.863 0 0 0-2.863-2.864Z"/><path fill="var(--fill-0, #f7f3ea)" d="M341.72 167h-64.857a2.863 2.863 0 0 0 0 5.728h64.857a2.863 2.863 0 0 0 0-5.728Z"/></g><g stroke-miterlimit="10"><path fill="var(--fill-0, #f7f3ea)" d="M177.558 354.088H82.589a2.883 2.883 0 0 0-2.882 2.884v43.767a2.883 2.883 0 0 0 2.882 2.884h94.969a2.883 2.883 0 0 0 2.882-2.884v-43.767a2.883 2.883 0 0 0-2.882-2.884Z"/><path fill="var(--fill-0, #f7f3ea)" d="M177.558 305.938H82.589a2.883 2.883 0 0 0-2.882 2.884v43.767a2.88 2.88 0 0 0 2.882 2.883h94.969a2.88 2.88 0 0 0 2.882-2.883v-43.767a2.883 2.883 0 0 0-2.882-2.884Z"/><path fill="var(--fill-0, #f7f3ea)" d="M184.265 291.464H75.883A2.883 2.883 0 0 0 73 294.348v12.724a2.883 2.883 0 0 0 2.882 2.884h108.383a2.883 2.883 0 0 0 2.882-2.884v-12.724a2.883 2.883 0 0 0-2.882-2.884Z"/><path fill="var(--fill-0, #2a4385)" d="M164.183 272.819H97.886a2.883 2.883 0 0 0-2.883 2.884v12.878a2.88 2.88 0 0 0 2.882 2.883h66.298a2.883 2.883 0 0 0 2.883-2.883v-12.878a2.884 2.884 0 0 0-2.883-2.884Z"/><path fill="var(--fill-0, #f7f3ea)" d="M166.105 263.497H95.253a2.883 2.883 0 0 0-2.883 2.883v7.516a2.883 2.883 0 0 0 2.883 2.883h70.852a2.88 2.88 0 0 0 2.882-2.883v-7.516a2.88 2.88 0 0 0-2.882-2.883Z"/><path fill="var(--fill-0, #2a4385)" d="M91.198 415.501a5.939 5.939 0 1 0 0-11.877 5.939 5.939 0 0 0 0 11.877ZM170.64 415.501a5.939 5.939 0 1 0-.002-11.878 5.939 5.939 0 0 0 .002 11.878Z"/></g><g stroke-miterlimit="10"><path fill="var(--fill-0, #f7f3ea)" d="M154.963 161.892h-50.482a2.884 2.884 0 0 0-2.883 2.884v4.478a2.883 2.883 0 0 0 2.883 2.883h50.482a2.883 2.883 0 0 0 2.883-2.883v-4.478a2.884 2.884 0 0 0-2.883-2.884Z"/><path fill="var(--fill-0, #f7f3ea)" d="M132.23 148.918h-3.498a2.88 2.88 0 0 0-2.882 2.883v7.208a2.88 2.88 0 0 0 2.882 2.883h3.498a2.88 2.88 0 0 0 2.882-2.883v-7.208a2.88 2.88 0 0 0-2.882-2.883ZM101.121 73.054l-3.216 1.374a2.883 2.883 0 0 0-1.518 3.785l28.221 66.052a2.88 2.88 0 0 0 3.783 1.518l3.216-1.375a2.883 2.883 0 0 0 1.518-3.784l-28.221-66.052a2.88 2.88 0 0 0-3.783-1.518Z"/><path fill="var(--fill-0, #f7f3ea)" d="m97.766 68.86 2.116 2.785a2.88 2.88 0 0 0 4.039.551l57.178-43.459a2.883 2.883 0 0 0 .551-4.04l-2.116-2.785a2.88 2.88 0 0 0-4.039-.552L98.317 64.82a2.884 2.884 0 0 0-.551 4.04Z"/><path fill="var(--fill-0, #2a4385)" d="M130.481 150.84a6.63 6.63 0 0 0 6.63-6.632 6.63 6.63 0 1 0-13.26 0 6.63 6.63 0 0 0 6.63 6.632ZM98.197 77.183a6.63 6.63 0 0 0 6.63-6.632 6.63 6.63 0 1 0-13.26 0 6.63 6.63 0 0 0 6.63 6.632ZM180.99 20.855l-12.58-16.56a2.88 2.88 0 0 0-4.039-.55l-10.832 8.233a2.884 2.884 0 0 0-.552 4.04l12.58 16.56a2.88 2.88 0 0 0 4.039.55l10.833-8.233a2.883 2.883 0 0 0 .551-4.04Z"/><path fill="var(--fill-0, #f7f3ea)" d="M189.688 57.615a8.09 8.09 0 0 0 8.09-8.092 8.091 8.091 0 1 0-16.18 0 8.09 8.09 0 0 0 8.09 8.092Z"/><path fill="var(--fill-0, #f7f3ea)" d="M172.777 26.745c-10.511 7.477-13.586 21.528-7.629 32.6.807 1.5 2.806 1.922 4.189.923l36.224-25.796c1.403-1 1.653-2.998.5-4.267-8.513-9.265-22.772-10.937-33.284-3.46Z"/></g><path stroke-miterlimit="10" d="M628.962 161.795a8.937 8.937 0 0 0 8.936-8.938c0-4.936-4.001-8.938-8.936-8.938s-8.935 4.002-8.935 8.938 4 8.938 8.935 8.938Z"/><path fill="var(--fill-0, #f7f3ea)" stroke-miterlimit="10" d="M624.062 135.5h-22.867a2.884 2.884 0 0 0-2.883 2.884v30.754a2.884 2.884 0 0 0 2.883 2.884h22.867a2.884 2.884 0 0 0 2.883-2.884v-30.754a2.884 2.884 0 0 0-2.883-2.884Z"/><path stroke-linecap="round" stroke-linejoin="round" d="m655.981 103.688 4.9 33.85M678.292 113.741l-6.13 22.566"/><path fill="var(--fill-0, #2a4385)" stroke-miterlimit="10" d="M680.559 127.505h-28.075a2.883 2.883 0 0 0-2.883 2.883v38.77a2.883 2.883 0 0 0 2.883 2.883h28.075a2.883 2.883 0 0 0 2.883-2.883v-38.77a2.883 2.883 0 0 0-2.883-2.883Z"/><path fill="var(--fill-0, #f7f3ea)" stroke-miterlimit="10" d="m656.006 91.547-5.362 1.29a2.883 2.883 0 0 0-2.129 3.477l2.435 10.13a2.88 2.88 0 0 0 3.476 2.129l5.363-1.29a2.88 2.88 0 0 0 2.128-3.477l-2.435-10.13a2.88 2.88 0 0 0-3.476-2.129ZM679.33 117.49a7.535 7.535 0 0 0 7.533-7.535 7.534 7.534 0 1 0-15.066 0 7.535 7.535 0 0 0 7.533 7.535ZM361.965 357.181l-1.597-2.046a2.88 2.88 0 0 0-4.045-.499l-54.901 42.858a2.883 2.883 0 0 0-.499 4.046l1.596 2.046a2.88 2.88 0 0 0 4.046.499l54.901-42.858a2.883 2.883 0 0 0 .499-4.046ZM435.108 403.729l1.596-2.045a2.883 2.883 0 0 0-.499-4.047l-53.234-41.557a2.88 2.88 0 0 0-4.046.499l-1.596 2.046a2.883 2.883 0 0 0 .499 4.046l53.234 41.557a2.88 2.88 0 0 0 4.046-.499ZM370.114 359.067h-2.556a2.883 2.883 0 0 0-2.883 2.883v36.252a2.883 2.883 0 0 0 2.883 2.883h2.556a2.88 2.88 0 0 0 2.882-2.883V361.95a2.88 2.88 0 0 0-2.882-2.883Z"/><path fill="var(--fill-0, #2a4385)" stroke-miterlimit="10" d="M295.784 418c5.317 0 9.627-4.311 9.627-9.63 0-5.318-4.31-9.63-9.627-9.63s-9.628 4.312-9.628 9.63 4.311 9.63 9.628 9.63ZM368.827 418c5.317 0 9.627-4.311 9.627-9.63 0-5.318-4.31-9.63-9.627-9.63s-9.628 4.312-9.628 9.63 4.311 9.63 9.628 9.63Z"/><rect width="810" height="19" x="3" y="172" fill="var(--fill-0, #2a4385)" rx="4"/><path fill="var(--fill-0, #2a4385)" stroke-miterlimit="10" d="M440.582 418c5.317 0 9.627-4.311 9.627-9.63 0-5.318-4.31-9.63-9.627-9.63s-9.628 4.312-9.628 9.63 4.311 9.63 9.628 9.63Z"/><path fill="var(--fill-0, #f7f3ea)" stroke-miterlimit="10" d="M372.036 314.953h-6.496a2.88 2.88 0 0 0-2.882 2.883v29.755a2.883 2.883 0 0 0 2.882 2.884h6.496a2.883 2.883 0 0 0 2.882-2.884v-29.755a2.88 2.88 0 0 0-2.882-2.883Z"/><path fill="var(--fill-0, #2a4385)" stroke-miterlimit="10" d="M378.319 337.634h-18.967a2.883 2.883 0 0 0-2.882 2.884v29.755a2.88 2.88 0 0 0 2.882 2.883h18.967a2.883 2.883 0 0 0 2.883-2.883v-29.755a2.884 2.884 0 0 0-2.883-2.884ZM379.338 307.726h-21.004a2.88 2.88 0 0 0-2.882 2.883v4.652a2.88 2.88 0 0 0 2.882 2.883h21.004a2.883 2.883 0 0 0 2.883-2.883v-4.652a2.883 2.883 0 0 0-2.883-2.883Z"/><path fill="var(--fill-0, #f7f3ea)" stroke-miterlimit="10" d="M368.039 238.201h-2.499a2.88 2.88 0 0 0-2.882 2.883v27.16a2.883 2.883 0 0 0 2.882 2.884h2.499a2.883 2.883 0 0 0 2.882-2.884v-27.16a2.88 2.88 0 0 0-2.882-2.883Z"/><path fill="var(--fill-0, #f7f3ea)" stroke-miterlimit="10" d="M366.981 97.172c33.264 0 60.264 27.007 60.264 60.279v83.941a2.88 2.88 0 0 1-2.883 2.883H309.6a2.88 2.88 0 0 1-2.883-2.883v-83.941c0-33.272 27-60.279 60.264-60.279ZM367.105 308c27.217 0 50.299-.171 51.889-15.291.1-.919-1.133-1.709-2.684-1.709h-96.62c-1.551 0-2.784.79-2.684 1.709 1.471 15.12 22.882 15.291 50.119 15.291z"/><path fill="var(--fill-0, #f7f3ea)" stroke-miterlimit="10" d="M435.662 264.977H300.261a2.883 2.883 0 0 0-2.883 2.883v20.433a2.883 2.883 0 0 0 2.883 2.883h135.401a2.88 2.88 0 0 0 2.882-2.883V267.86a2.88 2.88 0 0 0-2.882-2.883Z"/></g></svg>