<svg xmlns="http://www.w3.org/2000/svg" fill="none" overflow="visible" preserveAspectRatio="none" style="display:block" viewBox="0 0 734 306.655"><g fill="var(--fill-0, #f7f3ea)" stroke="var(--stroke-0, #2a4385)" stroke-miterlimit="10" stroke-width="2"><path d="M727.542 1H6.458A5.455 5.455 0 0 0 1 6.452v8.578a5.455 5.455 0 0 0 5.458 5.452h721.084A5.455 5.455 0 0 0 733 15.03V6.452A5.455 5.455 0 0 0 727.542 1Z"/><path d="M32.435 25.897v274.306a5.455 5.455 0 0 0 5.458 5.452h8.586a5.455 5.455 0 0 0 5.458-5.452V25.897a5.455 5.455 0 0 0-5.458-5.452h-8.586a5.455 5.455 0 0 0-5.458 5.452ZM681.917 25.897v274.306a5.455 5.455 0 0 0 5.458 5.452h8.586a5.455 5.455 0 0 0 5.458-5.452V25.897a5.455 5.455 0 0 0-5.458-5.452h-8.586a5.455 5.455 0 0 0-5.458 5.452Z"/></g></svg>