<svg xmlns="http://www.w3.org/2000/svg" fill="none" overflow="visible" preserveAspectRatio="none" style="display:block" viewBox="0 0 509.973 401.381"><g stroke="var(--stroke-0, #2a4385)" stroke-miterlimit="10" stroke-width="2"><path fill="var(--fill-0, #f7f3ea)" d="m111.904 396.228 17.77-281.657a4.43 4.43 0 0 0-4.144-4.702l-17.545-1.107a4.43 4.43 0 0 0-4.702 4.144l-17.77 281.657a4.43 4.43 0 0 0 4.144 4.702l17.545 1.107a4.43 4.43 0 0 0 4.702-4.144ZM427.488 394.465l-17.77-281.657a4.43 4.43 0 0 0-4.702-4.144l-17.545 1.107a4.433 4.433 0 0 0-4.144 4.702l17.77 281.657a4.43 4.43 0 0 0 4.702 4.144l17.545-1.107a4.43 4.43 0 0 0 4.144-4.702Z"/><path fill="var(--fill-0, #2a4385)" d="M423.089 122.862H89.876a4.43 4.43 0 0 0-4.431 4.431v24.021a4.43 4.43 0 0 0 4.431 4.432H423.09a4.43 4.43 0 0 0 4.431-4.432v-24.021a4.43 4.43 0 0 0-4.431-4.431Z"/><path fill="var(--fill-0, #f7f3ea)" d="M208.372 54.753H172.09a4.43 4.43 0 0 0-4.432 4.432v44.79a4.43 4.43 0 0 0 4.432 4.432h36.282a4.43 4.43 0 0 0 4.431-4.432v-44.79a4.43 4.43 0 0 0-4.431-4.432ZM462.448 95.182H345.242a4.43 4.43 0 0 0-4.432 4.431v5.437a4.43 4.43 0 0 0 4.432 4.432h117.206a4.43 4.43 0 0 0 4.432-4.432v-5.437a4.43 4.43 0 0 0-4.432-4.431Z"/><path fill="var(--fill-0, #f7f3ea)" d="m326.964 1.075-1.773.327a4.43 4.43 0 0 0-3.553 5.163l18.017 97.593a4.433 4.433 0 0 0 5.163 3.554l1.772-.328a4.43 4.43 0 0 0 3.554-5.162L332.126 4.628a4.43 4.43 0 0 0-5.162-3.553ZM504.541 109.236H5.431A4.43 4.43 0 0 0 1 113.667v17.58a4.43 4.43 0 0 0 4.432 4.432H504.54a4.43 4.43 0 0 0 4.432-4.432v-17.58a4.43 4.43 0 0 0-4.432-4.431Z"/></g></svg>