<svg xmlns="http://www.w3.org/2000/svg" fill="none" overflow="visible" preserveAspectRatio="none" style="display:block" viewBox="0 0 259 682"><g stroke="var(--stroke-0, #2a4385)" stroke-width="2"><path fill="var(--fill-0, #2a4385)" stroke-miterlimit="10" d="M27.233 646.314h-8.216c-2.475 0-4.481 2.302-4.481 5.142v13.507c0 2.839 2.006 5.142 4.481 5.142h8.216c2.475 0 4.481-2.303 4.481-5.142v-13.507c0-2.84-2.006-5.142-4.481-5.142ZM241.304 646.314h-8.215c-2.475 0-4.482 2.302-4.482 5.142v13.507c0 2.839 2.007 5.142 4.482 5.142h8.215c2.475 0 4.482-2.303 4.482-5.142v-13.507c0-2.84-2.007-5.142-4.482-5.142Z"/><path fill="var(--fill-0, #f7f3ea)" stroke-miterlimit="10" d="M253.731 2.161H5.269a3.11 3.11 0 0 0-3.11 3.112v642.376a3.11 3.11 0 0 0 3.11 3.112h248.462a3.11 3.11 0 0 0 3.109-3.112V5.273a3.11 3.11 0 0 0-3.109-3.112Z"/><path fill="var(--fill-0, #f7f3ea)" stroke-miterlimit="10" d="M238.138 628.956V23.988a3.11 3.11 0 0 0-3.109-3.112H23.949a3.11 3.11 0 0 0-3.109 3.112v604.968a3.11 3.11 0 0 0 3.11 3.112h211.079a3.11 3.11 0 0 0 3.109-3.112Z"/><path fill="var(--fill-0, #f7f3ea)" stroke-miterlimit="10" d="M235.136 132.387H24.08a3.11 3.11 0 0 0-3.11 3.112v7.023a3.11 3.11 0 0 0 3.11 3.112h211.056a3.11 3.11 0 0 0 3.11-3.112v-7.023a3.11 3.11 0 0 0-3.11-3.112ZM235.136 258.787H24.08a3.11 3.11 0 0 0-3.11 3.112v7.024a3.11 3.11 0 0 0 3.11 3.112h211.056a3.11 3.11 0 0 0 3.11-3.112v-7.024a3.11 3.11 0 0 0-3.11-3.112ZM234.893 383H24.107c-1.716 0-3.107 1.367-3.107 3.054v6.892c0 1.687 1.391 3.054 3.107 3.054h210.786c1.716 0 3.107-1.367 3.107-3.054v-6.892c0-1.687-1.391-3.054-3.107-3.054Z"/><path fill="var(--fill-0, #f7f3ea)" stroke-miterlimit="10" d="M107 495.867V275.133c0-1.73-1.442-3.133-3.221-3.133h-3.558c-1.779 0-3.221 1.403-3.221 3.133v220.734c0 1.73 1.442 3.133 3.221 3.133h3.558c1.779 0 3.221-1.403 3.221-3.133ZM234.887 499H24.113c-1.72 0-3.113 1.41-3.113 3.149v4.702c0 1.739 1.394 3.149 3.113 3.149h210.774c1.719 0 3.113-1.41 3.113-3.149v-4.702c0-1.739-1.394-3.149-3.113-3.149Z"/><path fill="var(--fill-0, #2a4385)" stroke-linecap="round" stroke-linejoin="round" d="M103.373 546h52.254c.758 0 1.373-.657 1.373-1.468v-8.064c0-.811-.615-1.468-1.373-1.468h-52.254c-.758 0-1.373.657-1.373 1.468v8.064c0 .811.615 1.468 1.373 1.468"/></g></svg>