<svg xmlns="http://www.w3.org/2000/svg" fill="none" overflow="visible" preserveAspectRatio="none" style="display:block" viewBox="0 0 202 346"><g stroke="var(--stroke-0, #2a4385)" stroke-miterlimit="10" stroke-width="2"><path fill="var(--fill-0, #f7f3ea)" d="m99.934 294.175-2.168-4.657c-.859-1.846-3.066-2.653-4.93-1.802l-76.55 34.956a3.666 3.666 0 0 0-1.818 4.883l2.167 4.657c.86 1.846 3.067 2.652 4.93 1.801l76.55-34.955c1.863-.851 2.678-3.038 1.819-4.883Z"/><path fill="var(--fill-0, #f7f3ea)" d="m183.894 332.243 2.168-4.657a3.666 3.666 0 0 0-1.819-4.883l-76.55-34.956c-1.863-.851-4.07-.044-4.929 1.802l-2.168 4.657a3.666 3.666 0 0 0 1.819 4.883l76.55 34.955c1.863.851 4.07.045 4.929-1.801Z"/><path fill="var(--fill-0, #2a4385)" d="M15.209 343.546c7.031 0 12.732-5.646 12.732-12.611s-5.7-12.611-12.732-12.611-12.732 5.646-12.732 12.611 5.7 12.611 12.732 12.611ZM186.791 343.546c7.032 0 12.732-5.646 12.732-12.611s-5.7-12.611-12.732-12.611-12.732 5.646-12.732 12.611 5.701 12.611 12.732 12.611Z"/><path fill="var(--fill-0, #f7f3ea)" d="M102.276 214.612h-3.443c-2.052 0-3.716 1.648-3.716 3.681v37.294c0 2.032 1.664 3.68 3.716 3.68h3.443c2.052 0 3.715-1.648 3.715-3.68v-37.294c0-2.033-1.663-3.681-3.715-3.681Z"/><path fill="var(--fill-0, #2a4385)" d="M108.815 241.086h-16.72c-2.052 0-3.715 1.648-3.715 3.68v37.294c0 2.033 1.663 3.681 3.715 3.681h16.72c2.052 0 3.715-1.648 3.715-3.681v-37.294c0-2.032-1.663-3.68-3.715-3.68ZM116.172 201.486H85.06c-2.052 0-3.715 1.647-3.715 3.68v12.366c0 2.033 1.663 3.68 3.715 3.68h31.112c2.052 0 3.715-1.647 3.715-3.68v-12.366c0-2.033-1.663-3.68-3.715-3.68Z"/><path fill="var(--fill-0, #f7f3ea)" d="M116.172 278.184H85.06c-2.052 0-3.715 1.648-3.715 3.68v25.321c0 2.032 1.663 3.68 3.715 3.68h31.112c2.052 0 3.715-1.648 3.715-3.68v-25.321c0-2.032-1.663-3.68-3.715-3.68ZM102.102 208.11c33.91 0 62.669-.196 64.65-17.567.124-1.055-1.412-1.963-3.344-1.963H43.026c-1.933 0-3.468.908-3.344 1.963 1.833 17.371 28.51 17.567 62.445 17.567z"/><path fill="var(--fill-0, #f7f3ea)" d="M183.546 164.535H52.958c-1.882 0-3.492-1.423-3.69-3.288L32.448 9.005c-.445-4.024-4.136-6.944-8.198-6.502L11.17 3.926c-2.03.22-3.517 2.036-3.294 4.048L27.47 185.292c.223 1.963 1.982 3.386 3.939 3.264H183.52c4.088 0 7.432-3.313 7.432-7.361v-9.348c0-4.049-3.344-7.361-7.432-7.361z"/></g></svg>