<svg xmlns="http://www.w3.org/2000/svg" fill="none" overflow="visible" preserveAspectRatio="none" style="display:block" viewBox="0 0 166.053 322.828"><g stroke="var(--stroke-0, #2a4385)" stroke-miterlimit="10" stroke-width="2"><path fill="var(--fill-0, #f7f3ea)" d="m76.808 261.008-1.596-2.046a2.883 2.883 0 0 0-4.046-.499l-54.9 42.858a2.884 2.884 0 0 0-.5 4.047l1.597 2.046a2.883 2.883 0 0 0 4.046.499l54.9-42.858a2.884 2.884 0 0 0 .5-4.047ZM149.952 307.557l1.596-2.046a2.884 2.884 0 0 0-.499-4.047l-53.234-41.556a2.88 2.88 0 0 0-4.046.499l-1.596 2.045a2.884 2.884 0 0 0 .499 4.047l53.234 41.557a2.88 2.88 0 0 0 4.046-.499ZM84.957 262.895h-2.555a2.88 2.88 0 0 0-2.883 2.883v36.252a2.883 2.883 0 0 0 2.882 2.883h2.556a2.883 2.883 0 0 0 2.883-2.883v-36.252a2.88 2.88 0 0 0-2.883-2.883Z"/><path fill="var(--fill-0, #2a4385)" d="M10.628 321.828c5.317 0 9.627-4.312 9.627-9.63s-4.31-9.63-9.627-9.63S1 306.879 1 312.198c0 5.318 4.31 9.63 9.628 9.63ZM83.67 321.828c5.318 0 9.628-4.312 9.628-9.63s-4.31-9.63-9.627-9.63-9.628 4.311-9.628 9.63c0 5.318 4.31 9.63 9.628 9.63ZM155.425 321.828c5.318 0 9.628-4.312 9.628-9.63s-4.31-9.63-9.628-9.63c-5.317 0-9.627 4.311-9.627 9.63 0 5.318 4.31 9.63 9.627 9.63Z"/><path fill="var(--fill-0, #f7f3ea)" d="M86.88 218.781h-6.496a2.883 2.883 0 0 0-2.882 2.883v29.755a2.88 2.88 0 0 0 2.882 2.883h6.495a2.88 2.88 0 0 0 2.883-2.883v-29.755a2.883 2.883 0 0 0-2.883-2.883Z"/><path fill="var(--fill-0, #2a4385)" d="M93.163 241.462H74.196a2.883 2.883 0 0 0-2.882 2.883V274.1a2.883 2.883 0 0 0 2.882 2.884h18.967a2.883 2.883 0 0 0 2.882-2.884v-29.755a2.883 2.883 0 0 0-2.882-2.883ZM94.182 211.553H73.178a2.883 2.883 0 0 0-2.883 2.883v4.652a2.88 2.88 0 0 0 2.883 2.883h21.004a2.88 2.88 0 0 0 2.882-2.883v-4.652a2.883 2.883 0 0 0-2.882-2.883Z"/><path fill="var(--fill-0, #f7f3ea)" d="M82.882 142.029h-2.498a2.883 2.883 0 0 0-2.882 2.883v27.16a2.88 2.88 0 0 0 2.882 2.883h2.498a2.88 2.88 0 0 0 2.883-2.883v-27.16a2.883 2.883 0 0 0-2.883-2.883Z"/><path fill="var(--fill-0, #f7f3ea)" d="M81.825 1c33.264 0 60.263 27.006 60.263 60.279v83.941a2.88 2.88 0 0 1-2.882 2.883H24.444a2.88 2.88 0 0 1-2.883-2.883V61.279C21.561 28.006 48.561 1 81.825 1ZM81.95 211.828c27.216 0 50.298-.171 51.888-15.292.1-.918-1.133-1.708-2.684-1.708h-96.62c-1.551 0-2.784.79-2.685 1.708 1.472 15.121 22.883 15.292 50.12 15.292z"/><path fill="var(--fill-0, #f7f3ea)" d="M150.506 168.805H15.105a2.883 2.883 0 0 0-2.883 2.883v20.433a2.883 2.883 0 0 0 2.883 2.883h135.401a2.88 2.88 0 0 0 2.882-2.883v-20.433a2.88 2.88 0 0 0-2.882-2.883Z"/></g></svg>