<svg xmlns="http://www.w3.org/2000/svg" fill="none" overflow="visible" preserveAspectRatio="none" style="display:block" viewBox="0 0 127.414 227.82"><g stroke="var(--stroke-0, #2a4385)" stroke-miterlimit="10" stroke-width="2"><path fill="var(--fill-0, #f7f3ea)" d="M120.957 1H6.457A5.455 5.455 0 0 0 1 6.452v197.906a5.455 5.455 0 0 0 5.458 5.452h114.499a5.454 5.454 0 0 0 5.457-5.452V6.452A5.454 5.454 0 0 0 120.957 1Z"/><path fill="var(--fill-0, #f7f3ea)" d="M120.957 1H6.457A5.455 5.455 0 0 0 1 6.452v41.071a5.455 5.455 0 0 0 5.458 5.452h114.499a5.454 5.454 0 0 0 5.457-5.452V6.452A5.454 5.454 0 0 0 120.957 1Z"/><path fill="var(--fill-0, #f7f3ea)" d="M120.957 52.975H6.457A5.455 5.455 0 0 0 1 58.427V99.5a5.455 5.455 0 0 0 5.458 5.452h114.499a5.454 5.454 0 0 0 5.457-5.452V58.427a5.454 5.454 0 0 0-5.457-5.452Z"/><path fill="var(--fill-0, #f7f3ea)" d="M120.957 104.951H6.457A5.455 5.455 0 0 0 1 110.403v41.071a5.455 5.455 0 0 0 5.458 5.452h114.499a5.454 5.454 0 0 0 5.457-5.452v-41.071a5.454 5.454 0 0 0-5.457-5.452Z"/><path fill="var(--fill-0, #f7f3ea)" d="M120.957 156.89H6.457A5.455 5.455 0 0 0 1 162.342v41.98a5.455 5.455 0 0 0 5.458 5.452h114.499a5.454 5.454 0 0 0 5.457-5.452v-41.98a5.454 5.454 0 0 0-5.457-5.452Z"/><path fill="var(--fill-0, #2a4385)" d="M17.664 209.81H11.55a5.455 5.455 0 0 0-5.457 5.452v6.106a5.455 5.455 0 0 0 5.457 5.452h6.113a5.455 5.455 0 0 0 5.457-5.452v-6.106a5.455 5.455 0 0 0-5.457-5.452ZM116.663 209.81h-6.112a5.455 5.455 0 0 0-5.458 5.452v6.106a5.455 5.455 0 0 0 5.458 5.452h6.112a5.455 5.455 0 0 0 5.458-5.452v-6.106a5.455 5.455 0 0 0-5.458-5.452ZM80.244 14.594H47.17a5.455 5.455 0 0 0-5.458 5.452v6.433a5.455 5.455 0 0 0 5.458 5.452h33.073a5.455 5.455 0 0 0 5.457-5.452v-6.433a5.455 5.455 0 0 0-5.457-5.452ZM80.244 66.896H47.17a5.455 5.455 0 0 0-5.458 5.452v6.433a5.455 5.455 0 0 0 5.458 5.452h33.073a5.455 5.455 0 0 0 5.457-5.452v-6.433a5.455 5.455 0 0 0-5.457-5.452ZM80.244 119.307H47.17a5.455 5.455 0 0 0-5.458 5.452v6.434a5.455 5.455 0 0 0 5.458 5.452h33.073a5.455 5.455 0 0 0 5.457-5.452v-6.434a5.455 5.455 0 0 0-5.457-5.452ZM80.244 170.52H47.17a5.454 5.454 0 0 0-5.458 5.451v6.434a5.455 5.455 0 0 0 5.458 5.452h33.073a5.455 5.455 0 0 0 5.457-5.452v-6.434a5.454 5.454 0 0 0-5.457-5.451Z"/></g></svg>