<svg xmlns="http://www.w3.org/2000/svg" fill="none" overflow="visible" preserveAspectRatio="none" style="display:block" viewBox="0 0 198 341"><g stroke="var(--stroke-0, #2a4385)" stroke-miterlimit="10" stroke-width="2"><path fill="var(--fill-0, #f7f3ea)" d="m97.955 289.923-2.125-4.589a3.65 3.65 0 0 0-4.832-1.776l-75.034 34.451a3.62 3.62 0 0 0-1.783 4.812l2.125 4.59a3.65 3.65 0 0 0 4.832 1.776l75.034-34.451a3.62 3.62 0 0 0 1.783-4.813Z"/><path fill="var(--fill-0, #f7f3ea)" d="m180.253 327.442 2.124-4.59a3.62 3.62 0 0 0-1.782-4.812l-75.034-34.451a3.65 3.65 0 0 0-4.832 1.775l-2.125 4.59a3.62 3.62 0 0 0 1.783 4.813l75.034 34.45a3.65 3.65 0 0 0 4.832-1.775Z"/><path fill="var(--fill-0, #2a4385)" d="M14.908 338.582c6.892 0 12.48-5.565 12.48-12.429s-5.588-12.429-12.48-12.429-12.48 5.565-12.48 12.429 5.587 12.429 12.48 12.429ZM183.092 338.582c6.893 0 12.48-5.565 12.48-12.429s-5.587-12.429-12.48-12.429c-6.892 0-12.479 5.565-12.479 12.429s5.587 12.429 12.479 12.429Z"/><path fill="var(--fill-0, #f7f3ea)" d="M100.25 211.511h-3.374a3.635 3.635 0 0 0-3.642 3.627v36.755a3.635 3.635 0 0 0 3.642 3.627h3.374a3.634 3.634 0 0 0 3.642-3.627v-36.755a3.634 3.634 0 0 0-3.642-3.627Z"/><path fill="var(--fill-0, #2a4385)" d="M106.66 237.602H90.272a3.635 3.635 0 0 0-3.642 3.627v36.755a3.635 3.635 0 0 0 3.642 3.628h16.388a3.634 3.634 0 0 0 3.642-3.628v-36.755a3.634 3.634 0 0 0-3.642-3.627ZM113.871 198.574H83.376a3.635 3.635 0 0 0-3.642 3.627v12.187a3.635 3.635 0 0 0 3.642 3.628h30.495a3.634 3.634 0 0 0 3.642-3.628v-12.187a3.634 3.634 0 0 0-3.642-3.627Z"/><path fill="var(--fill-0, #f7f3ea)" d="M113.871 274.164H83.376a3.635 3.635 0 0 0-3.642 3.627v24.955a3.635 3.635 0 0 0 3.642 3.627h30.495a3.634 3.634 0 0 0 3.642-3.627v-24.955a3.634 3.634 0 0 0-3.642-3.627ZM100.08 205.103c33.239 0 61.428-.194 63.37-17.314.122-1.039-1.384-1.934-3.278-1.934H42.174c-1.894 0-3.4.895-3.278 1.934 1.797 17.12 27.946 17.314 61.209 17.314z"/><path fill="var(--fill-0, #f7f3ea)" d="M179.912 162.158H51.91c-1.845 0-3.424-1.403-3.618-3.241L31.806 8.874c-.437-3.965-4.054-6.843-8.036-6.408L10.95 3.87c-1.99.218-3.448 2.007-3.23 3.99l19.206 174.756c.219 1.934 1.942 3.337 3.86 3.216h149.101c4.007 0 7.284-3.265 7.284-7.255v-9.212c0-3.99-3.277-7.255-7.284-7.255z"/></g></svg>