<svg xmlns="http://www.w3.org/2000/svg" fill="none" overflow="visible" preserveAspectRatio="none" style="display:block" viewBox="0 0 480.632 378.313"><g stroke="var(--stroke-0, #2a4385)" stroke-miterlimit="10" stroke-width="2"><path fill="var(--fill-0, #f7f3ea)" d="m105.504 373.4 16.743-265.388a4.176 4.176 0 0 0-3.904-4.431l-16.532-1.043a4.176 4.176 0 0 0-4.43 3.905L80.638 371.831a4.177 4.177 0 0 0 3.904 4.431l16.531 1.043a4.176 4.176 0 0 0 4.431-3.905ZM402.849 371.739 386.106 106.35a4.176 4.176 0 0 0-4.431-3.904l-16.531 1.043a4.176 4.176 0 0 0-3.905 4.43l16.744 265.389a4.174 4.174 0 0 0 4.43 3.904l16.531-1.043a4.175 4.175 0 0 0 3.905-4.43Z"/><path fill="var(--fill-0, #2a4385)" d="M398.711 115.823H84.745a4.176 4.176 0 0 0-4.175 4.176v22.633a4.176 4.176 0 0 0 4.175 4.176h313.966a4.176 4.176 0 0 0 4.176-4.176v-22.633a4.176 4.176 0 0 0-4.176-4.176Z"/><path fill="var(--fill-0, #f7f3ea)" d="M269.011 51.648h-34.186a4.176 4.176 0 0 0-4.176 4.176v42.204a4.176 4.176 0 0 0 4.176 4.176h34.186a4.176 4.176 0 0 0 4.176-4.176V55.824a4.175 4.175 0 0 0-4.176-4.176ZM435.79 89.742H325.353a4.176 4.176 0 0 0-4.176 4.176v5.122a4.176 4.176 0 0 0 4.176 4.176H435.79a4.176 4.176 0 0 0 4.176-4.176v-5.122a4.176 4.176 0 0 0-4.176-4.176Z"/><path fill="var(--fill-0, #f7f3ea)" d="m308.139 1.07-1.67.309a4.175 4.175 0 0 0-3.348 4.864L320.098 98.2a4.174 4.174 0 0 0 4.864 3.348l1.67-.308a4.177 4.177 0 0 0 3.349-4.865L313.004 4.42a4.176 4.176 0 0 0-4.865-3.349ZM127.59 67.286h-10.217a4.176 4.176 0 0 0-4.176 4.176v5.735a4.176 4.176 0 0 0 4.176 4.176h10.217a4.176 4.176 0 0 0 4.176-4.176v-5.735a4.176 4.176 0 0 0-4.176-4.176Z"/><path fill="var(--fill-0, #f7f3ea)" d="M71.354 56.178c-2.283 0-4.176 1.837-4.176 4.12-.028 5.846-.056 15.84-.056 16.341 0 14.226 11.525 25.751 25.751 25.751s25.751-11.525 25.751-25.75c0-.502 0-10.496-.056-16.342 0-2.283-1.865-4.12-4.176-4.12zM475.457 102.984H5.176A4.176 4.176 0 0 0 1 107.16v16.564a4.176 4.176 0 0 0 4.176 4.176h470.281a4.176 4.176 0 0 0 4.175-4.176V107.16a4.176 4.176 0 0 0-4.175-4.176Z"/></g></svg>