<svg xmlns="http://www.w3.org/2000/svg" fill="none" overflow="visible" preserveAspectRatio="none" style="display:block" viewBox="0 0 261 454"><g stroke="var(--stroke-0, #2a4385)" stroke-width="2"><g stroke-miterlimit="10"><path fill="var(--fill-0, #2a4385)" d="M98.15 31.655h68.349a3.547 3.547 0 0 1 3.549 3.554v4.194H94.601v-4.194a3.547 3.547 0 0 1 3.549-3.554Z"/><path fill="var(--fill-0, #f7f3ea)" d="M177.145 39.648H87.48a3.55 3.55 0 0 0-3.549 3.554v24.855a3.55 3.55 0 0 0 3.549 3.554h89.665a3.55 3.55 0 0 0 3.549-3.554V43.202a3.55 3.55 0 0 0-3.549-3.554Z"/><g fill="var(--fill-0, #2a4385)"><path d="M98.102 59.93a4.43 4.43 0 0 0 4.425-4.43 4.43 4.43 0 0 0-4.425-4.432 4.427 4.427 0 0 0-4.424 4.431c0 2.447 1.981 4.43 4.424 4.43ZM166.546 59.93a4.427 4.427 0 0 0 4.424-4.43c0-2.448-1.98-4.432-4.424-4.432a4.43 4.43 0 0 0-4.424 4.431 4.43 4.43 0 0 0 4.424 4.43ZM132.312 62.584c4.038 0 7.311-3.278 7.311-7.322 0-4.043-3.273-7.321-7.311-7.321-4.037 0-7.31 3.278-7.31 7.321 0 4.044 3.273 7.322 7.31 7.322Z"/></g><path fill="var(--fill-0, #2a4385)" d="M173.81 71.73H90.84v63.972h82.97z"/><path fill="var(--fill-0, #f7f3ea)" d="M176.057 135.418H88.568a3.24 3.24 0 0 0-3.241 3.234 3.24 3.24 0 0 0 3.241 3.234h87.489a3.24 3.24 0 0 0 3.241-3.234 3.24 3.24 0 0 0-3.241-3.234ZM181.451 142.36H83.198a3.55 3.55 0 0 0-3.549 3.554v5.426a3.55 3.55 0 0 0 3.549 3.554h98.253A3.55 3.55 0 0 0 185 151.34v-5.426a3.55 3.55 0 0 0-3.549-3.554ZM174.59 93.86c-5.015-2.347-10.528-4.621-16.584-6.611a153 153 0 0 0-20.796-5.331c.615-2.11 1.254-4.218 1.869-6.327a1829 1829 0 0 0 20.654 5.734c5.725 1.564 11.45 3.08 17.128 4.573.19.047 1.041.308 1.515 1.422.307.71.378 1.587.165 2.511l-.26 1.161c-.473 2.038-2.177 3.365-3.691 2.89zM137.139 83.134h-12.184a2.13 2.13 0 0 0-2.129 2.133v3.27a2.13 2.13 0 0 0 2.129 2.132h12.184a2.13 2.13 0 0 0 2.129-2.132v-3.27a2.13 2.13 0 0 0-2.129-2.133Z"/><path fill="var(--fill-0, #f7f3ea)" d="M141.185 70.743h-20.252a3.55 3.55 0 0 0-3.549 3.554v5.426a3.55 3.55 0 0 0 3.549 3.553h20.252a3.55 3.55 0 0 0 3.549-3.553v-5.426a3.55 3.55 0 0 0-3.549-3.554Z"/><g fill="var(--fill-0, #f7f3ea)"><path d="M161.01 116.06c0 5.402-4.566 9.809-10.244 9.809a9.4 9.4 0 0 1-1.822-.165v-6.161c.544.285 1.16.403 1.822.403 2.247 0 4.093-1.753 4.093-3.909 0-2.157-1.822-3.91-4.093-3.91a4.2 4.2 0 0 0-1.822.403v-6.16a11.6 11.6 0 0 1 1.822-.166c5.654 0 10.244 4.383 10.244 9.809zM118.33 102.365h29.077c.615 0 1.088.498 1.088 1.09v16.112c0 8.648-7.003 15.661-15.638 15.661s-15.639-7.013-15.639-15.661v-16.112c0-.616.497-1.09 1.089-1.09z"/></g></g><g fill="var(--fill-0, #f7f3ea)" stroke-miterlimit="10"><path d="M64.647 135.811c0 5.402-4.566 9.809-10.244 9.809-.615 0-1.23-.048-1.821-.166v-6.161c.544.285 1.159.403 1.821.403 2.248 0 4.093-1.753 4.093-3.909s-1.821-3.91-4.093-3.91c-.662 0-1.277.143-1.821.403v-6.16a11.5 11.5 0 0 1 1.821-.166c5.655 0 10.244 4.383 10.244 9.809zM21.944 122.116H51.02c.615 0 1.088.497 1.088 1.089v16.112c0 8.648-7.002 15.662-15.638 15.662s-15.638-7.014-15.638-15.662v-16.112c0-.616.497-1.089 1.088-1.089z"/></g><path fill="var(--fill-0, #2a4385)" stroke-miterlimit="10" d="M34.759 413.64H27.14c-2.295 0-4.155 2.137-4.155 4.774v12.539c0 2.636 1.86 4.774 4.155 4.774h7.619c2.295 0 4.155-2.138 4.155-4.774v-12.539c0-2.637-1.86-4.774-4.155-4.774ZM233.266 413.64h-7.619c-2.295 0-4.155 2.137-4.155 4.774v12.539c0 2.636 1.86 4.774 4.155 4.774h7.619c2.295 0 4.155-2.138 4.155-4.774v-12.539c0-2.637-1.86-4.774-4.155-4.774Z"/><path fill="var(--fill-0, #f7f3ea)" stroke-miterlimit="10" d="M246.611 167.909H14.361a3.664 3.664 0 0 0-3.662 3.667v241.535a3.664 3.664 0 0 0 3.661 3.667h232.251a3.664 3.664 0 0 0 3.662-3.667V171.576a3.665 3.665 0 0 0-3.662-3.667Z"/><path fill="var(--fill-0, #f7f3ea)" stroke-miterlimit="10" d="M228.99 398.271V187.963H31.981v210.308zM253.849 154.473H7.151a4.294 4.294 0 0 0-4.29 4.297v6.761a4.294 4.294 0 0 0 4.29 4.297H253.85a4.294 4.294 0 0 0 4.29-4.297v-6.761a4.294 4.294 0 0 0-4.29-4.297Z"/><path stroke-miterlimit="10" d="M31.295 261.819h198.41"/><path fill="var(--fill-0, #2a4385)" stroke-linecap="round" stroke-linejoin="round" d="M108.205 211.751h45.46c.66 0 1.195-.573 1.195-1.28v-7.027c0-.706-.535-1.279-1.195-1.279h-45.46c-.66 0-1.195.573-1.195 1.279v7.027c0 .707.535 1.28 1.195 1.28M108.205 286.691h45.46c.66 0 1.195-.573 1.195-1.279v-7.027c0-.707-.535-1.279-1.195-1.279h-45.46c-.66 0-1.195.572-1.195 1.279v7.027c0 .706.535 1.279 1.195 1.279"/></g></svg>