<svg xmlns="http://www.w3.org/2000/svg" fill="none" overflow="visible" preserveAspectRatio="none" style="display:block" viewBox="0 0 548 341.593"><g stroke="var(--stroke-0, #2a4385)" stroke-linecap="round" stroke-linejoin="round" stroke-width="2"><path fill="var(--fill-0, #2a4385)" d="M542.604 85.82H5.396A4.393 4.393 0 0 0 1 90.21v4.42a4.393 4.393 0 0 0 4.396 4.39h537.208A4.393 4.393 0 0 0 547 94.63v-4.42a4.393 4.393 0 0 0-4.396-4.39"/><path fill="var(--fill-0, #f7f3ea)" d="M540.113 99.02H5.396A4.393 4.393 0 0 0 1 103.41v220.384a4.393 4.393 0 0 0 4.396 4.39h534.717a4.393 4.393 0 0 0 4.396-4.39V103.41a4.393 4.393 0 0 0-4.396-4.39"/><path fill="var(--fill-0, #f7f3ea)" d="M531.814 103.15H383.186c-2.312 0-4.186 1.907-4.186 4.26v210.479c0 2.353 1.874 4.261 4.186 4.261h148.628c2.312 0 4.186-1.908 4.186-4.261V107.41c0-2.353-1.874-4.26-4.186-4.26M366.005 105.15h-180.01c-2.759 0-4.995 1.982-4.995 4.428v91.143c0 2.446 2.236 4.429 4.995 4.429h180.01c2.759 0 4.995-1.983 4.995-4.429v-91.143c0-2.446-2.236-4.428-4.995-4.428M366.005 228.15h-180.01c-2.759 0-4.995 1.972-4.995 4.406v85.187c0 2.434 2.236 4.407 4.995 4.407h180.01c2.759 0 4.995-1.973 4.995-4.407v-85.187c0-2.434-2.236-4.406-4.995-4.406"/><path fill="var(--fill-0, #faf6e7)" d="M5.437 212.15h366.126c2.455 0 4.437 2.01 4.437 4.5s-1.982 4.5-4.437 4.5H5.437c-2.455 0-4.437-2.01-4.437-4.5s1.982-4.5 4.437-4.5"/><path fill="var(--fill-0, #f7f3ea)" d="M159.554 119.961H63.396a4.393 4.393 0 0 0-4.396 4.39v82.768a4.393 4.393 0 0 0 4.396 4.39h96.158a4.393 4.393 0 0 0 4.396-4.39v-82.768a4.393 4.393 0 0 0-4.396-4.39"/><path d="M84.762 121.073v89.295M111.46 121.073v89.295M137.426 121.073v89.295M66.62 127.673h9.232M93.789 127.673h9.231M120.106 127.673h9.232M146.425 127.673h9.232"/><path fill="var(--fill-0, #2a4385)" d="M71.691 190.129c1.7 0 3.077-1.375 3.077-3.073a3.075 3.075 0 0 0-3.077-3.073 3.075 3.075 0 0 0-3.077 3.073 3.075 3.075 0 0 0 3.077 3.073M97.833 190.129a3.074 3.074 0 1 0 0-6.146 3.075 3.075 0 0 0-3.077 3.073 3.075 3.075 0 0 0 3.077 3.073M124.738 190.129a3.075 3.075 0 0 0 3.077-3.073 3.075 3.075 0 0 0-3.077-3.073 3.074 3.074 0 1 0 0 6.146M151.026 190.129a3.074 3.074 0 1 0 0-6.146 3.074 3.074 0 1 0 0 6.146"/><path fill="var(--fill-0, #f7f3ea)" d="M281.708 75.814h-96.744a4.394 4.394 0 0 0-4.397 4.39v1.17a4.394 4.394 0 0 0 4.397 4.39h96.744a4.393 4.393 0 0 0 4.396-4.39v-1.17a4.393 4.393 0 0 0-4.396-4.39"/><path fill="var(--fill-0, #2a4385)" d="M276.579 65.779h-86.516a4.393 4.393 0 0 0-4.396 4.39v1.17a4.393 4.393 0 0 0 4.396 4.39h86.516a4.394 4.394 0 0 0 4.396-4.39v-1.17a4.394 4.394 0 0 0-4.396-4.39"/><path fill="var(--fill-0, #f7f3ea)" d="M532.141 16.717H397.766a4.394 4.394 0 0 0-4.397 4.39V81.31a4.394 4.394 0 0 0 4.397 4.39h134.375a4.393 4.393 0 0 0 4.396-4.39V21.107a4.393 4.393 0 0 0-4.396-4.39"/><path fill="var(--fill-0, #2a4385)" d="M500.459 1h-72.771a4.394 4.394 0 0 0-4.396 4.39v19.112a4.394 4.394 0 0 0 4.396 4.39h72.771a4.393 4.393 0 0 0 4.396-4.39V5.39A4.393 4.393 0 0 0 500.459 1"/><path d="M401.048 27.327h4.396M525.81 27.663h1.759M413.767 17.712V66.53H514.38V17.712M468.427 38.609h-7.444M514.996 85.846V72.12H413.797V85.7c5.071 0 12.925.146 18.025.146"/><path fill="var(--fill-0, #2a4385)" d="M516.022 329.004h19.958v7.199a4.387 4.387 0 0 1-4.396 4.39h-11.166a4.387 4.387 0 0 1-4.396-4.39z"/></g></svg>